G04*
G04 #@! TF.GenerationSoftware,Altium Limited,Altium Designer,20.0.13 (296)*
G04*
G04 Layer_Physical_Order=3*
G04 Layer_Color=36540*
%FSLAX24Y24*%
%MOIN*%
G70*
G01*
G75*
%ADD17C,0.0080*%
%ADD46C,0.0300*%
%ADD47C,0.0250*%
%ADD48C,0.0800*%
%ADD49R,0.0591X0.0591*%
%ADD50C,0.0591*%
%ADD51R,0.0591X0.0591*%
G04:AMPARAMS|DCode=54|XSize=236.2mil|YSize=157.5mil|CornerRadius=39.4mil|HoleSize=0mil|Usage=FLASHONLY|Rotation=270.000|XOffset=0mil|YOffset=0mil|HoleType=Round|Shape=RoundedRectangle|*
%AMROUNDEDRECTD54*
21,1,0.2362,0.0787,0,0,270.0*
21,1,0.1575,0.1575,0,0,270.0*
1,1,0.0787,-0.0394,-0.0787*
1,1,0.0787,-0.0394,0.0787*
1,1,0.0787,0.0394,0.0787*
1,1,0.0787,0.0394,-0.0787*
%
%ADD54ROUNDEDRECTD54*%
%ADD55O,0.0787X0.1181*%
%ADD59C,0.0591*%
%ADD61C,0.0240*%
G36*
X31650Y0D02*
X-50D01*
Y26650D01*
X31650D01*
Y0D01*
D02*
G37*
%LPC*%
G36*
X10604Y26402D02*
X2800D01*
X2761Y26394D01*
X2728Y26372D01*
X1978Y25622D01*
X1956Y25589D01*
X1948Y25550D01*
Y25232D01*
X1898Y25228D01*
X1896Y25243D01*
X1860Y25329D01*
X1803Y25403D01*
X1729Y25460D01*
X1643Y25496D01*
X1550Y25508D01*
X1457Y25496D01*
X1371Y25460D01*
X1297Y25403D01*
X1240Y25329D01*
X1204Y25243D01*
X1192Y25150D01*
X1204Y25057D01*
X1240Y24971D01*
X1297Y24897D01*
X1371Y24840D01*
X1457Y24804D01*
X1550Y24792D01*
X1643Y24804D01*
X1729Y24840D01*
X1803Y24897D01*
X1860Y24971D01*
X1896Y25057D01*
X1898Y25072D01*
X1948Y25068D01*
Y23432D01*
X1898Y23428D01*
X1896Y23443D01*
X1860Y23529D01*
X1803Y23603D01*
X1729Y23660D01*
X1643Y23696D01*
X1550Y23708D01*
X1457Y23696D01*
X1371Y23660D01*
X1297Y23603D01*
X1240Y23529D01*
X1204Y23443D01*
X1192Y23350D01*
X1204Y23257D01*
X1240Y23171D01*
X1297Y23097D01*
X1371Y23040D01*
X1457Y23004D01*
X1550Y22992D01*
X1643Y23004D01*
X1729Y23040D01*
X1803Y23097D01*
X1860Y23171D01*
X1896Y23257D01*
X1898Y23272D01*
X1948Y23268D01*
Y22892D01*
X1720Y22664D01*
X1643Y22696D01*
X1550Y22708D01*
X1457Y22696D01*
X1371Y22660D01*
X1297Y22603D01*
X1240Y22529D01*
X1204Y22443D01*
X1192Y22350D01*
X1204Y22257D01*
X1240Y22171D01*
X1297Y22097D01*
X1371Y22040D01*
X1457Y22004D01*
X1550Y21992D01*
X1643Y22004D01*
X1729Y22040D01*
X1803Y22097D01*
X1860Y22171D01*
X1896Y22257D01*
X1908Y22350D01*
X1896Y22443D01*
X1864Y22520D01*
X2122Y22778D01*
X2144Y22811D01*
X2152Y22850D01*
Y25068D01*
X2202Y25072D01*
X2204Y25057D01*
X2240Y24971D01*
X2297Y24897D01*
X2336Y24866D01*
Y21439D01*
X1602Y20705D01*
X1195D01*
Y19995D01*
X1905D01*
Y20111D01*
X3443D01*
X3462Y20065D01*
X2399Y19001D01*
X2352Y18932D01*
X2336Y18850D01*
Y17434D01*
X2297Y17403D01*
X2240Y17329D01*
X2204Y17243D01*
X2192Y17150D01*
X2204Y17057D01*
X2240Y16971D01*
X2297Y16897D01*
X2371Y16840D01*
X2457Y16804D01*
X2550Y16792D01*
X2643Y16804D01*
X2729Y16840D01*
X2803Y16897D01*
X2860Y16971D01*
X2896Y17057D01*
X2908Y17150D01*
X2896Y17243D01*
X2860Y17329D01*
X2803Y17403D01*
X2764Y17434D01*
Y18761D01*
X3948Y19945D01*
X4355D01*
Y20086D01*
X5661D01*
X6349Y19399D01*
X6352Y19396D01*
X6333Y19349D01*
X6310Y19354D01*
X6240Y19340D01*
X6180Y19300D01*
X6140Y19240D01*
X6126Y19170D01*
X6140Y19100D01*
X6180Y19040D01*
X6240Y19000D01*
X6310Y18986D01*
X6380Y19000D01*
X6440Y19040D01*
X6480Y19100D01*
X6494Y19170D01*
X6480Y19240D01*
X6442Y19296D01*
X6446Y19310D01*
X6465Y19343D01*
X6500Y19336D01*
X7268D01*
X7287Y19290D01*
X5711Y17714D01*
X4650D01*
X4568Y17698D01*
X4499Y17651D01*
X4211Y17364D01*
X3649Y16801D01*
X3602Y16732D01*
X3586Y16650D01*
Y12750D01*
X3602Y12668D01*
X3649Y12599D01*
X5099Y11149D01*
X5168Y11102D01*
X5250Y11086D01*
X7261D01*
X8399Y9949D01*
X8399Y9949D01*
X8436Y9911D01*
Y7739D01*
X8011Y7314D01*
X4150D01*
X4068Y7298D01*
X3999Y7251D01*
X3699Y6951D01*
X3652Y6882D01*
X3636Y6800D01*
Y2739D01*
X2199Y1301D01*
X2152Y1232D01*
X2136Y1150D01*
X2152Y1068D01*
X2199Y999D01*
X2268Y952D01*
X2350Y936D01*
X2432Y952D01*
X2501Y999D01*
X4001Y2499D01*
X4048Y2568D01*
X4064Y2650D01*
Y6711D01*
X4239Y6886D01*
X8100D01*
X8182Y6902D01*
X8251Y6949D01*
X8650Y7347D01*
X9286Y6711D01*
Y6086D01*
X9236Y6071D01*
X9230Y6080D01*
X9170Y6120D01*
X9100Y6134D01*
X9030Y6120D01*
X8970Y6080D01*
X8930Y6020D01*
X8916Y5950D01*
X8930Y5880D01*
X8970Y5820D01*
X9030Y5780D01*
X9100Y5766D01*
X9170Y5780D01*
X9230Y5820D01*
X9236Y5829D01*
X9286Y5814D01*
Y5305D01*
X9145D01*
Y4595D01*
X9855D01*
Y4736D01*
X10036D01*
X10086Y4686D01*
Y2526D01*
X10102Y2444D01*
X10149Y2374D01*
X10324Y2199D01*
X10394Y2152D01*
X10476Y2136D01*
X17011D01*
X18349Y799D01*
X18418Y752D01*
X18500Y736D01*
X18961D01*
X19249Y449D01*
X19318Y402D01*
X19400Y386D01*
X20900D01*
X20982Y402D01*
X21051Y449D01*
X21651Y1049D01*
X21698Y1118D01*
X21714Y1200D01*
Y2886D01*
X22877Y4048D01*
X26112D01*
X26194Y4064D01*
X26264Y4111D01*
X27551Y5399D01*
X27551Y5399D01*
X28301Y6149D01*
X28348Y6218D01*
X28364Y6300D01*
Y11400D01*
X28348Y11482D01*
X28301Y11551D01*
X27051Y12801D01*
X26982Y12848D01*
X26900Y12864D01*
X26882D01*
X26863Y12910D01*
X27201Y13249D01*
X27248Y13318D01*
X27264Y13400D01*
Y16061D01*
X27957Y16755D01*
X28004Y16824D01*
X28020Y16906D01*
Y17244D01*
X28004Y17326D01*
X27957Y17395D01*
X27851Y17501D01*
X27782Y17548D01*
X27700Y17564D01*
X27550D01*
X27468Y17548D01*
X27454Y17539D01*
X27428D01*
X27339Y17628D01*
Y20025D01*
X27375Y20061D01*
X27950D01*
X28022Y20076D01*
X28083Y20117D01*
X29433Y21467D01*
X29474Y21528D01*
X29489Y21600D01*
Y23404D01*
X29474Y23476D01*
X29433Y23537D01*
X29287Y23683D01*
X29226Y23724D01*
X29154Y23739D01*
X28228D01*
X27398Y24569D01*
X27408Y24650D01*
X27396Y24743D01*
X27360Y24829D01*
X27303Y24903D01*
X27229Y24960D01*
X27143Y24996D01*
X27050Y25008D01*
X26957Y24996D01*
X26871Y24960D01*
X26797Y24903D01*
X26740Y24829D01*
X26704Y24743D01*
X26692Y24650D01*
X26698Y24601D01*
X25811Y23714D01*
X24742D01*
X24716Y23764D01*
X24740Y23800D01*
X24754Y23870D01*
X24740Y23940D01*
X24735Y23946D01*
X24766Y23991D01*
X24815Y23981D01*
X24885Y23995D01*
X24945Y24035D01*
X24985Y24095D01*
X24999Y24165D01*
X24985Y24235D01*
X24974Y24251D01*
X25003Y24298D01*
X25050Y24292D01*
X25143Y24304D01*
X25229Y24340D01*
X25303Y24397D01*
X25360Y24471D01*
X25396Y24557D01*
X25408Y24650D01*
X25396Y24743D01*
X25360Y24829D01*
X25303Y24903D01*
X25229Y24960D01*
X25143Y24996D01*
X25050Y25008D01*
X24957Y24996D01*
X24871Y24960D01*
X24797Y24903D01*
X24740Y24829D01*
X24704Y24743D01*
X24692Y24650D01*
X24704Y24557D01*
X24740Y24471D01*
X24797Y24397D01*
X24797Y24396D01*
X24785Y24343D01*
X24745Y24335D01*
X24685Y24295D01*
X24645Y24235D01*
X24631Y24165D01*
X24645Y24095D01*
X24650Y24089D01*
X24619Y24044D01*
X24570Y24054D01*
X24500Y24040D01*
X24440Y24000D01*
X24400Y23940D01*
X24386Y23870D01*
X24400Y23800D01*
X24424Y23764D01*
X24398Y23714D01*
X22250D01*
X22168Y23698D01*
X22099Y23651D01*
X21102Y22655D01*
X20695D01*
Y21945D01*
X21405D01*
Y22352D01*
X22339Y23286D01*
X25900D01*
X25982Y23302D01*
X26051Y23349D01*
X27001Y24298D01*
X27050Y24292D01*
X27131Y24302D01*
X28017Y23417D01*
X28078Y23376D01*
X28150Y23361D01*
X29075D01*
X29111Y23325D01*
Y21678D01*
X27872Y20439D01*
X27296D01*
X27224Y20424D01*
X27163Y20383D01*
X27017Y20237D01*
X26976Y20176D01*
X26961Y20104D01*
Y17550D01*
X26976Y17478D01*
X27017Y17417D01*
X27217Y17217D01*
X27278Y17176D01*
X27350Y17161D01*
X27454D01*
X27468Y17152D01*
X27550Y17136D01*
X27592D01*
Y16995D01*
X26899Y16301D01*
X26852Y16232D01*
X26836Y16150D01*
Y13489D01*
X26352Y13005D01*
X25945D01*
Y12295D01*
X26655D01*
Y12436D01*
X26811D01*
X27936Y11311D01*
Y6389D01*
X27249Y5701D01*
X27249Y5701D01*
X26023Y4476D01*
X22788D01*
X22706Y4460D01*
X22636Y4414D01*
X21349Y3126D01*
X21302Y3056D01*
X21296Y3026D01*
X21286Y2974D01*
Y1289D01*
X20811Y814D01*
X19489D01*
X19201Y1101D01*
X19132Y1148D01*
X19050Y1164D01*
X18589D01*
X17251Y2501D01*
X17182Y2548D01*
X17100Y2564D01*
X10564D01*
X10514Y2614D01*
Y4774D01*
X10498Y4856D01*
X10451Y4926D01*
X10276Y5101D01*
X10206Y5148D01*
X10124Y5164D01*
X9855D01*
Y5305D01*
X9714D01*
Y6800D01*
X9698Y6882D01*
X9651Y6951D01*
X8864Y7739D01*
Y8314D01*
X8914Y8329D01*
X8920Y8320D01*
X8980Y8280D01*
X9050Y8266D01*
X9120Y8280D01*
X9180Y8320D01*
X9220Y8380D01*
X9234Y8450D01*
X9220Y8520D01*
X9180Y8580D01*
X9120Y8620D01*
X9050Y8634D01*
X8980Y8620D01*
X8920Y8580D01*
X8914Y8571D01*
X8864Y8586D01*
Y10000D01*
X8848Y10082D01*
X8801Y10151D01*
X8701Y10251D01*
X8701Y10251D01*
X7501Y11451D01*
X7432Y11498D01*
X7350Y11514D01*
X5339D01*
X4014Y12839D01*
Y16561D01*
X4514Y17061D01*
X4739Y17286D01*
X5800D01*
X5882Y17302D01*
X5951Y17349D01*
X8001Y19399D01*
X8048Y19468D01*
X8058Y19517D01*
X8112Y19534D01*
X9438Y18208D01*
Y10630D01*
X9439Y10626D01*
X9392Y10602D01*
X5289Y14706D01*
X5255Y14728D01*
X5216Y14736D01*
X4518D01*
X4500Y14763D01*
X4440Y14803D01*
X4370Y14817D01*
X4300Y14803D01*
X4240Y14763D01*
X4200Y14704D01*
X4186Y14634D01*
X4200Y14563D01*
X4240Y14504D01*
X4300Y14464D01*
X4370Y14450D01*
X4440Y14464D01*
X4500Y14504D01*
X4518Y14532D01*
X5174D01*
X9886Y9820D01*
X9854Y9743D01*
X9842Y9650D01*
X9854Y9557D01*
X9890Y9471D01*
X9947Y9397D01*
X10021Y9340D01*
X10107Y9304D01*
X10200Y9292D01*
X10293Y9304D01*
X10379Y9340D01*
X10453Y9397D01*
X10510Y9471D01*
X10546Y9557D01*
X10558Y9650D01*
X10546Y9743D01*
X10510Y9829D01*
X10453Y9903D01*
X10379Y9960D01*
X10293Y9996D01*
X10200Y10008D01*
X10107Y9996D01*
X10030Y9964D01*
X9891Y10103D01*
X9916Y10149D01*
X9920Y10148D01*
X10558D01*
X10886Y9820D01*
X10854Y9743D01*
X10842Y9650D01*
X10854Y9557D01*
X10890Y9471D01*
X10947Y9397D01*
X11021Y9340D01*
X11107Y9304D01*
X11200Y9292D01*
X11293Y9304D01*
X11379Y9340D01*
X11453Y9397D01*
X11510Y9471D01*
X11546Y9557D01*
X11558Y9650D01*
X11546Y9743D01*
X11510Y9829D01*
X11453Y9903D01*
X11379Y9960D01*
X11293Y9996D01*
X11200Y10008D01*
X11107Y9996D01*
X11030Y9964D01*
X10672Y10322D01*
X10639Y10344D01*
X10600Y10352D01*
X10469D01*
X10468Y10353D01*
X10457Y10402D01*
X10510Y10471D01*
X10546Y10557D01*
X10558Y10650D01*
X10546Y10743D01*
X10510Y10829D01*
X10453Y10903D01*
X10379Y10960D01*
X10293Y10996D01*
X10200Y11008D01*
X10107Y10996D01*
X10021Y10960D01*
X9947Y10903D01*
X9890Y10829D01*
X9854Y10743D01*
X9842Y10650D01*
X9854Y10557D01*
X9872Y10512D01*
X9830Y10484D01*
X9642Y10672D01*
Y18250D01*
X9634Y18289D01*
X9612Y18322D01*
X7886Y20048D01*
X7907Y20098D01*
X7982D01*
X10059Y18021D01*
X10050Y17972D01*
X10021Y17960D01*
X9947Y17903D01*
X9890Y17829D01*
X9854Y17743D01*
X9842Y17650D01*
X9854Y17557D01*
X9890Y17471D01*
X9947Y17397D01*
X10021Y17340D01*
X10107Y17304D01*
X10200Y17292D01*
X10293Y17304D01*
X10379Y17340D01*
X10453Y17397D01*
X10510Y17471D01*
X10546Y17557D01*
X10558Y17650D01*
X10546Y17743D01*
X10510Y17829D01*
X10453Y17903D01*
X10379Y17960D01*
X10302Y17992D01*
Y18025D01*
X10294Y18064D01*
X10272Y18097D01*
X10117Y18252D01*
X10140Y18300D01*
X10200Y18292D01*
X10293Y18304D01*
X10379Y18340D01*
X10453Y18397D01*
X10510Y18471D01*
X10546Y18557D01*
X10558Y18650D01*
X10546Y18743D01*
X10510Y18829D01*
X10453Y18903D01*
X10379Y18960D01*
X10293Y18996D01*
X10200Y19008D01*
X10107Y18996D01*
X10021Y18960D01*
X9947Y18903D01*
X9890Y18829D01*
X9854Y18743D01*
X9842Y18650D01*
X9850Y18590D01*
X9802Y18567D01*
X8097Y20272D01*
X8064Y20294D01*
X8025Y20302D01*
X7473D01*
X7455Y20345D01*
X7455D01*
Y20911D01*
X7622Y21078D01*
X8168D01*
X8364Y20882D01*
X8343Y20832D01*
X8278D01*
X8260Y20860D01*
X8200Y20900D01*
X8130Y20914D01*
X8060Y20900D01*
X8000Y20860D01*
X7960Y20800D01*
X7946Y20730D01*
X7960Y20660D01*
X8000Y20600D01*
X8060Y20560D01*
X8130Y20546D01*
X8200Y20560D01*
X8260Y20600D01*
X8278Y20628D01*
X8350D01*
X9800Y19178D01*
X9833Y19156D01*
X9872Y19148D01*
X12469D01*
X16309Y15308D01*
X16290Y15262D01*
X11322D01*
X11312Y15312D01*
X11379Y15340D01*
X11453Y15397D01*
X11510Y15471D01*
X11546Y15557D01*
X11558Y15650D01*
X11546Y15743D01*
X11510Y15829D01*
X11453Y15903D01*
X11379Y15960D01*
X11293Y15996D01*
X11200Y16008D01*
X11107Y15996D01*
X11021Y15960D01*
X10947Y15903D01*
X10890Y15829D01*
X10854Y15743D01*
X10842Y15650D01*
X10854Y15557D01*
X10890Y15471D01*
X10947Y15397D01*
X11021Y15340D01*
X11088Y15312D01*
X11078Y15262D01*
X10732D01*
X10514Y15480D01*
X10546Y15557D01*
X10558Y15650D01*
X10546Y15743D01*
X10510Y15829D01*
X10453Y15903D01*
X10379Y15960D01*
X10293Y15996D01*
X10200Y16008D01*
X10107Y15996D01*
X10021Y15960D01*
X9947Y15903D01*
X9890Y15829D01*
X9854Y15743D01*
X9842Y15650D01*
X9854Y15557D01*
X9890Y15471D01*
X9947Y15397D01*
X10021Y15340D01*
X10107Y15304D01*
X10200Y15292D01*
X10293Y15304D01*
X10370Y15336D01*
X10618Y15088D01*
X10651Y15066D01*
X10690Y15058D01*
X13655D01*
X13655Y15058D01*
X13681Y15008D01*
X13592Y14829D01*
X13591Y14820D01*
X13586Y14813D01*
X13536Y14563D01*
X13537Y14558D01*
X13535Y14554D01*
X13285Y10354D01*
X13286Y10352D01*
X13285Y10350D01*
Y9754D01*
X13223Y9307D01*
X13224Y9301D01*
X13222Y9296D01*
X13235Y8799D01*
Y8650D01*
X13254Y8604D01*
X13300Y8585D01*
X14623D01*
X14954Y8254D01*
X15000Y8235D01*
X16023Y8235D01*
X17104Y7154D01*
X17150Y7135D01*
X24473Y7135D01*
X25254Y6354D01*
X25300Y6335D01*
X25900D01*
X25946Y6354D01*
X26046Y6454D01*
X26065Y6500D01*
Y7500D01*
X26046Y7546D01*
X25546Y8046D01*
X25500Y8065D01*
X21227D01*
X21115Y8177D01*
Y10700D01*
X21165Y10705D01*
X21166Y10701D01*
X21188Y10668D01*
X21678Y10178D01*
X21711Y10156D01*
X21750Y10148D01*
X21906D01*
X21923Y10098D01*
X21855Y10045D01*
X21788Y9959D01*
X21746Y9858D01*
X21732Y9750D01*
X21746Y9642D01*
X21788Y9541D01*
X21855Y9455D01*
X21941Y9388D01*
X22042Y9346D01*
X22150Y9332D01*
X22258Y9346D01*
X22359Y9388D01*
X22445Y9455D01*
X22512Y9541D01*
X22554Y9642D01*
X22568Y9750D01*
X22554Y9858D01*
X22512Y9959D01*
X22445Y10045D01*
X22377Y10098D01*
X22394Y10148D01*
X22470D01*
X22509Y10156D01*
X22542Y10178D01*
X22997Y10633D01*
X23030Y10626D01*
X23100Y10640D01*
X23160Y10680D01*
X23200Y10740D01*
X23214Y10810D01*
X23200Y10880D01*
X23160Y10940D01*
X23100Y10980D01*
X23030Y10994D01*
X22960Y10980D01*
X22900Y10940D01*
X22860Y10880D01*
X22846Y10810D01*
X22853Y10777D01*
X22441Y10365D01*
X22416Y10369D01*
X22403Y10422D01*
X22445Y10454D01*
X22512Y10541D01*
X22554Y10642D01*
X22568Y10750D01*
X22554Y10858D01*
X22512Y10959D01*
X22445Y11046D01*
X22359Y11112D01*
X22258Y11154D01*
X22150Y11168D01*
X22042Y11154D01*
X21941Y11112D01*
X21855Y11046D01*
X21788Y10959D01*
X21746Y10858D01*
X21732Y10750D01*
X21746Y10642D01*
X21788Y10541D01*
X21855Y10454D01*
X21923Y10402D01*
X21906Y10352D01*
X21792D01*
X21362Y10782D01*
Y11963D01*
X21366Y11965D01*
X21412Y11972D01*
X21428Y11948D01*
X21928Y11448D01*
X21961Y11426D01*
X22000Y11418D01*
X22758D01*
X25398Y8778D01*
X25431Y8756D01*
X25470Y8748D01*
X27152D01*
X27170Y8720D01*
X27230Y8680D01*
X27300Y8666D01*
X27370Y8680D01*
X27430Y8720D01*
X27470Y8780D01*
X27484Y8850D01*
X27470Y8920D01*
X27430Y8980D01*
X27370Y9020D01*
X27300Y9034D01*
X27230Y9020D01*
X27170Y8980D01*
X27152Y8952D01*
X25512D01*
X22924Y11540D01*
X22944Y11586D01*
X23911D01*
X25649Y9849D01*
X25718Y9802D01*
X25800Y9786D01*
X25882Y9802D01*
X25951Y9849D01*
X25998Y9918D01*
X26014Y10000D01*
X25998Y10082D01*
X25951Y10151D01*
X24151Y11951D01*
X24082Y11998D01*
X24000Y12014D01*
X22314D01*
Y15061D01*
X23396Y16143D01*
X23442Y16213D01*
X23459Y16294D01*
X23442Y16376D01*
X23396Y16446D01*
X20314Y19528D01*
Y25200D01*
X20298Y25282D01*
X20251Y25351D01*
X19451Y26151D01*
X19382Y26198D01*
X19300Y26214D01*
X11300D01*
X11218Y26198D01*
X11149Y26151D01*
X11102Y26082D01*
X11091Y26027D01*
X11037Y26011D01*
X10676Y26372D01*
X10643Y26394D01*
X10604Y26402D01*
D02*
G37*
G36*
X26050Y25008D02*
X25957Y24996D01*
X25871Y24960D01*
X25797Y24903D01*
X25740Y24829D01*
X25704Y24743D01*
X25692Y24650D01*
X25704Y24557D01*
X25740Y24471D01*
X25797Y24397D01*
X25871Y24340D01*
X25957Y24304D01*
X26050Y24292D01*
X26143Y24304D01*
X26229Y24340D01*
X26303Y24397D01*
X26360Y24471D01*
X26396Y24557D01*
X26408Y24650D01*
X26396Y24743D01*
X26360Y24829D01*
X26303Y24903D01*
X26229Y24960D01*
X26143Y24996D01*
X26050Y25008D01*
D02*
G37*
G36*
X24050D02*
X23957Y24996D01*
X23871Y24960D01*
X23797Y24903D01*
X23740Y24829D01*
X23704Y24743D01*
X23692Y24650D01*
X23704Y24557D01*
X23740Y24471D01*
X23797Y24397D01*
X23871Y24340D01*
X23957Y24304D01*
X24050Y24292D01*
X24143Y24304D01*
X24229Y24340D01*
X24303Y24397D01*
X24360Y24471D01*
X24396Y24557D01*
X24408Y24650D01*
X24396Y24743D01*
X24360Y24829D01*
X24303Y24903D01*
X24229Y24960D01*
X24143Y24996D01*
X24050Y25008D01*
D02*
G37*
G36*
X23050D02*
X22957Y24996D01*
X22871Y24960D01*
X22797Y24903D01*
X22740Y24829D01*
X22704Y24743D01*
X22692Y24650D01*
X22704Y24557D01*
X22740Y24471D01*
X22797Y24397D01*
X22871Y24340D01*
X22957Y24304D01*
X23050Y24292D01*
X23143Y24304D01*
X23229Y24340D01*
X23303Y24397D01*
X23360Y24471D01*
X23396Y24557D01*
X23408Y24650D01*
X23396Y24743D01*
X23360Y24829D01*
X23303Y24903D01*
X23229Y24960D01*
X23143Y24996D01*
X23050Y25008D01*
D02*
G37*
G36*
X22050D02*
X21957Y24996D01*
X21871Y24960D01*
X21797Y24903D01*
X21740Y24829D01*
X21704Y24743D01*
X21692Y24650D01*
X21704Y24557D01*
X21740Y24471D01*
X21797Y24397D01*
X21871Y24340D01*
X21957Y24304D01*
X22050Y24292D01*
X22143Y24304D01*
X22229Y24340D01*
X22303Y24397D01*
X22360Y24471D01*
X22396Y24557D01*
X22408Y24650D01*
X22396Y24743D01*
X22360Y24829D01*
X22303Y24903D01*
X22229Y24960D01*
X22143Y24996D01*
X22050Y25008D01*
D02*
G37*
G36*
X21050D02*
X20957Y24996D01*
X20871Y24960D01*
X20797Y24903D01*
X20740Y24829D01*
X20704Y24743D01*
X20692Y24650D01*
X20704Y24557D01*
X20740Y24471D01*
X20797Y24397D01*
X20871Y24340D01*
X20957Y24304D01*
X21050Y24292D01*
X21143Y24304D01*
X21229Y24340D01*
X21303Y24397D01*
X21360Y24471D01*
X21396Y24557D01*
X21408Y24650D01*
X21396Y24743D01*
X21360Y24829D01*
X21303Y24903D01*
X21229Y24960D01*
X21143Y24996D01*
X21050Y25008D01*
D02*
G37*
G36*
X30050Y26263D02*
X29884Y26250D01*
X29721Y26211D01*
X29567Y26147D01*
X29425Y26060D01*
X29298Y25952D01*
X29190Y25825D01*
X29103Y25683D01*
X29039Y25529D01*
X29000Y25366D01*
X28987Y25200D01*
X29000Y25034D01*
X29039Y24871D01*
X29103Y24717D01*
X29190Y24575D01*
X29298Y24448D01*
X29425Y24340D01*
X29567Y24253D01*
X29721Y24189D01*
X29884Y24150D01*
X30050Y24137D01*
X30216Y24150D01*
X30379Y24189D01*
X30533Y24253D01*
X30675Y24340D01*
X30802Y24448D01*
X30910Y24575D01*
X30997Y24717D01*
X31061Y24871D01*
X31100Y25034D01*
X31113Y25200D01*
X31100Y25366D01*
X31061Y25529D01*
X30997Y25683D01*
X30910Y25825D01*
X30802Y25952D01*
X30675Y26060D01*
X30533Y26147D01*
X30379Y26211D01*
X30216Y26250D01*
X30050Y26263D01*
D02*
G37*
G36*
X28050Y22658D02*
X27957Y22646D01*
X27871Y22610D01*
X27797Y22553D01*
X27740Y22479D01*
X27704Y22393D01*
X27692Y22300D01*
X27704Y22207D01*
X27740Y22121D01*
X27797Y22047D01*
X27871Y21990D01*
X27957Y21954D01*
X28050Y21942D01*
X28143Y21954D01*
X28229Y21990D01*
X28303Y22047D01*
X28360Y22121D01*
X28396Y22207D01*
X28408Y22300D01*
X28396Y22393D01*
X28360Y22479D01*
X28303Y22553D01*
X28229Y22610D01*
X28143Y22646D01*
X28050Y22658D01*
D02*
G37*
G36*
X27050D02*
X26957Y22646D01*
X26871Y22610D01*
X26797Y22553D01*
X26740Y22479D01*
X26704Y22393D01*
X26692Y22300D01*
X26704Y22207D01*
X26740Y22121D01*
X26797Y22047D01*
X26871Y21990D01*
X26957Y21954D01*
X27050Y21942D01*
X27143Y21954D01*
X27229Y21990D01*
X27303Y22047D01*
X27360Y22121D01*
X27396Y22207D01*
X27408Y22300D01*
X27396Y22393D01*
X27360Y22479D01*
X27303Y22553D01*
X27229Y22610D01*
X27143Y22646D01*
X27050Y22658D01*
D02*
G37*
G36*
X26050D02*
X25957Y22646D01*
X25871Y22610D01*
X25797Y22553D01*
X25740Y22479D01*
X25704Y22393D01*
X25692Y22300D01*
X25704Y22207D01*
X25740Y22121D01*
X25797Y22047D01*
X25871Y21990D01*
X25957Y21954D01*
X26050Y21942D01*
X26143Y21954D01*
X26229Y21990D01*
X26303Y22047D01*
X26360Y22121D01*
X26396Y22207D01*
X26408Y22300D01*
X26396Y22393D01*
X26360Y22479D01*
X26303Y22553D01*
X26229Y22610D01*
X26143Y22646D01*
X26050Y22658D01*
D02*
G37*
G36*
X25050D02*
X24957Y22646D01*
X24871Y22610D01*
X24797Y22553D01*
X24740Y22479D01*
X24704Y22393D01*
X24692Y22300D01*
X24704Y22207D01*
X24740Y22121D01*
X24797Y22047D01*
X24871Y21990D01*
X24957Y21954D01*
X25050Y21942D01*
X25143Y21954D01*
X25229Y21990D01*
X25303Y22047D01*
X25360Y22121D01*
X25396Y22207D01*
X25408Y22300D01*
X25396Y22393D01*
X25360Y22479D01*
X25303Y22553D01*
X25229Y22610D01*
X25143Y22646D01*
X25050Y22658D01*
D02*
G37*
G36*
X24050D02*
X23957Y22646D01*
X23871Y22610D01*
X23797Y22553D01*
X23740Y22479D01*
X23704Y22393D01*
X23692Y22300D01*
X23704Y22207D01*
X23740Y22121D01*
X23797Y22047D01*
X23871Y21990D01*
X23957Y21954D01*
X24050Y21942D01*
X24143Y21954D01*
X24229Y21990D01*
X24303Y22047D01*
X24360Y22121D01*
X24396Y22207D01*
X24408Y22300D01*
X24396Y22393D01*
X24360Y22479D01*
X24303Y22553D01*
X24229Y22610D01*
X24143Y22646D01*
X24050Y22658D01*
D02*
G37*
G36*
X23050D02*
X22957Y22646D01*
X22871Y22610D01*
X22797Y22553D01*
X22740Y22479D01*
X22704Y22393D01*
X22692Y22300D01*
X22704Y22207D01*
X22740Y22121D01*
X22797Y22047D01*
X22871Y21990D01*
X22957Y21954D01*
X23050Y21942D01*
X23143Y21954D01*
X23229Y21990D01*
X23303Y22047D01*
X23360Y22121D01*
X23396Y22207D01*
X23408Y22300D01*
X23396Y22393D01*
X23360Y22479D01*
X23303Y22553D01*
X23229Y22610D01*
X23143Y22646D01*
X23050Y22658D01*
D02*
G37*
G36*
X11200Y19008D02*
X11107Y18996D01*
X11021Y18960D01*
X10947Y18903D01*
X10890Y18829D01*
X10854Y18743D01*
X10842Y18650D01*
X10854Y18557D01*
X10890Y18471D01*
X10947Y18397D01*
X11021Y18340D01*
X11107Y18304D01*
X11200Y18292D01*
X11293Y18304D01*
X11379Y18340D01*
X11453Y18397D01*
X11510Y18471D01*
X11546Y18557D01*
X11558Y18650D01*
X11546Y18743D01*
X11510Y18829D01*
X11453Y18903D01*
X11379Y18960D01*
X11293Y18996D01*
X11200Y19008D01*
D02*
G37*
G36*
X29450Y18534D02*
X29380Y18520D01*
X29320Y18480D01*
X29280Y18420D01*
X29266Y18350D01*
X29280Y18280D01*
X29320Y18220D01*
X29380Y18180D01*
X29450Y18166D01*
X29520Y18180D01*
X29580Y18220D01*
X29620Y18280D01*
X29634Y18350D01*
X29620Y18420D01*
X29580Y18480D01*
X29520Y18520D01*
X29450Y18534D01*
D02*
G37*
G36*
X28900Y18034D02*
X28830Y18020D01*
X28770Y17980D01*
X28730Y17920D01*
X28716Y17850D01*
X28730Y17780D01*
X28770Y17720D01*
X28830Y17680D01*
X28900Y17666D01*
X28970Y17680D01*
X29030Y17720D01*
X29070Y17780D01*
X29084Y17850D01*
X29070Y17920D01*
X29030Y17980D01*
X28970Y18020D01*
X28900Y18034D01*
D02*
G37*
G36*
X12490D02*
X12420Y18020D01*
X12360Y17980D01*
X12320Y17920D01*
X12306Y17850D01*
X12320Y17780D01*
X12360Y17720D01*
X12420Y17680D01*
X12490Y17666D01*
X12560Y17680D01*
X12620Y17720D01*
X12660Y17780D01*
X12674Y17850D01*
X12660Y17920D01*
X12620Y17980D01*
X12560Y18020D01*
X12490Y18034D01*
D02*
G37*
G36*
X3920D02*
X3850Y18020D01*
X3790Y17980D01*
X3750Y17920D01*
X3736Y17850D01*
X3750Y17780D01*
X3790Y17720D01*
X3850Y17680D01*
X3920Y17666D01*
X3990Y17680D01*
X4050Y17720D01*
X4090Y17780D01*
X4104Y17850D01*
X4090Y17920D01*
X4050Y17980D01*
X3990Y18020D01*
X3920Y18034D01*
D02*
G37*
G36*
X20880Y21734D02*
X20810Y21720D01*
X20750Y21680D01*
X20710Y21620D01*
X20696Y21550D01*
X20710Y21480D01*
X20750Y21420D01*
X20810Y21380D01*
X20880Y21366D01*
X20913Y21373D01*
X24708Y17578D01*
X24741Y17556D01*
X24780Y17548D01*
X25958D01*
X25990Y17471D01*
X26047Y17397D01*
X26121Y17340D01*
X26207Y17304D01*
X26300Y17292D01*
X26393Y17304D01*
X26479Y17340D01*
X26553Y17397D01*
X26610Y17471D01*
X26646Y17557D01*
X26658Y17650D01*
X26646Y17743D01*
X26610Y17829D01*
X26553Y17903D01*
X26479Y17960D01*
X26393Y17996D01*
X26300Y18008D01*
X26207Y17996D01*
X26121Y17960D01*
X26047Y17903D01*
X25990Y17829D01*
X25958Y17752D01*
X24822D01*
X24502Y18072D01*
X24519Y18126D01*
X24540Y18130D01*
X24600Y18170D01*
X24640Y18230D01*
X24654Y18300D01*
X24640Y18370D01*
X24600Y18430D01*
X24540Y18470D01*
X24470Y18484D01*
X24400Y18470D01*
X24340Y18430D01*
X24300Y18370D01*
X24296Y18349D01*
X24242Y18332D01*
X21057Y21517D01*
X21064Y21550D01*
X21050Y21620D01*
X21010Y21680D01*
X20950Y21720D01*
X20880Y21734D01*
D02*
G37*
G36*
X1550Y17508D02*
X1457Y17496D01*
X1371Y17460D01*
X1297Y17403D01*
X1240Y17329D01*
X1204Y17243D01*
X1192Y17150D01*
X1204Y17057D01*
X1240Y16971D01*
X1297Y16897D01*
X1371Y16840D01*
X1457Y16804D01*
X1550Y16792D01*
X1643Y16804D01*
X1729Y16840D01*
X1803Y16897D01*
X1860Y16971D01*
X1896Y17057D01*
X1908Y17150D01*
X1896Y17243D01*
X1860Y17329D01*
X1803Y17403D01*
X1729Y17460D01*
X1643Y17496D01*
X1550Y17508D01*
D02*
G37*
G36*
X26300Y17008D02*
X26207Y16996D01*
X26121Y16960D01*
X26047Y16903D01*
X25990Y16829D01*
X25954Y16743D01*
X25942Y16650D01*
X25954Y16557D01*
X25990Y16471D01*
X26047Y16397D01*
X26121Y16340D01*
X26207Y16304D01*
X26300Y16292D01*
X26393Y16304D01*
X26479Y16340D01*
X26553Y16397D01*
X26610Y16471D01*
X26646Y16557D01*
X26658Y16650D01*
X26646Y16743D01*
X26610Y16829D01*
X26553Y16903D01*
X26479Y16960D01*
X26393Y16996D01*
X26300Y17008D01*
D02*
G37*
G36*
X11200D02*
X11107Y16996D01*
X11021Y16960D01*
X10947Y16903D01*
X10890Y16829D01*
X10854Y16743D01*
X10842Y16650D01*
X10854Y16557D01*
X10890Y16471D01*
X10947Y16397D01*
X11021Y16340D01*
X11107Y16304D01*
X11200Y16292D01*
X11293Y16304D01*
X11379Y16340D01*
X11453Y16397D01*
X11510Y16471D01*
X11546Y16557D01*
X11558Y16650D01*
X11546Y16743D01*
X11510Y16829D01*
X11453Y16903D01*
X11379Y16960D01*
X11293Y16996D01*
X11200Y17008D01*
D02*
G37*
G36*
X10200D02*
X10107Y16996D01*
X10021Y16960D01*
X9947Y16903D01*
X9890Y16829D01*
X9854Y16743D01*
X9842Y16650D01*
X9854Y16557D01*
X9890Y16471D01*
X9947Y16397D01*
X10021Y16340D01*
X10107Y16304D01*
X10200Y16292D01*
X10293Y16304D01*
X10379Y16340D01*
X10453Y16397D01*
X10510Y16471D01*
X10546Y16557D01*
X10558Y16650D01*
X10546Y16743D01*
X10510Y16829D01*
X10453Y16903D01*
X10379Y16960D01*
X10293Y16996D01*
X10200Y17008D01*
D02*
G37*
G36*
X11200Y18008D02*
X11107Y17996D01*
X11021Y17960D01*
X10947Y17903D01*
X10890Y17829D01*
X10854Y17743D01*
X10842Y17650D01*
X10854Y17557D01*
X10890Y17471D01*
X10947Y17397D01*
X11021Y17340D01*
X11107Y17304D01*
X11200Y17292D01*
X11293Y17304D01*
X11379Y17340D01*
X11453Y17397D01*
X11510Y17471D01*
X11526Y17509D01*
X11585Y17521D01*
X12613Y16493D01*
X12606Y16460D01*
X12620Y16390D01*
X12660Y16330D01*
X12720Y16290D01*
X12790Y16276D01*
X12860Y16290D01*
X12920Y16330D01*
X12960Y16390D01*
X12974Y16460D01*
X12960Y16530D01*
X12920Y16590D01*
X12860Y16630D01*
X12790Y16644D01*
X12757Y16637D01*
X11672Y17722D01*
X11639Y17744D01*
X11600Y17752D01*
X11542D01*
X11510Y17829D01*
X11453Y17903D01*
X11379Y17960D01*
X11293Y17996D01*
X11200Y18008D01*
D02*
G37*
G36*
X1550Y16508D02*
X1457Y16496D01*
X1371Y16460D01*
X1297Y16403D01*
X1240Y16329D01*
X1204Y16243D01*
X1192Y16150D01*
X1204Y16057D01*
X1240Y15971D01*
X1297Y15897D01*
X1371Y15840D01*
X1457Y15804D01*
X1550Y15792D01*
X1643Y15804D01*
X1729Y15840D01*
X1803Y15897D01*
X1860Y15971D01*
X1896Y16057D01*
X1908Y16150D01*
X1896Y16243D01*
X1860Y16329D01*
X1803Y16403D01*
X1729Y16460D01*
X1643Y16496D01*
X1550Y16508D01*
D02*
G37*
G36*
X14720Y15854D02*
X14650Y15840D01*
X14590Y15800D01*
X14550Y15740D01*
X14536Y15670D01*
X14550Y15600D01*
X14590Y15540D01*
X14650Y15500D01*
X14720Y15486D01*
X14790Y15500D01*
X14850Y15540D01*
X14890Y15600D01*
X14904Y15670D01*
X14890Y15740D01*
X14850Y15800D01*
X14790Y15840D01*
X14720Y15854D01*
D02*
G37*
G36*
X27776Y15824D02*
X27706Y15810D01*
X27646Y15770D01*
X27606Y15710D01*
X27592Y15640D01*
X27606Y15570D01*
X27646Y15510D01*
X27706Y15470D01*
X27776Y15456D01*
X27846Y15470D01*
X27906Y15510D01*
X27946Y15570D01*
X27960Y15640D01*
X27946Y15710D01*
X27906Y15770D01*
X27846Y15810D01*
X27776Y15824D01*
D02*
G37*
G36*
X26300Y16008D02*
X26207Y15996D01*
X26121Y15960D01*
X26047Y15903D01*
X25990Y15829D01*
X25954Y15743D01*
X25942Y15650D01*
X25954Y15557D01*
X25990Y15471D01*
X26047Y15397D01*
X26121Y15340D01*
X26207Y15304D01*
X26300Y15292D01*
X26393Y15304D01*
X26479Y15340D01*
X26553Y15397D01*
X26610Y15471D01*
X26646Y15557D01*
X26658Y15650D01*
X26646Y15743D01*
X26610Y15829D01*
X26553Y15903D01*
X26479Y15960D01*
X26393Y15996D01*
X26300Y16008D01*
D02*
G37*
G36*
X11200Y15008D02*
X11107Y14996D01*
X11021Y14960D01*
X10947Y14903D01*
X10894Y14834D01*
X10845Y14825D01*
X10840Y14824D01*
X10830Y14840D01*
X10770Y14880D01*
X10700Y14894D01*
X10630Y14880D01*
X10570Y14840D01*
X10560Y14824D01*
X10555Y14825D01*
X10506Y14834D01*
X10453Y14903D01*
X10379Y14960D01*
X10293Y14996D01*
X10200Y15008D01*
X10107Y14996D01*
X10021Y14960D01*
X9947Y14903D01*
X9890Y14829D01*
X9854Y14743D01*
X9842Y14650D01*
X9854Y14557D01*
X9890Y14471D01*
X9947Y14397D01*
X10021Y14340D01*
X10107Y14304D01*
X10200Y14292D01*
X10293Y14304D01*
X10379Y14340D01*
X10453Y14397D01*
X10510Y14471D01*
X10523Y14502D01*
X10585Y14522D01*
X10597Y14514D01*
X10598Y14512D01*
Y13732D01*
X10548Y13728D01*
X10546Y13743D01*
X10510Y13829D01*
X10453Y13903D01*
X10379Y13960D01*
X10293Y13996D01*
X10200Y14008D01*
X10107Y13996D01*
X10021Y13960D01*
X9947Y13903D01*
X9890Y13829D01*
X9854Y13743D01*
X9842Y13650D01*
X9854Y13557D01*
X9890Y13471D01*
X9947Y13397D01*
X10021Y13340D01*
X10107Y13304D01*
X10200Y13292D01*
X10293Y13304D01*
X10379Y13340D01*
X10453Y13397D01*
X10510Y13471D01*
X10546Y13557D01*
X10548Y13572D01*
X10598Y13568D01*
Y12732D01*
X10548Y12728D01*
X10546Y12743D01*
X10510Y12829D01*
X10453Y12903D01*
X10379Y12960D01*
X10293Y12996D01*
X10200Y13008D01*
X10107Y12996D01*
X10021Y12960D01*
X9947Y12903D01*
X9890Y12829D01*
X9854Y12743D01*
X9842Y12650D01*
X9854Y12557D01*
X9890Y12471D01*
X9947Y12397D01*
X10021Y12340D01*
X10107Y12304D01*
X10200Y12292D01*
X10293Y12304D01*
X10379Y12340D01*
X10453Y12397D01*
X10510Y12471D01*
X10546Y12557D01*
X10548Y12572D01*
X10598Y12568D01*
Y11732D01*
X10548Y11728D01*
X10546Y11743D01*
X10510Y11829D01*
X10453Y11903D01*
X10379Y11960D01*
X10293Y11996D01*
X10200Y12008D01*
X10107Y11996D01*
X10021Y11960D01*
X9947Y11903D01*
X9890Y11829D01*
X9854Y11743D01*
X9842Y11650D01*
X9854Y11557D01*
X9890Y11471D01*
X9947Y11397D01*
X10021Y11340D01*
X10107Y11304D01*
X10200Y11292D01*
X10293Y11304D01*
X10379Y11340D01*
X10453Y11397D01*
X10510Y11471D01*
X10546Y11557D01*
X10548Y11572D01*
X10598Y11568D01*
Y11380D01*
X10606Y11341D01*
X10628Y11308D01*
X10808Y11128D01*
X10841Y11106D01*
X10880Y11098D01*
X11558D01*
X11878Y10778D01*
Y8800D01*
X11886Y8761D01*
X11908Y8728D01*
X15998Y4638D01*
X16031Y4616D01*
X16070Y4608D01*
X25772D01*
X25790Y4580D01*
X25850Y4540D01*
X25920Y4526D01*
X25990Y4540D01*
X26050Y4580D01*
X26090Y4640D01*
X26104Y4710D01*
X26090Y4780D01*
X26050Y4840D01*
X25990Y4880D01*
X25920Y4894D01*
X25850Y4880D01*
X25790Y4840D01*
X25772Y4812D01*
X24150D01*
X24123Y4851D01*
X24123Y4862D01*
Y6348D01*
X24272D01*
X24290Y6320D01*
X24350Y6280D01*
X24420Y6266D01*
X24490Y6280D01*
X24550Y6320D01*
X24590Y6380D01*
X24604Y6450D01*
X24590Y6520D01*
X24550Y6580D01*
X24490Y6620D01*
X24420Y6634D01*
X24350Y6620D01*
X24290Y6580D01*
X24272Y6552D01*
X16882D01*
X16137Y7297D01*
X16144Y7330D01*
X16130Y7400D01*
X16119Y7416D01*
X16158Y7448D01*
X16858Y6748D01*
X16891Y6726D01*
X16930Y6718D01*
X24528D01*
X25198Y6048D01*
X25231Y6026D01*
X25270Y6018D01*
X27190D01*
X27229Y6026D01*
X27262Y6048D01*
X27762Y6548D01*
X27784Y6581D01*
X27792Y6620D01*
Y10682D01*
X27820Y10700D01*
X27860Y10760D01*
X27874Y10830D01*
X27860Y10900D01*
X27820Y10960D01*
X27760Y11000D01*
X27690Y11014D01*
X27620Y11000D01*
X27560Y10960D01*
X27520Y10900D01*
X27506Y10830D01*
X27520Y10760D01*
X27560Y10700D01*
X27588Y10682D01*
Y6662D01*
X27148Y6222D01*
X25312D01*
X24642Y6892D01*
X24609Y6914D01*
X24570Y6922D01*
X16972D01*
X15892Y8002D01*
X15859Y8024D01*
X15820Y8032D01*
X14795D01*
X14769Y8073D01*
X14770Y8082D01*
X14784Y8150D01*
X14770Y8220D01*
X14730Y8280D01*
X14670Y8320D01*
X14600Y8334D01*
X14530Y8320D01*
X14470Y8280D01*
X14430Y8220D01*
X14416Y8150D01*
X14430Y8082D01*
X14431Y8073D01*
X14405Y8032D01*
X13222D01*
X12412Y8842D01*
Y12249D01*
X12920Y12757D01*
X12953Y12751D01*
X13023Y12765D01*
X13083Y12805D01*
X13123Y12864D01*
X13137Y12934D01*
X13123Y13005D01*
X13083Y13064D01*
X13023Y13104D01*
X12953Y13118D01*
X12883Y13104D01*
X12823Y13064D01*
X12784Y13005D01*
X12770Y12934D01*
X12776Y12901D01*
X12238Y12363D01*
X12216Y12330D01*
X12208Y12291D01*
Y8800D01*
X12211Y8784D01*
X12165Y8759D01*
X12082Y8842D01*
Y10820D01*
X12074Y10859D01*
X12052Y10892D01*
X11672Y11272D01*
X11639Y11294D01*
X11600Y11302D01*
X11412D01*
X11395Y11352D01*
X11453Y11397D01*
X11510Y11471D01*
X11546Y11557D01*
X11558Y11650D01*
X11546Y11743D01*
X11510Y11829D01*
X11453Y11903D01*
X11379Y11960D01*
X11293Y11996D01*
X11200Y12008D01*
X11107Y11996D01*
X11021Y11960D01*
X10947Y11903D01*
X10890Y11829D01*
X10854Y11743D01*
X10852Y11728D01*
X10802Y11732D01*
Y12568D01*
X10852Y12572D01*
X10854Y12557D01*
X10890Y12471D01*
X10947Y12397D01*
X11021Y12340D01*
X11107Y12304D01*
X11200Y12292D01*
X11293Y12304D01*
X11379Y12340D01*
X11453Y12397D01*
X11510Y12471D01*
X11546Y12557D01*
X11558Y12650D01*
X11546Y12743D01*
X11510Y12829D01*
X11453Y12903D01*
X11379Y12960D01*
X11293Y12996D01*
X11200Y13008D01*
X11107Y12996D01*
X11021Y12960D01*
X10947Y12903D01*
X10890Y12829D01*
X10854Y12743D01*
X10852Y12728D01*
X10802Y12732D01*
Y13568D01*
X10852Y13572D01*
X10854Y13557D01*
X10890Y13471D01*
X10947Y13397D01*
X11021Y13340D01*
X11107Y13304D01*
X11200Y13292D01*
X11293Y13304D01*
X11379Y13340D01*
X11453Y13397D01*
X11510Y13471D01*
X11546Y13557D01*
X11558Y13650D01*
X11546Y13743D01*
X11510Y13829D01*
X11453Y13903D01*
X11379Y13960D01*
X11293Y13996D01*
X11200Y14008D01*
X11107Y13996D01*
X11021Y13960D01*
X10947Y13903D01*
X10890Y13829D01*
X10854Y13743D01*
X10852Y13728D01*
X10802Y13732D01*
Y14512D01*
X10803Y14514D01*
X10815Y14522D01*
X10877Y14502D01*
X10890Y14471D01*
X10947Y14397D01*
X11021Y14340D01*
X11107Y14304D01*
X11200Y14292D01*
X11293Y14304D01*
X11379Y14340D01*
X11453Y14397D01*
X11510Y14471D01*
X11546Y14557D01*
X11558Y14650D01*
X11546Y14743D01*
X11510Y14829D01*
X11453Y14903D01*
X11379Y14960D01*
X11293Y14996D01*
X11200Y15008D01*
D02*
G37*
G36*
X1550Y15508D02*
X1457Y15496D01*
X1371Y15460D01*
X1297Y15403D01*
X1240Y15329D01*
X1204Y15243D01*
X1192Y15150D01*
X1204Y15057D01*
X1240Y14971D01*
X1297Y14897D01*
X1371Y14840D01*
X1457Y14804D01*
X1550Y14792D01*
X1643Y14804D01*
X1729Y14840D01*
X1803Y14897D01*
X1860Y14971D01*
X1896Y15057D01*
X1908Y15150D01*
X1896Y15243D01*
X1860Y15329D01*
X1803Y15403D01*
X1729Y15460D01*
X1643Y15496D01*
X1550Y15508D01*
D02*
G37*
G36*
X26300Y15008D02*
X26207Y14996D01*
X26121Y14960D01*
X26047Y14903D01*
X25990Y14829D01*
X25954Y14743D01*
X25942Y14650D01*
X25954Y14557D01*
X25990Y14471D01*
X26047Y14397D01*
X26121Y14340D01*
X26207Y14304D01*
X26300Y14292D01*
X26393Y14304D01*
X26479Y14340D01*
X26553Y14397D01*
X26610Y14471D01*
X26646Y14557D01*
X26658Y14650D01*
X26646Y14743D01*
X26610Y14829D01*
X26553Y14903D01*
X26479Y14960D01*
X26393Y14996D01*
X26300Y15008D01*
D02*
G37*
G36*
X2550Y14508D02*
X2457Y14496D01*
X2371Y14460D01*
X2297Y14403D01*
X2240Y14329D01*
X2204Y14243D01*
X2192Y14150D01*
X2204Y14057D01*
X2240Y13971D01*
X2297Y13897D01*
X2371Y13840D01*
X2457Y13804D01*
X2550Y13792D01*
X2643Y13804D01*
X2729Y13840D01*
X2803Y13897D01*
X2860Y13971D01*
X2896Y14057D01*
X2908Y14150D01*
X2896Y14243D01*
X2860Y14329D01*
X2803Y14403D01*
X2729Y14460D01*
X2643Y14496D01*
X2550Y14508D01*
D02*
G37*
G36*
X1550D02*
X1457Y14496D01*
X1371Y14460D01*
X1297Y14403D01*
X1240Y14329D01*
X1204Y14243D01*
X1192Y14150D01*
X1204Y14057D01*
X1240Y13971D01*
X1297Y13897D01*
X1371Y13840D01*
X1457Y13804D01*
X1550Y13792D01*
X1643Y13804D01*
X1729Y13840D01*
X1803Y13897D01*
X1860Y13971D01*
X1896Y14057D01*
X1908Y14150D01*
X1896Y14243D01*
X1860Y14329D01*
X1803Y14403D01*
X1729Y14460D01*
X1643Y14496D01*
X1550Y14508D01*
D02*
G37*
G36*
X2905Y13505D02*
X2195D01*
Y12795D01*
X2905D01*
Y13505D01*
D02*
G37*
G36*
X1550Y13508D02*
X1457Y13496D01*
X1371Y13460D01*
X1297Y13403D01*
X1240Y13329D01*
X1204Y13243D01*
X1192Y13150D01*
X1204Y13057D01*
X1240Y12971D01*
X1297Y12897D01*
X1371Y12840D01*
X1457Y12804D01*
X1550Y12792D01*
X1643Y12804D01*
X1729Y12840D01*
X1803Y12897D01*
X1860Y12971D01*
X1896Y13057D01*
X1908Y13150D01*
X1896Y13243D01*
X1860Y13329D01*
X1803Y13403D01*
X1729Y13460D01*
X1643Y13496D01*
X1550Y13508D01*
D02*
G37*
G36*
X7040Y12514D02*
X6970Y12500D01*
X6910Y12460D01*
X6870Y12400D01*
X6856Y12330D01*
X6870Y12260D01*
X6910Y12200D01*
X6970Y12160D01*
X7040Y12146D01*
X7110Y12160D01*
X7170Y12200D01*
X7210Y12260D01*
X7224Y12330D01*
X7210Y12400D01*
X7170Y12460D01*
X7110Y12500D01*
X7040Y12514D01*
D02*
G37*
G36*
X12970Y11434D02*
X12900Y11420D01*
X12840Y11380D01*
X12800Y11320D01*
X12786Y11250D01*
X12800Y11180D01*
X12840Y11120D01*
X12900Y11080D01*
X12970Y11066D01*
X13040Y11080D01*
X13100Y11120D01*
X13140Y11180D01*
X13154Y11250D01*
X13140Y11320D01*
X13100Y11380D01*
X13040Y11420D01*
X12970Y11434D01*
D02*
G37*
G36*
X11200Y11008D02*
X11107Y10996D01*
X11021Y10960D01*
X10947Y10903D01*
X10890Y10829D01*
X10854Y10743D01*
X10842Y10650D01*
X10854Y10557D01*
X10890Y10471D01*
X10947Y10397D01*
X11021Y10340D01*
X11107Y10304D01*
X11200Y10292D01*
X11293Y10304D01*
X11379Y10340D01*
X11453Y10397D01*
X11510Y10471D01*
X11546Y10557D01*
X11558Y10650D01*
X11546Y10743D01*
X11510Y10829D01*
X11453Y10903D01*
X11379Y10960D01*
X11293Y10996D01*
X11200Y11008D01*
D02*
G37*
G36*
X22564Y9164D02*
X21736D01*
Y8336D01*
X22564D01*
Y9164D01*
D02*
G37*
G36*
X27050Y8684D02*
X26980Y8670D01*
X26920Y8630D01*
X26880Y8570D01*
X26866Y8500D01*
X26880Y8430D01*
X26920Y8370D01*
X26980Y8330D01*
X27050Y8316D01*
X27120Y8330D01*
X27180Y8370D01*
X27220Y8430D01*
X27234Y8500D01*
X27220Y8570D01*
X27180Y8630D01*
X27120Y8670D01*
X27050Y8684D01*
D02*
G37*
G36*
X25900Y8484D02*
X25830Y8470D01*
X25770Y8430D01*
X25730Y8370D01*
X25716Y8300D01*
X25730Y8230D01*
X25770Y8170D01*
X25830Y8130D01*
X25900Y8116D01*
X25970Y8130D01*
X26030Y8170D01*
X26070Y8230D01*
X26084Y8300D01*
X26070Y8370D01*
X26030Y8430D01*
X25970Y8470D01*
X25900Y8484D01*
D02*
G37*
G36*
X4415Y8269D02*
X4345Y8255D01*
X4285Y8215D01*
X4245Y8155D01*
X4231Y8085D01*
X4245Y8015D01*
X4285Y7955D01*
X4345Y7915D01*
X4415Y7901D01*
X4485Y7915D01*
X4545Y7955D01*
X4585Y8015D01*
X4599Y8085D01*
X4585Y8155D01*
X4545Y8215D01*
X4485Y8255D01*
X4415Y8269D01*
D02*
G37*
G36*
X12000Y7534D02*
X11930Y7520D01*
X11870Y7480D01*
X11830Y7420D01*
X11816Y7350D01*
X11830Y7280D01*
X11870Y7220D01*
X11930Y7180D01*
X12000Y7166D01*
X12070Y7180D01*
X12130Y7220D01*
X12170Y7280D01*
X12184Y7350D01*
X12170Y7420D01*
X12130Y7480D01*
X12070Y7520D01*
X12000Y7534D01*
D02*
G37*
G36*
X11200Y6634D02*
X11130Y6620D01*
X11070Y6580D01*
X11030Y6520D01*
X11016Y6450D01*
X11030Y6380D01*
X11070Y6320D01*
X11130Y6280D01*
X11200Y6266D01*
X11270Y6280D01*
X11330Y6320D01*
X11370Y6380D01*
X11384Y6450D01*
X11370Y6520D01*
X11330Y6580D01*
X11270Y6620D01*
X11200Y6634D01*
D02*
G37*
G36*
X10750Y6234D02*
X10680Y6220D01*
X10620Y6180D01*
X10580Y6120D01*
X10566Y6050D01*
X10580Y5980D01*
X10620Y5920D01*
X10680Y5880D01*
X10750Y5866D01*
X10820Y5880D01*
X10880Y5920D01*
X10920Y5980D01*
X10934Y6050D01*
X10920Y6120D01*
X10880Y6180D01*
X10820Y6220D01*
X10750Y6234D01*
D02*
G37*
G36*
X1420Y5814D02*
X1350Y5800D01*
X1290Y5760D01*
X1250Y5700D01*
X1236Y5630D01*
X1250Y5560D01*
X1290Y5500D01*
X1350Y5460D01*
X1420Y5446D01*
X1490Y5460D01*
X1550Y5500D01*
X1590Y5560D01*
X1604Y5630D01*
X1590Y5700D01*
X1550Y5760D01*
X1490Y5800D01*
X1420Y5814D01*
D02*
G37*
G36*
X30804Y10437D02*
X30733Y10423D01*
X30674Y10383D01*
X30634Y10324D01*
X30620Y10254D01*
X30634Y10183D01*
X30674Y10124D01*
X30698Y10108D01*
Y8242D01*
X26783Y4327D01*
X26750Y4334D01*
X26680Y4320D01*
X26620Y4280D01*
X26580Y4220D01*
X26566Y4150D01*
X26580Y4080D01*
X26620Y4020D01*
X26680Y3980D01*
X26750Y3966D01*
X26820Y3980D01*
X26880Y4020D01*
X26920Y4080D01*
X26934Y4150D01*
X26927Y4183D01*
X30872Y8128D01*
X30894Y8161D01*
X30902Y8200D01*
Y10103D01*
X30933Y10124D01*
X30973Y10183D01*
X30987Y10254D01*
X30973Y10324D01*
X30933Y10383D01*
X30874Y10423D01*
X30804Y10437D01*
D02*
G37*
G36*
X7994Y5545D02*
X7206D01*
X7088Y5529D01*
X6977Y5484D01*
X6883Y5411D01*
X6810Y5316D01*
X6764Y5206D01*
X6749Y5087D01*
Y3513D01*
X6764Y3394D01*
X6810Y3284D01*
X6883Y3189D01*
X6977Y3116D01*
X7088Y3071D01*
X7206Y3055D01*
X7994D01*
X8112Y3071D01*
X8223Y3116D01*
X8317Y3189D01*
X8390Y3284D01*
X8436Y3394D01*
X8451Y3513D01*
Y5087D01*
X8436Y5206D01*
X8390Y5316D01*
X8317Y5411D01*
X8223Y5484D01*
X8112Y5529D01*
X7994Y5545D01*
D02*
G37*
G36*
X9500Y3308D02*
X9407Y3296D01*
X9321Y3260D01*
X9247Y3203D01*
X9190Y3129D01*
X9154Y3043D01*
X9142Y2950D01*
X9154Y2857D01*
X9190Y2771D01*
X9247Y2697D01*
X9321Y2640D01*
X9407Y2604D01*
X9500Y2592D01*
X9593Y2604D01*
X9679Y2640D01*
X9753Y2697D01*
X9810Y2771D01*
X9846Y2857D01*
X9858Y2950D01*
X9846Y3043D01*
X9810Y3129D01*
X9753Y3203D01*
X9679Y3260D01*
X9593Y3296D01*
X9500Y3308D01*
D02*
G37*
G36*
X20005Y2605D02*
X19295D01*
Y1895D01*
X20005D01*
Y2605D01*
D02*
G37*
G36*
X9500Y2308D02*
X9407Y2296D01*
X9321Y2260D01*
X9247Y2203D01*
X9190Y2129D01*
X9154Y2043D01*
X9142Y1950D01*
X9154Y1857D01*
X9190Y1771D01*
X9247Y1697D01*
X9321Y1640D01*
X9407Y1604D01*
X9500Y1592D01*
X9593Y1604D01*
X9679Y1640D01*
X9753Y1697D01*
X9810Y1771D01*
X9846Y1857D01*
X9858Y1950D01*
X9846Y2043D01*
X9810Y2129D01*
X9753Y2203D01*
X9679Y2260D01*
X9593Y2296D01*
X9500Y2308D01*
D02*
G37*
G36*
X17360Y1594D02*
X17290Y1580D01*
X17230Y1540D01*
X17191Y1480D01*
X17177Y1410D01*
X17191Y1340D01*
X17230Y1280D01*
X17290Y1240D01*
X17360Y1226D01*
X17430Y1240D01*
X17490Y1280D01*
X17530Y1340D01*
X17544Y1410D01*
X17530Y1480D01*
X17490Y1540D01*
X17430Y1580D01*
X17360Y1594D01*
D02*
G37*
G36*
X27200Y2354D02*
X27082Y2339D01*
X26971Y2293D01*
X26876Y2220D01*
X26804Y2126D01*
X26758Y2015D01*
X26742Y1897D01*
Y1503D01*
X26758Y1385D01*
X26804Y1274D01*
X26876Y1180D01*
X26971Y1107D01*
X27082Y1061D01*
X27200Y1046D01*
X27318Y1061D01*
X27429Y1107D01*
X27524Y1180D01*
X27596Y1274D01*
X27642Y1385D01*
X27658Y1503D01*
Y1897D01*
X27642Y2015D01*
X27596Y2126D01*
X27524Y2220D01*
X27429Y2293D01*
X27318Y2339D01*
X27200Y2354D01*
D02*
G37*
G36*
X19650Y1608D02*
X19557Y1596D01*
X19471Y1560D01*
X19397Y1503D01*
X19340Y1429D01*
X19304Y1343D01*
X19292Y1250D01*
X19304Y1157D01*
X19340Y1071D01*
X19397Y997D01*
X19471Y940D01*
X19557Y904D01*
X19650Y892D01*
X19743Y904D01*
X19829Y940D01*
X19903Y997D01*
X19960Y1071D01*
X19996Y1157D01*
X20008Y1250D01*
X19996Y1343D01*
X19960Y1429D01*
X19903Y1503D01*
X19829Y1560D01*
X19743Y1596D01*
X19650Y1608D01*
D02*
G37*
G36*
X30000Y2611D02*
X29834Y2598D01*
X29671Y2559D01*
X29517Y2495D01*
X29375Y2408D01*
X29248Y2300D01*
X29140Y2173D01*
X29053Y2031D01*
X28989Y1877D01*
X28950Y1714D01*
X28937Y1548D01*
X28950Y1382D01*
X28989Y1219D01*
X29053Y1065D01*
X29140Y923D01*
X29248Y796D01*
X29375Y688D01*
X29517Y601D01*
X29671Y537D01*
X29834Y498D01*
X30000Y485D01*
X30166Y498D01*
X30329Y537D01*
X30483Y601D01*
X30625Y688D01*
X30752Y796D01*
X30860Y923D01*
X30947Y1065D01*
X31011Y1219D01*
X31050Y1382D01*
X31063Y1548D01*
X31050Y1714D01*
X31011Y1877D01*
X30947Y2031D01*
X30860Y2173D01*
X30752Y2300D01*
X30625Y2408D01*
X30483Y2495D01*
X30329Y2559D01*
X30166Y2598D01*
X30000Y2611D01*
D02*
G37*
G36*
X6400D02*
X6234Y2598D01*
X6071Y2559D01*
X5917Y2495D01*
X5775Y2408D01*
X5648Y2300D01*
X5540Y2173D01*
X5453Y2031D01*
X5389Y1877D01*
X5350Y1714D01*
X5337Y1548D01*
X5350Y1382D01*
X5389Y1219D01*
X5453Y1065D01*
X5540Y923D01*
X5648Y796D01*
X5775Y688D01*
X5917Y601D01*
X6071Y537D01*
X6234Y498D01*
X6400Y485D01*
X6566Y498D01*
X6729Y537D01*
X6883Y601D01*
X7025Y688D01*
X7152Y796D01*
X7260Y923D01*
X7347Y1065D01*
X7411Y1219D01*
X7450Y1382D01*
X7463Y1548D01*
X7450Y1714D01*
X7411Y1877D01*
X7347Y2031D01*
X7260Y2173D01*
X7152Y2300D01*
X7025Y2408D01*
X6883Y2495D01*
X6729Y2559D01*
X6566Y2598D01*
X6400Y2611D01*
D02*
G37*
%LPD*%
G36*
X10936Y25311D02*
Y25236D01*
X10886Y25209D01*
X10870Y25220D01*
X10800Y25234D01*
X10730Y25220D01*
X10670Y25180D01*
X10630Y25120D01*
X10616Y25050D01*
X10630Y24980D01*
X10670Y24920D01*
X10698Y24902D01*
Y22450D01*
X10706Y22411D01*
X10728Y22378D01*
X10873Y22233D01*
X10854Y22187D01*
X10227D01*
X10166Y22248D01*
X10188Y22293D01*
X10200Y22292D01*
X10293Y22304D01*
X10379Y22340D01*
X10453Y22397D01*
X10510Y22471D01*
X10546Y22557D01*
X10558Y22650D01*
X10546Y22743D01*
X10510Y22829D01*
X10453Y22903D01*
X10379Y22960D01*
X10293Y22996D01*
X10200Y23008D01*
X10107Y22996D01*
X10021Y22960D01*
X9947Y22903D01*
X9890Y22829D01*
X9854Y22743D01*
X9842Y22650D01*
X9843Y22638D01*
X9798Y22616D01*
X9382Y23032D01*
Y23842D01*
X9410Y23860D01*
X9450Y23920D01*
X9464Y23990D01*
X9450Y24060D01*
X9410Y24120D01*
X9350Y24160D01*
X9280Y24174D01*
X9214Y24160D01*
X9202Y24162D01*
X9164Y24182D01*
Y24411D01*
X9951Y25199D01*
X9998Y25268D01*
X10014Y25350D01*
X9998Y25432D01*
X9951Y25501D01*
X9882Y25548D01*
X9800Y25564D01*
X9718Y25548D01*
X9649Y25501D01*
X8799Y24651D01*
X8752Y24582D01*
X8736Y24500D01*
Y23164D01*
X8350D01*
X8268Y23148D01*
X8199Y23101D01*
X7149Y22052D01*
X7100Y22058D01*
X7007Y22046D01*
X6921Y22010D01*
X6847Y21953D01*
X6790Y21879D01*
X6754Y21793D01*
X6742Y21700D01*
X6754Y21607D01*
X6790Y21521D01*
X6847Y21447D01*
X6921Y21390D01*
X7007Y21354D01*
X7100Y21342D01*
X7193Y21354D01*
X7279Y21390D01*
X7353Y21447D01*
X7384Y21486D01*
X8211D01*
X8799Y20899D01*
X8868Y20852D01*
X8950Y20836D01*
X9032Y20852D01*
X9101Y20899D01*
X9148Y20968D01*
X9164Y21050D01*
X9148Y21132D01*
X9101Y21201D01*
X8451Y21851D01*
X8382Y21898D01*
X8300Y21914D01*
X7682D01*
X7663Y21960D01*
X8439Y22736D01*
X8950D01*
X9032Y22752D01*
X9101Y22799D01*
X9148Y22868D01*
X9155Y22906D01*
X9208Y22918D01*
X10085Y22041D01*
X10073Y21982D01*
X10021Y21960D01*
X9947Y21903D01*
X9890Y21829D01*
X9854Y21743D01*
X9842Y21650D01*
X9854Y21557D01*
X9890Y21471D01*
X9947Y21397D01*
X10021Y21340D01*
X10107Y21304D01*
X10200Y21292D01*
X10293Y21304D01*
X10379Y21340D01*
X10453Y21397D01*
X10510Y21471D01*
X10546Y21557D01*
X10558Y21650D01*
X10546Y21743D01*
X10510Y21829D01*
X10453Y21903D01*
X10415Y21933D01*
X10432Y21983D01*
X10968D01*
X10985Y21933D01*
X10947Y21903D01*
X10890Y21829D01*
X10854Y21743D01*
X10842Y21650D01*
X10854Y21557D01*
X10890Y21471D01*
X10947Y21397D01*
X11021Y21340D01*
X11107Y21304D01*
X11200Y21292D01*
X11293Y21304D01*
X11379Y21340D01*
X11453Y21397D01*
X11510Y21471D01*
X11546Y21557D01*
X11558Y21650D01*
X11554Y21681D01*
X11602Y21704D01*
X13998Y19308D01*
X14031Y19286D01*
X14070Y19278D01*
X14329D01*
X14341Y19228D01*
X14290Y19161D01*
X14254Y19074D01*
X14242Y18981D01*
X14254Y18889D01*
X14290Y18802D01*
X14344Y18732D01*
X14338Y18704D01*
X14331Y18682D01*
X14222D01*
X12782Y20122D01*
X12749Y20144D01*
X12710Y20152D01*
X9382D01*
X8282Y21252D01*
X8249Y21274D01*
X8210Y21282D01*
X7580D01*
X7541Y21274D01*
X7508Y21252D01*
X7311Y21055D01*
X6745D01*
Y20474D01*
X6699Y20455D01*
X6497Y20657D01*
X6503Y20690D01*
X6489Y20760D01*
X6449Y20819D01*
X6390Y20859D01*
X6320Y20873D01*
X6249Y20859D01*
X6190Y20819D01*
X6151Y20762D01*
X6146Y20755D01*
X6098Y20744D01*
X5717Y21126D01*
X5720Y21130D01*
X5734Y21200D01*
X5720Y21270D01*
X5680Y21330D01*
X5620Y21370D01*
X5550Y21384D01*
X5480Y21370D01*
X5420Y21330D01*
X5380Y21270D01*
X5366Y21200D01*
X5380Y21130D01*
X5420Y21070D01*
X5480Y21030D01*
X5535Y21020D01*
X6626Y19928D01*
X6659Y19906D01*
X6698Y19898D01*
X7748D01*
X7832Y19814D01*
X7811Y19764D01*
X6589D01*
X5901Y20451D01*
X5832Y20498D01*
X5750Y20514D01*
X4582D01*
X4563Y20560D01*
X6151Y22149D01*
X6198Y22218D01*
X6214Y22300D01*
Y23511D01*
X6289Y23586D01*
X8124D01*
X8206Y23602D01*
X8276Y23649D01*
X8451Y23824D01*
X8498Y23894D01*
X8514Y23976D01*
Y25586D01*
X8564Y25636D01*
X10611D01*
X10936Y25311D01*
D02*
G37*
G36*
X19886Y25111D02*
Y19439D01*
X19902Y19357D01*
X19949Y19288D01*
X22942Y16294D01*
X21949Y15301D01*
X21902Y15232D01*
X21886Y15150D01*
Y11849D01*
X21836Y11828D01*
X21602Y12062D01*
Y16950D01*
X21594Y16989D01*
X21572Y17022D01*
X19329Y19265D01*
X19341Y19324D01*
X19379Y19340D01*
X19453Y19397D01*
X19510Y19471D01*
X19546Y19557D01*
X19558Y19650D01*
X19546Y19743D01*
X19510Y19829D01*
X19453Y19903D01*
X19379Y19960D01*
X19293Y19996D01*
X19200Y20008D01*
X19107Y19996D01*
X19021Y19960D01*
X18947Y19903D01*
X18890Y19829D01*
X18854Y19743D01*
X18842Y19650D01*
X18854Y19557D01*
X18890Y19471D01*
X18943Y19402D01*
X18932Y19353D01*
X18931Y19352D01*
X18469D01*
X18468Y19353D01*
X18457Y19402D01*
X18510Y19471D01*
X18546Y19557D01*
X18558Y19650D01*
X18546Y19743D01*
X18510Y19829D01*
X18453Y19903D01*
X18379Y19960D01*
X18293Y19996D01*
X18200Y20008D01*
X18107Y19996D01*
X18021Y19960D01*
X17947Y19903D01*
X17890Y19829D01*
X17854Y19743D01*
X17842Y19650D01*
X17854Y19557D01*
X17890Y19471D01*
X17943Y19402D01*
X17932Y19353D01*
X17931Y19352D01*
X17842D01*
X14532Y22662D01*
X14499Y22684D01*
X14460Y22692D01*
X13585D01*
X13559Y22733D01*
X13560Y22742D01*
X13574Y22810D01*
X13560Y22880D01*
X13520Y22940D01*
X13518Y22954D01*
X14442Y23878D01*
X17828D01*
X17886Y23820D01*
X17854Y23743D01*
X17842Y23650D01*
X17854Y23557D01*
X17890Y23471D01*
X17947Y23397D01*
X18021Y23340D01*
X18107Y23304D01*
X18200Y23292D01*
X18293Y23304D01*
X18379Y23340D01*
X18453Y23397D01*
X18510Y23471D01*
X18546Y23557D01*
X18558Y23650D01*
X18546Y23743D01*
X18510Y23829D01*
X18453Y23903D01*
X18379Y23960D01*
X18293Y23996D01*
X18200Y24008D01*
X18107Y23996D01*
X18030Y23964D01*
X17942Y24052D01*
X17909Y24074D01*
X17870Y24082D01*
X14400D01*
X14361Y24074D01*
X14328Y24052D01*
X13318Y23042D01*
X13296Y23009D01*
X13288Y22970D01*
Y22958D01*
X13260Y22940D01*
X13220Y22880D01*
X13206Y22810D01*
X13209Y22795D01*
X13171Y22753D01*
X13167Y22752D01*
X11542D01*
X11510Y22829D01*
X11453Y22903D01*
X11379Y22960D01*
X11293Y22996D01*
X11200Y23008D01*
X11107Y22996D01*
X11021Y22960D01*
X10952Y22907D01*
X10903Y22918D01*
X10902Y22919D01*
Y23381D01*
X10903Y23382D01*
X10952Y23393D01*
X11021Y23340D01*
X11107Y23304D01*
X11200Y23292D01*
X11293Y23304D01*
X11379Y23340D01*
X11453Y23397D01*
X11510Y23471D01*
X11546Y23557D01*
X11558Y23650D01*
X11546Y23743D01*
X11510Y23829D01*
X11453Y23903D01*
X11379Y23960D01*
X11293Y23996D01*
X11200Y24008D01*
X11107Y23996D01*
X11021Y23960D01*
X10952Y23907D01*
X10903Y23918D01*
X10902Y23919D01*
Y24381D01*
X10903Y24382D01*
X10952Y24393D01*
X11021Y24340D01*
X11107Y24304D01*
X11200Y24292D01*
X11293Y24304D01*
X11379Y24340D01*
X11453Y24397D01*
X11484Y24436D01*
X11936D01*
Y23500D01*
X11952Y23418D01*
X11999Y23349D01*
X12068Y23302D01*
X12150Y23286D01*
X12232Y23302D01*
X12301Y23349D01*
X12348Y23418D01*
X12364Y23500D01*
Y24761D01*
X12498Y24895D01*
X12545Y24965D01*
X12561Y25047D01*
X12545Y25129D01*
X12498Y25198D01*
X12429Y25245D01*
X12347Y25261D01*
X12265Y25245D01*
X12195Y25198D01*
X11999Y25001D01*
X11999Y25001D01*
X11861Y24864D01*
X11484D01*
X11453Y24903D01*
X11379Y24960D01*
X11364Y24967D01*
Y25400D01*
X11348Y25482D01*
X11317Y25528D01*
X11344Y25578D01*
X17128D01*
X17886Y24820D01*
X17854Y24743D01*
X17842Y24650D01*
X17854Y24557D01*
X17890Y24471D01*
X17947Y24397D01*
X18021Y24340D01*
X18107Y24304D01*
X18200Y24292D01*
X18293Y24304D01*
X18379Y24340D01*
X18453Y24397D01*
X18510Y24471D01*
X18546Y24557D01*
X18558Y24650D01*
X18546Y24743D01*
X18510Y24829D01*
X18453Y24903D01*
X18379Y24960D01*
X18293Y24996D01*
X18200Y25008D01*
X18107Y24996D01*
X18030Y24964D01*
X17258Y25736D01*
X17279Y25786D01*
X19211D01*
X19886Y25111D01*
D02*
G37*
G36*
X10649Y26110D02*
X10630Y26064D01*
X8476D01*
X8394Y26048D01*
X8324Y26001D01*
X8149Y25826D01*
X8102Y25756D01*
X8086Y25674D01*
Y24064D01*
X8036Y24014D01*
X6200D01*
X6118Y23998D01*
X6049Y23951D01*
X5849Y23751D01*
X5802Y23682D01*
X5786Y23600D01*
Y22389D01*
X4052Y20655D01*
X3645D01*
Y20539D01*
X2107D01*
X2088Y20585D01*
X2701Y21199D01*
X2748Y21268D01*
X2764Y21350D01*
Y24866D01*
X2803Y24897D01*
X2860Y24971D01*
X2896Y25057D01*
X2908Y25150D01*
X2896Y25243D01*
X2860Y25329D01*
X2803Y25403D01*
X2729Y25460D01*
X2643Y25496D01*
X2550Y25508D01*
X2457Y25496D01*
X2371Y25460D01*
X2297Y25403D01*
X2240Y25329D01*
X2204Y25243D01*
X2202Y25228D01*
X2152Y25232D01*
Y25508D01*
X2842Y26198D01*
X5961D01*
X5971Y26149D01*
X5967Y26147D01*
X5825Y26060D01*
X5698Y25952D01*
X5590Y25825D01*
X5503Y25683D01*
X5439Y25529D01*
X5400Y25366D01*
X5387Y25200D01*
X5400Y25034D01*
X5439Y24871D01*
X5503Y24717D01*
X5590Y24575D01*
X5698Y24448D01*
X5825Y24340D01*
X5967Y24253D01*
X6121Y24189D01*
X6284Y24150D01*
X6450Y24137D01*
X6616Y24150D01*
X6779Y24189D01*
X6933Y24253D01*
X7075Y24340D01*
X7202Y24448D01*
X7310Y24575D01*
X7397Y24717D01*
X7461Y24871D01*
X7500Y25034D01*
X7513Y25200D01*
X7500Y25366D01*
X7461Y25529D01*
X7397Y25683D01*
X7310Y25825D01*
X7202Y25952D01*
X7075Y26060D01*
X6933Y26147D01*
X6929Y26149D01*
X6939Y26198D01*
X10561D01*
X10649Y26110D01*
D02*
G37*
G36*
X17103Y14313D02*
Y12865D01*
X17111Y12826D01*
X17133Y12793D01*
X17848Y12078D01*
X17881Y12056D01*
X17920Y12048D01*
X18118D01*
X18122Y11998D01*
X18107Y11996D01*
X18021Y11960D01*
X17947Y11903D01*
X17890Y11829D01*
X17854Y11743D01*
X17842Y11650D01*
X17854Y11557D01*
X17890Y11471D01*
X17947Y11397D01*
X18021Y11340D01*
X18107Y11304D01*
X18200Y11292D01*
X18293Y11304D01*
X18379Y11340D01*
X18453Y11397D01*
X18510Y11471D01*
X18546Y11557D01*
X18548Y11572D01*
X18598Y11568D01*
Y10732D01*
X18548Y10728D01*
X18546Y10743D01*
X18510Y10829D01*
X18453Y10903D01*
X18379Y10960D01*
X18293Y10996D01*
X18200Y11008D01*
X18107Y10996D01*
X18021Y10960D01*
X17947Y10903D01*
X17890Y10829D01*
X17854Y10743D01*
X17842Y10650D01*
X17854Y10557D01*
X17890Y10471D01*
X17947Y10397D01*
X18021Y10340D01*
X18107Y10304D01*
X18200Y10292D01*
X18293Y10304D01*
X18370Y10336D01*
X18528Y10178D01*
Y9888D01*
X18478Y9871D01*
X18453Y9903D01*
X18379Y9960D01*
X18293Y9996D01*
X18200Y10008D01*
X18107Y9996D01*
X18021Y9960D01*
X17947Y9903D01*
X17890Y9829D01*
X17854Y9743D01*
X17842Y9650D01*
X17854Y9557D01*
X17890Y9471D01*
X17947Y9397D01*
X18021Y9340D01*
X18107Y9304D01*
X18200Y9292D01*
X18293Y9304D01*
X18370Y9336D01*
X18748Y8958D01*
X18781Y8936D01*
X18820Y8928D01*
X19502D01*
X19520Y8900D01*
X19580Y8860D01*
X19650Y8846D01*
X19720Y8860D01*
X19780Y8900D01*
X19820Y8960D01*
X19834Y9030D01*
X19820Y9100D01*
X19780Y9160D01*
X19720Y9200D01*
X19650Y9214D01*
X19580Y9200D01*
X19524Y9162D01*
X19516Y9160D01*
X19515Y9160D01*
X19497Y9212D01*
X19672Y9388D01*
X19694Y9421D01*
X19702Y9460D01*
Y11299D01*
X19752Y11309D01*
X19754Y11304D01*
X20035Y11023D01*
Y8927D01*
X19778Y8670D01*
X17093Y9188D01*
X16230Y9535D01*
X16220Y9584D01*
X16508Y9872D01*
X16582Y9968D01*
X16628Y10080D01*
X16644Y10200D01*
X16628Y10320D01*
X16582Y10432D01*
X16508Y10528D01*
X16412Y10602D01*
X16300Y10648D01*
X16180Y10664D01*
X16060Y10648D01*
X15948Y10602D01*
X15852Y10528D01*
X15263Y9939D01*
X15215Y9959D01*
X15215Y14600D01*
X15196Y14646D01*
X14834Y15008D01*
X14855Y15058D01*
X16358D01*
X17103Y14313D01*
D02*
G37*
G36*
X21050Y15500D02*
Y13750D01*
Y13500D01*
Y13250D01*
Y8150D01*
X21200Y8000D01*
X25500D01*
X26000Y7500D01*
Y6500D01*
X25900Y6400D01*
X25300D01*
X24500Y7200D01*
X17150Y7200D01*
X16050Y8300D01*
X15000Y8300D01*
X14650Y8650D01*
X13300D01*
Y8800D01*
X13287Y9298D01*
X13350Y9750D01*
Y10350D01*
X13600Y14550D01*
X13650Y14800D01*
X13750Y15000D01*
X14750D01*
X15150Y14600D01*
X15150Y9900D01*
X17075Y9125D01*
X19800Y8600D01*
X20100Y8900D01*
Y11050D01*
X19800Y11350D01*
Y15300D01*
X20100Y15600D01*
X20950D01*
X21050Y15500D01*
D02*
G37*
%LPC*%
G36*
X8900Y25434D02*
X8830Y25420D01*
X8770Y25380D01*
X8730Y25320D01*
X8716Y25250D01*
X8730Y25180D01*
X8770Y25120D01*
X8830Y25080D01*
X8900Y25066D01*
X8970Y25080D01*
X9030Y25120D01*
X9070Y25180D01*
X9084Y25250D01*
X9070Y25320D01*
X9030Y25380D01*
X8970Y25420D01*
X8900Y25434D01*
D02*
G37*
G36*
X11200Y21008D02*
X11107Y20996D01*
X11021Y20960D01*
X10947Y20903D01*
X10890Y20829D01*
X10854Y20743D01*
X10842Y20650D01*
X10854Y20557D01*
X10890Y20471D01*
X10947Y20397D01*
X11021Y20340D01*
X11107Y20304D01*
X11200Y20292D01*
X11293Y20304D01*
X11379Y20340D01*
X11453Y20397D01*
X11510Y20471D01*
X11546Y20557D01*
X11558Y20650D01*
X11546Y20743D01*
X11510Y20829D01*
X11453Y20903D01*
X11379Y20960D01*
X11293Y20996D01*
X11200Y21008D01*
D02*
G37*
G36*
X10200D02*
X10107Y20996D01*
X10021Y20960D01*
X9947Y20903D01*
X9890Y20829D01*
X9854Y20743D01*
X9842Y20650D01*
X9854Y20557D01*
X9890Y20471D01*
X9947Y20397D01*
X10021Y20340D01*
X10107Y20304D01*
X10200Y20292D01*
X10293Y20304D01*
X10379Y20340D01*
X10453Y20397D01*
X10510Y20471D01*
X10546Y20557D01*
X10558Y20650D01*
X10546Y20743D01*
X10510Y20829D01*
X10453Y20903D01*
X10379Y20960D01*
X10293Y20996D01*
X10200Y21008D01*
D02*
G37*
G36*
X16000Y25034D02*
X15930Y25020D01*
X15870Y24980D01*
X15830Y24920D01*
X15816Y24850D01*
X15830Y24780D01*
X15870Y24720D01*
X15930Y24680D01*
X16000Y24666D01*
X16070Y24680D01*
X16130Y24720D01*
X16170Y24780D01*
X16184Y24850D01*
X16170Y24920D01*
X16130Y24980D01*
X16070Y25020D01*
X16000Y25034D01*
D02*
G37*
G36*
X19200Y25008D02*
X19107Y24996D01*
X19021Y24960D01*
X18947Y24903D01*
X18890Y24829D01*
X18854Y24743D01*
X18842Y24650D01*
X18854Y24557D01*
X18890Y24471D01*
X18947Y24397D01*
X19021Y24340D01*
X19107Y24304D01*
X19200Y24292D01*
X19293Y24304D01*
X19379Y24340D01*
X19453Y24397D01*
X19510Y24471D01*
X19546Y24557D01*
X19558Y24650D01*
X19546Y24743D01*
X19510Y24829D01*
X19453Y24903D01*
X19379Y24960D01*
X19293Y24996D01*
X19200Y25008D01*
D02*
G37*
G36*
Y24008D02*
X19107Y23996D01*
X19021Y23960D01*
X18947Y23903D01*
X18890Y23829D01*
X18854Y23743D01*
X18842Y23650D01*
X18854Y23557D01*
X18890Y23471D01*
X18947Y23397D01*
X19021Y23340D01*
X19107Y23304D01*
X19200Y23292D01*
X19293Y23304D01*
X19379Y23340D01*
X19453Y23397D01*
X19510Y23471D01*
X19546Y23557D01*
X19558Y23650D01*
X19546Y23743D01*
X19510Y23829D01*
X19453Y23903D01*
X19379Y23960D01*
X19293Y23996D01*
X19200Y24008D01*
D02*
G37*
G36*
X17340Y23334D02*
X17270Y23320D01*
X17210Y23280D01*
X17170Y23220D01*
X17156Y23150D01*
X17170Y23080D01*
X17210Y23020D01*
X17270Y22980D01*
X17340Y22966D01*
X17410Y22980D01*
X17470Y23020D01*
X17510Y23080D01*
X17524Y23150D01*
X17510Y23220D01*
X17470Y23280D01*
X17410Y23320D01*
X17340Y23334D01*
D02*
G37*
G36*
X15150Y22884D02*
X15080Y22870D01*
X15020Y22830D01*
X14980Y22770D01*
X14966Y22700D01*
X14980Y22630D01*
X15020Y22570D01*
X15080Y22530D01*
X15150Y22516D01*
X15220Y22530D01*
X15280Y22570D01*
X15320Y22630D01*
X15334Y22700D01*
X15320Y22770D01*
X15280Y22830D01*
X15220Y22870D01*
X15150Y22884D01*
D02*
G37*
G36*
X19200Y23008D02*
X19107Y22996D01*
X19021Y22960D01*
X18947Y22903D01*
X18890Y22829D01*
X18854Y22743D01*
X18842Y22650D01*
X18854Y22557D01*
X18890Y22471D01*
X18947Y22397D01*
X19021Y22340D01*
X19107Y22304D01*
X19200Y22292D01*
X19293Y22304D01*
X19379Y22340D01*
X19453Y22397D01*
X19510Y22471D01*
X19546Y22557D01*
X19558Y22650D01*
X19546Y22743D01*
X19510Y22829D01*
X19453Y22903D01*
X19379Y22960D01*
X19293Y22996D01*
X19200Y23008D01*
D02*
G37*
G36*
X18200D02*
X18107Y22996D01*
X18021Y22960D01*
X17947Y22903D01*
X17890Y22829D01*
X17854Y22743D01*
X17842Y22650D01*
X17854Y22557D01*
X17890Y22471D01*
X17947Y22397D01*
X18021Y22340D01*
X18107Y22304D01*
X18200Y22292D01*
X18293Y22304D01*
X18379Y22340D01*
X18453Y22397D01*
X18510Y22471D01*
X18546Y22557D01*
X18558Y22650D01*
X18546Y22743D01*
X18510Y22829D01*
X18453Y22903D01*
X18379Y22960D01*
X18293Y22996D01*
X18200Y23008D01*
D02*
G37*
G36*
X19200Y22008D02*
X19107Y21996D01*
X19021Y21960D01*
X18947Y21903D01*
X18890Y21829D01*
X18854Y21743D01*
X18842Y21650D01*
X18854Y21557D01*
X18890Y21471D01*
X18947Y21397D01*
X19021Y21340D01*
X19107Y21304D01*
X19200Y21292D01*
X19293Y21304D01*
X19379Y21340D01*
X19453Y21397D01*
X19510Y21471D01*
X19546Y21557D01*
X19558Y21650D01*
X19546Y21743D01*
X19510Y21829D01*
X19453Y21903D01*
X19379Y21960D01*
X19293Y21996D01*
X19200Y22008D01*
D02*
G37*
G36*
X18200D02*
X18107Y21996D01*
X18021Y21960D01*
X17947Y21903D01*
X17890Y21829D01*
X17854Y21743D01*
X17842Y21650D01*
X17854Y21557D01*
X17890Y21471D01*
X17947Y21397D01*
X18021Y21340D01*
X18107Y21304D01*
X18200Y21292D01*
X18293Y21304D01*
X18379Y21340D01*
X18453Y21397D01*
X18510Y21471D01*
X18546Y21557D01*
X18558Y21650D01*
X18546Y21743D01*
X18510Y21829D01*
X18453Y21903D01*
X18379Y21960D01*
X18293Y21996D01*
X18200Y22008D01*
D02*
G37*
G36*
X16247Y21630D02*
X16177Y21616D01*
X16117Y21577D01*
X16077Y21517D01*
X16063Y21447D01*
X16077Y21377D01*
X16117Y21317D01*
X16177Y21277D01*
X16247Y21263D01*
X16317Y21277D01*
X16377Y21317D01*
X16416Y21377D01*
X16430Y21447D01*
X16416Y21517D01*
X16377Y21577D01*
X16317Y21616D01*
X16247Y21630D01*
D02*
G37*
G36*
X18200Y21008D02*
X18107Y20996D01*
X18021Y20960D01*
X17947Y20903D01*
X17890Y20829D01*
X17854Y20743D01*
X17842Y20650D01*
X17854Y20557D01*
X17854Y20557D01*
X17833Y20534D01*
X17815Y20521D01*
X17750Y20534D01*
X17680Y20520D01*
X17620Y20480D01*
X17580Y20420D01*
X17566Y20350D01*
X17580Y20280D01*
X17620Y20220D01*
X17680Y20180D01*
X17750Y20166D01*
X17820Y20180D01*
X17880Y20220D01*
X17920Y20280D01*
X17932Y20344D01*
X17953Y20359D01*
X17980Y20371D01*
X18021Y20340D01*
X18107Y20304D01*
X18200Y20292D01*
X18293Y20304D01*
X18379Y20340D01*
X18453Y20397D01*
X18510Y20471D01*
X18546Y20557D01*
X18558Y20650D01*
X18546Y20743D01*
X18510Y20829D01*
X18453Y20903D01*
X18379Y20960D01*
X18293Y20996D01*
X18200Y21008D01*
D02*
G37*
G36*
X19200D02*
X19107Y20996D01*
X19021Y20960D01*
X18947Y20903D01*
X18890Y20829D01*
X18854Y20743D01*
X18842Y20650D01*
X18854Y20557D01*
X18890Y20471D01*
X18947Y20397D01*
X19021Y20340D01*
X19107Y20304D01*
X19200Y20292D01*
X19293Y20304D01*
X19379Y20340D01*
X19453Y20397D01*
X19510Y20471D01*
X19546Y20557D01*
X19558Y20650D01*
X19546Y20743D01*
X19510Y20829D01*
X19453Y20903D01*
X19379Y20960D01*
X19293Y20996D01*
X19200Y21008D01*
D02*
G37*
G36*
X17350Y20634D02*
X17280Y20620D01*
X17220Y20580D01*
X17180Y20520D01*
X17166Y20450D01*
X17180Y20380D01*
X17220Y20320D01*
X17280Y20280D01*
X17350Y20266D01*
X17420Y20280D01*
X17480Y20320D01*
X17520Y20380D01*
X17534Y20450D01*
X17520Y20520D01*
X17480Y20580D01*
X17420Y20620D01*
X17350Y20634D01*
D02*
G37*
G36*
X4000Y23658D02*
X3907Y23646D01*
X3821Y23610D01*
X3747Y23553D01*
X3690Y23479D01*
X3654Y23393D01*
X3642Y23300D01*
X3654Y23207D01*
X3690Y23121D01*
X3747Y23047D01*
X3821Y22990D01*
X3907Y22954D01*
X4000Y22942D01*
X4093Y22954D01*
X4179Y22990D01*
X4253Y23047D01*
X4310Y23121D01*
X4346Y23207D01*
X4358Y23300D01*
X4346Y23393D01*
X4310Y23479D01*
X4253Y23553D01*
X4179Y23610D01*
X4093Y23646D01*
X4000Y23658D01*
D02*
G37*
G36*
Y22658D02*
X3907Y22646D01*
X3821Y22610D01*
X3747Y22553D01*
X3690Y22479D01*
X3654Y22393D01*
X3642Y22300D01*
X3654Y22207D01*
X3690Y22121D01*
X3747Y22047D01*
X3821Y21990D01*
X3907Y21954D01*
X4000Y21942D01*
X4093Y21954D01*
X4179Y21990D01*
X4253Y22047D01*
X4310Y22121D01*
X4346Y22207D01*
X4358Y22300D01*
X4346Y22393D01*
X4310Y22479D01*
X4253Y22553D01*
X4179Y22610D01*
X4093Y22646D01*
X4000Y22658D01*
D02*
G37*
%LPD*%
D17*
X14925Y21175D02*
G03*
X14825Y21275I-325J-225D01*
G01*
X12511Y19250D02*
X17500Y14261D01*
X9872Y19250D02*
X12511D01*
X17500Y14200D02*
Y14261D01*
X16400Y15160D02*
X17205Y14355D01*
Y12865D02*
Y14355D01*
X10690Y15160D02*
X16400D01*
X17600Y18497D02*
Y18500D01*
X10995Y22255D02*
X13845D01*
X14925Y21175D02*
X17600Y18500D01*
X13845Y22255D02*
X14825Y21275D01*
X17897Y18200D02*
X18650D01*
X17600Y18497D02*
X17897Y18200D01*
X18650D02*
X19200Y17650D01*
X4370Y14634D02*
X5216D01*
X10200Y9650D01*
X6809Y20200D02*
X8025D01*
X6320Y20690D02*
X6809Y20200D01*
X8025D02*
X10200Y18025D01*
X6698Y20000D02*
X7790D01*
X9540Y18250D01*
X5550Y21148D02*
X6698Y20000D01*
X25470Y8850D02*
X27300D01*
X22800Y11520D02*
X25470Y8850D01*
X16247Y17035D02*
Y19060D01*
X26750Y4150D02*
X30800Y8200D01*
Y10250D01*
X22470D02*
X23030Y10810D01*
X13180Y7930D02*
X15820D01*
X12310Y8800D02*
X13180Y7930D01*
X15820D02*
X16930Y6820D01*
X5550Y21148D02*
Y21200D01*
X13390Y22810D02*
Y22970D01*
X14400Y23980D01*
X17870D01*
X18200Y23650D01*
X19100Y10250D02*
X19200Y10150D01*
X18870Y10250D02*
X19100D01*
X18700Y10420D02*
X18870Y10250D01*
X18700Y10420D02*
Y11860D01*
X18410Y12150D02*
X18700Y11860D01*
X17920Y12150D02*
X18410D01*
X17205Y12865D02*
X17920Y12150D01*
X10200Y15650D02*
X10690Y15160D01*
X17170Y25680D02*
X18200Y24650D01*
X11224Y25680D02*
X17170D01*
X10604Y26300D02*
X11224Y25680D01*
X2800Y26300D02*
X10604D01*
X2050Y25550D02*
X2800Y26300D01*
X2050Y22850D02*
Y25550D01*
X1550Y22350D02*
X2050Y22850D01*
X9540Y10630D02*
Y18250D01*
Y10630D02*
X9920Y10250D01*
X10600D01*
X11200Y9650D01*
X18200Y10650D02*
X18630Y10220D01*
Y9460D02*
Y10220D01*
Y9460D02*
X18840Y9250D01*
X19390D01*
X19600Y9460D01*
Y14810D01*
X19360Y15050D02*
X19600Y14810D01*
X17080Y15050D02*
X19360D01*
X13820Y18310D02*
X17080Y15050D01*
X14600Y20950D02*
X14910D01*
X17280Y18580D01*
Y16570D02*
Y18580D01*
Y16570D02*
X17600Y16250D01*
X20660D01*
X21260Y15650D01*
Y10740D02*
Y15650D01*
Y10740D02*
X21750Y10250D01*
X22470D01*
X8392Y20730D02*
X9872Y19250D01*
X8130Y20730D02*
X8392D01*
X14180Y18580D02*
X15700D01*
X12710Y20050D02*
X14180Y18580D01*
X9340Y20050D02*
X12710D01*
X8210Y21180D02*
X9340Y20050D01*
X7580Y21180D02*
X8210D01*
X7100Y20700D02*
X7580Y21180D01*
X15960Y7330D02*
X16840Y6450D01*
X24420D01*
X10700Y11380D02*
Y14710D01*
Y11380D02*
X10880Y11200D01*
X11600D01*
X11980Y10820D01*
Y8800D02*
Y10820D01*
Y8800D02*
X16070Y4710D01*
X25920D01*
X15927Y19380D02*
X16247Y19060D01*
X14070Y19380D02*
X15927D01*
X11365Y22085D02*
X14070Y19380D01*
X10185Y22085D02*
X11365D01*
X9280Y22990D02*
X10185Y22085D01*
X9280Y22990D02*
Y23990D01*
X10800Y22450D02*
Y25050D01*
Y22450D02*
X10995Y22255D01*
X18820Y9030D02*
X19650D01*
X18200Y9650D02*
X18820Y9030D01*
X12310Y12291D02*
X12953Y12934D01*
X12310Y8800D02*
Y12291D01*
X16930Y6820D02*
X24570D01*
X25270Y6120D01*
X27190D01*
X27690Y6620D01*
Y10830D01*
X11200Y17650D02*
X11600D01*
X12790Y16460D01*
X10200Y17650D02*
Y18025D01*
X11200Y22650D02*
X13170D01*
X13230Y22590D01*
X14460D01*
X17800Y19250D01*
X19200D01*
X21500Y16950D01*
Y12020D02*
Y16950D01*
Y12020D02*
X22000Y11520D01*
X22800D01*
X24780Y17650D02*
X26300D01*
X20880Y21550D02*
X24780Y17650D01*
D46*
X17100Y2350D02*
X18500Y950D01*
X10300Y2526D02*
Y4774D01*
Y2526D02*
X10476Y2350D01*
X17100D01*
X26112Y4262D02*
X27400Y5550D01*
X7350Y11300D02*
X8550Y10100D01*
X4650Y17500D02*
X5800D01*
X7850Y19550D01*
X20100Y19439D02*
X23244Y16294D01*
X20100Y19439D02*
Y25200D01*
X11300Y26000D02*
X19300D01*
X20100Y25200D01*
X8950Y22950D02*
Y24500D01*
X9800Y25350D01*
X9500Y4950D02*
X10124D01*
X10300Y4774D01*
X18500Y950D02*
X18700D01*
X6200Y23800D02*
X8124D01*
X8300Y23976D01*
Y25674D01*
X8476Y25850D01*
X10700D01*
X22100Y11800D02*
Y15150D01*
X23244Y16294D01*
X24000Y11800D02*
X25800Y10000D01*
X22100Y11800D02*
X24000D01*
X21500Y1200D02*
Y2974D01*
X22788Y4262D02*
X26112D01*
X21500Y2974D02*
X22788Y4262D01*
X20900Y600D02*
X21500Y1200D01*
X19400Y600D02*
X20900D01*
X18700Y950D02*
X19050D01*
X19400Y600D01*
X26300Y12650D02*
X26900D01*
X28150Y11400D01*
X27400Y5550D02*
X28150Y6300D01*
Y11400D01*
X26300Y12650D02*
X27050Y13400D01*
Y16150D01*
X27550Y17350D02*
X27700D01*
X27806Y17244D01*
Y16906D02*
Y17244D01*
X27050Y16150D02*
X27806Y16906D01*
X25900Y23500D02*
X27050Y24650D01*
X22250Y23500D02*
X25900D01*
X21050Y22300D02*
X22250Y23500D01*
X11950Y24650D02*
X12150Y24850D01*
Y23500D02*
Y24850D01*
X12347Y25047D01*
X11200Y24650D02*
X11950D01*
X11150Y24700D02*
X11200Y24650D01*
X11150Y24700D02*
Y25400D01*
X10700Y25850D02*
X11150Y25400D01*
X6000Y23600D02*
X6200Y23800D01*
X6000Y22300D02*
Y23600D01*
X4000Y20300D02*
X6000Y22300D01*
X7100Y21700D02*
X8350Y22950D01*
X8950D01*
X7100Y21700D02*
X8300D01*
X8950Y21050D01*
X6500Y19550D02*
X7850D01*
X5750Y20300D02*
X6500Y19550D01*
X4000Y20300D02*
X5750D01*
X3800Y12750D02*
Y16650D01*
X4362Y17212D01*
X4650Y17500D01*
X3800Y12750D02*
X5250Y11300D01*
X7350D01*
X3850Y6800D02*
X4150Y7100D01*
X3850Y2650D02*
Y6800D01*
X2350Y1150D02*
X3850Y2650D01*
X9500Y4950D02*
Y6800D01*
X8650Y7650D02*
X9500Y6800D01*
X8550Y10100D02*
X8650Y10000D01*
Y7650D02*
Y10000D01*
X4150Y7100D02*
X8100D01*
X8650Y7650D01*
X2550Y17150D02*
Y18850D01*
X4000Y20300D01*
X3975Y20325D02*
X4000Y20300D01*
X1575Y20325D02*
X3975D01*
X1550Y20350D02*
X1575Y20325D01*
X2550Y21350D02*
Y25150D01*
X1550Y20350D02*
X2550Y21350D01*
D47*
X27350Y17350D02*
X27550D01*
X27296Y20250D02*
X27950D01*
X27150Y20104D02*
X27296Y20250D01*
X27150Y17550D02*
Y20104D01*
Y17550D02*
X27350Y17350D01*
X28150Y23550D02*
X29154D01*
X29300Y23404D01*
Y21600D02*
Y23404D01*
X27950Y20250D02*
X29300Y21600D01*
X27050Y24650D02*
X28150Y23550D01*
D48*
X15030Y9050D02*
X16180Y10200D01*
X14900Y9050D02*
X15030D01*
D49*
X26300Y12650D02*
D03*
X7100Y20700D02*
D03*
X9500Y4950D02*
D03*
X1550Y20350D02*
D03*
X4000Y20300D02*
D03*
D50*
X2550Y15150D02*
D03*
Y16150D02*
D03*
Y17150D02*
D03*
X22050Y22300D02*
D03*
X27050Y24650D02*
D03*
X14600Y20950D02*
D03*
X26300Y13650D02*
D03*
Y17650D02*
D03*
X7100Y21700D02*
D03*
Y22700D02*
D03*
X9500Y3950D02*
D03*
X19200Y17650D02*
D03*
X18200Y24650D02*
D03*
Y23650D02*
D03*
X10200Y24650D02*
D03*
X11200D02*
D03*
X10200Y23650D02*
D03*
X11200Y22650D02*
D03*
X10200Y17650D02*
D03*
X11200D02*
D03*
X10200Y15650D02*
D03*
Y9650D02*
D03*
X11200D02*
D03*
X18200D02*
D03*
Y10650D02*
D03*
X2550Y25150D02*
D03*
X1550Y22350D02*
D03*
Y21350D02*
D03*
X4000Y21300D02*
D03*
D51*
X21050Y22300D02*
D03*
X28050Y24650D02*
D03*
X3550Y25150D02*
D03*
D54*
X5513Y4300D02*
D03*
D55*
X25200Y1700D02*
D03*
D59*
X22650Y1250D02*
D03*
Y2250D02*
D03*
D61*
X17500Y14200D02*
D03*
X15450Y12750D02*
D03*
X27300Y8850D02*
D03*
X25200Y6750D02*
D03*
Y7050D02*
D03*
X12350Y12870D02*
D03*
X16247Y17035D02*
D03*
X16180Y10200D02*
D03*
X30400Y11800D02*
D03*
X30804Y10254D02*
D03*
X27400Y5550D02*
D03*
X26750Y4150D02*
D03*
X23300Y12850D02*
D03*
X23030Y10810D02*
D03*
X16950Y10250D02*
D03*
X8550Y10100D02*
D03*
X12650Y2800D02*
D03*
X6850Y17600D02*
D03*
X5550Y21200D02*
D03*
X13800Y2850D02*
D03*
X14613Y867D02*
D03*
X13390Y22810D02*
D03*
X19200Y10150D02*
D03*
X4370Y14634D02*
D03*
X13820Y18310D02*
D03*
X8130Y20730D02*
D03*
X15700Y18580D02*
D03*
X15960Y7330D02*
D03*
X24420Y6450D02*
D03*
X10700Y14710D02*
D03*
X25920Y4710D02*
D03*
X9280Y23990D02*
D03*
X10800Y25050D02*
D03*
X19650Y9030D02*
D03*
X12953Y12934D02*
D03*
X27690Y10830D02*
D03*
X12790Y16460D02*
D03*
X6320Y20690D02*
D03*
X20880Y21550D02*
D03*
X4970Y9000D02*
D03*
X14720Y4980D02*
D03*
X9200Y12850D02*
D03*
X24960Y10350D02*
D03*
X15290Y23760D02*
D03*
X14720Y25460D02*
D03*
X29280Y9750D02*
D03*
X26884Y12150D02*
D03*
X11300Y26000D02*
D03*
X9800Y25350D02*
D03*
X16770Y1225D02*
D03*
X23244Y16294D02*
D03*
X22100Y11800D02*
D03*
X25800Y10000D02*
D03*
X27450Y4350D02*
D03*
X18700Y950D02*
D03*
X12347Y25047D02*
D03*
X12150Y23500D02*
D03*
X8950Y22950D02*
D03*
Y21050D02*
D03*
X2312Y2589D02*
D03*
X2350Y1150D02*
D03*
X4150Y7100D02*
D03*
X7850Y19550D02*
D03*
X4650Y17500D02*
D03*
X18200Y2750D02*
D03*
X16650D02*
D03*
X15400Y2800D02*
D03*
X11100Y2850D02*
D03*
X15400Y4900D02*
D03*
X13800D02*
D03*
X31200Y6050D02*
D03*
X15450Y13550D02*
D03*
X14800Y16650D02*
D03*
X12950Y16750D02*
D03*
X13400Y24550D02*
D03*
X15850Y22050D02*
D03*
X7800Y15500D02*
D03*
X7100D02*
D03*
X6400D02*
D03*
X5700Y15550D02*
D03*
X8200Y15050D02*
D03*
X7400D02*
D03*
X6800D02*
D03*
X6050D02*
D03*
X5400D02*
D03*
X2300Y8600D02*
D03*
X6750Y9100D02*
D03*
X1450Y7650D02*
D03*
X31150Y7000D02*
D03*
X25550Y5625D02*
D03*
X24450Y9550D02*
D03*
X23300Y13950D02*
D03*
X28527Y15623D02*
D03*
X30400Y16900D02*
D03*
X14400Y14750D02*
D03*
X13900D02*
D03*
X14900Y9050D02*
D03*
X20450Y14600D02*
D03*
X20650Y15300D02*
D03*
X20300Y15100D02*
D03*
X27550Y17350D02*
D03*
M02*
