G04*
G04 #@! TF.GenerationSoftware,Altium Limited,Altium Designer,20.0.13 (296)*
G04*
G04 Layer_Color=255*
%FSLAX24Y24*%
%MOIN*%
G70*
G01*
G75*
%ADD22R,0.0366X0.0386*%
%ADD23R,0.0472X0.0276*%
%ADD24R,0.1299X0.0402*%
%ADD25R,0.1063X0.0394*%
%ADD26R,0.0866X0.0689*%
%ADD27R,0.0315X0.0335*%
%ADD49R,0.0591X0.0591*%
%ADD50C,0.0591*%
%ADD51R,0.0591X0.0591*%
%ADD52C,0.0230*%
%ADD53C,0.2000*%
G04:AMPARAMS|DCode=54|XSize=236.2mil|YSize=157.5mil|CornerRadius=39.4mil|HoleSize=0mil|Usage=FLASHONLY|Rotation=270.000|XOffset=0mil|YOffset=0mil|HoleType=Round|Shape=RoundedRectangle|*
%AMROUNDEDRECTD54*
21,1,0.2362,0.0787,0,0,270.0*
21,1,0.1575,0.1575,0,0,270.0*
1,1,0.0787,-0.0394,-0.0787*
1,1,0.0787,-0.0394,0.0787*
1,1,0.0787,0.0394,0.0787*
1,1,0.0787,0.0394,-0.0787*
%
%ADD54ROUNDEDRECTD54*%
%ADD55O,0.0787X0.1181*%
%ADD56R,0.0866X0.1378*%
%ADD57C,0.0709*%
%ADD58R,0.0709X0.0709*%
%ADD59C,0.0591*%
%ADD60R,0.0591X0.0591*%
D22*
X17531Y5200D02*
D03*
X18137D02*
D03*
X14653Y7490D02*
D03*
X14047D02*
D03*
X11127Y5300D02*
D03*
X11733D02*
D03*
D23*
X16613Y3117D02*
D03*
X18187D02*
D03*
Y3983D02*
D03*
X16613D02*
D03*
X13825Y5217D02*
D03*
X15400D02*
D03*
Y6083D02*
D03*
X13825D02*
D03*
X11063Y3117D02*
D03*
X12637D02*
D03*
Y3983D02*
D03*
X11063D02*
D03*
X13825Y3983D02*
D03*
X15400D02*
D03*
Y3117D02*
D03*
X13825D02*
D03*
Y1733D02*
D03*
X15400D02*
D03*
Y867D02*
D03*
X13825D02*
D03*
D24*
X7675Y7100D02*
D03*
X5825D02*
D03*
X7675Y8100D02*
D03*
X5825D02*
D03*
X7675Y9100D02*
D03*
X5825D02*
D03*
X7675Y10100D02*
D03*
X5825D02*
D03*
X1425Y4150D02*
D03*
X3275D02*
D03*
X1425Y3150D02*
D03*
X3275D02*
D03*
X1425Y2150D02*
D03*
X3275D02*
D03*
X1425Y1150D02*
D03*
X3275D02*
D03*
X1425Y10100D02*
D03*
X3275D02*
D03*
X1425Y9100D02*
D03*
X3275D02*
D03*
X1425Y8100D02*
D03*
X3275D02*
D03*
X1425Y7100D02*
D03*
X3275D02*
D03*
X30375Y11150D02*
D03*
X28525D02*
D03*
X30375Y12150D02*
D03*
X28525D02*
D03*
X30375Y13150D02*
D03*
X28525D02*
D03*
Y19350D02*
D03*
X30375D02*
D03*
X28525Y18350D02*
D03*
X30375D02*
D03*
X28525Y17350D02*
D03*
X30375D02*
D03*
X28525Y7550D02*
D03*
X30375D02*
D03*
X28525Y6550D02*
D03*
X30375D02*
D03*
X28525Y5550D02*
D03*
X30375D02*
D03*
D25*
X23281Y14650D02*
D03*
X20919D02*
D03*
X26781Y10000D02*
D03*
X24419D02*
D03*
X5519Y13250D02*
D03*
X7881D02*
D03*
X5669Y17500D02*
D03*
X8031D02*
D03*
D26*
X11395Y7250D02*
D03*
X9505D02*
D03*
D27*
X17360Y1800D02*
D03*
X16770D02*
D03*
X17360Y650D02*
D03*
X16770D02*
D03*
D49*
X2550Y13150D02*
D03*
X26300Y12650D02*
D03*
X7100Y20700D02*
D03*
X9500Y4950D02*
D03*
X1550Y20350D02*
D03*
X4000Y20300D02*
D03*
D50*
X1550Y13150D02*
D03*
X2550Y14150D02*
D03*
X1550D02*
D03*
X2550Y15150D02*
D03*
X1550D02*
D03*
X2550Y16150D02*
D03*
X1550D02*
D03*
X2550Y17150D02*
D03*
X1550D02*
D03*
X22050Y22300D02*
D03*
X23050D02*
D03*
X24050D02*
D03*
X25050D02*
D03*
X26050D02*
D03*
X27050D02*
D03*
X28050D02*
D03*
X21050Y24650D02*
D03*
X22050D02*
D03*
X23050D02*
D03*
X24050D02*
D03*
X25050D02*
D03*
X26050D02*
D03*
X27050D02*
D03*
X14600Y18981D02*
D03*
Y20950D02*
D03*
X26300Y13650D02*
D03*
Y14650D02*
D03*
Y15650D02*
D03*
Y16650D02*
D03*
Y17650D02*
D03*
X7100Y21700D02*
D03*
Y22700D02*
D03*
X9500Y1950D02*
D03*
Y2950D02*
D03*
Y3950D02*
D03*
X19200Y20650D02*
D03*
X18200D02*
D03*
X19200Y19650D02*
D03*
X18200D02*
D03*
X19200Y18650D02*
D03*
X18200D02*
D03*
X19200Y17650D02*
D03*
X18200D02*
D03*
X19200Y24650D02*
D03*
X18200D02*
D03*
X19200Y23650D02*
D03*
X18200D02*
D03*
X19200Y22650D02*
D03*
X18200D02*
D03*
X19200Y21650D02*
D03*
X18200D02*
D03*
X10200Y24650D02*
D03*
X11200D02*
D03*
X10200Y23650D02*
D03*
X11200D02*
D03*
X10200Y22650D02*
D03*
X11200D02*
D03*
X10200Y21650D02*
D03*
X11200D02*
D03*
X10200Y20650D02*
D03*
X11200D02*
D03*
X10200Y19650D02*
D03*
X11200D02*
D03*
X10200Y18650D02*
D03*
X11200D02*
D03*
X10200Y17650D02*
D03*
X11200D02*
D03*
X10200Y16650D02*
D03*
X11200D02*
D03*
X10200Y15650D02*
D03*
X11200D02*
D03*
X10200Y14650D02*
D03*
X11200D02*
D03*
X10200Y13650D02*
D03*
X11200D02*
D03*
X10200Y12650D02*
D03*
X11200D02*
D03*
X10200Y11650D02*
D03*
X11200D02*
D03*
X10200Y10650D02*
D03*
X11200D02*
D03*
X10200Y9650D02*
D03*
X11200D02*
D03*
X18200Y13650D02*
D03*
X19200D02*
D03*
X18200Y14650D02*
D03*
X19200D02*
D03*
X18200Y15650D02*
D03*
X19200D02*
D03*
X18200Y16650D02*
D03*
X19200D02*
D03*
X18200Y9650D02*
D03*
X19200D02*
D03*
X18200Y10650D02*
D03*
X19200D02*
D03*
X18200Y11650D02*
D03*
X19200D02*
D03*
X18200Y12650D02*
D03*
X19200D02*
D03*
X2550Y25150D02*
D03*
X1550D02*
D03*
Y23350D02*
D03*
Y22350D02*
D03*
Y21350D02*
D03*
X4000Y23300D02*
D03*
Y22300D02*
D03*
Y21300D02*
D03*
D51*
X21050Y22300D02*
D03*
X28050Y24650D02*
D03*
X3550Y25150D02*
D03*
D52*
X7058Y25761D02*
D03*
X7272Y25297D02*
D03*
X7172Y24795D02*
D03*
X6796Y24448D02*
D03*
X6288Y24388D02*
D03*
X5842Y24639D02*
D03*
X5628Y25103D02*
D03*
X5728Y25605D02*
D03*
X6104Y25952D02*
D03*
X6612Y26012D02*
D03*
X30658Y25761D02*
D03*
X30872Y25297D02*
D03*
X30772Y24795D02*
D03*
X30396Y24448D02*
D03*
X29888Y24388D02*
D03*
X29442Y24639D02*
D03*
X29228Y25103D02*
D03*
X29328Y25605D02*
D03*
X29704Y25952D02*
D03*
X30212Y26012D02*
D03*
X7008Y2109D02*
D03*
X7222Y1645D02*
D03*
X7122Y1143D02*
D03*
X6746Y796D02*
D03*
X6238Y736D02*
D03*
X5792Y987D02*
D03*
X5578Y1451D02*
D03*
X5678Y1953D02*
D03*
X6054Y2300D02*
D03*
X6562Y2360D02*
D03*
X30608Y2109D02*
D03*
X30822Y1645D02*
D03*
X30722Y1143D02*
D03*
X30346Y796D02*
D03*
X29838Y736D02*
D03*
X29392Y987D02*
D03*
X29178Y1451D02*
D03*
X29278Y1953D02*
D03*
X29654Y2300D02*
D03*
X30162Y2360D02*
D03*
D53*
X6450Y25200D02*
D03*
X30050D02*
D03*
X6400Y1548D02*
D03*
X30000D02*
D03*
D54*
X7600Y4300D02*
D03*
X5513D02*
D03*
D55*
X27200Y1700D02*
D03*
X25200D02*
D03*
D56*
X19851Y5600D02*
D03*
X21741D02*
D03*
X23630D02*
D03*
D57*
X22150Y10750D02*
D03*
Y9750D02*
D03*
D58*
Y8750D02*
D03*
D59*
X22650Y1250D02*
D03*
Y2250D02*
D03*
X19650Y1250D02*
D03*
D60*
Y2250D02*
D03*
M02*
