G04*
G04 #@! TF.GenerationSoftware,Altium Limited,Altium Designer,20.0.13 (296)*
G04*
G04 Layer_Color=128*
%FSLAX24Y24*%
%MOIN*%
G70*
G01*
G75*
%ADD104C,0.0020*%
D104*
X2373Y13150D02*
X2727D01*
X2550Y12973D02*
Y13327D01*
X1373Y13150D02*
X1727D01*
X1550Y12973D02*
Y13327D01*
X2373Y14150D02*
X2727D01*
X2550Y13973D02*
Y14327D01*
X1373Y14150D02*
X1727D01*
X1550Y13973D02*
Y14327D01*
X2373Y15150D02*
X2727D01*
X2550Y14973D02*
Y15327D01*
X1373Y15150D02*
X1727D01*
X1550Y14973D02*
Y15327D01*
X2373Y16150D02*
X2727D01*
X2550Y15973D02*
Y16327D01*
X1373Y16150D02*
X1727D01*
X1550Y15973D02*
Y16327D01*
X2373Y17150D02*
X2727D01*
X2550Y16973D02*
Y17327D01*
X1373Y17150D02*
X1727D01*
X1550Y16973D02*
Y17327D01*
X20873Y22300D02*
X21227D01*
X21050Y22123D02*
Y22477D01*
X21873Y22300D02*
X22227D01*
X22050Y22123D02*
Y22477D01*
X22873Y22300D02*
X23227D01*
X23050Y22123D02*
Y22477D01*
X23873Y22300D02*
X24227D01*
X24050Y22123D02*
Y22477D01*
X24873Y22300D02*
X25227D01*
X25050Y22123D02*
Y22477D01*
X25873Y22300D02*
X26227D01*
X26050Y22123D02*
Y22477D01*
X26873Y22300D02*
X27227D01*
X27050Y22123D02*
Y22477D01*
X27873Y22300D02*
X28227D01*
X28050Y22123D02*
Y22477D01*
X20873Y24650D02*
X21227D01*
X21050Y24473D02*
Y24827D01*
X21873Y24650D02*
X22227D01*
X22050Y24473D02*
Y24827D01*
X22873Y24650D02*
X23227D01*
X23050Y24473D02*
Y24827D01*
X23873Y24650D02*
X24227D01*
X24050Y24473D02*
Y24827D01*
X24873Y24650D02*
X25227D01*
X25050Y24473D02*
Y24827D01*
X25873Y24650D02*
X26227D01*
X26050Y24473D02*
Y24827D01*
X26873Y24650D02*
X27227D01*
X27050Y24473D02*
Y24827D01*
X27873Y24650D02*
X28227D01*
X28050Y24473D02*
Y24827D01*
X6948Y25761D02*
X7168D01*
X7058Y25651D02*
Y25871D01*
X7162Y25297D02*
X7382D01*
X7272Y25187D02*
Y25407D01*
X7062Y24795D02*
X7282D01*
X7172Y24685D02*
Y24905D01*
X6686Y24448D02*
X6906D01*
X6796Y24338D02*
Y24558D01*
X6178Y24388D02*
X6398D01*
X6288Y24278D02*
Y24498D01*
X5732Y24639D02*
X5952D01*
X5842Y24529D02*
Y24749D01*
X5518Y25103D02*
X5738D01*
X5628Y24993D02*
Y25213D01*
X5618Y25605D02*
X5838D01*
X5728Y25495D02*
Y25715D01*
X5994Y25952D02*
X6214D01*
X6104Y25842D02*
Y26062D01*
X6502Y26012D02*
X6722D01*
X6612Y25902D02*
Y26122D01*
X5850Y25200D02*
X7050D01*
X6450Y24600D02*
Y25800D01*
X30548Y25761D02*
X30768D01*
X30658Y25651D02*
Y25871D01*
X30762Y25297D02*
X30982D01*
X30872Y25187D02*
Y25407D01*
X30662Y24795D02*
X30882D01*
X30772Y24685D02*
Y24905D01*
X30286Y24448D02*
X30506D01*
X30396Y24338D02*
Y24558D01*
X29778Y24388D02*
X29998D01*
X29888Y24278D02*
Y24498D01*
X29332Y24639D02*
X29552D01*
X29442Y24529D02*
Y24749D01*
X29118Y25103D02*
X29338D01*
X29228Y24993D02*
Y25213D01*
X29218Y25605D02*
X29438D01*
X29328Y25495D02*
Y25715D01*
X29594Y25952D02*
X29814D01*
X29704Y25842D02*
Y26062D01*
X30102Y26012D02*
X30322D01*
X30212Y25902D02*
Y26122D01*
X29450Y25200D02*
X30650D01*
X30050Y24600D02*
Y25800D01*
X6898Y2109D02*
X7118D01*
X7008Y1999D02*
Y2219D01*
X7112Y1645D02*
X7332D01*
X7222Y1535D02*
Y1755D01*
X7012Y1143D02*
X7232D01*
X7122Y1033D02*
Y1253D01*
X6636Y796D02*
X6856D01*
X6746Y686D02*
Y906D01*
X6128Y736D02*
X6348D01*
X6238Y626D02*
Y846D01*
X5682Y987D02*
X5902D01*
X5792Y877D02*
Y1097D01*
X5468Y1451D02*
X5688D01*
X5578Y1341D02*
Y1561D01*
X5568Y1953D02*
X5788D01*
X5678Y1843D02*
Y2063D01*
X5944Y2300D02*
X6164D01*
X6054Y2190D02*
Y2410D01*
X6452Y2360D02*
X6672D01*
X6562Y2250D02*
Y2470D01*
X5800Y1548D02*
X7000D01*
X6400Y948D02*
Y2148D01*
X30498Y2109D02*
X30718D01*
X30608Y1999D02*
Y2219D01*
X30712Y1645D02*
X30932D01*
X30822Y1535D02*
Y1755D01*
X30612Y1143D02*
X30832D01*
X30722Y1033D02*
Y1253D01*
X30236Y796D02*
X30456D01*
X30346Y686D02*
Y906D01*
X29728Y736D02*
X29948D01*
X29838Y626D02*
Y846D01*
X29282Y987D02*
X29502D01*
X29392Y877D02*
Y1097D01*
X29068Y1451D02*
X29288D01*
X29178Y1341D02*
Y1561D01*
X29168Y1953D02*
X29388D01*
X29278Y1843D02*
Y2063D01*
X29544Y2300D02*
X29764D01*
X29654Y2190D02*
Y2410D01*
X30052Y2360D02*
X30272D01*
X30162Y2250D02*
Y2470D01*
X29400Y1548D02*
X30600D01*
X30000Y948D02*
Y2148D01*
X14423Y18981D02*
X14777D01*
X14600Y18804D02*
Y19159D01*
X14423Y20950D02*
X14777D01*
X14600Y20773D02*
Y21127D01*
X7088Y4300D02*
X8112D01*
X7600Y3788D02*
Y4812D01*
X5002Y4300D02*
X6025D01*
X5513Y3788D02*
Y4812D01*
X26964Y1700D02*
X27436D01*
X27200Y1464D02*
Y1936D01*
X24964Y1700D02*
X25436D01*
X25200Y1464D02*
Y1936D01*
X26123Y12650D02*
X26477D01*
X26300Y12473D02*
Y12827D01*
X26123Y13650D02*
X26477D01*
X26300Y13473D02*
Y13827D01*
X26123Y14650D02*
X26477D01*
X26300Y14473D02*
Y14827D01*
X26123Y15650D02*
X26477D01*
X26300Y15473D02*
Y15827D01*
X26123Y16650D02*
X26477D01*
X26300Y16473D02*
Y16827D01*
X26123Y17650D02*
X26477D01*
X26300Y17473D02*
Y17827D01*
X19615Y5600D02*
X20087D01*
X19851Y5364D02*
Y5836D01*
X21504Y5600D02*
X21977D01*
X21741Y5364D02*
Y5836D01*
X23394Y5600D02*
X23867D01*
X23630Y5364D02*
Y5836D01*
X21973Y10750D02*
X22327D01*
X22150Y10573D02*
Y10927D01*
X21973Y9750D02*
X22327D01*
X22150Y9573D02*
Y9927D01*
X21973Y8750D02*
X22327D01*
X22150Y8573D02*
Y8927D01*
X22473Y1250D02*
X22827D01*
X22650Y1073D02*
Y1427D01*
X22473Y2250D02*
X22827D01*
X22650Y2073D02*
Y2427D01*
X19473Y1250D02*
X19827D01*
X19650Y1073D02*
Y1427D01*
X19473Y2250D02*
X19827D01*
X19650Y2073D02*
Y2427D01*
X6923Y20700D02*
X7277D01*
X7100Y20523D02*
Y20877D01*
X6923Y21700D02*
X7277D01*
X7100Y21523D02*
Y21877D01*
X6923Y22700D02*
X7277D01*
X7100Y22523D02*
Y22877D01*
X9323Y1950D02*
X9677D01*
X9500Y1773D02*
Y2127D01*
X9323Y2950D02*
X9677D01*
X9500Y2773D02*
Y3127D01*
X9323Y3950D02*
X9677D01*
X9500Y3773D02*
Y4127D01*
X9323Y4950D02*
X9677D01*
X9500Y4773D02*
Y5127D01*
X19023Y20650D02*
X19377D01*
X19200Y20473D02*
Y20827D01*
X18023Y20650D02*
X18377D01*
X18200Y20473D02*
Y20827D01*
X19023Y19650D02*
X19377D01*
X19200Y19473D02*
Y19827D01*
X18023Y19650D02*
X18377D01*
X18200Y19473D02*
Y19827D01*
X19023Y18650D02*
X19377D01*
X19200Y18473D02*
Y18827D01*
X18023Y18650D02*
X18377D01*
X18200Y18473D02*
Y18827D01*
X19023Y17650D02*
X19377D01*
X19200Y17473D02*
Y17827D01*
X18023Y17650D02*
X18377D01*
X18200Y17473D02*
Y17827D01*
X19023Y24650D02*
X19377D01*
X19200Y24473D02*
Y24827D01*
X18023Y24650D02*
X18377D01*
X18200Y24473D02*
Y24827D01*
X19023Y23650D02*
X19377D01*
X19200Y23473D02*
Y23827D01*
X18023Y23650D02*
X18377D01*
X18200Y23473D02*
Y23827D01*
X19023Y22650D02*
X19377D01*
X19200Y22473D02*
Y22827D01*
X18023Y22650D02*
X18377D01*
X18200Y22473D02*
Y22827D01*
X19023Y21650D02*
X19377D01*
X19200Y21473D02*
Y21827D01*
X18023Y21650D02*
X18377D01*
X18200Y21473D02*
Y21827D01*
X10023Y24650D02*
X10377D01*
X10200Y24473D02*
Y24827D01*
X11023Y24650D02*
X11377D01*
X11200Y24473D02*
Y24827D01*
X10023Y23650D02*
X10377D01*
X10200Y23473D02*
Y23827D01*
X11023Y23650D02*
X11377D01*
X11200Y23473D02*
Y23827D01*
X10023Y22650D02*
X10377D01*
X10200Y22473D02*
Y22827D01*
X11023Y22650D02*
X11377D01*
X11200Y22473D02*
Y22827D01*
X10023Y21650D02*
X10377D01*
X10200Y21473D02*
Y21827D01*
X11023Y21650D02*
X11377D01*
X11200Y21473D02*
Y21827D01*
X10023Y20650D02*
X10377D01*
X10200Y20473D02*
Y20827D01*
X11023Y20650D02*
X11377D01*
X11200Y20473D02*
Y20827D01*
X10023Y19650D02*
X10377D01*
X10200Y19473D02*
Y19827D01*
X11023Y19650D02*
X11377D01*
X11200Y19473D02*
Y19827D01*
X10023Y18650D02*
X10377D01*
X10200Y18473D02*
Y18827D01*
X11023Y18650D02*
X11377D01*
X11200Y18473D02*
Y18827D01*
X10023Y17650D02*
X10377D01*
X10200Y17473D02*
Y17827D01*
X11023Y17650D02*
X11377D01*
X11200Y17473D02*
Y17827D01*
X10023Y16650D02*
X10377D01*
X10200Y16473D02*
Y16827D01*
X11023Y16650D02*
X11377D01*
X11200Y16473D02*
Y16827D01*
X10023Y15650D02*
X10377D01*
X10200Y15473D02*
Y15827D01*
X11023Y15650D02*
X11377D01*
X11200Y15473D02*
Y15827D01*
X10023Y14650D02*
X10377D01*
X10200Y14473D02*
Y14827D01*
X11023Y14650D02*
X11377D01*
X11200Y14473D02*
Y14827D01*
X10023Y13650D02*
X10377D01*
X10200Y13473D02*
Y13827D01*
X11023Y13650D02*
X11377D01*
X11200Y13473D02*
Y13827D01*
X10023Y12650D02*
X10377D01*
X10200Y12473D02*
Y12827D01*
X11023Y12650D02*
X11377D01*
X11200Y12473D02*
Y12827D01*
X10023Y11650D02*
X10377D01*
X10200Y11473D02*
Y11827D01*
X11023Y11650D02*
X11377D01*
X11200Y11473D02*
Y11827D01*
X10023Y10650D02*
X10377D01*
X10200Y10473D02*
Y10827D01*
X11023Y10650D02*
X11377D01*
X11200Y10473D02*
Y10827D01*
X10023Y9650D02*
X10377D01*
X10200Y9473D02*
Y9827D01*
X11023Y9650D02*
X11377D01*
X11200Y9473D02*
Y9827D01*
X18023Y13650D02*
X18377D01*
X18200Y13473D02*
Y13827D01*
X19023Y13650D02*
X19377D01*
X19200Y13473D02*
Y13827D01*
X18023Y14650D02*
X18377D01*
X18200Y14473D02*
Y14827D01*
X19023Y14650D02*
X19377D01*
X19200Y14473D02*
Y14827D01*
X18023Y15650D02*
X18377D01*
X18200Y15473D02*
Y15827D01*
X19023Y15650D02*
X19377D01*
X19200Y15473D02*
Y15827D01*
X18023Y16650D02*
X18377D01*
X18200Y16473D02*
Y16827D01*
X19023Y16650D02*
X19377D01*
X19200Y16473D02*
Y16827D01*
X18023Y9650D02*
X18377D01*
X18200Y9473D02*
Y9827D01*
X19023Y9650D02*
X19377D01*
X19200Y9473D02*
Y9827D01*
X18023Y10650D02*
X18377D01*
X18200Y10473D02*
Y10827D01*
X19023Y10650D02*
X19377D01*
X19200Y10473D02*
Y10827D01*
X18023Y11650D02*
X18377D01*
X18200Y11473D02*
Y11827D01*
X19023Y11650D02*
X19377D01*
X19200Y11473D02*
Y11827D01*
X18023Y12650D02*
X18377D01*
X18200Y12473D02*
Y12827D01*
X19023Y12650D02*
X19377D01*
X19200Y12473D02*
Y12827D01*
X3373Y25150D02*
X3727D01*
X3550Y24973D02*
Y25327D01*
X2373Y25150D02*
X2727D01*
X2550Y24973D02*
Y25327D01*
X1373Y25150D02*
X1727D01*
X1550Y24973D02*
Y25327D01*
X1373Y23350D02*
X1727D01*
X1550Y23173D02*
Y23527D01*
X1373Y22350D02*
X1727D01*
X1550Y22173D02*
Y22527D01*
X1373Y21350D02*
X1727D01*
X1550Y21173D02*
Y21527D01*
X1373Y20350D02*
X1727D01*
X1550Y20173D02*
Y20527D01*
X3823Y23300D02*
X4177D01*
X4000Y23123D02*
Y23477D01*
X3823Y22300D02*
X4177D01*
X4000Y22123D02*
Y22477D01*
X3823Y21300D02*
X4177D01*
X4000Y21123D02*
Y21477D01*
X3823Y20300D02*
X4177D01*
X4000Y20123D02*
Y20477D01*
X8840Y25250D02*
X8960D01*
X8900Y25190D02*
Y25310D01*
X15940Y24850D02*
X16060D01*
X16000Y24790D02*
Y24910D01*
X17440Y14200D02*
X17560D01*
X17500Y14140D02*
Y14260D01*
X9040Y5950D02*
X9160D01*
X9100Y5890D02*
Y6010D01*
X15390Y12750D02*
X15510D01*
X15450Y12690D02*
Y12810D01*
X6980Y12330D02*
X7100D01*
X7040Y12270D02*
Y12390D01*
X27240Y8850D02*
X27360D01*
X27300Y8790D02*
Y8910D01*
X8990Y8450D02*
X9110D01*
X9050Y8390D02*
Y8510D01*
X26990Y8500D02*
X27110D01*
X27050Y8440D02*
Y8560D01*
X25840Y8300D02*
X25960D01*
X25900Y8240D02*
Y8360D01*
X25140Y6750D02*
X25260D01*
X25200Y6690D02*
Y6810D01*
X25140Y7050D02*
X25260D01*
X25200Y6990D02*
Y7110D01*
X12290Y12870D02*
X12410D01*
X12350Y12810D02*
Y12930D01*
X12910Y11250D02*
X13030D01*
X12970Y11190D02*
Y11310D01*
X16187Y17035D02*
X16307D01*
X16247Y16975D02*
Y17095D01*
X17280Y23150D02*
X17400D01*
X17340Y23090D02*
Y23210D01*
X15090Y22700D02*
X15210D01*
X15150Y22640D02*
Y22760D01*
X17290Y20450D02*
X17410D01*
X17350Y20390D02*
Y20510D01*
X17690Y20350D02*
X17810D01*
X17750Y20290D02*
Y20410D01*
X16120Y10200D02*
X16240D01*
X16180Y10140D02*
Y10260D01*
X30340Y11800D02*
X30460D01*
X30400Y11740D02*
Y11860D01*
X30744Y10254D02*
X30864D01*
X30804Y10194D02*
Y10314D01*
X27340Y5550D02*
X27460D01*
X27400Y5490D02*
Y5610D01*
X26690Y4150D02*
X26810D01*
X26750Y4090D02*
Y4210D01*
X23240Y12850D02*
X23360D01*
X23300Y12790D02*
Y12910D01*
X22970Y10810D02*
X23090D01*
X23030Y10750D02*
Y10870D01*
X16890Y10250D02*
X17010D01*
X16950Y10190D02*
Y10310D01*
X8490Y10100D02*
X8610D01*
X8550Y10040D02*
Y10160D01*
X11140Y6450D02*
X11260D01*
X11200Y6390D02*
Y6510D01*
X10690Y6050D02*
X10810D01*
X10750Y5990D02*
Y6110D01*
X14540Y8150D02*
X14660D01*
X14600Y8090D02*
Y8210D01*
X14290Y7050D02*
X14410D01*
X14350Y6990D02*
Y7110D01*
X12590Y2800D02*
X12710D01*
X12650Y2740D02*
Y2860D01*
X6790Y17600D02*
X6910D01*
X6850Y17540D02*
Y17660D01*
X5490Y21200D02*
X5610D01*
X5550Y21140D02*
Y21260D01*
X3860Y17850D02*
X3980D01*
X3920Y17790D02*
Y17910D01*
X4355Y8085D02*
X4475D01*
X4415Y8025D02*
Y8145D01*
X13740Y2850D02*
X13860D01*
X13800Y2790D02*
Y2910D01*
X14553Y867D02*
X14673D01*
X14613Y807D02*
Y927D01*
X13330Y22810D02*
X13450D01*
X13390Y22750D02*
Y22870D01*
X28840Y17850D02*
X28960D01*
X28900Y17790D02*
Y17910D01*
X29390Y18350D02*
X29510D01*
X29450Y18290D02*
Y18410D01*
X19140Y10150D02*
X19260D01*
X19200Y10090D02*
Y10210D01*
X4310Y14634D02*
X4430D01*
X4370Y14574D02*
Y14694D01*
X13760Y18310D02*
X13880D01*
X13820Y18250D02*
Y18370D01*
X8070Y20730D02*
X8190D01*
X8130Y20670D02*
Y20790D01*
X15640Y18580D02*
X15760D01*
X15700Y18520D02*
Y18640D01*
X15900Y7330D02*
X16020D01*
X15960Y7270D02*
Y7390D01*
X24360Y6450D02*
X24480D01*
X24420Y6390D02*
Y6510D01*
X12430Y17850D02*
X12550D01*
X12490Y17790D02*
Y17910D01*
X24510Y23870D02*
X24630D01*
X24570Y23810D02*
Y23930D01*
X10640Y14710D02*
X10760D01*
X10700Y14650D02*
Y14770D01*
X25860Y4710D02*
X25980D01*
X25920Y4650D02*
Y4770D01*
X9220Y23990D02*
X9340D01*
X9280Y23930D02*
Y24050D01*
X10740Y25050D02*
X10860D01*
X10800Y24990D02*
Y25110D01*
X19590Y9030D02*
X19710D01*
X19650Y8970D02*
Y9090D01*
X14660Y15670D02*
X14780D01*
X14720Y15610D02*
Y15730D01*
X24410Y18300D02*
X24530D01*
X24470Y18240D02*
Y18360D01*
X17300Y1410D02*
X17420D01*
X17360Y1350D02*
Y1470D01*
X24755Y24165D02*
X24875D01*
X24815Y24105D02*
Y24225D01*
X12893Y12934D02*
X13013D01*
X12953Y12874D02*
Y12994D01*
X27630Y10830D02*
X27750D01*
X27690Y10770D02*
Y10890D01*
X27716Y15640D02*
X27836D01*
X27776Y15580D02*
Y15700D01*
X16187Y21447D02*
X16307D01*
X16247Y21387D02*
Y21507D01*
X12730Y16460D02*
X12850D01*
X12790Y16400D02*
Y16520D01*
X6260Y20690D02*
X6380D01*
X6320Y20630D02*
Y20750D01*
X20820Y21550D02*
X20940D01*
X20880Y21490D02*
Y21610D01*
X1360Y5630D02*
X1480D01*
X1420Y5570D02*
Y5690D01*
X6250Y19170D02*
X6370D01*
X6310Y19110D02*
Y19230D01*
X4910Y9000D02*
X5030D01*
X4970Y8940D02*
Y9060D01*
X14660Y4980D02*
X14780D01*
X14720Y4920D02*
Y5040D01*
X9140Y12850D02*
X9260D01*
X9200Y12790D02*
Y12910D01*
X24900Y10350D02*
X25020D01*
X24960Y10290D02*
Y10410D01*
X15230Y23760D02*
X15350D01*
X15290Y23700D02*
Y23820D01*
X14660Y25460D02*
X14780D01*
X14720Y25400D02*
Y25520D01*
X29220Y9750D02*
X29340D01*
X29280Y9690D02*
Y9810D01*
X26824Y12150D02*
X26944D01*
X26884Y12090D02*
Y12210D01*
X11240Y26000D02*
X11360D01*
X11300Y25940D02*
Y26060D01*
X9740Y25350D02*
X9860D01*
X9800Y25290D02*
Y25410D01*
X16710Y1225D02*
X16830D01*
X16770Y1165D02*
Y1285D01*
X23184Y16294D02*
X23304D01*
X23244Y16234D02*
Y16354D01*
X22040Y11800D02*
X22160D01*
X22100Y11740D02*
Y11860D01*
X25740Y10000D02*
X25860D01*
X25800Y9940D02*
Y10060D01*
X27390Y4350D02*
X27510D01*
X27450Y4290D02*
Y4410D01*
X18640Y950D02*
X18760D01*
X18700Y890D02*
Y1010D01*
X12287Y25047D02*
X12407D01*
X12347Y24987D02*
Y25107D01*
X12090Y23500D02*
X12210D01*
X12150Y23440D02*
Y23560D01*
X8890Y22950D02*
X9010D01*
X8950Y22890D02*
Y23010D01*
X8890Y21050D02*
X9010D01*
X8950Y20990D02*
Y21110D01*
X2252Y2589D02*
X2372D01*
X2312Y2529D02*
Y2649D01*
X2290Y1150D02*
X2410D01*
X2350Y1090D02*
Y1210D01*
X4090Y7100D02*
X4210D01*
X4150Y7040D02*
Y7160D01*
X7790Y19550D02*
X7910D01*
X7850Y19490D02*
Y19610D01*
X4590Y17500D02*
X4710D01*
X4650Y17440D02*
Y17560D01*
X18140Y2750D02*
X18260D01*
X18200Y2690D02*
Y2810D01*
X16590Y2750D02*
X16710D01*
X16650Y2690D02*
Y2810D01*
X15340Y2800D02*
X15460D01*
X15400Y2740D02*
Y2860D01*
X11040Y2850D02*
X11160D01*
X11100Y2790D02*
Y2910D01*
X15340Y4900D02*
X15460D01*
X15400Y4840D02*
Y4960D01*
X13740Y4900D02*
X13860D01*
X13800Y4840D02*
Y4960D01*
X31140Y6050D02*
X31260D01*
X31200Y5990D02*
Y6110D01*
X15390Y13550D02*
X15510D01*
X15450Y13490D02*
Y13610D01*
X14740Y16650D02*
X14860D01*
X14800Y16590D02*
Y16710D01*
X12890Y16750D02*
X13010D01*
X12950Y16690D02*
Y16810D01*
X13340Y24550D02*
X13460D01*
X13400Y24490D02*
Y24610D01*
X15790Y22050D02*
X15910D01*
X15850Y21990D02*
Y22110D01*
X7740Y15500D02*
X7860D01*
X7800Y15440D02*
Y15560D01*
X7040Y15500D02*
X7160D01*
X7100Y15440D02*
Y15560D01*
X6340Y15500D02*
X6460D01*
X6400Y15440D02*
Y15560D01*
X5640Y15550D02*
X5760D01*
X5700Y15490D02*
Y15610D01*
X8140Y15050D02*
X8260D01*
X8200Y14990D02*
Y15110D01*
X7340Y15050D02*
X7460D01*
X7400Y14990D02*
Y15110D01*
X6740Y15050D02*
X6860D01*
X6800Y14990D02*
Y15110D01*
X5990Y15050D02*
X6110D01*
X6050Y14990D02*
Y15110D01*
X5340Y15050D02*
X5460D01*
X5400Y14990D02*
Y15110D01*
X2240Y8600D02*
X2360D01*
X2300Y8540D02*
Y8660D01*
X6690Y9100D02*
X6810D01*
X6750Y9040D02*
Y9160D01*
X1390Y7650D02*
X1510D01*
X1450Y7590D02*
Y7710D01*
X31090Y7000D02*
X31210D01*
X31150Y6940D02*
Y7060D01*
X25490Y5625D02*
X25610D01*
X25550Y5565D02*
Y5685D01*
X24390Y9550D02*
X24510D01*
X24450Y9490D02*
Y9610D01*
X23240Y13950D02*
X23360D01*
X23300Y13890D02*
Y14010D01*
X28467Y15623D02*
X28587D01*
X28527Y15563D02*
Y15683D01*
X30340Y16900D02*
X30460D01*
X30400Y16840D02*
Y16960D01*
X14340Y14750D02*
X14460D01*
X14400Y14690D02*
Y14810D01*
X13840Y14750D02*
X13960D01*
X13900Y14690D02*
Y14810D01*
X14840Y9050D02*
X14960D01*
X14900Y8990D02*
Y9110D01*
X11940Y7350D02*
X12060D01*
X12000Y7290D02*
Y7410D01*
X20390Y14600D02*
X20510D01*
X20450Y14540D02*
Y14660D01*
X20590Y15300D02*
X20710D01*
X20650Y15240D02*
Y15360D01*
X20240Y15100D02*
X20360D01*
X20300Y15040D02*
Y15160D01*
X27490Y17350D02*
X27610D01*
X27550Y17290D02*
Y17410D01*
M02*
