G04*
G04 #@! TF.GenerationSoftware,Altium Limited,Altium Designer,20.0.13 (296)*
G04*
G04 Layer_Physical_Order=4*
G04 Layer_Color=16711680*
%FSLAX24Y24*%
%MOIN*%
G70*
G01*
G75*
%ADD17C,0.0080*%
%ADD22R,0.0366X0.0386*%
%ADD46C,0.0300*%
%ADD47C,0.0250*%
%ADD48C,0.0800*%
%ADD49R,0.0591X0.0591*%
%ADD50C,0.0591*%
%ADD51R,0.0591X0.0591*%
%ADD52C,0.0230*%
%ADD53C,0.2000*%
G04:AMPARAMS|DCode=54|XSize=236.2mil|YSize=157.5mil|CornerRadius=39.4mil|HoleSize=0mil|Usage=FLASHONLY|Rotation=270.000|XOffset=0mil|YOffset=0mil|HoleType=Round|Shape=RoundedRectangle|*
%AMROUNDEDRECTD54*
21,1,0.2362,0.0787,0,0,270.0*
21,1,0.1575,0.1575,0,0,270.0*
1,1,0.0787,-0.0394,-0.0787*
1,1,0.0787,-0.0394,0.0787*
1,1,0.0787,0.0394,0.0787*
1,1,0.0787,0.0394,-0.0787*
%
%ADD54ROUNDEDRECTD54*%
%ADD55O,0.0787X0.1181*%
%ADD56R,0.0866X0.1378*%
%ADD57C,0.0709*%
%ADD58R,0.0709X0.0709*%
%ADD59C,0.0591*%
%ADD60R,0.0591X0.0591*%
%ADD61C,0.0240*%
%ADD72R,0.1181X0.0984*%
%ADD73R,0.2638X0.2165*%
%ADD74R,0.0866X0.0374*%
%ADD75R,0.0709X0.0256*%
%ADD76R,0.0984X0.1339*%
G04:AMPARAMS|DCode=77|XSize=425.2mil|YSize=433.1mil|CornerRadius=21.3mil|HoleSize=0mil|Usage=FLASHONLY|Rotation=0.000|XOffset=0mil|YOffset=0mil|HoleType=Round|Shape=RoundedRectangle|*
%AMROUNDEDRECTD77*
21,1,0.4252,0.3906,0,0,0.0*
21,1,0.3827,0.4331,0,0,0.0*
1,1,0.0425,0.1913,-0.1953*
1,1,0.0425,-0.1913,-0.1953*
1,1,0.0425,-0.1913,0.1953*
1,1,0.0425,0.1913,0.1953*
%
%ADD77ROUNDEDRECTD77*%
%ADD78R,0.0421X0.1378*%
G04:AMPARAMS|DCode=79|XSize=42.1mil|YSize=137.8mil|CornerRadius=10.5mil|HoleSize=0mil|Usage=FLASHONLY|Rotation=0.000|XOffset=0mil|YOffset=0mil|HoleType=Round|Shape=RoundedRectangle|*
%AMROUNDEDRECTD79*
21,1,0.0421,0.1167,0,0,0.0*
21,1,0.0211,0.1378,0,0,0.0*
1,1,0.0211,0.0105,-0.0584*
1,1,0.0211,-0.0105,-0.0584*
1,1,0.0211,-0.0105,0.0584*
1,1,0.0211,0.0105,0.0584*
%
%ADD79ROUNDEDRECTD79*%
%ADD80R,0.0386X0.0366*%
%ADD81R,0.0256X0.0413*%
%ADD82R,0.0394X0.0335*%
G36*
X31650Y0D02*
X-50D01*
Y26650D01*
X31650D01*
Y0D01*
D02*
G37*
%LPC*%
G36*
X2550Y25508D02*
X2457Y25496D01*
X2371Y25460D01*
X2297Y25403D01*
X2240Y25329D01*
X2204Y25243D01*
X2192Y25150D01*
X2204Y25057D01*
X2240Y24971D01*
X2297Y24897D01*
X2371Y24840D01*
X2457Y24804D01*
X2550Y24792D01*
X2643Y24804D01*
X2729Y24840D01*
X2803Y24897D01*
X2860Y24971D01*
X2896Y25057D01*
X2908Y25150D01*
X2896Y25243D01*
X2860Y25329D01*
X2803Y25403D01*
X2729Y25460D01*
X2643Y25496D01*
X2550Y25508D01*
D02*
G37*
G36*
X11300Y26184D02*
X11230Y26170D01*
X11170Y26130D01*
X11130Y26070D01*
X11116Y26000D01*
X11130Y25930D01*
X11149Y25902D01*
X11122Y25852D01*
X9400D01*
X9361Y25844D01*
X9328Y25822D01*
X8933Y25427D01*
X8900Y25434D01*
X8830Y25420D01*
X8770Y25380D01*
X8730Y25320D01*
X8716Y25250D01*
X8730Y25180D01*
X8770Y25120D01*
X8830Y25080D01*
X8900Y25066D01*
X8970Y25080D01*
X9030Y25120D01*
X9070Y25180D01*
X9084Y25250D01*
X9077Y25283D01*
X9442Y25648D01*
X13550D01*
X13589Y25656D01*
X13622Y25678D01*
X13792Y25848D01*
X15361D01*
X15584Y25625D01*
Y25164D01*
X15592Y25125D01*
X15614Y25092D01*
X15823Y24883D01*
X15816Y24850D01*
X15830Y24780D01*
X15870Y24720D01*
X15930Y24680D01*
X16000Y24666D01*
X16070Y24680D01*
X16130Y24720D01*
X16170Y24780D01*
X16184Y24850D01*
X16170Y24920D01*
X16130Y24980D01*
X16070Y25020D01*
X16000Y25034D01*
X15967Y25027D01*
X15788Y25206D01*
Y25667D01*
X15780Y25706D01*
X15758Y25739D01*
X15475Y26022D01*
X15442Y26044D01*
X15403Y26052D01*
X13750D01*
X13711Y26044D01*
X13678Y26022D01*
X13508Y25852D01*
X11478D01*
X11451Y25902D01*
X11470Y25930D01*
X11484Y26000D01*
X11470Y26070D01*
X11430Y26130D01*
X11370Y26170D01*
X11300Y26184D01*
D02*
G37*
G36*
X23050Y25008D02*
X22957Y24996D01*
X22871Y24960D01*
X22797Y24903D01*
X22740Y24829D01*
X22704Y24743D01*
X22692Y24650D01*
X22704Y24557D01*
X22740Y24471D01*
X22797Y24397D01*
X22871Y24340D01*
X22957Y24304D01*
X23050Y24292D01*
X23143Y24304D01*
X23229Y24340D01*
X23303Y24397D01*
X23360Y24471D01*
X23396Y24557D01*
X23408Y24650D01*
X23396Y24743D01*
X23360Y24829D01*
X23303Y24903D01*
X23229Y24960D01*
X23143Y24996D01*
X23050Y25008D01*
D02*
G37*
G36*
X22050D02*
X21957Y24996D01*
X21871Y24960D01*
X21797Y24903D01*
X21740Y24829D01*
X21704Y24743D01*
X21692Y24650D01*
X21704Y24557D01*
X21740Y24471D01*
X21797Y24397D01*
X21871Y24340D01*
X21957Y24304D01*
X22050Y24292D01*
X22143Y24304D01*
X22229Y24340D01*
X22303Y24397D01*
X22360Y24471D01*
X22396Y24557D01*
X22408Y24650D01*
X22396Y24743D01*
X22360Y24829D01*
X22303Y24903D01*
X22229Y24960D01*
X22143Y24996D01*
X22050Y25008D01*
D02*
G37*
G36*
X21050D02*
X20957Y24996D01*
X20871Y24960D01*
X20797Y24903D01*
X20740Y24829D01*
X20704Y24743D01*
X20692Y24650D01*
X20704Y24557D01*
X20740Y24471D01*
X20797Y24397D01*
X20871Y24340D01*
X20957Y24304D01*
X21050Y24292D01*
X21143Y24304D01*
X21229Y24340D01*
X21303Y24397D01*
X21360Y24471D01*
X21396Y24557D01*
X21408Y24650D01*
X21396Y24743D01*
X21360Y24829D01*
X21303Y24903D01*
X21229Y24960D01*
X21143Y24996D01*
X21050Y25008D01*
D02*
G37*
G36*
X30050Y26263D02*
X29884Y26250D01*
X29721Y26211D01*
X29567Y26147D01*
X29425Y26060D01*
X29298Y25952D01*
X29190Y25825D01*
X29103Y25683D01*
X29039Y25529D01*
X29000Y25366D01*
X28987Y25200D01*
X29000Y25034D01*
X29039Y24871D01*
X29103Y24717D01*
X29190Y24575D01*
X29298Y24448D01*
X29425Y24340D01*
X29567Y24253D01*
X29721Y24189D01*
X29884Y24150D01*
X30050Y24137D01*
X30216Y24150D01*
X30379Y24189D01*
X30533Y24253D01*
X30675Y24340D01*
X30802Y24448D01*
X30910Y24575D01*
X30997Y24717D01*
X31061Y24871D01*
X31100Y25034D01*
X31113Y25200D01*
X31100Y25366D01*
X31061Y25529D01*
X30997Y25683D01*
X30910Y25825D01*
X30802Y25952D01*
X30675Y26060D01*
X30533Y26147D01*
X30379Y26211D01*
X30216Y26250D01*
X30050Y26263D01*
D02*
G37*
G36*
X6450D02*
X6284Y26250D01*
X6121Y26211D01*
X5967Y26147D01*
X5825Y26060D01*
X5698Y25952D01*
X5590Y25825D01*
X5503Y25683D01*
X5439Y25529D01*
X5400Y25366D01*
X5387Y25200D01*
X5400Y25034D01*
X5439Y24871D01*
X5503Y24717D01*
X5590Y24575D01*
X5698Y24448D01*
X5825Y24340D01*
X5967Y24253D01*
X6121Y24189D01*
X6284Y24150D01*
X6383Y24142D01*
X6381Y24092D01*
X2752D01*
X1864Y24980D01*
X1896Y25057D01*
X1908Y25150D01*
X1896Y25243D01*
X1860Y25329D01*
X1803Y25403D01*
X1729Y25460D01*
X1643Y25496D01*
X1550Y25508D01*
X1457Y25496D01*
X1371Y25460D01*
X1297Y25403D01*
X1240Y25329D01*
X1204Y25243D01*
X1192Y25150D01*
X1204Y25057D01*
X1240Y24971D01*
X1297Y24897D01*
X1371Y24840D01*
X1457Y24804D01*
X1550Y24792D01*
X1643Y24804D01*
X1720Y24836D01*
X2638Y23918D01*
X2671Y23896D01*
X2710Y23888D01*
X3387D01*
X3402Y23855D01*
X3404Y23838D01*
X2698Y23132D01*
X2676Y23099D01*
X2668Y23060D01*
Y20182D01*
X628Y18142D01*
X606Y18109D01*
X598Y18070D01*
Y13110D01*
X606Y13071D01*
X628Y13038D01*
X1208Y12458D01*
X1241Y12436D01*
X1280Y12428D01*
X1930D01*
X1969Y12436D01*
X2002Y12458D01*
X2339Y12795D01*
X2905D01*
Y13505D01*
X2905D01*
X2923Y13548D01*
X3018D01*
X4088Y12478D01*
X4121Y12456D01*
X4160Y12448D01*
X6845D01*
X6871Y12407D01*
X6870Y12398D01*
X6856Y12330D01*
X6870Y12260D01*
X6910Y12200D01*
X6970Y12160D01*
X7040Y12146D01*
X7110Y12160D01*
X7170Y12200D01*
X7188Y12228D01*
X8345D01*
X8355Y12212D01*
X8364Y12178D01*
X4448Y8262D01*
X4415Y8269D01*
X4345Y8255D01*
X4285Y8215D01*
X4245Y8155D01*
X4231Y8085D01*
X4245Y8015D01*
X4285Y7955D01*
X4345Y7915D01*
X4415Y7901D01*
X4485Y7915D01*
X4545Y7955D01*
X4585Y8015D01*
X4599Y8085D01*
X4592Y8118D01*
X8487Y12013D01*
X10017D01*
X10027Y11963D01*
X10021Y11960D01*
X9947Y11903D01*
X9890Y11829D01*
X9854Y11743D01*
X9842Y11650D01*
X9854Y11557D01*
X9886Y11480D01*
X8728Y10322D01*
X8706Y10289D01*
X8703Y10274D01*
X8655Y10251D01*
X8648Y10251D01*
X8620Y10270D01*
X8550Y10284D01*
X8480Y10270D01*
X8420Y10230D01*
X8380Y10170D01*
X8366Y10100D01*
X8380Y10030D01*
X8420Y9970D01*
X8480Y9930D01*
X8550Y9916D01*
X8620Y9930D01*
X8648Y9949D01*
X8698Y9922D01*
Y8852D01*
X6398Y6552D01*
X2240D01*
X2201Y6544D01*
X2168Y6522D01*
X1453Y5807D01*
X1420Y5814D01*
X1350Y5800D01*
X1290Y5760D01*
X1250Y5700D01*
X1236Y5630D01*
X1250Y5560D01*
X1290Y5500D01*
X1350Y5460D01*
X1420Y5446D01*
X1490Y5460D01*
X1550Y5500D01*
X1590Y5560D01*
X1604Y5630D01*
X1597Y5663D01*
X2282Y6348D01*
X6440D01*
X6479Y6356D01*
X6512Y6378D01*
X8872Y8738D01*
X8894Y8771D01*
X8898Y8790D01*
X8948Y8785D01*
Y8598D01*
X8920Y8580D01*
X8880Y8520D01*
X8866Y8450D01*
X8880Y8380D01*
X8920Y8320D01*
X8980Y8280D01*
X9050Y8266D01*
X9120Y8280D01*
X9180Y8320D01*
X9220Y8380D01*
X9234Y8450D01*
X9220Y8520D01*
X9180Y8580D01*
X9152Y8598D01*
Y10028D01*
X9797Y10673D01*
X9828Y10657D01*
X9842Y10647D01*
X9854Y10557D01*
X9890Y10471D01*
X9947Y10397D01*
X10021Y10340D01*
X10107Y10304D01*
X10200Y10292D01*
X10293Y10304D01*
X10379Y10340D01*
X10453Y10397D01*
X10510Y10471D01*
X10546Y10557D01*
X10558Y10650D01*
X10546Y10743D01*
X10514Y10820D01*
X10642Y10948D01*
X10931D01*
X10932Y10947D01*
X10943Y10898D01*
X10890Y10829D01*
X10854Y10743D01*
X10842Y10650D01*
X10854Y10557D01*
X10890Y10471D01*
X10947Y10397D01*
X10948Y10372D01*
X10728Y10152D01*
X10706Y10119D01*
X10698Y10080D01*
Y7060D01*
X10706Y7021D01*
X10728Y6988D01*
X11038Y6678D01*
X11071Y6656D01*
X11089Y6652D01*
X11099Y6599D01*
X11070Y6580D01*
X11030Y6520D01*
X11016Y6450D01*
X11019Y6438D01*
X10804Y6223D01*
X10750Y6234D01*
X10680Y6220D01*
X10620Y6180D01*
X10580Y6120D01*
X10567Y6055D01*
X10564Y6052D01*
X9248D01*
X9230Y6080D01*
X9170Y6120D01*
X9100Y6134D01*
X9030Y6120D01*
X8970Y6080D01*
X8930Y6020D01*
X8916Y5950D01*
X8930Y5880D01*
X8970Y5820D01*
X9030Y5780D01*
X9100Y5766D01*
X9170Y5780D01*
X9230Y5820D01*
X9248Y5848D01*
X10607D01*
X10646Y5856D01*
X10679Y5878D01*
X10681Y5880D01*
X10750Y5866D01*
X10820Y5880D01*
X10880Y5920D01*
X10920Y5980D01*
X10934Y6050D01*
X10931Y6062D01*
X11146Y6277D01*
X11200Y6266D01*
X11270Y6280D01*
X11330Y6320D01*
X11370Y6380D01*
X11384Y6450D01*
X11370Y6520D01*
X11330Y6580D01*
X11302Y6598D01*
X11318Y6648D01*
X16770D01*
X16809Y6656D01*
X16842Y6678D01*
X18672Y8508D01*
X18694Y8541D01*
X18702Y8580D01*
Y9343D01*
X18752Y9364D01*
X18938Y9178D01*
X18971Y9156D01*
X19010Y9148D01*
X19455D01*
X19481Y9107D01*
X19480Y9098D01*
X19466Y9030D01*
X19480Y8960D01*
X19520Y8900D01*
X19580Y8860D01*
X19650Y8846D01*
X19720Y8860D01*
X19780Y8900D01*
X19820Y8960D01*
X19834Y9030D01*
X19820Y9098D01*
X19819Y9107D01*
X19845Y9148D01*
X20150D01*
X20189Y9156D01*
X20222Y9178D01*
X20692Y9648D01*
X21746D01*
X21746Y9642D01*
X21788Y9541D01*
X21855Y9455D01*
X21884Y9432D01*
X21867Y9382D01*
X21420D01*
X21381Y9374D01*
X21348Y9352D01*
X16648Y4652D01*
X9855D01*
Y5305D01*
X9145D01*
Y4652D01*
X8451D01*
Y5087D01*
X8436Y5206D01*
X8390Y5316D01*
X8317Y5411D01*
X8223Y5484D01*
X8112Y5529D01*
X7994Y5545D01*
X7206D01*
X7088Y5529D01*
X6977Y5484D01*
X6883Y5411D01*
X6810Y5316D01*
X6764Y5206D01*
X6749Y5087D01*
Y3513D01*
X6764Y3394D01*
X6810Y3284D01*
X6883Y3189D01*
X6977Y3116D01*
X7088Y3071D01*
X7206Y3055D01*
X7994D01*
X8112Y3071D01*
X8223Y3116D01*
X8317Y3189D01*
X8390Y3284D01*
X8436Y3394D01*
X8451Y3513D01*
Y4448D01*
X16690D01*
X16729Y4456D01*
X16762Y4478D01*
X21462Y9178D01*
X21691D01*
X21736Y9164D01*
X21736Y9128D01*
Y8336D01*
X22564D01*
Y9128D01*
X22564Y9164D01*
X22609Y9178D01*
X23190D01*
X23229Y9186D01*
X23262Y9208D01*
X23892Y9838D01*
X24998D01*
X25848Y8988D01*
X26345Y8491D01*
Y8053D01*
X26204D01*
Y7552D01*
X26204Y7547D01*
X26192Y7502D01*
X24600D01*
X24561Y7494D01*
X24528Y7472D01*
X24348Y7292D01*
X24326Y7259D01*
X24318Y7220D01*
Y6598D01*
X24290Y6580D01*
X24250Y6520D01*
X24236Y6450D01*
X24250Y6380D01*
X24290Y6320D01*
X24350Y6280D01*
X24420Y6266D01*
X24490Y6280D01*
X24550Y6320D01*
X24590Y6380D01*
X24604Y6450D01*
X24590Y6520D01*
X24550Y6580D01*
X24522Y6598D01*
Y7178D01*
X24642Y7298D01*
X24890D01*
X24900Y7248D01*
X24895Y7246D01*
X24893Y7242D01*
X24889Y7240D01*
X24859Y7201D01*
X24858Y7196D01*
X24854Y7194D01*
X24851Y7173D01*
X24845Y7153D01*
X24847Y7149D01*
X24847Y7145D01*
X24987Y6584D01*
X24997Y6570D01*
X25004Y6554D01*
X25054Y6504D01*
X25100Y6485D01*
X27223D01*
X28635Y5073D01*
Y4903D01*
X28610D01*
Y4397D01*
X28610D01*
X28610Y4397D01*
X28595Y4345D01*
X28321Y4208D01*
X28314Y4200D01*
X28304Y4196D01*
X27204Y3096D01*
X27204Y3096D01*
X27154Y3046D01*
X27154Y3046D01*
X26454Y2346D01*
X26435Y2300D01*
Y1350D01*
X26454Y1304D01*
X26754Y1004D01*
X26800Y985D01*
X28000D01*
X28046Y1004D01*
X28546Y1504D01*
X28553Y1522D01*
X28564Y1538D01*
X28756Y2594D01*
X29812Y2786D01*
X29828Y2797D01*
X29846Y2804D01*
X31096Y4054D01*
X31115Y4100D01*
Y4800D01*
X31096Y4846D01*
X30896Y5046D01*
X30850Y5065D01*
X30803D01*
Y5090D01*
X30297D01*
Y5065D01*
X30077D01*
X27896Y7246D01*
X27891Y7248D01*
X27901Y7298D01*
X28338D01*
X29411Y6225D01*
X29444Y6203D01*
X29483Y6195D01*
X30297D01*
Y6054D01*
X30448D01*
Y5696D01*
X30297D01*
Y5210D01*
X30803D01*
Y5696D01*
X30652D01*
Y6054D01*
X30803D01*
Y6540D01*
X30297D01*
Y6399D01*
X29525D01*
X28452Y7472D01*
X28419Y7494D01*
X28380Y7502D01*
X27308D01*
X27296Y7547D01*
X27296Y7552D01*
Y8053D01*
X27155D01*
Y8354D01*
X27180Y8370D01*
X27220Y8430D01*
X27234Y8500D01*
X27220Y8570D01*
X27181Y8627D01*
X27180Y8631D01*
X27182Y8652D01*
X27226Y8679D01*
X27235Y8679D01*
X27300Y8666D01*
X27370Y8680D01*
X27430Y8720D01*
X27470Y8780D01*
X27484Y8850D01*
X27470Y8920D01*
X27430Y8980D01*
X27370Y9020D01*
X27300Y9034D01*
X27230Y9020D01*
X27180Y8987D01*
X27152Y8983D01*
X27116Y8988D01*
X26632Y9472D01*
X26599Y9494D01*
X26560Y9502D01*
X26496D01*
Y9627D01*
X26022D01*
Y9698D01*
X29757Y13433D01*
X29779Y13466D01*
X29787Y13505D01*
Y18790D01*
X29779Y18829D01*
X29757Y18862D01*
X29711Y18908D01*
X29695Y18919D01*
X29680Y18930D01*
X29679Y18930D01*
X29678Y18930D01*
X29659Y18934D01*
X29641Y18938D01*
X26492Y19012D01*
X26491Y19011D01*
X26490Y19012D01*
X26471Y19008D01*
X26453Y19005D01*
X26452Y19004D01*
X26451Y19004D01*
X26435Y18993D01*
X26419Y18983D01*
X26419Y18982D01*
X26418Y18982D01*
X25828Y18392D01*
X25806Y18359D01*
X25798Y18320D01*
Y17822D01*
X25480Y17504D01*
X25232D01*
Y17649D01*
X24246D01*
Y17155D01*
X25232D01*
Y17300D01*
X25522D01*
X25561Y17308D01*
X25594Y17330D01*
X25894Y17630D01*
X25947Y17612D01*
X25954Y17557D01*
X25990Y17471D01*
X26047Y17397D01*
X26121Y17340D01*
X26207Y17304D01*
X26300Y17292D01*
X26393Y17304D01*
X26479Y17340D01*
X26553Y17397D01*
X26610Y17471D01*
X26646Y17557D01*
X26658Y17650D01*
X26646Y17743D01*
X26610Y17829D01*
X26553Y17903D01*
X26479Y17960D01*
X26393Y17996D01*
X26300Y18008D01*
X26207Y17996D01*
X26121Y17960D01*
X26052Y17907D01*
X26003Y17918D01*
X26002Y17919D01*
Y18278D01*
X26531Y18807D01*
X29583Y18736D01*
Y18538D01*
X29533Y18511D01*
X29520Y18520D01*
X29450Y18534D01*
X29380Y18520D01*
X29320Y18480D01*
X29302Y18452D01*
X28150D01*
X28111Y18444D01*
X28078Y18422D01*
X26798Y17142D01*
X26776Y17109D01*
X26768Y17070D01*
Y16542D01*
X26597Y16371D01*
X26559Y16404D01*
X26610Y16471D01*
X26646Y16557D01*
X26658Y16650D01*
X26646Y16743D01*
X26610Y16829D01*
X26553Y16903D01*
X26479Y16960D01*
X26393Y16996D01*
X26300Y17008D01*
X26207Y16996D01*
X26121Y16960D01*
X26047Y16903D01*
X25990Y16829D01*
X25958Y16752D01*
X24903D01*
X24864Y16744D01*
X24831Y16722D01*
X23544Y15435D01*
X22801D01*
Y16080D01*
X23244D01*
X23326Y16097D01*
X23396Y16143D01*
X23401Y16149D01*
X23448Y16218D01*
X23464Y16300D01*
X23448Y16382D01*
X23401Y16451D01*
X23332Y16498D01*
X23250Y16514D01*
X23222Y16509D01*
X22492D01*
X22471Y16504D01*
X21499D01*
Y15400D01*
X22001D01*
X22020Y15354D01*
X20418Y13752D01*
X19542D01*
X19510Y13829D01*
X19453Y13903D01*
X19379Y13960D01*
X19293Y13996D01*
X19200Y14008D01*
X19107Y13996D01*
X19021Y13960D01*
X18947Y13903D01*
X18902Y13845D01*
X18852Y13862D01*
Y14438D01*
X18902Y14455D01*
X18947Y14397D01*
X19021Y14340D01*
X19107Y14304D01*
X19200Y14292D01*
X19293Y14304D01*
X19379Y14340D01*
X19453Y14397D01*
X19510Y14471D01*
X19546Y14557D01*
X19558Y14650D01*
X19546Y14743D01*
X19510Y14829D01*
X19453Y14903D01*
X19379Y14960D01*
X19293Y14996D01*
X19200Y15008D01*
X19112Y14997D01*
X19108Y15000D01*
X19097Y15052D01*
X19192Y15148D01*
X19520D01*
X19559Y15156D01*
X19592Y15178D01*
X19835Y15421D01*
X19885Y15400D01*
Y14300D01*
X19904Y14254D01*
X20054Y14104D01*
X20100Y14085D01*
X20650D01*
X20696Y14104D01*
X21146Y14554D01*
X21155Y14576D01*
X21165Y14597D01*
X21262Y16838D01*
X23403Y16935D01*
X23424Y16945D01*
X23446Y16954D01*
X23846Y17354D01*
X23865Y17400D01*
Y19100D01*
X23846Y19146D01*
X23546Y19446D01*
X23543Y19447D01*
X23542Y19450D01*
X23521Y19456D01*
X23500Y19465D01*
X23497Y19464D01*
X23495Y19465D01*
X23225Y19443D01*
X20897D01*
X20878Y19489D01*
X22237Y20848D01*
X25200D01*
X25239Y20856D01*
X25272Y20878D01*
X25622Y21228D01*
X25644Y21261D01*
X25652Y21300D01*
Y22218D01*
X25702Y22222D01*
X25704Y22207D01*
X25740Y22121D01*
X25797Y22047D01*
X25871Y21990D01*
X25957Y21954D01*
X26050Y21942D01*
X26143Y21954D01*
X26229Y21990D01*
X26303Y22047D01*
X26360Y22121D01*
X26396Y22207D01*
X26408Y22300D01*
X26396Y22393D01*
X26360Y22479D01*
X26303Y22553D01*
X26229Y22610D01*
X26143Y22646D01*
X26050Y22658D01*
X25957Y22646D01*
X25871Y22610D01*
X25797Y22553D01*
X25740Y22479D01*
X25704Y22393D01*
X25702Y22378D01*
X25652Y22382D01*
Y23037D01*
X26657Y24043D01*
X26679Y24076D01*
X26687Y24115D01*
Y24467D01*
X26737Y24477D01*
X26740Y24471D01*
X26797Y24397D01*
X26871Y24340D01*
X26957Y24304D01*
X27050Y24292D01*
X27143Y24304D01*
X27229Y24340D01*
X27303Y24397D01*
X27360Y24471D01*
X27396Y24557D01*
X27408Y24650D01*
X27396Y24743D01*
X27360Y24829D01*
X27303Y24903D01*
X27229Y24960D01*
X27143Y24996D01*
X27050Y25008D01*
X26957Y24996D01*
X26871Y24960D01*
X26797Y24903D01*
X26740Y24829D01*
X26737Y24823D01*
X26687Y24833D01*
Y25000D01*
X26679Y25039D01*
X26657Y25072D01*
X26472Y25257D01*
X26439Y25279D01*
X26400Y25287D01*
X24585D01*
X24546Y25279D01*
X24513Y25257D01*
X24220Y24964D01*
X24143Y24996D01*
X24050Y25008D01*
X23957Y24996D01*
X23871Y24960D01*
X23797Y24903D01*
X23740Y24829D01*
X23704Y24743D01*
X23692Y24650D01*
X23704Y24557D01*
X23740Y24471D01*
X23797Y24397D01*
X23871Y24340D01*
X23926Y24317D01*
X23916Y24267D01*
X23225D01*
X23186Y24259D01*
X23153Y24237D01*
X21478Y22562D01*
X21456Y22529D01*
X21455Y22526D01*
X21405Y22531D01*
Y22655D01*
X20695D01*
Y21945D01*
X21398D01*
X21405Y21945D01*
X21448Y21927D01*
Y21372D01*
X19577Y19501D01*
X19535Y19530D01*
X19546Y19557D01*
X19558Y19650D01*
X19546Y19743D01*
X19510Y19829D01*
X19453Y19903D01*
X19379Y19960D01*
X19293Y19996D01*
X19278Y19998D01*
X19282Y20048D01*
X19480D01*
X19519Y20056D01*
X19552Y20078D01*
X20847Y21373D01*
X20880Y21366D01*
X20950Y21380D01*
X21010Y21420D01*
X21050Y21480D01*
X21064Y21550D01*
X21050Y21620D01*
X21010Y21680D01*
X20950Y21720D01*
X20880Y21734D01*
X20810Y21720D01*
X20750Y21680D01*
X20710Y21620D01*
X20696Y21550D01*
X20703Y21517D01*
X19438Y20252D01*
X19282D01*
X19278Y20302D01*
X19293Y20304D01*
X19379Y20340D01*
X19453Y20397D01*
X19510Y20471D01*
X19546Y20557D01*
X19558Y20650D01*
X19546Y20743D01*
X19510Y20829D01*
X19453Y20903D01*
X19379Y20960D01*
X19293Y20996D01*
X19200Y21008D01*
X19107Y20996D01*
X19030Y20964D01*
X18832Y21162D01*
X18799Y21184D01*
X18760Y21192D01*
X17640D01*
X17601Y21184D01*
X17568Y21162D01*
X17358Y20952D01*
X17096D01*
Y21103D01*
X16955D01*
Y21797D01*
X17096D01*
Y22303D01*
X16610D01*
Y21797D01*
X16751D01*
Y21103D01*
X16610D01*
Y20602D01*
X16610Y20597D01*
X16598Y20552D01*
X16502D01*
X16490Y20597D01*
X16490Y20602D01*
Y21103D01*
X16349D01*
Y21298D01*
X16377Y21317D01*
X16416Y21377D01*
X16430Y21447D01*
X16416Y21517D01*
X16377Y21577D01*
X16317Y21616D01*
X16247Y21630D01*
X16177Y21616D01*
X16117Y21577D01*
X16077Y21517D01*
X16063Y21447D01*
X16077Y21377D01*
X16117Y21317D01*
X16145Y21298D01*
Y21103D01*
X16004D01*
Y20602D01*
X16004Y20597D01*
X15992Y20552D01*
X14850D01*
X14811Y20544D01*
X14778Y20522D01*
X14394Y20138D01*
X14372Y20105D01*
X14364Y20066D01*
Y20053D01*
X14104D01*
Y19547D01*
X14590D01*
Y20046D01*
X14892Y20348D01*
X17202D01*
X17220Y20320D01*
X17280Y20280D01*
X17350Y20266D01*
X17420Y20280D01*
X17480Y20320D01*
X17520Y20380D01*
X17534Y20450D01*
X17520Y20520D01*
X17480Y20580D01*
X17420Y20620D01*
X17350Y20634D01*
X17280Y20620D01*
X17220Y20580D01*
X17202Y20552D01*
X17108D01*
X17096Y20597D01*
X17096Y20602D01*
Y20748D01*
X17400D01*
X17439Y20756D01*
X17472Y20778D01*
X17682Y20988D01*
X17975D01*
X17992Y20938D01*
X17947Y20903D01*
X17890Y20829D01*
X17854Y20743D01*
X17842Y20650D01*
X17854Y20557D01*
X17854Y20557D01*
X17833Y20534D01*
X17815Y20521D01*
X17750Y20534D01*
X17680Y20520D01*
X17620Y20480D01*
X17580Y20420D01*
X17566Y20350D01*
X17580Y20280D01*
X17619Y20222D01*
X17475Y20079D01*
X16270D01*
X16231Y20071D01*
X16198Y20049D01*
X16151Y20002D01*
X16129Y19969D01*
X16121Y19930D01*
Y19853D01*
X16004D01*
Y19409D01*
X15585D01*
X15196Y19798D01*
Y20053D01*
X14710D01*
Y19547D01*
X15159D01*
X15471Y19235D01*
X15504Y19213D01*
X15543Y19205D01*
X17421D01*
X17449Y19155D01*
X17447Y19152D01*
X15590D01*
X15551Y19144D01*
X15518Y19122D01*
X14848Y18452D01*
X14542D01*
X13502Y19492D01*
Y19725D01*
X13552Y19730D01*
X13556Y19711D01*
X13578Y19678D01*
X14245Y19010D01*
X14242Y18981D01*
X14254Y18889D01*
X14290Y18802D01*
X14347Y18728D01*
X14421Y18671D01*
X14507Y18635D01*
X14600Y18623D01*
X14693Y18635D01*
X14779Y18671D01*
X14853Y18728D01*
X14910Y18802D01*
X14946Y18889D01*
X14958Y18981D01*
X14946Y19074D01*
X14910Y19161D01*
X14853Y19235D01*
X14779Y19292D01*
X14693Y19328D01*
X14600Y19340D01*
X14507Y19328D01*
X14421Y19292D01*
X14347Y19235D01*
X14312Y19233D01*
X13752Y19792D01*
Y21940D01*
X13744Y21979D01*
X13722Y22012D01*
X13292Y22442D01*
X13311Y22488D01*
X15040D01*
X15079Y22496D01*
X15112Y22518D01*
X15117Y22523D01*
X15150Y22516D01*
X15220Y22530D01*
X15280Y22570D01*
X15320Y22630D01*
X15334Y22700D01*
X15320Y22770D01*
X15280Y22830D01*
X15220Y22870D01*
X15150Y22884D01*
X15080Y22870D01*
X15020Y22830D01*
X14980Y22770D01*
X14966Y22700D01*
X14960Y22692D01*
X13585D01*
X13559Y22733D01*
X13560Y22742D01*
X13574Y22810D01*
X13560Y22880D01*
X13520Y22940D01*
X13460Y22980D01*
X13390Y22994D01*
X13320Y22980D01*
X13260Y22940D01*
X13220Y22880D01*
X13206Y22810D01*
X13217Y22758D01*
X13171Y22733D01*
X13102Y22802D01*
X13069Y22824D01*
X13030Y22832D01*
X12403D01*
Y23296D01*
X12364D01*
Y23500D01*
X12348Y23582D01*
X12301Y23651D01*
X12232Y23698D01*
X12150Y23714D01*
X12068Y23698D01*
X11999Y23651D01*
X11952Y23582D01*
X11936Y23500D01*
Y23296D01*
X11897D01*
Y22832D01*
X11880D01*
X11841Y22824D01*
X11808Y22802D01*
X11602Y22596D01*
X11554Y22619D01*
X11558Y22650D01*
X11546Y22743D01*
X11510Y22829D01*
X11453Y22903D01*
X11379Y22960D01*
X11293Y22996D01*
X11200Y23008D01*
X11107Y22996D01*
X11021Y22960D01*
X10947Y22903D01*
X10890Y22829D01*
X10854Y22743D01*
X10842Y22650D01*
X10854Y22557D01*
X10890Y22471D01*
X10947Y22397D01*
X11021Y22340D01*
X11107Y22304D01*
X11200Y22292D01*
X11231Y22296D01*
X11254Y22248D01*
X11158Y22152D01*
X11030D01*
X10991Y22144D01*
X10958Y22122D01*
X10592Y21757D01*
X10535Y21770D01*
X10510Y21829D01*
X10453Y21903D01*
X10379Y21960D01*
X10293Y21996D01*
X10200Y22008D01*
X10107Y21996D01*
X10021Y21960D01*
X9947Y21903D01*
X9890Y21829D01*
X9854Y21743D01*
X9842Y21650D01*
X9854Y21557D01*
X9886Y21480D01*
X9391Y20985D01*
X9369Y20952D01*
X9361Y20913D01*
Y20382D01*
X9021Y20042D01*
X5881D01*
X5862Y20088D01*
X6287Y20513D01*
X6320Y20506D01*
X6390Y20520D01*
X6449Y20560D01*
X6489Y20619D01*
X6503Y20690D01*
X6489Y20760D01*
X6449Y20819D01*
X6390Y20859D01*
X6320Y20873D01*
X6249Y20859D01*
X6190Y20819D01*
X6150Y20760D01*
X6136Y20690D01*
X6143Y20657D01*
X5668Y20182D01*
X5370D01*
X5331Y20174D01*
X5298Y20152D01*
X4648Y19502D01*
X4575D01*
X4570Y19552D01*
X4589Y19556D01*
X4622Y19578D01*
X6102Y21058D01*
X6696D01*
X6745Y21055D01*
X6745Y21008D01*
Y20345D01*
X7455D01*
X7455Y21055D01*
X7504Y21058D01*
X7910D01*
X7949Y21066D01*
X7982Y21088D01*
X8202Y21308D01*
X8247Y21282D01*
X8247Y21252D01*
Y20921D01*
X8208Y20900D01*
X8197Y20900D01*
X8130Y20914D01*
X8060Y20900D01*
X8000Y20860D01*
X7960Y20800D01*
X7946Y20730D01*
X7960Y20660D01*
X8000Y20600D01*
X8030Y20580D01*
X8036Y20551D01*
X8058Y20518D01*
X8201Y20375D01*
X8234Y20353D01*
X8247Y20350D01*
Y20204D01*
X8753D01*
Y20690D01*
X8345D01*
X8313Y20729D01*
X8314Y20730D01*
X8308Y20760D01*
X8349Y20810D01*
X8753D01*
Y20836D01*
X8950D01*
X9032Y20852D01*
X9101Y20899D01*
X9148Y20968D01*
X9164Y21050D01*
X9148Y21132D01*
X9101Y21201D01*
X9032Y21248D01*
X8950Y21264D01*
X8753D01*
Y21296D01*
X8295D01*
X8261Y21296D01*
X8236Y21341D01*
X9572Y22678D01*
X9594Y22711D01*
X9602Y22750D01*
Y23518D01*
X10132Y24048D01*
X11118D01*
X11122Y23998D01*
X11107Y23996D01*
X11021Y23960D01*
X10947Y23903D01*
X10890Y23829D01*
X10854Y23743D01*
X10842Y23650D01*
X10854Y23557D01*
X10890Y23471D01*
X10947Y23397D01*
X11021Y23340D01*
X11107Y23304D01*
X11200Y23292D01*
X11293Y23304D01*
X11379Y23340D01*
X11453Y23397D01*
X11510Y23471D01*
X11546Y23557D01*
X11558Y23650D01*
X11546Y23743D01*
X11510Y23829D01*
X11453Y23903D01*
X11379Y23960D01*
X11293Y23996D01*
X11278Y23998D01*
X11282Y24048D01*
X18118D01*
X18122Y23998D01*
X18107Y23996D01*
X18021Y23960D01*
X17947Y23903D01*
X17890Y23829D01*
X17854Y23743D01*
X17842Y23650D01*
X17854Y23557D01*
X17890Y23471D01*
X17947Y23397D01*
X18021Y23340D01*
X18107Y23304D01*
X18122Y23302D01*
X18118Y23252D01*
X17488D01*
X17470Y23280D01*
X17410Y23320D01*
X17340Y23334D01*
X17270Y23320D01*
X17210Y23280D01*
X17170Y23220D01*
X17156Y23150D01*
X17170Y23080D01*
X17210Y23020D01*
X17270Y22980D01*
X17340Y22966D01*
X17410Y22980D01*
X17470Y23020D01*
X17488Y23048D01*
X18118D01*
X18122Y22998D01*
X18107Y22996D01*
X18021Y22960D01*
X17947Y22903D01*
X17890Y22829D01*
X17854Y22743D01*
X17842Y22650D01*
X17854Y22557D01*
X17890Y22471D01*
X17947Y22397D01*
X18021Y22340D01*
X18107Y22304D01*
X18200Y22292D01*
X18293Y22304D01*
X18379Y22340D01*
X18453Y22397D01*
X18510Y22471D01*
X18546Y22557D01*
X18558Y22650D01*
X18546Y22743D01*
X18510Y22829D01*
X18453Y22903D01*
X18379Y22960D01*
X18293Y22996D01*
X18278Y22998D01*
X18282Y23048D01*
X18700D01*
X18739Y23056D01*
X18772Y23078D01*
X19030Y23336D01*
X19107Y23304D01*
X19200Y23292D01*
X19293Y23304D01*
X19379Y23340D01*
X19453Y23397D01*
X19510Y23471D01*
X19546Y23557D01*
X19558Y23650D01*
X19546Y23743D01*
X19510Y23829D01*
X19453Y23903D01*
X19379Y23960D01*
X19293Y23996D01*
X19278Y23998D01*
X19282Y24048D01*
X19698D01*
Y23292D01*
X19370Y22964D01*
X19293Y22996D01*
X19200Y23008D01*
X19107Y22996D01*
X19021Y22960D01*
X18947Y22903D01*
X18890Y22829D01*
X18854Y22743D01*
X18842Y22650D01*
X18854Y22557D01*
X18890Y22471D01*
X18947Y22397D01*
X19021Y22340D01*
X19107Y22304D01*
X19200Y22292D01*
X19293Y22304D01*
X19379Y22340D01*
X19453Y22397D01*
X19510Y22471D01*
X19546Y22557D01*
X19558Y22650D01*
X19546Y22743D01*
X19514Y22820D01*
X19872Y23178D01*
X19894Y23211D01*
X19902Y23250D01*
Y24103D01*
X19894Y24142D01*
X19872Y24175D01*
X19825Y24222D01*
X19792Y24244D01*
X19753Y24252D01*
X19282D01*
X19278Y24302D01*
X19293Y24304D01*
X19379Y24340D01*
X19453Y24397D01*
X19510Y24471D01*
X19546Y24557D01*
X19558Y24650D01*
X19546Y24743D01*
X19510Y24829D01*
X19453Y24903D01*
X19379Y24960D01*
X19293Y24996D01*
X19200Y25008D01*
X19107Y24996D01*
X19021Y24960D01*
X18947Y24903D01*
X18890Y24829D01*
X18854Y24743D01*
X18842Y24650D01*
X18854Y24557D01*
X18890Y24471D01*
X18947Y24397D01*
X19021Y24340D01*
X19107Y24304D01*
X19122Y24302D01*
X19118Y24252D01*
X18282D01*
X18278Y24302D01*
X18293Y24304D01*
X18379Y24340D01*
X18453Y24397D01*
X18510Y24471D01*
X18546Y24557D01*
X18558Y24650D01*
X18546Y24743D01*
X18510Y24829D01*
X18453Y24903D01*
X18379Y24960D01*
X18293Y24996D01*
X18200Y25008D01*
X18107Y24996D01*
X18021Y24960D01*
X17947Y24903D01*
X17890Y24829D01*
X17854Y24743D01*
X17842Y24650D01*
X17854Y24557D01*
X17890Y24471D01*
X17947Y24397D01*
X18021Y24340D01*
X18107Y24304D01*
X18122Y24302D01*
X18118Y24252D01*
X12590D01*
Y24753D01*
X12561D01*
Y25034D01*
X12564Y25050D01*
X12548Y25132D01*
X12501Y25201D01*
X12432Y25248D01*
X12350Y25264D01*
X12268Y25248D01*
X12199Y25201D01*
X12195Y25198D01*
X12149Y25129D01*
X12133Y25047D01*
Y24753D01*
X12104D01*
Y24252D01*
X11282D01*
X11278Y24302D01*
X11293Y24304D01*
X11379Y24340D01*
X11453Y24397D01*
X11510Y24471D01*
X11546Y24557D01*
X11558Y24650D01*
X11546Y24743D01*
X11510Y24829D01*
X11453Y24903D01*
X11379Y24960D01*
X11293Y24996D01*
X11200Y25008D01*
X11107Y24996D01*
X11021Y24960D01*
X11011Y24953D01*
X10981Y24972D01*
X10971Y24985D01*
X10984Y25050D01*
X10970Y25120D01*
X10930Y25180D01*
X10870Y25220D01*
X10800Y25234D01*
X10730Y25220D01*
X10670Y25180D01*
X10652Y25152D01*
X9918D01*
X9902Y25202D01*
X9930Y25220D01*
X9970Y25280D01*
X9984Y25350D01*
X9970Y25420D01*
X9930Y25480D01*
X9870Y25520D01*
X9800Y25534D01*
X9730Y25520D01*
X9670Y25480D01*
X9630Y25420D01*
X9616Y25350D01*
X9630Y25280D01*
X9670Y25220D01*
X9730Y25180D01*
X9788Y25169D01*
X9803Y25134D01*
X9804Y25119D01*
X9578Y24892D01*
X9556Y24859D01*
X9548Y24820D01*
Y24022D01*
X9509Y23984D01*
X9460Y24005D01*
X9450Y24060D01*
X9410Y24120D01*
X9350Y24160D01*
X9280Y24174D01*
X9210Y24160D01*
X9150Y24120D01*
X9132Y24092D01*
X6519D01*
X6517Y24142D01*
X6616Y24150D01*
X6779Y24189D01*
X6933Y24253D01*
X7075Y24340D01*
X7202Y24448D01*
X7310Y24575D01*
X7397Y24717D01*
X7461Y24871D01*
X7500Y25034D01*
X7513Y25200D01*
X7500Y25366D01*
X7461Y25529D01*
X7397Y25683D01*
X7310Y25825D01*
X7202Y25952D01*
X7075Y26060D01*
X6933Y26147D01*
X6779Y26211D01*
X6616Y26250D01*
X6450Y26263D01*
D02*
G37*
G36*
X1550Y23708D02*
X1457Y23696D01*
X1371Y23660D01*
X1297Y23603D01*
X1240Y23529D01*
X1204Y23443D01*
X1192Y23350D01*
X1204Y23257D01*
X1240Y23171D01*
X1297Y23097D01*
X1371Y23040D01*
X1457Y23004D01*
X1550Y22992D01*
X1643Y23004D01*
X1729Y23040D01*
X1803Y23097D01*
X1860Y23171D01*
X1896Y23257D01*
X1908Y23350D01*
X1896Y23443D01*
X1860Y23529D01*
X1803Y23603D01*
X1729Y23660D01*
X1643Y23696D01*
X1550Y23708D01*
D02*
G37*
G36*
X10200Y23008D02*
X10107Y22996D01*
X10021Y22960D01*
X9947Y22903D01*
X9890Y22829D01*
X9854Y22743D01*
X9842Y22650D01*
X9854Y22557D01*
X9890Y22471D01*
X9947Y22397D01*
X10021Y22340D01*
X10107Y22304D01*
X10200Y22292D01*
X10293Y22304D01*
X10379Y22340D01*
X10453Y22397D01*
X10510Y22471D01*
X10546Y22557D01*
X10558Y22650D01*
X10546Y22743D01*
X10510Y22829D01*
X10453Y22903D01*
X10379Y22960D01*
X10293Y22996D01*
X10200Y23008D01*
D02*
G37*
G36*
X1550Y22708D02*
X1457Y22696D01*
X1371Y22660D01*
X1297Y22603D01*
X1240Y22529D01*
X1204Y22443D01*
X1192Y22350D01*
X1204Y22257D01*
X1240Y22171D01*
X1297Y22097D01*
X1371Y22040D01*
X1457Y22004D01*
X1550Y21992D01*
X1643Y22004D01*
X1729Y22040D01*
X1803Y22097D01*
X1860Y22171D01*
X1896Y22257D01*
X1908Y22350D01*
X1896Y22443D01*
X1860Y22529D01*
X1803Y22603D01*
X1729Y22660D01*
X1643Y22696D01*
X1550Y22708D01*
D02*
G37*
G36*
X28050Y22658D02*
X27957Y22646D01*
X27871Y22610D01*
X27797Y22553D01*
X27740Y22479D01*
X27704Y22393D01*
X27692Y22300D01*
X27704Y22207D01*
X27740Y22121D01*
X27797Y22047D01*
X27871Y21990D01*
X27957Y21954D01*
X28050Y21942D01*
X28143Y21954D01*
X28229Y21990D01*
X28303Y22047D01*
X28360Y22121D01*
X28396Y22207D01*
X28408Y22300D01*
X28396Y22393D01*
X28360Y22479D01*
X28303Y22553D01*
X28229Y22610D01*
X28143Y22646D01*
X28050Y22658D01*
D02*
G37*
G36*
X27050D02*
X26957Y22646D01*
X26871Y22610D01*
X26797Y22553D01*
X26740Y22479D01*
X26704Y22393D01*
X26692Y22300D01*
X26704Y22207D01*
X26740Y22121D01*
X26797Y22047D01*
X26871Y21990D01*
X26957Y21954D01*
X27050Y21942D01*
X27143Y21954D01*
X27229Y21990D01*
X27303Y22047D01*
X27360Y22121D01*
X27396Y22207D01*
X27408Y22300D01*
X27396Y22393D01*
X27360Y22479D01*
X27303Y22553D01*
X27229Y22610D01*
X27143Y22646D01*
X27050Y22658D01*
D02*
G37*
G36*
X19200Y22008D02*
X19107Y21996D01*
X19021Y21960D01*
X18947Y21903D01*
X18890Y21829D01*
X18854Y21743D01*
X18842Y21650D01*
X18854Y21557D01*
X18890Y21471D01*
X18947Y21397D01*
X19021Y21340D01*
X19107Y21304D01*
X19200Y21292D01*
X19293Y21304D01*
X19379Y21340D01*
X19453Y21397D01*
X19510Y21471D01*
X19546Y21557D01*
X19558Y21650D01*
X19546Y21743D01*
X19510Y21829D01*
X19453Y21903D01*
X19379Y21960D01*
X19293Y21996D01*
X19200Y22008D01*
D02*
G37*
G36*
X18200D02*
X18107Y21996D01*
X18021Y21960D01*
X17947Y21903D01*
X17890Y21829D01*
X17854Y21743D01*
X17842Y21650D01*
X17854Y21557D01*
X17890Y21471D01*
X17947Y21397D01*
X18021Y21340D01*
X18107Y21304D01*
X18200Y21292D01*
X18293Y21304D01*
X18379Y21340D01*
X18453Y21397D01*
X18510Y21471D01*
X18546Y21557D01*
X18558Y21650D01*
X18546Y21743D01*
X18510Y21829D01*
X18453Y21903D01*
X18379Y21960D01*
X18293Y21996D01*
X18200Y22008D01*
D02*
G37*
G36*
X14600Y21308D02*
X14507Y21296D01*
X14421Y21260D01*
X14347Y21203D01*
X14290Y21129D01*
X14254Y21043D01*
X14242Y20950D01*
X14254Y20857D01*
X14290Y20771D01*
X14347Y20697D01*
X14421Y20640D01*
X14507Y20604D01*
X14600Y20592D01*
X14693Y20604D01*
X14779Y20640D01*
X14853Y20697D01*
X14910Y20771D01*
X14946Y20857D01*
X14958Y20950D01*
X14946Y21043D01*
X14910Y21129D01*
X14853Y21203D01*
X14779Y21260D01*
X14693Y21296D01*
X14600Y21308D01*
D02*
G37*
G36*
X1905Y20705D02*
X1195D01*
Y19995D01*
X1905D01*
Y20705D01*
D02*
G37*
G36*
X25232Y19445D02*
X24246D01*
Y18951D01*
X24368D01*
Y18448D01*
X24340Y18430D01*
X24300Y18370D01*
X24286Y18300D01*
X24300Y18230D01*
X24340Y18170D01*
X24400Y18130D01*
X24470Y18116D01*
X24540Y18130D01*
X24600Y18170D01*
X24640Y18230D01*
X24654Y18300D01*
X24640Y18370D01*
X24600Y18430D01*
X24572Y18448D01*
Y18951D01*
X25232D01*
Y19445D01*
D02*
G37*
G36*
X27690Y11014D02*
X27620Y11000D01*
X27560Y10960D01*
X27520Y10900D01*
X27506Y10830D01*
X27520Y10760D01*
X27560Y10700D01*
X27620Y10660D01*
X27690Y10646D01*
X27760Y10660D01*
X27820Y10700D01*
X27860Y10760D01*
X27874Y10830D01*
X27860Y10900D01*
X27820Y10960D01*
X27760Y11000D01*
X27690Y11014D01*
D02*
G37*
G36*
X30804Y10437D02*
X30733Y10423D01*
X30674Y10383D01*
X30634Y10324D01*
X30620Y10254D01*
X30634Y10183D01*
X30674Y10124D01*
X30733Y10084D01*
X30804Y10070D01*
X30874Y10084D01*
X30933Y10124D01*
X30973Y10183D01*
X30987Y10254D01*
X30973Y10324D01*
X30933Y10383D01*
X30874Y10423D01*
X30804Y10437D01*
D02*
G37*
G36*
X10200Y10008D02*
X10107Y9996D01*
X10021Y9960D01*
X9947Y9903D01*
X9890Y9829D01*
X9854Y9743D01*
X9842Y9650D01*
X9854Y9557D01*
X9890Y9471D01*
X9947Y9397D01*
X10021Y9340D01*
X10107Y9304D01*
X10200Y9292D01*
X10293Y9304D01*
X10379Y9340D01*
X10453Y9397D01*
X10510Y9471D01*
X10546Y9557D01*
X10558Y9650D01*
X10546Y9743D01*
X10510Y9829D01*
X10453Y9903D01*
X10379Y9960D01*
X10293Y9996D01*
X10200Y10008D01*
D02*
G37*
G36*
X25118Y9627D02*
X24604D01*
Y9173D01*
X24759D01*
Y8942D01*
X23018Y7201D01*
X22996Y7168D01*
X22988Y7129D01*
Y4660D01*
X22996Y4621D01*
X23011Y4599D01*
X22993Y4549D01*
X20106D01*
X19953Y4702D01*
Y4851D01*
X20344D01*
Y6349D01*
X19358D01*
Y4851D01*
X19749D01*
Y4660D01*
X19757Y4621D01*
X19779Y4588D01*
X19992Y4375D01*
X20025Y4353D01*
X20064Y4345D01*
X25297D01*
Y4204D01*
X25803D01*
Y4519D01*
X25842Y4540D01*
X25853Y4540D01*
X25920Y4526D01*
X25990Y4540D01*
X26050Y4580D01*
X26090Y4640D01*
X26104Y4710D01*
X26090Y4780D01*
X26050Y4840D01*
X25990Y4880D01*
X25920Y4894D01*
X25850Y4880D01*
X25790Y4840D01*
X25750Y4780D01*
X25736Y4710D01*
X25720Y4690D01*
X25297D01*
Y4549D01*
X23345D01*
X23192Y4702D01*
Y4851D01*
X24123D01*
Y6349D01*
X23732D01*
Y7088D01*
X24722Y8078D01*
X24744Y8111D01*
X24752Y8150D01*
Y8198D01*
X25752D01*
X25770Y8170D01*
X25830Y8130D01*
X25900Y8116D01*
X25970Y8130D01*
X26030Y8170D01*
X26070Y8230D01*
X26084Y8300D01*
X26070Y8370D01*
X26030Y8430D01*
X25970Y8470D01*
X25900Y8484D01*
X25830Y8470D01*
X25770Y8430D01*
X25752Y8402D01*
X24700D01*
X24661Y8394D01*
X24628Y8372D01*
X24578Y8322D01*
X24556Y8289D01*
X24548Y8250D01*
Y8192D01*
X23558Y7203D01*
X23536Y7169D01*
X23528Y7130D01*
Y6349D01*
X23192D01*
Y7087D01*
X24933Y8828D01*
X24955Y8861D01*
X24963Y8900D01*
Y9173D01*
X25118D01*
Y9627D01*
D02*
G37*
G36*
X4150Y7284D02*
X4080Y7270D01*
X4020Y7230D01*
X3980Y7170D01*
X3966Y7100D01*
X3980Y7030D01*
X4020Y6970D01*
X4080Y6930D01*
X4150Y6916D01*
X4220Y6930D01*
X4280Y6970D01*
X4320Y7030D01*
X4334Y7100D01*
X4320Y7170D01*
X4280Y7230D01*
X4220Y7270D01*
X4150Y7284D01*
D02*
G37*
G36*
X27400Y5734D02*
X27330Y5720D01*
X27270Y5680D01*
X27230Y5620D01*
X27216Y5550D01*
X27230Y5480D01*
X27270Y5420D01*
X27330Y5380D01*
X27400Y5366D01*
X27470Y5380D01*
X27530Y5420D01*
X27570Y5480D01*
X27584Y5550D01*
X27570Y5620D01*
X27530Y5680D01*
X27470Y5720D01*
X27400Y5734D01*
D02*
G37*
G36*
X22234Y6349D02*
X21248D01*
Y4851D01*
X22234D01*
Y6349D01*
D02*
G37*
G36*
X26750Y4334D02*
X26680Y4320D01*
X26620Y4280D01*
X26580Y4220D01*
X26566Y4150D01*
X26580Y4080D01*
X26620Y4020D01*
X26680Y3980D01*
X26750Y3966D01*
X26820Y3980D01*
X26880Y4020D01*
X26920Y4080D01*
X26934Y4150D01*
X26920Y4220D01*
X26880Y4280D01*
X26820Y4320D01*
X26750Y4334D01*
D02*
G37*
G36*
X9500Y3308D02*
X9407Y3296D01*
X9321Y3260D01*
X9247Y3203D01*
X9190Y3129D01*
X9154Y3043D01*
X9142Y2950D01*
X9154Y2857D01*
X9190Y2771D01*
X9247Y2697D01*
X9321Y2640D01*
X9407Y2604D01*
X9500Y2592D01*
X9593Y2604D01*
X9679Y2640D01*
X9753Y2697D01*
X9810Y2771D01*
X9846Y2857D01*
X9858Y2950D01*
X9846Y3043D01*
X9810Y3129D01*
X9753Y3203D01*
X9679Y3260D01*
X9593Y3296D01*
X9500Y3308D01*
D02*
G37*
G36*
X20005Y2605D02*
X19295D01*
Y1895D01*
X20005D01*
Y2605D01*
D02*
G37*
G36*
X9500Y2308D02*
X9407Y2296D01*
X9321Y2260D01*
X9247Y2203D01*
X9190Y2129D01*
X9154Y2043D01*
X9142Y1950D01*
X9154Y1857D01*
X9190Y1771D01*
X9247Y1697D01*
X9321Y1640D01*
X9407Y1604D01*
X9500Y1592D01*
X9593Y1604D01*
X9679Y1640D01*
X9753Y1697D01*
X9810Y1771D01*
X9846Y1857D01*
X9858Y1950D01*
X9846Y2043D01*
X9810Y2129D01*
X9753Y2203D01*
X9679Y2260D01*
X9593Y2296D01*
X9500Y2308D01*
D02*
G37*
G36*
X18403Y1796D02*
X17897D01*
Y1512D01*
X17508D01*
X17490Y1540D01*
X17430Y1580D01*
X17360Y1594D01*
X17290Y1580D01*
X17230Y1540D01*
X17191Y1480D01*
X17177Y1410D01*
X17191Y1340D01*
X17230Y1280D01*
X17290Y1240D01*
X17360Y1226D01*
X17430Y1240D01*
X17490Y1280D01*
X17508Y1308D01*
X18150D01*
X18160Y1310D01*
X18403D01*
Y1796D01*
D02*
G37*
G36*
X2350Y1334D02*
X2280Y1320D01*
X2220Y1280D01*
X2180Y1220D01*
X2166Y1150D01*
X2180Y1080D01*
X2220Y1020D01*
X2280Y980D01*
X2350Y967D01*
X2420Y980D01*
X2480Y1020D01*
X2520Y1080D01*
X2534Y1150D01*
X2520Y1220D01*
X2480Y1280D01*
X2420Y1320D01*
X2350Y1334D01*
D02*
G37*
G36*
X19650Y1608D02*
X19557Y1596D01*
X19471Y1560D01*
X19397Y1503D01*
X19340Y1429D01*
X19304Y1343D01*
X19292Y1250D01*
X19304Y1157D01*
X19340Y1071D01*
X19397Y997D01*
X19471Y940D01*
X19557Y904D01*
X19650Y892D01*
X19743Y904D01*
X19829Y940D01*
X19903Y997D01*
X19960Y1071D01*
X19996Y1157D01*
X20008Y1250D01*
X19996Y1343D01*
X19960Y1429D01*
X19903Y1503D01*
X19829Y1560D01*
X19743Y1596D01*
X19650Y1608D01*
D02*
G37*
G36*
X18403Y1190D02*
X17897D01*
Y704D01*
X18403D01*
Y733D01*
X18697D01*
X18779Y749D01*
X18848Y795D01*
X18851Y799D01*
X18898Y868D01*
X18914Y950D01*
X18898Y1032D01*
X18851Y1101D01*
X18782Y1148D01*
X18700Y1164D01*
X18684Y1161D01*
X18403D01*
Y1190D01*
D02*
G37*
G36*
X30000Y2611D02*
X29834Y2598D01*
X29671Y2559D01*
X29517Y2495D01*
X29375Y2408D01*
X29248Y2300D01*
X29140Y2173D01*
X29053Y2031D01*
X28989Y1877D01*
X28950Y1714D01*
X28937Y1548D01*
X28950Y1382D01*
X28989Y1219D01*
X29053Y1065D01*
X29140Y923D01*
X29248Y796D01*
X29375Y688D01*
X29517Y601D01*
X29671Y537D01*
X29834Y498D01*
X30000Y485D01*
X30166Y498D01*
X30329Y537D01*
X30483Y601D01*
X30625Y688D01*
X30752Y796D01*
X30860Y923D01*
X30947Y1065D01*
X31011Y1219D01*
X31050Y1382D01*
X31063Y1548D01*
X31050Y1714D01*
X31011Y1877D01*
X30947Y2031D01*
X30860Y2173D01*
X30752Y2300D01*
X30625Y2408D01*
X30483Y2495D01*
X30329Y2559D01*
X30166Y2598D01*
X30000Y2611D01*
D02*
G37*
G36*
X6400D02*
X6234Y2598D01*
X6071Y2559D01*
X5917Y2495D01*
X5775Y2408D01*
X5648Y2300D01*
X5540Y2173D01*
X5453Y2031D01*
X5389Y1877D01*
X5350Y1714D01*
X5337Y1548D01*
X5350Y1382D01*
X5389Y1219D01*
X5453Y1065D01*
X5540Y923D01*
X5648Y796D01*
X5775Y688D01*
X5917Y601D01*
X6071Y537D01*
X6234Y498D01*
X6400Y485D01*
X6566Y498D01*
X6729Y537D01*
X6883Y601D01*
X7025Y688D01*
X7152Y796D01*
X7260Y923D01*
X7347Y1065D01*
X7411Y1219D01*
X7450Y1382D01*
X7463Y1548D01*
X7450Y1714D01*
X7411Y1877D01*
X7347Y2031D01*
X7260Y2173D01*
X7152Y2300D01*
X7025Y2408D01*
X6883Y2495D01*
X6729Y2559D01*
X6566Y2598D01*
X6400Y2611D01*
D02*
G37*
G36*
X12310Y1326D02*
X7747D01*
Y690D01*
X7754D01*
X7797Y672D01*
X7797Y640D01*
Y290D01*
X9010D01*
X9010Y672D01*
X9053Y690D01*
X12310D01*
Y1326D01*
D02*
G37*
%LPD*%
G36*
X10670Y24920D02*
X10730Y24880D01*
X10800Y24866D01*
X10865Y24879D01*
X10878Y24869D01*
X10897Y24839D01*
X10890Y24829D01*
X10854Y24743D01*
X10842Y24650D01*
X10854Y24557D01*
X10890Y24471D01*
X10947Y24397D01*
X11021Y24340D01*
X11107Y24304D01*
X11122Y24302D01*
X11118Y24252D01*
X10090D01*
X10051Y24244D01*
X10018Y24222D01*
X9802Y24006D01*
X9752Y24027D01*
Y24778D01*
X9922Y24948D01*
X10652D01*
X10670Y24920D01*
D02*
G37*
G36*
X24460Y24013D02*
X24440Y24000D01*
X24422Y23972D01*
X23760D01*
X23721Y23964D01*
X23688Y23942D01*
X22578Y22832D01*
X22556Y22799D01*
X22548Y22760D01*
Y22242D01*
X21698Y21392D01*
X21652Y21411D01*
Y22448D01*
X23267Y24063D01*
X24445D01*
X24460Y24013D01*
D02*
G37*
G36*
X11897Y22538D02*
Y22204D01*
X12403D01*
Y22345D01*
X13101D01*
X13548Y21898D01*
Y20495D01*
X13498Y20490D01*
X13494Y20509D01*
X13472Y20542D01*
X13163Y20851D01*
X13182Y20897D01*
X13196D01*
Y21403D01*
X12710D01*
Y20897D01*
X12855D01*
X12859Y20878D01*
X12881Y20845D01*
X13298Y20428D01*
Y19450D01*
X13306Y19411D01*
X13310Y19405D01*
X13271Y19373D01*
X13198Y19446D01*
Y19657D01*
X13196Y19667D01*
Y20053D01*
X12710D01*
Y19547D01*
X12994D01*
Y19404D01*
X13002Y19365D01*
X13024Y19332D01*
X13787Y18569D01*
X13782Y18505D01*
X13769Y18494D01*
X13730Y18502D01*
X13196D01*
Y18653D01*
X12710D01*
Y18147D01*
X13196D01*
Y18298D01*
X13639D01*
X13650Y18240D01*
X13690Y18180D01*
X13750Y18140D01*
X13820Y18126D01*
X13890Y18140D01*
X13950Y18180D01*
X13990Y18240D01*
X13999Y18286D01*
X14052Y18304D01*
X14278Y18078D01*
X14311Y18056D01*
X14350Y18048D01*
X14900D01*
X14939Y18056D01*
X14972Y18078D01*
X15468Y18574D01*
X15521Y18556D01*
X15530Y18510D01*
X15570Y18450D01*
X15630Y18410D01*
X15700Y18396D01*
X15733Y18403D01*
X15808Y18328D01*
X15841Y18306D01*
X15880Y18298D01*
X16004D01*
Y18147D01*
X16490D01*
Y18653D01*
X16004D01*
Y18502D01*
X15922D01*
X15877Y18547D01*
X15884Y18580D01*
X15870Y18650D01*
X15830Y18710D01*
X15773Y18748D01*
X15772Y18752D01*
X15789Y18798D01*
X17650D01*
X17689Y18806D01*
X17722Y18828D01*
X17892Y18998D01*
X17988D01*
X18005Y18948D01*
X17947Y18903D01*
X17890Y18829D01*
X17854Y18743D01*
X17842Y18650D01*
X17854Y18557D01*
X17860Y18544D01*
X17832Y18502D01*
X17096D01*
Y18653D01*
X16610D01*
Y18147D01*
X17096D01*
Y18298D01*
X17950D01*
X17989Y18306D01*
X18022Y18328D01*
X18030Y18336D01*
X18107Y18304D01*
X18200Y18292D01*
X18293Y18304D01*
X18379Y18340D01*
X18453Y18397D01*
X18510Y18471D01*
X18546Y18557D01*
X18558Y18650D01*
X18546Y18743D01*
X18510Y18829D01*
X18453Y18903D01*
X18395Y18948D01*
X18412Y18998D01*
X18988D01*
X19005Y18948D01*
X18947Y18903D01*
X18890Y18829D01*
X18854Y18743D01*
X18842Y18650D01*
X18854Y18557D01*
X18886Y18480D01*
X18628Y18222D01*
X18606Y18189D01*
X18598Y18150D01*
Y17732D01*
X18548Y17728D01*
X18546Y17743D01*
X18510Y17829D01*
X18453Y17903D01*
X18379Y17960D01*
X18293Y17996D01*
X18200Y18008D01*
X18107Y17996D01*
X18021Y17960D01*
X17947Y17903D01*
X17890Y17829D01*
X17871Y17785D01*
X12793D01*
X12754Y17777D01*
X12721Y17755D01*
X12668Y17702D01*
X12629Y17734D01*
X12638Y17747D01*
X12660Y17780D01*
X12674Y17850D01*
X12660Y17920D01*
X12620Y17980D01*
X12560Y18020D01*
X12490Y18034D01*
X12449Y18076D01*
Y18147D01*
X12590D01*
Y18653D01*
X12104D01*
Y18147D01*
X12245D01*
Y17993D01*
X12253Y17954D01*
X12275Y17921D01*
X12313Y17883D01*
X12306Y17850D01*
X12320Y17780D01*
X12360Y17720D01*
X12420Y17680D01*
X12490Y17666D01*
X12560Y17680D01*
X12593Y17702D01*
X12606Y17711D01*
X12638Y17672D01*
X12578Y17612D01*
X12556Y17579D01*
X12548Y17540D01*
Y17503D01*
X12104D01*
Y17352D01*
X11642D01*
X11514Y17480D01*
X11546Y17557D01*
X11558Y17650D01*
X11546Y17743D01*
X11510Y17829D01*
X11453Y17903D01*
X11379Y17960D01*
X11293Y17996D01*
X11200Y18008D01*
X11107Y17996D01*
X11021Y17960D01*
X10947Y17903D01*
X10890Y17829D01*
X10854Y17743D01*
X10842Y17650D01*
X10854Y17557D01*
X10890Y17471D01*
X10947Y17397D01*
X11021Y17340D01*
X11107Y17304D01*
X11200Y17292D01*
X11293Y17304D01*
X11370Y17336D01*
X11504Y17202D01*
X11483Y17152D01*
X10581D01*
X10562Y17198D01*
X10752Y17388D01*
X10774Y17421D01*
X10782Y17460D01*
Y18088D01*
X11030Y18336D01*
X11107Y18304D01*
X11200Y18292D01*
X11293Y18304D01*
X11379Y18340D01*
X11453Y18397D01*
X11510Y18471D01*
X11546Y18557D01*
X11558Y18650D01*
X11546Y18743D01*
X11510Y18829D01*
X11453Y18903D01*
X11379Y18960D01*
X11293Y18996D01*
X11200Y19008D01*
X11107Y18996D01*
X11021Y18960D01*
X10947Y18903D01*
X10890Y18829D01*
X10854Y18743D01*
X10842Y18650D01*
X10854Y18557D01*
X10886Y18480D01*
X10608Y18202D01*
X10586Y18169D01*
X10578Y18130D01*
Y17796D01*
X10528Y17786D01*
X10510Y17829D01*
X10453Y17903D01*
X10379Y17960D01*
X10293Y17996D01*
X10200Y18008D01*
X10107Y17996D01*
X10021Y17960D01*
X9947Y17903D01*
X9890Y17829D01*
X9854Y17743D01*
X9842Y17650D01*
X9854Y17557D01*
X9890Y17471D01*
X9947Y17397D01*
X9979Y17372D01*
X9962Y17322D01*
X9462D01*
X9412Y17372D01*
X9379Y17394D01*
X9340Y17402D01*
X4860D01*
X4850Y17408D01*
X4823Y17446D01*
X4834Y17500D01*
X4820Y17570D01*
X4780Y17630D01*
X4720Y17670D01*
X4650Y17684D01*
X4580Y17670D01*
X4520Y17630D01*
X4480Y17570D01*
X4466Y17500D01*
X4480Y17430D01*
X4520Y17370D01*
X4580Y17330D01*
X4650Y17316D01*
X4664Y17319D01*
X4689Y17273D01*
X4308Y16892D01*
X4286Y16859D01*
X4278Y16820D01*
Y16077D01*
X3058Y14857D01*
X1827D01*
X1811Y14907D01*
X1860Y14971D01*
X1896Y15057D01*
X1908Y15150D01*
X1896Y15243D01*
X1864Y15320D01*
X2092Y15548D01*
X3200D01*
X3239Y15556D01*
X3272Y15578D01*
X3622Y15928D01*
X3644Y15961D01*
X3652Y16000D01*
Y17808D01*
X3688Y17844D01*
X3741Y17826D01*
X3750Y17780D01*
X3790Y17720D01*
X3850Y17680D01*
X3920Y17666D01*
X3990Y17680D01*
X4050Y17720D01*
X4090Y17780D01*
X4104Y17850D01*
X4097Y17883D01*
X5912Y19698D01*
X7643D01*
X7667Y19654D01*
X7652Y19632D01*
X7636Y19550D01*
Y19200D01*
X7625Y19193D01*
X7589Y19138D01*
X7576Y19074D01*
Y17907D01*
X7589Y17842D01*
X7625Y17787D01*
X7680Y17751D01*
X7745Y17738D01*
X7955D01*
X8020Y17751D01*
X8074Y17787D01*
X8111Y17842D01*
X8124Y17907D01*
Y19074D01*
X8111Y19138D01*
X8074Y19193D01*
X8064Y19200D01*
Y19550D01*
X8048Y19632D01*
X8033Y19654D01*
X8057Y19698D01*
X9250D01*
X9289Y19706D01*
X9322Y19728D01*
X9582Y19988D01*
X9975D01*
X9992Y19938D01*
X9947Y19903D01*
X9890Y19829D01*
X9854Y19743D01*
X9842Y19650D01*
X9854Y19557D01*
X9890Y19471D01*
X9947Y19397D01*
X10021Y19340D01*
X10107Y19304D01*
X10200Y19292D01*
X10293Y19304D01*
X10379Y19340D01*
X10453Y19397D01*
X10510Y19471D01*
X10546Y19557D01*
X10558Y19650D01*
X10546Y19743D01*
X10510Y19829D01*
X10453Y19903D01*
X10379Y19960D01*
X10340Y19977D01*
X10336Y19983D01*
X10329Y20035D01*
X10672Y20378D01*
X10694Y20411D01*
X10702Y20450D01*
Y21578D01*
X10797Y21673D01*
X10828Y21657D01*
X10842Y21647D01*
X10854Y21557D01*
X10890Y21471D01*
X10947Y21397D01*
X11021Y21340D01*
X11107Y21304D01*
X11200Y21292D01*
X11293Y21304D01*
X11379Y21340D01*
X11453Y21397D01*
X11510Y21471D01*
X11546Y21557D01*
X11558Y21650D01*
X11546Y21743D01*
X11510Y21829D01*
X11453Y21903D01*
X11379Y21960D01*
X11341Y21976D01*
X11329Y22035D01*
X11851Y22557D01*
X11897Y22538D01*
D02*
G37*
G36*
X9402Y23659D02*
X9419Y23618D01*
X9406Y23599D01*
X9398Y23560D01*
Y22792D01*
X7868Y21262D01*
X6060D01*
X6021Y21254D01*
X5988Y21232D01*
X4508Y19752D01*
X3130D01*
X3091Y19744D01*
X3058Y19722D01*
X852Y17516D01*
X802Y17537D01*
Y18028D01*
X2842Y20068D01*
X2864Y20101D01*
X2872Y20140D01*
Y23018D01*
X3522Y23668D01*
X3829D01*
X3839Y23618D01*
X3821Y23610D01*
X3747Y23553D01*
X3690Y23479D01*
X3654Y23393D01*
X3642Y23300D01*
X3654Y23207D01*
X3690Y23121D01*
X3747Y23047D01*
X3821Y22990D01*
X3907Y22954D01*
X4000Y22942D01*
X4093Y22954D01*
X4170Y22986D01*
X5448Y21708D01*
Y21348D01*
X5420Y21330D01*
X5380Y21270D01*
X5366Y21200D01*
X5380Y21130D01*
X5420Y21070D01*
X5480Y21030D01*
X5550Y21016D01*
X5620Y21030D01*
X5680Y21070D01*
X5720Y21130D01*
X5734Y21200D01*
X5720Y21270D01*
X5680Y21330D01*
X5652Y21348D01*
Y21750D01*
X5644Y21789D01*
X5622Y21822D01*
X4314Y23130D01*
X4346Y23207D01*
X4358Y23300D01*
X4346Y23393D01*
X4310Y23479D01*
X4253Y23553D01*
X4179Y23610D01*
X4161Y23618D01*
X4171Y23668D01*
X9393D01*
X9402Y23659D01*
D02*
G37*
G36*
X29320Y18220D02*
X29380Y18180D01*
X29450Y18166D01*
X29520Y18180D01*
X29533Y18189D01*
X29583Y18162D01*
Y13547D01*
X26029Y9994D01*
X25980Y10015D01*
X25970Y10070D01*
X25930Y10130D01*
X25870Y10170D01*
X25800Y10184D01*
X25730Y10170D01*
X25670Y10130D01*
X25630Y10070D01*
X25616Y10000D01*
X25630Y9930D01*
X25670Y9870D01*
X25730Y9830D01*
X25792Y9818D01*
X25810Y9797D01*
X25824Y9770D01*
X25818Y9740D01*
Y9371D01*
X25772Y9352D01*
X25112Y10012D01*
X25079Y10034D01*
X25040Y10042D01*
X23850D01*
X23811Y10034D01*
X23778Y10012D01*
X23148Y9382D01*
X22433D01*
X22416Y9432D01*
X22445Y9455D01*
X22512Y9541D01*
X22554Y9642D01*
X22568Y9750D01*
X22554Y9858D01*
X22512Y9959D01*
X22445Y10045D01*
X22377Y10098D01*
X22394Y10148D01*
X24070D01*
X24109Y10156D01*
X24142Y10178D01*
X24632Y10668D01*
X24654Y10701D01*
X24662Y10740D01*
Y12868D01*
X26130Y14336D01*
X26207Y14304D01*
X26300Y14292D01*
X26393Y14304D01*
X26479Y14340D01*
X26553Y14397D01*
X26610Y14471D01*
X26646Y14557D01*
X26658Y14650D01*
X26646Y14743D01*
X26610Y14829D01*
X26553Y14903D01*
X26479Y14960D01*
X26393Y14996D01*
X26400Y15045D01*
X27962D01*
Y14881D01*
X28338D01*
Y15414D01*
X27962D01*
Y15249D01*
X26361D01*
X26357Y15299D01*
X26393Y15304D01*
X26479Y15340D01*
X26553Y15397D01*
X26610Y15471D01*
X26646Y15557D01*
X26658Y15650D01*
X26646Y15743D01*
X26610Y15829D01*
X26553Y15903D01*
X26521Y15928D01*
X26538Y15978D01*
X27130D01*
X27169Y15986D01*
X27202Y16008D01*
X28867Y17673D01*
X28900Y17666D01*
X28970Y17680D01*
X29030Y17720D01*
X29070Y17780D01*
X29084Y17850D01*
X29070Y17920D01*
X29030Y17980D01*
X28970Y18020D01*
X28900Y18034D01*
X28830Y18020D01*
X28770Y17980D01*
X28730Y17920D01*
X28716Y17850D01*
X28723Y17817D01*
X27088Y16182D01*
X26761D01*
X26742Y16228D01*
X26942Y16428D01*
X26964Y16461D01*
X26972Y16500D01*
Y17028D01*
X27321Y17377D01*
X27367Y17352D01*
X27366Y17350D01*
X27380Y17280D01*
X27420Y17220D01*
X27480Y17180D01*
X27550Y17166D01*
X27620Y17180D01*
X27680Y17220D01*
X27720Y17280D01*
X27734Y17350D01*
X27720Y17420D01*
X27680Y17480D01*
X27620Y17520D01*
X27550Y17534D01*
X27548Y17533D01*
X27523Y17579D01*
X28192Y18248D01*
X29302D01*
X29320Y18220D01*
D02*
G37*
G36*
X5488Y19932D02*
X3478Y17922D01*
X3456Y17889D01*
X3448Y17850D01*
Y16042D01*
X3158Y15752D01*
X2050D01*
X2011Y15744D01*
X1978Y15722D01*
X1720Y15464D01*
X1643Y15496D01*
X1550Y15508D01*
X1457Y15496D01*
X1371Y15460D01*
X1307Y15411D01*
X1257Y15427D01*
Y15712D01*
X1380Y15836D01*
X1457Y15804D01*
X1550Y15792D01*
X1643Y15804D01*
X1729Y15840D01*
X1803Y15897D01*
X1860Y15971D01*
X1896Y16057D01*
X1908Y16150D01*
X1896Y16243D01*
X1860Y16329D01*
X1803Y16403D01*
X1729Y16460D01*
X1643Y16496D01*
X1550Y16508D01*
X1457Y16496D01*
X1371Y16460D01*
X1297Y16403D01*
X1240Y16329D01*
X1204Y16243D01*
X1192Y16150D01*
X1204Y16057D01*
X1236Y15980D01*
X1083Y15827D01*
X1061Y15794D01*
X1053Y15755D01*
Y15116D01*
X1003Y15089D01*
X1002Y15090D01*
Y17378D01*
X3172Y19548D01*
X3925D01*
X3930Y19498D01*
X3911Y19494D01*
X3878Y19472D01*
X1809Y17403D01*
X1803Y17403D01*
X1729Y17460D01*
X1643Y17496D01*
X1550Y17508D01*
X1457Y17496D01*
X1371Y17460D01*
X1297Y17403D01*
X1240Y17329D01*
X1204Y17243D01*
X1192Y17150D01*
X1204Y17057D01*
X1240Y16971D01*
X1297Y16897D01*
X1371Y16840D01*
X1457Y16804D01*
X1550Y16792D01*
X1643Y16804D01*
X1729Y16840D01*
X1803Y16897D01*
X1860Y16971D01*
X1896Y17057D01*
X1908Y17150D01*
X1900Y17210D01*
X1911Y17217D01*
X3992Y19298D01*
X4690D01*
X4729Y19306D01*
X4762Y19328D01*
X5412Y19978D01*
X5469D01*
X5488Y19932D01*
D02*
G37*
G36*
X17854Y17557D02*
X17890Y17471D01*
X17939Y17407D01*
X17923Y17357D01*
X15945D01*
X15906Y17349D01*
X15873Y17327D01*
X15758Y17212D01*
X15736Y17179D01*
X15728Y17140D01*
Y14622D01*
X15448Y14342D01*
X14477D01*
X14467Y14392D01*
X14496Y14404D01*
X14646Y14554D01*
X14665Y14600D01*
Y15400D01*
X14646Y15446D01*
X14641Y15451D01*
X14665Y15497D01*
X14720Y15486D01*
X14790Y15500D01*
X14850Y15540D01*
X14890Y15600D01*
X14904Y15670D01*
X14890Y15740D01*
X14850Y15800D01*
X14790Y15840D01*
X14720Y15854D01*
X14650Y15840D01*
X14590Y15800D01*
X14572Y15772D01*
X14453D01*
Y16196D01*
X14299D01*
Y16997D01*
X14440D01*
Y17503D01*
X13954D01*
Y16997D01*
X14095D01*
Y16495D01*
X14049Y16475D01*
X13992Y16532D01*
X13959Y16554D01*
X13920Y16562D01*
X12938D01*
X12920Y16590D01*
X12860Y16630D01*
X12790Y16644D01*
X12720Y16630D01*
X12660Y16590D01*
X12620Y16530D01*
X12606Y16460D01*
X12620Y16390D01*
X12660Y16330D01*
X12705Y16301D01*
X12710Y16253D01*
X12710D01*
X12710Y16253D01*
Y15747D01*
X12853D01*
X12859Y15718D01*
X12881Y15685D01*
X12968Y15598D01*
X13001Y15576D01*
X13040Y15568D01*
X13811D01*
X13830Y15522D01*
X13704Y15396D01*
X13685Y15350D01*
Y14600D01*
X13704Y14554D01*
X13854Y14404D01*
X13900Y14385D01*
X14040D01*
X14045Y14335D01*
X14041Y14334D01*
X14008Y14312D01*
X13246Y13550D01*
X13196Y13571D01*
Y13803D01*
X12712D01*
Y14260D01*
X12704Y14299D01*
X12682Y14332D01*
X12590Y14424D01*
Y14903D01*
X12590D01*
X12602Y14948D01*
X12698D01*
X12710Y14903D01*
X12710D01*
Y14397D01*
X13196D01*
Y14903D01*
X13055D01*
X13047Y14939D01*
X13025Y14972D01*
X12875Y15122D01*
X12842Y15144D01*
X12803Y15152D01*
X11040D01*
X11001Y15144D01*
X10968Y15122D01*
X10733Y14887D01*
X10700Y14894D01*
X10630Y14880D01*
X10570Y14840D01*
X10560Y14824D01*
X10555Y14825D01*
X10506Y14834D01*
X10453Y14903D01*
X10379Y14960D01*
X10293Y14996D01*
X10200Y15008D01*
X10107Y14996D01*
X10021Y14960D01*
X9952Y14907D01*
X9903Y14918D01*
X9902Y14919D01*
Y15381D01*
X9903Y15382D01*
X9952Y15393D01*
X10021Y15340D01*
X10107Y15304D01*
X10200Y15292D01*
X10293Y15304D01*
X10379Y15340D01*
X10453Y15397D01*
X10510Y15471D01*
X10546Y15557D01*
X10558Y15650D01*
X10546Y15743D01*
X10510Y15829D01*
X10453Y15903D01*
X10379Y15960D01*
X10293Y15996D01*
X10200Y16008D01*
X10107Y15996D01*
X10021Y15960D01*
X9952Y15907D01*
X9903Y15918D01*
X9902Y15919D01*
Y16381D01*
X9903Y16382D01*
X9952Y16393D01*
X10021Y16340D01*
X10107Y16304D01*
X10200Y16292D01*
X10293Y16304D01*
X10370Y16336D01*
X10663Y16043D01*
X10696Y16021D01*
X10735Y16013D01*
X11017D01*
X11027Y15963D01*
X11021Y15960D01*
X10947Y15903D01*
X10890Y15829D01*
X10854Y15743D01*
X10842Y15650D01*
X10854Y15557D01*
X10890Y15471D01*
X10947Y15397D01*
X11021Y15340D01*
X11107Y15304D01*
X11200Y15292D01*
X11293Y15304D01*
X11379Y15340D01*
X11453Y15397D01*
X11510Y15471D01*
X11546Y15557D01*
X11558Y15650D01*
X11546Y15743D01*
X11510Y15829D01*
X11453Y15903D01*
X11379Y15960D01*
X11373Y15963D01*
X11383Y16013D01*
X12102D01*
Y16000D01*
X12104Y15990D01*
Y15747D01*
X12590D01*
Y16253D01*
X12104D01*
Y16217D01*
X10778D01*
X10514Y16480D01*
X10546Y16557D01*
X10558Y16650D01*
X10546Y16743D01*
X10510Y16829D01*
X10457Y16898D01*
X10468Y16947D01*
X10469Y16948D01*
X10931D01*
X10932Y16947D01*
X10943Y16898D01*
X10890Y16829D01*
X10854Y16743D01*
X10842Y16650D01*
X10854Y16557D01*
X10890Y16471D01*
X10947Y16397D01*
X11021Y16340D01*
X11107Y16304D01*
X11200Y16292D01*
X11293Y16304D01*
X11379Y16340D01*
X11453Y16397D01*
X11510Y16471D01*
X11546Y16557D01*
X11558Y16650D01*
X11546Y16743D01*
X11510Y16829D01*
X11457Y16898D01*
X11468Y16947D01*
X11469Y16948D01*
X11558D01*
X11778Y16728D01*
X11811Y16706D01*
X11850Y16698D01*
X12480D01*
X12519Y16706D01*
X12552Y16728D01*
X12722Y16898D01*
X12744Y16931D01*
X12752Y16970D01*
Y17498D01*
X12835Y17581D01*
X17851D01*
X17854Y17557D01*
D02*
G37*
G36*
X14600Y15400D02*
Y14600D01*
X14450Y14450D01*
X13900D01*
X13750Y14600D01*
Y15350D01*
X13950Y15550D01*
X14450Y15550D01*
X14600Y15400D01*
D02*
G37*
G36*
X10630Y14540D02*
X10700Y14526D01*
X10770Y14540D01*
X10803Y14562D01*
X10819Y14561D01*
X10860Y14542D01*
X10890Y14471D01*
X10947Y14397D01*
X11021Y14340D01*
X11107Y14304D01*
X11200Y14292D01*
X11293Y14304D01*
X11379Y14340D01*
X11453Y14397D01*
X11510Y14471D01*
X11542Y14548D01*
X12104D01*
Y14459D01*
X11907D01*
X11868Y14451D01*
X11835Y14429D01*
X11370Y13964D01*
X11293Y13996D01*
X11200Y14008D01*
X11107Y13996D01*
X11021Y13960D01*
X10947Y13903D01*
X10890Y13829D01*
X10854Y13743D01*
X10842Y13650D01*
X10854Y13557D01*
X10890Y13471D01*
X10947Y13397D01*
X11021Y13340D01*
X11107Y13304D01*
X11200Y13292D01*
X11293Y13304D01*
X11379Y13340D01*
X11453Y13397D01*
X11510Y13471D01*
X11546Y13557D01*
X11558Y13650D01*
X11546Y13743D01*
X11514Y13820D01*
X11949Y14255D01*
X12471D01*
X12508Y14218D01*
Y13803D01*
X12104D01*
Y13297D01*
X12590D01*
Y13448D01*
X12610D01*
X12649Y13456D01*
X12660Y13463D01*
X12710Y13437D01*
Y13297D01*
X12851D01*
Y13083D01*
X12823Y13064D01*
X12784Y13005D01*
X12770Y12934D01*
X12784Y12864D01*
X12823Y12805D01*
X12883Y12765D01*
X12953Y12751D01*
X13023Y12765D01*
X13083Y12805D01*
X13123Y12864D01*
X13131Y12906D01*
X13181Y12901D01*
Y12453D01*
X12710D01*
Y12002D01*
X11902D01*
X11682Y12222D01*
X11649Y12244D01*
X11610Y12252D01*
X11338D01*
X11329Y12265D01*
X11347Y12326D01*
X11379Y12340D01*
X11453Y12397D01*
X11510Y12471D01*
X11546Y12557D01*
X11558Y12650D01*
X11546Y12743D01*
X11510Y12829D01*
X11453Y12903D01*
X11379Y12960D01*
X11293Y12996D01*
X11200Y13008D01*
X11107Y12996D01*
X11021Y12960D01*
X10947Y12903D01*
X10890Y12829D01*
X10854Y12743D01*
X10842Y12650D01*
X10854Y12557D01*
X10890Y12471D01*
X10939Y12407D01*
X10923Y12357D01*
X10477D01*
X10461Y12407D01*
X10510Y12471D01*
X10546Y12557D01*
X10558Y12650D01*
X10546Y12743D01*
X10510Y12829D01*
X10453Y12903D01*
X10379Y12960D01*
X10293Y12996D01*
X10200Y13008D01*
X10107Y12996D01*
X10021Y12960D01*
X9947Y12903D01*
X9890Y12829D01*
X9854Y12743D01*
X9842Y12650D01*
X9854Y12557D01*
X9890Y12471D01*
X9939Y12407D01*
X9923Y12357D01*
X9842D01*
X9797Y12402D01*
X9764Y12424D01*
X9725Y12432D01*
X9463D01*
X9448Y12465D01*
X9446Y12482D01*
X9872Y12908D01*
X9894Y12941D01*
X9902Y12980D01*
Y13381D01*
X9903Y13382D01*
X9952Y13393D01*
X10021Y13340D01*
X10107Y13304D01*
X10200Y13292D01*
X10293Y13304D01*
X10379Y13340D01*
X10453Y13397D01*
X10510Y13471D01*
X10546Y13557D01*
X10558Y13650D01*
X10546Y13743D01*
X10510Y13829D01*
X10453Y13903D01*
X10379Y13960D01*
X10293Y13996D01*
X10200Y14008D01*
X10107Y13996D01*
X10021Y13960D01*
X9952Y13907D01*
X9903Y13918D01*
X9902Y13919D01*
Y14381D01*
X9903Y14382D01*
X9952Y14393D01*
X10021Y14340D01*
X10107Y14304D01*
X10200Y14292D01*
X10293Y14304D01*
X10379Y14340D01*
X10453Y14397D01*
X10510Y14471D01*
X10540Y14542D01*
X10581Y14561D01*
X10597Y14562D01*
X10630Y14540D01*
D02*
G37*
G36*
X23800Y19100D02*
Y17400D01*
X23400Y17000D01*
X21200Y16900D01*
X21100Y14600D01*
X20650Y14150D01*
X20100D01*
X19950Y14300D01*
Y15800D01*
X20350Y18300D01*
X20850Y18800D01*
X21050Y19200D01*
X23500Y19400D01*
X23800Y19100D01*
D02*
G37*
G36*
X26079Y15928D02*
X26047Y15903D01*
X25990Y15829D01*
X25958Y15752D01*
X25650D01*
X25611Y15744D01*
X25578Y15722D01*
X24169Y14314D01*
X24139Y14294D01*
X23002Y13156D01*
X22952Y13177D01*
Y13938D01*
X23082Y14068D01*
X23340D01*
X23379Y14076D01*
X23412Y14098D01*
X25292Y15978D01*
X26062D01*
X26079Y15928D01*
D02*
G37*
G36*
X9348Y17148D02*
X9381Y17126D01*
X9420Y17118D01*
X9889D01*
X9908Y17072D01*
X9728Y16892D01*
X9706Y16859D01*
X9698Y16820D01*
Y13022D01*
X9328Y12652D01*
X4202D01*
X3132Y13722D01*
X3099Y13744D01*
X3060Y13752D01*
X2632D01*
X2628Y13802D01*
X2643Y13804D01*
X2729Y13840D01*
X2803Y13897D01*
X2860Y13971D01*
X2896Y14057D01*
X2908Y14150D01*
X2896Y14243D01*
X2860Y14329D01*
X2803Y14403D01*
X2729Y14460D01*
X2643Y14496D01*
X2550Y14508D01*
X2457Y14496D01*
X2380Y14464D01*
X2238Y14607D01*
X2257Y14653D01*
X3100D01*
X3139Y14661D01*
X3172Y14683D01*
X4452Y15963D01*
X4474Y15996D01*
X4482Y16035D01*
Y16778D01*
X4902Y17198D01*
X9298D01*
X9348Y17148D01*
D02*
G37*
G36*
X16696Y13300D02*
X16695Y13296D01*
X16673Y13252D01*
X14800D01*
X14761Y13244D01*
X14728Y13222D01*
X14430Y12924D01*
X14408Y12891D01*
X14400Y12852D01*
Y12438D01*
X14299D01*
Y13297D01*
X14440D01*
Y13803D01*
X14112D01*
X14093Y13849D01*
X14182Y13938D01*
X16058D01*
X16696Y13300D01*
D02*
G37*
G36*
X17688Y12008D02*
X17721Y11986D01*
X17760Y11978D01*
X17962D01*
X17979Y11928D01*
X17947Y11903D01*
X17890Y11829D01*
X17854Y11743D01*
X17842Y11650D01*
X17854Y11557D01*
X17890Y11471D01*
X17947Y11397D01*
X18021Y11340D01*
X18107Y11304D01*
X18200Y11292D01*
X18293Y11304D01*
X18379Y11340D01*
X18453Y11397D01*
X18510Y11471D01*
X18546Y11557D01*
X18558Y11650D01*
X18546Y11743D01*
X18510Y11829D01*
X18453Y11903D01*
X18421Y11928D01*
X18438Y11978D01*
X18962D01*
X18979Y11928D01*
X18947Y11903D01*
X18890Y11829D01*
X18854Y11743D01*
X18842Y11650D01*
X18854Y11557D01*
X18890Y11471D01*
X18947Y11397D01*
X19018Y11342D01*
X19018Y11337D01*
X18993Y11292D01*
X18880D01*
X18841Y11284D01*
X18808Y11262D01*
X18528Y10982D01*
X18506Y10949D01*
X18501Y10924D01*
X18465Y10908D01*
X18448Y10907D01*
X18379Y10960D01*
X18293Y10996D01*
X18200Y11008D01*
X18107Y10996D01*
X18021Y10960D01*
X17947Y10903D01*
X17890Y10829D01*
X17854Y10743D01*
X17842Y10650D01*
X17854Y10557D01*
X17890Y10471D01*
X17947Y10397D01*
X18021Y10340D01*
X18107Y10304D01*
X18200Y10292D01*
X18293Y10304D01*
X18379Y10340D01*
X18448Y10393D01*
X18497Y10382D01*
X18498Y10381D01*
Y9919D01*
X18497Y9918D01*
X18448Y9907D01*
X18379Y9960D01*
X18293Y9996D01*
X18200Y10008D01*
X18107Y9996D01*
X18021Y9960D01*
X17947Y9903D01*
X17890Y9829D01*
X17854Y9743D01*
X17842Y9650D01*
X17854Y9557D01*
X17890Y9471D01*
X17947Y9397D01*
X18021Y9340D01*
X18107Y9304D01*
X18200Y9292D01*
X18293Y9304D01*
X18379Y9340D01*
X18448Y9393D01*
X18497Y9382D01*
X18498Y9381D01*
Y8622D01*
X16728Y6852D01*
X14468D01*
X14452Y6902D01*
X14480Y6920D01*
X14520Y6980D01*
X14534Y7050D01*
X14520Y7120D01*
X14480Y7180D01*
X14452Y7198D01*
Y7858D01*
X14567Y7973D01*
X14600Y7966D01*
X14670Y7980D01*
X14730Y8020D01*
X14770Y8080D01*
X14784Y8150D01*
X14770Y8220D01*
X14730Y8280D01*
X14670Y8320D01*
X14600Y8334D01*
X14530Y8320D01*
X14470Y8280D01*
X14430Y8220D01*
X14416Y8150D01*
X14423Y8117D01*
X14278Y7972D01*
X14256Y7939D01*
X14248Y7900D01*
Y7198D01*
X14220Y7180D01*
X14180Y7120D01*
X14166Y7050D01*
X14180Y6980D01*
X14220Y6920D01*
X14248Y6902D01*
X14232Y6852D01*
X12124D01*
X12120Y6902D01*
X12232Y6948D01*
X12328Y7022D01*
X12402Y7118D01*
X12448Y7230D01*
X12464Y7350D01*
Y7700D01*
Y8108D01*
X12942Y8586D01*
X14900D01*
X15020Y8602D01*
X15132Y8648D01*
X15228Y8722D01*
X15302Y8818D01*
X15348Y8930D01*
X15364Y9050D01*
X15348Y9170D01*
X15302Y9282D01*
X15228Y9378D01*
X15132Y9452D01*
X15020Y9498D01*
X14900Y9514D01*
X12750D01*
X12630Y9498D01*
X12518Y9452D01*
X12422Y9378D01*
X11672Y8628D01*
X11598Y8532D01*
X11552Y8420D01*
X11544Y8360D01*
X11536Y8300D01*
X11536Y8300D01*
Y7700D01*
Y7350D01*
X11552Y7230D01*
X11598Y7118D01*
X11672Y7022D01*
X11768Y6948D01*
X11880Y6902D01*
X11876Y6852D01*
X11152D01*
X10902Y7102D01*
Y9381D01*
X10903Y9382D01*
X10952Y9393D01*
X11021Y9340D01*
X11107Y9304D01*
X11200Y9292D01*
X11293Y9304D01*
X11379Y9340D01*
X11453Y9397D01*
X11510Y9471D01*
X11546Y9557D01*
X11558Y9650D01*
X11546Y9743D01*
X11510Y9829D01*
X11453Y9903D01*
X11379Y9960D01*
X11293Y9996D01*
X11200Y10008D01*
X11107Y9996D01*
X11021Y9960D01*
X10952Y9907D01*
X10903Y9918D01*
X10902Y9919D01*
Y10038D01*
X11082Y10218D01*
X11200D01*
X11239Y10226D01*
X11272Y10248D01*
X11294Y10281D01*
X11299Y10307D01*
X11379Y10340D01*
X11453Y10397D01*
X11510Y10471D01*
X11546Y10557D01*
X11558Y10650D01*
X11546Y10743D01*
X11510Y10829D01*
X11457Y10898D01*
X11468Y10947D01*
X11469Y10948D01*
X11540D01*
X11579Y10956D01*
X11612Y10978D01*
X12054Y11420D01*
X12104Y11399D01*
Y11010D01*
X12456D01*
X12526Y10940D01*
X12510Y10892D01*
X12508Y10890D01*
X12104D01*
Y10404D01*
X12610D01*
Y10545D01*
X13150D01*
X13189Y10553D01*
X13222Y10575D01*
X13295Y10648D01*
X13633D01*
Y10562D01*
X14462D01*
Y10938D01*
X13945D01*
X13926Y10984D01*
X14004Y11062D01*
X14462D01*
Y11328D01*
X14464Y11338D01*
Y11398D01*
X14574Y11509D01*
X14596Y11542D01*
X14604Y11581D01*
Y12810D01*
X14842Y13048D01*
X16648D01*
X17688Y12008D01*
D02*
G37*
G36*
X25990Y15471D02*
X26047Y15397D01*
X26121Y15340D01*
X26207Y15304D01*
X26243Y15299D01*
X26239Y15249D01*
X25997D01*
X25958Y15241D01*
X25925Y15219D01*
X23778Y13072D01*
X23756Y13039D01*
X23748Y13000D01*
Y10912D01*
X23178D01*
X23160Y10940D01*
X23100Y10980D01*
X23030Y10994D01*
X22960Y10980D01*
X22900Y10940D01*
X22860Y10880D01*
X22846Y10810D01*
X22860Y10740D01*
X22900Y10680D01*
X22960Y10640D01*
X23030Y10626D01*
X23100Y10640D01*
X23160Y10680D01*
X23178Y10708D01*
X23803D01*
X23842Y10716D01*
X23875Y10738D01*
X23922Y10785D01*
X23944Y10818D01*
X23952Y10857D01*
Y12958D01*
X26039Y15045D01*
X26200D01*
X26207Y14996D01*
X26121Y14960D01*
X26047Y14903D01*
X25990Y14829D01*
X25954Y14743D01*
X25942Y14650D01*
X25954Y14557D01*
X25986Y14480D01*
X24488Y12982D01*
X24466Y12949D01*
X24458Y12910D01*
Y10782D01*
X24028Y10352D01*
X22394D01*
X22377Y10402D01*
X22445Y10454D01*
X22512Y10541D01*
X22554Y10642D01*
X22568Y10750D01*
X22554Y10858D01*
X22512Y10959D01*
X22508Y10964D01*
X22766Y11222D01*
X22788Y11255D01*
X22796Y11294D01*
Y12097D01*
X22937D01*
Y12603D01*
X22802D01*
X22783Y12649D01*
X24263Y14129D01*
X24294Y14149D01*
X25692Y15548D01*
X25958D01*
X25990Y15471D01*
D02*
G37*
G36*
X30050Y5000D02*
X30850D01*
X31050Y4800D01*
Y4100D01*
X29800Y2850D01*
X28700Y2650D01*
X28500Y1550D01*
X28000Y1050D01*
X26800D01*
X26500Y1350D01*
Y2300D01*
X27200Y3000D01*
X27250Y3050D01*
X28350Y4150D01*
X28650Y4300D01*
X28779Y4750D01*
X28700D01*
Y5100D01*
X27250Y6550D01*
X25100D01*
X25050Y6600D01*
X24910Y7161D01*
X24941Y7200D01*
X27850D01*
X30050Y5000D01*
D02*
G37*
%LPC*%
G36*
X12590Y21403D02*
X12104D01*
Y21252D01*
X11700D01*
X11661Y21244D01*
X11628Y21222D01*
X11370Y20964D01*
X11293Y20996D01*
X11200Y21008D01*
X11107Y20996D01*
X11021Y20960D01*
X10947Y20903D01*
X10890Y20829D01*
X10854Y20743D01*
X10842Y20650D01*
X10854Y20557D01*
X10890Y20471D01*
X10947Y20397D01*
X11021Y20340D01*
X11107Y20304D01*
X11200Y20292D01*
X11293Y20304D01*
X11379Y20340D01*
X11453Y20397D01*
X11510Y20471D01*
X11546Y20557D01*
X11558Y20650D01*
X11546Y20743D01*
X11514Y20820D01*
X11742Y21048D01*
X12104D01*
Y20897D01*
X12590D01*
Y21403D01*
D02*
G37*
G36*
X12590Y20053D02*
X12104D01*
Y19902D01*
X11840D01*
X11801Y19894D01*
X11768Y19872D01*
X11648Y19752D01*
X11542D01*
X11510Y19829D01*
X11453Y19903D01*
X11379Y19960D01*
X11293Y19996D01*
X11200Y20008D01*
X11107Y19996D01*
X11021Y19960D01*
X10947Y19903D01*
X10890Y19829D01*
X10854Y19743D01*
X10842Y19650D01*
X10854Y19557D01*
X10890Y19471D01*
X10947Y19397D01*
X11021Y19340D01*
X11107Y19304D01*
X11200Y19292D01*
X11293Y19304D01*
X11379Y19340D01*
X11453Y19397D01*
X11510Y19471D01*
X11542Y19548D01*
X11690D01*
X11729Y19556D01*
X11762Y19578D01*
X11882Y19698D01*
X12104D01*
Y19547D01*
X12590D01*
Y20053D01*
D02*
G37*
G36*
X6310Y19354D02*
X6240Y19340D01*
X6180Y19300D01*
X6162Y19272D01*
X5850D01*
X5811Y19264D01*
X5778Y19242D01*
X5776Y19239D01*
X5579D01*
Y17741D01*
X6121D01*
Y19039D01*
X6171Y19055D01*
X6180Y19040D01*
X6240Y19000D01*
X6310Y18986D01*
X6380Y19000D01*
X6440Y19040D01*
X6480Y19100D01*
X6494Y19170D01*
X6480Y19240D01*
X6440Y19300D01*
X6380Y19340D01*
X6310Y19354D01*
D02*
G37*
G36*
X10200Y19008D02*
X10107Y18996D01*
X10021Y18960D01*
X9947Y18903D01*
X9890Y18829D01*
X9854Y18743D01*
X9842Y18650D01*
X9854Y18557D01*
X9890Y18471D01*
X9947Y18397D01*
X10021Y18340D01*
X10107Y18304D01*
X10200Y18292D01*
X10293Y18304D01*
X10379Y18340D01*
X10453Y18397D01*
X10510Y18471D01*
X10546Y18557D01*
X10558Y18650D01*
X10546Y18743D01*
X10510Y18829D01*
X10453Y18903D01*
X10379Y18960D01*
X10293Y18996D01*
X10200Y19008D01*
D02*
G37*
G36*
X8753Y23196D02*
X8247D01*
Y22710D01*
X8753D01*
Y22736D01*
X8950D01*
X9032Y22752D01*
X9101Y22799D01*
X9148Y22868D01*
X9164Y22950D01*
X9148Y23032D01*
X9101Y23101D01*
X9032Y23148D01*
X8950Y23164D01*
X8753D01*
Y23196D01*
D02*
G37*
G36*
X4000Y22658D02*
X3907Y22646D01*
X3821Y22610D01*
X3747Y22553D01*
X3690Y22479D01*
X3654Y22393D01*
X3642Y22300D01*
X3654Y22207D01*
X3690Y22121D01*
X3747Y22047D01*
X3821Y21990D01*
X3907Y21954D01*
X4000Y21942D01*
X4093Y21954D01*
X4179Y21990D01*
X4253Y22047D01*
X4310Y22121D01*
X4346Y22207D01*
X4358Y22300D01*
X4346Y22393D01*
X4310Y22479D01*
X4253Y22553D01*
X4179Y22610D01*
X4093Y22646D01*
X4000Y22658D01*
D02*
G37*
G36*
X7100Y22058D02*
X7007Y22046D01*
X6921Y22010D01*
X6847Y21953D01*
X6790Y21879D01*
X6754Y21793D01*
X6742Y21700D01*
X6754Y21607D01*
X6790Y21521D01*
X6847Y21447D01*
X6921Y21390D01*
X7007Y21354D01*
X7100Y21342D01*
X7193Y21354D01*
X7279Y21390D01*
X7353Y21447D01*
X7410Y21521D01*
X7446Y21607D01*
X7458Y21700D01*
X7446Y21793D01*
X7410Y21879D01*
X7353Y21953D01*
X7279Y22010D01*
X7193Y22046D01*
X7100Y22058D01*
D02*
G37*
G36*
X4355Y20655D02*
X3645D01*
Y19945D01*
X4355D01*
Y20655D01*
D02*
G37*
G36*
X27964Y16319D02*
X27588D01*
Y15786D01*
X27597D01*
X27624Y15736D01*
X27606Y15710D01*
X27592Y15640D01*
X27606Y15570D01*
X27646Y15510D01*
X27706Y15470D01*
X27776Y15456D01*
X27846Y15470D01*
X27906Y15510D01*
X27946Y15570D01*
X27960Y15640D01*
X27946Y15710D01*
X27928Y15736D01*
X27955Y15786D01*
X27964D01*
Y16319D01*
D02*
G37*
G36*
X26655Y13005D02*
X25945D01*
Y12295D01*
X26655D01*
Y13005D01*
D02*
G37*
G36*
X2550Y17508D02*
X2457Y17496D01*
X2371Y17460D01*
X2297Y17403D01*
X2240Y17329D01*
X2204Y17243D01*
X2192Y17150D01*
X2204Y17057D01*
X2240Y16971D01*
X2297Y16897D01*
X2371Y16840D01*
X2457Y16804D01*
X2550Y16792D01*
X2643Y16804D01*
X2729Y16840D01*
X2803Y16897D01*
X2860Y16971D01*
X2896Y17057D01*
X2908Y17150D01*
X2896Y17243D01*
X2860Y17329D01*
X2803Y17403D01*
X2729Y17460D01*
X2643Y17496D01*
X2550Y17508D01*
D02*
G37*
G36*
X4370Y14817D02*
X4300Y14803D01*
X4240Y14763D01*
X4200Y14704D01*
X4186Y14634D01*
X4200Y14563D01*
X4240Y14504D01*
X4300Y14464D01*
X4370Y14450D01*
X4440Y14464D01*
X4500Y14504D01*
X4540Y14563D01*
X4554Y14634D01*
X4540Y14704D01*
X4500Y14763D01*
X4440Y14803D01*
X4370Y14817D01*
D02*
G37*
G36*
X16667Y12438D02*
X15838D01*
Y12062D01*
X16667D01*
Y12438D01*
D02*
G37*
G36*
Y11938D02*
X15838D01*
Y11562D01*
X15849D01*
X15870Y11512D01*
X15754Y11396D01*
X15735Y11350D01*
Y10550D01*
X15754Y10504D01*
X15788Y10470D01*
Y10402D01*
X15804Y10282D01*
X15851Y10170D01*
X15924Y10074D01*
X16020Y10001D01*
X16132Y9954D01*
X16252Y9938D01*
X16372Y9954D01*
X16484Y10001D01*
X16580Y10074D01*
X16654Y10170D01*
X16701Y10282D01*
X16716Y10402D01*
Y10491D01*
X16723Y10494D01*
X16743Y10501D01*
X16745Y10505D01*
X16749Y10507D01*
X16756Y10527D01*
X16765Y10546D01*
X16813Y11357D01*
X16846Y11399D01*
X16861Y11401D01*
X16947D01*
Y11260D01*
X17453D01*
Y11746D01*
X16947D01*
Y11605D01*
X16889D01*
X16672Y11822D01*
X16667Y11826D01*
Y11938D01*
D02*
G37*
G36*
X15960Y7514D02*
X15890Y7500D01*
X15830Y7460D01*
X15790Y7400D01*
X15776Y7330D01*
X15790Y7260D01*
X15830Y7200D01*
X15890Y7160D01*
X15960Y7146D01*
X16030Y7160D01*
X16090Y7200D01*
X16130Y7260D01*
X16144Y7330D01*
X16130Y7400D01*
X16090Y7460D01*
X16030Y7500D01*
X15960Y7514D01*
D02*
G37*
%LPD*%
G36*
X16750Y11400D02*
X16700Y10550D01*
X15850Y10500D01*
X15800Y10550D01*
Y11350D01*
X15950Y11500D01*
X16650D01*
X16750Y11400D01*
D02*
G37*
G36*
X8866Y612D02*
X8872Y612D01*
X8883Y610D01*
X8893Y607D01*
X8897Y605D01*
X8901Y603D01*
X8905Y602D01*
X8908Y600D01*
X8911Y599D01*
X8913Y598D01*
X8915Y596D01*
X8916Y595D01*
X8917Y595D01*
X8917Y595D01*
X8921Y591D01*
X8925Y587D01*
X8928Y583D01*
X8931Y578D01*
X8936Y568D01*
X8939Y559D01*
X8940Y554D01*
X8941Y550D01*
X8943Y546D01*
X8943Y543D01*
X8944Y540D01*
Y538D01*
X8944Y537D01*
Y536D01*
X8895Y532D01*
X8895Y539D01*
X8893Y545D01*
X8892Y551D01*
X8890Y555D01*
X8888Y558D01*
X8887Y561D01*
X8886Y562D01*
X8885Y562D01*
X8882Y565D01*
X8877Y568D01*
X8873Y569D01*
X8869Y571D01*
X8866Y571D01*
X8863Y572D01*
X8860D01*
X8855Y571D01*
X8850Y570D01*
X8846Y569D01*
X8842Y567D01*
X8840Y566D01*
X8838Y564D01*
X8836Y563D01*
X8836Y563D01*
X8833Y559D01*
X8831Y555D01*
X8829Y551D01*
X8828Y547D01*
X8828Y543D01*
X8827Y540D01*
Y538D01*
Y538D01*
Y537D01*
X8828Y532D01*
X8829Y526D01*
X8830Y521D01*
X8832Y517D01*
X8834Y513D01*
X8836Y510D01*
X8837Y508D01*
X8838Y507D01*
X8839Y505D01*
X8841Y502D01*
X8844Y499D01*
X8847Y496D01*
X8854Y489D01*
X8860Y482D01*
X8867Y475D01*
X8870Y472D01*
X8873Y470D01*
X8875Y468D01*
X8877Y467D01*
X8878Y465D01*
X8878Y465D01*
X8886Y458D01*
X8892Y451D01*
X8899Y445D01*
X8904Y440D01*
X8909Y434D01*
X8914Y429D01*
X8918Y424D01*
X8921Y420D01*
X8924Y416D01*
X8927Y413D01*
X8929Y410D01*
X8930Y408D01*
X8932Y406D01*
X8933Y405D01*
X8933Y404D01*
Y404D01*
X8938Y395D01*
X8942Y386D01*
X8945Y378D01*
X8947Y371D01*
X8949Y364D01*
X8949Y361D01*
X8949Y359D01*
X8950Y357D01*
X8950Y356D01*
Y355D01*
Y355D01*
X8778D01*
Y400D01*
X8876D01*
X8873Y405D01*
X8869Y409D01*
X8868Y411D01*
X8867Y413D01*
X8866Y413D01*
X8866Y414D01*
X8864Y415D01*
X8863Y417D01*
X8858Y421D01*
X8853Y426D01*
X8849Y431D01*
X8844Y435D01*
X8840Y439D01*
X8838Y440D01*
X8837Y441D01*
X8836Y442D01*
X8836Y442D01*
X8828Y450D01*
X8821Y456D01*
X8816Y462D01*
X8811Y467D01*
X8808Y470D01*
X8806Y473D01*
X8804Y475D01*
X8804Y475D01*
X8799Y481D01*
X8795Y487D01*
X8792Y493D01*
X8789Y498D01*
X8787Y502D01*
X8785Y505D01*
X8785Y507D01*
X8784Y508D01*
X8782Y514D01*
X8781Y519D01*
X8779Y525D01*
X8779Y530D01*
X8778Y534D01*
X8778Y538D01*
Y540D01*
Y541D01*
X8778Y546D01*
X8779Y552D01*
X8780Y557D01*
X8781Y562D01*
X8785Y570D01*
X8789Y578D01*
X8791Y581D01*
X8793Y583D01*
X8795Y586D01*
X8796Y588D01*
X8798Y589D01*
X8799Y591D01*
X8799Y591D01*
X8800Y592D01*
X8804Y595D01*
X8809Y599D01*
X8813Y601D01*
X8818Y603D01*
X8828Y607D01*
X8838Y610D01*
X8842Y610D01*
X8846Y611D01*
X8850Y612D01*
X8853Y612D01*
X8856Y612D01*
X8859D01*
X8866Y612D01*
D02*
G37*
G36*
X8468D02*
X8473Y612D01*
X8485Y610D01*
X8495Y607D01*
X8499Y605D01*
X8503Y603D01*
X8507Y602D01*
X8510Y600D01*
X8513Y599D01*
X8515Y598D01*
X8517Y596D01*
X8518Y595D01*
X8519Y595D01*
X8519Y595D01*
X8523Y591D01*
X8527Y587D01*
X8530Y583D01*
X8533Y578D01*
X8537Y568D01*
X8541Y559D01*
X8542Y554D01*
X8543Y550D01*
X8544Y546D01*
X8545Y543D01*
X8546Y540D01*
Y538D01*
X8546Y537D01*
Y536D01*
X8497Y532D01*
X8496Y539D01*
X8495Y545D01*
X8493Y551D01*
X8492Y555D01*
X8490Y558D01*
X8489Y561D01*
X8487Y562D01*
X8487Y562D01*
X8483Y565D01*
X8479Y568D01*
X8475Y569D01*
X8471Y571D01*
X8468Y571D01*
X8465Y572D01*
X8462D01*
X8457Y571D01*
X8452Y570D01*
X8448Y569D01*
X8444Y567D01*
X8442Y566D01*
X8439Y564D01*
X8438Y563D01*
X8438Y563D01*
X8435Y559D01*
X8433Y555D01*
X8431Y551D01*
X8430Y547D01*
X8429Y543D01*
X8429Y540D01*
Y538D01*
Y538D01*
Y537D01*
X8429Y532D01*
X8431Y526D01*
X8432Y521D01*
X8434Y517D01*
X8436Y513D01*
X8438Y510D01*
X8439Y508D01*
X8439Y507D01*
X8441Y505D01*
X8443Y502D01*
X8446Y499D01*
X8449Y496D01*
X8456Y489D01*
X8462Y482D01*
X8469Y475D01*
X8472Y472D01*
X8475Y470D01*
X8477Y468D01*
X8479Y467D01*
X8480Y465D01*
X8480Y465D01*
X8487Y458D01*
X8494Y451D01*
X8500Y445D01*
X8506Y440D01*
X8511Y434D01*
X8516Y429D01*
X8520Y424D01*
X8523Y420D01*
X8526Y416D01*
X8529Y413D01*
X8531Y410D01*
X8532Y408D01*
X8534Y406D01*
X8534Y405D01*
X8535Y404D01*
Y404D01*
X8540Y395D01*
X8544Y386D01*
X8547Y378D01*
X8549Y371D01*
X8550Y364D01*
X8551Y361D01*
X8551Y359D01*
X8552Y357D01*
X8552Y356D01*
Y355D01*
Y355D01*
X8380D01*
Y400D01*
X8478D01*
X8475Y405D01*
X8471Y409D01*
X8470Y411D01*
X8469Y413D01*
X8468Y413D01*
X8468Y414D01*
X8466Y415D01*
X8465Y417D01*
X8460Y421D01*
X8455Y426D01*
X8450Y431D01*
X8446Y435D01*
X8442Y439D01*
X8440Y440D01*
X8439Y441D01*
X8438Y442D01*
X8438Y442D01*
X8430Y450D01*
X8423Y456D01*
X8418Y462D01*
X8413Y467D01*
X8410Y470D01*
X8408Y473D01*
X8406Y475D01*
X8406Y475D01*
X8401Y481D01*
X8397Y487D01*
X8394Y493D01*
X8391Y498D01*
X8389Y502D01*
X8387Y505D01*
X8386Y507D01*
X8386Y508D01*
X8384Y514D01*
X8382Y519D01*
X8381Y525D01*
X8381Y530D01*
X8380Y534D01*
X8380Y538D01*
Y540D01*
Y541D01*
X8380Y546D01*
X8381Y552D01*
X8382Y557D01*
X8383Y562D01*
X8387Y570D01*
X8391Y578D01*
X8393Y581D01*
X8395Y583D01*
X8396Y586D01*
X8398Y588D01*
X8400Y589D01*
X8401Y591D01*
X8401Y591D01*
X8402Y592D01*
X8406Y595D01*
X8411Y599D01*
X8415Y601D01*
X8420Y603D01*
X8430Y607D01*
X8439Y610D01*
X8444Y610D01*
X8448Y611D01*
X8452Y612D01*
X8455Y612D01*
X8458Y612D01*
X8461D01*
X8468Y612D01*
D02*
G37*
G36*
X8268D02*
X8274Y612D01*
X8286Y610D01*
X8295Y607D01*
X8300Y605D01*
X8304Y603D01*
X8308Y602D01*
X8311Y600D01*
X8314Y599D01*
X8316Y598D01*
X8318Y596D01*
X8319Y595D01*
X8320Y595D01*
X8320Y595D01*
X8324Y591D01*
X8328Y587D01*
X8331Y583D01*
X8334Y578D01*
X8338Y568D01*
X8342Y559D01*
X8343Y554D01*
X8344Y550D01*
X8345Y546D01*
X8346Y543D01*
X8347Y540D01*
Y538D01*
X8347Y537D01*
Y536D01*
X8298Y532D01*
X8297Y539D01*
X8296Y545D01*
X8294Y551D01*
X8293Y555D01*
X8291Y558D01*
X8290Y561D01*
X8288Y562D01*
X8288Y562D01*
X8284Y565D01*
X8280Y568D01*
X8276Y569D01*
X8272Y571D01*
X8269Y571D01*
X8266Y572D01*
X8263D01*
X8258Y571D01*
X8253Y570D01*
X8249Y569D01*
X8245Y567D01*
X8243Y566D01*
X8240Y564D01*
X8239Y563D01*
X8239Y563D01*
X8236Y559D01*
X8234Y555D01*
X8232Y551D01*
X8231Y547D01*
X8230Y543D01*
X8230Y540D01*
Y538D01*
Y538D01*
Y537D01*
X8230Y532D01*
X8231Y526D01*
X8233Y521D01*
X8235Y517D01*
X8237Y513D01*
X8239Y510D01*
X8240Y508D01*
X8240Y507D01*
X8242Y505D01*
X8244Y502D01*
X8247Y499D01*
X8250Y496D01*
X8257Y489D01*
X8263Y482D01*
X8270Y475D01*
X8273Y472D01*
X8276Y470D01*
X8278Y468D01*
X8280Y467D01*
X8281Y465D01*
X8281Y465D01*
X8288Y458D01*
X8295Y451D01*
X8301Y445D01*
X8307Y440D01*
X8312Y434D01*
X8317Y429D01*
X8321Y424D01*
X8324Y420D01*
X8327Y416D01*
X8330Y413D01*
X8332Y410D01*
X8333Y408D01*
X8335Y406D01*
X8335Y405D01*
X8336Y404D01*
Y404D01*
X8341Y395D01*
X8345Y386D01*
X8348Y378D01*
X8350Y371D01*
X8351Y364D01*
X8352Y361D01*
X8352Y359D01*
X8352Y357D01*
X8353Y356D01*
Y355D01*
Y355D01*
X8181D01*
Y400D01*
X8278D01*
X8275Y405D01*
X8272Y409D01*
X8271Y411D01*
X8270Y413D01*
X8269Y413D01*
X8268Y414D01*
X8267Y415D01*
X8266Y417D01*
X8261Y421D01*
X8256Y426D01*
X8251Y431D01*
X8247Y435D01*
X8243Y439D01*
X8241Y440D01*
X8240Y441D01*
X8239Y442D01*
X8239Y442D01*
X8231Y450D01*
X8224Y456D01*
X8219Y462D01*
X8214Y467D01*
X8211Y470D01*
X8209Y473D01*
X8207Y475D01*
X8207Y475D01*
X8202Y481D01*
X8198Y487D01*
X8194Y493D01*
X8192Y498D01*
X8190Y502D01*
X8188Y505D01*
X8187Y507D01*
X8187Y508D01*
X8185Y514D01*
X8183Y519D01*
X8182Y525D01*
X8182Y530D01*
X8181Y534D01*
X8181Y538D01*
Y540D01*
Y541D01*
X8181Y546D01*
X8182Y552D01*
X8183Y557D01*
X8184Y562D01*
X8188Y570D01*
X8191Y578D01*
X8194Y581D01*
X8196Y583D01*
X8197Y586D01*
X8199Y588D01*
X8201Y589D01*
X8201Y591D01*
X8202Y591D01*
X8203Y592D01*
X8207Y595D01*
X8211Y599D01*
X8216Y601D01*
X8221Y603D01*
X8231Y607D01*
X8240Y610D01*
X8245Y610D01*
X8249Y611D01*
X8253Y612D01*
X8256Y612D01*
X8258Y612D01*
X8262D01*
X8268Y612D01*
D02*
G37*
G36*
X7942D02*
X7950Y611D01*
X7957Y609D01*
X7963Y608D01*
X7969Y605D01*
X7975Y602D01*
X7979Y599D01*
X7984Y597D01*
X7988Y594D01*
X7992Y591D01*
X7995Y588D01*
X7998Y586D01*
X8000Y584D01*
X8001Y582D01*
X8002Y581D01*
X8002Y581D01*
X8007Y575D01*
X8011Y568D01*
X8014Y560D01*
X8017Y552D01*
X8020Y544D01*
X8022Y535D01*
X8024Y526D01*
X8025Y518D01*
X8026Y511D01*
X8027Y503D01*
X8028Y497D01*
X8028Y491D01*
X8028Y486D01*
Y482D01*
Y481D01*
Y480D01*
Y479D01*
Y479D01*
X8028Y467D01*
X8027Y455D01*
X8026Y444D01*
X8024Y435D01*
X8022Y425D01*
X8021Y417D01*
X8018Y410D01*
X8016Y404D01*
X8014Y398D01*
X8011Y393D01*
X8009Y389D01*
X8007Y386D01*
X8006Y383D01*
X8005Y381D01*
X8004Y380D01*
X8004Y380D01*
X7999Y375D01*
X7994Y370D01*
X7988Y366D01*
X7983Y363D01*
X7978Y360D01*
X7972Y357D01*
X7967Y355D01*
X7962Y354D01*
X7957Y353D01*
X7953Y351D01*
X7949Y351D01*
X7946Y350D01*
X7943D01*
X7941Y350D01*
X7940D01*
X7933Y350D01*
X7927Y351D01*
X7921Y352D01*
X7915Y354D01*
X7910Y356D01*
X7905Y357D01*
X7900Y360D01*
X7896Y362D01*
X7893Y364D01*
X7890Y366D01*
X7887Y368D01*
X7884Y370D01*
X7883Y371D01*
X7881Y373D01*
X7881Y373D01*
X7880Y374D01*
X7876Y378D01*
X7873Y383D01*
X7870Y388D01*
X7867Y394D01*
X7864Y399D01*
X7863Y404D01*
X7860Y414D01*
X7859Y419D01*
X7858Y423D01*
X7858Y427D01*
X7857Y430D01*
X7857Y433D01*
Y435D01*
Y437D01*
Y437D01*
X7857Y444D01*
X7858Y450D01*
X7859Y457D01*
X7860Y462D01*
X7862Y468D01*
X7864Y472D01*
X7866Y477D01*
X7868Y481D01*
X7870Y485D01*
X7872Y488D01*
X7874Y491D01*
X7876Y494D01*
X7877Y495D01*
X7878Y497D01*
X7879Y497D01*
X7879Y498D01*
X7883Y502D01*
X7888Y505D01*
X7892Y509D01*
X7897Y511D01*
X7901Y514D01*
X7905Y515D01*
X7914Y518D01*
X7917Y519D01*
X7921Y520D01*
X7924Y521D01*
X7927Y521D01*
X7929Y521D01*
X7932D01*
X7937Y521D01*
X7942Y520D01*
X7946Y519D01*
X7951Y518D01*
X7958Y514D01*
X7965Y511D01*
X7970Y507D01*
X7972Y505D01*
X7974Y503D01*
X7976Y501D01*
X7977Y501D01*
X7977Y500D01*
X7978Y499D01*
X7977Y507D01*
X7976Y515D01*
X7975Y521D01*
X7974Y527D01*
X7973Y532D01*
X7972Y537D01*
X7971Y541D01*
X7969Y545D01*
X7968Y548D01*
X7968Y551D01*
X7967Y553D01*
X7966Y555D01*
X7965Y556D01*
X7964Y557D01*
X7964Y558D01*
X7960Y562D01*
X7955Y566D01*
X7951Y568D01*
X7947Y570D01*
X7943Y571D01*
X7940Y571D01*
X7938Y572D01*
X7938D01*
X7934Y571D01*
X7930Y571D01*
X7926Y569D01*
X7924Y568D01*
X7921Y567D01*
X7920Y566D01*
X7919Y565D01*
X7918Y565D01*
X7916Y562D01*
X7914Y558D01*
X7912Y555D01*
X7911Y551D01*
X7910Y548D01*
X7910Y545D01*
X7909Y544D01*
Y543D01*
X7862Y548D01*
X7864Y559D01*
X7868Y569D01*
X7872Y577D01*
X7876Y584D01*
X7880Y589D01*
X7882Y591D01*
X7884Y593D01*
X7885Y594D01*
X7886Y595D01*
X7886Y596D01*
X7887D01*
X7890Y599D01*
X7894Y601D01*
X7902Y605D01*
X7910Y608D01*
X7918Y610D01*
X7924Y612D01*
X7927Y612D01*
X7930D01*
X7932Y612D01*
X7935D01*
X7942Y612D01*
D02*
G37*
G36*
X8143Y423D02*
X8046D01*
Y472D01*
X8143D01*
Y423D01*
D02*
G37*
G36*
X8668Y612D02*
X8675Y611D01*
X8681Y610D01*
X8687Y608D01*
X8692Y606D01*
X8697Y604D01*
X8701Y602D01*
X8705Y599D01*
X8708Y596D01*
X8711Y594D01*
X8714Y592D01*
X8716Y590D01*
X8718Y588D01*
X8719Y587D01*
X8719Y586D01*
X8720Y586D01*
X8724Y579D01*
X8728Y572D01*
X8731Y564D01*
X8734Y556D01*
X8737Y548D01*
X8739Y539D01*
X8740Y530D01*
X8742Y522D01*
X8742Y514D01*
X8743Y506D01*
X8744Y499D01*
X8744Y493D01*
X8745Y488D01*
Y485D01*
Y483D01*
Y482D01*
Y482D01*
Y481D01*
X8744Y468D01*
X8744Y456D01*
X8742Y444D01*
X8741Y434D01*
X8739Y425D01*
X8738Y416D01*
X8735Y409D01*
X8733Y402D01*
X8731Y397D01*
X8729Y391D01*
X8727Y387D01*
X8725Y384D01*
X8724Y382D01*
X8723Y380D01*
X8722Y379D01*
X8722Y378D01*
X8718Y373D01*
X8713Y369D01*
X8708Y365D01*
X8703Y362D01*
X8698Y359D01*
X8693Y357D01*
X8688Y355D01*
X8683Y354D01*
X8679Y352D01*
X8675Y351D01*
X8671Y351D01*
X8668Y350D01*
X8665D01*
X8663Y350D01*
X8662D01*
X8655Y350D01*
X8649Y351D01*
X8643Y353D01*
X8637Y354D01*
X8632Y356D01*
X8627Y358D01*
X8623Y361D01*
X8619Y363D01*
X8616Y366D01*
X8612Y368D01*
X8610Y370D01*
X8607Y372D01*
X8606Y374D01*
X8605Y375D01*
X8604Y376D01*
X8604Y376D01*
X8599Y383D01*
X8596Y390D01*
X8592Y398D01*
X8589Y406D01*
X8587Y415D01*
X8585Y423D01*
X8583Y432D01*
X8581Y441D01*
X8581Y449D01*
X8580Y456D01*
X8579Y463D01*
X8579Y469D01*
X8579Y474D01*
Y478D01*
Y479D01*
Y480D01*
Y481D01*
Y481D01*
X8579Y494D01*
X8580Y507D01*
X8581Y518D01*
X8583Y528D01*
X8584Y538D01*
X8586Y546D01*
X8589Y554D01*
X8591Y561D01*
X8593Y567D01*
X8596Y572D01*
X8598Y576D01*
X8600Y580D01*
X8601Y582D01*
X8603Y584D01*
X8603Y585D01*
X8604Y586D01*
X8608Y591D01*
X8612Y595D01*
X8617Y598D01*
X8622Y601D01*
X8627Y604D01*
X8631Y606D01*
X8636Y608D01*
X8641Y609D01*
X8645Y610D01*
X8649Y611D01*
X8653Y612D01*
X8655Y612D01*
X8658Y612D01*
X8662D01*
X8668Y612D01*
D02*
G37*
G36*
X9642Y1246D02*
X9637Y1232D01*
X9631Y1220D01*
X9626Y1208D01*
X9622Y1198D01*
X9618Y1191D01*
X9616Y1184D01*
X9615Y1180D01*
X9614Y1180D01*
Y1179D01*
X9751D01*
Y1112D01*
X9417D01*
Y1179D01*
X9574D01*
X9533Y1189D01*
X9539Y1204D01*
X9545Y1217D01*
X9551Y1230D01*
X9556Y1242D01*
X9561Y1252D01*
X9563Y1255D01*
X9565Y1259D01*
X9566Y1262D01*
X9567Y1264D01*
X9568Y1265D01*
Y1266D01*
X9642Y1246D01*
D02*
G37*
G36*
X9327Y1176D02*
X9383D01*
Y1111D01*
X9327D01*
Y1007D01*
X9386Y994D01*
X9381Y918D01*
X9327Y934D01*
Y844D01*
X9328Y837D01*
X9329Y832D01*
X9332Y828D01*
X9335Y825D01*
X9337Y824D01*
X9340Y823D01*
X9368D01*
X9373Y822D01*
X9381D01*
X9378Y809D01*
X9375Y797D01*
X9374Y785D01*
X9372Y775D01*
X9370Y767D01*
X9370Y760D01*
Y758D01*
X9369Y756D01*
Y756D01*
Y755D01*
X9353Y756D01*
X9340Y756D01*
X9328Y757D01*
X9319Y758D01*
X9312Y758D01*
X9307D01*
X9304Y759D01*
X9304D01*
X9296Y760D01*
X9290Y763D01*
X9285Y766D01*
X9280Y769D01*
X9277Y772D01*
X9274Y774D01*
X9273Y776D01*
X9272Y777D01*
X9269Y782D01*
X9266Y789D01*
X9264Y796D01*
X9263Y802D01*
X9262Y809D01*
X9261Y813D01*
Y817D01*
Y818D01*
Y953D01*
X9212Y968D01*
Y978D01*
X9212Y989D01*
Y1000D01*
Y1010D01*
Y1019D01*
Y1026D01*
Y1029D01*
Y1031D01*
Y1032D01*
Y1033D01*
X9206Y1025D01*
X9201Y1017D01*
X9195Y1010D01*
X9191Y1005D01*
X9188Y1000D01*
X9185Y997D01*
X9184Y994D01*
X9183Y994D01*
X9172Y999D01*
X9162Y1006D01*
X9143Y1020D01*
X9127Y1034D01*
X9114Y1049D01*
X9102Y1064D01*
X9092Y1079D01*
X9084Y1095D01*
X9077Y1110D01*
X9073Y1123D01*
X9069Y1136D01*
X9066Y1148D01*
X9064Y1158D01*
X9062Y1167D01*
X9062Y1173D01*
Y1175D01*
Y1177D01*
Y1178D01*
Y1178D01*
X8967D01*
Y1169D01*
Y1159D01*
X8967Y1150D01*
Y1142D01*
Y1136D01*
X8968Y1130D01*
Y1127D01*
Y1126D01*
X8969Y1117D01*
X8970Y1110D01*
X8972Y1103D01*
X8974Y1099D01*
X8976Y1095D01*
X8978Y1093D01*
X8979Y1091D01*
X8980Y1091D01*
X8983Y1088D01*
X8988Y1086D01*
X8997Y1083D01*
X9001Y1082D01*
X9004Y1082D01*
X9029D01*
X9041Y1082D01*
X9061D01*
X9068Y1083D01*
X9074D01*
X9070Y1068D01*
X9066Y1055D01*
X9062Y1043D01*
X9060Y1033D01*
X9058Y1025D01*
X9057Y1020D01*
X9055Y1016D01*
Y1014D01*
X9042D01*
X9030Y1015D01*
X9020D01*
X9009Y1016D01*
X9001D01*
X8993Y1016D01*
X8987D01*
X8981Y1017D01*
X8976D01*
X8971Y1018D01*
X8965D01*
X8963Y1018D01*
X8961D01*
X8953Y1020D01*
X8946Y1022D01*
X8941Y1024D01*
X8935Y1026D01*
X8932Y1028D01*
X8929Y1030D01*
X8927Y1031D01*
X8926Y1031D01*
X8922Y1035D01*
X8917Y1040D01*
X8914Y1044D01*
X8911Y1048D01*
X8909Y1051D01*
X8908Y1055D01*
X8906Y1057D01*
Y1057D01*
X8905Y1060D01*
X8904Y1065D01*
X8902Y1070D01*
X8902Y1076D01*
X8900Y1089D01*
X8899Y1102D01*
X8897Y1114D01*
X8897Y1119D01*
Y1125D01*
Y1128D01*
X8896Y1132D01*
Y1134D01*
Y1134D01*
X8895Y1156D01*
X8893Y1177D01*
X8893Y1196D01*
X8892Y1204D01*
Y1212D01*
X8891Y1219D01*
Y1225D01*
Y1231D01*
X8891Y1235D01*
Y1239D01*
Y1242D01*
Y1243D01*
Y1244D01*
X9199D01*
Y1178D01*
X9134D01*
X9135Y1163D01*
X9138Y1149D01*
X9142Y1135D01*
X9148Y1123D01*
X9155Y1111D01*
X9163Y1101D01*
X9171Y1091D01*
X9180Y1082D01*
X9189Y1075D01*
X9197Y1069D01*
X9205Y1063D01*
X9212Y1058D01*
X9218Y1055D01*
X9223Y1053D01*
X9225Y1051D01*
X9226Y1051D01*
X9215Y1036D01*
X9231Y1031D01*
X9239Y1029D01*
X9246Y1027D01*
X9252Y1026D01*
X9257Y1025D01*
X9260Y1023D01*
X9261D01*
Y1111D01*
X9207D01*
Y1176D01*
X9261D01*
Y1263D01*
X9327D01*
Y1176D01*
D02*
G37*
G36*
X10215Y1199D02*
X10299D01*
X10293Y1214D01*
X10290Y1220D01*
X10288Y1227D01*
X10286Y1232D01*
X10284Y1236D01*
X10283Y1239D01*
X10283Y1240D01*
X10352Y1258D01*
X10363Y1228D01*
X10369Y1214D01*
X10375Y1200D01*
X10382Y1187D01*
X10388Y1175D01*
X10395Y1163D01*
X10401Y1153D01*
X10407Y1143D01*
X10412Y1135D01*
X10417Y1128D01*
X10422Y1121D01*
X10425Y1116D01*
X10428Y1113D01*
X10430Y1110D01*
X10430Y1110D01*
X10421Y1104D01*
X10411Y1099D01*
X10403Y1094D01*
X10395Y1090D01*
X10388Y1086D01*
X10383Y1082D01*
X10381Y1080D01*
X10379Y1080D01*
X10439D01*
Y1018D01*
X9932D01*
Y1080D01*
X10141D01*
Y1137D01*
X9961D01*
Y1199D01*
X10141D01*
Y1265D01*
X10215D01*
Y1199D01*
D02*
G37*
G36*
X8704Y1246D02*
X8721Y1242D01*
X8738Y1241D01*
X8755Y1239D01*
X8770Y1237D01*
X8784Y1235D01*
X8797Y1234D01*
X8810Y1233D01*
X8821Y1231D01*
X8830Y1231D01*
X8838Y1230D01*
X8844D01*
X8849Y1230D01*
X8853D01*
X8850Y1219D01*
X8848Y1207D01*
X8847Y1196D01*
X8845Y1186D01*
X8844Y1177D01*
X8843Y1170D01*
X8843Y1167D01*
Y1165D01*
Y1164D01*
Y1163D01*
X8831Y1164D01*
X8820Y1165D01*
X8809Y1166D01*
X8800Y1167D01*
X8792Y1167D01*
X8786D01*
X8782Y1168D01*
X8781D01*
Y1112D01*
X8853D01*
Y1050D01*
X8794D01*
X8804Y1024D01*
X8815Y1001D01*
X8820Y990D01*
X8825Y980D01*
X8830Y970D01*
X8834Y962D01*
X8839Y954D01*
X8843Y947D01*
X8846Y941D01*
X8849Y936D01*
X8852Y932D01*
X8854Y930D01*
X8854Y928D01*
X8855Y927D01*
X8849Y910D01*
X8845Y894D01*
X8840Y880D01*
X8837Y866D01*
X8834Y855D01*
X8833Y850D01*
X8832Y847D01*
X8831Y843D01*
Y841D01*
X8831Y840D01*
Y839D01*
X8820Y860D01*
X8810Y880D01*
X8802Y898D01*
X8795Y915D01*
X8792Y923D01*
X8789Y930D01*
X8786Y936D01*
X8784Y941D01*
X8783Y945D01*
X8781Y948D01*
X8781Y950D01*
Y752D01*
X8716D01*
Y948D01*
X8702Y932D01*
X8694Y924D01*
X8689Y917D01*
X8683Y911D01*
X8680Y906D01*
X8677Y903D01*
X8676Y902D01*
X8633Y944D01*
Y830D01*
X8678D01*
Y766D01*
X8340D01*
Y830D01*
X8372D01*
Y1239D01*
X8633D01*
Y949D01*
X8647Y963D01*
X8659Y974D01*
X8670Y984D01*
X8680Y992D01*
X8687Y999D01*
X8693Y1003D01*
X8696Y1007D01*
X8698Y1007D01*
X8716Y989D01*
Y1050D01*
X8648D01*
Y1112D01*
X8716D01*
Y1176D01*
X8704Y1178D01*
X8691Y1180D01*
X8680Y1181D01*
X8670Y1183D01*
X8662Y1184D01*
X8656Y1185D01*
X8653Y1186D01*
X8651Y1187D01*
X8650D01*
X8666Y1252D01*
X8704Y1246D01*
D02*
G37*
G36*
X11174Y947D02*
X11021D01*
Y1006D01*
X11174D01*
Y947D01*
D02*
G37*
G36*
X9819Y1233D02*
X9830Y1206D01*
X9839Y1180D01*
X9849Y1156D01*
X9858Y1134D01*
X9867Y1114D01*
X9875Y1096D01*
X9883Y1079D01*
X9890Y1064D01*
X9896Y1052D01*
X9902Y1041D01*
X9907Y1032D01*
X9911Y1025D01*
X9913Y1020D01*
X9915Y1017D01*
X9916Y1016D01*
X9911Y997D01*
X9906Y980D01*
X9902Y965D01*
X9899Y952D01*
X9898Y946D01*
X9896Y942D01*
X9895Y937D01*
X9895Y933D01*
X9894Y931D01*
Y929D01*
X9893Y928D01*
Y927D01*
X9878Y950D01*
X9872Y961D01*
X9866Y972D01*
X9861Y980D01*
X9857Y987D01*
X9856Y990D01*
X9854Y992D01*
X9854Y992D01*
Y752D01*
X9784D01*
Y1137D01*
X9777Y1156D01*
X9769Y1174D01*
X9762Y1191D01*
X9756Y1207D01*
X9753Y1215D01*
X9751Y1221D01*
X9749Y1227D01*
X9747Y1232D01*
X9745Y1236D01*
X9744Y1239D01*
X9744Y1241D01*
Y1241D01*
X9810Y1262D01*
X9819Y1233D01*
D02*
G37*
G36*
X11583Y990D02*
X11583Y975D01*
X11581Y960D01*
X11579Y946D01*
X11576Y933D01*
X11573Y921D01*
X11568Y910D01*
X11564Y900D01*
X11558Y890D01*
X11552Y882D01*
X11546Y873D01*
X11539Y866D01*
X11532Y859D01*
X11518Y848D01*
X11503Y839D01*
X11488Y831D01*
X11473Y826D01*
X11459Y822D01*
X11448Y819D01*
X11437Y818D01*
X11433Y817D01*
X11430D01*
X11426Y817D01*
X11422D01*
X11408Y817D01*
X11393Y819D01*
X11380Y821D01*
X11367Y825D01*
X11356Y828D01*
X11345Y834D01*
X11336Y839D01*
X11326Y845D01*
X11318Y851D01*
X11310Y858D01*
X11303Y865D01*
X11297Y873D01*
X11286Y889D01*
X11277Y906D01*
X11270Y923D01*
X11265Y939D01*
X11261Y954D01*
X11259Y968D01*
X11258Y974D01*
X11257Y979D01*
X11257Y984D01*
X11256Y988D01*
Y991D01*
Y994D01*
Y995D01*
Y996D01*
Y1224D01*
X11342D01*
Y987D01*
X11342Y970D01*
X11345Y955D01*
X11349Y942D01*
X11354Y931D01*
X11360Y921D01*
X11366Y913D01*
X11373Y907D01*
X11380Y902D01*
X11388Y898D01*
X11394Y895D01*
X11400Y893D01*
X11406Y891D01*
X11411Y891D01*
X11415Y890D01*
X11419D01*
X11432Y891D01*
X11445Y895D01*
X11456Y899D01*
X11464Y906D01*
X11472Y913D01*
X11478Y922D01*
X11483Y931D01*
X11488Y941D01*
X11491Y950D01*
X11494Y959D01*
X11495Y967D01*
X11496Y975D01*
X11497Y981D01*
X11498Y986D01*
Y989D01*
Y990D01*
Y1224D01*
X11583D01*
Y990D01*
D02*
G37*
G36*
X9733Y1069D02*
X9728Y1055D01*
X9723Y1039D01*
X9717Y1023D01*
X9712Y1006D01*
X9701Y973D01*
X9696Y957D01*
X9691Y941D01*
X9687Y926D01*
X9683Y913D01*
X9679Y900D01*
X9675Y890D01*
X9673Y882D01*
X9671Y875D01*
X9670Y872D01*
Y871D01*
X9670Y870D01*
Y869D01*
X9598Y892D01*
X9607Y918D01*
X9616Y942D01*
X9623Y964D01*
X9630Y985D01*
X9637Y1003D01*
X9642Y1019D01*
X9647Y1033D01*
X9652Y1045D01*
X9655Y1057D01*
X9659Y1066D01*
X9662Y1073D01*
X9664Y1080D01*
X9666Y1084D01*
X9667Y1088D01*
X9668Y1090D01*
Y1090D01*
X9733Y1069D01*
D02*
G37*
G36*
X11949Y1154D02*
X11835D01*
Y823D01*
X11749D01*
Y1154D01*
X11634D01*
Y1224D01*
X11949D01*
Y1154D01*
D02*
G37*
G36*
X12107Y1230D02*
X12119Y1230D01*
X12131Y1228D01*
X12142Y1226D01*
X12151Y1224D01*
X12161Y1221D01*
X12170Y1218D01*
X12177Y1215D01*
X12184Y1213D01*
X12190Y1209D01*
X12195Y1207D01*
X12199Y1205D01*
X12203Y1202D01*
X12205Y1201D01*
X12207Y1200D01*
X12207Y1200D01*
X12215Y1194D01*
X12221Y1187D01*
X12227Y1180D01*
X12232Y1173D01*
X12236Y1166D01*
X12240Y1159D01*
X12245Y1145D01*
X12247Y1132D01*
X12249Y1126D01*
X12249Y1122D01*
X12250Y1118D01*
Y1115D01*
Y1114D01*
Y1113D01*
X12249Y1099D01*
X12246Y1086D01*
X12242Y1074D01*
X12235Y1062D01*
X12228Y1052D01*
X12220Y1043D01*
X12212Y1034D01*
X12203Y1026D01*
X12194Y1020D01*
X12186Y1014D01*
X12178Y1009D01*
X12171Y1004D01*
X12164Y1001D01*
X12160Y999D01*
X12157Y998D01*
X12156Y997D01*
X12145Y992D01*
X12135Y988D01*
X12127Y984D01*
X12119Y980D01*
X12112Y977D01*
X12106Y974D01*
X12101Y970D01*
X12096Y968D01*
X12093Y966D01*
X12090Y963D01*
X12085Y960D01*
X12083Y958D01*
X12082Y957D01*
X12078Y952D01*
X12074Y946D01*
X12071Y941D01*
X12070Y937D01*
X12069Y933D01*
X12068Y930D01*
Y928D01*
Y927D01*
X12069Y920D01*
X12070Y914D01*
X12074Y909D01*
X12077Y904D01*
X12080Y901D01*
X12083Y898D01*
X12085Y896D01*
X12086Y896D01*
X12093Y892D01*
X12102Y889D01*
X12110Y887D01*
X12119Y885D01*
X12126Y884D01*
X12133Y883D01*
X12139D01*
X12150Y884D01*
X12161Y885D01*
X12172Y887D01*
X12181Y890D01*
X12200Y896D01*
X12209Y900D01*
X12216Y904D01*
X12223Y907D01*
X12230Y911D01*
X12235Y915D01*
X12240Y917D01*
X12244Y920D01*
X12246Y922D01*
X12247Y923D01*
X12248Y924D01*
Y838D01*
X12231Y831D01*
X12212Y826D01*
X12193Y822D01*
X12175Y819D01*
X12167Y819D01*
X12159Y818D01*
X12153Y817D01*
X12147D01*
X12142Y817D01*
X12135D01*
X12122Y817D01*
X12109Y818D01*
X12096Y819D01*
X12085Y821D01*
X12075Y824D01*
X12065Y826D01*
X12057Y829D01*
X12049Y832D01*
X12042Y834D01*
X12036Y837D01*
X12031Y839D01*
X12027Y842D01*
X12024Y844D01*
X12021Y845D01*
X12020Y847D01*
X12019D01*
X12012Y852D01*
X12006Y859D01*
X12001Y866D01*
X11996Y873D01*
X11991Y880D01*
X11988Y887D01*
X11984Y902D01*
X11980Y914D01*
X11980Y920D01*
X11979Y924D01*
X11978Y929D01*
Y931D01*
Y933D01*
Y934D01*
X11979Y948D01*
X11982Y961D01*
X11986Y973D01*
X11990Y983D01*
X11994Y991D01*
X11997Y997D01*
X12000Y1001D01*
X12001Y1002D01*
X12006Y1007D01*
X12011Y1012D01*
X12023Y1023D01*
X12037Y1032D01*
X12050Y1040D01*
X12063Y1046D01*
X12069Y1049D01*
X12073Y1051D01*
X12077Y1053D01*
X12080Y1055D01*
X12082Y1056D01*
X12083D01*
X12092Y1060D01*
X12100Y1064D01*
X12107Y1068D01*
X12115Y1071D01*
X12120Y1074D01*
X12126Y1077D01*
X12130Y1080D01*
X12134Y1082D01*
X12140Y1086D01*
X12144Y1089D01*
X12146Y1091D01*
X12147Y1091D01*
X12151Y1097D01*
X12155Y1101D01*
X12157Y1106D01*
X12158Y1111D01*
X12159Y1114D01*
X12160Y1117D01*
Y1119D01*
Y1120D01*
X12159Y1127D01*
X12157Y1133D01*
X12154Y1138D01*
X12150Y1143D01*
X12147Y1147D01*
X12144Y1149D01*
X12142Y1150D01*
X12141Y1151D01*
X12133Y1155D01*
X12125Y1158D01*
X12117Y1160D01*
X12109Y1161D01*
X12102Y1162D01*
X12096Y1163D01*
X12080D01*
X12071Y1161D01*
X12053Y1158D01*
X12037Y1154D01*
X12023Y1149D01*
X12017Y1147D01*
X12012Y1144D01*
X12007Y1141D01*
X12003Y1139D01*
X12000Y1138D01*
X11998Y1136D01*
X11997Y1136D01*
X11996Y1135D01*
Y1215D01*
X12012Y1220D01*
X12028Y1224D01*
X12045Y1227D01*
X12060Y1229D01*
X12067Y1230D01*
X12074Y1230D01*
X12080D01*
X12085Y1231D01*
X12094D01*
X12107Y1230D01*
D02*
G37*
G36*
X9526Y1045D02*
X9532Y1021D01*
X9539Y998D01*
X9545Y977D01*
X9551Y956D01*
X9557Y936D01*
X9562Y918D01*
X9567Y902D01*
X9572Y887D01*
X9576Y874D01*
X9580Y863D01*
X9583Y854D01*
X9585Y847D01*
X9586Y845D01*
X9587Y843D01*
X9587Y843D01*
Y842D01*
X9762D01*
Y776D01*
X9399D01*
Y842D01*
X9513D01*
X9507Y860D01*
X9501Y877D01*
X9496Y893D01*
X9491Y908D01*
X9486Y922D01*
X9481Y935D01*
X9477Y948D01*
X9473Y960D01*
X9469Y971D01*
X9465Y981D01*
X9462Y991D01*
X9458Y1000D01*
X9456Y1009D01*
X9453Y1016D01*
X9448Y1029D01*
X9444Y1041D01*
X9441Y1050D01*
X9439Y1057D01*
X9437Y1062D01*
X9435Y1066D01*
X9434Y1069D01*
X9434Y1070D01*
Y1071D01*
X9515Y1093D01*
X9526Y1045D01*
D02*
G37*
G36*
X8022Y1226D02*
Y1196D01*
X8024Y1167D01*
X8025Y1141D01*
X8026Y1117D01*
X8028Y1094D01*
X8031Y1074D01*
X8033Y1055D01*
X8035Y1039D01*
X8038Y1025D01*
X8041Y1012D01*
X8043Y1001D01*
X8045Y993D01*
X8046Y986D01*
X8048Y981D01*
X8049Y978D01*
Y977D01*
X8055Y963D01*
X8062Y948D01*
X8070Y933D01*
X8079Y920D01*
X8089Y907D01*
X8100Y895D01*
X8110Y882D01*
X8120Y872D01*
X8131Y861D01*
X8140Y852D01*
X8149Y845D01*
X8157Y838D01*
X8164Y833D01*
X8168Y829D01*
X8171Y826D01*
X8173Y826D01*
X8162Y813D01*
X8153Y801D01*
X8145Y789D01*
X8138Y779D01*
X8132Y770D01*
X8127Y763D01*
X8126Y760D01*
X8125Y758D01*
X8124Y758D01*
Y757D01*
X8103Y778D01*
X8083Y799D01*
X8066Y819D01*
X8051Y839D01*
X8037Y859D01*
X8026Y878D01*
X8015Y896D01*
X8007Y913D01*
X8000Y928D01*
X7995Y942D01*
X7990Y955D01*
X7986Y965D01*
X7984Y974D01*
X7982Y980D01*
X7981Y984D01*
Y985D01*
X7976Y963D01*
X7969Y941D01*
X7961Y920D01*
X7952Y899D01*
X7942Y880D01*
X7932Y861D01*
X7921Y844D01*
X7911Y828D01*
X7901Y813D01*
X7892Y800D01*
X7882Y788D01*
X7875Y779D01*
X7868Y771D01*
X7864Y765D01*
X7860Y762D01*
X7859Y760D01*
X7848Y778D01*
X7838Y793D01*
X7829Y806D01*
X7822Y817D01*
X7816Y825D01*
X7811Y831D01*
X7808Y835D01*
X7807Y836D01*
X7818Y844D01*
X7828Y852D01*
X7838Y860D01*
X7847Y869D01*
X7855Y878D01*
X7862Y886D01*
X7870Y895D01*
X7875Y902D01*
X7881Y909D01*
X7886Y917D01*
X7890Y923D01*
X7893Y928D01*
X7896Y933D01*
X7898Y936D01*
X7899Y938D01*
X7899Y939D01*
X7905Y951D01*
X7910Y964D01*
X7916Y979D01*
X7921Y994D01*
X7929Y1025D01*
X7933Y1040D01*
X7937Y1055D01*
X7940Y1069D01*
X7943Y1082D01*
X7945Y1095D01*
X7947Y1105D01*
X7949Y1114D01*
X7950Y1120D01*
Y1122D01*
X7951Y1124D01*
Y1125D01*
Y1125D01*
X7949Y1147D01*
X7949Y1169D01*
X7948Y1192D01*
X7947Y1213D01*
Y1223D01*
Y1232D01*
X7947Y1240D01*
Y1246D01*
Y1252D01*
Y1257D01*
Y1259D01*
Y1260D01*
X8022D01*
Y1226D01*
D02*
G37*
G36*
X9186Y755D02*
X9117D01*
Y782D01*
X8968D01*
Y755D01*
X8899D01*
Y992D01*
X9186D01*
Y755D01*
D02*
G37*
G36*
X10382Y754D02*
X10311D01*
Y781D01*
X10060D01*
Y754D01*
X9990D01*
Y981D01*
X10382D01*
Y754D01*
D02*
G37*
G36*
X8304Y751D02*
X8236D01*
Y940D01*
X8231Y927D01*
X8227Y915D01*
X8223Y904D01*
X8220Y895D01*
X8218Y888D01*
X8216Y883D01*
X8215Y880D01*
Y878D01*
X8197Y880D01*
X8182Y882D01*
X8168Y885D01*
X8157Y888D01*
X8148Y891D01*
X8141Y895D01*
X8139Y896D01*
X8137Y896D01*
X8137Y897D01*
X8136D01*
X8131Y901D01*
X8125Y905D01*
X8118Y915D01*
X8113Y924D01*
X8109Y935D01*
X8106Y944D01*
X8105Y952D01*
X8105Y955D01*
Y957D01*
Y958D01*
Y959D01*
X8105Y969D01*
X8107Y979D01*
X8109Y989D01*
X8112Y999D01*
X8120Y1016D01*
X8128Y1033D01*
X8133Y1040D01*
X8137Y1046D01*
X8140Y1051D01*
X8144Y1056D01*
X8147Y1060D01*
X8149Y1062D01*
X8151Y1064D01*
X8151Y1065D01*
X8106Y1193D01*
Y1242D01*
X8304D01*
Y751D01*
D02*
G37*
G36*
X10749Y1249D02*
X10743Y1232D01*
X10740Y1224D01*
X10737Y1217D01*
X10734Y1211D01*
X10732Y1206D01*
X10732Y1204D01*
X10731Y1202D01*
X10920D01*
Y1038D01*
Y1009D01*
X10921Y981D01*
X10924Y957D01*
X10927Y933D01*
X10931Y912D01*
X10936Y893D01*
X10941Y876D01*
X10946Y860D01*
X10951Y847D01*
X10957Y836D01*
X10961Y826D01*
X10966Y818D01*
X10970Y812D01*
X10972Y808D01*
X10974Y805D01*
X10975Y804D01*
X10964Y795D01*
X10955Y787D01*
X10948Y780D01*
X10940Y774D01*
X10935Y769D01*
X10930Y764D01*
X10926Y761D01*
X10923Y758D01*
X10920Y755D01*
X10918Y754D01*
X10916Y751D01*
X10915Y750D01*
X10903Y769D01*
X10892Y789D01*
X10883Y810D01*
X10876Y833D01*
X10868Y856D01*
X10863Y880D01*
X10859Y902D01*
X10855Y925D01*
X10852Y946D01*
X10850Y966D01*
X10848Y983D01*
X10848Y991D01*
Y999D01*
X10847Y1005D01*
Y1012D01*
X10846Y1017D01*
Y1021D01*
Y1025D01*
Y1027D01*
Y1029D01*
Y1029D01*
Y1134D01*
X10467D01*
Y1202D01*
X10644D01*
X10647Y1215D01*
X10652Y1226D01*
X10656Y1237D01*
X10659Y1246D01*
X10662Y1255D01*
X10665Y1261D01*
X10666Y1263D01*
X10666Y1265D01*
X10667Y1266D01*
Y1266D01*
X10749Y1249D01*
D02*
G37*
%LPC*%
G36*
X7942Y485D02*
X7940D01*
X7934Y485D01*
X7930Y483D01*
X7925Y481D01*
X7922Y479D01*
X7919Y477D01*
X7917Y475D01*
X7915Y474D01*
X7915Y473D01*
X7912Y468D01*
X7909Y462D01*
X7908Y456D01*
X7906Y450D01*
X7905Y445D01*
X7905Y440D01*
Y439D01*
Y437D01*
Y437D01*
Y436D01*
X7905Y428D01*
X7907Y420D01*
X7908Y414D01*
X7910Y410D01*
X7911Y406D01*
X7913Y403D01*
X7914Y401D01*
X7914Y401D01*
X7918Y398D01*
X7922Y395D01*
X7926Y393D01*
X7929Y392D01*
X7933Y391D01*
X7935Y391D01*
X7937D01*
X7942Y391D01*
X7947Y393D01*
X7951Y395D01*
X7955Y397D01*
X7958Y400D01*
X7961Y402D01*
X7962Y403D01*
X7962Y404D01*
X7966Y409D01*
X7969Y415D01*
X7971Y421D01*
X7972Y427D01*
X7972Y433D01*
X7973Y437D01*
Y438D01*
Y440D01*
Y440D01*
Y441D01*
X7973Y448D01*
X7972Y455D01*
X7970Y461D01*
X7968Y465D01*
X7967Y469D01*
X7965Y471D01*
X7964Y473D01*
X7964Y474D01*
X7960Y477D01*
X7956Y480D01*
X7952Y482D01*
X7948Y484D01*
X7945Y484D01*
X7942Y485D01*
D02*
G37*
G36*
X8663Y572D02*
X8662D01*
X8658Y571D01*
X8655Y571D01*
X8653Y570D01*
X8651Y569D01*
X8649Y568D01*
X8647Y567D01*
X8647Y566D01*
X8646Y566D01*
X8644Y563D01*
X8642Y560D01*
X8640Y556D01*
X8638Y552D01*
X8637Y549D01*
X8636Y546D01*
X8636Y544D01*
X8635Y544D01*
Y543D01*
X8634Y540D01*
X8634Y536D01*
X8633Y531D01*
X8632Y526D01*
X8631Y516D01*
X8631Y506D01*
X8631Y501D01*
Y496D01*
X8630Y492D01*
Y488D01*
Y485D01*
Y483D01*
Y481D01*
Y481D01*
Y473D01*
X8631Y465D01*
Y458D01*
X8631Y452D01*
X8631Y446D01*
X8632Y441D01*
X8633Y436D01*
X8633Y432D01*
X8633Y428D01*
X8634Y425D01*
X8634Y423D01*
X8635Y420D01*
X8635Y419D01*
Y417D01*
X8636Y417D01*
Y417D01*
X8637Y411D01*
X8639Y407D01*
X8641Y404D01*
X8642Y401D01*
X8644Y399D01*
X8645Y397D01*
X8646Y397D01*
X8646Y396D01*
X8649Y394D01*
X8651Y393D01*
X8654Y392D01*
X8657Y391D01*
X8658Y391D01*
X8660Y391D01*
X8662D01*
X8665Y391D01*
X8668Y391D01*
X8671Y393D01*
X8673Y394D01*
X8675Y394D01*
X8676Y396D01*
X8677Y396D01*
X8677Y396D01*
X8680Y399D01*
X8682Y402D01*
X8684Y406D01*
X8685Y410D01*
X8687Y413D01*
X8688Y416D01*
X8688Y418D01*
X8688Y418D01*
X8689Y422D01*
X8690Y426D01*
X8691Y431D01*
X8691Y435D01*
X8692Y446D01*
X8692Y456D01*
X8692Y461D01*
Y466D01*
X8693Y470D01*
Y474D01*
Y477D01*
Y479D01*
Y481D01*
Y481D01*
Y489D01*
X8692Y497D01*
Y504D01*
X8692Y510D01*
X8692Y516D01*
X8691Y521D01*
X8691Y526D01*
X8690Y530D01*
X8690Y534D01*
X8690Y537D01*
X8689Y539D01*
X8689Y542D01*
X8688Y543D01*
Y545D01*
X8688Y545D01*
Y545D01*
X8687Y551D01*
X8685Y555D01*
X8683Y558D01*
X8681Y561D01*
X8680Y563D01*
X8679Y565D01*
X8678Y565D01*
X8678Y566D01*
X8675Y568D01*
X8672Y569D01*
X8670Y570D01*
X8667Y571D01*
X8665Y571D01*
X8663Y572D01*
D02*
G37*
G36*
X10329Y1137D02*
X10215D01*
Y1080D01*
X10364D01*
X10351Y1099D01*
X10345Y1109D01*
X10340Y1118D01*
X10335Y1125D01*
X10332Y1132D01*
X10329Y1136D01*
X10329Y1136D01*
Y1137D01*
D02*
G37*
G36*
X8564Y1174D02*
X8440D01*
Y1102D01*
X8564D01*
Y1174D01*
D02*
G37*
G36*
Y1040D02*
X8440D01*
Y967D01*
X8564D01*
Y1040D01*
D02*
G37*
G36*
Y905D02*
X8440D01*
Y830D01*
X8564D01*
Y905D01*
D02*
G37*
G36*
X9117Y930D02*
X8968D01*
Y844D01*
X9117D01*
Y930D01*
D02*
G37*
G36*
X10311Y917D02*
X10060D01*
Y845D01*
X10311D01*
Y917D01*
D02*
G37*
G36*
X8236Y1182D02*
X8179D01*
X8187Y1158D01*
X8194Y1134D01*
X8198Y1123D01*
X8201Y1114D01*
X8204Y1104D01*
X8207Y1095D01*
X8210Y1087D01*
X8212Y1079D01*
X8214Y1073D01*
X8216Y1068D01*
X8217Y1064D01*
X8219Y1060D01*
X8219Y1058D01*
Y1058D01*
X8211Y1049D01*
X8204Y1040D01*
X8198Y1031D01*
X8192Y1023D01*
X8188Y1015D01*
X8184Y1008D01*
X8181Y1001D01*
X8179Y994D01*
X8177Y988D01*
X8175Y983D01*
X8174Y979D01*
X8173Y975D01*
X8173Y972D01*
Y970D01*
Y969D01*
Y968D01*
X8174Y961D01*
X8177Y957D01*
X8181Y953D01*
X8186Y950D01*
X8190Y949D01*
X8195Y948D01*
X8197Y948D01*
X8212D01*
X8217Y948D01*
X8229D01*
X8232Y949D01*
X8236D01*
Y1182D01*
D02*
G37*
%LPD*%
D17*
X13750Y25950D02*
X15403D01*
X15686Y25164D02*
X16000Y24850D01*
X15686Y25164D02*
Y25667D01*
X15403Y25950D02*
X15686Y25667D01*
X13550Y25750D02*
X13750Y25950D01*
X9400Y25750D02*
X13550D01*
X8900Y25250D02*
X9400Y25750D01*
X9100Y5950D02*
X10607D01*
X10707Y6050D01*
X10750D01*
X14800Y13150D02*
X16690D01*
X17760Y12080D01*
X14502Y12852D02*
X14800Y13150D01*
X14502Y11581D02*
Y12852D01*
X24420Y6450D02*
Y7220D01*
X24600Y7400D02*
X28380D01*
X24420Y7220D02*
X24600Y7400D01*
X1420Y5630D02*
X2240Y6450D01*
X6440D01*
X8800Y8810D01*
X4860Y17300D02*
X9340D01*
X9420Y17220D01*
X7910Y21160D02*
X9500Y22750D01*
Y23560D01*
X10090Y24150D01*
X19753D01*
X19800Y23250D02*
Y24103D01*
X19753Y24150D02*
X19800Y24103D01*
X19200Y22650D02*
X19800Y23250D01*
X19000Y20150D02*
X19480D01*
X18564Y20586D02*
X19000Y20150D01*
X19480D02*
X20880Y21550D01*
X18200Y20650D02*
X18264Y20586D01*
X18564D01*
X17400Y19600D02*
X17950Y20150D01*
X18700D02*
X19200Y19650D01*
X17950Y20150D02*
X18700D01*
X16853Y19600D02*
X17400D01*
X15650Y18900D02*
X17650D01*
X17850Y19100D02*
X19550D01*
X17650Y18900D02*
X17850Y19100D01*
X19550D02*
X22650Y22200D01*
X17719Y19240D02*
X19460D01*
X21550Y21330D01*
X17529Y19050D02*
X17719Y19240D01*
X17785Y19637D02*
X18187D01*
X18200Y19650D01*
X15050Y19800D02*
X15543Y19307D01*
X17455D01*
X17785Y19637D01*
X18750Y14850D02*
X19150Y15250D01*
X18200Y12650D02*
X18750Y13200D01*
Y14850D01*
X16530Y15890D02*
X16740Y16100D01*
X19250D02*
X19600Y16450D01*
X16740Y16100D02*
X19250D01*
X7040Y12330D02*
X9725D01*
X9050Y10070D02*
X10230Y11250D01*
X9050Y8450D02*
Y10070D01*
X8800Y8810D02*
Y10250D01*
X10200Y11650D01*
X28380Y7400D02*
X29483Y6297D01*
X24650Y8250D02*
X24700Y8300D01*
X25900D01*
X24650Y8150D02*
Y8250D01*
X23630Y7130D02*
X24650Y8150D01*
X14850Y20450D02*
X17350D01*
X14347Y19800D02*
X14466Y19919D01*
Y20066D01*
X14850Y20450D01*
X13650Y19750D02*
Y21940D01*
X14502Y19079D02*
X14600Y18981D01*
X14321Y19079D02*
X14502D01*
X13650Y19750D02*
X14321Y19079D01*
X13400Y19450D02*
X14500Y18350D01*
X14890D01*
X13400Y19450D02*
Y20470D01*
X14890Y18350D02*
X15590Y19050D01*
X13096Y19404D02*
X14350Y18150D01*
X14900D02*
X15650Y18900D01*
X14350Y18150D02*
X14900D01*
X23850Y13000D02*
X25997Y15147D01*
X23030Y10810D02*
X23803D01*
X23850Y10857D01*
Y13000D01*
X24211Y14221D02*
X24221D01*
X25650Y15650D02*
X26300D01*
X24221Y14221D02*
X25650Y15650D01*
X25997Y15147D02*
X28150D01*
X26490Y18910D02*
X29639Y18836D01*
X29685Y18790D01*
Y13505D02*
Y18790D01*
X25920Y9740D02*
X29685Y13505D01*
X25900Y18320D02*
X26490Y18910D01*
X12970Y11250D02*
X13150D01*
X13960Y11662D02*
X14048Y11750D01*
X13562Y11662D02*
X13960D01*
X13150Y11250D02*
X13562Y11662D01*
X14048Y11250D02*
X14274D01*
X14362Y11338D02*
Y11441D01*
X14502Y11581D01*
X14274Y11250D02*
X14362Y11338D01*
X13798Y11000D02*
X14048Y11250D01*
X12610Y11000D02*
X13798D01*
X12357Y11253D02*
X12367D01*
X12510Y11110D01*
Y11100D02*
X12610Y11000D01*
X12510Y11100D02*
Y11110D01*
X11145Y12255D02*
X11250Y12150D01*
X11610D02*
X11860Y11900D01*
X11250Y12150D02*
X11610D01*
X18400Y17255D02*
X18700Y17555D01*
Y18150D02*
X19200Y18650D01*
X18700Y17555D02*
Y18150D01*
X15830Y17140D02*
X15945Y17255D01*
X16247Y16650D02*
Y17035D01*
X15945Y17255D02*
X18400D01*
X16550Y16865D02*
X16785Y17100D01*
X19370D02*
X19743Y17473D01*
X16785Y17100D02*
X19370D01*
X13170Y22590D02*
X15040D01*
X15150Y22700D01*
X22195Y20950D02*
X25200D01*
X25550Y21300D02*
Y23079D01*
X25200Y20950D02*
X25550Y21300D01*
X20063Y18818D02*
X22195Y20950D01*
X22065Y21100D02*
X24403D01*
X21968Y21270D02*
X23100D01*
X19923Y18958D02*
X22065Y21100D01*
X20063Y17203D02*
Y18818D01*
X19743Y19045D02*
X21968Y21270D01*
X19743Y17473D02*
Y19045D01*
X22650Y22760D02*
X23760Y23870D01*
X22650Y22200D02*
Y22760D01*
X19923Y17363D02*
Y18958D01*
X23100Y21270D02*
X23450Y21620D01*
X21550Y21330D02*
Y22490D01*
X23225Y24165D01*
X24403Y21100D02*
X24450Y21147D01*
Y22465D01*
X16223Y19623D02*
X16247Y19600D01*
X17518Y19977D02*
X17750Y20209D01*
X16270Y19977D02*
X17518D01*
X16223Y19623D02*
Y19930D01*
X16270Y19977D01*
X17750Y20209D02*
Y20350D01*
X13920Y16460D02*
X14197Y16183D01*
Y17250D01*
Y16183D02*
X14200Y16180D01*
X18167Y17683D02*
X18200Y17650D01*
X12793Y17683D02*
X18167D01*
X15590Y19050D02*
X17529D01*
X12953Y19800D02*
X13096Y19657D01*
Y19404D02*
Y19657D01*
X12953Y20917D02*
X13400Y20470D01*
X3200Y15650D02*
X3550Y16000D01*
Y17850D01*
X5640Y19940D01*
X3950Y19400D02*
X4690D01*
X1688Y17150D02*
X1827Y17289D01*
X1550Y17150D02*
X1688D01*
X1839Y17289D02*
X3950Y19400D01*
X1827Y17289D02*
X1839D01*
X4690Y19400D02*
X5370Y20080D01*
X5710D01*
X16770Y6750D02*
X18600Y8580D01*
X11110Y6750D02*
X16770D01*
X10800Y7060D02*
X11110Y6750D01*
X900Y14995D02*
X1280Y14615D01*
X900Y17420D02*
X3130Y19650D01*
X900Y14995D02*
Y17420D01*
X700Y13110D02*
X1280Y12530D01*
X700Y18070D02*
X2770Y20140D01*
X700Y13110D02*
Y18070D01*
X10230Y11250D02*
X11500D01*
X10750Y6050D02*
X10775D01*
X11175Y6450D01*
X11200D01*
X14350Y7900D02*
X14600Y8150D01*
X14350Y7050D02*
Y7900D01*
X4380Y16820D02*
X4860Y17300D01*
X9420Y17220D02*
X10440D01*
X10030Y17050D02*
X11600D01*
X9800Y16820D02*
X10030Y17050D01*
X11600D02*
X11850Y16800D01*
X9800Y12980D02*
Y16820D01*
X10440Y17220D02*
X10680Y17460D01*
X1550Y25150D02*
X2710Y23990D01*
X9280D01*
X3480Y23770D02*
X9440D01*
X2770Y23060D02*
X3480Y23770D01*
X9440D02*
X9650Y23980D01*
X5550Y21200D02*
Y21750D01*
X4000Y23300D02*
X5550Y21750D01*
X3130Y19650D02*
X4550D01*
X6060Y21160D02*
X7910D01*
X4550Y19650D02*
X6060Y21160D01*
X5640Y19940D02*
X9063D01*
X3920Y17850D02*
X5870Y19800D01*
X9250D01*
X9540Y20090D02*
X10240D01*
X9250Y19800D02*
X9540Y20090D01*
X14140Y14040D02*
X16100D01*
X17805Y12335D01*
Y12335D02*
Y12335D01*
X11040Y10320D02*
X11200D01*
X5850Y19170D02*
X6310D01*
X20064Y4447D02*
X23303D01*
X25920Y9060D02*
X26447Y8533D01*
X25040Y9940D02*
X25920Y9060D01*
X7600Y4550D02*
X16690D01*
X17360Y1410D02*
X18150D01*
X24470Y18300D02*
Y19198D01*
X12204Y16000D02*
Y16115D01*
X10240Y20090D02*
X10600Y20450D01*
Y21620D01*
X11030Y22050D01*
X11200D01*
X11880Y22730D01*
X13030D01*
X13170Y22590D01*
X17340Y23150D02*
X18700D01*
X19200Y23650D01*
X11600Y17250D02*
X12347D01*
X11200Y17650D02*
X11600Y17250D01*
X24050Y24650D02*
X24585Y25185D01*
X26400D01*
X26585Y25000D01*
Y24115D02*
Y25000D01*
X25550Y23079D02*
X26585Y24115D01*
X19810Y16950D02*
X20063Y17203D01*
X19810Y15540D02*
Y16950D01*
X19520Y15250D02*
X19810Y15540D01*
X19150Y15250D02*
X19520D01*
X11200Y10320D02*
Y10650D01*
X10800Y10080D02*
X11040Y10320D01*
X10800Y7060D02*
Y10080D01*
X18600Y8580D02*
Y10910D01*
X18880Y11190D01*
X19630D01*
X19740Y11300D01*
Y12190D01*
X20700Y13150D01*
X22850D01*
Y13980D01*
X23040Y14170D01*
X23340D01*
X25250Y16080D01*
X27130D01*
X28900Y17850D01*
X28150Y18350D02*
X29450D01*
X26870Y17070D02*
X28150Y18350D01*
X26870Y16500D02*
Y17070D01*
X26600Y16230D02*
X26870Y16500D01*
X24910Y16230D02*
X26600D01*
X23020Y14340D02*
X24910Y16230D01*
X21450Y14340D02*
X23020D01*
X19360Y12250D02*
X21450Y14340D01*
X17890Y12250D02*
X19360D01*
X17805Y12335D02*
X17890Y12250D01*
X13453Y13353D02*
X14140Y14040D01*
X13453Y11873D02*
Y13353D01*
X13120Y11540D02*
X13453Y11873D01*
X12030Y11540D02*
X13120D01*
X11540Y11050D02*
X12030Y11540D01*
X10600Y11050D02*
X11540D01*
X10200Y10650D02*
X10600Y11050D01*
X24560Y12910D02*
X26300Y14650D01*
X24560Y10740D02*
Y12910D01*
X24070Y10250D02*
X24560Y10740D01*
X19300Y10250D02*
X24070D01*
X19200Y10150D02*
X19300Y10250D01*
X19200Y13650D02*
X20460D01*
X22143Y15333D01*
X23586D01*
X24903Y16650D01*
X26300D01*
X11700Y21150D02*
X12347D01*
X11200Y20650D02*
X11700Y21150D01*
X13730Y18400D02*
X13820Y18310D01*
X12953Y18400D02*
X13730D01*
X16853D02*
X17950D01*
X18200Y18650D01*
X22694Y11294D02*
Y12350D01*
X22150Y10750D02*
X22694Y11294D01*
X17760Y12080D02*
X19388D01*
X21056Y13748D01*
X22150D01*
X14197Y12399D02*
Y13550D01*
X14048Y12250D02*
X14197Y12399D01*
X9725Y12330D02*
X9800Y12255D01*
X11145D01*
X11860Y11900D02*
X12953D01*
Y12200D01*
X25920Y9060D02*
Y9740D01*
X25900Y17780D02*
Y18320D01*
X25522Y17402D02*
X25900Y17780D01*
X24739Y17402D02*
X25522D01*
X8130Y20590D02*
Y20730D01*
Y20590D02*
X8273Y20447D01*
X8500D01*
X25600Y24650D02*
X26050D01*
X25515Y24365D02*
X25600Y24650D01*
X23450Y22300D02*
X25515Y24365D01*
X23450Y21620D02*
Y22300D01*
X16550Y16203D02*
Y16865D01*
X16247Y15900D02*
X16550Y16203D01*
X16247Y15450D02*
Y15900D01*
X15880Y18400D02*
X16247D01*
X15700Y18580D02*
X15880Y18400D01*
X29483Y6297D02*
X30550D01*
X12347Y17993D02*
Y18400D01*
Y17993D02*
X12490Y17850D01*
X23760Y23870D02*
X24570D01*
X12953Y14650D02*
Y14900D01*
X12803Y15050D02*
X12953Y14900D01*
X11040Y15050D02*
X12803D01*
X10700Y14710D02*
X11040Y15050D01*
X1930Y12530D02*
X2550Y13150D01*
X1280Y12530D02*
X1930D01*
X2770Y20140D02*
Y23060D01*
X9650Y23980D02*
Y24820D01*
X9880Y25050D01*
X10800D01*
X12953Y15757D02*
Y16000D01*
Y15757D02*
X13040Y15670D01*
X14720D01*
X26447Y7800D02*
Y8533D01*
X23850Y9940D02*
X25040D01*
X23190Y9280D02*
X23850Y9940D01*
X21420Y9280D02*
X23190D01*
X16690Y4550D02*
X21420Y9280D01*
X7600Y4300D02*
Y4550D01*
X23303Y4447D02*
X25550D01*
X23090Y4660D02*
X23303Y4447D01*
X23090Y4660D02*
Y7129D01*
X24861Y8900D01*
Y9400D01*
X24470Y19198D02*
X24739D01*
X18150Y1410D02*
Y1553D01*
X23225Y24165D02*
X24815D01*
X12953Y20917D02*
Y21150D01*
X16853Y20850D02*
X17400D01*
X17640Y21090D01*
X18760D01*
X19200Y20650D01*
X12953Y12934D02*
Y13550D01*
X27776Y15640D02*
Y16053D01*
X16247Y20850D02*
Y21447D01*
X16247Y14350D02*
Y14790D01*
X16530Y15073D01*
Y15890D01*
X19600Y16450D02*
Y17040D01*
X19923Y17363D01*
X24450Y22465D02*
X26445Y24460D01*
Y24840D01*
X26240Y25045D02*
X26445Y24840D01*
X25445Y25045D02*
X26240D01*
X25050Y24650D02*
X25445Y25045D01*
X14953Y19800D02*
X15050D01*
X22650Y12660D02*
X24211Y14221D01*
X21430Y12660D02*
X22650D01*
X21350Y12580D02*
X21430Y12660D01*
X21350Y12050D02*
Y12580D01*
X19950Y10650D02*
X21350Y12050D01*
X19200Y10650D02*
X19950D01*
X12790Y16460D02*
X13920D01*
X14200Y15953D02*
Y16180D01*
X20650Y9750D02*
X22150D01*
X20150Y9250D02*
X20650Y9750D01*
X19010Y9250D02*
X20150D01*
X18800Y9460D02*
X19010Y9250D01*
X18800Y9460D02*
Y10810D01*
X19040Y11050D01*
X19930D01*
X21044Y12164D01*
Y12350D01*
X16942Y14650D02*
X18200D01*
X16853Y14561D02*
X16942Y14650D01*
X16853Y14350D02*
Y14561D01*
X11500Y11250D02*
X11990Y11740D01*
X13120D01*
X13283Y11903D01*
Y13443D01*
X14080Y14240D01*
X15490D01*
X15830Y14580D01*
Y17140D01*
X12650Y17540D02*
X12793Y17683D01*
X12650Y16970D02*
Y17540D01*
X12480Y16800D02*
X12650Y16970D01*
X11850Y16800D02*
X12480D01*
X9370Y12550D02*
X9800Y12980D01*
X4160Y12550D02*
X9370D01*
X3060Y13650D02*
X4160Y12550D01*
X2050Y13650D02*
X3060D01*
X1550Y13150D02*
X2050Y13650D01*
X1550Y15150D02*
X2050Y15650D01*
X3200D01*
X9063Y19940D02*
X9463Y20340D01*
Y20913D01*
X10200Y21650D01*
X2085Y14615D02*
X2550Y14150D01*
X1280Y14615D02*
X2085D01*
X5710Y20080D02*
X6320Y20690D01*
X10735Y12115D02*
X11200Y11650D01*
X8445Y12115D02*
X10735D01*
X4415Y8085D02*
X8445Y12115D01*
X10680Y18130D02*
X11200Y18650D01*
X10680Y17460D02*
Y18130D01*
X4380Y16035D02*
Y16820D01*
X3100Y14755D02*
X4380Y16035D01*
X1386Y14755D02*
X3100D01*
X1155Y14986D02*
X1386Y14755D01*
X1155Y14986D02*
Y15755D01*
X1550Y16150D01*
X16853Y16650D02*
X17409D01*
X17805Y16255D01*
X19120D01*
X19200Y16335D01*
Y16650D01*
X11200Y13650D02*
X11907Y14357D01*
X12513D01*
X12610Y14260D01*
Y13550D02*
Y14260D01*
X12347Y13550D02*
X12610D01*
X5850Y18490D02*
Y19170D01*
X26239Y9400D02*
X26560D01*
X27053Y8907D01*
Y7800D02*
Y8907D01*
X13143Y22447D02*
X13650Y21940D01*
X12150Y22447D02*
X13143D01*
X19851Y4660D02*
Y5600D01*
Y4660D02*
X20064Y4447D01*
X12204Y16000D02*
X12347D01*
X10735Y16115D02*
X12204D01*
X10200Y16650D02*
X10735Y16115D01*
X23630Y5600D02*
Y7130D01*
X17620Y15650D02*
X18200D01*
X17420Y15450D02*
X17620Y15650D01*
X16853Y15450D02*
X17420D01*
X11840Y19800D02*
X12347D01*
X11690Y19650D02*
X11840Y19800D01*
X11200Y19650D02*
X11690D01*
X11200Y14650D02*
X12347D01*
X16853Y20850D02*
Y22050D01*
X13253Y10750D02*
X14048D01*
X13150Y10647D02*
X13253Y10750D01*
X12357Y10647D02*
X13150D01*
X16847Y11503D02*
X17200D01*
X16600Y11750D02*
X16847Y11503D01*
X16252Y11750D02*
X16600D01*
X30550Y5453D02*
Y6297D01*
D22*
X16853Y16650D02*
D03*
X16247D02*
D03*
X12347Y13550D02*
D03*
X12953D02*
D03*
X12953Y14650D02*
D03*
X12347D02*
D03*
X16853Y20850D02*
D03*
X16247D02*
D03*
X16853Y22050D02*
D03*
X16247D02*
D03*
X12347Y19800D02*
D03*
X12953D02*
D03*
X12953Y21150D02*
D03*
X12347D02*
D03*
X26447Y7800D02*
D03*
X27053D02*
D03*
X28247Y4650D02*
D03*
X28853D02*
D03*
X21650Y12350D02*
D03*
X21044D02*
D03*
X16853Y18400D02*
D03*
X16247D02*
D03*
X23300Y12350D02*
D03*
X22694D02*
D03*
X14803Y13550D02*
D03*
X14197D02*
D03*
X14508Y3830D02*
D03*
X13902D02*
D03*
X12347Y17250D02*
D03*
X12953D02*
D03*
X14197D02*
D03*
X14803D02*
D03*
X12347Y12200D02*
D03*
X12953D02*
D03*
X12953Y24500D02*
D03*
X12347D02*
D03*
X16247Y15450D02*
D03*
X16853D02*
D03*
X16247Y14350D02*
D03*
X16853D02*
D03*
X16853Y19600D02*
D03*
X16247D02*
D03*
X12953Y18400D02*
D03*
X12347D02*
D03*
X12347Y16000D02*
D03*
X12953D02*
D03*
X14953Y19800D02*
D03*
X14347D02*
D03*
D46*
X12350Y12850D02*
Y12870D01*
X12347Y12200D02*
Y12847D01*
X12350Y12850D01*
X16950Y10250D02*
Y10647D01*
X17200Y10897D01*
X13902Y2952D02*
Y3830D01*
X13800Y2850D02*
X13902Y2952D01*
X15290Y23760D02*
X15507D01*
X16247Y23020D01*
Y22050D02*
Y23020D01*
X13883Y25460D02*
X14720D01*
X12953Y24530D02*
X13883Y25460D01*
X12953Y24500D02*
Y24530D01*
X29280Y7383D02*
Y9750D01*
Y7383D02*
X29760Y6903D01*
X30550D01*
X22150Y15952D02*
X22492Y16294D01*
X23244D01*
X23250Y16300D01*
X23300Y12350D02*
Y12850D01*
X21683Y11976D02*
Y12317D01*
Y11976D02*
X21859Y11800D01*
X22100D01*
X21650Y12350D02*
X21683Y12317D01*
X18150Y947D02*
X18697D01*
X18700Y950D01*
X12150Y23053D02*
Y23500D01*
X12347Y24500D02*
Y25047D01*
X12350Y25050D01*
X8500Y21053D02*
X8503Y21050D01*
X8950D01*
X8500Y22953D02*
X8503Y22950D01*
X8950D01*
X7850Y18490D02*
Y19550D01*
D47*
X15150Y12450D02*
X15450Y12750D01*
X6850Y17600D02*
Y18390D01*
X6900Y18440D01*
X6850Y18490D02*
X6900Y18440D01*
X14803Y16653D02*
Y17250D01*
Y13550D02*
X15450D01*
X12953Y16753D02*
Y17250D01*
X27450Y4350D02*
X27750Y4650D01*
X13902Y3830D02*
X14508D01*
X15150Y11500D02*
Y12450D01*
X14800Y16650D02*
X14803Y16653D01*
X12950Y16750D02*
X12953Y16753D01*
X15850Y22050D02*
X16247D01*
X12953Y24500D02*
X13003Y24550D01*
X13400D01*
X7545Y22347D02*
X8500D01*
X7192Y22700D02*
X7545Y22347D01*
X7100Y22700D02*
X7192D01*
X30550Y6903D02*
X31053D01*
X31150Y7000D01*
X25550Y5625D02*
Y6197D01*
Y5053D02*
Y5625D01*
X27750Y4650D02*
X28247D01*
X28524Y16053D02*
X28527Y16050D01*
Y15623D02*
Y16050D01*
D48*
X14130Y9050D02*
X14150D01*
X13500D02*
X14130D01*
X14150D02*
X14900D01*
X12750D02*
X13500D01*
X12000Y7700D02*
Y8300D01*
Y7350D02*
Y7700D01*
Y8300D02*
X12750Y9050D01*
X16252Y10402D02*
Y10750D01*
D49*
X2550Y13150D02*
D03*
X26300Y12650D02*
D03*
X7100Y20700D02*
D03*
X9500Y4950D02*
D03*
X1550Y20350D02*
D03*
X4000Y20300D02*
D03*
D50*
X1550Y13150D02*
D03*
X2550Y14150D02*
D03*
X1550D02*
D03*
X2550Y15150D02*
D03*
X1550D02*
D03*
X2550Y16150D02*
D03*
X1550D02*
D03*
X2550Y17150D02*
D03*
X1550D02*
D03*
X22050Y22300D02*
D03*
X23050D02*
D03*
X24050D02*
D03*
X25050D02*
D03*
X26050D02*
D03*
X27050D02*
D03*
X28050D02*
D03*
X21050Y24650D02*
D03*
X22050D02*
D03*
X23050D02*
D03*
X24050D02*
D03*
X25050D02*
D03*
X26050D02*
D03*
X27050D02*
D03*
X14600Y18981D02*
D03*
Y20950D02*
D03*
X26300Y13650D02*
D03*
Y14650D02*
D03*
Y15650D02*
D03*
Y16650D02*
D03*
Y17650D02*
D03*
X7100Y21700D02*
D03*
Y22700D02*
D03*
X9500Y1950D02*
D03*
Y2950D02*
D03*
Y3950D02*
D03*
X19200Y20650D02*
D03*
X18200D02*
D03*
X19200Y19650D02*
D03*
X18200D02*
D03*
X19200Y18650D02*
D03*
X18200D02*
D03*
X19200Y17650D02*
D03*
X18200D02*
D03*
X19200Y24650D02*
D03*
X18200D02*
D03*
X19200Y23650D02*
D03*
X18200D02*
D03*
X19200Y22650D02*
D03*
X18200D02*
D03*
X19200Y21650D02*
D03*
X18200D02*
D03*
X10200Y24650D02*
D03*
X11200D02*
D03*
X10200Y23650D02*
D03*
X11200D02*
D03*
X10200Y22650D02*
D03*
X11200D02*
D03*
X10200Y21650D02*
D03*
X11200D02*
D03*
X10200Y20650D02*
D03*
X11200D02*
D03*
X10200Y19650D02*
D03*
X11200D02*
D03*
X10200Y18650D02*
D03*
X11200D02*
D03*
X10200Y17650D02*
D03*
X11200D02*
D03*
X10200Y16650D02*
D03*
X11200D02*
D03*
X10200Y15650D02*
D03*
X11200D02*
D03*
X10200Y14650D02*
D03*
X11200D02*
D03*
X10200Y13650D02*
D03*
X11200D02*
D03*
X10200Y12650D02*
D03*
X11200D02*
D03*
X10200Y11650D02*
D03*
X11200D02*
D03*
X10200Y10650D02*
D03*
X11200D02*
D03*
X10200Y9650D02*
D03*
X11200D02*
D03*
X18200Y13650D02*
D03*
X19200D02*
D03*
X18200Y14650D02*
D03*
X19200D02*
D03*
X18200Y15650D02*
D03*
X19200D02*
D03*
X18200Y16650D02*
D03*
X19200D02*
D03*
X18200Y9650D02*
D03*
X19200D02*
D03*
X18200Y10650D02*
D03*
X19200D02*
D03*
X18200Y11650D02*
D03*
X19200D02*
D03*
X18200Y12650D02*
D03*
X19200D02*
D03*
X2550Y25150D02*
D03*
X1550D02*
D03*
Y23350D02*
D03*
Y22350D02*
D03*
Y21350D02*
D03*
X4000Y23300D02*
D03*
Y22300D02*
D03*
Y21300D02*
D03*
D51*
X21050Y22300D02*
D03*
X28050Y24650D02*
D03*
X3550Y25150D02*
D03*
D52*
X7058Y25761D02*
D03*
X7272Y25297D02*
D03*
X7172Y24795D02*
D03*
X6796Y24448D02*
D03*
X6288Y24388D02*
D03*
X5842Y24639D02*
D03*
X5628Y25103D02*
D03*
X5728Y25605D02*
D03*
X6104Y25952D02*
D03*
X6612Y26012D02*
D03*
X30658Y25761D02*
D03*
X30872Y25297D02*
D03*
X30772Y24795D02*
D03*
X30396Y24448D02*
D03*
X29888Y24388D02*
D03*
X29442Y24639D02*
D03*
X29228Y25103D02*
D03*
X29328Y25605D02*
D03*
X29704Y25952D02*
D03*
X30212Y26012D02*
D03*
X7008Y2109D02*
D03*
X7222Y1645D02*
D03*
X7122Y1143D02*
D03*
X6746Y796D02*
D03*
X6238Y736D02*
D03*
X5792Y987D02*
D03*
X5578Y1451D02*
D03*
X5678Y1953D02*
D03*
X6054Y2300D02*
D03*
X6562Y2360D02*
D03*
X30608Y2109D02*
D03*
X30822Y1645D02*
D03*
X30722Y1143D02*
D03*
X30346Y796D02*
D03*
X29838Y736D02*
D03*
X29392Y987D02*
D03*
X29178Y1451D02*
D03*
X29278Y1953D02*
D03*
X29654Y2300D02*
D03*
X30162Y2360D02*
D03*
D53*
X6450Y25200D02*
D03*
X30050D02*
D03*
X6400Y1548D02*
D03*
X30000D02*
D03*
D54*
X7600Y4300D02*
D03*
X5513D02*
D03*
D55*
X27200Y1700D02*
D03*
X25200D02*
D03*
D56*
X19851Y5600D02*
D03*
X21741D02*
D03*
X23630D02*
D03*
D57*
X22150Y10750D02*
D03*
Y9750D02*
D03*
D58*
Y8750D02*
D03*
D59*
X22650Y1250D02*
D03*
Y2250D02*
D03*
X19650Y1250D02*
D03*
D60*
Y2250D02*
D03*
D61*
X8900Y25250D02*
D03*
X16000Y24850D02*
D03*
X17500Y14200D02*
D03*
X9100Y5950D02*
D03*
X15450Y12750D02*
D03*
X7040Y12330D02*
D03*
X27300Y8850D02*
D03*
X9050Y8450D02*
D03*
X27050Y8500D02*
D03*
X25900Y8300D02*
D03*
X25200Y6750D02*
D03*
Y7050D02*
D03*
X12350Y12870D02*
D03*
X12970Y11250D02*
D03*
X16247Y17035D02*
D03*
X17340Y23150D02*
D03*
X15150Y22700D02*
D03*
X17350Y20450D02*
D03*
X17750Y20350D02*
D03*
X16180Y10200D02*
D03*
X30400Y11800D02*
D03*
X30804Y10254D02*
D03*
X27400Y5550D02*
D03*
X26750Y4150D02*
D03*
X23300Y12850D02*
D03*
X23030Y10810D02*
D03*
X16950Y10250D02*
D03*
X8550Y10100D02*
D03*
X11200Y6450D02*
D03*
X10750Y6050D02*
D03*
X14600Y8150D02*
D03*
X14350Y7050D02*
D03*
X12650Y2800D02*
D03*
X6850Y17600D02*
D03*
X5550Y21200D02*
D03*
X3920Y17850D02*
D03*
X4415Y8085D02*
D03*
X13800Y2850D02*
D03*
X14613Y867D02*
D03*
X13390Y22810D02*
D03*
X28900Y17850D02*
D03*
X29450Y18350D02*
D03*
X19200Y10150D02*
D03*
X4370Y14634D02*
D03*
X13820Y18310D02*
D03*
X8130Y20730D02*
D03*
X15700Y18580D02*
D03*
X15960Y7330D02*
D03*
X24420Y6450D02*
D03*
X12490Y17850D02*
D03*
X24570Y23870D02*
D03*
X10700Y14710D02*
D03*
X25920Y4710D02*
D03*
X9280Y23990D02*
D03*
X10800Y25050D02*
D03*
X19650Y9030D02*
D03*
X14720Y15670D02*
D03*
X24470Y18300D02*
D03*
X17360Y1410D02*
D03*
X24815Y24165D02*
D03*
X12953Y12934D02*
D03*
X27690Y10830D02*
D03*
X27776Y15640D02*
D03*
X16247Y21447D02*
D03*
X12790Y16460D02*
D03*
X6320Y20690D02*
D03*
X20880Y21550D02*
D03*
X1420Y5630D02*
D03*
X6310Y19170D02*
D03*
X4970Y9000D02*
D03*
X14720Y4980D02*
D03*
X9200Y12850D02*
D03*
X24960Y10350D02*
D03*
X15290Y23760D02*
D03*
X14720Y25460D02*
D03*
X29280Y9750D02*
D03*
X26884Y12150D02*
D03*
X11300Y26000D02*
D03*
X9800Y25350D02*
D03*
X16770Y1225D02*
D03*
X23244Y16294D02*
D03*
X22100Y11800D02*
D03*
X25800Y10000D02*
D03*
X27450Y4350D02*
D03*
X18700Y950D02*
D03*
X12347Y25047D02*
D03*
X12150Y23500D02*
D03*
X8950Y22950D02*
D03*
Y21050D02*
D03*
X2312Y2589D02*
D03*
X2350Y1150D02*
D03*
X4150Y7100D02*
D03*
X7850Y19550D02*
D03*
X4650Y17500D02*
D03*
X18200Y2750D02*
D03*
X16650D02*
D03*
X15400Y2800D02*
D03*
X11100Y2850D02*
D03*
X15400Y4900D02*
D03*
X13800D02*
D03*
X31200Y6050D02*
D03*
X15450Y13550D02*
D03*
X14800Y16650D02*
D03*
X12950Y16750D02*
D03*
X13400Y24550D02*
D03*
X15850Y22050D02*
D03*
X7800Y15500D02*
D03*
X7100D02*
D03*
X6400D02*
D03*
X5700Y15550D02*
D03*
X8200Y15050D02*
D03*
X7400D02*
D03*
X6800D02*
D03*
X6050D02*
D03*
X5400D02*
D03*
X2300Y8600D02*
D03*
X6750Y9100D02*
D03*
X1450Y7650D02*
D03*
X31150Y7000D02*
D03*
X25550Y5625D02*
D03*
X24450Y9550D02*
D03*
X23300Y13950D02*
D03*
X28527Y15623D02*
D03*
X30400Y16900D02*
D03*
X14400Y14750D02*
D03*
X13900D02*
D03*
X14900Y9050D02*
D03*
X12000Y7350D02*
D03*
X20450Y14600D02*
D03*
X20650Y15300D02*
D03*
X20300Y15100D02*
D03*
X27550Y17350D02*
D03*
D72*
X22150Y15952D02*
D03*
Y13748D02*
D03*
D73*
X22161Y18300D02*
D03*
D74*
X24739Y17402D02*
D03*
Y19198D02*
D03*
D75*
X16252Y10750D02*
D03*
Y11250D02*
D03*
Y11750D02*
D03*
Y12250D02*
D03*
X14048D02*
D03*
Y11750D02*
D03*
Y11250D02*
D03*
Y10750D02*
D03*
D76*
X15150Y11500D02*
D03*
D77*
X6850Y14850D02*
D03*
D78*
X5850Y18490D02*
D03*
D79*
X6850D02*
D03*
X7850D02*
D03*
D80*
X12150Y23053D02*
D03*
Y22447D02*
D03*
X8500Y21053D02*
D03*
Y20447D02*
D03*
X17200Y11503D02*
D03*
Y10897D02*
D03*
X25550Y6803D02*
D03*
Y6197D02*
D03*
X8500Y22347D02*
D03*
Y22953D02*
D03*
X30550Y6297D02*
D03*
Y6903D02*
D03*
X12357Y10647D02*
D03*
Y11253D02*
D03*
X30550Y5453D02*
D03*
Y4847D02*
D03*
X25550Y5053D02*
D03*
Y4447D02*
D03*
X14200Y15347D02*
D03*
Y15953D02*
D03*
X18150Y947D02*
D03*
Y1553D02*
D03*
D81*
X27776Y16053D02*
D03*
X28524D02*
D03*
X28150Y15147D02*
D03*
D82*
X24861Y9400D02*
D03*
X26239D02*
D03*
M02*
