G04*
G04 #@! TF.GenerationSoftware,Altium Limited,Altium Designer,20.0.13 (296)*
G04*
G04 Layer_Color=8421504*
%FSLAX24Y24*%
%MOIN*%
G70*
G01*
G75*
%ADD22R,0.0366X0.0386*%
%ADD23R,0.0472X0.0276*%
%ADD24R,0.1299X0.0402*%
%ADD25R,0.1063X0.0394*%
%ADD26R,0.0866X0.0689*%
%ADD27R,0.0315X0.0335*%
D22*
X17531Y5200D02*
D03*
X18137D02*
D03*
X14653Y7490D02*
D03*
X14047D02*
D03*
X11127Y5300D02*
D03*
X11733D02*
D03*
D23*
X16613Y3117D02*
D03*
X18187D02*
D03*
Y3983D02*
D03*
X16613D02*
D03*
X13825Y5217D02*
D03*
X15400D02*
D03*
Y6083D02*
D03*
X13825D02*
D03*
X11063Y3117D02*
D03*
X12637D02*
D03*
Y3983D02*
D03*
X11063D02*
D03*
X13825Y3983D02*
D03*
X15400D02*
D03*
Y3117D02*
D03*
X13825D02*
D03*
Y1733D02*
D03*
X15400D02*
D03*
Y867D02*
D03*
X13825D02*
D03*
D24*
X7675Y7100D02*
D03*
X5825D02*
D03*
X7675Y8100D02*
D03*
X5825D02*
D03*
X7675Y9100D02*
D03*
X5825D02*
D03*
X7675Y10100D02*
D03*
X5825D02*
D03*
X1425Y4150D02*
D03*
X3275D02*
D03*
X1425Y3150D02*
D03*
X3275D02*
D03*
X1425Y2150D02*
D03*
X3275D02*
D03*
X1425Y1150D02*
D03*
X3275D02*
D03*
X1425Y10100D02*
D03*
X3275D02*
D03*
X1425Y9100D02*
D03*
X3275D02*
D03*
X1425Y8100D02*
D03*
X3275D02*
D03*
X1425Y7100D02*
D03*
X3275D02*
D03*
X30375Y11150D02*
D03*
X28525D02*
D03*
X30375Y12150D02*
D03*
X28525D02*
D03*
X30375Y13150D02*
D03*
X28525D02*
D03*
Y19350D02*
D03*
X30375D02*
D03*
X28525Y18350D02*
D03*
X30375D02*
D03*
X28525Y17350D02*
D03*
X30375D02*
D03*
X28525Y7550D02*
D03*
X30375D02*
D03*
X28525Y6550D02*
D03*
X30375D02*
D03*
X28525Y5550D02*
D03*
X30375D02*
D03*
D25*
X23281Y14650D02*
D03*
X20919D02*
D03*
X26781Y10000D02*
D03*
X24419D02*
D03*
X5519Y13250D02*
D03*
X7881D02*
D03*
X5669Y17500D02*
D03*
X8031D02*
D03*
D26*
X11395Y7250D02*
D03*
X9505D02*
D03*
D27*
X17360Y1800D02*
D03*
X16770D02*
D03*
X17360Y650D02*
D03*
X16770D02*
D03*
M02*
