G04*
G04 #@! TF.GenerationSoftware,Altium Limited,Altium Designer,20.0.13 (296)*
G04*
G04 Layer_Color=32768*
%FSLAX24Y24*%
%MOIN*%
G70*
G01*
G75*
%ADD11C,0.0079*%
%ADD100C,0.0039*%
%ADD102C,0.0020*%
%ADD103C,0.0000*%
D11*
X22391Y14850D02*
G03*
X22391Y14850I-241J0D01*
G01*
D100*
X22061Y5600D02*
G03*
X22061Y5600I-320J0D01*
G01*
X20750Y16540D02*
X23550D01*
Y13160D02*
Y16540D01*
X20750Y13160D02*
X23550D01*
X20750D02*
Y16540D01*
X22150Y14456D02*
Y15244D01*
X21756Y14850D02*
X22544D01*
X23007Y18103D02*
Y18497D01*
X22810Y18300D02*
X23204D01*
X20645Y16765D02*
X25369D01*
X20645Y19835D02*
X25369D01*
X20645Y16765D02*
Y19835D01*
X25369Y16765D02*
Y19835D01*
X28150Y15403D02*
Y15797D01*
X27953Y15600D02*
X28347D01*
X10253Y7250D02*
X10647D01*
X10450Y7053D02*
Y7447D01*
X24516Y4006D02*
Y7195D01*
X18965D02*
X24516D01*
X18965Y4006D02*
Y7195D01*
Y4006D02*
X24516D01*
X21150Y5600D02*
X22331D01*
X21741Y5009D02*
Y6191D01*
D102*
X15288Y11500D02*
G03*
X15288Y11500I-138J0D01*
G01*
X25688Y9400D02*
G03*
X25688Y9400I-138J0D01*
G01*
X17163Y1800D02*
G03*
X17163Y1800I-98J0D01*
G01*
Y650D02*
G03*
X17163Y650I-98J0D01*
G01*
X20368Y16185D02*
X23832D01*
Y13115D02*
Y16185D01*
X20368Y13115D02*
X23832D01*
X20368D02*
Y16185D01*
X14953Y11500D02*
X15347D01*
X15150Y11303D02*
Y11697D01*
X13496Y10319D02*
Y12681D01*
Y10319D02*
X16804D01*
Y12681D01*
X13496D02*
X16804D01*
X27461Y16348D02*
X28839D01*
X27461Y14852D02*
X28839D01*
X27461D02*
Y16348D01*
X28839Y14852D02*
Y16348D01*
X24585Y9046D02*
X26515D01*
X24585Y9754D02*
X26515D01*
X25550Y9203D02*
Y9597D01*
X25353Y9400D02*
X25747D01*
X26515Y9046D02*
Y9754D01*
X24585Y9046D02*
Y9754D01*
X27332Y8465D02*
Y11535D01*
X23868D02*
X27332D01*
X23868Y8465D02*
Y11535D01*
Y8465D02*
X27332D01*
X4968Y11715D02*
Y14785D01*
Y11715D02*
X8432D01*
Y14785D01*
X4968D02*
X8432D01*
X5118Y15965D02*
Y19035D01*
Y15965D02*
X8582D01*
Y19035D01*
X5118D02*
X8582D01*
X11798Y6600D02*
Y7900D01*
X9102Y6600D02*
Y7900D01*
X11798D01*
X9102Y6600D02*
X11798D01*
X16505Y1550D02*
X17625D01*
Y2050D01*
X16505D02*
X17625D01*
X16505Y1550D02*
Y2050D01*
X17065Y1663D02*
Y1939D01*
X16928Y1800D02*
X17204D01*
X16505Y400D02*
X17625D01*
Y900D01*
X16505D02*
X17625D01*
X16505Y400D02*
Y900D01*
X17065Y513D02*
Y789D01*
X16928Y650D02*
X17204D01*
X21048Y7726D02*
X23331D01*
Y11703D01*
X21048D02*
X23331D01*
X21048Y7726D02*
Y11703D01*
D103*
X14363Y10526D02*
Y12474D01*
Y10526D02*
X15937D01*
Y12474D01*
X14363D02*
X15937D01*
X24989Y9046D02*
X26111D01*
X24989Y9754D02*
X26111D01*
Y9046D02*
Y9754D01*
X24989Y9046D02*
Y9754D01*
X16710Y1623D02*
X17419D01*
Y1977D01*
X16710D02*
X17419D01*
X16710Y1623D02*
Y1977D01*
X16710Y473D02*
X17419D01*
Y827D01*
X16710D02*
X17419D01*
X16710Y473D02*
Y827D01*
M02*
