G04*
G04 #@! TF.GenerationSoftware,Altium Limited,Altium Designer,20.0.13 (296)*
G04*
G04 Layer_Color=128*
%FSLAX24Y24*%
%MOIN*%
G70*
G01*
G75*
%ADD22R,0.0366X0.0386*%
%ADD72R,0.1181X0.0984*%
%ADD73R,0.2638X0.2165*%
%ADD74R,0.0866X0.0374*%
%ADD75R,0.0709X0.0256*%
%ADD76R,0.0984X0.1339*%
G04:AMPARAMS|DCode=77|XSize=425.2mil|YSize=433.1mil|CornerRadius=21.3mil|HoleSize=0mil|Usage=FLASHONLY|Rotation=0.000|XOffset=0mil|YOffset=0mil|HoleType=Round|Shape=RoundedRectangle|*
%AMROUNDEDRECTD77*
21,1,0.4252,0.3906,0,0,0.0*
21,1,0.3827,0.4331,0,0,0.0*
1,1,0.0425,0.1913,-0.1953*
1,1,0.0425,-0.1913,-0.1953*
1,1,0.0425,-0.1913,0.1953*
1,1,0.0425,0.1913,0.1953*
%
%ADD77ROUNDEDRECTD77*%
%ADD78R,0.0421X0.1378*%
G04:AMPARAMS|DCode=79|XSize=42.1mil|YSize=137.8mil|CornerRadius=10.5mil|HoleSize=0mil|Usage=FLASHONLY|Rotation=0.000|XOffset=0mil|YOffset=0mil|HoleType=Round|Shape=RoundedRectangle|*
%AMROUNDEDRECTD79*
21,1,0.0421,0.1167,0,0,0.0*
21,1,0.0211,0.1378,0,0,0.0*
1,1,0.0211,0.0105,-0.0584*
1,1,0.0211,-0.0105,-0.0584*
1,1,0.0211,-0.0105,0.0584*
1,1,0.0211,0.0105,0.0584*
%
%ADD79ROUNDEDRECTD79*%
%ADD80R,0.0386X0.0366*%
%ADD81R,0.0256X0.0413*%
%ADD82R,0.0394X0.0335*%
D22*
X16853Y16650D02*
D03*
X16247D02*
D03*
X12347Y13550D02*
D03*
X12953D02*
D03*
X12953Y14650D02*
D03*
X12347D02*
D03*
X16853Y20850D02*
D03*
X16247D02*
D03*
X16853Y22050D02*
D03*
X16247D02*
D03*
X12347Y19800D02*
D03*
X12953D02*
D03*
X12953Y21150D02*
D03*
X12347D02*
D03*
X26447Y7800D02*
D03*
X27053D02*
D03*
X28247Y4650D02*
D03*
X28853D02*
D03*
X21650Y12350D02*
D03*
X21044D02*
D03*
X16853Y18400D02*
D03*
X16247D02*
D03*
X23300Y12350D02*
D03*
X22694D02*
D03*
X14803Y13550D02*
D03*
X14197D02*
D03*
X14508Y3830D02*
D03*
X13902D02*
D03*
X12347Y17250D02*
D03*
X12953D02*
D03*
X14197D02*
D03*
X14803D02*
D03*
X12347Y12200D02*
D03*
X12953D02*
D03*
X12953Y24500D02*
D03*
X12347D02*
D03*
X16247Y15450D02*
D03*
X16853D02*
D03*
X16247Y14350D02*
D03*
X16853D02*
D03*
X16853Y19600D02*
D03*
X16247D02*
D03*
X12953Y18400D02*
D03*
X12347D02*
D03*
X12347Y16000D02*
D03*
X12953D02*
D03*
X14953Y19800D02*
D03*
X14347D02*
D03*
D72*
X22150Y15952D02*
D03*
Y13748D02*
D03*
D73*
X22161Y18300D02*
D03*
D74*
X24739Y17402D02*
D03*
Y19198D02*
D03*
D75*
X16252Y10750D02*
D03*
Y11250D02*
D03*
Y11750D02*
D03*
Y12250D02*
D03*
X14048D02*
D03*
Y11750D02*
D03*
Y11250D02*
D03*
Y10750D02*
D03*
D76*
X15150Y11500D02*
D03*
D77*
X6850Y14850D02*
D03*
D78*
X5850Y18490D02*
D03*
D79*
X6850D02*
D03*
X7850D02*
D03*
D80*
X12150Y23053D02*
D03*
Y22447D02*
D03*
X8500Y21053D02*
D03*
Y20447D02*
D03*
X17200Y11503D02*
D03*
Y10897D02*
D03*
X25550Y6803D02*
D03*
Y6197D02*
D03*
X8500Y22347D02*
D03*
Y22953D02*
D03*
X30550Y6297D02*
D03*
Y6903D02*
D03*
X12357Y10647D02*
D03*
Y11253D02*
D03*
X30550Y5453D02*
D03*
Y4847D02*
D03*
X25550Y5053D02*
D03*
Y4447D02*
D03*
X14200Y15347D02*
D03*
Y15953D02*
D03*
X18150Y947D02*
D03*
Y1553D02*
D03*
D81*
X27776Y16053D02*
D03*
X28524D02*
D03*
X28150Y15147D02*
D03*
D82*
X24861Y9400D02*
D03*
X26239D02*
D03*
M02*
