G04*
G04 #@! TF.GenerationSoftware,Altium Limited,Altium Designer,20.0.13 (296)*
G04*
G04 Layer_Color=16711935*
%FSLAX24Y24*%
%MOIN*%
G70*
G01*
G75*
%ADD28R,0.0446X0.0466*%
%ADD34R,0.0671X0.0671*%
%ADD35C,0.0671*%
%ADD36R,0.0671X0.0671*%
%ADD37C,0.0310*%
%ADD38C,0.2080*%
G04:AMPARAMS|DCode=39|XSize=244.2mil|YSize=165.5mil|CornerRadius=43.4mil|HoleSize=0mil|Usage=FLASHONLY|Rotation=270.000|XOffset=0mil|YOffset=0mil|HoleType=Round|Shape=RoundedRectangle|*
%AMROUNDEDRECTD39*
21,1,0.2442,0.0787,0,0,270.0*
21,1,0.1575,0.1655,0,0,270.0*
1,1,0.0867,-0.0394,-0.0787*
1,1,0.0867,-0.0394,0.0787*
1,1,0.0867,0.0394,0.0787*
1,1,0.0867,0.0394,-0.0787*
%
%ADD39ROUNDEDRECTD39*%
%ADD40O,0.0867X0.1261*%
%ADD41R,0.0921X0.1433*%
%ADD42C,0.0789*%
%ADD43R,0.0789X0.0789*%
%ADD44C,0.0671*%
%ADD45R,0.0671X0.0671*%
%ADD83R,0.1261X0.1064*%
%ADD84R,0.2718X0.2245*%
%ADD85R,0.0946X0.0454*%
%ADD86R,0.0789X0.0336*%
%ADD87R,0.1064X0.1419*%
G04:AMPARAMS|DCode=88|XSize=433.2mil|YSize=441.1mil|CornerRadius=25.3mil|HoleSize=0mil|Usage=FLASHONLY|Rotation=0.000|XOffset=0mil|YOffset=0mil|HoleType=Round|Shape=RoundedRectangle|*
%AMROUNDEDRECTD88*
21,1,0.4332,0.3906,0,0,0.0*
21,1,0.3827,0.4411,0,0,0.0*
1,1,0.0505,0.1913,-0.1953*
1,1,0.0505,-0.1913,-0.1953*
1,1,0.0505,-0.1913,0.1953*
1,1,0.0505,0.1913,0.1953*
%
%ADD88ROUNDEDRECTD88*%
%ADD89R,0.0501X0.1458*%
G04:AMPARAMS|DCode=90|XSize=50.1mil|YSize=145.8mil|CornerRadius=14.5mil|HoleSize=0mil|Usage=FLASHONLY|Rotation=0.000|XOffset=0mil|YOffset=0mil|HoleType=Round|Shape=RoundedRectangle|*
%AMROUNDEDRECTD90*
21,1,0.0501,0.1167,0,0,0.0*
21,1,0.0211,0.1458,0,0,0.0*
1,1,0.0291,0.0105,-0.0584*
1,1,0.0291,-0.0105,-0.0584*
1,1,0.0291,-0.0105,0.0584*
1,1,0.0291,0.0105,0.0584*
%
%ADD90ROUNDEDRECTD90*%
%ADD91R,0.0466X0.0446*%
%ADD92R,0.0336X0.0493*%
%ADD93R,0.0474X0.0415*%
G36*
X8866Y612D02*
X8872Y612D01*
X8883Y610D01*
X8893Y607D01*
X8897Y605D01*
X8901Y603D01*
X8905Y602D01*
X8908Y600D01*
X8911Y599D01*
X8913Y598D01*
X8915Y596D01*
X8916Y595D01*
X8917Y595D01*
X8917Y595D01*
X8921Y591D01*
X8925Y587D01*
X8928Y583D01*
X8931Y578D01*
X8936Y568D01*
X8939Y559D01*
X8940Y554D01*
X8941Y550D01*
X8943Y546D01*
X8943Y543D01*
X8944Y540D01*
Y538D01*
X8944Y537D01*
Y536D01*
X8895Y532D01*
X8895Y539D01*
X8893Y545D01*
X8892Y551D01*
X8890Y555D01*
X8888Y558D01*
X8887Y561D01*
X8886Y562D01*
X8885Y562D01*
X8882Y565D01*
X8877Y568D01*
X8873Y569D01*
X8869Y571D01*
X8866Y571D01*
X8863Y572D01*
X8860D01*
X8855Y571D01*
X8850Y570D01*
X8846Y569D01*
X8842Y567D01*
X8840Y566D01*
X8838Y564D01*
X8836Y563D01*
X8836Y563D01*
X8833Y559D01*
X8831Y555D01*
X8829Y551D01*
X8828Y547D01*
X8828Y543D01*
X8827Y540D01*
Y538D01*
Y538D01*
Y537D01*
X8828Y532D01*
X8829Y526D01*
X8830Y521D01*
X8832Y517D01*
X8834Y513D01*
X8836Y510D01*
X8837Y508D01*
X8838Y507D01*
X8839Y505D01*
X8841Y502D01*
X8844Y499D01*
X8847Y496D01*
X8854Y489D01*
X8860Y482D01*
X8867Y475D01*
X8870Y472D01*
X8873Y470D01*
X8875Y468D01*
X8877Y467D01*
X8878Y465D01*
X8878Y465D01*
X8886Y458D01*
X8892Y451D01*
X8899Y445D01*
X8904Y440D01*
X8909Y434D01*
X8914Y429D01*
X8918Y424D01*
X8921Y420D01*
X8924Y416D01*
X8927Y413D01*
X8929Y410D01*
X8930Y408D01*
X8932Y406D01*
X8933Y405D01*
X8933Y404D01*
Y404D01*
X8938Y395D01*
X8942Y386D01*
X8945Y378D01*
X8947Y371D01*
X8949Y364D01*
X8949Y361D01*
X8949Y359D01*
X8950Y357D01*
X8950Y356D01*
Y355D01*
Y355D01*
X8778D01*
Y400D01*
X8876D01*
X8873Y405D01*
X8869Y409D01*
X8868Y411D01*
X8867Y413D01*
X8866Y413D01*
X8866Y414D01*
X8864Y415D01*
X8863Y417D01*
X8858Y421D01*
X8853Y426D01*
X8849Y431D01*
X8844Y435D01*
X8840Y439D01*
X8838Y440D01*
X8837Y441D01*
X8836Y442D01*
X8836Y442D01*
X8828Y450D01*
X8821Y456D01*
X8816Y462D01*
X8811Y467D01*
X8808Y470D01*
X8806Y473D01*
X8804Y475D01*
X8804Y475D01*
X8799Y481D01*
X8795Y487D01*
X8792Y493D01*
X8789Y498D01*
X8787Y502D01*
X8785Y505D01*
X8785Y507D01*
X8784Y508D01*
X8782Y514D01*
X8781Y519D01*
X8779Y525D01*
X8779Y530D01*
X8778Y534D01*
X8778Y538D01*
Y540D01*
Y541D01*
X8778Y546D01*
X8779Y552D01*
X8780Y557D01*
X8781Y562D01*
X8785Y570D01*
X8789Y578D01*
X8791Y581D01*
X8793Y583D01*
X8795Y586D01*
X8796Y588D01*
X8798Y589D01*
X8799Y591D01*
X8799Y591D01*
X8800Y592D01*
X8804Y595D01*
X8809Y599D01*
X8813Y601D01*
X8818Y603D01*
X8828Y607D01*
X8838Y610D01*
X8842Y610D01*
X8846Y611D01*
X8850Y612D01*
X8853Y612D01*
X8856Y612D01*
X8859D01*
X8866Y612D01*
D02*
G37*
G36*
X8468D02*
X8473Y612D01*
X8485Y610D01*
X8495Y607D01*
X8499Y605D01*
X8503Y603D01*
X8507Y602D01*
X8510Y600D01*
X8513Y599D01*
X8515Y598D01*
X8517Y596D01*
X8518Y595D01*
X8519Y595D01*
X8519Y595D01*
X8523Y591D01*
X8527Y587D01*
X8530Y583D01*
X8533Y578D01*
X8537Y568D01*
X8541Y559D01*
X8542Y554D01*
X8543Y550D01*
X8544Y546D01*
X8545Y543D01*
X8546Y540D01*
Y538D01*
X8546Y537D01*
Y536D01*
X8497Y532D01*
X8496Y539D01*
X8495Y545D01*
X8493Y551D01*
X8492Y555D01*
X8490Y558D01*
X8489Y561D01*
X8487Y562D01*
X8487Y562D01*
X8483Y565D01*
X8479Y568D01*
X8475Y569D01*
X8471Y571D01*
X8468Y571D01*
X8465Y572D01*
X8462D01*
X8457Y571D01*
X8452Y570D01*
X8448Y569D01*
X8444Y567D01*
X8442Y566D01*
X8439Y564D01*
X8438Y563D01*
X8438Y563D01*
X8435Y559D01*
X8433Y555D01*
X8431Y551D01*
X8430Y547D01*
X8429Y543D01*
X8429Y540D01*
Y538D01*
Y538D01*
Y537D01*
X8429Y532D01*
X8431Y526D01*
X8432Y521D01*
X8434Y517D01*
X8436Y513D01*
X8438Y510D01*
X8439Y508D01*
X8439Y507D01*
X8441Y505D01*
X8443Y502D01*
X8446Y499D01*
X8449Y496D01*
X8456Y489D01*
X8462Y482D01*
X8469Y475D01*
X8472Y472D01*
X8475Y470D01*
X8477Y468D01*
X8479Y467D01*
X8480Y465D01*
X8480Y465D01*
X8487Y458D01*
X8494Y451D01*
X8500Y445D01*
X8506Y440D01*
X8511Y434D01*
X8516Y429D01*
X8520Y424D01*
X8523Y420D01*
X8526Y416D01*
X8529Y413D01*
X8531Y410D01*
X8532Y408D01*
X8534Y406D01*
X8534Y405D01*
X8535Y404D01*
Y404D01*
X8540Y395D01*
X8544Y386D01*
X8547Y378D01*
X8549Y371D01*
X8550Y364D01*
X8551Y361D01*
X8551Y359D01*
X8552Y357D01*
X8552Y356D01*
Y355D01*
Y355D01*
X8380D01*
Y400D01*
X8478D01*
X8475Y405D01*
X8471Y409D01*
X8470Y411D01*
X8469Y413D01*
X8468Y413D01*
X8468Y414D01*
X8466Y415D01*
X8465Y417D01*
X8460Y421D01*
X8455Y426D01*
X8450Y431D01*
X8446Y435D01*
X8442Y439D01*
X8440Y440D01*
X8439Y441D01*
X8438Y442D01*
X8438Y442D01*
X8430Y450D01*
X8423Y456D01*
X8418Y462D01*
X8413Y467D01*
X8410Y470D01*
X8408Y473D01*
X8406Y475D01*
X8406Y475D01*
X8401Y481D01*
X8397Y487D01*
X8394Y493D01*
X8391Y498D01*
X8389Y502D01*
X8387Y505D01*
X8386Y507D01*
X8386Y508D01*
X8384Y514D01*
X8382Y519D01*
X8381Y525D01*
X8381Y530D01*
X8380Y534D01*
X8380Y538D01*
Y540D01*
Y541D01*
X8380Y546D01*
X8381Y552D01*
X8382Y557D01*
X8383Y562D01*
X8387Y570D01*
X8391Y578D01*
X8393Y581D01*
X8395Y583D01*
X8396Y586D01*
X8398Y588D01*
X8400Y589D01*
X8401Y591D01*
X8401Y591D01*
X8402Y592D01*
X8406Y595D01*
X8411Y599D01*
X8415Y601D01*
X8420Y603D01*
X8430Y607D01*
X8439Y610D01*
X8444Y610D01*
X8448Y611D01*
X8452Y612D01*
X8455Y612D01*
X8458Y612D01*
X8461D01*
X8468Y612D01*
D02*
G37*
G36*
X8268D02*
X8274Y612D01*
X8286Y610D01*
X8295Y607D01*
X8300Y605D01*
X8304Y603D01*
X8308Y602D01*
X8311Y600D01*
X8314Y599D01*
X8316Y598D01*
X8318Y596D01*
X8319Y595D01*
X8320Y595D01*
X8320Y595D01*
X8324Y591D01*
X8328Y587D01*
X8331Y583D01*
X8334Y578D01*
X8338Y568D01*
X8342Y559D01*
X8343Y554D01*
X8344Y550D01*
X8345Y546D01*
X8346Y543D01*
X8347Y540D01*
Y538D01*
X8347Y537D01*
Y536D01*
X8298Y532D01*
X8297Y539D01*
X8296Y545D01*
X8294Y551D01*
X8293Y555D01*
X8291Y558D01*
X8290Y561D01*
X8288Y562D01*
X8288Y562D01*
X8284Y565D01*
X8280Y568D01*
X8276Y569D01*
X8272Y571D01*
X8269Y571D01*
X8266Y572D01*
X8263D01*
X8258Y571D01*
X8253Y570D01*
X8249Y569D01*
X8245Y567D01*
X8243Y566D01*
X8240Y564D01*
X8239Y563D01*
X8239Y563D01*
X8236Y559D01*
X8234Y555D01*
X8232Y551D01*
X8231Y547D01*
X8230Y543D01*
X8230Y540D01*
Y538D01*
Y538D01*
Y537D01*
X8230Y532D01*
X8231Y526D01*
X8233Y521D01*
X8235Y517D01*
X8237Y513D01*
X8239Y510D01*
X8240Y508D01*
X8240Y507D01*
X8242Y505D01*
X8244Y502D01*
X8247Y499D01*
X8250Y496D01*
X8257Y489D01*
X8263Y482D01*
X8270Y475D01*
X8273Y472D01*
X8276Y470D01*
X8278Y468D01*
X8280Y467D01*
X8281Y465D01*
X8281Y465D01*
X8288Y458D01*
X8295Y451D01*
X8301Y445D01*
X8307Y440D01*
X8312Y434D01*
X8317Y429D01*
X8321Y424D01*
X8324Y420D01*
X8327Y416D01*
X8330Y413D01*
X8332Y410D01*
X8333Y408D01*
X8335Y406D01*
X8335Y405D01*
X8336Y404D01*
Y404D01*
X8341Y395D01*
X8345Y386D01*
X8348Y378D01*
X8350Y371D01*
X8351Y364D01*
X8352Y361D01*
X8352Y359D01*
X8352Y357D01*
X8353Y356D01*
Y355D01*
Y355D01*
X8181D01*
Y400D01*
X8278D01*
X8275Y405D01*
X8272Y409D01*
X8271Y411D01*
X8270Y413D01*
X8269Y413D01*
X8268Y414D01*
X8267Y415D01*
X8266Y417D01*
X8261Y421D01*
X8256Y426D01*
X8251Y431D01*
X8247Y435D01*
X8243Y439D01*
X8241Y440D01*
X8240Y441D01*
X8239Y442D01*
X8239Y442D01*
X8231Y450D01*
X8224Y456D01*
X8219Y462D01*
X8214Y467D01*
X8211Y470D01*
X8209Y473D01*
X8207Y475D01*
X8207Y475D01*
X8202Y481D01*
X8198Y487D01*
X8194Y493D01*
X8192Y498D01*
X8190Y502D01*
X8188Y505D01*
X8187Y507D01*
X8187Y508D01*
X8185Y514D01*
X8183Y519D01*
X8182Y525D01*
X8182Y530D01*
X8181Y534D01*
X8181Y538D01*
Y540D01*
Y541D01*
X8181Y546D01*
X8182Y552D01*
X8183Y557D01*
X8184Y562D01*
X8188Y570D01*
X8191Y578D01*
X8194Y581D01*
X8196Y583D01*
X8197Y586D01*
X8199Y588D01*
X8201Y589D01*
X8201Y591D01*
X8202Y591D01*
X8203Y592D01*
X8207Y595D01*
X8211Y599D01*
X8216Y601D01*
X8221Y603D01*
X8231Y607D01*
X8240Y610D01*
X8245Y610D01*
X8249Y611D01*
X8253Y612D01*
X8256Y612D01*
X8258Y612D01*
X8262D01*
X8268Y612D01*
D02*
G37*
G36*
X7942D02*
X7950Y611D01*
X7957Y609D01*
X7963Y608D01*
X7969Y605D01*
X7975Y602D01*
X7979Y599D01*
X7984Y597D01*
X7988Y594D01*
X7992Y591D01*
X7995Y588D01*
X7998Y586D01*
X8000Y584D01*
X8001Y582D01*
X8002Y581D01*
X8002Y581D01*
X8007Y575D01*
X8011Y568D01*
X8014Y560D01*
X8017Y552D01*
X8020Y544D01*
X8022Y535D01*
X8024Y526D01*
X8025Y518D01*
X8026Y511D01*
X8027Y503D01*
X8028Y497D01*
X8028Y491D01*
X8028Y486D01*
Y482D01*
Y481D01*
Y480D01*
Y479D01*
Y479D01*
X8028Y467D01*
X8027Y455D01*
X8026Y444D01*
X8024Y435D01*
X8022Y425D01*
X8021Y417D01*
X8018Y410D01*
X8016Y404D01*
X8014Y398D01*
X8011Y393D01*
X8009Y389D01*
X8007Y386D01*
X8006Y383D01*
X8005Y381D01*
X8004Y380D01*
X8004Y380D01*
X7999Y375D01*
X7994Y370D01*
X7988Y366D01*
X7983Y363D01*
X7978Y360D01*
X7972Y357D01*
X7967Y355D01*
X7962Y354D01*
X7957Y353D01*
X7953Y351D01*
X7949Y351D01*
X7946Y350D01*
X7943D01*
X7941Y350D01*
X7940D01*
X7933Y350D01*
X7927Y351D01*
X7921Y352D01*
X7915Y354D01*
X7910Y356D01*
X7905Y357D01*
X7900Y360D01*
X7896Y362D01*
X7893Y364D01*
X7890Y366D01*
X7887Y368D01*
X7884Y370D01*
X7883Y371D01*
X7881Y373D01*
X7881Y373D01*
X7880Y374D01*
X7876Y378D01*
X7873Y383D01*
X7870Y388D01*
X7867Y394D01*
X7864Y399D01*
X7863Y404D01*
X7860Y414D01*
X7859Y419D01*
X7858Y423D01*
X7858Y427D01*
X7857Y430D01*
X7857Y433D01*
Y435D01*
Y437D01*
Y437D01*
X7857Y444D01*
X7858Y450D01*
X7859Y457D01*
X7860Y462D01*
X7862Y468D01*
X7864Y472D01*
X7866Y477D01*
X7868Y481D01*
X7870Y485D01*
X7872Y488D01*
X7874Y491D01*
X7876Y494D01*
X7877Y495D01*
X7878Y497D01*
X7879Y497D01*
X7879Y498D01*
X7883Y502D01*
X7888Y505D01*
X7892Y509D01*
X7897Y511D01*
X7901Y514D01*
X7905Y515D01*
X7914Y518D01*
X7917Y519D01*
X7921Y520D01*
X7924Y521D01*
X7927Y521D01*
X7929Y521D01*
X7932D01*
X7937Y521D01*
X7942Y520D01*
X7946Y519D01*
X7951Y518D01*
X7958Y514D01*
X7965Y511D01*
X7970Y507D01*
X7972Y505D01*
X7974Y503D01*
X7976Y501D01*
X7977Y501D01*
X7977Y500D01*
X7978Y499D01*
X7977Y507D01*
X7976Y515D01*
X7975Y521D01*
X7974Y527D01*
X7973Y532D01*
X7972Y537D01*
X7971Y541D01*
X7969Y545D01*
X7968Y548D01*
X7968Y551D01*
X7967Y553D01*
X7966Y555D01*
X7965Y556D01*
X7964Y557D01*
X7964Y558D01*
X7960Y562D01*
X7955Y566D01*
X7951Y568D01*
X7947Y570D01*
X7943Y571D01*
X7940Y571D01*
X7938Y572D01*
X7938D01*
X7934Y571D01*
X7930Y571D01*
X7926Y569D01*
X7924Y568D01*
X7921Y567D01*
X7920Y566D01*
X7919Y565D01*
X7918Y565D01*
X7916Y562D01*
X7914Y558D01*
X7912Y555D01*
X7911Y551D01*
X7910Y548D01*
X7910Y545D01*
X7909Y544D01*
Y543D01*
X7862Y548D01*
X7864Y559D01*
X7868Y569D01*
X7872Y577D01*
X7876Y584D01*
X7880Y589D01*
X7882Y591D01*
X7884Y593D01*
X7885Y594D01*
X7886Y595D01*
X7886Y596D01*
X7887D01*
X7890Y599D01*
X7894Y601D01*
X7902Y605D01*
X7910Y608D01*
X7918Y610D01*
X7924Y612D01*
X7927Y612D01*
X7930D01*
X7932Y612D01*
X7935D01*
X7942Y612D01*
D02*
G37*
G36*
X8143Y423D02*
X8046D01*
Y472D01*
X8143D01*
Y423D01*
D02*
G37*
G36*
X8668Y612D02*
X8675Y611D01*
X8681Y610D01*
X8687Y608D01*
X8692Y606D01*
X8697Y604D01*
X8701Y602D01*
X8705Y599D01*
X8708Y596D01*
X8711Y594D01*
X8714Y592D01*
X8716Y590D01*
X8718Y588D01*
X8719Y587D01*
X8719Y586D01*
X8720Y586D01*
X8724Y579D01*
X8728Y572D01*
X8731Y564D01*
X8734Y556D01*
X8737Y548D01*
X8739Y539D01*
X8740Y530D01*
X8742Y522D01*
X8742Y514D01*
X8743Y506D01*
X8744Y499D01*
X8744Y493D01*
X8745Y488D01*
Y485D01*
Y483D01*
Y482D01*
Y482D01*
Y481D01*
X8744Y468D01*
X8744Y456D01*
X8742Y444D01*
X8741Y434D01*
X8739Y425D01*
X8738Y416D01*
X8735Y409D01*
X8733Y402D01*
X8731Y397D01*
X8729Y391D01*
X8727Y387D01*
X8725Y384D01*
X8724Y382D01*
X8723Y380D01*
X8722Y379D01*
X8722Y378D01*
X8718Y373D01*
X8713Y369D01*
X8708Y365D01*
X8703Y362D01*
X8698Y359D01*
X8693Y357D01*
X8688Y355D01*
X8683Y354D01*
X8679Y352D01*
X8675Y351D01*
X8671Y351D01*
X8668Y350D01*
X8665D01*
X8663Y350D01*
X8662D01*
X8655Y350D01*
X8649Y351D01*
X8643Y353D01*
X8637Y354D01*
X8632Y356D01*
X8627Y358D01*
X8623Y361D01*
X8619Y363D01*
X8616Y366D01*
X8612Y368D01*
X8610Y370D01*
X8607Y372D01*
X8606Y374D01*
X8605Y375D01*
X8604Y376D01*
X8604Y376D01*
X8599Y383D01*
X8596Y390D01*
X8592Y398D01*
X8589Y406D01*
X8587Y415D01*
X8585Y423D01*
X8583Y432D01*
X8581Y441D01*
X8581Y449D01*
X8580Y456D01*
X8579Y463D01*
X8579Y469D01*
X8579Y474D01*
Y478D01*
Y479D01*
Y480D01*
Y481D01*
Y481D01*
X8579Y494D01*
X8580Y507D01*
X8581Y518D01*
X8583Y528D01*
X8584Y538D01*
X8586Y546D01*
X8589Y554D01*
X8591Y561D01*
X8593Y567D01*
X8596Y572D01*
X8598Y576D01*
X8600Y580D01*
X8601Y582D01*
X8603Y584D01*
X8603Y585D01*
X8604Y586D01*
X8608Y591D01*
X8612Y595D01*
X8617Y598D01*
X8622Y601D01*
X8627Y604D01*
X8631Y606D01*
X8636Y608D01*
X8641Y609D01*
X8645Y610D01*
X8649Y611D01*
X8653Y612D01*
X8655Y612D01*
X8658Y612D01*
X8662D01*
X8668Y612D01*
D02*
G37*
G36*
X9642Y1246D02*
X9637Y1232D01*
X9631Y1220D01*
X9626Y1208D01*
X9622Y1198D01*
X9618Y1191D01*
X9616Y1184D01*
X9615Y1180D01*
X9614Y1180D01*
Y1179D01*
X9751D01*
Y1112D01*
X9417D01*
Y1179D01*
X9574D01*
X9533Y1189D01*
X9539Y1204D01*
X9545Y1217D01*
X9551Y1230D01*
X9556Y1242D01*
X9561Y1252D01*
X9563Y1255D01*
X9565Y1259D01*
X9566Y1262D01*
X9567Y1264D01*
X9568Y1265D01*
Y1266D01*
X9642Y1246D01*
D02*
G37*
G36*
X9327Y1176D02*
X9383D01*
Y1111D01*
X9327D01*
Y1007D01*
X9386Y994D01*
X9381Y918D01*
X9327Y934D01*
Y844D01*
X9328Y837D01*
X9329Y832D01*
X9332Y828D01*
X9335Y825D01*
X9337Y824D01*
X9340Y823D01*
X9368D01*
X9373Y822D01*
X9381D01*
X9378Y809D01*
X9375Y797D01*
X9374Y785D01*
X9372Y775D01*
X9370Y767D01*
X9370Y760D01*
Y758D01*
X9369Y756D01*
Y756D01*
Y755D01*
X9353Y756D01*
X9340Y756D01*
X9328Y757D01*
X9319Y758D01*
X9312Y758D01*
X9307D01*
X9304Y759D01*
X9304D01*
X9296Y760D01*
X9290Y763D01*
X9285Y766D01*
X9280Y769D01*
X9277Y772D01*
X9274Y774D01*
X9273Y776D01*
X9272Y777D01*
X9269Y782D01*
X9266Y789D01*
X9264Y796D01*
X9263Y802D01*
X9262Y809D01*
X9261Y813D01*
Y817D01*
Y818D01*
Y953D01*
X9212Y968D01*
Y978D01*
X9212Y989D01*
Y1000D01*
Y1010D01*
Y1019D01*
Y1026D01*
Y1029D01*
Y1031D01*
Y1032D01*
Y1033D01*
X9206Y1025D01*
X9201Y1017D01*
X9195Y1010D01*
X9191Y1005D01*
X9188Y1000D01*
X9185Y997D01*
X9184Y994D01*
X9183Y994D01*
X9172Y999D01*
X9162Y1006D01*
X9143Y1020D01*
X9127Y1034D01*
X9114Y1049D01*
X9102Y1064D01*
X9092Y1079D01*
X9084Y1095D01*
X9077Y1110D01*
X9073Y1123D01*
X9069Y1136D01*
X9066Y1148D01*
X9064Y1158D01*
X9062Y1167D01*
X9062Y1173D01*
Y1175D01*
Y1177D01*
Y1178D01*
Y1178D01*
X8967D01*
Y1169D01*
Y1159D01*
X8967Y1150D01*
Y1142D01*
Y1136D01*
X8968Y1130D01*
Y1127D01*
Y1126D01*
X8969Y1117D01*
X8970Y1110D01*
X8972Y1103D01*
X8974Y1099D01*
X8976Y1095D01*
X8978Y1093D01*
X8979Y1091D01*
X8980Y1091D01*
X8983Y1088D01*
X8988Y1086D01*
X8997Y1083D01*
X9001Y1082D01*
X9004Y1082D01*
X9029D01*
X9041Y1082D01*
X9061D01*
X9068Y1083D01*
X9074D01*
X9070Y1068D01*
X9066Y1055D01*
X9062Y1043D01*
X9060Y1033D01*
X9058Y1025D01*
X9057Y1020D01*
X9055Y1016D01*
Y1014D01*
X9042D01*
X9030Y1015D01*
X9020D01*
X9009Y1016D01*
X9001D01*
X8993Y1016D01*
X8987D01*
X8981Y1017D01*
X8976D01*
X8971Y1018D01*
X8965D01*
X8963Y1018D01*
X8961D01*
X8953Y1020D01*
X8946Y1022D01*
X8941Y1024D01*
X8935Y1026D01*
X8932Y1028D01*
X8929Y1030D01*
X8927Y1031D01*
X8926Y1031D01*
X8922Y1035D01*
X8917Y1040D01*
X8914Y1044D01*
X8911Y1048D01*
X8909Y1051D01*
X8908Y1055D01*
X8906Y1057D01*
Y1057D01*
X8905Y1060D01*
X8904Y1065D01*
X8902Y1070D01*
X8902Y1076D01*
X8900Y1089D01*
X8899Y1102D01*
X8897Y1114D01*
X8897Y1119D01*
Y1125D01*
Y1128D01*
X8896Y1132D01*
Y1134D01*
Y1134D01*
X8895Y1156D01*
X8893Y1177D01*
X8893Y1196D01*
X8892Y1204D01*
Y1212D01*
X8891Y1219D01*
Y1225D01*
Y1231D01*
X8891Y1235D01*
Y1239D01*
Y1242D01*
Y1243D01*
Y1244D01*
X9199D01*
Y1178D01*
X9134D01*
X9135Y1163D01*
X9138Y1149D01*
X9142Y1135D01*
X9148Y1123D01*
X9155Y1111D01*
X9163Y1101D01*
X9171Y1091D01*
X9180Y1082D01*
X9189Y1075D01*
X9197Y1069D01*
X9205Y1063D01*
X9212Y1058D01*
X9218Y1055D01*
X9223Y1053D01*
X9225Y1051D01*
X9226Y1051D01*
X9215Y1036D01*
X9231Y1031D01*
X9239Y1029D01*
X9246Y1027D01*
X9252Y1026D01*
X9257Y1025D01*
X9260Y1023D01*
X9261D01*
Y1111D01*
X9207D01*
Y1176D01*
X9261D01*
Y1263D01*
X9327D01*
Y1176D01*
D02*
G37*
G36*
X10215Y1199D02*
X10299D01*
X10293Y1214D01*
X10290Y1220D01*
X10288Y1227D01*
X10286Y1232D01*
X10284Y1236D01*
X10283Y1239D01*
X10283Y1240D01*
X10352Y1258D01*
X10363Y1228D01*
X10369Y1214D01*
X10375Y1200D01*
X10382Y1187D01*
X10388Y1175D01*
X10395Y1163D01*
X10401Y1153D01*
X10407Y1143D01*
X10412Y1135D01*
X10417Y1128D01*
X10422Y1121D01*
X10425Y1116D01*
X10428Y1113D01*
X10430Y1110D01*
X10430Y1110D01*
X10421Y1104D01*
X10411Y1099D01*
X10403Y1094D01*
X10395Y1090D01*
X10388Y1086D01*
X10383Y1082D01*
X10381Y1080D01*
X10379Y1080D01*
X10439D01*
Y1018D01*
X9932D01*
Y1080D01*
X10141D01*
Y1137D01*
X9961D01*
Y1199D01*
X10141D01*
Y1265D01*
X10215D01*
Y1199D01*
D02*
G37*
G36*
X8704Y1246D02*
X8721Y1242D01*
X8738Y1241D01*
X8755Y1239D01*
X8770Y1237D01*
X8784Y1235D01*
X8797Y1234D01*
X8810Y1233D01*
X8821Y1231D01*
X8830Y1231D01*
X8838Y1230D01*
X8844D01*
X8849Y1230D01*
X8853D01*
X8850Y1219D01*
X8848Y1207D01*
X8847Y1196D01*
X8845Y1186D01*
X8844Y1177D01*
X8843Y1170D01*
X8843Y1167D01*
Y1165D01*
Y1164D01*
Y1163D01*
X8831Y1164D01*
X8820Y1165D01*
X8809Y1166D01*
X8800Y1167D01*
X8792Y1167D01*
X8786D01*
X8782Y1168D01*
X8781D01*
Y1112D01*
X8853D01*
Y1050D01*
X8794D01*
X8804Y1024D01*
X8815Y1001D01*
X8820Y990D01*
X8825Y980D01*
X8830Y970D01*
X8834Y962D01*
X8839Y954D01*
X8843Y947D01*
X8846Y941D01*
X8849Y936D01*
X8852Y932D01*
X8854Y930D01*
X8854Y928D01*
X8855Y927D01*
X8849Y910D01*
X8845Y894D01*
X8840Y880D01*
X8837Y866D01*
X8834Y855D01*
X8833Y850D01*
X8832Y847D01*
X8831Y843D01*
Y841D01*
X8831Y840D01*
Y839D01*
X8820Y860D01*
X8810Y880D01*
X8802Y898D01*
X8795Y915D01*
X8792Y923D01*
X8789Y930D01*
X8786Y936D01*
X8784Y941D01*
X8783Y945D01*
X8781Y948D01*
X8781Y950D01*
Y752D01*
X8716D01*
Y948D01*
X8702Y932D01*
X8694Y924D01*
X8689Y917D01*
X8683Y911D01*
X8680Y906D01*
X8677Y903D01*
X8676Y902D01*
X8633Y944D01*
Y830D01*
X8678D01*
Y766D01*
X8340D01*
Y830D01*
X8372D01*
Y1239D01*
X8633D01*
Y949D01*
X8647Y963D01*
X8659Y974D01*
X8670Y984D01*
X8680Y992D01*
X8687Y999D01*
X8693Y1003D01*
X8696Y1007D01*
X8698Y1007D01*
X8716Y989D01*
Y1050D01*
X8648D01*
Y1112D01*
X8716D01*
Y1176D01*
X8704Y1178D01*
X8691Y1180D01*
X8680Y1181D01*
X8670Y1183D01*
X8662Y1184D01*
X8656Y1185D01*
X8653Y1186D01*
X8651Y1187D01*
X8650D01*
X8666Y1252D01*
X8704Y1246D01*
D02*
G37*
G36*
X11174Y947D02*
X11021D01*
Y1006D01*
X11174D01*
Y947D01*
D02*
G37*
G36*
X9819Y1233D02*
X9830Y1206D01*
X9839Y1180D01*
X9849Y1156D01*
X9858Y1134D01*
X9867Y1114D01*
X9875Y1096D01*
X9883Y1079D01*
X9890Y1064D01*
X9896Y1052D01*
X9902Y1041D01*
X9907Y1032D01*
X9911Y1025D01*
X9913Y1020D01*
X9915Y1017D01*
X9916Y1016D01*
X9911Y997D01*
X9906Y980D01*
X9902Y965D01*
X9899Y952D01*
X9898Y946D01*
X9896Y942D01*
X9895Y937D01*
X9895Y933D01*
X9894Y931D01*
Y929D01*
X9893Y928D01*
Y927D01*
X9878Y950D01*
X9872Y961D01*
X9866Y972D01*
X9861Y980D01*
X9857Y987D01*
X9856Y990D01*
X9854Y992D01*
X9854Y992D01*
Y752D01*
X9784D01*
Y1137D01*
X9777Y1156D01*
X9769Y1174D01*
X9762Y1191D01*
X9756Y1207D01*
X9753Y1215D01*
X9751Y1221D01*
X9749Y1227D01*
X9747Y1232D01*
X9745Y1236D01*
X9744Y1239D01*
X9744Y1241D01*
Y1241D01*
X9810Y1262D01*
X9819Y1233D01*
D02*
G37*
G36*
X11583Y990D02*
X11583Y975D01*
X11581Y960D01*
X11579Y946D01*
X11576Y933D01*
X11573Y921D01*
X11568Y910D01*
X11564Y900D01*
X11558Y890D01*
X11552Y882D01*
X11546Y873D01*
X11539Y866D01*
X11532Y859D01*
X11518Y848D01*
X11503Y839D01*
X11488Y831D01*
X11473Y826D01*
X11459Y822D01*
X11448Y819D01*
X11437Y818D01*
X11433Y817D01*
X11430D01*
X11426Y817D01*
X11422D01*
X11408Y817D01*
X11393Y819D01*
X11380Y821D01*
X11367Y825D01*
X11356Y828D01*
X11345Y834D01*
X11336Y839D01*
X11326Y845D01*
X11318Y851D01*
X11310Y858D01*
X11303Y865D01*
X11297Y873D01*
X11286Y889D01*
X11277Y906D01*
X11270Y923D01*
X11265Y939D01*
X11261Y954D01*
X11259Y968D01*
X11258Y974D01*
X11257Y979D01*
X11257Y984D01*
X11256Y988D01*
Y991D01*
Y994D01*
Y995D01*
Y996D01*
Y1224D01*
X11342D01*
Y987D01*
X11342Y970D01*
X11345Y955D01*
X11349Y942D01*
X11354Y931D01*
X11360Y921D01*
X11366Y913D01*
X11373Y907D01*
X11380Y902D01*
X11388Y898D01*
X11394Y895D01*
X11400Y893D01*
X11406Y891D01*
X11411Y891D01*
X11415Y890D01*
X11419D01*
X11432Y891D01*
X11445Y895D01*
X11456Y899D01*
X11464Y906D01*
X11472Y913D01*
X11478Y922D01*
X11483Y931D01*
X11488Y941D01*
X11491Y950D01*
X11494Y959D01*
X11495Y967D01*
X11496Y975D01*
X11497Y981D01*
X11498Y986D01*
Y989D01*
Y990D01*
Y1224D01*
X11583D01*
Y990D01*
D02*
G37*
G36*
X9733Y1069D02*
X9728Y1055D01*
X9723Y1039D01*
X9717Y1023D01*
X9712Y1006D01*
X9701Y973D01*
X9696Y957D01*
X9691Y941D01*
X9687Y926D01*
X9683Y913D01*
X9679Y900D01*
X9675Y890D01*
X9673Y882D01*
X9671Y875D01*
X9670Y872D01*
Y871D01*
X9670Y870D01*
Y869D01*
X9598Y892D01*
X9607Y918D01*
X9616Y942D01*
X9623Y964D01*
X9630Y985D01*
X9637Y1003D01*
X9642Y1019D01*
X9647Y1033D01*
X9652Y1045D01*
X9655Y1057D01*
X9659Y1066D01*
X9662Y1073D01*
X9664Y1080D01*
X9666Y1084D01*
X9667Y1088D01*
X9668Y1090D01*
Y1090D01*
X9733Y1069D01*
D02*
G37*
G36*
X11949Y1154D02*
X11835D01*
Y823D01*
X11749D01*
Y1154D01*
X11634D01*
Y1224D01*
X11949D01*
Y1154D01*
D02*
G37*
G36*
X12107Y1230D02*
X12119Y1230D01*
X12131Y1228D01*
X12142Y1226D01*
X12151Y1224D01*
X12161Y1221D01*
X12170Y1218D01*
X12177Y1215D01*
X12184Y1213D01*
X12190Y1209D01*
X12195Y1207D01*
X12199Y1205D01*
X12203Y1202D01*
X12205Y1201D01*
X12207Y1200D01*
X12207Y1200D01*
X12215Y1194D01*
X12221Y1187D01*
X12227Y1180D01*
X12232Y1173D01*
X12236Y1166D01*
X12240Y1159D01*
X12245Y1145D01*
X12247Y1132D01*
X12249Y1126D01*
X12249Y1122D01*
X12250Y1118D01*
Y1115D01*
Y1114D01*
Y1113D01*
X12249Y1099D01*
X12246Y1086D01*
X12242Y1074D01*
X12235Y1062D01*
X12228Y1052D01*
X12220Y1043D01*
X12212Y1034D01*
X12203Y1026D01*
X12194Y1020D01*
X12186Y1014D01*
X12178Y1009D01*
X12171Y1004D01*
X12164Y1001D01*
X12160Y999D01*
X12157Y998D01*
X12156Y997D01*
X12145Y992D01*
X12135Y988D01*
X12127Y984D01*
X12119Y980D01*
X12112Y977D01*
X12106Y974D01*
X12101Y970D01*
X12096Y968D01*
X12093Y966D01*
X12090Y963D01*
X12085Y960D01*
X12083Y958D01*
X12082Y957D01*
X12078Y952D01*
X12074Y946D01*
X12071Y941D01*
X12070Y937D01*
X12069Y933D01*
X12068Y930D01*
Y928D01*
Y927D01*
X12069Y920D01*
X12070Y914D01*
X12074Y909D01*
X12077Y904D01*
X12080Y901D01*
X12083Y898D01*
X12085Y896D01*
X12086Y896D01*
X12093Y892D01*
X12102Y889D01*
X12110Y887D01*
X12119Y885D01*
X12126Y884D01*
X12133Y883D01*
X12139D01*
X12150Y884D01*
X12161Y885D01*
X12172Y887D01*
X12181Y890D01*
X12200Y896D01*
X12209Y900D01*
X12216Y904D01*
X12223Y907D01*
X12230Y911D01*
X12235Y915D01*
X12240Y917D01*
X12244Y920D01*
X12246Y922D01*
X12247Y923D01*
X12248Y924D01*
Y838D01*
X12231Y831D01*
X12212Y826D01*
X12193Y822D01*
X12175Y819D01*
X12167Y819D01*
X12159Y818D01*
X12153Y817D01*
X12147D01*
X12142Y817D01*
X12135D01*
X12122Y817D01*
X12109Y818D01*
X12096Y819D01*
X12085Y821D01*
X12075Y824D01*
X12065Y826D01*
X12057Y829D01*
X12049Y832D01*
X12042Y834D01*
X12036Y837D01*
X12031Y839D01*
X12027Y842D01*
X12024Y844D01*
X12021Y845D01*
X12020Y847D01*
X12019D01*
X12012Y852D01*
X12006Y859D01*
X12001Y866D01*
X11996Y873D01*
X11991Y880D01*
X11988Y887D01*
X11984Y902D01*
X11980Y914D01*
X11980Y920D01*
X11979Y924D01*
X11978Y929D01*
Y931D01*
Y933D01*
Y934D01*
X11979Y948D01*
X11982Y961D01*
X11986Y973D01*
X11990Y983D01*
X11994Y991D01*
X11997Y997D01*
X12000Y1001D01*
X12001Y1002D01*
X12006Y1007D01*
X12011Y1012D01*
X12023Y1023D01*
X12037Y1032D01*
X12050Y1040D01*
X12063Y1046D01*
X12069Y1049D01*
X12073Y1051D01*
X12077Y1053D01*
X12080Y1055D01*
X12082Y1056D01*
X12083D01*
X12092Y1060D01*
X12100Y1064D01*
X12107Y1068D01*
X12115Y1071D01*
X12120Y1074D01*
X12126Y1077D01*
X12130Y1080D01*
X12134Y1082D01*
X12140Y1086D01*
X12144Y1089D01*
X12146Y1091D01*
X12147Y1091D01*
X12151Y1097D01*
X12155Y1101D01*
X12157Y1106D01*
X12158Y1111D01*
X12159Y1114D01*
X12160Y1117D01*
Y1119D01*
Y1120D01*
X12159Y1127D01*
X12157Y1133D01*
X12154Y1138D01*
X12150Y1143D01*
X12147Y1147D01*
X12144Y1149D01*
X12142Y1150D01*
X12141Y1151D01*
X12133Y1155D01*
X12125Y1158D01*
X12117Y1160D01*
X12109Y1161D01*
X12102Y1162D01*
X12096Y1163D01*
X12080D01*
X12071Y1161D01*
X12053Y1158D01*
X12037Y1154D01*
X12023Y1149D01*
X12017Y1147D01*
X12012Y1144D01*
X12007Y1141D01*
X12003Y1139D01*
X12000Y1138D01*
X11998Y1136D01*
X11997Y1136D01*
X11996Y1135D01*
Y1215D01*
X12012Y1220D01*
X12028Y1224D01*
X12045Y1227D01*
X12060Y1229D01*
X12067Y1230D01*
X12074Y1230D01*
X12080D01*
X12085Y1231D01*
X12094D01*
X12107Y1230D01*
D02*
G37*
G36*
X9526Y1045D02*
X9532Y1021D01*
X9539Y998D01*
X9545Y977D01*
X9551Y956D01*
X9557Y936D01*
X9562Y918D01*
X9567Y902D01*
X9572Y887D01*
X9576Y874D01*
X9580Y863D01*
X9583Y854D01*
X9585Y847D01*
X9586Y845D01*
X9587Y843D01*
X9587Y843D01*
Y842D01*
X9762D01*
Y776D01*
X9399D01*
Y842D01*
X9513D01*
X9507Y860D01*
X9501Y877D01*
X9496Y893D01*
X9491Y908D01*
X9486Y922D01*
X9481Y935D01*
X9477Y948D01*
X9473Y960D01*
X9469Y971D01*
X9465Y981D01*
X9462Y991D01*
X9458Y1000D01*
X9456Y1009D01*
X9453Y1016D01*
X9448Y1029D01*
X9444Y1041D01*
X9441Y1050D01*
X9439Y1057D01*
X9437Y1062D01*
X9435Y1066D01*
X9434Y1069D01*
X9434Y1070D01*
Y1071D01*
X9515Y1093D01*
X9526Y1045D01*
D02*
G37*
G36*
X8022Y1226D02*
Y1196D01*
X8024Y1167D01*
X8025Y1141D01*
X8026Y1117D01*
X8028Y1094D01*
X8031Y1074D01*
X8033Y1055D01*
X8035Y1039D01*
X8038Y1025D01*
X8041Y1012D01*
X8043Y1001D01*
X8045Y993D01*
X8046Y986D01*
X8048Y981D01*
X8049Y978D01*
Y977D01*
X8055Y963D01*
X8062Y948D01*
X8070Y933D01*
X8079Y920D01*
X8089Y907D01*
X8100Y895D01*
X8110Y882D01*
X8120Y872D01*
X8131Y861D01*
X8140Y852D01*
X8149Y845D01*
X8157Y838D01*
X8164Y833D01*
X8168Y829D01*
X8171Y826D01*
X8173Y826D01*
X8162Y813D01*
X8153Y801D01*
X8145Y789D01*
X8138Y779D01*
X8132Y770D01*
X8127Y763D01*
X8126Y760D01*
X8125Y758D01*
X8124Y758D01*
Y757D01*
X8103Y778D01*
X8083Y799D01*
X8066Y819D01*
X8051Y839D01*
X8037Y859D01*
X8026Y878D01*
X8015Y896D01*
X8007Y913D01*
X8000Y928D01*
X7995Y942D01*
X7990Y955D01*
X7986Y965D01*
X7984Y974D01*
X7982Y980D01*
X7981Y984D01*
Y985D01*
X7976Y963D01*
X7969Y941D01*
X7961Y920D01*
X7952Y899D01*
X7942Y880D01*
X7932Y861D01*
X7921Y844D01*
X7911Y828D01*
X7901Y813D01*
X7892Y800D01*
X7882Y788D01*
X7875Y779D01*
X7868Y771D01*
X7864Y765D01*
X7860Y762D01*
X7859Y760D01*
X7848Y778D01*
X7838Y793D01*
X7829Y806D01*
X7822Y817D01*
X7816Y825D01*
X7811Y831D01*
X7808Y835D01*
X7807Y836D01*
X7818Y844D01*
X7828Y852D01*
X7838Y860D01*
X7847Y869D01*
X7855Y878D01*
X7862Y886D01*
X7870Y895D01*
X7875Y902D01*
X7881Y909D01*
X7886Y917D01*
X7890Y923D01*
X7893Y928D01*
X7896Y933D01*
X7898Y936D01*
X7899Y938D01*
X7899Y939D01*
X7905Y951D01*
X7910Y964D01*
X7916Y979D01*
X7921Y994D01*
X7929Y1025D01*
X7933Y1040D01*
X7937Y1055D01*
X7940Y1069D01*
X7943Y1082D01*
X7945Y1095D01*
X7947Y1105D01*
X7949Y1114D01*
X7950Y1120D01*
Y1122D01*
X7951Y1124D01*
Y1125D01*
Y1125D01*
X7949Y1147D01*
X7949Y1169D01*
X7948Y1192D01*
X7947Y1213D01*
Y1223D01*
Y1232D01*
X7947Y1240D01*
Y1246D01*
Y1252D01*
Y1257D01*
Y1259D01*
Y1260D01*
X8022D01*
Y1226D01*
D02*
G37*
G36*
X9186Y755D02*
X9117D01*
Y782D01*
X8968D01*
Y755D01*
X8899D01*
Y992D01*
X9186D01*
Y755D01*
D02*
G37*
G36*
X10382Y754D02*
X10311D01*
Y781D01*
X10060D01*
Y754D01*
X9990D01*
Y981D01*
X10382D01*
Y754D01*
D02*
G37*
G36*
X8304Y751D02*
X8236D01*
Y940D01*
X8231Y927D01*
X8227Y915D01*
X8223Y904D01*
X8220Y895D01*
X8218Y888D01*
X8216Y883D01*
X8215Y880D01*
Y878D01*
X8197Y880D01*
X8182Y882D01*
X8168Y885D01*
X8157Y888D01*
X8148Y891D01*
X8141Y895D01*
X8139Y896D01*
X8137Y896D01*
X8137Y897D01*
X8136D01*
X8131Y901D01*
X8125Y905D01*
X8118Y915D01*
X8113Y924D01*
X8109Y935D01*
X8106Y944D01*
X8105Y952D01*
X8105Y955D01*
Y957D01*
Y958D01*
Y959D01*
X8105Y969D01*
X8107Y979D01*
X8109Y989D01*
X8112Y999D01*
X8120Y1016D01*
X8128Y1033D01*
X8133Y1040D01*
X8137Y1046D01*
X8140Y1051D01*
X8144Y1056D01*
X8147Y1060D01*
X8149Y1062D01*
X8151Y1064D01*
X8151Y1065D01*
X8106Y1193D01*
Y1242D01*
X8304D01*
Y751D01*
D02*
G37*
G36*
X10749Y1249D02*
X10743Y1232D01*
X10740Y1224D01*
X10737Y1217D01*
X10734Y1211D01*
X10732Y1206D01*
X10732Y1204D01*
X10731Y1202D01*
X10920D01*
Y1038D01*
Y1009D01*
X10921Y981D01*
X10924Y957D01*
X10927Y933D01*
X10931Y912D01*
X10936Y893D01*
X10941Y876D01*
X10946Y860D01*
X10951Y847D01*
X10957Y836D01*
X10961Y826D01*
X10966Y818D01*
X10970Y812D01*
X10972Y808D01*
X10974Y805D01*
X10975Y804D01*
X10964Y795D01*
X10955Y787D01*
X10948Y780D01*
X10940Y774D01*
X10935Y769D01*
X10930Y764D01*
X10926Y761D01*
X10923Y758D01*
X10920Y755D01*
X10918Y754D01*
X10916Y751D01*
X10915Y750D01*
X10903Y769D01*
X10892Y789D01*
X10883Y810D01*
X10876Y833D01*
X10868Y856D01*
X10863Y880D01*
X10859Y902D01*
X10855Y925D01*
X10852Y946D01*
X10850Y966D01*
X10848Y983D01*
X10848Y991D01*
Y999D01*
X10847Y1005D01*
Y1012D01*
X10846Y1017D01*
Y1021D01*
Y1025D01*
Y1027D01*
Y1029D01*
Y1029D01*
Y1134D01*
X10467D01*
Y1202D01*
X10644D01*
X10647Y1215D01*
X10652Y1226D01*
X10656Y1237D01*
X10659Y1246D01*
X10662Y1255D01*
X10665Y1261D01*
X10666Y1263D01*
X10666Y1265D01*
X10667Y1266D01*
Y1266D01*
X10749Y1249D01*
D02*
G37*
%LPC*%
G36*
X7942Y485D02*
X7940D01*
X7934Y485D01*
X7930Y483D01*
X7925Y481D01*
X7922Y479D01*
X7919Y477D01*
X7917Y475D01*
X7915Y474D01*
X7915Y473D01*
X7912Y468D01*
X7909Y462D01*
X7908Y456D01*
X7906Y450D01*
X7905Y445D01*
X7905Y440D01*
Y439D01*
Y437D01*
Y437D01*
Y436D01*
X7905Y428D01*
X7907Y420D01*
X7908Y414D01*
X7910Y410D01*
X7911Y406D01*
X7913Y403D01*
X7914Y401D01*
X7914Y401D01*
X7918Y398D01*
X7922Y395D01*
X7926Y393D01*
X7929Y392D01*
X7933Y391D01*
X7935Y391D01*
X7937D01*
X7942Y391D01*
X7947Y393D01*
X7951Y395D01*
X7955Y397D01*
X7958Y400D01*
X7961Y402D01*
X7962Y403D01*
X7962Y404D01*
X7966Y409D01*
X7969Y415D01*
X7971Y421D01*
X7972Y427D01*
X7972Y433D01*
X7973Y437D01*
Y438D01*
Y440D01*
Y440D01*
Y441D01*
X7973Y448D01*
X7972Y455D01*
X7970Y461D01*
X7968Y465D01*
X7967Y469D01*
X7965Y471D01*
X7964Y473D01*
X7964Y474D01*
X7960Y477D01*
X7956Y480D01*
X7952Y482D01*
X7948Y484D01*
X7945Y484D01*
X7942Y485D01*
D02*
G37*
G36*
X8663Y572D02*
X8662D01*
X8658Y571D01*
X8655Y571D01*
X8653Y570D01*
X8651Y569D01*
X8649Y568D01*
X8647Y567D01*
X8647Y566D01*
X8646Y566D01*
X8644Y563D01*
X8642Y560D01*
X8640Y556D01*
X8638Y552D01*
X8637Y549D01*
X8636Y546D01*
X8636Y544D01*
X8635Y544D01*
Y543D01*
X8634Y540D01*
X8634Y536D01*
X8633Y531D01*
X8632Y526D01*
X8631Y516D01*
X8631Y506D01*
X8631Y501D01*
Y496D01*
X8630Y492D01*
Y488D01*
Y485D01*
Y483D01*
Y481D01*
Y481D01*
Y473D01*
X8631Y465D01*
Y458D01*
X8631Y452D01*
X8631Y446D01*
X8632Y441D01*
X8633Y436D01*
X8633Y432D01*
X8633Y428D01*
X8634Y425D01*
X8634Y423D01*
X8635Y420D01*
X8635Y419D01*
Y417D01*
X8636Y417D01*
Y417D01*
X8637Y411D01*
X8639Y407D01*
X8641Y404D01*
X8642Y401D01*
X8644Y399D01*
X8645Y397D01*
X8646Y397D01*
X8646Y396D01*
X8649Y394D01*
X8651Y393D01*
X8654Y392D01*
X8657Y391D01*
X8658Y391D01*
X8660Y391D01*
X8662D01*
X8665Y391D01*
X8668Y391D01*
X8671Y393D01*
X8673Y394D01*
X8675Y394D01*
X8676Y396D01*
X8677Y396D01*
X8677Y396D01*
X8680Y399D01*
X8682Y402D01*
X8684Y406D01*
X8685Y410D01*
X8687Y413D01*
X8688Y416D01*
X8688Y418D01*
X8688Y418D01*
X8689Y422D01*
X8690Y426D01*
X8691Y431D01*
X8691Y435D01*
X8692Y446D01*
X8692Y456D01*
X8692Y461D01*
Y466D01*
X8693Y470D01*
Y474D01*
Y477D01*
Y479D01*
Y481D01*
Y481D01*
Y489D01*
X8692Y497D01*
Y504D01*
X8692Y510D01*
X8692Y516D01*
X8691Y521D01*
X8691Y526D01*
X8690Y530D01*
X8690Y534D01*
X8690Y537D01*
X8689Y539D01*
X8689Y542D01*
X8688Y543D01*
Y545D01*
X8688Y545D01*
Y545D01*
X8687Y551D01*
X8685Y555D01*
X8683Y558D01*
X8681Y561D01*
X8680Y563D01*
X8679Y565D01*
X8678Y565D01*
X8678Y566D01*
X8675Y568D01*
X8672Y569D01*
X8670Y570D01*
X8667Y571D01*
X8665Y571D01*
X8663Y572D01*
D02*
G37*
G36*
X10329Y1137D02*
X10215D01*
Y1080D01*
X10364D01*
X10351Y1099D01*
X10345Y1109D01*
X10340Y1118D01*
X10335Y1125D01*
X10332Y1132D01*
X10329Y1136D01*
X10329Y1136D01*
Y1137D01*
D02*
G37*
G36*
X8564Y1174D02*
X8440D01*
Y1102D01*
X8564D01*
Y1174D01*
D02*
G37*
G36*
Y1040D02*
X8440D01*
Y967D01*
X8564D01*
Y1040D01*
D02*
G37*
G36*
Y905D02*
X8440D01*
Y830D01*
X8564D01*
Y905D01*
D02*
G37*
G36*
X9117Y930D02*
X8968D01*
Y844D01*
X9117D01*
Y930D01*
D02*
G37*
G36*
X10311Y917D02*
X10060D01*
Y845D01*
X10311D01*
Y917D01*
D02*
G37*
G36*
X8236Y1182D02*
X8179D01*
X8187Y1158D01*
X8194Y1134D01*
X8198Y1123D01*
X8201Y1114D01*
X8204Y1104D01*
X8207Y1095D01*
X8210Y1087D01*
X8212Y1079D01*
X8214Y1073D01*
X8216Y1068D01*
X8217Y1064D01*
X8219Y1060D01*
X8219Y1058D01*
Y1058D01*
X8211Y1049D01*
X8204Y1040D01*
X8198Y1031D01*
X8192Y1023D01*
X8188Y1015D01*
X8184Y1008D01*
X8181Y1001D01*
X8179Y994D01*
X8177Y988D01*
X8175Y983D01*
X8174Y979D01*
X8173Y975D01*
X8173Y972D01*
Y970D01*
Y969D01*
Y968D01*
X8174Y961D01*
X8177Y957D01*
X8181Y953D01*
X8186Y950D01*
X8190Y949D01*
X8195Y948D01*
X8197Y948D01*
X8212D01*
X8217Y948D01*
X8229D01*
X8232Y949D01*
X8236D01*
Y1182D01*
D02*
G37*
%LPD*%
D28*
X16853Y16650D02*
D03*
X16247D02*
D03*
X12347Y13550D02*
D03*
X12953D02*
D03*
X12953Y14650D02*
D03*
X12347D02*
D03*
X16853Y20850D02*
D03*
X16247D02*
D03*
X16853Y22050D02*
D03*
X16247D02*
D03*
X12347Y19800D02*
D03*
X12953D02*
D03*
X12953Y21150D02*
D03*
X12347D02*
D03*
X26447Y7800D02*
D03*
X27053D02*
D03*
X28247Y4650D02*
D03*
X28853D02*
D03*
X21650Y12350D02*
D03*
X21044D02*
D03*
X16853Y18400D02*
D03*
X16247D02*
D03*
X23300Y12350D02*
D03*
X22694D02*
D03*
X14803Y13550D02*
D03*
X14197D02*
D03*
X14508Y3830D02*
D03*
X13902D02*
D03*
X12347Y17250D02*
D03*
X12953D02*
D03*
X14197D02*
D03*
X14803D02*
D03*
X12347Y12200D02*
D03*
X12953D02*
D03*
X12953Y24500D02*
D03*
X12347D02*
D03*
X16247Y15450D02*
D03*
X16853D02*
D03*
X16247Y14350D02*
D03*
X16853D02*
D03*
X16853Y19600D02*
D03*
X16247D02*
D03*
X12953Y18400D02*
D03*
X12347D02*
D03*
X12347Y16000D02*
D03*
X12953D02*
D03*
X14953Y19800D02*
D03*
X14347D02*
D03*
D34*
X2550Y13150D02*
D03*
X26300Y12650D02*
D03*
X7100Y20700D02*
D03*
X9500Y4950D02*
D03*
X1550Y20350D02*
D03*
X4000Y20300D02*
D03*
D35*
X1550Y13150D02*
D03*
X2550Y14150D02*
D03*
X1550D02*
D03*
X2550Y15150D02*
D03*
X1550D02*
D03*
X2550Y16150D02*
D03*
X1550D02*
D03*
X2550Y17150D02*
D03*
X1550D02*
D03*
X22050Y22300D02*
D03*
X23050D02*
D03*
X24050D02*
D03*
X25050D02*
D03*
X26050D02*
D03*
X27050D02*
D03*
X28050D02*
D03*
X21050Y24650D02*
D03*
X22050D02*
D03*
X23050D02*
D03*
X24050D02*
D03*
X25050D02*
D03*
X26050D02*
D03*
X27050D02*
D03*
X14600Y18981D02*
D03*
Y20950D02*
D03*
X26300Y13650D02*
D03*
Y14650D02*
D03*
Y15650D02*
D03*
Y16650D02*
D03*
Y17650D02*
D03*
X7100Y21700D02*
D03*
Y22700D02*
D03*
X9500Y1950D02*
D03*
Y2950D02*
D03*
Y3950D02*
D03*
X19200Y20650D02*
D03*
X18200D02*
D03*
X19200Y19650D02*
D03*
X18200D02*
D03*
X19200Y18650D02*
D03*
X18200D02*
D03*
X19200Y17650D02*
D03*
X18200D02*
D03*
X19200Y24650D02*
D03*
X18200D02*
D03*
X19200Y23650D02*
D03*
X18200D02*
D03*
X19200Y22650D02*
D03*
X18200D02*
D03*
X19200Y21650D02*
D03*
X18200D02*
D03*
X10200Y24650D02*
D03*
X11200D02*
D03*
X10200Y23650D02*
D03*
X11200D02*
D03*
X10200Y22650D02*
D03*
X11200D02*
D03*
X10200Y21650D02*
D03*
X11200D02*
D03*
X10200Y20650D02*
D03*
X11200D02*
D03*
X10200Y19650D02*
D03*
X11200D02*
D03*
X10200Y18650D02*
D03*
X11200D02*
D03*
X10200Y17650D02*
D03*
X11200D02*
D03*
X10200Y16650D02*
D03*
X11200D02*
D03*
X10200Y15650D02*
D03*
X11200D02*
D03*
X10200Y14650D02*
D03*
X11200D02*
D03*
X10200Y13650D02*
D03*
X11200D02*
D03*
X10200Y12650D02*
D03*
X11200D02*
D03*
X10200Y11650D02*
D03*
X11200D02*
D03*
X10200Y10650D02*
D03*
X11200D02*
D03*
X10200Y9650D02*
D03*
X11200D02*
D03*
X18200Y13650D02*
D03*
X19200D02*
D03*
X18200Y14650D02*
D03*
X19200D02*
D03*
X18200Y15650D02*
D03*
X19200D02*
D03*
X18200Y16650D02*
D03*
X19200D02*
D03*
X18200Y9650D02*
D03*
X19200D02*
D03*
X18200Y10650D02*
D03*
X19200D02*
D03*
X18200Y11650D02*
D03*
X19200D02*
D03*
X18200Y12650D02*
D03*
X19200D02*
D03*
X2550Y25150D02*
D03*
X1550D02*
D03*
Y23350D02*
D03*
Y22350D02*
D03*
Y21350D02*
D03*
X4000Y23300D02*
D03*
Y22300D02*
D03*
Y21300D02*
D03*
D36*
X21050Y22300D02*
D03*
X28050Y24650D02*
D03*
X3550Y25150D02*
D03*
D37*
X7058Y25761D02*
D03*
X7272Y25297D02*
D03*
X7172Y24795D02*
D03*
X6796Y24448D02*
D03*
X6288Y24388D02*
D03*
X5842Y24639D02*
D03*
X5628Y25103D02*
D03*
X5728Y25605D02*
D03*
X6104Y25952D02*
D03*
X6612Y26012D02*
D03*
X30658Y25761D02*
D03*
X30872Y25297D02*
D03*
X30772Y24795D02*
D03*
X30396Y24448D02*
D03*
X29888Y24388D02*
D03*
X29442Y24639D02*
D03*
X29228Y25103D02*
D03*
X29328Y25605D02*
D03*
X29704Y25952D02*
D03*
X30212Y26012D02*
D03*
X7008Y2109D02*
D03*
X7222Y1645D02*
D03*
X7122Y1143D02*
D03*
X6746Y796D02*
D03*
X6238Y736D02*
D03*
X5792Y987D02*
D03*
X5578Y1451D02*
D03*
X5678Y1953D02*
D03*
X6054Y2300D02*
D03*
X6562Y2360D02*
D03*
X30608Y2109D02*
D03*
X30822Y1645D02*
D03*
X30722Y1143D02*
D03*
X30346Y796D02*
D03*
X29838Y736D02*
D03*
X29392Y987D02*
D03*
X29178Y1451D02*
D03*
X29278Y1953D02*
D03*
X29654Y2300D02*
D03*
X30162Y2360D02*
D03*
D38*
X6450Y25200D02*
D03*
X30050D02*
D03*
X6400Y1548D02*
D03*
X30000D02*
D03*
D39*
X7600Y4300D02*
D03*
X5513D02*
D03*
D40*
X27200Y1700D02*
D03*
X25200D02*
D03*
D41*
X19851Y5600D02*
D03*
X21741D02*
D03*
X23630D02*
D03*
D42*
X22150Y10750D02*
D03*
Y9750D02*
D03*
D43*
Y8750D02*
D03*
D44*
X22650Y1250D02*
D03*
Y2250D02*
D03*
X19650Y1250D02*
D03*
D45*
Y2250D02*
D03*
D83*
X22150Y15952D02*
D03*
Y13748D02*
D03*
D84*
X22161Y18300D02*
D03*
D85*
X24739Y17402D02*
D03*
Y19198D02*
D03*
D86*
X16252Y10750D02*
D03*
Y11250D02*
D03*
Y11750D02*
D03*
Y12250D02*
D03*
X14048D02*
D03*
Y11750D02*
D03*
Y11250D02*
D03*
Y10750D02*
D03*
D87*
X15150Y11500D02*
D03*
D88*
X6850Y14850D02*
D03*
D89*
X5850Y18490D02*
D03*
D90*
X6850D02*
D03*
X7850D02*
D03*
D91*
X12150Y23053D02*
D03*
Y22447D02*
D03*
X8500Y21053D02*
D03*
Y20447D02*
D03*
X17200Y11503D02*
D03*
Y10897D02*
D03*
X25550Y6803D02*
D03*
Y6197D02*
D03*
X8500Y22347D02*
D03*
Y22953D02*
D03*
X30550Y6297D02*
D03*
Y6903D02*
D03*
X12357Y10647D02*
D03*
Y11253D02*
D03*
X30550Y5453D02*
D03*
Y4847D02*
D03*
X25550Y5053D02*
D03*
Y4447D02*
D03*
X14200Y15347D02*
D03*
Y15953D02*
D03*
X18150Y947D02*
D03*
Y1553D02*
D03*
D92*
X27776Y16053D02*
D03*
X28524D02*
D03*
X28150Y15147D02*
D03*
D93*
X24861Y9400D02*
D03*
X26239D02*
D03*
M02*
