G04*
G04 #@! TF.GenerationSoftware,Altium Limited,Altium Designer,20.0.13 (296)*
G04*
G04 Layer_Color=2752767*
%FSLAX24Y24*%
%MOIN*%
G70*
G01*
G75*
%ADD104C,0.0020*%
%ADD105C,0.0027*%
D104*
X2470Y13070D02*
Y13230D01*
X2630D01*
Y13070D01*
X2470D01*
X1470D02*
Y13230D01*
X1630D01*
Y13070D01*
X1470D01*
X2470Y14070D02*
Y14230D01*
X2630D01*
Y14070D01*
X2470D01*
X1470D02*
Y14230D01*
X1630D01*
Y14070D01*
X1470D01*
X2470Y15070D02*
Y15230D01*
X2630D01*
Y15070D01*
X2470D01*
X1470D02*
Y15230D01*
X1630D01*
Y15070D01*
X1470D01*
X2470Y16070D02*
Y16230D01*
X2630D01*
Y16070D01*
X2470D01*
X1470D02*
Y16230D01*
X1630D01*
Y16070D01*
X1470D01*
X2470Y17070D02*
Y17230D01*
X2630D01*
Y17070D01*
X2470D01*
X1470D02*
Y17230D01*
X1630D01*
Y17070D01*
X1470D01*
X20970Y22220D02*
Y22380D01*
X21130D01*
Y22220D01*
X20970D01*
X21970D02*
Y22380D01*
X22130D01*
Y22220D01*
X21970D01*
X22970D02*
Y22380D01*
X23130D01*
Y22220D01*
X22970D01*
X23970D02*
Y22380D01*
X24130D01*
Y22220D01*
X23970D01*
X24970D02*
Y22380D01*
X25130D01*
Y22220D01*
X24970D01*
X25970D02*
Y22380D01*
X26130D01*
Y22220D01*
X25970D01*
X26970D02*
Y22380D01*
X27130D01*
Y22220D01*
X26970D01*
X27970D02*
Y22380D01*
X28130D01*
Y22220D01*
X27970D01*
X20970Y24570D02*
Y24730D01*
X21130D01*
Y24570D01*
X20970D01*
X21970D02*
Y24730D01*
X22130D01*
Y24570D01*
X21970D01*
X22970D02*
Y24730D01*
X23130D01*
Y24570D01*
X22970D01*
X23970D02*
Y24730D01*
X24130D01*
Y24570D01*
X23970D01*
X24970D02*
Y24730D01*
X25130D01*
Y24570D01*
X24970D01*
X25970D02*
Y24730D01*
X26130D01*
Y24570D01*
X25970D01*
X26970D02*
Y24730D01*
X27130D01*
Y24570D01*
X26970D01*
X27970D02*
Y24730D01*
X28130D01*
Y24570D01*
X27970D01*
X6450Y25120D02*
X6370Y25280D01*
X6530D01*
X6450Y25120D01*
X30050D02*
X29970Y25280D01*
X30130D01*
X30050Y25120D01*
X6400Y1468D02*
X6320Y1628D01*
X6480D01*
X6400Y1468D01*
X30000D02*
X29920Y1628D01*
X30080D01*
X30000Y1468D01*
X14520Y18901D02*
Y19061D01*
X14680D01*
Y18901D01*
X14520D01*
Y20870D02*
Y21030D01*
X14680D01*
Y20870D01*
X14520D01*
X7600Y4220D02*
X7640Y4260D01*
X7680D01*
X7640Y4300D01*
X7680Y4340D01*
X7640D01*
X7600Y4380D01*
X7560Y4340D01*
X7520D01*
X7560Y4300D01*
X7520Y4260D01*
X7560D01*
X7600Y4220D01*
X5513D02*
X5553Y4260D01*
X5593D01*
X5553Y4300D01*
X5593Y4340D01*
X5553D01*
X5513Y4380D01*
X5473Y4340D01*
X5433D01*
X5473Y4300D01*
X5433Y4260D01*
X5473D01*
X5513Y4220D01*
X27120Y1620D02*
X27160Y1700D01*
X27120Y1780D01*
X27200Y1740D01*
X27280Y1780D01*
X27240Y1700D01*
X27280Y1620D01*
X27200Y1660D01*
X27120Y1620D01*
X25120D02*
X25160Y1700D01*
X25120Y1780D01*
X25200Y1740D01*
X25280Y1780D01*
X25240Y1700D01*
X25280Y1620D01*
X25200Y1660D01*
X25120Y1620D01*
X26220Y12570D02*
Y12730D01*
X26380D01*
Y12570D01*
X26220D01*
Y13570D02*
Y13730D01*
X26380D01*
Y13570D01*
X26220D01*
Y14570D02*
Y14730D01*
X26380D01*
Y14570D01*
X26220D01*
Y15570D02*
Y15730D01*
X26380D01*
Y15570D01*
X26220D01*
Y16570D02*
Y16730D01*
X26380D01*
Y16570D01*
X26220D01*
Y17570D02*
Y17730D01*
X26380D01*
Y17570D01*
X26220D01*
X19811Y5560D02*
Y5520D01*
X19891D01*
Y5560D01*
X19931D01*
Y5640D01*
X19891D01*
Y5680D01*
X19811D01*
Y5640D01*
X19771D01*
Y5560D01*
X19811D01*
X21701D02*
Y5520D01*
X21781D01*
Y5560D01*
X21821D01*
Y5640D01*
X21781D01*
Y5680D01*
X21701D01*
Y5640D01*
X21661D01*
Y5560D01*
X21701D01*
X23590D02*
Y5520D01*
X23670D01*
Y5560D01*
X23710D01*
Y5640D01*
X23670D01*
Y5680D01*
X23590D01*
Y5640D01*
X23550D01*
Y5560D01*
X23590D01*
X22070Y10670D02*
Y10830D01*
X22230D01*
Y10670D01*
X22070D01*
Y9670D02*
Y9830D01*
X22230D01*
Y9670D01*
X22070D01*
Y8670D02*
Y8830D01*
X22230D01*
Y8670D01*
X22070D01*
X22570Y1170D02*
Y1330D01*
X22730D01*
Y1170D01*
X22570D01*
Y2170D02*
Y2330D01*
X22730D01*
Y2170D01*
X22570D01*
X19570Y1170D02*
Y1330D01*
X19730D01*
Y1170D01*
X19570D01*
Y2170D02*
Y2330D01*
X19730D01*
Y2170D01*
X19570D01*
X7020Y20620D02*
Y20780D01*
X7180D01*
Y20620D01*
X7020D01*
Y21620D02*
Y21780D01*
X7180D01*
Y21620D01*
X7020D01*
Y22620D02*
Y22780D01*
X7180D01*
Y22620D01*
X7020D01*
X9420Y1870D02*
Y2030D01*
X9580D01*
Y1870D01*
X9420D01*
Y2870D02*
Y3030D01*
X9580D01*
Y2870D01*
X9420D01*
Y3870D02*
Y4030D01*
X9580D01*
Y3870D01*
X9420D01*
Y4870D02*
Y5030D01*
X9580D01*
Y4870D01*
X9420D01*
X19120Y20570D02*
Y20730D01*
X19280D01*
Y20570D01*
X19120D01*
X18120D02*
Y20730D01*
X18280D01*
Y20570D01*
X18120D01*
X19120Y19570D02*
Y19730D01*
X19280D01*
Y19570D01*
X19120D01*
X18120D02*
Y19730D01*
X18280D01*
Y19570D01*
X18120D01*
X19120Y18570D02*
Y18730D01*
X19280D01*
Y18570D01*
X19120D01*
X18120D02*
Y18730D01*
X18280D01*
Y18570D01*
X18120D01*
X19120Y17570D02*
Y17730D01*
X19280D01*
Y17570D01*
X19120D01*
X18120D02*
Y17730D01*
X18280D01*
Y17570D01*
X18120D01*
X19120Y24570D02*
Y24730D01*
X19280D01*
Y24570D01*
X19120D01*
X18120D02*
Y24730D01*
X18280D01*
Y24570D01*
X18120D01*
X19120Y23570D02*
Y23730D01*
X19280D01*
Y23570D01*
X19120D01*
X18120D02*
Y23730D01*
X18280D01*
Y23570D01*
X18120D01*
X19120Y22570D02*
Y22730D01*
X19280D01*
Y22570D01*
X19120D01*
X18120D02*
Y22730D01*
X18280D01*
Y22570D01*
X18120D01*
X19120Y21570D02*
Y21730D01*
X19280D01*
Y21570D01*
X19120D01*
X18120D02*
Y21730D01*
X18280D01*
Y21570D01*
X18120D01*
X10120Y24570D02*
Y24730D01*
X10280D01*
Y24570D01*
X10120D01*
X11120D02*
Y24730D01*
X11280D01*
Y24570D01*
X11120D01*
X10120Y23570D02*
Y23730D01*
X10280D01*
Y23570D01*
X10120D01*
X11120D02*
Y23730D01*
X11280D01*
Y23570D01*
X11120D01*
X10120Y22570D02*
Y22730D01*
X10280D01*
Y22570D01*
X10120D01*
X11120D02*
Y22730D01*
X11280D01*
Y22570D01*
X11120D01*
X10120Y21570D02*
Y21730D01*
X10280D01*
Y21570D01*
X10120D01*
X11120D02*
Y21730D01*
X11280D01*
Y21570D01*
X11120D01*
X10120Y20570D02*
Y20730D01*
X10280D01*
Y20570D01*
X10120D01*
X11120D02*
Y20730D01*
X11280D01*
Y20570D01*
X11120D01*
X10120Y19570D02*
Y19730D01*
X10280D01*
Y19570D01*
X10120D01*
X11120D02*
Y19730D01*
X11280D01*
Y19570D01*
X11120D01*
X10120Y18570D02*
Y18730D01*
X10280D01*
Y18570D01*
X10120D01*
X11120D02*
Y18730D01*
X11280D01*
Y18570D01*
X11120D01*
X10120Y17570D02*
Y17730D01*
X10280D01*
Y17570D01*
X10120D01*
X11120D02*
Y17730D01*
X11280D01*
Y17570D01*
X11120D01*
X10120Y16570D02*
Y16730D01*
X10280D01*
Y16570D01*
X10120D01*
X11120D02*
Y16730D01*
X11280D01*
Y16570D01*
X11120D01*
X10120Y15570D02*
Y15730D01*
X10280D01*
Y15570D01*
X10120D01*
X11120D02*
Y15730D01*
X11280D01*
Y15570D01*
X11120D01*
X10120Y14570D02*
Y14730D01*
X10280D01*
Y14570D01*
X10120D01*
X11120D02*
Y14730D01*
X11280D01*
Y14570D01*
X11120D01*
X10120Y13570D02*
Y13730D01*
X10280D01*
Y13570D01*
X10120D01*
X11120D02*
Y13730D01*
X11280D01*
Y13570D01*
X11120D01*
X10120Y12570D02*
Y12730D01*
X10280D01*
Y12570D01*
X10120D01*
X11120D02*
Y12730D01*
X11280D01*
Y12570D01*
X11120D01*
X10120Y11570D02*
Y11730D01*
X10280D01*
Y11570D01*
X10120D01*
X11120D02*
Y11730D01*
X11280D01*
Y11570D01*
X11120D01*
X10120Y10570D02*
Y10730D01*
X10280D01*
Y10570D01*
X10120D01*
X11120D02*
Y10730D01*
X11280D01*
Y10570D01*
X11120D01*
X10120Y9570D02*
Y9730D01*
X10280D01*
Y9570D01*
X10120D01*
X11120D02*
Y9730D01*
X11280D01*
Y9570D01*
X11120D01*
X18120Y13570D02*
Y13730D01*
X18280D01*
Y13570D01*
X18120D01*
X19120D02*
Y13730D01*
X19280D01*
Y13570D01*
X19120D01*
X18120Y14570D02*
Y14730D01*
X18280D01*
Y14570D01*
X18120D01*
X19120D02*
Y14730D01*
X19280D01*
Y14570D01*
X19120D01*
X18120Y15570D02*
Y15730D01*
X18280D01*
Y15570D01*
X18120D01*
X19120D02*
Y15730D01*
X19280D01*
Y15570D01*
X19120D01*
X18120Y16570D02*
Y16730D01*
X18280D01*
Y16570D01*
X18120D01*
X19120D02*
Y16730D01*
X19280D01*
Y16570D01*
X19120D01*
X18120Y9570D02*
Y9730D01*
X18280D01*
Y9570D01*
X18120D01*
X19120D02*
Y9730D01*
X19280D01*
Y9570D01*
X19120D01*
X18120Y10570D02*
Y10730D01*
X18280D01*
Y10570D01*
X18120D01*
X19120D02*
Y10730D01*
X19280D01*
Y10570D01*
X19120D01*
X18120Y11570D02*
Y11730D01*
X18280D01*
Y11570D01*
X18120D01*
X19120D02*
Y11730D01*
X19280D01*
Y11570D01*
X19120D01*
X18120Y12570D02*
Y12730D01*
X18280D01*
Y12570D01*
X18120D01*
X19120D02*
Y12730D01*
X19280D01*
Y12570D01*
X19120D01*
X3470Y25070D02*
Y25230D01*
X3630D01*
Y25070D01*
X3470D01*
X2470D02*
Y25230D01*
X2630D01*
Y25070D01*
X2470D01*
X1470D02*
Y25230D01*
X1630D01*
Y25070D01*
X1470D01*
Y23270D02*
Y23430D01*
X1630D01*
Y23270D01*
X1470D01*
Y22270D02*
Y22430D01*
X1630D01*
Y22270D01*
X1470D01*
Y21270D02*
Y21430D01*
X1630D01*
Y21270D01*
X1470D01*
Y20270D02*
Y20430D01*
X1630D01*
Y20270D01*
X1470D01*
X3920Y23220D02*
Y23380D01*
X4080D01*
Y23220D01*
X3920D01*
Y22220D02*
Y22380D01*
X4080D01*
Y22220D01*
X3920D01*
Y21220D02*
Y21380D01*
X4080D01*
Y21220D01*
X3920D01*
Y20220D02*
Y20380D01*
X4080D01*
Y20220D01*
X3920D01*
X8820Y25170D02*
X8860D01*
X8900Y25210D01*
X8940Y25170D01*
X8980D01*
Y25210D01*
X8940Y25250D01*
X8980Y25290D01*
Y25330D01*
X8940D01*
X8900Y25290D01*
X8860Y25330D01*
X8820D01*
Y25290D01*
X8860Y25250D01*
X8820Y25210D01*
Y25170D01*
X15920Y24770D02*
X15960D01*
X16000Y24810D01*
X16040Y24770D01*
X16080D01*
Y24810D01*
X16040Y24850D01*
X16080Y24890D01*
Y24930D01*
X16040D01*
X16000Y24890D01*
X15960Y24930D01*
X15920D01*
Y24890D01*
X15960Y24850D01*
X15920Y24810D01*
Y24770D01*
X17420Y14120D02*
X17460D01*
X17500Y14160D01*
X17540Y14120D01*
X17580D01*
Y14160D01*
X17540Y14200D01*
X17580Y14240D01*
Y14280D01*
X17540D01*
X17500Y14240D01*
X17460Y14280D01*
X17420D01*
Y14240D01*
X17460Y14200D01*
X17420Y14160D01*
Y14120D01*
X9020Y5870D02*
X9060D01*
X9100Y5910D01*
X9140Y5870D01*
X9180D01*
Y5910D01*
X9140Y5950D01*
X9180Y5990D01*
Y6030D01*
X9140D01*
X9100Y5990D01*
X9060Y6030D01*
X9020D01*
Y5990D01*
X9060Y5950D01*
X9020Y5910D01*
Y5870D01*
X15370Y12670D02*
X15410D01*
X15450Y12710D01*
X15490Y12670D01*
X15530D01*
Y12710D01*
X15490Y12750D01*
X15530Y12790D01*
Y12830D01*
X15490D01*
X15450Y12790D01*
X15410Y12830D01*
X15370D01*
Y12790D01*
X15410Y12750D01*
X15370Y12710D01*
Y12670D01*
X6960Y12250D02*
X7000D01*
X7040Y12290D01*
X7080Y12250D01*
X7120D01*
Y12290D01*
X7080Y12330D01*
X7120Y12370D01*
Y12410D01*
X7080D01*
X7040Y12370D01*
X7000Y12410D01*
X6960D01*
Y12370D01*
X7000Y12330D01*
X6960Y12290D01*
Y12250D01*
X27220Y8770D02*
X27260D01*
X27300Y8810D01*
X27340Y8770D01*
X27380D01*
Y8810D01*
X27340Y8850D01*
X27380Y8890D01*
Y8930D01*
X27340D01*
X27300Y8890D01*
X27260Y8930D01*
X27220D01*
Y8890D01*
X27260Y8850D01*
X27220Y8810D01*
Y8770D01*
X8970Y8370D02*
X9010D01*
X9050Y8410D01*
X9090Y8370D01*
X9130D01*
Y8410D01*
X9090Y8450D01*
X9130Y8490D01*
Y8530D01*
X9090D01*
X9050Y8490D01*
X9010Y8530D01*
X8970D01*
Y8490D01*
X9010Y8450D01*
X8970Y8410D01*
Y8370D01*
X26970Y8420D02*
X27010D01*
X27050Y8460D01*
X27090Y8420D01*
X27130D01*
Y8460D01*
X27090Y8500D01*
X27130Y8540D01*
Y8580D01*
X27090D01*
X27050Y8540D01*
X27010Y8580D01*
X26970D01*
Y8540D01*
X27010Y8500D01*
X26970Y8460D01*
Y8420D01*
X25820Y8220D02*
X25860D01*
X25900Y8260D01*
X25940Y8220D01*
X25980D01*
Y8260D01*
X25940Y8300D01*
X25980Y8340D01*
Y8380D01*
X25940D01*
X25900Y8340D01*
X25860Y8380D01*
X25820D01*
Y8340D01*
X25860Y8300D01*
X25820Y8260D01*
Y8220D01*
X25120Y6670D02*
X25160D01*
X25200Y6710D01*
X25240Y6670D01*
X25280D01*
Y6710D01*
X25240Y6750D01*
X25280Y6790D01*
Y6830D01*
X25240D01*
X25200Y6790D01*
X25160Y6830D01*
X25120D01*
Y6790D01*
X25160Y6750D01*
X25120Y6710D01*
Y6670D01*
Y6970D02*
X25160D01*
X25200Y7010D01*
X25240Y6970D01*
X25280D01*
Y7010D01*
X25240Y7050D01*
X25280Y7090D01*
Y7130D01*
X25240D01*
X25200Y7090D01*
X25160Y7130D01*
X25120D01*
Y7090D01*
X25160Y7050D01*
X25120Y7010D01*
Y6970D01*
X12270Y12790D02*
X12310D01*
X12350Y12830D01*
X12390Y12790D01*
X12430D01*
Y12830D01*
X12390Y12870D01*
X12430Y12910D01*
Y12950D01*
X12390D01*
X12350Y12910D01*
X12310Y12950D01*
X12270D01*
Y12910D01*
X12310Y12870D01*
X12270Y12830D01*
Y12790D01*
X12890Y11170D02*
X12930D01*
X12970Y11210D01*
X13010Y11170D01*
X13050D01*
Y11210D01*
X13010Y11250D01*
X13050Y11290D01*
Y11330D01*
X13010D01*
X12970Y11290D01*
X12930Y11330D01*
X12890D01*
Y11290D01*
X12930Y11250D01*
X12890Y11210D01*
Y11170D01*
X16167Y16955D02*
X16207D01*
X16247Y16995D01*
X16287Y16955D01*
X16327D01*
Y16995D01*
X16287Y17035D01*
X16327Y17075D01*
Y17115D01*
X16287D01*
X16247Y17075D01*
X16207Y17115D01*
X16167D01*
Y17075D01*
X16207Y17035D01*
X16167Y16995D01*
Y16955D01*
X17260Y23070D02*
X17300D01*
X17340Y23110D01*
X17380Y23070D01*
X17420D01*
Y23110D01*
X17380Y23150D01*
X17420Y23190D01*
Y23230D01*
X17380D01*
X17340Y23190D01*
X17300Y23230D01*
X17260D01*
Y23190D01*
X17300Y23150D01*
X17260Y23110D01*
Y23070D01*
X15070Y22620D02*
X15110D01*
X15150Y22660D01*
X15190Y22620D01*
X15230D01*
Y22660D01*
X15190Y22700D01*
X15230Y22740D01*
Y22780D01*
X15190D01*
X15150Y22740D01*
X15110Y22780D01*
X15070D01*
Y22740D01*
X15110Y22700D01*
X15070Y22660D01*
Y22620D01*
X17270Y20370D02*
X17310D01*
X17350Y20410D01*
X17390Y20370D01*
X17430D01*
Y20410D01*
X17390Y20450D01*
X17430Y20490D01*
Y20530D01*
X17390D01*
X17350Y20490D01*
X17310Y20530D01*
X17270D01*
Y20490D01*
X17310Y20450D01*
X17270Y20410D01*
Y20370D01*
X17670Y20270D02*
X17710D01*
X17750Y20310D01*
X17790Y20270D01*
X17830D01*
Y20310D01*
X17790Y20350D01*
X17830Y20390D01*
Y20430D01*
X17790D01*
X17750Y20390D01*
X17710Y20430D01*
X17670D01*
Y20390D01*
X17710Y20350D01*
X17670Y20310D01*
Y20270D01*
X16100Y10120D02*
X16140D01*
X16180Y10160D01*
X16220Y10120D01*
X16260D01*
Y10160D01*
X16220Y10200D01*
X16260Y10240D01*
Y10280D01*
X16220D01*
X16180Y10240D01*
X16140Y10280D01*
X16100D01*
Y10240D01*
X16140Y10200D01*
X16100Y10160D01*
Y10120D01*
X30320Y11720D02*
X30360D01*
X30400Y11760D01*
X30440Y11720D01*
X30480D01*
Y11760D01*
X30440Y11800D01*
X30480Y11840D01*
Y11880D01*
X30440D01*
X30400Y11840D01*
X30360Y11880D01*
X30320D01*
Y11840D01*
X30360Y11800D01*
X30320Y11760D01*
Y11720D01*
X30724Y10174D02*
X30764D01*
X30804Y10214D01*
X30844Y10174D01*
X30884D01*
Y10214D01*
X30844Y10254D01*
X30884Y10294D01*
Y10334D01*
X30844D01*
X30804Y10294D01*
X30764Y10334D01*
X30724D01*
Y10294D01*
X30764Y10254D01*
X30724Y10214D01*
Y10174D01*
X27320Y5470D02*
X27360D01*
X27400Y5510D01*
X27440Y5470D01*
X27480D01*
Y5510D01*
X27440Y5550D01*
X27480Y5590D01*
Y5630D01*
X27440D01*
X27400Y5590D01*
X27360Y5630D01*
X27320D01*
Y5590D01*
X27360Y5550D01*
X27320Y5510D01*
Y5470D01*
X26670Y4070D02*
X26710D01*
X26750Y4110D01*
X26790Y4070D01*
X26830D01*
Y4110D01*
X26790Y4150D01*
X26830Y4190D01*
Y4230D01*
X26790D01*
X26750Y4190D01*
X26710Y4230D01*
X26670D01*
Y4190D01*
X26710Y4150D01*
X26670Y4110D01*
Y4070D01*
X23220Y12770D02*
X23260D01*
X23300Y12810D01*
X23340Y12770D01*
X23380D01*
Y12810D01*
X23340Y12850D01*
X23380Y12890D01*
Y12930D01*
X23340D01*
X23300Y12890D01*
X23260Y12930D01*
X23220D01*
Y12890D01*
X23260Y12850D01*
X23220Y12810D01*
Y12770D01*
X22950Y10730D02*
X22990D01*
X23030Y10770D01*
X23070Y10730D01*
X23110D01*
Y10770D01*
X23070Y10810D01*
X23110Y10850D01*
Y10890D01*
X23070D01*
X23030Y10850D01*
X22990Y10890D01*
X22950D01*
Y10850D01*
X22990Y10810D01*
X22950Y10770D01*
Y10730D01*
X16870Y10170D02*
X16910D01*
X16950Y10210D01*
X16990Y10170D01*
X17030D01*
Y10210D01*
X16990Y10250D01*
X17030Y10290D01*
Y10330D01*
X16990D01*
X16950Y10290D01*
X16910Y10330D01*
X16870D01*
Y10290D01*
X16910Y10250D01*
X16870Y10210D01*
Y10170D01*
X8470Y10020D02*
X8510D01*
X8550Y10060D01*
X8590Y10020D01*
X8630D01*
Y10060D01*
X8590Y10100D01*
X8630Y10140D01*
Y10180D01*
X8590D01*
X8550Y10140D01*
X8510Y10180D01*
X8470D01*
Y10140D01*
X8510Y10100D01*
X8470Y10060D01*
Y10020D01*
X11120Y6370D02*
X11160D01*
X11200Y6410D01*
X11240Y6370D01*
X11280D01*
Y6410D01*
X11240Y6450D01*
X11280Y6490D01*
Y6530D01*
X11240D01*
X11200Y6490D01*
X11160Y6530D01*
X11120D01*
Y6490D01*
X11160Y6450D01*
X11120Y6410D01*
Y6370D01*
X10670Y5970D02*
X10710D01*
X10750Y6010D01*
X10790Y5970D01*
X10830D01*
Y6010D01*
X10790Y6050D01*
X10830Y6090D01*
Y6130D01*
X10790D01*
X10750Y6090D01*
X10710Y6130D01*
X10670D01*
Y6090D01*
X10710Y6050D01*
X10670Y6010D01*
Y5970D01*
X14520Y8070D02*
X14560D01*
X14600Y8110D01*
X14640Y8070D01*
X14680D01*
Y8110D01*
X14640Y8150D01*
X14680Y8190D01*
Y8230D01*
X14640D01*
X14600Y8190D01*
X14560Y8230D01*
X14520D01*
Y8190D01*
X14560Y8150D01*
X14520Y8110D01*
Y8070D01*
X14270Y6970D02*
X14310D01*
X14350Y7010D01*
X14390Y6970D01*
X14430D01*
Y7010D01*
X14390Y7050D01*
X14430Y7090D01*
Y7130D01*
X14390D01*
X14350Y7090D01*
X14310Y7130D01*
X14270D01*
Y7090D01*
X14310Y7050D01*
X14270Y7010D01*
Y6970D01*
X12570Y2720D02*
X12610D01*
X12650Y2760D01*
X12690Y2720D01*
X12730D01*
Y2760D01*
X12690Y2800D01*
X12730Y2840D01*
Y2880D01*
X12690D01*
X12650Y2840D01*
X12610Y2880D01*
X12570D01*
Y2840D01*
X12610Y2800D01*
X12570Y2760D01*
Y2720D01*
X6770Y17520D02*
X6810D01*
X6850Y17560D01*
X6890Y17520D01*
X6930D01*
Y17560D01*
X6890Y17600D01*
X6930Y17640D01*
Y17680D01*
X6890D01*
X6850Y17640D01*
X6810Y17680D01*
X6770D01*
Y17640D01*
X6810Y17600D01*
X6770Y17560D01*
Y17520D01*
X5470Y21120D02*
X5510D01*
X5550Y21160D01*
X5590Y21120D01*
X5630D01*
Y21160D01*
X5590Y21200D01*
X5630Y21240D01*
Y21280D01*
X5590D01*
X5550Y21240D01*
X5510Y21280D01*
X5470D01*
Y21240D01*
X5510Y21200D01*
X5470Y21160D01*
Y21120D01*
X3840Y17770D02*
X3880D01*
X3920Y17810D01*
X3960Y17770D01*
X4000D01*
Y17810D01*
X3960Y17850D01*
X4000Y17890D01*
Y17930D01*
X3960D01*
X3920Y17890D01*
X3880Y17930D01*
X3840D01*
Y17890D01*
X3880Y17850D01*
X3840Y17810D01*
Y17770D01*
X4335Y8005D02*
X4375D01*
X4415Y8045D01*
X4455Y8005D01*
X4495D01*
Y8045D01*
X4455Y8085D01*
X4495Y8125D01*
Y8165D01*
X4455D01*
X4415Y8125D01*
X4375Y8165D01*
X4335D01*
Y8125D01*
X4375Y8085D01*
X4335Y8045D01*
Y8005D01*
X13720Y2770D02*
X13760D01*
X13800Y2810D01*
X13840Y2770D01*
X13880D01*
Y2810D01*
X13840Y2850D01*
X13880Y2890D01*
Y2930D01*
X13840D01*
X13800Y2890D01*
X13760Y2930D01*
X13720D01*
Y2890D01*
X13760Y2850D01*
X13720Y2810D01*
Y2770D01*
X14533Y787D02*
X14573D01*
X14613Y827D01*
X14653Y787D01*
X14693D01*
Y827D01*
X14653Y867D01*
X14693Y907D01*
Y947D01*
X14653D01*
X14613Y907D01*
X14573Y947D01*
X14533D01*
Y907D01*
X14573Y867D01*
X14533Y827D01*
Y787D01*
X13310Y22730D02*
X13350D01*
X13390Y22770D01*
X13430Y22730D01*
X13470D01*
Y22770D01*
X13430Y22810D01*
X13470Y22850D01*
Y22890D01*
X13430D01*
X13390Y22850D01*
X13350Y22890D01*
X13310D01*
Y22850D01*
X13350Y22810D01*
X13310Y22770D01*
Y22730D01*
X28820Y17770D02*
X28860D01*
X28900Y17810D01*
X28940Y17770D01*
X28980D01*
Y17810D01*
X28940Y17850D01*
X28980Y17890D01*
Y17930D01*
X28940D01*
X28900Y17890D01*
X28860Y17930D01*
X28820D01*
Y17890D01*
X28860Y17850D01*
X28820Y17810D01*
Y17770D01*
X29370Y18270D02*
X29410D01*
X29450Y18310D01*
X29490Y18270D01*
X29530D01*
Y18310D01*
X29490Y18350D01*
X29530Y18390D01*
Y18430D01*
X29490D01*
X29450Y18390D01*
X29410Y18430D01*
X29370D01*
Y18390D01*
X29410Y18350D01*
X29370Y18310D01*
Y18270D01*
X19120Y10070D02*
X19160D01*
X19200Y10110D01*
X19240Y10070D01*
X19280D01*
Y10110D01*
X19240Y10150D01*
X19280Y10190D01*
Y10230D01*
X19240D01*
X19200Y10190D01*
X19160Y10230D01*
X19120D01*
Y10190D01*
X19160Y10150D01*
X19120Y10110D01*
Y10070D01*
X4290Y14554D02*
X4330D01*
X4370Y14594D01*
X4410Y14554D01*
X4450D01*
Y14594D01*
X4410Y14634D01*
X4450Y14674D01*
Y14714D01*
X4410D01*
X4370Y14674D01*
X4330Y14714D01*
X4290D01*
Y14674D01*
X4330Y14634D01*
X4290Y14594D01*
Y14554D01*
X13740Y18230D02*
X13780D01*
X13820Y18270D01*
X13860Y18230D01*
X13900D01*
Y18270D01*
X13860Y18310D01*
X13900Y18350D01*
Y18390D01*
X13860D01*
X13820Y18350D01*
X13780Y18390D01*
X13740D01*
Y18350D01*
X13780Y18310D01*
X13740Y18270D01*
Y18230D01*
X8050Y20650D02*
X8090D01*
X8130Y20690D01*
X8170Y20650D01*
X8210D01*
Y20690D01*
X8170Y20730D01*
X8210Y20770D01*
Y20810D01*
X8170D01*
X8130Y20770D01*
X8090Y20810D01*
X8050D01*
Y20770D01*
X8090Y20730D01*
X8050Y20690D01*
Y20650D01*
X15620Y18500D02*
X15660D01*
X15700Y18540D01*
X15740Y18500D01*
X15780D01*
Y18540D01*
X15740Y18580D01*
X15780Y18620D01*
Y18660D01*
X15740D01*
X15700Y18620D01*
X15660Y18660D01*
X15620D01*
Y18620D01*
X15660Y18580D01*
X15620Y18540D01*
Y18500D01*
X15880Y7250D02*
X15920D01*
X15960Y7290D01*
X16000Y7250D01*
X16040D01*
Y7290D01*
X16000Y7330D01*
X16040Y7370D01*
Y7410D01*
X16000D01*
X15960Y7370D01*
X15920Y7410D01*
X15880D01*
Y7370D01*
X15920Y7330D01*
X15880Y7290D01*
Y7250D01*
X24340Y6370D02*
X24380D01*
X24420Y6410D01*
X24460Y6370D01*
X24500D01*
Y6410D01*
X24460Y6450D01*
X24500Y6490D01*
Y6530D01*
X24460D01*
X24420Y6490D01*
X24380Y6530D01*
X24340D01*
Y6490D01*
X24380Y6450D01*
X24340Y6410D01*
Y6370D01*
X12410Y17770D02*
X12450D01*
X12490Y17810D01*
X12530Y17770D01*
X12570D01*
Y17810D01*
X12530Y17850D01*
X12570Y17890D01*
Y17930D01*
X12530D01*
X12490Y17890D01*
X12450Y17930D01*
X12410D01*
Y17890D01*
X12450Y17850D01*
X12410Y17810D01*
Y17770D01*
X24490Y23790D02*
X24530D01*
X24570Y23830D01*
X24610Y23790D01*
X24650D01*
Y23830D01*
X24610Y23870D01*
X24650Y23910D01*
Y23950D01*
X24610D01*
X24570Y23910D01*
X24530Y23950D01*
X24490D01*
Y23910D01*
X24530Y23870D01*
X24490Y23830D01*
Y23790D01*
X10620Y14630D02*
X10660D01*
X10700Y14670D01*
X10740Y14630D01*
X10780D01*
Y14670D01*
X10740Y14710D01*
X10780Y14750D01*
Y14790D01*
X10740D01*
X10700Y14750D01*
X10660Y14790D01*
X10620D01*
Y14750D01*
X10660Y14710D01*
X10620Y14670D01*
Y14630D01*
X25840Y4630D02*
X25880D01*
X25920Y4670D01*
X25960Y4630D01*
X26000D01*
Y4670D01*
X25960Y4710D01*
X26000Y4750D01*
Y4790D01*
X25960D01*
X25920Y4750D01*
X25880Y4790D01*
X25840D01*
Y4750D01*
X25880Y4710D01*
X25840Y4670D01*
Y4630D01*
X9200Y23910D02*
X9240D01*
X9280Y23950D01*
X9320Y23910D01*
X9360D01*
Y23950D01*
X9320Y23990D01*
X9360Y24030D01*
Y24070D01*
X9320D01*
X9280Y24030D01*
X9240Y24070D01*
X9200D01*
Y24030D01*
X9240Y23990D01*
X9200Y23950D01*
Y23910D01*
X10720Y24970D02*
X10760D01*
X10800Y25010D01*
X10840Y24970D01*
X10880D01*
Y25010D01*
X10840Y25050D01*
X10880Y25090D01*
Y25130D01*
X10840D01*
X10800Y25090D01*
X10760Y25130D01*
X10720D01*
Y25090D01*
X10760Y25050D01*
X10720Y25010D01*
Y24970D01*
X19570Y8950D02*
X19610D01*
X19650Y8990D01*
X19690Y8950D01*
X19730D01*
Y8990D01*
X19690Y9030D01*
X19730Y9070D01*
Y9110D01*
X19690D01*
X19650Y9070D01*
X19610Y9110D01*
X19570D01*
Y9070D01*
X19610Y9030D01*
X19570Y8990D01*
Y8950D01*
X14640Y15590D02*
X14680D01*
X14720Y15630D01*
X14760Y15590D01*
X14800D01*
Y15630D01*
X14760Y15670D01*
X14800Y15710D01*
Y15750D01*
X14760D01*
X14720Y15710D01*
X14680Y15750D01*
X14640D01*
Y15710D01*
X14680Y15670D01*
X14640Y15630D01*
Y15590D01*
X24390Y18220D02*
X24430D01*
X24470Y18260D01*
X24510Y18220D01*
X24550D01*
Y18260D01*
X24510Y18300D01*
X24550Y18340D01*
Y18380D01*
X24510D01*
X24470Y18340D01*
X24430Y18380D01*
X24390D01*
Y18340D01*
X24430Y18300D01*
X24390Y18260D01*
Y18220D01*
X17280Y1330D02*
X17320D01*
X17360Y1370D01*
X17400Y1330D01*
X17440D01*
Y1370D01*
X17400Y1410D01*
X17440Y1450D01*
Y1490D01*
X17400D01*
X17360Y1450D01*
X17320Y1490D01*
X17280D01*
Y1450D01*
X17320Y1410D01*
X17280Y1370D01*
Y1330D01*
X24735Y24085D02*
X24775D01*
X24815Y24125D01*
X24855Y24085D01*
X24895D01*
Y24125D01*
X24855Y24165D01*
X24895Y24205D01*
Y24245D01*
X24855D01*
X24815Y24205D01*
X24775Y24245D01*
X24735D01*
Y24205D01*
X24775Y24165D01*
X24735Y24125D01*
Y24085D01*
X12873Y12854D02*
X12913D01*
X12953Y12894D01*
X12993Y12854D01*
X13033D01*
Y12894D01*
X12993Y12934D01*
X13033Y12974D01*
Y13014D01*
X12993D01*
X12953Y12974D01*
X12913Y13014D01*
X12873D01*
Y12974D01*
X12913Y12934D01*
X12873Y12894D01*
Y12854D01*
X27610Y10750D02*
X27650D01*
X27690Y10790D01*
X27730Y10750D01*
X27770D01*
Y10790D01*
X27730Y10830D01*
X27770Y10870D01*
Y10910D01*
X27730D01*
X27690Y10870D01*
X27650Y10910D01*
X27610D01*
Y10870D01*
X27650Y10830D01*
X27610Y10790D01*
Y10750D01*
X27696Y15560D02*
X27736D01*
X27776Y15600D01*
X27816Y15560D01*
X27856D01*
Y15600D01*
X27816Y15640D01*
X27856Y15680D01*
Y15720D01*
X27816D01*
X27776Y15680D01*
X27736Y15720D01*
X27696D01*
Y15680D01*
X27736Y15640D01*
X27696Y15600D01*
Y15560D01*
X16167Y21367D02*
X16207D01*
X16247Y21407D01*
X16287Y21367D01*
X16327D01*
Y21407D01*
X16287Y21447D01*
X16327Y21487D01*
Y21527D01*
X16287D01*
X16247Y21487D01*
X16207Y21527D01*
X16167D01*
Y21487D01*
X16207Y21447D01*
X16167Y21407D01*
Y21367D01*
X12710Y16380D02*
X12750D01*
X12790Y16420D01*
X12830Y16380D01*
X12870D01*
Y16420D01*
X12830Y16460D01*
X12870Y16500D01*
Y16540D01*
X12830D01*
X12790Y16500D01*
X12750Y16540D01*
X12710D01*
Y16500D01*
X12750Y16460D01*
X12710Y16420D01*
Y16380D01*
X6240Y20610D02*
X6280D01*
X6320Y20650D01*
X6360Y20610D01*
X6400D01*
Y20650D01*
X6360Y20690D01*
X6400Y20730D01*
Y20770D01*
X6360D01*
X6320Y20730D01*
X6280Y20770D01*
X6240D01*
Y20730D01*
X6280Y20690D01*
X6240Y20650D01*
Y20610D01*
X20800Y21470D02*
X20840D01*
X20880Y21510D01*
X20920Y21470D01*
X20960D01*
Y21510D01*
X20920Y21550D01*
X20960Y21590D01*
Y21630D01*
X20920D01*
X20880Y21590D01*
X20840Y21630D01*
X20800D01*
Y21590D01*
X20840Y21550D01*
X20800Y21510D01*
Y21470D01*
X1340Y5550D02*
X1380D01*
X1420Y5590D01*
X1460Y5550D01*
X1500D01*
Y5590D01*
X1460Y5630D01*
X1500Y5670D01*
Y5710D01*
X1460D01*
X1420Y5670D01*
X1380Y5710D01*
X1340D01*
Y5670D01*
X1380Y5630D01*
X1340Y5590D01*
Y5550D01*
X6230Y19090D02*
X6270D01*
X6310Y19130D01*
X6350Y19090D01*
X6390D01*
Y19130D01*
X6350Y19170D01*
X6390Y19210D01*
Y19250D01*
X6350D01*
X6310Y19210D01*
X6270Y19250D01*
X6230D01*
Y19210D01*
X6270Y19170D01*
X6230Y19130D01*
Y19090D01*
X4890Y8920D02*
X4930D01*
X4970Y8960D01*
X5010Y8920D01*
X5050D01*
Y8960D01*
X5010Y9000D01*
X5050Y9040D01*
Y9080D01*
X5010D01*
X4970Y9040D01*
X4930Y9080D01*
X4890D01*
Y9040D01*
X4930Y9000D01*
X4890Y8960D01*
Y8920D01*
X14640Y4900D02*
X14680D01*
X14720Y4940D01*
X14760Y4900D01*
X14800D01*
Y4940D01*
X14760Y4980D01*
X14800Y5020D01*
Y5060D01*
X14760D01*
X14720Y5020D01*
X14680Y5060D01*
X14640D01*
Y5020D01*
X14680Y4980D01*
X14640Y4940D01*
Y4900D01*
X9120Y12770D02*
X9160D01*
X9200Y12810D01*
X9240Y12770D01*
X9280D01*
Y12810D01*
X9240Y12850D01*
X9280Y12890D01*
Y12930D01*
X9240D01*
X9200Y12890D01*
X9160Y12930D01*
X9120D01*
Y12890D01*
X9160Y12850D01*
X9120Y12810D01*
Y12770D01*
X24880Y10270D02*
X24920D01*
X24960Y10310D01*
X25000Y10270D01*
X25040D01*
Y10310D01*
X25000Y10350D01*
X25040Y10390D01*
Y10430D01*
X25000D01*
X24960Y10390D01*
X24920Y10430D01*
X24880D01*
Y10390D01*
X24920Y10350D01*
X24880Y10310D01*
Y10270D01*
X15210Y23680D02*
X15250D01*
X15290Y23720D01*
X15330Y23680D01*
X15370D01*
Y23720D01*
X15330Y23760D01*
X15370Y23800D01*
Y23840D01*
X15330D01*
X15290Y23800D01*
X15250Y23840D01*
X15210D01*
Y23800D01*
X15250Y23760D01*
X15210Y23720D01*
Y23680D01*
X14640Y25380D02*
X14680D01*
X14720Y25420D01*
X14760Y25380D01*
X14800D01*
Y25420D01*
X14760Y25460D01*
X14800Y25500D01*
Y25540D01*
X14760D01*
X14720Y25500D01*
X14680Y25540D01*
X14640D01*
Y25500D01*
X14680Y25460D01*
X14640Y25420D01*
Y25380D01*
X29200Y9670D02*
X29240D01*
X29280Y9710D01*
X29320Y9670D01*
X29360D01*
Y9710D01*
X29320Y9750D01*
X29360Y9790D01*
Y9830D01*
X29320D01*
X29280Y9790D01*
X29240Y9830D01*
X29200D01*
Y9790D01*
X29240Y9750D01*
X29200Y9710D01*
Y9670D01*
X26804Y12070D02*
X26844D01*
X26884Y12110D01*
X26924Y12070D01*
X26964D01*
Y12110D01*
X26924Y12150D01*
X26964Y12190D01*
Y12230D01*
X26924D01*
X26884Y12190D01*
X26844Y12230D01*
X26804D01*
Y12190D01*
X26844Y12150D01*
X26804Y12110D01*
Y12070D01*
X11220Y25920D02*
X11260D01*
X11300Y25960D01*
X11340Y25920D01*
X11380D01*
Y25960D01*
X11340Y26000D01*
X11380Y26040D01*
Y26080D01*
X11340D01*
X11300Y26040D01*
X11260Y26080D01*
X11220D01*
Y26040D01*
X11260Y26000D01*
X11220Y25960D01*
Y25920D01*
X9720Y25270D02*
X9760D01*
X9800Y25310D01*
X9840Y25270D01*
X9880D01*
Y25310D01*
X9840Y25350D01*
X9880Y25390D01*
Y25430D01*
X9840D01*
X9800Y25390D01*
X9760Y25430D01*
X9720D01*
Y25390D01*
X9760Y25350D01*
X9720Y25310D01*
Y25270D01*
X16690Y1145D02*
X16730D01*
X16770Y1185D01*
X16810Y1145D01*
X16850D01*
Y1185D01*
X16810Y1225D01*
X16850Y1265D01*
Y1305D01*
X16810D01*
X16770Y1265D01*
X16730Y1305D01*
X16690D01*
Y1265D01*
X16730Y1225D01*
X16690Y1185D01*
Y1145D01*
X23164Y16214D02*
X23204D01*
X23244Y16254D01*
X23284Y16214D01*
X23324D01*
Y16254D01*
X23284Y16294D01*
X23324Y16334D01*
Y16374D01*
X23284D01*
X23244Y16334D01*
X23204Y16374D01*
X23164D01*
Y16334D01*
X23204Y16294D01*
X23164Y16254D01*
Y16214D01*
X22020Y11720D02*
X22060D01*
X22100Y11760D01*
X22140Y11720D01*
X22180D01*
Y11760D01*
X22140Y11800D01*
X22180Y11840D01*
Y11880D01*
X22140D01*
X22100Y11840D01*
X22060Y11880D01*
X22020D01*
Y11840D01*
X22060Y11800D01*
X22020Y11760D01*
Y11720D01*
X25720Y9920D02*
X25760D01*
X25800Y9960D01*
X25840Y9920D01*
X25880D01*
Y9960D01*
X25840Y10000D01*
X25880Y10040D01*
Y10080D01*
X25840D01*
X25800Y10040D01*
X25760Y10080D01*
X25720D01*
Y10040D01*
X25760Y10000D01*
X25720Y9960D01*
Y9920D01*
X27370Y4270D02*
X27410D01*
X27450Y4310D01*
X27490Y4270D01*
X27530D01*
Y4310D01*
X27490Y4350D01*
X27530Y4390D01*
Y4430D01*
X27490D01*
X27450Y4390D01*
X27410Y4430D01*
X27370D01*
Y4390D01*
X27410Y4350D01*
X27370Y4310D01*
Y4270D01*
X18620Y870D02*
X18660D01*
X18700Y910D01*
X18740Y870D01*
X18780D01*
Y910D01*
X18740Y950D01*
X18780Y990D01*
Y1030D01*
X18740D01*
X18700Y990D01*
X18660Y1030D01*
X18620D01*
Y990D01*
X18660Y950D01*
X18620Y910D01*
Y870D01*
X12267Y24967D02*
X12307D01*
X12347Y25007D01*
X12387Y24967D01*
X12427D01*
Y25007D01*
X12387Y25047D01*
X12427Y25087D01*
Y25127D01*
X12387D01*
X12347Y25087D01*
X12307Y25127D01*
X12267D01*
Y25087D01*
X12307Y25047D01*
X12267Y25007D01*
Y24967D01*
X12070Y23420D02*
X12110D01*
X12150Y23460D01*
X12190Y23420D01*
X12230D01*
Y23460D01*
X12190Y23500D01*
X12230Y23540D01*
Y23580D01*
X12190D01*
X12150Y23540D01*
X12110Y23580D01*
X12070D01*
Y23540D01*
X12110Y23500D01*
X12070Y23460D01*
Y23420D01*
X8870Y22870D02*
X8910D01*
X8950Y22910D01*
X8990Y22870D01*
X9030D01*
Y22910D01*
X8990Y22950D01*
X9030Y22990D01*
Y23030D01*
X8990D01*
X8950Y22990D01*
X8910Y23030D01*
X8870D01*
Y22990D01*
X8910Y22950D01*
X8870Y22910D01*
Y22870D01*
Y20970D02*
X8910D01*
X8950Y21010D01*
X8990Y20970D01*
X9030D01*
Y21010D01*
X8990Y21050D01*
X9030Y21090D01*
Y21130D01*
X8990D01*
X8950Y21090D01*
X8910Y21130D01*
X8870D01*
Y21090D01*
X8910Y21050D01*
X8870Y21010D01*
Y20970D01*
X2232Y2509D02*
X2272D01*
X2312Y2549D01*
X2352Y2509D01*
X2392D01*
Y2549D01*
X2352Y2589D01*
X2392Y2629D01*
Y2669D01*
X2352D01*
X2312Y2629D01*
X2272Y2669D01*
X2232D01*
Y2629D01*
X2272Y2589D01*
X2232Y2549D01*
Y2509D01*
X2270Y1070D02*
X2310D01*
X2350Y1110D01*
X2390Y1070D01*
X2430D01*
Y1110D01*
X2390Y1150D01*
X2430Y1190D01*
Y1230D01*
X2390D01*
X2350Y1190D01*
X2310Y1230D01*
X2270D01*
Y1190D01*
X2310Y1150D01*
X2270Y1110D01*
Y1070D01*
X4070Y7020D02*
X4110D01*
X4150Y7060D01*
X4190Y7020D01*
X4230D01*
Y7060D01*
X4190Y7100D01*
X4230Y7140D01*
Y7180D01*
X4190D01*
X4150Y7140D01*
X4110Y7180D01*
X4070D01*
Y7140D01*
X4110Y7100D01*
X4070Y7060D01*
Y7020D01*
X7770Y19470D02*
X7810D01*
X7850Y19510D01*
X7890Y19470D01*
X7930D01*
Y19510D01*
X7890Y19550D01*
X7930Y19590D01*
Y19630D01*
X7890D01*
X7850Y19590D01*
X7810Y19630D01*
X7770D01*
Y19590D01*
X7810Y19550D01*
X7770Y19510D01*
Y19470D01*
X4570Y17420D02*
X4610D01*
X4650Y17460D01*
X4690Y17420D01*
X4730D01*
Y17460D01*
X4690Y17500D01*
X4730Y17540D01*
Y17580D01*
X4690D01*
X4650Y17540D01*
X4610Y17580D01*
X4570D01*
Y17540D01*
X4610Y17500D01*
X4570Y17460D01*
Y17420D01*
X18120Y2670D02*
X18160D01*
X18200Y2710D01*
X18240Y2670D01*
X18280D01*
Y2710D01*
X18240Y2750D01*
X18280Y2790D01*
Y2830D01*
X18240D01*
X18200Y2790D01*
X18160Y2830D01*
X18120D01*
Y2790D01*
X18160Y2750D01*
X18120Y2710D01*
Y2670D01*
X16570D02*
X16610D01*
X16650Y2710D01*
X16690Y2670D01*
X16730D01*
Y2710D01*
X16690Y2750D01*
X16730Y2790D01*
Y2830D01*
X16690D01*
X16650Y2790D01*
X16610Y2830D01*
X16570D01*
Y2790D01*
X16610Y2750D01*
X16570Y2710D01*
Y2670D01*
X15320Y2720D02*
X15360D01*
X15400Y2760D01*
X15440Y2720D01*
X15480D01*
Y2760D01*
X15440Y2800D01*
X15480Y2840D01*
Y2880D01*
X15440D01*
X15400Y2840D01*
X15360Y2880D01*
X15320D01*
Y2840D01*
X15360Y2800D01*
X15320Y2760D01*
Y2720D01*
X11020Y2770D02*
X11060D01*
X11100Y2810D01*
X11140Y2770D01*
X11180D01*
Y2810D01*
X11140Y2850D01*
X11180Y2890D01*
Y2930D01*
X11140D01*
X11100Y2890D01*
X11060Y2930D01*
X11020D01*
Y2890D01*
X11060Y2850D01*
X11020Y2810D01*
Y2770D01*
X15320Y4820D02*
X15360D01*
X15400Y4860D01*
X15440Y4820D01*
X15480D01*
Y4860D01*
X15440Y4900D01*
X15480Y4940D01*
Y4980D01*
X15440D01*
X15400Y4940D01*
X15360Y4980D01*
X15320D01*
Y4940D01*
X15360Y4900D01*
X15320Y4860D01*
Y4820D01*
X13720D02*
X13760D01*
X13800Y4860D01*
X13840Y4820D01*
X13880D01*
Y4860D01*
X13840Y4900D01*
X13880Y4940D01*
Y4980D01*
X13840D01*
X13800Y4940D01*
X13760Y4980D01*
X13720D01*
Y4940D01*
X13760Y4900D01*
X13720Y4860D01*
Y4820D01*
X31120Y5970D02*
X31160D01*
X31200Y6010D01*
X31240Y5970D01*
X31280D01*
Y6010D01*
X31240Y6050D01*
X31280Y6090D01*
Y6130D01*
X31240D01*
X31200Y6090D01*
X31160Y6130D01*
X31120D01*
Y6090D01*
X31160Y6050D01*
X31120Y6010D01*
Y5970D01*
X15370Y13470D02*
X15410D01*
X15450Y13510D01*
X15490Y13470D01*
X15530D01*
Y13510D01*
X15490Y13550D01*
X15530Y13590D01*
Y13630D01*
X15490D01*
X15450Y13590D01*
X15410Y13630D01*
X15370D01*
Y13590D01*
X15410Y13550D01*
X15370Y13510D01*
Y13470D01*
X14720Y16570D02*
X14760D01*
X14800Y16610D01*
X14840Y16570D01*
X14880D01*
Y16610D01*
X14840Y16650D01*
X14880Y16690D01*
Y16730D01*
X14840D01*
X14800Y16690D01*
X14760Y16730D01*
X14720D01*
Y16690D01*
X14760Y16650D01*
X14720Y16610D01*
Y16570D01*
X12870Y16670D02*
X12910D01*
X12950Y16710D01*
X12990Y16670D01*
X13030D01*
Y16710D01*
X12990Y16750D01*
X13030Y16790D01*
Y16830D01*
X12990D01*
X12950Y16790D01*
X12910Y16830D01*
X12870D01*
Y16790D01*
X12910Y16750D01*
X12870Y16710D01*
Y16670D01*
X13320Y24470D02*
X13360D01*
X13400Y24510D01*
X13440Y24470D01*
X13480D01*
Y24510D01*
X13440Y24550D01*
X13480Y24590D01*
Y24630D01*
X13440D01*
X13400Y24590D01*
X13360Y24630D01*
X13320D01*
Y24590D01*
X13360Y24550D01*
X13320Y24510D01*
Y24470D01*
X15770Y21970D02*
X15810D01*
X15850Y22010D01*
X15890Y21970D01*
X15930D01*
Y22010D01*
X15890Y22050D01*
X15930Y22090D01*
Y22130D01*
X15890D01*
X15850Y22090D01*
X15810Y22130D01*
X15770D01*
Y22090D01*
X15810Y22050D01*
X15770Y22010D01*
Y21970D01*
X7720Y15420D02*
X7760D01*
X7800Y15460D01*
X7840Y15420D01*
X7880D01*
Y15460D01*
X7840Y15500D01*
X7880Y15540D01*
Y15580D01*
X7840D01*
X7800Y15540D01*
X7760Y15580D01*
X7720D01*
Y15540D01*
X7760Y15500D01*
X7720Y15460D01*
Y15420D01*
X7020D02*
X7060D01*
X7100Y15460D01*
X7140Y15420D01*
X7180D01*
Y15460D01*
X7140Y15500D01*
X7180Y15540D01*
Y15580D01*
X7140D01*
X7100Y15540D01*
X7060Y15580D01*
X7020D01*
Y15540D01*
X7060Y15500D01*
X7020Y15460D01*
Y15420D01*
X6320D02*
X6360D01*
X6400Y15460D01*
X6440Y15420D01*
X6480D01*
Y15460D01*
X6440Y15500D01*
X6480Y15540D01*
Y15580D01*
X6440D01*
X6400Y15540D01*
X6360Y15580D01*
X6320D01*
Y15540D01*
X6360Y15500D01*
X6320Y15460D01*
Y15420D01*
X5620Y15470D02*
X5660D01*
X5700Y15510D01*
X5740Y15470D01*
X5780D01*
Y15510D01*
X5740Y15550D01*
X5780Y15590D01*
Y15630D01*
X5740D01*
X5700Y15590D01*
X5660Y15630D01*
X5620D01*
Y15590D01*
X5660Y15550D01*
X5620Y15510D01*
Y15470D01*
X8120Y14970D02*
X8160D01*
X8200Y15010D01*
X8240Y14970D01*
X8280D01*
Y15010D01*
X8240Y15050D01*
X8280Y15090D01*
Y15130D01*
X8240D01*
X8200Y15090D01*
X8160Y15130D01*
X8120D01*
Y15090D01*
X8160Y15050D01*
X8120Y15010D01*
Y14970D01*
X7320D02*
X7360D01*
X7400Y15010D01*
X7440Y14970D01*
X7480D01*
Y15010D01*
X7440Y15050D01*
X7480Y15090D01*
Y15130D01*
X7440D01*
X7400Y15090D01*
X7360Y15130D01*
X7320D01*
Y15090D01*
X7360Y15050D01*
X7320Y15010D01*
Y14970D01*
X6720D02*
X6760D01*
X6800Y15010D01*
X6840Y14970D01*
X6880D01*
Y15010D01*
X6840Y15050D01*
X6880Y15090D01*
Y15130D01*
X6840D01*
X6800Y15090D01*
X6760Y15130D01*
X6720D01*
Y15090D01*
X6760Y15050D01*
X6720Y15010D01*
Y14970D01*
X5970D02*
X6010D01*
X6050Y15010D01*
X6090Y14970D01*
X6130D01*
Y15010D01*
X6090Y15050D01*
X6130Y15090D01*
Y15130D01*
X6090D01*
X6050Y15090D01*
X6010Y15130D01*
X5970D01*
Y15090D01*
X6010Y15050D01*
X5970Y15010D01*
Y14970D01*
X5320D02*
X5360D01*
X5400Y15010D01*
X5440Y14970D01*
X5480D01*
Y15010D01*
X5440Y15050D01*
X5480Y15090D01*
Y15130D01*
X5440D01*
X5400Y15090D01*
X5360Y15130D01*
X5320D01*
Y15090D01*
X5360Y15050D01*
X5320Y15010D01*
Y14970D01*
X2220Y8520D02*
X2260D01*
X2300Y8560D01*
X2340Y8520D01*
X2380D01*
Y8560D01*
X2340Y8600D01*
X2380Y8640D01*
Y8680D01*
X2340D01*
X2300Y8640D01*
X2260Y8680D01*
X2220D01*
Y8640D01*
X2260Y8600D01*
X2220Y8560D01*
Y8520D01*
X6670Y9020D02*
X6710D01*
X6750Y9060D01*
X6790Y9020D01*
X6830D01*
Y9060D01*
X6790Y9100D01*
X6830Y9140D01*
Y9180D01*
X6790D01*
X6750Y9140D01*
X6710Y9180D01*
X6670D01*
Y9140D01*
X6710Y9100D01*
X6670Y9060D01*
Y9020D01*
X1370Y7570D02*
X1410D01*
X1450Y7610D01*
X1490Y7570D01*
X1530D01*
Y7610D01*
X1490Y7650D01*
X1530Y7690D01*
Y7730D01*
X1490D01*
X1450Y7690D01*
X1410Y7730D01*
X1370D01*
Y7690D01*
X1410Y7650D01*
X1370Y7610D01*
Y7570D01*
X31070Y6920D02*
X31110D01*
X31150Y6960D01*
X31190Y6920D01*
X31230D01*
Y6960D01*
X31190Y7000D01*
X31230Y7040D01*
Y7080D01*
X31190D01*
X31150Y7040D01*
X31110Y7080D01*
X31070D01*
Y7040D01*
X31110Y7000D01*
X31070Y6960D01*
Y6920D01*
X25470Y5545D02*
X25510D01*
X25550Y5585D01*
X25590Y5545D01*
X25630D01*
Y5585D01*
X25590Y5625D01*
X25630Y5665D01*
Y5705D01*
X25590D01*
X25550Y5665D01*
X25510Y5705D01*
X25470D01*
Y5665D01*
X25510Y5625D01*
X25470Y5585D01*
Y5545D01*
X24370Y9470D02*
X24410D01*
X24450Y9510D01*
X24490Y9470D01*
X24530D01*
Y9510D01*
X24490Y9550D01*
X24530Y9590D01*
Y9630D01*
X24490D01*
X24450Y9590D01*
X24410Y9630D01*
X24370D01*
Y9590D01*
X24410Y9550D01*
X24370Y9510D01*
Y9470D01*
X23220Y13870D02*
X23260D01*
X23300Y13910D01*
X23340Y13870D01*
X23380D01*
Y13910D01*
X23340Y13950D01*
X23380Y13990D01*
Y14030D01*
X23340D01*
X23300Y13990D01*
X23260Y14030D01*
X23220D01*
Y13990D01*
X23260Y13950D01*
X23220Y13910D01*
Y13870D01*
X28447Y15543D02*
X28487D01*
X28527Y15583D01*
X28567Y15543D01*
X28607D01*
Y15583D01*
X28567Y15623D01*
X28607Y15663D01*
Y15703D01*
X28567D01*
X28527Y15663D01*
X28487Y15703D01*
X28447D01*
Y15663D01*
X28487Y15623D01*
X28447Y15583D01*
Y15543D01*
X30320Y16820D02*
X30360D01*
X30400Y16860D01*
X30440Y16820D01*
X30480D01*
Y16860D01*
X30440Y16900D01*
X30480Y16940D01*
Y16980D01*
X30440D01*
X30400Y16940D01*
X30360Y16980D01*
X30320D01*
Y16940D01*
X30360Y16900D01*
X30320Y16860D01*
Y16820D01*
X14320Y14670D02*
X14360D01*
X14400Y14710D01*
X14440Y14670D01*
X14480D01*
Y14710D01*
X14440Y14750D01*
X14480Y14790D01*
Y14830D01*
X14440D01*
X14400Y14790D01*
X14360Y14830D01*
X14320D01*
Y14790D01*
X14360Y14750D01*
X14320Y14710D01*
Y14670D01*
X13820D02*
X13860D01*
X13900Y14710D01*
X13940Y14670D01*
X13980D01*
Y14710D01*
X13940Y14750D01*
X13980Y14790D01*
Y14830D01*
X13940D01*
X13900Y14790D01*
X13860Y14830D01*
X13820D01*
Y14790D01*
X13860Y14750D01*
X13820Y14710D01*
Y14670D01*
X14820Y8970D02*
X14860D01*
X14900Y9010D01*
X14940Y8970D01*
X14980D01*
Y9010D01*
X14940Y9050D01*
X14980Y9090D01*
Y9130D01*
X14940D01*
X14900Y9090D01*
X14860Y9130D01*
X14820D01*
Y9090D01*
X14860Y9050D01*
X14820Y9010D01*
Y8970D01*
X11920Y7270D02*
X11960D01*
X12000Y7310D01*
X12040Y7270D01*
X12080D01*
Y7310D01*
X12040Y7350D01*
X12080Y7390D01*
Y7430D01*
X12040D01*
X12000Y7390D01*
X11960Y7430D01*
X11920D01*
Y7390D01*
X11960Y7350D01*
X11920Y7310D01*
Y7270D01*
X20370Y14520D02*
X20410D01*
X20450Y14560D01*
X20490Y14520D01*
X20530D01*
Y14560D01*
X20490Y14600D01*
X20530Y14640D01*
Y14680D01*
X20490D01*
X20450Y14640D01*
X20410Y14680D01*
X20370D01*
Y14640D01*
X20410Y14600D01*
X20370Y14560D01*
Y14520D01*
X20570Y15220D02*
X20610D01*
X20650Y15260D01*
X20690Y15220D01*
X20730D01*
Y15260D01*
X20690Y15300D01*
X20730Y15340D01*
Y15380D01*
X20690D01*
X20650Y15340D01*
X20610Y15380D01*
X20570D01*
Y15340D01*
X20610Y15300D01*
X20570Y15260D01*
Y15220D01*
X20220Y15020D02*
X20260D01*
X20300Y15060D01*
X20340Y15020D01*
X20380D01*
Y15060D01*
X20340Y15100D01*
X20380Y15140D01*
Y15180D01*
X20340D01*
X20300Y15140D01*
X20260Y15180D01*
X20220D01*
Y15140D01*
X20260Y15100D01*
X20220Y15060D01*
Y15020D01*
X27470Y17270D02*
X27510D01*
X27550Y17310D01*
X27590Y17270D01*
X27630D01*
Y17310D01*
X27590Y17350D01*
X27630Y17390D01*
Y17430D01*
X27590D01*
X27550Y17390D01*
X27510Y17430D01*
X27470D01*
Y17390D01*
X27510Y17350D01*
X27470Y17310D01*
Y17270D01*
D105*
X7138Y25761D02*
G03*
X7138Y25761I-80J0D01*
G01*
X7352Y25297D02*
G03*
X7352Y25297I-80J0D01*
G01*
X7252Y24795D02*
G03*
X7252Y24795I-80J0D01*
G01*
X6876Y24448D02*
G03*
X6876Y24448I-80J0D01*
G01*
X6368Y24388D02*
G03*
X6368Y24388I-80J0D01*
G01*
X5922Y24639D02*
G03*
X5922Y24639I-80J0D01*
G01*
X5708Y25103D02*
G03*
X5708Y25103I-80J0D01*
G01*
X5808Y25605D02*
G03*
X5808Y25605I-80J0D01*
G01*
X6184Y25952D02*
G03*
X6184Y25952I-80J0D01*
G01*
X6692Y26012D02*
G03*
X6692Y26012I-80J0D01*
G01*
X30738Y25761D02*
G03*
X30738Y25761I-80J0D01*
G01*
X30952Y25297D02*
G03*
X30952Y25297I-80J0D01*
G01*
X30852Y24795D02*
G03*
X30852Y24795I-80J0D01*
G01*
X30476Y24448D02*
G03*
X30476Y24448I-80J0D01*
G01*
X29968Y24388D02*
G03*
X29968Y24388I-80J0D01*
G01*
X29522Y24639D02*
G03*
X29522Y24639I-80J0D01*
G01*
X29308Y25103D02*
G03*
X29308Y25103I-80J0D01*
G01*
X29408Y25605D02*
G03*
X29408Y25605I-80J0D01*
G01*
X29784Y25952D02*
G03*
X29784Y25952I-80J0D01*
G01*
X30292Y26012D02*
G03*
X30292Y26012I-80J0D01*
G01*
X7088Y2109D02*
G03*
X7088Y2109I-80J0D01*
G01*
X7302Y1645D02*
G03*
X7302Y1645I-80J0D01*
G01*
X7202Y1143D02*
G03*
X7202Y1143I-80J0D01*
G01*
X6826Y796D02*
G03*
X6826Y796I-80J0D01*
G01*
X6318Y736D02*
G03*
X6318Y736I-80J0D01*
G01*
X5872Y987D02*
G03*
X5872Y987I-80J0D01*
G01*
X5658Y1451D02*
G03*
X5658Y1451I-80J0D01*
G01*
X5758Y1953D02*
G03*
X5758Y1953I-80J0D01*
G01*
X6134Y2300D02*
G03*
X6134Y2300I-80J0D01*
G01*
X6642Y2360D02*
G03*
X6642Y2360I-80J0D01*
G01*
X30688Y2109D02*
G03*
X30688Y2109I-80J0D01*
G01*
X30902Y1645D02*
G03*
X30902Y1645I-80J0D01*
G01*
X30802Y1143D02*
G03*
X30802Y1143I-80J0D01*
G01*
X30426Y796D02*
G03*
X30426Y796I-80J0D01*
G01*
X29918Y736D02*
G03*
X29918Y736I-80J0D01*
G01*
X29472Y987D02*
G03*
X29472Y987I-80J0D01*
G01*
X29258Y1451D02*
G03*
X29258Y1451I-80J0D01*
G01*
X29358Y1953D02*
G03*
X29358Y1953I-80J0D01*
G01*
X29734Y2300D02*
G03*
X29734Y2300I-80J0D01*
G01*
X30242Y2360D02*
G03*
X30242Y2360I-80J0D01*
G01*
M02*
