M48
;Layer_Color=9474304
;FILE_FORMAT=2:4
INCH,LZ
;TYPE=PLATED
T1F00S00C0.0120
T2F00S00C0.0220
T3F00S00C0.0354
T4F00S00C0.0472
T6F00S00C0.1024
T7F00S00C0.1200
%
T01
X0312Y00605
X03115Y007
X030804Y010254
X0304Y0118
X02928Y00975
X02769Y01083
X026884Y01215
X0258Y01
X02496Y01035
X02445Y00955
X02303Y01081
X0221Y0118
X0233Y01285
Y01395
X02045Y0146
X0203Y0151
X02065Y0153
X0175Y0142
X01545Y01355
Y01275
X01618Y0102
X01695Y01025
X0192Y01015
X01965Y00903
X01596Y00733
X0154Y0049
Y0028
X01665Y00275
X0182
X01736Y00141
X01677Y001225
X0187Y00095
X02592Y00471
X02555Y005625
X0252Y00675
Y00705
X02442Y00645
X0259Y0083
X02705Y0085
X0273Y00885
X0274Y00555
X02745Y00435
X02675Y00415
X027776Y01564
X028527Y015623
X01472Y01567
X0144Y01475
X0139
X012953Y012934
X01235Y01287
X01297Y01125
X0149Y00905
X0146Y00815
X01435Y00705
X01472Y00498
X0138Y0049
Y00285
X01265Y0028
X0111Y00285
X01075Y00605
X0112Y00645
X012Y00735
X00905Y00845
X00855Y0101
X00675Y0091
X00497Y009
X004415Y008085
X00415Y0071
X00145Y00765
X0023Y0086
X00142Y00563
X002312Y002589
X00235Y00115
X0091Y00595
X0092Y01285
X00704Y01233
X0068Y01505
X0074
X0071Y0155
X0078
X0082Y01505
X00605
X0054
X0057Y01555
X0064Y0155
X00437Y014634
X0107Y01471
X014613Y000867
X0148Y01665
X01295Y01675
X01279Y01646
X01249Y01785
X01382Y01831
X01339Y02281
X0134Y02455
X012347Y025047
X0108Y02505
X0098Y02535
X0089Y02525
X00928Y02399
X00895Y02295
Y02105
X00813Y02073
X00785Y01955
X00631Y01917
X00632Y02069
X00555Y0212
X00465Y0175
X00392Y01785
X00685Y0176
X01215Y0235
X0113Y026
X01472Y02546
X01515Y0227
X01529Y02376
X016Y02485
X01585Y02205
X016247Y021447
X01735Y02045
X01775Y02035
X01734Y02315
X02088Y02155
X02457Y02387
X024815Y024165
X02447Y0183
X023244Y016294
X02755Y01735
X0289Y01785
X02945Y01835
X0304Y0169
X016247Y017035
X0157Y01858
T02
X029392Y000987
X029178Y001451
X029278Y001953
X029654Y0023
X030162Y00236
X030608Y002109
X030822Y001645
X030722Y001143
X030346Y000796
X029838Y000736
X007122Y001143
X007222Y001645
X007008Y002109
X006562Y00236
X006054Y0023
X005678Y001953
X005578Y001451
X005792Y000987
X006238Y000736
X006746Y000796
X006796Y024448
X006288Y024388
X005842Y024639
X005628Y025103
X005728Y025605
X006104Y025952
X006612Y026012
X007058Y025761
X007272Y025297
X007172Y024795
X029228Y025103
X029328Y025605
X029704Y025952
X030212Y026012
X030658Y025761
X030872Y025297
X030772Y024795
X030396Y024448
X029888Y024388
X029442Y024639
T03
X01965Y00125
Y00225
X02265
Y00125
X02215Y00875
Y00975
Y01075
X0192Y01065
Y00965
X0182
Y01065
Y01165
X0192
Y01265
Y01365
X0182
Y01465
X0192
Y01565
X0182
Y01265
X0263
Y01365
Y01465
Y01565
X0112
X0102
Y01465
X0112
Y01365
X0102
Y01265
X0112
Y01165
X0102
Y01065
X0112
Y00965
X0102
X0095Y00495
Y00395
Y00295
Y00195
X00255Y01315
X00155
Y01415
X00255
Y01515
X00155
Y01615
X00255
Y01715
X00155
Y02035
Y02135
Y02235
Y02335
Y02515
X00255
X00355
X004Y0233
Y0223
Y0213
Y0203
X0071Y0207
Y0217
Y0227
X0102Y02265
Y02365
Y02465
X0112
Y02365
Y02265
Y02165
X0102
Y02065
X0112
Y01965
X0102
Y01865
X0112
Y01765
X0102
Y01665
X0112
X0146Y018981
Y02095
X0182Y02065
X0192
Y01965
X0182
Y01865
X0192
Y01765
X0182
Y01665
X0192
Y02165
Y02265
Y02365
Y02465
X0182
Y02365
Y02265
Y02165
X02105Y0223
X02205
X02305
X02405
X02505
X02605
X02705
X02805
Y02465
X02705
X02605
X02505
X02405
X02305
X02205
X02105
X0263Y01765
Y01665
T04
X0252Y0017
X0272
T06
X005513Y0043
X0076
T07
X03Y001548
X0064
X00645Y0252
X03005
M30
