G04*
G04 #@! TF.GenerationSoftware,Altium Limited,Altium Designer,20.0.13 (296)*
G04*
G04 Layer_Physical_Order=1*
G04 Layer_Color=255*
%FSLAX24Y24*%
%MOIN*%
G70*
G01*
G75*
%ADD17C,0.0080*%
%ADD22R,0.0366X0.0386*%
%ADD23R,0.0472X0.0276*%
%ADD24R,0.1299X0.0402*%
%ADD25R,0.1063X0.0394*%
%ADD26R,0.0866X0.0689*%
%ADD27R,0.0315X0.0335*%
%ADD46C,0.0300*%
%ADD47C,0.0250*%
%ADD48C,0.0800*%
%ADD49R,0.0591X0.0591*%
%ADD50C,0.0591*%
%ADD51R,0.0591X0.0591*%
%ADD52C,0.0230*%
%ADD53C,0.2000*%
G04:AMPARAMS|DCode=54|XSize=236.2mil|YSize=157.5mil|CornerRadius=39.4mil|HoleSize=0mil|Usage=FLASHONLY|Rotation=270.000|XOffset=0mil|YOffset=0mil|HoleType=Round|Shape=RoundedRectangle|*
%AMROUNDEDRECTD54*
21,1,0.2362,0.0787,0,0,270.0*
21,1,0.1575,0.1575,0,0,270.0*
1,1,0.0787,-0.0394,-0.0787*
1,1,0.0787,-0.0394,0.0787*
1,1,0.0787,0.0394,0.0787*
1,1,0.0787,0.0394,-0.0787*
%
%ADD54ROUNDEDRECTD54*%
%ADD55O,0.0787X0.1181*%
%ADD56R,0.0866X0.1378*%
%ADD57C,0.0709*%
%ADD58R,0.0709X0.0709*%
%ADD59C,0.0591*%
%ADD60R,0.0591X0.0591*%
%ADD61C,0.0240*%
G36*
X31650Y0D02*
X-50D01*
Y26650D01*
X31650D01*
Y0D01*
D02*
G37*
%LPC*%
G36*
X11300Y26214D02*
X10450D01*
X10368Y26198D01*
X10299Y26151D01*
X9649Y25501D01*
X9602Y25432D01*
X9586Y25350D01*
X9602Y25268D01*
X9649Y25199D01*
X9718Y25152D01*
X9800Y25136D01*
X9882Y25152D01*
X9951Y25199D01*
X10539Y25786D01*
X11300D01*
X11382Y25802D01*
X11451Y25849D01*
X11498Y25918D01*
X11514Y26000D01*
X11498Y26082D01*
X11451Y26151D01*
X11382Y26198D01*
X11300Y26214D01*
D02*
G37*
G36*
X8900Y25434D02*
X8830Y25420D01*
X8770Y25380D01*
X8730Y25320D01*
X8716Y25250D01*
X8726Y25201D01*
X7558Y24032D01*
X3840D01*
X3801Y24024D01*
X3768Y24002D01*
X2018Y22252D01*
X1996Y22219D01*
X1988Y22180D01*
Y15921D01*
X1942Y15902D01*
X1864Y15980D01*
X1896Y16057D01*
X1908Y16150D01*
X1896Y16243D01*
X1860Y16329D01*
X1803Y16403D01*
X1729Y16460D01*
X1643Y16496D01*
X1550Y16508D01*
X1457Y16496D01*
X1371Y16460D01*
X1297Y16403D01*
X1240Y16329D01*
X1204Y16243D01*
X1192Y16150D01*
X1204Y16057D01*
X1240Y15971D01*
X1297Y15897D01*
X1371Y15840D01*
X1457Y15804D01*
X1550Y15792D01*
X1643Y15804D01*
X1720Y15836D01*
X1843Y15712D01*
Y15427D01*
X1793Y15411D01*
X1729Y15460D01*
X1643Y15496D01*
X1550Y15508D01*
X1457Y15496D01*
X1371Y15460D01*
X1297Y15403D01*
X1240Y15329D01*
X1204Y15243D01*
X1192Y15150D01*
X1204Y15057D01*
X1236Y14980D01*
X458Y14202D01*
X436Y14169D01*
X428Y14130D01*
Y3380D01*
X436Y3341D01*
X458Y3308D01*
X688Y3078D01*
X715Y3060D01*
Y2889D01*
X2134D01*
Y3411D01*
X715D01*
Y3404D01*
X669Y3385D01*
X632Y3422D01*
Y4269D01*
X678Y4288D01*
X715Y4251D01*
Y3889D01*
X2134D01*
Y4411D01*
X1522D01*
Y5482D01*
X1550Y5500D01*
X1590Y5560D01*
X1604Y5630D01*
X1590Y5700D01*
X1550Y5760D01*
X1490Y5800D01*
X1420Y5814D01*
X1350Y5800D01*
X1290Y5760D01*
X1250Y5700D01*
X1236Y5630D01*
X1250Y5560D01*
X1290Y5500D01*
X1318Y5482D01*
Y4411D01*
X843D01*
X772Y4482D01*
Y6839D01*
X2134D01*
Y6886D01*
X2566D01*
Y6839D01*
X3985D01*
Y6886D01*
X4150D01*
X4232Y6902D01*
X4254Y6917D01*
X4298Y6893D01*
Y4912D01*
X3797Y4411D01*
X2566D01*
Y3889D01*
X3985D01*
Y4311D01*
X4472Y4798D01*
X4494Y4831D01*
X4502Y4870D01*
Y7927D01*
X4545Y7955D01*
X4585Y8015D01*
X4599Y8085D01*
X4585Y8155D01*
X4545Y8215D01*
X4502Y8243D01*
Y9750D01*
X4494Y9789D01*
X4472Y9822D01*
X4122Y10172D01*
X4089Y10194D01*
X4050Y10202D01*
X3985D01*
Y10361D01*
X2566D01*
Y9839D01*
X3985D01*
Y9950D01*
X4035Y9971D01*
X4298Y9708D01*
Y8223D01*
X4285Y8215D01*
X4245Y8155D01*
X4231Y8085D01*
X4245Y8015D01*
X4285Y7955D01*
X4298Y7947D01*
Y7307D01*
X4254Y7283D01*
X4232Y7298D01*
X4150Y7314D01*
X3985D01*
Y7361D01*
X2566D01*
Y7314D01*
X2134D01*
Y7361D01*
X772D01*
Y8839D01*
X2134D01*
Y9016D01*
X2152Y9028D01*
X2252Y9128D01*
X2274Y9161D01*
X2282Y9200D01*
Y10410D01*
X2274Y10449D01*
X2252Y10482D01*
X1252Y11482D01*
Y12881D01*
X1253Y12882D01*
X1302Y12893D01*
X1371Y12840D01*
X1457Y12804D01*
X1550Y12792D01*
X1643Y12804D01*
X1729Y12840D01*
X1803Y12897D01*
X1860Y12971D01*
X1896Y13057D01*
X1908Y13150D01*
X1896Y13243D01*
X1860Y13329D01*
X1803Y13403D01*
X1729Y13460D01*
X1643Y13496D01*
X1550Y13508D01*
X1457Y13496D01*
X1371Y13460D01*
X1302Y13407D01*
X1253Y13418D01*
X1252Y13419D01*
Y13881D01*
X1253Y13882D01*
X1302Y13893D01*
X1371Y13840D01*
X1457Y13804D01*
X1550Y13792D01*
X1643Y13804D01*
X1729Y13840D01*
X1803Y13897D01*
X1860Y13971D01*
X1896Y14057D01*
X1908Y14150D01*
X1896Y14243D01*
X1864Y14320D01*
X2162Y14618D01*
X2184Y14651D01*
X2192Y14690D01*
Y16943D01*
X2237Y16968D01*
X2242Y16968D01*
X2297Y16897D01*
X2371Y16840D01*
X2457Y16804D01*
X2550Y16792D01*
X2643Y16804D01*
X2729Y16840D01*
X2803Y16897D01*
X2860Y16971D01*
X2896Y17057D01*
X2908Y17150D01*
X2896Y17243D01*
X2860Y17329D01*
X2803Y17403D01*
X2729Y17460D01*
X2643Y17496D01*
X2550Y17508D01*
X2457Y17496D01*
X2371Y17460D01*
X2297Y17403D01*
X2242Y17332D01*
X2237Y17332D01*
X2192Y17357D01*
Y22138D01*
X3882Y23828D01*
X7600D01*
X7639Y23836D01*
X7672Y23858D01*
X8884Y25070D01*
X8900Y25066D01*
X8970Y25080D01*
X9030Y25120D01*
X9070Y25180D01*
X9084Y25250D01*
X9070Y25320D01*
X9030Y25380D01*
X8970Y25420D01*
X8900Y25434D01*
D02*
G37*
G36*
X25480Y25442D02*
X19900D01*
X19861Y25434D01*
X19828Y25412D01*
X19528Y25112D01*
X19506Y25079D01*
X19498Y25040D01*
Y24919D01*
X19497Y24918D01*
X19448Y24907D01*
X19379Y24960D01*
X19293Y24996D01*
X19200Y25008D01*
X19107Y24996D01*
X19021Y24960D01*
X18947Y24903D01*
X18890Y24829D01*
X18854Y24743D01*
X18842Y24650D01*
X18854Y24557D01*
X18890Y24471D01*
X18947Y24397D01*
X19021Y24340D01*
X19107Y24304D01*
X19200Y24292D01*
X19293Y24304D01*
X19379Y24340D01*
X19448Y24393D01*
X19497Y24382D01*
X19498Y24381D01*
Y23919D01*
X19497Y23918D01*
X19448Y23907D01*
X19379Y23960D01*
X19293Y23996D01*
X19200Y24008D01*
X19107Y23996D01*
X19021Y23960D01*
X18947Y23903D01*
X18890Y23829D01*
X18854Y23743D01*
X18842Y23650D01*
X18854Y23557D01*
X18890Y23471D01*
X18947Y23397D01*
X19021Y23340D01*
X19032Y23335D01*
X19042Y23286D01*
X18728Y22972D01*
X18706Y22939D01*
X18698Y22900D01*
Y22497D01*
X18558Y22357D01*
X18477D01*
X18461Y22407D01*
X18510Y22471D01*
X18546Y22557D01*
X18558Y22650D01*
X18546Y22743D01*
X18510Y22829D01*
X18453Y22903D01*
X18379Y22960D01*
X18293Y22996D01*
X18200Y23008D01*
X18107Y22996D01*
X18030Y22964D01*
X16177Y24817D01*
X16184Y24850D01*
X16170Y24920D01*
X16130Y24980D01*
X16070Y25020D01*
X16000Y25034D01*
X15930Y25020D01*
X15870Y24980D01*
X15830Y24920D01*
X15816Y24850D01*
X15830Y24780D01*
X15870Y24720D01*
X15930Y24680D01*
X16000Y24666D01*
X16033Y24673D01*
X17324Y23381D01*
X17308Y23327D01*
X17270Y23320D01*
X17210Y23280D01*
X17170Y23220D01*
X17156Y23150D01*
X17163Y23117D01*
X16848Y22802D01*
X15298D01*
X15280Y22830D01*
X15220Y22870D01*
X15150Y22884D01*
X15080Y22870D01*
X15020Y22830D01*
X14980Y22770D01*
X14966Y22700D01*
X14980Y22630D01*
X15020Y22570D01*
X15080Y22530D01*
X15150Y22516D01*
X15220Y22530D01*
X15280Y22570D01*
X15298Y22598D01*
X16890D01*
X16929Y22606D01*
X16962Y22628D01*
X17307Y22973D01*
X17340Y22966D01*
X17410Y22980D01*
X17470Y23020D01*
X17510Y23080D01*
X17517Y23118D01*
X17571Y23134D01*
X17886Y22820D01*
X17854Y22743D01*
X17842Y22650D01*
X17854Y22557D01*
X17890Y22471D01*
X17939Y22407D01*
X17923Y22357D01*
X17055D01*
X17016Y22349D01*
X16983Y22327D01*
X16280Y21624D01*
X16247Y21630D01*
X16177Y21616D01*
X16117Y21577D01*
X16077Y21517D01*
X16063Y21447D01*
X16077Y21377D01*
X16117Y21317D01*
X16177Y21277D01*
X16203Y21272D01*
X16198Y21222D01*
X15842D01*
X13822Y23242D01*
X13789Y23264D01*
X13750Y23272D01*
X12183D01*
X12178Y23322D01*
X12220Y23330D01*
X12280Y23370D01*
X12320Y23430D01*
X12334Y23500D01*
X12320Y23570D01*
X12280Y23630D01*
X12220Y23670D01*
X12150Y23684D01*
X12080Y23670D01*
X12020Y23630D01*
X11980Y23570D01*
X11966Y23500D01*
X11980Y23430D01*
X12020Y23370D01*
X12080Y23330D01*
X12122Y23322D01*
X12118Y23272D01*
X11346D01*
X11336Y23322D01*
X11379Y23340D01*
X11453Y23397D01*
X11510Y23471D01*
X11546Y23557D01*
X11558Y23650D01*
X11546Y23743D01*
X11510Y23829D01*
X11453Y23903D01*
X11379Y23960D01*
X11293Y23996D01*
X11200Y24008D01*
X11107Y23996D01*
X11021Y23960D01*
X10947Y23903D01*
X10890Y23829D01*
X10854Y23743D01*
X10842Y23650D01*
X10854Y23557D01*
X10890Y23471D01*
X10947Y23397D01*
X11021Y23340D01*
X11064Y23322D01*
X11054Y23272D01*
X9920D01*
X9881Y23264D01*
X9848Y23242D01*
X9428Y22822D01*
X9406Y22789D01*
X9398Y22750D01*
Y10621D01*
X9352Y10602D01*
X9042Y10912D01*
X9009Y10934D01*
X8970Y10942D01*
X8042D01*
X7162Y11822D01*
X7153Y11828D01*
X7142Y11839D01*
Y12182D01*
X7170Y12200D01*
X7210Y12260D01*
X7224Y12330D01*
X7210Y12400D01*
X7170Y12460D01*
X7110Y12500D01*
X7040Y12514D01*
X7007Y12507D01*
X6192Y13322D01*
X6159Y13344D01*
X6120Y13352D01*
X6110D01*
Y13507D01*
X5832D01*
Y15008D01*
X6152Y15328D01*
X6174Y15361D01*
X6182Y15400D01*
Y16998D01*
X6382Y17198D01*
X6404Y17231D01*
X6412Y17270D01*
Y19022D01*
X6440Y19040D01*
X6480Y19100D01*
X6494Y19170D01*
X6480Y19240D01*
X6440Y19300D01*
X6380Y19340D01*
X6310Y19354D01*
X6240Y19340D01*
X6180Y19300D01*
X6140Y19240D01*
X6126Y19170D01*
X6140Y19100D01*
X6180Y19040D01*
X6208Y19022D01*
Y17757D01*
X5077D01*
Y17714D01*
X4650D01*
X4568Y17698D01*
X4522Y17667D01*
X4472Y17694D01*
Y18690D01*
X4464Y18729D01*
X4442Y18762D01*
X3702Y19502D01*
Y19945D01*
X4355D01*
Y20655D01*
X3702D01*
Y21858D01*
X3830Y21986D01*
X3907Y21954D01*
X4000Y21942D01*
X4093Y21954D01*
X4179Y21990D01*
X4253Y22047D01*
X4310Y22121D01*
X4346Y22207D01*
X4358Y22300D01*
X4346Y22393D01*
X4310Y22479D01*
X4253Y22553D01*
X4179Y22610D01*
X4093Y22646D01*
X4000Y22658D01*
X3907Y22646D01*
X3821Y22610D01*
X3747Y22553D01*
X3690Y22479D01*
X3654Y22393D01*
X3642Y22300D01*
X3654Y22207D01*
X3686Y22130D01*
X3528Y21972D01*
X3506Y21939D01*
X3498Y21900D01*
Y19460D01*
X3506Y19421D01*
X3528Y19388D01*
X4268Y18648D01*
Y14782D01*
X4240Y14763D01*
X4200Y14704D01*
X4186Y14634D01*
X4200Y14563D01*
X4240Y14504D01*
X4300Y14464D01*
X4370Y14450D01*
X4440Y14464D01*
X4500Y14504D01*
X4540Y14563D01*
X4554Y14634D01*
X4540Y14704D01*
X4500Y14763D01*
X4472Y14782D01*
Y17306D01*
X4522Y17333D01*
X4568Y17302D01*
X4650Y17286D01*
X5077D01*
Y17243D01*
X6074D01*
X6093Y17197D01*
X6008Y17112D01*
X5986Y17079D01*
X5978Y17040D01*
Y15442D01*
X5658Y15122D01*
X5636Y15089D01*
X5628Y15050D01*
Y13507D01*
X4927D01*
Y12993D01*
X6110D01*
Y13050D01*
X6157Y13069D01*
X6863Y12363D01*
X6856Y12330D01*
X6870Y12260D01*
X6910Y12200D01*
X6938Y12182D01*
Y11797D01*
X6946Y11758D01*
X6968Y11725D01*
X7015Y11678D01*
X7024Y11672D01*
X7928Y10768D01*
X7961Y10746D01*
X8000Y10738D01*
X8928D01*
X9248Y10418D01*
Y8568D01*
X9198Y8552D01*
X9180Y8580D01*
X9120Y8620D01*
X9050Y8634D01*
X8980Y8620D01*
X8920Y8580D01*
X8897Y8545D01*
X8893Y8544D01*
X8860Y8522D01*
X8540Y8202D01*
X8385D01*
Y8361D01*
X6966D01*
Y7839D01*
X8385D01*
Y7998D01*
X8582D01*
X8621Y8006D01*
X8654Y8028D01*
X8936Y8310D01*
X8980Y8280D01*
X9050Y8266D01*
X9120Y8280D01*
X9180Y8320D01*
X9198Y8348D01*
X9248Y8332D01*
Y7654D01*
X9012D01*
Y6883D01*
X8962Y6862D01*
X8652Y7172D01*
X8619Y7194D01*
X8580Y7202D01*
X8385D01*
Y7361D01*
X6966D01*
Y6839D01*
X8385D01*
Y6998D01*
X8538D01*
X9058Y6478D01*
X9091Y6456D01*
X9130Y6448D01*
X9993D01*
X10032Y6456D01*
X10065Y6478D01*
X10068Y6481D01*
X10118Y6460D01*
Y2712D01*
X9670Y2264D01*
X9593Y2296D01*
X9500Y2308D01*
X9407Y2296D01*
X9321Y2260D01*
X9247Y2203D01*
X9190Y2129D01*
X9154Y2043D01*
X9142Y1950D01*
X9154Y1857D01*
X9190Y1771D01*
X9247Y1697D01*
X9321Y1640D01*
X9407Y1604D01*
X9500Y1592D01*
X9593Y1604D01*
X9679Y1640D01*
X9753Y1697D01*
X9810Y1771D01*
X9846Y1857D01*
X9858Y1950D01*
X9846Y2043D01*
X9814Y2120D01*
X10292Y2598D01*
X10314Y2631D01*
X10322Y2670D01*
Y8540D01*
X10314Y8579D01*
X10292Y8612D01*
X9802Y9102D01*
Y9568D01*
X9852Y9572D01*
X9854Y9557D01*
X9890Y9471D01*
X9947Y9397D01*
X10021Y9340D01*
X10107Y9304D01*
X10200Y9292D01*
X10293Y9304D01*
X10379Y9340D01*
X10453Y9397D01*
X10510Y9471D01*
X10513Y9477D01*
X10563Y9467D01*
Y6594D01*
X10571Y6555D01*
X10593Y6522D01*
X10865Y6250D01*
X10834Y6211D01*
X10820Y6220D01*
X10750Y6234D01*
X10680Y6220D01*
X10620Y6180D01*
X10580Y6120D01*
X10566Y6050D01*
X10580Y5980D01*
X10620Y5920D01*
X10680Y5880D01*
X10750Y5866D01*
X10820Y5880D01*
X10880Y5920D01*
X10920Y5980D01*
X10934Y6050D01*
X10920Y6120D01*
X10911Y6134D01*
X10950Y6165D01*
X11516Y5599D01*
X11497Y5553D01*
X11490D01*
Y5047D01*
X11976D01*
Y5553D01*
X11830D01*
X11827Y5565D01*
X11805Y5598D01*
X11185Y6219D01*
X11194Y6246D01*
X11206Y6268D01*
X11270Y6280D01*
X11330Y6320D01*
X11348Y6348D01*
X12350D01*
X12389Y6356D01*
X12422Y6378D01*
X12572Y6528D01*
X12594Y6561D01*
X12602Y6600D01*
Y7512D01*
X12652Y7517D01*
X12656Y7498D01*
X12678Y7465D01*
X12725Y7418D01*
X12758Y7396D01*
X12797Y7388D01*
X13804D01*
Y7237D01*
X14216D01*
X14231Y7187D01*
X14220Y7180D01*
X14180Y7120D01*
X14166Y7050D01*
X14154Y7035D01*
X13883D01*
X13844Y7027D01*
X13811Y7005D01*
X13228Y6422D01*
X13206Y6389D01*
X13198Y6350D01*
Y2500D01*
X13206Y2461D01*
X13228Y2428D01*
X13675Y1981D01*
X13655Y1931D01*
X13529D01*
Y1535D01*
X14121D01*
Y1631D01*
X15104D01*
Y1535D01*
X15696D01*
Y1931D01*
X15104D01*
Y1835D01*
X14121D01*
Y1931D01*
X13927D01*
Y1975D01*
X13919Y2014D01*
X13897Y2047D01*
X13402Y2543D01*
Y6308D01*
X13925Y6831D01*
X14233D01*
X14272Y6838D01*
X14305Y6861D01*
X14317Y6873D01*
X14350Y6866D01*
X14420Y6880D01*
X14480Y6920D01*
X14501Y6952D01*
X14551Y6937D01*
Y6470D01*
X14559Y6431D01*
X14581Y6398D01*
X14748Y6231D01*
X14729Y6185D01*
X14121D01*
Y6281D01*
X13529D01*
Y5885D01*
X14121D01*
Y5981D01*
X15104D01*
Y5885D01*
X15696D01*
Y6281D01*
X15104D01*
Y6234D01*
X15054Y6213D01*
X14755Y6512D01*
Y7237D01*
X14896D01*
Y7743D01*
X14410D01*
Y7273D01*
X14363Y7231D01*
X14350Y7234D01*
X14337Y7231D01*
X14290Y7273D01*
Y7743D01*
X13804D01*
Y7592D01*
X12852D01*
Y11055D01*
X12893Y11081D01*
X12902Y11080D01*
X12970Y11066D01*
X13003Y11073D01*
X13248Y10828D01*
Y10300D01*
X13256Y10261D01*
X13278Y10228D01*
X13748Y9758D01*
Y8350D01*
X13756Y8311D01*
X13778Y8278D01*
X14228Y7828D01*
X14261Y7806D01*
X14300Y7798D01*
X15348D01*
X15783Y7363D01*
X15776Y7330D01*
X15790Y7260D01*
X15830Y7200D01*
X15890Y7160D01*
X15960Y7146D01*
X16030Y7160D01*
X16090Y7200D01*
X16130Y7260D01*
X16144Y7330D01*
X16130Y7400D01*
X16090Y7460D01*
X16030Y7500D01*
X15960Y7514D01*
X15927Y7507D01*
X15462Y7972D01*
X15429Y7994D01*
X15390Y8002D01*
X14778D01*
X14751Y8052D01*
X14770Y8080D01*
X14784Y8150D01*
X14770Y8220D01*
X14730Y8280D01*
X14702Y8298D01*
Y8932D01*
X14752Y8948D01*
X14770Y8920D01*
X14830Y8880D01*
X14900Y8866D01*
X14970Y8880D01*
X15030Y8920D01*
X15070Y8980D01*
X15084Y9050D01*
X15070Y9120D01*
X15030Y9180D01*
X14970Y9220D01*
X14900Y9234D01*
X14830Y9220D01*
X14770Y9180D01*
X14752Y9152D01*
X14702Y9168D01*
Y9690D01*
X14694Y9729D01*
X14672Y9762D01*
X14222Y10212D01*
Y12390D01*
X14214Y12429D01*
X14192Y12462D01*
X13642Y13012D01*
Y16800D01*
X13634Y16839D01*
X13612Y16872D01*
X12667Y17817D01*
X12674Y17850D01*
X12660Y17920D01*
X12620Y17980D01*
X12560Y18020D01*
X12490Y18034D01*
X12420Y18020D01*
X12360Y17980D01*
X12342Y17952D01*
X12292Y17968D01*
Y21568D01*
X13357Y22633D01*
X13390Y22626D01*
X13460Y22640D01*
X13520Y22680D01*
X13560Y22740D01*
X13565Y22770D01*
X13620Y22786D01*
X14898Y21508D01*
Y21219D01*
X14897Y21218D01*
X14848Y21207D01*
X14779Y21260D01*
X14693Y21296D01*
X14600Y21308D01*
X14507Y21296D01*
X14421Y21260D01*
X14347Y21203D01*
X14290Y21129D01*
X14254Y21043D01*
X14242Y20950D01*
X14254Y20857D01*
X14290Y20771D01*
X14347Y20697D01*
X14421Y20640D01*
X14507Y20604D01*
X14600Y20592D01*
X14693Y20604D01*
X14779Y20640D01*
X14848Y20693D01*
X14897Y20682D01*
X14898Y20681D01*
Y20310D01*
X14906Y20271D01*
X14928Y20238D01*
X16868Y18298D01*
Y13470D01*
X16876Y13431D01*
X16898Y13398D01*
X17283Y13013D01*
X17279Y12986D01*
X17226Y12968D01*
X14822Y15372D01*
Y15522D01*
X14850Y15540D01*
X14890Y15600D01*
X14904Y15670D01*
X14890Y15740D01*
X14850Y15800D01*
X14790Y15840D01*
X14720Y15854D01*
X14650Y15840D01*
X14590Y15800D01*
X14550Y15740D01*
X14536Y15670D01*
X14550Y15600D01*
X14590Y15540D01*
X14618Y15522D01*
Y15330D01*
X14626Y15291D01*
X14648Y15258D01*
X17098Y12808D01*
Y6182D01*
X16168Y5252D01*
X16146Y5219D01*
X16138Y5180D01*
Y4382D01*
X15841Y4085D01*
X15696D01*
Y4181D01*
X15104D01*
Y4085D01*
X14121D01*
Y4181D01*
X13529D01*
Y3785D01*
X14121D01*
Y3881D01*
X15104D01*
Y3785D01*
X15696D01*
Y3881D01*
X15883D01*
X15922Y3889D01*
X15955Y3911D01*
X16312Y4268D01*
X16334Y4301D01*
X16342Y4340D01*
Y5138D01*
X17272Y6068D01*
X17294Y6101D01*
X17302Y6140D01*
Y6233D01*
X17352Y6254D01*
X18035Y5570D01*
Y5453D01*
X17894D01*
Y4947D01*
X18381D01*
Y5453D01*
X18239D01*
Y5613D01*
X18232Y5652D01*
X18210Y5685D01*
X17502Y6392D01*
Y12928D01*
X17548Y12947D01*
X17598Y12897D01*
Y6710D01*
X17606Y6671D01*
X17628Y6638D01*
X18588Y5678D01*
Y2292D01*
X18198Y1902D01*
X17578D01*
Y2027D01*
X17143D01*
Y1573D01*
X17196D01*
X17219Y1523D01*
X17191Y1480D01*
X17177Y1410D01*
X17191Y1340D01*
X17230Y1280D01*
X17258Y1262D01*
Y877D01*
X17143D01*
Y423D01*
X17578D01*
Y877D01*
X17462D01*
Y1262D01*
X17490Y1280D01*
X17530Y1340D01*
X17544Y1410D01*
X17530Y1480D01*
X17501Y1523D01*
X17524Y1573D01*
X17578D01*
Y1698D01*
X18240D01*
X18279Y1706D01*
X18312Y1728D01*
X18762Y2178D01*
X18784Y2211D01*
X18792Y2250D01*
Y4674D01*
X18842Y4694D01*
X19548Y3988D01*
Y2605D01*
X19295D01*
Y1895D01*
X20005D01*
Y2605D01*
X19752D01*
Y4030D01*
X19744Y4069D01*
X19722Y4102D01*
X19002Y4822D01*
Y6700D01*
X18994Y6739D01*
X18972Y6772D01*
X18697Y7047D01*
Y7873D01*
X18743Y7892D01*
X20241Y6395D01*
X20222Y6349D01*
X19358D01*
Y4851D01*
X20288D01*
Y2032D01*
X19820Y1564D01*
X19743Y1596D01*
X19650Y1608D01*
X19557Y1596D01*
X19471Y1560D01*
X19397Y1503D01*
X19340Y1429D01*
X19304Y1343D01*
X19292Y1250D01*
X19304Y1157D01*
X19340Y1071D01*
X19397Y997D01*
X19471Y940D01*
X19557Y904D01*
X19650Y892D01*
X19743Y904D01*
X19829Y940D01*
X19903Y997D01*
X19960Y1071D01*
X19996Y1157D01*
X20008Y1250D01*
X19996Y1343D01*
X19964Y1420D01*
X20462Y1918D01*
X20484Y1951D01*
X20492Y1990D01*
Y6390D01*
X20484Y6429D01*
X20462Y6462D01*
X18837Y8087D01*
Y9467D01*
X18887Y9477D01*
X18890Y9471D01*
X18947Y9397D01*
X19021Y9340D01*
X19107Y9304D01*
X19200Y9292D01*
X19293Y9304D01*
X19379Y9340D01*
X19453Y9397D01*
X19498Y9455D01*
X19548Y9438D01*
Y9178D01*
X19520Y9160D01*
X19480Y9100D01*
X19466Y9030D01*
X19480Y8960D01*
X19520Y8900D01*
X19580Y8860D01*
X19650Y8846D01*
X19720Y8860D01*
X19780Y8900D01*
X19820Y8960D01*
X19834Y9030D01*
X19820Y9100D01*
X19780Y9160D01*
X19752Y9178D01*
Y9838D01*
X22422Y12508D01*
X22444Y12541D01*
X22452Y12580D01*
Y16518D01*
X24122Y18188D01*
X24144Y18221D01*
X24152Y18260D01*
Y21958D01*
X24229Y21990D01*
X24303Y22047D01*
X24360Y22121D01*
X24396Y22207D01*
X24408Y22300D01*
X24396Y22393D01*
X24360Y22479D01*
X24303Y22553D01*
X24229Y22610D01*
X24143Y22646D01*
X24050Y22658D01*
X23957Y22646D01*
X23871Y22610D01*
X23797Y22553D01*
X23740Y22479D01*
X23704Y22393D01*
X23692Y22300D01*
X23704Y22207D01*
X23740Y22121D01*
X23797Y22047D01*
X23871Y21990D01*
X23948Y21958D01*
Y18302D01*
X22278Y16632D01*
X22256Y16599D01*
X22248Y16560D01*
Y12622D01*
X22046Y12420D01*
X22000Y12439D01*
Y17096D01*
X23122Y18218D01*
X23144Y18251D01*
X23152Y18290D01*
Y21958D01*
X23229Y21990D01*
X23303Y22047D01*
X23360Y22121D01*
X23396Y22207D01*
X23408Y22300D01*
X23396Y22393D01*
X23360Y22479D01*
X23303Y22553D01*
X23229Y22610D01*
X23143Y22646D01*
X23050Y22658D01*
X22957Y22646D01*
X22871Y22610D01*
X22797Y22553D01*
X22742Y22482D01*
X22737Y22482D01*
X22692Y22507D01*
Y24148D01*
X22880Y24336D01*
X22957Y24304D01*
X23050Y24292D01*
X23143Y24304D01*
X23229Y24340D01*
X23303Y24397D01*
X23360Y24471D01*
X23396Y24557D01*
X23398Y24572D01*
X23448Y24568D01*
Y24430D01*
X23456Y24391D01*
X23478Y24358D01*
X25139Y22697D01*
X25115Y22650D01*
X25050Y22658D01*
X24957Y22646D01*
X24871Y22610D01*
X24797Y22553D01*
X24740Y22479D01*
X24704Y22393D01*
X24692Y22300D01*
X24704Y22207D01*
X24740Y22121D01*
X24797Y22047D01*
X24871Y21990D01*
X24957Y21954D01*
X25050Y21942D01*
X25143Y21954D01*
X25229Y21990D01*
X25303Y22047D01*
X25318Y22066D01*
X25368Y22049D01*
Y9780D01*
X25376Y9741D01*
X25398Y9708D01*
X25718Y9388D01*
X25751Y9366D01*
X25790Y9358D01*
X28998D01*
X29258Y9098D01*
Y7851D01*
X29234Y7811D01*
X29208Y7811D01*
X27815D01*
Y7289D01*
X29208D01*
X29234Y7289D01*
X29258Y7249D01*
Y6900D01*
X29266Y6861D01*
X29288Y6828D01*
X29638Y6478D01*
X29666Y6459D01*
Y6289D01*
X31085D01*
Y6811D01*
X29666D01*
Y6804D01*
X29619Y6785D01*
X29462Y6942D01*
Y9140D01*
X29454Y9179D01*
X29432Y9212D01*
X29112Y9532D01*
X29079Y9554D01*
X29040Y9562D01*
X25832D01*
X25572Y9822D01*
Y9873D01*
X25622Y9888D01*
X25649Y9849D01*
X25718Y9802D01*
X25800Y9786D01*
X26190D01*
Y9743D01*
X27373D01*
Y10257D01*
X26190D01*
Y10214D01*
X25800D01*
X25718Y10198D01*
X25649Y10151D01*
X25622Y10112D01*
X25572Y10127D01*
Y11263D01*
X25622Y11284D01*
X25828Y11078D01*
X25861Y11056D01*
X25900Y11048D01*
X27601D01*
X27618Y11002D01*
X27617Y10998D01*
X27560Y10960D01*
X27520Y10900D01*
X27506Y10830D01*
X27520Y10760D01*
X27560Y10700D01*
X27620Y10660D01*
X27690Y10646D01*
X27723Y10653D01*
X27798Y10578D01*
X27831Y10556D01*
X27870Y10548D01*
X29403D01*
X29442Y10556D01*
X29475Y10578D01*
X29522Y10625D01*
X29544Y10658D01*
X29552Y10697D01*
Y13048D01*
X29666D01*
Y12889D01*
X31085D01*
Y13411D01*
X29666D01*
Y13252D01*
X29497D01*
X29458Y13244D01*
X29425Y13222D01*
X29378Y13175D01*
X29356Y13142D01*
X29348Y13103D01*
Y10752D01*
X27912D01*
X27867Y10797D01*
X27874Y10830D01*
X27869Y10851D01*
X27901Y10889D01*
X29234D01*
Y11411D01*
X27815D01*
Y11252D01*
X25942D01*
X25752Y11442D01*
Y22031D01*
X25753Y22032D01*
X25802Y22043D01*
X25871Y21990D01*
X25957Y21954D01*
X26050Y21942D01*
X26143Y21954D01*
X26229Y21990D01*
X26303Y22047D01*
X26348Y22105D01*
X26398Y22088D01*
Y20900D01*
X26406Y20861D01*
X26428Y20828D01*
X26708Y20548D01*
Y15960D01*
X26716Y15921D01*
X26738Y15888D01*
X27738Y14888D01*
Y13150D01*
X27746Y13111D01*
X27768Y13078D01*
X27801Y13056D01*
X27815Y13053D01*
Y12889D01*
X29234D01*
Y13411D01*
X27942D01*
Y14930D01*
X27934Y14969D01*
X27912Y15002D01*
X26912Y16002D01*
Y20590D01*
X26904Y20629D01*
X26882Y20662D01*
X26602Y20942D01*
Y22750D01*
X26594Y22789D01*
X26578Y22813D01*
X26589Y22835D01*
X26598Y22845D01*
X26609Y22854D01*
X26640Y22848D01*
X28698D01*
Y21439D01*
X27008Y19749D01*
X26986Y19716D01*
X26978Y19677D01*
Y16336D01*
X26986Y16297D01*
X27008Y16264D01*
X27599Y15673D01*
X27592Y15640D01*
X27606Y15570D01*
X27646Y15510D01*
X27706Y15470D01*
X27776Y15456D01*
X27846Y15470D01*
X27906Y15510D01*
X27946Y15570D01*
X27960Y15640D01*
X27946Y15710D01*
X27906Y15770D01*
X27846Y15810D01*
X27776Y15824D01*
X27743Y15817D01*
X27182Y16378D01*
Y19635D01*
X28872Y21325D01*
X28894Y21358D01*
X28902Y21397D01*
Y22903D01*
X28894Y22942D01*
X28872Y22975D01*
X28825Y23022D01*
X28792Y23044D01*
X28753Y23052D01*
X26682D01*
X25752Y23982D01*
Y24381D01*
X25753Y24382D01*
X25802Y24393D01*
X25871Y24340D01*
X25957Y24304D01*
X26050Y24292D01*
X26143Y24304D01*
X26229Y24340D01*
X26303Y24397D01*
X26360Y24471D01*
X26396Y24557D01*
X26408Y24650D01*
X26396Y24743D01*
X26360Y24829D01*
X26303Y24903D01*
X26229Y24960D01*
X26143Y24996D01*
X26050Y25008D01*
X25957Y24996D01*
X25871Y24960D01*
X25802Y24907D01*
X25753Y24918D01*
X25752Y24919D01*
Y25170D01*
X25744Y25209D01*
X25722Y25242D01*
X25552Y25412D01*
X25519Y25434D01*
X25480Y25442D01*
D02*
G37*
G36*
X12347Y25230D02*
X12277Y25216D01*
X12217Y25177D01*
X12177Y25117D01*
X12163Y25047D01*
X12177Y24977D01*
X12217Y24917D01*
X12277Y24877D01*
X12347Y24863D01*
X12417Y24877D01*
X12477Y24917D01*
X12516Y24977D01*
X12530Y25047D01*
X12516Y25117D01*
X12477Y25177D01*
X12417Y25216D01*
X12347Y25230D01*
D02*
G37*
G36*
X2550Y25508D02*
X2457Y25496D01*
X2371Y25460D01*
X2297Y25403D01*
X2240Y25329D01*
X2204Y25243D01*
X2192Y25150D01*
X2204Y25057D01*
X2240Y24971D01*
X2297Y24897D01*
X2371Y24840D01*
X2457Y24804D01*
X2550Y24792D01*
X2643Y24804D01*
X2729Y24840D01*
X2803Y24897D01*
X2860Y24971D01*
X2896Y25057D01*
X2908Y25150D01*
X2896Y25243D01*
X2860Y25329D01*
X2803Y25403D01*
X2729Y25460D01*
X2643Y25496D01*
X2550Y25508D01*
D02*
G37*
G36*
X1550D02*
X1457Y25496D01*
X1371Y25460D01*
X1297Y25403D01*
X1240Y25329D01*
X1204Y25243D01*
X1192Y25150D01*
X1204Y25057D01*
X1240Y24971D01*
X1297Y24897D01*
X1371Y24840D01*
X1457Y24804D01*
X1550Y24792D01*
X1643Y24804D01*
X1729Y24840D01*
X1803Y24897D01*
X1860Y24971D01*
X1896Y25057D01*
X1908Y25150D01*
X1896Y25243D01*
X1860Y25329D01*
X1803Y25403D01*
X1729Y25460D01*
X1643Y25496D01*
X1550Y25508D01*
D02*
G37*
G36*
X27050Y25008D02*
X26957Y24996D01*
X26871Y24960D01*
X26797Y24903D01*
X26740Y24829D01*
X26704Y24743D01*
X26692Y24650D01*
X26704Y24557D01*
X26740Y24471D01*
X26797Y24397D01*
X26871Y24340D01*
X26957Y24304D01*
X27050Y24292D01*
X27143Y24304D01*
X27229Y24340D01*
X27303Y24397D01*
X27360Y24471D01*
X27396Y24557D01*
X27408Y24650D01*
X27396Y24743D01*
X27360Y24829D01*
X27303Y24903D01*
X27229Y24960D01*
X27143Y24996D01*
X27050Y25008D01*
D02*
G37*
G36*
X18200D02*
X18107Y24996D01*
X18021Y24960D01*
X17947Y24903D01*
X17890Y24829D01*
X17854Y24743D01*
X17842Y24650D01*
X17854Y24557D01*
X17890Y24471D01*
X17947Y24397D01*
X18021Y24340D01*
X18107Y24304D01*
X18200Y24292D01*
X18293Y24304D01*
X18379Y24340D01*
X18453Y24397D01*
X18510Y24471D01*
X18546Y24557D01*
X18558Y24650D01*
X18546Y24743D01*
X18510Y24829D01*
X18453Y24903D01*
X18379Y24960D01*
X18293Y24996D01*
X18200Y25008D01*
D02*
G37*
G36*
X10800Y25234D02*
X10730Y25220D01*
X10670Y25180D01*
X10630Y25120D01*
X10616Y25050D01*
X10630Y24980D01*
X10670Y24920D01*
X10730Y24880D01*
X10800Y24866D01*
X10865Y24879D01*
X10878Y24869D01*
X10897Y24839D01*
X10890Y24829D01*
X10854Y24743D01*
X10842Y24650D01*
X10854Y24557D01*
X10890Y24471D01*
X10947Y24397D01*
X11021Y24340D01*
X11107Y24304D01*
X11200Y24292D01*
X11293Y24304D01*
X11379Y24340D01*
X11453Y24397D01*
X11510Y24471D01*
X11546Y24557D01*
X11558Y24650D01*
X11546Y24743D01*
X11510Y24829D01*
X11453Y24903D01*
X11379Y24960D01*
X11293Y24996D01*
X11200Y25008D01*
X11107Y24996D01*
X11021Y24960D01*
X11011Y24953D01*
X10981Y24972D01*
X10971Y24985D01*
X10984Y25050D01*
X10970Y25120D01*
X10930Y25180D01*
X10870Y25220D01*
X10800Y25234D01*
D02*
G37*
G36*
X30050Y26263D02*
X29884Y26250D01*
X29721Y26211D01*
X29567Y26147D01*
X29425Y26060D01*
X29298Y25952D01*
X29190Y25825D01*
X29103Y25683D01*
X29039Y25529D01*
X29000Y25366D01*
X28987Y25200D01*
X29000Y25034D01*
X29039Y24871D01*
X29103Y24717D01*
X29190Y24575D01*
X29298Y24448D01*
X29425Y24340D01*
X29567Y24253D01*
X29721Y24189D01*
X29884Y24150D01*
X30050Y24137D01*
X30216Y24150D01*
X30379Y24189D01*
X30533Y24253D01*
X30675Y24340D01*
X30802Y24448D01*
X30910Y24575D01*
X30997Y24717D01*
X31061Y24871D01*
X31100Y25034D01*
X31113Y25200D01*
X31100Y25366D01*
X31061Y25529D01*
X30997Y25683D01*
X30910Y25825D01*
X30802Y25952D01*
X30675Y26060D01*
X30533Y26147D01*
X30379Y26211D01*
X30216Y26250D01*
X30050Y26263D01*
D02*
G37*
G36*
X6450D02*
X6284Y26250D01*
X6121Y26211D01*
X5967Y26147D01*
X5825Y26060D01*
X5698Y25952D01*
X5590Y25825D01*
X5503Y25683D01*
X5439Y25529D01*
X5400Y25366D01*
X5387Y25200D01*
X5400Y25034D01*
X5439Y24871D01*
X5503Y24717D01*
X5590Y24575D01*
X5698Y24448D01*
X5825Y24340D01*
X5967Y24253D01*
X6121Y24189D01*
X6284Y24150D01*
X6450Y24137D01*
X6616Y24150D01*
X6779Y24189D01*
X6933Y24253D01*
X7075Y24340D01*
X7202Y24448D01*
X7310Y24575D01*
X7397Y24717D01*
X7461Y24871D01*
X7500Y25034D01*
X7513Y25200D01*
X7500Y25366D01*
X7461Y25529D01*
X7397Y25683D01*
X7310Y25825D01*
X7202Y25952D01*
X7075Y26060D01*
X6933Y26147D01*
X6779Y26211D01*
X6616Y26250D01*
X6450Y26263D01*
D02*
G37*
G36*
X9280Y24174D02*
X9210Y24160D01*
X9150Y24120D01*
X9110Y24060D01*
X9096Y23990D01*
X9110Y23920D01*
X9150Y23860D01*
X9210Y23820D01*
X9280Y23806D01*
X9350Y23820D01*
X9410Y23860D01*
X9450Y23920D01*
X9464Y23990D01*
X9450Y24060D01*
X9410Y24120D01*
X9350Y24160D01*
X9280Y24174D01*
D02*
G37*
G36*
X18200Y24008D02*
X18107Y23996D01*
X18021Y23960D01*
X17947Y23903D01*
X17890Y23829D01*
X17854Y23743D01*
X17842Y23650D01*
X17854Y23557D01*
X17890Y23471D01*
X17947Y23397D01*
X18021Y23340D01*
X18107Y23304D01*
X18200Y23292D01*
X18293Y23304D01*
X18379Y23340D01*
X18453Y23397D01*
X18510Y23471D01*
X18546Y23557D01*
X18558Y23650D01*
X18546Y23743D01*
X18510Y23829D01*
X18453Y23903D01*
X18379Y23960D01*
X18293Y23996D01*
X18200Y24008D01*
D02*
G37*
G36*
X1550Y23708D02*
X1457Y23696D01*
X1371Y23660D01*
X1297Y23603D01*
X1240Y23529D01*
X1204Y23443D01*
X1192Y23350D01*
X1204Y23257D01*
X1240Y23171D01*
X1297Y23097D01*
X1371Y23040D01*
X1457Y23004D01*
X1550Y22992D01*
X1643Y23004D01*
X1729Y23040D01*
X1803Y23097D01*
X1860Y23171D01*
X1896Y23257D01*
X1908Y23350D01*
X1896Y23443D01*
X1860Y23529D01*
X1803Y23603D01*
X1729Y23660D01*
X1643Y23696D01*
X1550Y23708D01*
D02*
G37*
G36*
X4000Y23658D02*
X3907Y23646D01*
X3821Y23610D01*
X3747Y23553D01*
X3690Y23479D01*
X3654Y23393D01*
X3642Y23300D01*
X3654Y23207D01*
X3690Y23121D01*
X3747Y23047D01*
X3821Y22990D01*
X3907Y22954D01*
X4000Y22942D01*
X4093Y22954D01*
X4179Y22990D01*
X4253Y23047D01*
X4310Y23121D01*
X4346Y23207D01*
X4358Y23300D01*
X4346Y23393D01*
X4310Y23479D01*
X4253Y23553D01*
X4179Y23610D01*
X4093Y23646D01*
X4000Y23658D01*
D02*
G37*
G36*
X8950Y23134D02*
X8880Y23120D01*
X8820Y23080D01*
X8780Y23020D01*
X8766Y22950D01*
X8780Y22880D01*
X8820Y22820D01*
X8880Y22780D01*
X8950Y22766D01*
X9020Y22780D01*
X9080Y22820D01*
X9120Y22880D01*
X9134Y22950D01*
X9120Y23020D01*
X9080Y23080D01*
X9020Y23120D01*
X8950Y23134D01*
D02*
G37*
G36*
X1550Y22708D02*
X1457Y22696D01*
X1371Y22660D01*
X1297Y22603D01*
X1240Y22529D01*
X1204Y22443D01*
X1192Y22350D01*
X1204Y22257D01*
X1240Y22171D01*
X1297Y22097D01*
X1371Y22040D01*
X1457Y22004D01*
X1550Y21992D01*
X1643Y22004D01*
X1729Y22040D01*
X1803Y22097D01*
X1860Y22171D01*
X1896Y22257D01*
X1908Y22350D01*
X1896Y22443D01*
X1860Y22529D01*
X1803Y22603D01*
X1729Y22660D01*
X1643Y22696D01*
X1550Y22708D01*
D02*
G37*
G36*
X28050Y22658D02*
X27957Y22646D01*
X27871Y22610D01*
X27797Y22553D01*
X27740Y22479D01*
X27704Y22393D01*
X27692Y22300D01*
X27704Y22207D01*
X27740Y22121D01*
X27797Y22047D01*
X27871Y21990D01*
X27957Y21954D01*
X28050Y21942D01*
X28143Y21954D01*
X28229Y21990D01*
X28303Y22047D01*
X28360Y22121D01*
X28396Y22207D01*
X28408Y22300D01*
X28396Y22393D01*
X28360Y22479D01*
X28303Y22553D01*
X28229Y22610D01*
X28143Y22646D01*
X28050Y22658D01*
D02*
G37*
G36*
X27050D02*
X26957Y22646D01*
X26871Y22610D01*
X26797Y22553D01*
X26740Y22479D01*
X26704Y22393D01*
X26692Y22300D01*
X26704Y22207D01*
X26740Y22121D01*
X26797Y22047D01*
X26871Y21990D01*
X26957Y21954D01*
X27050Y21942D01*
X27143Y21954D01*
X27229Y21990D01*
X27303Y22047D01*
X27360Y22121D01*
X27396Y22207D01*
X27408Y22300D01*
X27396Y22393D01*
X27360Y22479D01*
X27303Y22553D01*
X27229Y22610D01*
X27143Y22646D01*
X27050Y22658D01*
D02*
G37*
G36*
X7100Y22058D02*
X7007Y22046D01*
X6921Y22010D01*
X6847Y21953D01*
X6790Y21879D01*
X6754Y21793D01*
X6742Y21700D01*
X6754Y21607D01*
X6790Y21521D01*
X6847Y21447D01*
X6921Y21390D01*
X7007Y21354D01*
X7100Y21342D01*
X7193Y21354D01*
X7279Y21390D01*
X7353Y21447D01*
X7410Y21521D01*
X7446Y21607D01*
X7458Y21700D01*
X7446Y21793D01*
X7410Y21879D01*
X7353Y21953D01*
X7279Y22010D01*
X7193Y22046D01*
X7100Y22058D01*
D02*
G37*
G36*
X5550Y21384D02*
X5480Y21370D01*
X5420Y21330D01*
X5380Y21270D01*
X5366Y21200D01*
X5380Y21130D01*
X5420Y21070D01*
X5480Y21030D01*
X5550Y21016D01*
X5620Y21030D01*
X5680Y21070D01*
X5720Y21130D01*
X5734Y21200D01*
X5720Y21270D01*
X5680Y21330D01*
X5620Y21370D01*
X5550Y21384D01*
D02*
G37*
G36*
X8950Y21234D02*
X8880Y21220D01*
X8820Y21180D01*
X8780Y21120D01*
X8766Y21050D01*
X8780Y20980D01*
X8820Y20920D01*
X8880Y20880D01*
X8950Y20866D01*
X9020Y20880D01*
X9080Y20920D01*
X9120Y20980D01*
X9134Y21050D01*
X9120Y21120D01*
X9080Y21180D01*
X9020Y21220D01*
X8950Y21234D01*
D02*
G37*
G36*
X8130Y20914D02*
X8060Y20900D01*
X8000Y20860D01*
X7960Y20800D01*
X7946Y20730D01*
X7960Y20660D01*
X8000Y20600D01*
X8060Y20560D01*
X8130Y20546D01*
X8200Y20560D01*
X8260Y20600D01*
X8300Y20660D01*
X8314Y20730D01*
X8300Y20800D01*
X8260Y20860D01*
X8200Y20900D01*
X8130Y20914D01*
D02*
G37*
G36*
X6320Y20873D02*
X6249Y20859D01*
X6190Y20819D01*
X6150Y20760D01*
X6136Y20690D01*
X6150Y20619D01*
X6190Y20560D01*
X6249Y20520D01*
X6320Y20506D01*
X6390Y20520D01*
X6449Y20560D01*
X6489Y20619D01*
X6503Y20690D01*
X6489Y20760D01*
X6449Y20819D01*
X6390Y20859D01*
X6320Y20873D01*
D02*
G37*
G36*
X7455Y21055D02*
X6745D01*
Y20345D01*
X7455D01*
Y21055D01*
D02*
G37*
G36*
X1905Y20705D02*
X1195D01*
Y19995D01*
X1905D01*
Y20705D01*
D02*
G37*
G36*
X7850Y19734D02*
X7780Y19720D01*
X7720Y19680D01*
X7680Y19620D01*
X7666Y19550D01*
X7680Y19480D01*
X7720Y19420D01*
X7780Y19380D01*
X7850Y19366D01*
X7920Y19380D01*
X7980Y19420D01*
X8020Y19480D01*
X8034Y19550D01*
X8020Y19620D01*
X7980Y19680D01*
X7920Y19720D01*
X7850Y19734D01*
D02*
G37*
G36*
X31085Y19611D02*
X29666D01*
Y19089D01*
X31085D01*
Y19611D01*
D02*
G37*
G36*
X29234D02*
X27815D01*
Y19089D01*
X29234D01*
Y19611D01*
D02*
G37*
G36*
X14600Y19340D02*
X14507Y19328D01*
X14421Y19292D01*
X14347Y19235D01*
X14290Y19161D01*
X14254Y19074D01*
X14242Y18981D01*
X14254Y18889D01*
X14290Y18802D01*
X14347Y18728D01*
X14421Y18671D01*
X14507Y18635D01*
X14600Y18623D01*
X14693Y18635D01*
X14779Y18671D01*
X14853Y18728D01*
X14910Y18802D01*
X14946Y18889D01*
X14958Y18981D01*
X14946Y19074D01*
X14910Y19161D01*
X14853Y19235D01*
X14779Y19292D01*
X14693Y19328D01*
X14600Y19340D01*
D02*
G37*
G36*
X31085Y18611D02*
X29666D01*
Y18452D01*
X29598D01*
X29580Y18480D01*
X29520Y18520D01*
X29450Y18534D01*
X29380Y18520D01*
X29320Y18480D01*
X29311Y18466D01*
X29244Y18456D01*
X29234Y18464D01*
Y18611D01*
X27815D01*
Y18089D01*
X28798D01*
Y17998D01*
X28770Y17980D01*
X28730Y17920D01*
X28716Y17850D01*
X28730Y17780D01*
X28770Y17720D01*
X28830Y17680D01*
X28900Y17666D01*
X28970Y17680D01*
X29030Y17720D01*
X29070Y17780D01*
X29084Y17850D01*
X29070Y17920D01*
X29030Y17980D01*
X29002Y17998D01*
Y18089D01*
X29234D01*
Y18236D01*
X29244Y18244D01*
X29311Y18234D01*
X29320Y18220D01*
X29380Y18180D01*
X29450Y18166D01*
X29520Y18180D01*
X29580Y18220D01*
X29598Y18248D01*
X29666D01*
Y18089D01*
X31085D01*
Y18611D01*
D02*
G37*
G36*
X15700Y18764D02*
X15630Y18750D01*
X15570Y18710D01*
X15530Y18650D01*
X15516Y18580D01*
X15530Y18510D01*
X15570Y18450D01*
X15630Y18410D01*
X15700Y18396D01*
X15770Y18410D01*
X15830Y18450D01*
X15870Y18510D01*
X15884Y18580D01*
X15870Y18650D01*
X15830Y18710D01*
X15770Y18750D01*
X15700Y18764D01*
D02*
G37*
G36*
X13820Y18494D02*
X13750Y18480D01*
X13690Y18440D01*
X13650Y18380D01*
X13636Y18310D01*
X13650Y18240D01*
X13690Y18180D01*
X13750Y18140D01*
X13820Y18126D01*
X13890Y18140D01*
X13950Y18180D01*
X13990Y18240D01*
X14004Y18310D01*
X13990Y18380D01*
X13950Y18440D01*
X13890Y18480D01*
X13820Y18494D01*
D02*
G37*
G36*
X24470Y18484D02*
X24400Y18470D01*
X24340Y18430D01*
X24300Y18370D01*
X24286Y18300D01*
X24293Y18267D01*
X22628Y16602D01*
X22606Y16569D01*
X22598Y16530D01*
Y14981D01*
X22578Y14960D01*
X22555Y14927D01*
X22548Y14888D01*
Y12084D01*
X22555Y12045D01*
X22578Y12012D01*
X23298Y11291D01*
Y8342D01*
X22961Y8005D01*
X22150D01*
X22111Y7997D01*
X22078Y7975D01*
X22069Y7962D01*
X21669Y7561D01*
X21646Y7528D01*
X21639Y7489D01*
Y6349D01*
X21248D01*
Y4851D01*
X22234D01*
Y6349D01*
X21843D01*
Y7447D01*
X22197Y7801D01*
X23003D01*
X23042Y7809D01*
X23075Y7831D01*
X23472Y8228D01*
X23494Y8261D01*
X23502Y8300D01*
Y11334D01*
X23494Y11373D01*
X23472Y11406D01*
X22752Y12126D01*
Y14846D01*
X22772Y14867D01*
X22794Y14900D01*
X22802Y14939D01*
Y16488D01*
X24437Y18123D01*
X24470Y18116D01*
X24540Y18130D01*
X24600Y18170D01*
X24640Y18230D01*
X24654Y18300D01*
X24640Y18370D01*
X24600Y18430D01*
X24540Y18470D01*
X24470Y18484D01*
D02*
G37*
G36*
X26300Y18008D02*
X26207Y17996D01*
X26121Y17960D01*
X26047Y17903D01*
X25990Y17829D01*
X25954Y17743D01*
X25942Y17650D01*
X25954Y17557D01*
X25990Y17471D01*
X26047Y17397D01*
X26121Y17340D01*
X26207Y17304D01*
X26300Y17292D01*
X26393Y17304D01*
X26479Y17340D01*
X26553Y17397D01*
X26610Y17471D01*
X26646Y17557D01*
X26658Y17650D01*
X26646Y17743D01*
X26610Y17829D01*
X26553Y17903D01*
X26479Y17960D01*
X26393Y17996D01*
X26300Y18008D01*
D02*
G37*
G36*
X29234Y17611D02*
X27815D01*
Y17539D01*
X27550D01*
X27478Y17524D01*
X27417Y17483D01*
X27376Y17422D01*
X27361Y17350D01*
X27376Y17278D01*
X27417Y17217D01*
X27478Y17176D01*
X27550Y17161D01*
X27815D01*
Y17089D01*
X29234D01*
Y17611D01*
D02*
G37*
G36*
X16247Y17218D02*
X16177Y17204D01*
X16117Y17164D01*
X16077Y17105D01*
X16063Y17035D01*
X16077Y16964D01*
X16117Y16905D01*
X16177Y16865D01*
X16247Y16851D01*
X16317Y16865D01*
X16377Y16905D01*
X16416Y16964D01*
X16430Y17035D01*
X16416Y17105D01*
X16377Y17164D01*
X16317Y17204D01*
X16247Y17218D01*
D02*
G37*
G36*
X1550Y17508D02*
X1457Y17496D01*
X1371Y17460D01*
X1297Y17403D01*
X1240Y17329D01*
X1204Y17243D01*
X1192Y17150D01*
X1204Y17057D01*
X1240Y16971D01*
X1297Y16897D01*
X1371Y16840D01*
X1457Y16804D01*
X1550Y16792D01*
X1643Y16804D01*
X1729Y16840D01*
X1803Y16897D01*
X1860Y16971D01*
X1896Y17057D01*
X1908Y17150D01*
X1896Y17243D01*
X1860Y17329D01*
X1803Y17403D01*
X1729Y17460D01*
X1643Y17496D01*
X1550Y17508D01*
D02*
G37*
G36*
X26300Y17008D02*
X26207Y16996D01*
X26121Y16960D01*
X26047Y16903D01*
X25990Y16829D01*
X25954Y16743D01*
X25942Y16650D01*
X25954Y16557D01*
X25990Y16471D01*
X26047Y16397D01*
X26121Y16340D01*
X26207Y16304D01*
X26300Y16292D01*
X26393Y16304D01*
X26479Y16340D01*
X26553Y16397D01*
X26610Y16471D01*
X26646Y16557D01*
X26658Y16650D01*
X26646Y16743D01*
X26610Y16829D01*
X26553Y16903D01*
X26479Y16960D01*
X26393Y16996D01*
X26300Y17008D01*
D02*
G37*
G36*
X23244Y16478D02*
X23174Y16464D01*
X23115Y16424D01*
X23075Y16365D01*
X23061Y16294D01*
X23075Y16224D01*
X23115Y16165D01*
X23174Y16125D01*
X23244Y16111D01*
X23315Y16125D01*
X23374Y16165D01*
X23414Y16224D01*
X23428Y16294D01*
X23414Y16365D01*
X23374Y16424D01*
X23315Y16464D01*
X23244Y16478D01*
D02*
G37*
G36*
X26300Y16008D02*
X26207Y15996D01*
X26121Y15960D01*
X26047Y15903D01*
X25990Y15829D01*
X25954Y15743D01*
X25942Y15650D01*
X25954Y15557D01*
X25990Y15471D01*
X26047Y15397D01*
X26121Y15340D01*
X26207Y15304D01*
X26300Y15292D01*
X26393Y15304D01*
X26479Y15340D01*
X26553Y15397D01*
X26610Y15471D01*
X26646Y15557D01*
X26658Y15650D01*
X26646Y15743D01*
X26610Y15829D01*
X26553Y15903D01*
X26479Y15960D01*
X26393Y15996D01*
X26300Y16008D01*
D02*
G37*
G36*
X14400Y14934D02*
X14330Y14920D01*
X14270Y14880D01*
X14230Y14820D01*
X14216Y14750D01*
X14230Y14680D01*
X14270Y14620D01*
X14330Y14580D01*
X14400Y14566D01*
X14470Y14580D01*
X14530Y14620D01*
X14570Y14680D01*
X14584Y14750D01*
X14570Y14820D01*
X14530Y14880D01*
X14470Y14920D01*
X14400Y14934D01*
D02*
G37*
G36*
X13900D02*
X13830Y14920D01*
X13770Y14880D01*
X13730Y14820D01*
X13716Y14750D01*
X13730Y14680D01*
X13770Y14620D01*
X13830Y14580D01*
X13900Y14566D01*
X13970Y14580D01*
X14030Y14620D01*
X14070Y14680D01*
X14084Y14750D01*
X14070Y14820D01*
X14030Y14880D01*
X13970Y14920D01*
X13900Y14934D01*
D02*
G37*
G36*
X26300Y15008D02*
X26207Y14996D01*
X26121Y14960D01*
X26047Y14903D01*
X25990Y14829D01*
X25954Y14743D01*
X25942Y14650D01*
X25954Y14557D01*
X25990Y14471D01*
X26047Y14397D01*
X26121Y14340D01*
X26207Y14304D01*
X26300Y14292D01*
X26393Y14304D01*
X26479Y14340D01*
X26553Y14397D01*
X26610Y14471D01*
X26646Y14557D01*
X26658Y14650D01*
X26646Y14743D01*
X26610Y14829D01*
X26553Y14903D01*
X26479Y14960D01*
X26393Y14996D01*
X26300Y15008D01*
D02*
G37*
G36*
X2550Y14508D02*
X2457Y14496D01*
X2371Y14460D01*
X2297Y14403D01*
X2240Y14329D01*
X2204Y14243D01*
X2192Y14150D01*
X2204Y14057D01*
X2240Y13971D01*
X2297Y13897D01*
X2371Y13840D01*
X2457Y13804D01*
X2550Y13792D01*
X2643Y13804D01*
X2729Y13840D01*
X2803Y13897D01*
X2860Y13971D01*
X2896Y14057D01*
X2908Y14150D01*
X2896Y14243D01*
X2860Y14329D01*
X2803Y14403D01*
X2729Y14460D01*
X2643Y14496D01*
X2550Y14508D01*
D02*
G37*
G36*
X2905Y13505D02*
X2195D01*
Y12795D01*
X2905D01*
Y13505D01*
D02*
G37*
G36*
X26655Y13005D02*
X25945D01*
Y12295D01*
X26655D01*
Y13005D01*
D02*
G37*
G36*
X22100Y11984D02*
X22030Y11970D01*
X21970Y11930D01*
X21930Y11870D01*
X21916Y11800D01*
X21930Y11730D01*
X21970Y11670D01*
X22030Y11630D01*
X22100Y11616D01*
X22170Y11630D01*
X22230Y11670D01*
X22270Y11730D01*
X22284Y11800D01*
X22270Y11870D01*
X22230Y11930D01*
X22170Y11970D01*
X22100Y11984D01*
D02*
G37*
G36*
X23030Y10994D02*
X22960Y10980D01*
X22900Y10940D01*
X22860Y10880D01*
X22846Y10810D01*
X22860Y10740D01*
X22900Y10680D01*
X22960Y10640D01*
X23030Y10626D01*
X23100Y10640D01*
X23160Y10680D01*
X23200Y10740D01*
X23214Y10810D01*
X23200Y10880D01*
X23160Y10940D01*
X23100Y10980D01*
X23030Y10994D01*
D02*
G37*
G36*
X22150Y11168D02*
X22042Y11154D01*
X21941Y11112D01*
X21855Y11046D01*
X21788Y10959D01*
X21746Y10858D01*
X21732Y10750D01*
X21746Y10642D01*
X21788Y10541D01*
X21855Y10454D01*
X21941Y10388D01*
X22042Y10346D01*
X22150Y10332D01*
X22258Y10346D01*
X22359Y10388D01*
X22445Y10454D01*
X22512Y10541D01*
X22554Y10642D01*
X22568Y10750D01*
X22554Y10858D01*
X22512Y10959D01*
X22445Y11046D01*
X22359Y11112D01*
X22258Y11154D01*
X22150Y11168D01*
D02*
G37*
G36*
X31085Y11411D02*
X29666D01*
Y10889D01*
X30547D01*
Y10551D01*
X30555Y10512D01*
X30577Y10479D01*
X30673Y10383D01*
X30634Y10324D01*
X30620Y10254D01*
X30634Y10183D01*
X30674Y10124D01*
X30733Y10084D01*
X30804Y10070D01*
X30874Y10084D01*
X30933Y10124D01*
X30973Y10183D01*
X30987Y10254D01*
X30973Y10324D01*
X30933Y10383D01*
X30908Y10401D01*
X30901Y10432D01*
X30879Y10465D01*
X30751Y10593D01*
Y10889D01*
X31085D01*
Y11411D01*
D02*
G37*
G36*
X16180Y10384D02*
X16110Y10370D01*
X16050Y10330D01*
X16010Y10270D01*
X15996Y10200D01*
X16010Y10130D01*
X16050Y10070D01*
X16110Y10030D01*
X16180Y10016D01*
X16250Y10030D01*
X16310Y10070D01*
X16350Y10130D01*
X16364Y10200D01*
X16350Y10270D01*
X16310Y10330D01*
X16250Y10370D01*
X16180Y10384D01*
D02*
G37*
G36*
X8385Y10361D02*
X6966D01*
Y9839D01*
X8385D01*
Y9886D01*
X8550D01*
X8632Y9902D01*
X8701Y9949D01*
X8748Y10018D01*
X8764Y10100D01*
X8748Y10182D01*
X8701Y10251D01*
X8632Y10298D01*
X8550Y10314D01*
X8385D01*
Y10361D01*
D02*
G37*
G36*
X6534D02*
X5115D01*
Y9839D01*
X6534D01*
Y10361D01*
D02*
G37*
G36*
X22150Y10168D02*
X22042Y10154D01*
X21941Y10112D01*
X21855Y10045D01*
X21788Y9959D01*
X21746Y9858D01*
X21732Y9750D01*
X21746Y9642D01*
X21788Y9541D01*
X21855Y9455D01*
X21941Y9388D01*
X22042Y9346D01*
X22150Y9332D01*
X22258Y9346D01*
X22359Y9388D01*
X22445Y9455D01*
X22512Y9541D01*
X22554Y9642D01*
X22568Y9750D01*
X22554Y9858D01*
X22512Y9959D01*
X22445Y10045D01*
X22359Y10112D01*
X22258Y10154D01*
X22150Y10168D01*
D02*
G37*
G36*
X27050Y8684D02*
X26980Y8670D01*
X26920Y8630D01*
X26880Y8570D01*
X26866Y8500D01*
X26873Y8467D01*
X26808Y8402D01*
X26048D01*
X26030Y8430D01*
X25970Y8470D01*
X25900Y8484D01*
X25830Y8470D01*
X25770Y8430D01*
X25730Y8370D01*
X25716Y8300D01*
X25730Y8230D01*
X25770Y8170D01*
X25830Y8130D01*
X25900Y8116D01*
X25970Y8130D01*
X26030Y8170D01*
X26048Y8198D01*
X26850D01*
X26889Y8206D01*
X26922Y8228D01*
X27017Y8323D01*
X27050Y8316D01*
X27120Y8330D01*
X27180Y8370D01*
X27220Y8430D01*
X27234Y8500D01*
X27220Y8570D01*
X27180Y8630D01*
X27120Y8670D01*
X27050Y8684D01*
D02*
G37*
G36*
X22564Y9164D02*
X21736D01*
Y8336D01*
X22564D01*
Y9164D01*
D02*
G37*
G36*
X3920Y18034D02*
X3850Y18020D01*
X3790Y17980D01*
X3750Y17920D01*
X3736Y17850D01*
X3750Y17780D01*
X3790Y17720D01*
X3818Y17702D01*
Y12680D01*
X3826Y12641D01*
X3848Y12608D01*
X4618Y11838D01*
Y8310D01*
X4626Y8271D01*
X4648Y8238D01*
X4858Y8028D01*
X4891Y8006D01*
X4930Y7998D01*
X5115D01*
Y7839D01*
X6534D01*
Y8361D01*
X5115D01*
Y8202D01*
X4972D01*
X4822Y8352D01*
Y11880D01*
X4814Y11919D01*
X4792Y11952D01*
X4022Y12722D01*
Y17702D01*
X4050Y17720D01*
X4090Y17780D01*
X4104Y17850D01*
X4090Y17920D01*
X4050Y17980D01*
X3990Y18020D01*
X3920Y18034D01*
D02*
G37*
G36*
X3985Y8361D02*
X2566D01*
Y7839D01*
X3985D01*
Y8361D01*
D02*
G37*
G36*
X31085Y7811D02*
X29666D01*
Y7289D01*
X31085D01*
Y7811D01*
D02*
G37*
G36*
X6534Y7361D02*
X5115D01*
Y6839D01*
X6534D01*
Y7361D01*
D02*
G37*
G36*
X25200Y7234D02*
X25130Y7220D01*
X25070Y7180D01*
X25030Y7120D01*
X25016Y7050D01*
X25030Y6980D01*
X25070Y6920D01*
Y6880D01*
X25030Y6820D01*
X25016Y6750D01*
X25030Y6680D01*
X25070Y6620D01*
X25130Y6580D01*
X25200Y6566D01*
X25270Y6580D01*
X25330Y6620D01*
X25370Y6680D01*
X25384Y6750D01*
X25370Y6820D01*
X25330Y6880D01*
Y6920D01*
X25370Y6980D01*
X25384Y7050D01*
X25370Y7120D01*
X25330Y7180D01*
X25270Y7220D01*
X25200Y7234D01*
D02*
G37*
G36*
X27300Y9034D02*
X27230Y9020D01*
X27170Y8980D01*
X27130Y8920D01*
X27116Y8850D01*
X27130Y8780D01*
X27170Y8720D01*
X27230Y8680D01*
X27300Y8666D01*
X27333Y8673D01*
X27498Y8508D01*
Y6770D01*
X27506Y6731D01*
X27528Y6698D01*
X27748Y6478D01*
X27781Y6456D01*
X27815Y6449D01*
Y6289D01*
X29234D01*
Y6811D01*
X27815D01*
Y6764D01*
X27769Y6745D01*
X27702Y6812D01*
Y8550D01*
X27694Y8589D01*
X27672Y8622D01*
X27477Y8817D01*
X27484Y8850D01*
X27470Y8920D01*
X27430Y8980D01*
X27370Y9020D01*
X27300Y9034D01*
D02*
G37*
G36*
X24420Y6634D02*
X24350Y6620D01*
X24290Y6580D01*
X24250Y6520D01*
X24236Y6450D01*
X24250Y6380D01*
X24290Y6320D01*
X24350Y6280D01*
X24420Y6266D01*
X24490Y6280D01*
X24550Y6320D01*
X24590Y6380D01*
X24604Y6450D01*
X24590Y6520D01*
X24550Y6580D01*
X24490Y6620D01*
X24420Y6634D01*
D02*
G37*
G36*
X9100Y6134D02*
X9030Y6120D01*
X8970Y6080D01*
X8952Y6052D01*
X8900D01*
X8861Y6044D01*
X8828Y6022D01*
X8678Y5872D01*
X8656Y5839D01*
X8648Y5800D01*
Y3700D01*
X8656Y3661D01*
X8678Y3628D01*
X9186Y3120D01*
X9154Y3043D01*
X9142Y2950D01*
X9154Y2857D01*
X9190Y2771D01*
X9247Y2697D01*
X9321Y2640D01*
X9407Y2604D01*
X9500Y2592D01*
X9593Y2604D01*
X9679Y2640D01*
X9753Y2697D01*
X9810Y2771D01*
X9846Y2857D01*
X9858Y2950D01*
X9846Y3043D01*
X9810Y3129D01*
X9753Y3203D01*
X9679Y3260D01*
X9593Y3296D01*
X9500Y3308D01*
X9407Y3296D01*
X9330Y3264D01*
X8852Y3742D01*
Y5758D01*
X8912Y5818D01*
X8970Y5820D01*
X9030Y5780D01*
X9100Y5766D01*
X9170Y5780D01*
X9230Y5820D01*
X9270Y5880D01*
X9284Y5950D01*
X9270Y6020D01*
X9230Y6080D01*
X9170Y6120D01*
X9100Y6134D01*
D02*
G37*
G36*
X29234Y5811D02*
X27815D01*
Y5764D01*
X27400D01*
X27318Y5748D01*
X27249Y5701D01*
X27202Y5632D01*
X27186Y5550D01*
X27202Y5468D01*
X27249Y5399D01*
X27318Y5352D01*
X27400Y5336D01*
X27815D01*
Y5289D01*
X29234D01*
Y5811D01*
D02*
G37*
G36*
X24123Y6349D02*
X23137D01*
Y4851D01*
X24123D01*
Y6349D01*
D02*
G37*
G36*
X9855Y5305D02*
X9145D01*
Y4595D01*
X9855D01*
Y5305D01*
D02*
G37*
G36*
X17774Y5453D02*
X17288D01*
Y4947D01*
X17429D01*
Y4340D01*
X17437Y4301D01*
X17459Y4268D01*
X17596Y4131D01*
X17577Y4085D01*
X16909D01*
Y4181D01*
X16316D01*
Y3785D01*
X16909D01*
Y3881D01*
X17891D01*
Y3785D01*
X18484D01*
Y4181D01*
X17891D01*
Y4181D01*
X17851Y4164D01*
X17633Y4382D01*
Y4947D01*
X17774D01*
Y5453D01*
D02*
G37*
G36*
X25920Y4894D02*
X25850Y4880D01*
X25790Y4840D01*
X25750Y4780D01*
X25736Y4710D01*
X25750Y4640D01*
X25790Y4580D01*
X25850Y4540D01*
X25920Y4526D01*
X25990Y4540D01*
X26050Y4580D01*
X26068Y4608D01*
X26148D01*
X26573Y4183D01*
X26566Y4150D01*
X26580Y4080D01*
X26620Y4020D01*
X26680Y3980D01*
X26750Y3966D01*
X26820Y3980D01*
X26880Y4020D01*
X26920Y4080D01*
X26934Y4150D01*
X26920Y4220D01*
X26880Y4280D01*
X26820Y4320D01*
X26750Y4334D01*
X26717Y4327D01*
X26262Y4782D01*
X26229Y4804D01*
X26190Y4812D01*
X26068D01*
X26050Y4840D01*
X25990Y4880D01*
X25920Y4894D01*
D02*
G37*
G36*
X11370Y5553D02*
X10884D01*
Y5047D01*
X11025D01*
Y4707D01*
X10991Y4672D01*
X10968Y4639D01*
X10961Y4600D01*
Y4181D01*
X10766D01*
Y3785D01*
X11359D01*
Y3881D01*
X12341D01*
Y3785D01*
X12934D01*
Y4181D01*
X12341D01*
Y4085D01*
X11359D01*
Y4181D01*
X11165D01*
Y4558D01*
X11199Y4592D01*
X11221Y4625D01*
X11229Y4664D01*
Y5047D01*
X11370D01*
Y5553D01*
D02*
G37*
G36*
X7994Y5545D02*
X7206D01*
X7088Y5529D01*
X6977Y5484D01*
X6883Y5411D01*
X6810Y5316D01*
X6764Y5206D01*
X6749Y5087D01*
Y3513D01*
X6764Y3394D01*
X6810Y3284D01*
X6883Y3189D01*
X6977Y3116D01*
X7088Y3071D01*
X7206Y3055D01*
X7994D01*
X8112Y3071D01*
X8223Y3116D01*
X8317Y3189D01*
X8390Y3284D01*
X8436Y3394D01*
X8451Y3513D01*
Y5087D01*
X8436Y5206D01*
X8390Y5316D01*
X8317Y5411D01*
X8223Y5484D01*
X8112Y5529D01*
X7994Y5545D01*
D02*
G37*
G36*
X3985Y2411D02*
X2566D01*
Y1889D01*
X3985D01*
Y2411D01*
D02*
G37*
G36*
Y1411D02*
X2566D01*
Y1364D01*
X2134D01*
Y1411D01*
X715D01*
Y889D01*
X2134D01*
Y936D01*
X2566D01*
Y889D01*
X3985D01*
Y1411D01*
D02*
G37*
G36*
X27200Y2354D02*
X27082Y2339D01*
X26971Y2293D01*
X26876Y2220D01*
X26804Y2126D01*
X26758Y2015D01*
X26742Y1897D01*
Y1503D01*
X26758Y1385D01*
X26804Y1274D01*
X26876Y1180D01*
X26971Y1107D01*
X27082Y1061D01*
X27200Y1046D01*
X27318Y1061D01*
X27429Y1107D01*
X27524Y1180D01*
X27596Y1274D01*
X27642Y1385D01*
X27658Y1503D01*
Y1897D01*
X27642Y2015D01*
X27596Y2126D01*
X27524Y2220D01*
X27429Y2293D01*
X27318Y2339D01*
X27200Y2354D01*
D02*
G37*
G36*
X18700Y1134D02*
X18630Y1120D01*
X18570Y1080D01*
X18530Y1020D01*
X18516Y950D01*
X18530Y880D01*
X18570Y820D01*
X18630Y780D01*
X18700Y766D01*
X18770Y780D01*
X18830Y820D01*
X18870Y880D01*
X18884Y950D01*
X18870Y1020D01*
X18830Y1080D01*
X18770Y1120D01*
X18700Y1134D01*
D02*
G37*
G36*
X30000Y2611D02*
X29834Y2598D01*
X29671Y2559D01*
X29517Y2495D01*
X29375Y2408D01*
X29248Y2300D01*
X29140Y2173D01*
X29053Y2031D01*
X28989Y1877D01*
X28950Y1714D01*
X28937Y1548D01*
X28950Y1382D01*
X28989Y1219D01*
X29053Y1065D01*
X29140Y923D01*
X29248Y796D01*
X29375Y688D01*
X29517Y601D01*
X29671Y537D01*
X29834Y498D01*
X30000Y485D01*
X30166Y498D01*
X30329Y537D01*
X30483Y601D01*
X30625Y688D01*
X30752Y796D01*
X30860Y923D01*
X30947Y1065D01*
X31011Y1219D01*
X31050Y1382D01*
X31063Y1548D01*
X31050Y1714D01*
X31011Y1877D01*
X30947Y2031D01*
X30860Y2173D01*
X30752Y2300D01*
X30625Y2408D01*
X30483Y2495D01*
X30329Y2559D01*
X30166Y2598D01*
X30000Y2611D01*
D02*
G37*
G36*
X6400D02*
X6234Y2598D01*
X6071Y2559D01*
X5917Y2495D01*
X5775Y2408D01*
X5648Y2300D01*
X5540Y2173D01*
X5453Y2031D01*
X5389Y1877D01*
X5350Y1714D01*
X5337Y1548D01*
X5350Y1382D01*
X5389Y1219D01*
X5453Y1065D01*
X5540Y923D01*
X5648Y796D01*
X5775Y688D01*
X5917Y601D01*
X6071Y537D01*
X6234Y498D01*
X6400Y485D01*
X6566Y498D01*
X6729Y537D01*
X6883Y601D01*
X7025Y688D01*
X7152Y796D01*
X7260Y923D01*
X7347Y1065D01*
X7411Y1219D01*
X7450Y1382D01*
X7463Y1548D01*
X7450Y1714D01*
X7411Y1877D01*
X7347Y2031D01*
X7260Y2173D01*
X7152Y2300D01*
X7025Y2408D01*
X6883Y2495D01*
X6729Y2559D01*
X6566Y2598D01*
X6400Y2611D01*
D02*
G37*
G36*
X12403Y1276D02*
X7840D01*
Y640D01*
X11097D01*
X11140Y622D01*
X11140Y590D01*
Y240D01*
X12353D01*
X12353Y622D01*
X12396Y640D01*
X12403D01*
Y1276D01*
D02*
G37*
%LPD*%
G36*
X22972Y24998D02*
X22957Y24996D01*
X22871Y24960D01*
X22797Y24903D01*
X22740Y24829D01*
X22704Y24743D01*
X22692Y24650D01*
X22704Y24557D01*
X22736Y24480D01*
X22518Y24262D01*
X22496Y24229D01*
X22488Y24190D01*
Y18176D01*
X19846Y15534D01*
X19824Y15501D01*
X19816Y15462D01*
Y14780D01*
X19597Y14561D01*
X19550Y14585D01*
X19558Y14650D01*
X19546Y14743D01*
X19514Y14820D01*
X19667Y14973D01*
X19689Y15006D01*
X19697Y15045D01*
Y16053D01*
X21622Y17978D01*
X21644Y18011D01*
X21652Y18050D01*
Y24108D01*
X21880Y24336D01*
X21957Y24304D01*
X22050Y24292D01*
X22143Y24304D01*
X22229Y24340D01*
X22303Y24397D01*
X22360Y24471D01*
X22396Y24557D01*
X22408Y24650D01*
X22396Y24743D01*
X22360Y24829D01*
X22303Y24903D01*
X22229Y24960D01*
X22143Y24996D01*
X22128Y24998D01*
X22132Y25048D01*
X22968D01*
X22972Y24998D01*
D02*
G37*
G36*
X21550Y15050D02*
Y14450D01*
X21400Y14300D01*
X20450D01*
X20150Y14600D01*
Y15150D01*
X20550Y15550D01*
X21050D01*
X21550Y15050D01*
D02*
G37*
G36*
X12360Y17720D02*
X12420Y17680D01*
X12490Y17666D01*
X12523Y17673D01*
X13438Y16758D01*
Y12970D01*
X13446Y12931D01*
X13468Y12898D01*
X14018Y12348D01*
Y10170D01*
X14026Y10131D01*
X14048Y10098D01*
X14498Y9648D01*
Y8298D01*
X14470Y8280D01*
X14430Y8220D01*
X14416Y8150D01*
X14430Y8080D01*
X14449Y8052D01*
X14422Y8002D01*
X14342D01*
X13952Y8392D01*
Y9800D01*
X13944Y9839D01*
X13922Y9872D01*
X13452Y10342D01*
Y10870D01*
X13444Y10909D01*
X13422Y10942D01*
X13147Y11217D01*
X13154Y11250D01*
X13140Y11320D01*
X13100Y11380D01*
X13040Y11420D01*
X12970Y11434D01*
X12902Y11420D01*
X12893Y11419D01*
X12852Y11445D01*
Y12603D01*
X12844Y12642D01*
X12822Y12675D01*
X12775Y12722D01*
X12742Y12744D01*
X12703Y12752D01*
X11542D01*
X11510Y12829D01*
X11453Y12903D01*
X11379Y12960D01*
X11293Y12996D01*
X11200Y13008D01*
X11107Y12996D01*
X11021Y12960D01*
X10947Y12903D01*
X10890Y12829D01*
X10854Y12743D01*
X10852Y12728D01*
X10802Y12732D01*
Y13568D01*
X10852Y13572D01*
X10854Y13557D01*
X10890Y13471D01*
X10947Y13397D01*
X11021Y13340D01*
X11107Y13304D01*
X11200Y13292D01*
X11293Y13304D01*
X11379Y13340D01*
X11453Y13397D01*
X11510Y13471D01*
X11546Y13557D01*
X11558Y13650D01*
X11546Y13743D01*
X11510Y13829D01*
X11453Y13903D01*
X11379Y13960D01*
X11293Y13996D01*
X11200Y14008D01*
X11169Y14004D01*
X11146Y14052D01*
X11242Y14148D01*
X11740D01*
X11779Y14156D01*
X11812Y14178D01*
X12262Y14628D01*
X12284Y14661D01*
X12292Y14700D01*
Y17732D01*
X12342Y17748D01*
X12360Y17720D01*
D02*
G37*
%LPC*%
G36*
X12790Y16644D02*
X12720Y16630D01*
X12660Y16590D01*
X12620Y16530D01*
X12606Y16460D01*
X12620Y16390D01*
X12660Y16330D01*
X12720Y16290D01*
X12790Y16276D01*
X12860Y16290D01*
X12920Y16330D01*
X12960Y16390D01*
X12974Y16460D01*
X12960Y16530D01*
X12920Y16590D01*
X12860Y16630D01*
X12790Y16644D01*
D02*
G37*
G36*
X12953Y13118D02*
X12883Y13104D01*
X12823Y13064D01*
X12784Y13005D01*
X12770Y12934D01*
X12784Y12864D01*
X12823Y12805D01*
X12883Y12765D01*
X12953Y12751D01*
X13023Y12765D01*
X13083Y12805D01*
X13123Y12864D01*
X13137Y12934D01*
X13123Y13005D01*
X13083Y13064D01*
X13023Y13104D01*
X12953Y13118D01*
D02*
G37*
%LPD*%
G36*
X10009Y1149D02*
X10189D01*
Y1087D01*
X10009D01*
Y1030D01*
X10218D01*
Y968D01*
X9711D01*
Y1030D01*
X9771D01*
X9769Y1030D01*
X9767Y1032D01*
X9762Y1036D01*
X9755Y1040D01*
X9747Y1044D01*
X9739Y1049D01*
X9729Y1054D01*
X9720Y1060D01*
X9720Y1060D01*
X9722Y1063D01*
X9725Y1066D01*
X9728Y1071D01*
X9733Y1078D01*
X9738Y1085D01*
X9743Y1093D01*
X9749Y1103D01*
X9755Y1113D01*
X9762Y1125D01*
X9768Y1137D01*
X9775Y1150D01*
X9781Y1164D01*
X9787Y1178D01*
X9798Y1208D01*
X9867Y1190D01*
X9867Y1189D01*
X9866Y1186D01*
X9864Y1182D01*
X9862Y1177D01*
X9860Y1170D01*
X9857Y1164D01*
X9851Y1149D01*
X9935D01*
Y1215D01*
X10009D01*
Y1149D01*
D02*
G37*
G36*
X8070Y1180D02*
X8076D01*
X8083Y1180D01*
X8090Y1179D01*
X8105Y1177D01*
X8122Y1174D01*
X8138Y1170D01*
X8154Y1165D01*
Y1085D01*
X8153Y1086D01*
X8152Y1086D01*
X8150Y1088D01*
X8147Y1089D01*
X8143Y1091D01*
X8138Y1094D01*
X8133Y1097D01*
X8127Y1099D01*
X8113Y1104D01*
X8097Y1108D01*
X8079Y1111D01*
X8070Y1113D01*
X8054D01*
X8048Y1112D01*
X8041Y1111D01*
X8033Y1110D01*
X8025Y1108D01*
X8017Y1105D01*
X8009Y1101D01*
X8008Y1100D01*
X8006Y1099D01*
X8003Y1097D01*
X8000Y1093D01*
X7996Y1088D01*
X7993Y1083D01*
X7991Y1077D01*
X7990Y1070D01*
Y1069D01*
Y1067D01*
X7991Y1064D01*
X7992Y1061D01*
X7993Y1056D01*
X7995Y1051D01*
X7998Y1047D01*
X8003Y1041D01*
X8004Y1041D01*
X8006Y1039D01*
X8010Y1036D01*
X8016Y1032D01*
X8020Y1030D01*
X8024Y1027D01*
X8030Y1024D01*
X8035Y1021D01*
X8043Y1018D01*
X8050Y1014D01*
X8058Y1010D01*
X8067Y1006D01*
X8068D01*
X8070Y1005D01*
X8073Y1003D01*
X8077Y1001D01*
X8081Y999D01*
X8087Y996D01*
X8100Y990D01*
X8113Y982D01*
X8127Y973D01*
X8139Y962D01*
X8144Y957D01*
X8149Y952D01*
X8150Y951D01*
X8153Y947D01*
X8156Y941D01*
X8160Y933D01*
X8164Y923D01*
X8168Y911D01*
X8171Y898D01*
X8172Y884D01*
Y883D01*
Y881D01*
Y879D01*
X8171Y874D01*
X8170Y870D01*
X8170Y864D01*
X8166Y852D01*
X8162Y837D01*
X8159Y830D01*
X8154Y823D01*
X8149Y816D01*
X8144Y809D01*
X8138Y802D01*
X8131Y797D01*
X8130D01*
X8129Y795D01*
X8126Y794D01*
X8123Y792D01*
X8119Y789D01*
X8114Y787D01*
X8108Y784D01*
X8101Y782D01*
X8093Y779D01*
X8085Y776D01*
X8075Y774D01*
X8065Y771D01*
X8054Y769D01*
X8041Y768D01*
X8028Y767D01*
X8015Y767D01*
X8008D01*
X8003Y767D01*
X7997D01*
X7991Y768D01*
X7983Y769D01*
X7975Y769D01*
X7957Y772D01*
X7938Y776D01*
X7919Y781D01*
X7902Y788D01*
Y874D01*
X7903Y873D01*
X7904Y872D01*
X7906Y870D01*
X7910Y867D01*
X7915Y865D01*
X7920Y861D01*
X7927Y857D01*
X7934Y854D01*
X7941Y850D01*
X7950Y846D01*
X7969Y840D01*
X7978Y837D01*
X7989Y835D01*
X8000Y834D01*
X8011Y833D01*
X8017D01*
X8024Y834D01*
X8031Y835D01*
X8040Y837D01*
X8048Y839D01*
X8057Y842D01*
X8064Y846D01*
X8065Y846D01*
X8067Y848D01*
X8070Y851D01*
X8073Y854D01*
X8076Y859D01*
X8080Y864D01*
X8081Y870D01*
X8082Y877D01*
Y878D01*
Y879D01*
X8081Y883D01*
X8080Y887D01*
X8079Y891D01*
X8076Y896D01*
X8072Y902D01*
X8068Y907D01*
X8067Y908D01*
X8065Y910D01*
X8060Y913D01*
X8057Y916D01*
X8054Y918D01*
X8049Y920D01*
X8044Y924D01*
X8038Y927D01*
X8031Y930D01*
X8023Y934D01*
X8015Y938D01*
X8005Y942D01*
X7994Y947D01*
X7993Y948D01*
X7990Y949D01*
X7986Y951D01*
X7979Y954D01*
X7972Y959D01*
X7964Y964D01*
X7956Y970D01*
X7947Y976D01*
X7938Y984D01*
X7930Y993D01*
X7922Y1002D01*
X7915Y1012D01*
X7908Y1024D01*
X7904Y1036D01*
X7901Y1049D01*
X7900Y1063D01*
Y1064D01*
Y1065D01*
Y1068D01*
X7901Y1072D01*
X7901Y1076D01*
X7903Y1082D01*
X7905Y1095D01*
X7910Y1109D01*
X7914Y1116D01*
X7918Y1123D01*
X7923Y1130D01*
X7929Y1137D01*
X7935Y1144D01*
X7943Y1150D01*
X7943Y1150D01*
X7945Y1151D01*
X7947Y1152D01*
X7951Y1155D01*
X7955Y1157D01*
X7960Y1159D01*
X7966Y1163D01*
X7973Y1165D01*
X7980Y1169D01*
X7989Y1171D01*
X7998Y1174D01*
X8008Y1176D01*
X8019Y1178D01*
X8031Y1180D01*
X8043Y1180D01*
X8056Y1181D01*
X8065D01*
X8070Y1180D01*
D02*
G37*
G36*
X10582Y1215D02*
X10583Y1214D01*
X10584Y1212D01*
X10585Y1209D01*
X10587Y1205D01*
X10589Y1202D01*
X10594Y1192D01*
X10599Y1180D01*
X10605Y1167D01*
X10611Y1154D01*
X10617Y1139D01*
X10576Y1129D01*
X10733D01*
Y1062D01*
X10399D01*
Y1129D01*
X10536D01*
Y1130D01*
X10535Y1130D01*
X10534Y1134D01*
X10532Y1141D01*
X10528Y1148D01*
X10524Y1158D01*
X10519Y1170D01*
X10513Y1182D01*
X10508Y1196D01*
X10582Y1216D01*
Y1215D01*
D02*
G37*
G36*
X10889Y1126D02*
X10943D01*
Y1061D01*
X10889D01*
Y973D01*
X10890D01*
X10893Y975D01*
X10898Y976D01*
X10904Y977D01*
X10911Y979D01*
X10919Y981D01*
X10935Y986D01*
X10924Y1001D01*
X10925Y1001D01*
X10927Y1003D01*
X10932Y1005D01*
X10938Y1008D01*
X10945Y1013D01*
X10953Y1019D01*
X10961Y1025D01*
X10970Y1032D01*
X10979Y1041D01*
X10987Y1051D01*
X10995Y1061D01*
X11002Y1073D01*
X11008Y1085D01*
X11012Y1099D01*
X11015Y1113D01*
X11016Y1128D01*
X10951D01*
Y1194D01*
X11259D01*
Y1193D01*
Y1192D01*
Y1189D01*
Y1185D01*
X11259Y1181D01*
Y1175D01*
Y1169D01*
X11258Y1162D01*
Y1154D01*
X11257Y1146D01*
X11257Y1127D01*
X11255Y1106D01*
X11254Y1084D01*
Y1084D01*
Y1082D01*
X11253Y1078D01*
Y1075D01*
Y1069D01*
X11253Y1064D01*
X11251Y1052D01*
X11250Y1039D01*
X11248Y1026D01*
X11248Y1020D01*
X11246Y1015D01*
X11245Y1010D01*
X11244Y1007D01*
Y1006D01*
X11242Y1005D01*
X11241Y1001D01*
X11238Y998D01*
X11236Y994D01*
X11233Y990D01*
X11228Y985D01*
X11224Y981D01*
X11223Y981D01*
X11221Y980D01*
X11218Y978D01*
X11215Y976D01*
X11209Y974D01*
X11204Y972D01*
X11197Y970D01*
X11189Y968D01*
X11187D01*
X11185Y968D01*
X11179D01*
X11174Y967D01*
X11169D01*
X11163Y966D01*
X11157D01*
X11149Y966D01*
X11141D01*
X11130Y965D01*
X11120D01*
X11108Y964D01*
X11095D01*
Y966D01*
X11093Y970D01*
X11092Y975D01*
X11090Y983D01*
X11088Y993D01*
X11084Y1005D01*
X11080Y1018D01*
X11076Y1033D01*
X11082D01*
X11089Y1032D01*
X11109D01*
X11121Y1032D01*
X11146D01*
X11149Y1032D01*
X11153Y1033D01*
X11162Y1036D01*
X11167Y1038D01*
X11170Y1041D01*
X11171Y1041D01*
X11172Y1043D01*
X11174Y1045D01*
X11176Y1049D01*
X11178Y1053D01*
X11180Y1060D01*
X11181Y1067D01*
X11182Y1076D01*
Y1077D01*
Y1080D01*
X11183Y1086D01*
Y1092D01*
Y1100D01*
X11183Y1109D01*
Y1119D01*
Y1128D01*
X11088D01*
Y1128D01*
Y1127D01*
Y1125D01*
Y1123D01*
X11088Y1117D01*
X11086Y1108D01*
X11084Y1098D01*
X11081Y1086D01*
X11077Y1073D01*
X11073Y1060D01*
X11066Y1045D01*
X11058Y1029D01*
X11048Y1014D01*
X11036Y999D01*
X11023Y984D01*
X11007Y970D01*
X10988Y956D01*
X10978Y949D01*
X10967Y944D01*
X10966Y944D01*
X10965Y947D01*
X10962Y950D01*
X10959Y955D01*
X10955Y961D01*
X10949Y967D01*
X10944Y975D01*
X10938Y983D01*
Y982D01*
Y981D01*
Y979D01*
Y976D01*
Y969D01*
Y960D01*
Y950D01*
Y939D01*
X10938Y928D01*
Y918D01*
X10889Y903D01*
Y768D01*
Y767D01*
Y764D01*
X10888Y759D01*
X10887Y752D01*
X10886Y746D01*
X10884Y739D01*
X10881Y732D01*
X10878Y727D01*
X10877Y726D01*
X10876Y724D01*
X10873Y722D01*
X10870Y719D01*
X10865Y716D01*
X10860Y713D01*
X10854Y710D01*
X10846Y709D01*
X10846D01*
X10843Y708D01*
X10838D01*
X10831Y708D01*
X10822Y707D01*
X10810Y706D01*
X10797Y706D01*
X10781Y705D01*
Y706D01*
Y706D01*
X10780Y708D01*
Y710D01*
X10780Y717D01*
X10778Y725D01*
X10776Y735D01*
X10775Y747D01*
X10772Y759D01*
X10769Y772D01*
X10777D01*
X10782Y773D01*
X10810D01*
X10813Y774D01*
X10815Y775D01*
X10818Y778D01*
X10821Y782D01*
X10822Y787D01*
X10823Y794D01*
Y884D01*
X10769Y868D01*
X10764Y944D01*
X10823Y957D01*
Y1061D01*
X10767D01*
Y1126D01*
X10823D01*
Y1213D01*
X10889D01*
Y1126D01*
D02*
G37*
G36*
X9129Y897D02*
X8976D01*
Y956D01*
X9129D01*
Y897D01*
D02*
G37*
G36*
X8894Y946D02*
Y945D01*
Y944D01*
Y941D01*
Y938D01*
X8893Y934D01*
X8893Y929D01*
X8892Y924D01*
X8891Y918D01*
X8889Y904D01*
X8885Y889D01*
X8880Y873D01*
X8873Y856D01*
X8864Y839D01*
X8853Y823D01*
X8847Y815D01*
X8840Y808D01*
X8832Y801D01*
X8824Y795D01*
X8814Y789D01*
X8805Y784D01*
X8794Y778D01*
X8783Y775D01*
X8770Y771D01*
X8757Y769D01*
X8742Y767D01*
X8727Y767D01*
X8724D01*
X8720Y767D01*
X8717D01*
X8713Y768D01*
X8702Y769D01*
X8691Y772D01*
X8677Y776D01*
X8662Y781D01*
X8647Y789D01*
X8632Y798D01*
X8618Y809D01*
X8611Y816D01*
X8604Y823D01*
X8598Y832D01*
X8592Y840D01*
X8586Y850D01*
X8582Y860D01*
X8577Y871D01*
X8574Y883D01*
X8571Y896D01*
X8569Y910D01*
X8567Y925D01*
X8567Y940D01*
Y1174D01*
X8652D01*
Y940D01*
Y939D01*
Y936D01*
X8653Y931D01*
X8654Y925D01*
X8655Y917D01*
X8656Y909D01*
X8659Y900D01*
X8662Y891D01*
X8667Y881D01*
X8672Y872D01*
X8678Y863D01*
X8686Y856D01*
X8694Y849D01*
X8705Y844D01*
X8718Y841D01*
X8731Y840D01*
X8735D01*
X8739Y841D01*
X8744Y841D01*
X8750Y843D01*
X8756Y845D01*
X8762Y848D01*
X8770Y852D01*
X8777Y857D01*
X8784Y863D01*
X8790Y871D01*
X8796Y881D01*
X8801Y892D01*
X8805Y905D01*
X8808Y920D01*
X8809Y937D01*
Y1174D01*
X8894D01*
Y946D01*
D02*
G37*
G36*
X12044Y1143D02*
X11999Y1015D01*
X11999Y1014D01*
X12001Y1012D01*
X12003Y1010D01*
X12006Y1006D01*
X12010Y1001D01*
X12013Y996D01*
X12017Y990D01*
X12022Y983D01*
X12030Y966D01*
X12038Y949D01*
X12041Y939D01*
X12043Y929D01*
X12045Y919D01*
X12045Y909D01*
Y908D01*
Y907D01*
Y905D01*
X12045Y902D01*
X12044Y894D01*
X12041Y885D01*
X12037Y874D01*
X12032Y865D01*
X12025Y855D01*
X12019Y851D01*
X12014Y847D01*
X12013D01*
X12013Y846D01*
X12011Y846D01*
X12009Y845D01*
X12002Y841D01*
X11993Y838D01*
X11982Y835D01*
X11968Y832D01*
X11953Y830D01*
X11935Y828D01*
Y830D01*
X11934Y833D01*
X11932Y838D01*
X11930Y845D01*
X11927Y854D01*
X11923Y865D01*
X11919Y877D01*
X11914Y890D01*
Y701D01*
X11846D01*
Y1192D01*
X12044D01*
Y1143D01*
D02*
G37*
G36*
X10482Y1040D02*
X10483Y1038D01*
X10484Y1034D01*
X10486Y1030D01*
X10488Y1023D01*
X10491Y1016D01*
X10495Y1006D01*
X10498Y995D01*
X10503Y983D01*
X10508Y969D01*
X10513Y953D01*
X10520Y935D01*
X10527Y914D01*
X10534Y892D01*
X10543Y868D01*
X10552Y842D01*
X10480Y819D01*
Y820D01*
X10480Y821D01*
Y822D01*
X10479Y825D01*
X10477Y832D01*
X10474Y840D01*
X10471Y850D01*
X10467Y863D01*
X10463Y876D01*
X10459Y891D01*
X10454Y907D01*
X10449Y923D01*
X10438Y956D01*
X10433Y973D01*
X10427Y989D01*
X10422Y1005D01*
X10417Y1019D01*
X10482Y1040D01*
Y1040D01*
D02*
G37*
G36*
X8516Y1104D02*
X8401D01*
Y773D01*
X8315D01*
Y1104D01*
X8201D01*
Y1174D01*
X8516D01*
Y1104D01*
D02*
G37*
G36*
X10716Y1021D02*
Y1020D01*
X10716Y1019D01*
X10715Y1016D01*
X10713Y1012D01*
X10711Y1007D01*
X10709Y1000D01*
X10706Y991D01*
X10702Y979D01*
X10697Y966D01*
X10694Y959D01*
X10692Y950D01*
X10688Y941D01*
X10685Y931D01*
X10681Y921D01*
X10677Y910D01*
X10673Y898D01*
X10669Y885D01*
X10664Y872D01*
X10659Y858D01*
X10654Y843D01*
X10649Y827D01*
X10643Y810D01*
X10637Y792D01*
X10751D01*
Y726D01*
X10388D01*
Y792D01*
X10563D01*
Y793D01*
X10563Y793D01*
X10564Y795D01*
X10565Y797D01*
X10567Y804D01*
X10570Y813D01*
X10574Y824D01*
X10578Y837D01*
X10583Y852D01*
X10588Y868D01*
X10593Y886D01*
X10599Y906D01*
X10605Y927D01*
X10611Y948D01*
X10618Y971D01*
X10624Y995D01*
X10635Y1043D01*
X10716Y1021D01*
D02*
G37*
G36*
X11500Y1137D02*
X11499D01*
X11497Y1136D01*
X11494Y1135D01*
X11488Y1134D01*
X11480Y1133D01*
X11470Y1131D01*
X11459Y1130D01*
X11446Y1128D01*
X11434Y1126D01*
Y1062D01*
X11502D01*
Y1000D01*
X11434D01*
Y939D01*
X11452Y957D01*
X11454Y957D01*
X11457Y953D01*
X11463Y949D01*
X11470Y942D01*
X11480Y934D01*
X11491Y924D01*
X11503Y913D01*
X11517Y899D01*
Y1189D01*
X11778D01*
Y780D01*
X11810D01*
Y716D01*
X11472D01*
Y780D01*
X11517D01*
Y894D01*
X11474Y852D01*
X11473Y853D01*
X11470Y856D01*
X11467Y861D01*
X11461Y867D01*
X11456Y874D01*
X11448Y882D01*
X11434Y898D01*
Y702D01*
X11369D01*
Y900D01*
X11369Y898D01*
X11367Y895D01*
X11365Y891D01*
X11364Y886D01*
X11361Y879D01*
X11358Y873D01*
X11355Y865D01*
X11348Y848D01*
X11340Y830D01*
X11330Y810D01*
X11320Y789D01*
Y790D01*
X11319Y791D01*
Y793D01*
X11318Y797D01*
X11317Y800D01*
X11316Y805D01*
X11313Y816D01*
X11310Y830D01*
X11305Y844D01*
X11301Y860D01*
X11295Y877D01*
X11296Y878D01*
X11296Y879D01*
X11298Y882D01*
X11301Y886D01*
X11304Y891D01*
X11307Y897D01*
X11311Y904D01*
X11316Y912D01*
X11320Y920D01*
X11325Y930D01*
X11330Y940D01*
X11335Y951D01*
X11346Y974D01*
X11356Y1000D01*
X11297D01*
Y1062D01*
X11369D01*
Y1118D01*
X11368D01*
X11364Y1117D01*
X11358D01*
X11350Y1117D01*
X11341Y1116D01*
X11330Y1115D01*
X11319Y1114D01*
X11307Y1113D01*
Y1114D01*
Y1115D01*
Y1117D01*
X11307Y1120D01*
X11306Y1127D01*
X11305Y1136D01*
X11303Y1146D01*
X11302Y1157D01*
X11300Y1169D01*
X11297Y1180D01*
X11301D01*
X11306Y1180D01*
X11312D01*
X11320Y1181D01*
X11329Y1181D01*
X11340Y1183D01*
X11353Y1184D01*
X11365Y1185D01*
X11380Y1187D01*
X11395Y1189D01*
X11412Y1191D01*
X11429Y1192D01*
X11446Y1196D01*
X11484Y1202D01*
X11500Y1137D01*
D02*
G37*
G36*
X12203Y1209D02*
Y1207D01*
Y1202D01*
Y1196D01*
Y1190D01*
X12203Y1182D01*
Y1173D01*
Y1163D01*
X12202Y1142D01*
X12201Y1119D01*
X12201Y1097D01*
X12199Y1075D01*
Y1075D01*
Y1074D01*
X12200Y1072D01*
Y1070D01*
X12201Y1064D01*
X12203Y1055D01*
X12205Y1045D01*
X12207Y1032D01*
X12210Y1019D01*
X12213Y1005D01*
X12217Y990D01*
X12221Y975D01*
X12229Y944D01*
X12234Y929D01*
X12240Y914D01*
X12245Y901D01*
X12251Y889D01*
X12251Y888D01*
X12252Y886D01*
X12254Y883D01*
X12256Y878D01*
X12260Y873D01*
X12264Y867D01*
X12269Y859D01*
X12275Y852D01*
X12280Y845D01*
X12288Y836D01*
X12295Y828D01*
X12303Y819D01*
X12312Y810D01*
X12322Y802D01*
X12332Y794D01*
X12343Y786D01*
X12342Y785D01*
X12339Y781D01*
X12334Y775D01*
X12328Y767D01*
X12321Y756D01*
X12312Y743D01*
X12302Y728D01*
X12291Y710D01*
X12290Y712D01*
X12286Y715D01*
X12282Y721D01*
X12275Y729D01*
X12268Y738D01*
X12258Y750D01*
X12249Y763D01*
X12239Y778D01*
X12229Y794D01*
X12218Y811D01*
X12208Y830D01*
X12198Y849D01*
X12189Y870D01*
X12181Y891D01*
X12174Y913D01*
X12169Y935D01*
Y934D01*
X12168Y930D01*
X12166Y924D01*
X12164Y915D01*
X12160Y905D01*
X12155Y892D01*
X12150Y878D01*
X12143Y863D01*
X12135Y846D01*
X12124Y828D01*
X12113Y809D01*
X12099Y789D01*
X12084Y769D01*
X12067Y749D01*
X12047Y728D01*
X12026Y707D01*
Y708D01*
X12025Y708D01*
X12024Y710D01*
X12023Y713D01*
X12018Y720D01*
X12012Y729D01*
X12005Y739D01*
X11997Y751D01*
X11988Y763D01*
X11977Y776D01*
X11979Y776D01*
X11982Y779D01*
X11986Y783D01*
X11993Y788D01*
X12001Y795D01*
X12010Y802D01*
X12019Y811D01*
X12030Y822D01*
X12040Y832D01*
X12050Y845D01*
X12061Y857D01*
X12071Y870D01*
X12080Y883D01*
X12088Y898D01*
X12095Y913D01*
X12101Y927D01*
Y928D01*
X12102Y931D01*
X12104Y936D01*
X12105Y943D01*
X12107Y951D01*
X12109Y962D01*
X12112Y975D01*
X12115Y989D01*
X12117Y1005D01*
X12119Y1024D01*
X12122Y1044D01*
X12124Y1067D01*
X12125Y1091D01*
X12126Y1117D01*
X12128Y1146D01*
Y1176D01*
Y1210D01*
X12203D01*
Y1209D01*
D02*
G37*
G36*
X11251Y705D02*
X11182D01*
Y732D01*
X11033D01*
Y705D01*
X10964D01*
Y942D01*
X11251D01*
Y705D01*
D02*
G37*
G36*
X10160Y704D02*
X10090D01*
Y731D01*
X9839D01*
Y704D01*
X9768D01*
Y931D01*
X10160D01*
Y704D01*
D02*
G37*
G36*
X10406Y1191D02*
Y1191D01*
X10406Y1189D01*
X10405Y1186D01*
X10403Y1182D01*
X10401Y1177D01*
X10399Y1171D01*
X10397Y1165D01*
X10394Y1157D01*
X10388Y1141D01*
X10381Y1124D01*
X10373Y1106D01*
X10366Y1087D01*
Y702D01*
X10296D01*
Y942D01*
X10296Y942D01*
X10294Y940D01*
X10293Y937D01*
X10289Y930D01*
X10284Y922D01*
X10278Y911D01*
X10272Y900D01*
X10257Y877D01*
Y878D01*
X10256Y879D01*
Y881D01*
X10255Y883D01*
X10255Y887D01*
X10254Y892D01*
X10252Y896D01*
X10251Y902D01*
X10248Y915D01*
X10244Y930D01*
X10239Y947D01*
X10234Y966D01*
X10235Y967D01*
X10237Y970D01*
X10239Y975D01*
X10243Y982D01*
X10248Y991D01*
X10254Y1002D01*
X10260Y1014D01*
X10267Y1029D01*
X10275Y1046D01*
X10283Y1064D01*
X10292Y1084D01*
X10301Y1106D01*
X10311Y1130D01*
X10320Y1156D01*
X10331Y1183D01*
X10340Y1212D01*
X10406Y1191D01*
D02*
G37*
G36*
X9483Y1216D02*
X9484Y1215D01*
X9484Y1213D01*
X9485Y1211D01*
X9488Y1205D01*
X9491Y1196D01*
X9494Y1187D01*
X9498Y1176D01*
X9503Y1165D01*
X9506Y1152D01*
X9683D01*
Y1084D01*
X9304D01*
Y979D01*
Y979D01*
Y977D01*
Y975D01*
Y971D01*
Y967D01*
X9303Y962D01*
Y955D01*
X9302Y949D01*
Y941D01*
X9302Y933D01*
X9300Y916D01*
X9298Y896D01*
X9295Y875D01*
X9291Y852D01*
X9287Y830D01*
X9282Y806D01*
X9274Y783D01*
X9267Y760D01*
X9258Y739D01*
X9247Y719D01*
X9235Y700D01*
X9234Y701D01*
X9232Y704D01*
X9230Y705D01*
X9227Y708D01*
X9224Y711D01*
X9220Y714D01*
X9215Y719D01*
X9210Y724D01*
X9202Y730D01*
X9195Y737D01*
X9186Y745D01*
X9175Y754D01*
X9176Y755D01*
X9178Y758D01*
X9180Y762D01*
X9184Y768D01*
X9189Y776D01*
X9193Y786D01*
X9199Y797D01*
X9204Y810D01*
X9209Y826D01*
X9214Y843D01*
X9219Y862D01*
X9223Y883D01*
X9226Y907D01*
X9229Y931D01*
X9230Y959D01*
Y988D01*
Y1152D01*
X9419D01*
X9418Y1154D01*
X9418Y1156D01*
X9416Y1161D01*
X9413Y1167D01*
X9410Y1174D01*
X9407Y1182D01*
X9401Y1199D01*
X9483Y1216D01*
Y1216D01*
D02*
G37*
G36*
X12220Y562D02*
X12223D01*
X12226Y562D01*
X12232Y560D01*
X12240Y558D01*
X12248Y555D01*
X12256Y551D01*
X12260Y549D01*
X12263Y546D01*
X12264D01*
X12264Y545D01*
X12265Y544D01*
X12266Y543D01*
X12268Y541D01*
X12270Y539D01*
X12274Y534D01*
X12278Y527D01*
X12282Y519D01*
X12286Y509D01*
X12288Y498D01*
X12241Y493D01*
Y494D01*
X12240Y495D01*
X12240Y498D01*
X12239Y501D01*
X12238Y505D01*
X12236Y508D01*
X12234Y512D01*
X12232Y515D01*
X12231Y515D01*
X12230Y516D01*
X12229Y517D01*
X12226Y518D01*
X12224Y519D01*
X12220Y521D01*
X12216Y521D01*
X12212Y522D01*
X12212D01*
X12210Y521D01*
X12207Y521D01*
X12203Y520D01*
X12199Y518D01*
X12195Y516D01*
X12190Y512D01*
X12186Y508D01*
X12186Y507D01*
X12185Y506D01*
X12184Y505D01*
X12183Y503D01*
X12182Y501D01*
X12182Y498D01*
X12181Y495D01*
X12179Y491D01*
X12178Y487D01*
X12177Y482D01*
X12176Y477D01*
X12175Y471D01*
X12174Y465D01*
X12173Y457D01*
X12172Y449D01*
X12173Y450D01*
X12173Y451D01*
X12174Y451D01*
X12176Y453D01*
X12178Y455D01*
X12180Y457D01*
X12185Y461D01*
X12192Y464D01*
X12199Y468D01*
X12204Y469D01*
X12208Y470D01*
X12213Y471D01*
X12218Y471D01*
X12221D01*
X12223Y471D01*
X12226Y471D01*
X12229Y470D01*
X12233Y469D01*
X12236Y468D01*
X12245Y465D01*
X12249Y464D01*
X12253Y461D01*
X12258Y459D01*
X12262Y455D01*
X12267Y452D01*
X12271Y448D01*
X12271Y447D01*
X12272Y447D01*
X12273Y445D01*
X12274Y444D01*
X12276Y441D01*
X12278Y438D01*
X12280Y435D01*
X12282Y431D01*
X12284Y427D01*
X12286Y422D01*
X12288Y418D01*
X12290Y412D01*
X12291Y407D01*
X12292Y400D01*
X12293Y394D01*
X12293Y387D01*
Y387D01*
Y385D01*
Y383D01*
X12293Y380D01*
X12292Y377D01*
X12292Y373D01*
X12291Y369D01*
X12290Y364D01*
X12287Y354D01*
X12286Y349D01*
X12283Y344D01*
X12280Y338D01*
X12277Y333D01*
X12274Y328D01*
X12270Y324D01*
X12269Y323D01*
X12269Y323D01*
X12267Y321D01*
X12266Y320D01*
X12263Y318D01*
X12260Y316D01*
X12257Y314D01*
X12254Y312D01*
X12250Y310D01*
X12245Y307D01*
X12240Y306D01*
X12235Y304D01*
X12229Y302D01*
X12223Y301D01*
X12217Y300D01*
X12210Y300D01*
X12209D01*
X12207Y300D01*
X12204D01*
X12201Y301D01*
X12197Y301D01*
X12193Y303D01*
X12188Y304D01*
X12183Y305D01*
X12178Y307D01*
X12172Y310D01*
X12167Y313D01*
X12162Y316D01*
X12156Y320D01*
X12151Y325D01*
X12146Y330D01*
X12146Y330D01*
X12145Y331D01*
X12144Y333D01*
X12143Y336D01*
X12141Y339D01*
X12139Y343D01*
X12136Y348D01*
X12134Y354D01*
X12132Y360D01*
X12129Y367D01*
X12128Y375D01*
X12126Y385D01*
X12124Y394D01*
X12123Y405D01*
X12122Y417D01*
X12122Y429D01*
Y430D01*
Y430D01*
Y431D01*
Y432D01*
Y436D01*
X12122Y441D01*
X12122Y447D01*
X12123Y453D01*
X12124Y461D01*
X12125Y468D01*
X12126Y476D01*
X12128Y485D01*
X12130Y494D01*
X12133Y502D01*
X12136Y510D01*
X12139Y518D01*
X12143Y525D01*
X12148Y531D01*
X12148Y531D01*
X12149Y532D01*
X12150Y534D01*
X12152Y536D01*
X12155Y538D01*
X12158Y541D01*
X12162Y544D01*
X12166Y547D01*
X12171Y549D01*
X12175Y552D01*
X12181Y555D01*
X12187Y558D01*
X12193Y559D01*
X12200Y561D01*
X12208Y562D01*
X12215Y562D01*
X12218D01*
X12220Y562D01*
D02*
G37*
G36*
X12104Y373D02*
X12007D01*
Y422D01*
X12104D01*
Y373D01*
D02*
G37*
G36*
X11894Y562D02*
X11897Y562D01*
X11901Y561D01*
X11905Y560D01*
X11910Y560D01*
X11919Y557D01*
X11929Y553D01*
X11934Y551D01*
X11939Y549D01*
X11943Y545D01*
X11947Y542D01*
X11948Y541D01*
X11949Y541D01*
X11949Y539D01*
X11951Y538D01*
X11953Y536D01*
X11954Y533D01*
X11956Y531D01*
X11959Y528D01*
X11962Y520D01*
X11966Y512D01*
X11967Y507D01*
X11968Y502D01*
X11969Y496D01*
X11969Y491D01*
Y490D01*
Y488D01*
X11969Y484D01*
X11968Y480D01*
X11968Y475D01*
X11967Y469D01*
X11965Y464D01*
X11963Y458D01*
X11963Y457D01*
X11962Y455D01*
X11960Y452D01*
X11958Y448D01*
X11956Y443D01*
X11952Y437D01*
X11948Y431D01*
X11943Y425D01*
X11943Y425D01*
X11941Y423D01*
X11939Y420D01*
X11936Y417D01*
X11931Y412D01*
X11926Y406D01*
X11919Y400D01*
X11911Y392D01*
X11911Y392D01*
X11910Y391D01*
X11909Y390D01*
X11907Y389D01*
X11903Y385D01*
X11899Y381D01*
X11894Y376D01*
X11889Y371D01*
X11884Y367D01*
X11883Y365D01*
X11882Y364D01*
X11881Y363D01*
X11880Y363D01*
X11879Y361D01*
X11878Y359D01*
X11875Y355D01*
X11872Y350D01*
X11969D01*
Y305D01*
X11797D01*
Y305D01*
Y306D01*
X11798Y307D01*
X11798Y309D01*
X11798Y311D01*
X11799Y314D01*
X11800Y321D01*
X11802Y328D01*
X11805Y336D01*
X11809Y345D01*
X11814Y354D01*
Y354D01*
X11815Y355D01*
X11815Y356D01*
X11817Y358D01*
X11818Y360D01*
X11820Y363D01*
X11823Y366D01*
X11826Y370D01*
X11829Y374D01*
X11833Y379D01*
X11838Y384D01*
X11843Y390D01*
X11849Y395D01*
X11855Y401D01*
X11862Y408D01*
X11869Y415D01*
X11869Y415D01*
X11870Y417D01*
X11872Y418D01*
X11874Y420D01*
X11877Y422D01*
X11880Y425D01*
X11887Y432D01*
X11893Y439D01*
X11900Y446D01*
X11903Y449D01*
X11906Y452D01*
X11908Y455D01*
X11910Y457D01*
X11910Y458D01*
X11911Y460D01*
X11913Y463D01*
X11915Y467D01*
X11917Y471D01*
X11919Y476D01*
X11920Y482D01*
X11920Y487D01*
Y488D01*
Y488D01*
Y490D01*
X11920Y493D01*
X11919Y497D01*
X11918Y501D01*
X11916Y505D01*
X11914Y509D01*
X11911Y513D01*
X11911Y513D01*
X11910Y514D01*
X11907Y516D01*
X11905Y517D01*
X11901Y519D01*
X11897Y520D01*
X11892Y521D01*
X11887Y522D01*
X11884D01*
X11881Y521D01*
X11878Y521D01*
X11874Y519D01*
X11870Y518D01*
X11866Y515D01*
X11862Y512D01*
X11862Y512D01*
X11860Y511D01*
X11859Y508D01*
X11857Y505D01*
X11856Y501D01*
X11854Y495D01*
X11853Y489D01*
X11852Y482D01*
X11803Y486D01*
Y487D01*
X11803Y488D01*
Y490D01*
X11804Y493D01*
X11805Y496D01*
X11806Y500D01*
X11807Y504D01*
X11808Y509D01*
X11812Y518D01*
X11816Y528D01*
X11819Y533D01*
X11822Y537D01*
X11826Y541D01*
X11830Y545D01*
X11830Y545D01*
X11831Y545D01*
X11832Y546D01*
X11834Y548D01*
X11836Y549D01*
X11839Y550D01*
X11842Y552D01*
X11846Y553D01*
X11850Y555D01*
X11855Y557D01*
X11864Y560D01*
X11876Y562D01*
X11882Y562D01*
X11888Y562D01*
X11892D01*
X11894Y562D01*
D02*
G37*
G36*
X11695D02*
X11698Y562D01*
X11702Y561D01*
X11706Y560D01*
X11711Y560D01*
X11720Y557D01*
X11730Y553D01*
X11735Y551D01*
X11739Y549D01*
X11744Y545D01*
X11748Y542D01*
X11749Y541D01*
X11749Y541D01*
X11750Y539D01*
X11752Y538D01*
X11754Y536D01*
X11755Y533D01*
X11757Y531D01*
X11759Y528D01*
X11763Y520D01*
X11767Y512D01*
X11768Y507D01*
X11769Y502D01*
X11770Y496D01*
X11770Y491D01*
Y490D01*
Y488D01*
X11770Y484D01*
X11769Y480D01*
X11769Y475D01*
X11768Y469D01*
X11766Y464D01*
X11764Y458D01*
X11764Y457D01*
X11763Y455D01*
X11761Y452D01*
X11759Y448D01*
X11756Y443D01*
X11753Y437D01*
X11749Y431D01*
X11744Y425D01*
X11744Y425D01*
X11742Y423D01*
X11740Y420D01*
X11737Y417D01*
X11732Y412D01*
X11727Y406D01*
X11720Y400D01*
X11712Y392D01*
X11712Y392D01*
X11711Y391D01*
X11710Y390D01*
X11708Y389D01*
X11704Y385D01*
X11700Y381D01*
X11695Y376D01*
X11690Y371D01*
X11685Y367D01*
X11684Y365D01*
X11682Y364D01*
X11682Y363D01*
X11681Y363D01*
X11680Y361D01*
X11679Y359D01*
X11675Y355D01*
X11672Y350D01*
X11770D01*
Y305D01*
X11598D01*
Y305D01*
Y306D01*
X11598Y307D01*
X11599Y309D01*
X11599Y311D01*
X11600Y314D01*
X11601Y321D01*
X11603Y328D01*
X11606Y336D01*
X11610Y345D01*
X11615Y354D01*
Y354D01*
X11616Y355D01*
X11616Y356D01*
X11618Y358D01*
X11619Y360D01*
X11621Y363D01*
X11624Y366D01*
X11627Y370D01*
X11630Y374D01*
X11634Y379D01*
X11639Y384D01*
X11644Y390D01*
X11650Y395D01*
X11656Y401D01*
X11662Y408D01*
X11670Y415D01*
X11670Y415D01*
X11671Y417D01*
X11673Y418D01*
X11675Y420D01*
X11678Y422D01*
X11681Y425D01*
X11688Y432D01*
X11694Y439D01*
X11701Y446D01*
X11704Y449D01*
X11707Y452D01*
X11709Y455D01*
X11711Y457D01*
X11711Y458D01*
X11712Y460D01*
X11714Y463D01*
X11716Y467D01*
X11718Y471D01*
X11719Y476D01*
X11721Y482D01*
X11721Y487D01*
Y488D01*
Y488D01*
Y490D01*
X11721Y493D01*
X11720Y497D01*
X11719Y501D01*
X11717Y505D01*
X11715Y509D01*
X11712Y513D01*
X11712Y513D01*
X11711Y514D01*
X11708Y516D01*
X11706Y517D01*
X11702Y519D01*
X11698Y520D01*
X11693Y521D01*
X11688Y522D01*
X11685D01*
X11682Y521D01*
X11679Y521D01*
X11675Y519D01*
X11671Y518D01*
X11667Y515D01*
X11663Y512D01*
X11662Y512D01*
X11661Y511D01*
X11660Y508D01*
X11658Y505D01*
X11657Y501D01*
X11655Y495D01*
X11654Y489D01*
X11653Y482D01*
X11604Y486D01*
Y487D01*
X11604Y488D01*
Y490D01*
X11605Y493D01*
X11606Y496D01*
X11607Y500D01*
X11608Y504D01*
X11609Y509D01*
X11613Y518D01*
X11617Y528D01*
X11620Y533D01*
X11623Y537D01*
X11627Y541D01*
X11631Y545D01*
X11631Y545D01*
X11632Y545D01*
X11633Y546D01*
X11635Y548D01*
X11637Y549D01*
X11640Y550D01*
X11643Y552D01*
X11647Y553D01*
X11651Y555D01*
X11655Y557D01*
X11665Y560D01*
X11677Y562D01*
X11682Y562D01*
X11689Y562D01*
X11692D01*
X11695Y562D01*
D02*
G37*
G36*
X11297D02*
X11300Y562D01*
X11304Y561D01*
X11308Y560D01*
X11312Y560D01*
X11322Y557D01*
X11332Y553D01*
X11337Y551D01*
X11341Y549D01*
X11346Y545D01*
X11350Y542D01*
X11351Y541D01*
X11351Y541D01*
X11352Y539D01*
X11354Y538D01*
X11355Y536D01*
X11357Y533D01*
X11359Y531D01*
X11361Y528D01*
X11365Y520D01*
X11369Y512D01*
X11370Y507D01*
X11371Y502D01*
X11372Y496D01*
X11372Y491D01*
Y490D01*
Y488D01*
X11372Y484D01*
X11371Y480D01*
X11371Y475D01*
X11369Y469D01*
X11368Y464D01*
X11366Y458D01*
X11365Y457D01*
X11365Y455D01*
X11363Y452D01*
X11361Y448D01*
X11358Y443D01*
X11355Y437D01*
X11351Y431D01*
X11346Y425D01*
X11346Y425D01*
X11344Y423D01*
X11342Y420D01*
X11339Y417D01*
X11334Y412D01*
X11329Y406D01*
X11322Y400D01*
X11314Y392D01*
X11314Y392D01*
X11313Y391D01*
X11312Y390D01*
X11310Y389D01*
X11306Y385D01*
X11301Y381D01*
X11297Y376D01*
X11292Y371D01*
X11287Y367D01*
X11286Y365D01*
X11284Y364D01*
X11284Y363D01*
X11283Y363D01*
X11282Y361D01*
X11281Y359D01*
X11277Y355D01*
X11274Y350D01*
X11372D01*
Y305D01*
X11200D01*
Y305D01*
Y306D01*
X11200Y307D01*
X11201Y309D01*
X11201Y311D01*
X11201Y314D01*
X11203Y321D01*
X11205Y328D01*
X11208Y336D01*
X11212Y345D01*
X11217Y354D01*
Y354D01*
X11217Y355D01*
X11218Y356D01*
X11220Y358D01*
X11221Y360D01*
X11223Y363D01*
X11226Y366D01*
X11229Y370D01*
X11232Y374D01*
X11236Y379D01*
X11241Y384D01*
X11246Y390D01*
X11251Y395D01*
X11258Y401D01*
X11264Y408D01*
X11272Y415D01*
X11272Y415D01*
X11273Y417D01*
X11275Y418D01*
X11277Y420D01*
X11280Y422D01*
X11283Y425D01*
X11290Y432D01*
X11296Y439D01*
X11303Y446D01*
X11306Y449D01*
X11309Y452D01*
X11311Y455D01*
X11312Y457D01*
X11313Y458D01*
X11314Y460D01*
X11316Y463D01*
X11318Y467D01*
X11320Y471D01*
X11321Y476D01*
X11322Y482D01*
X11323Y487D01*
Y488D01*
Y488D01*
Y490D01*
X11322Y493D01*
X11322Y497D01*
X11321Y501D01*
X11319Y505D01*
X11317Y509D01*
X11314Y513D01*
X11314Y513D01*
X11312Y514D01*
X11310Y516D01*
X11308Y517D01*
X11304Y519D01*
X11300Y520D01*
X11295Y521D01*
X11290Y522D01*
X11287D01*
X11284Y521D01*
X11281Y521D01*
X11277Y519D01*
X11273Y518D01*
X11268Y515D01*
X11265Y512D01*
X11264Y512D01*
X11263Y511D01*
X11262Y508D01*
X11260Y505D01*
X11258Y501D01*
X11257Y495D01*
X11256Y489D01*
X11255Y482D01*
X11206Y486D01*
Y487D01*
X11206Y488D01*
Y490D01*
X11207Y493D01*
X11207Y496D01*
X11209Y500D01*
X11210Y504D01*
X11211Y509D01*
X11214Y518D01*
X11219Y528D01*
X11222Y533D01*
X11225Y537D01*
X11229Y541D01*
X11233Y545D01*
X11233Y545D01*
X11234Y545D01*
X11235Y546D01*
X11237Y548D01*
X11239Y549D01*
X11242Y550D01*
X11245Y552D01*
X11249Y553D01*
X11253Y555D01*
X11257Y557D01*
X11267Y560D01*
X11278Y562D01*
X11284Y562D01*
X11291Y562D01*
X11294D01*
X11297Y562D01*
D02*
G37*
G36*
X11495D02*
X11497Y562D01*
X11501Y561D01*
X11505Y560D01*
X11509Y559D01*
X11514Y558D01*
X11519Y556D01*
X11523Y554D01*
X11528Y551D01*
X11533Y548D01*
X11538Y545D01*
X11542Y540D01*
X11546Y536D01*
X11547Y535D01*
X11547Y534D01*
X11549Y532D01*
X11550Y530D01*
X11552Y526D01*
X11554Y522D01*
X11557Y517D01*
X11559Y511D01*
X11561Y504D01*
X11564Y496D01*
X11566Y488D01*
X11567Y478D01*
X11569Y468D01*
X11570Y457D01*
X11571Y444D01*
X11571Y431D01*
Y431D01*
Y430D01*
Y429D01*
Y428D01*
Y424D01*
X11571Y419D01*
X11571Y413D01*
X11570Y406D01*
X11569Y399D01*
X11569Y391D01*
X11567Y382D01*
X11565Y373D01*
X11563Y365D01*
X11561Y356D01*
X11558Y348D01*
X11554Y340D01*
X11551Y333D01*
X11546Y326D01*
X11546Y326D01*
X11545Y325D01*
X11544Y324D01*
X11543Y322D01*
X11540Y320D01*
X11538Y318D01*
X11534Y316D01*
X11531Y313D01*
X11527Y311D01*
X11523Y308D01*
X11518Y306D01*
X11513Y304D01*
X11507Y303D01*
X11501Y301D01*
X11495Y300D01*
X11488Y300D01*
X11487D01*
X11485Y300D01*
X11482D01*
X11479Y301D01*
X11475Y301D01*
X11471Y302D01*
X11467Y304D01*
X11462Y305D01*
X11457Y307D01*
X11452Y309D01*
X11447Y312D01*
X11442Y315D01*
X11437Y319D01*
X11432Y323D01*
X11428Y328D01*
X11428Y329D01*
X11427Y330D01*
X11426Y332D01*
X11425Y334D01*
X11423Y337D01*
X11421Y341D01*
X11419Y347D01*
X11417Y352D01*
X11415Y359D01*
X11412Y366D01*
X11411Y375D01*
X11409Y384D01*
X11408Y394D01*
X11406Y406D01*
X11406Y418D01*
X11405Y431D01*
Y432D01*
Y432D01*
Y433D01*
Y435D01*
Y438D01*
X11406Y443D01*
X11406Y449D01*
X11407Y456D01*
X11408Y464D01*
X11408Y472D01*
X11410Y480D01*
X11411Y489D01*
X11413Y498D01*
X11416Y506D01*
X11419Y514D01*
X11422Y522D01*
X11426Y529D01*
X11430Y536D01*
X11431Y536D01*
X11431Y537D01*
X11432Y538D01*
X11434Y540D01*
X11436Y542D01*
X11439Y544D01*
X11442Y546D01*
X11445Y549D01*
X11449Y552D01*
X11453Y554D01*
X11458Y556D01*
X11463Y558D01*
X11469Y560D01*
X11475Y561D01*
X11482Y562D01*
X11488Y562D01*
X11492D01*
X11495Y562D01*
D02*
G37*
%LPC*%
G36*
X9935Y1087D02*
X9821D01*
Y1086D01*
X9821Y1086D01*
X9818Y1082D01*
X9815Y1075D01*
X9810Y1068D01*
X9805Y1059D01*
X9799Y1049D01*
X9786Y1030D01*
X9935D01*
Y1087D01*
D02*
G37*
G36*
X11971Y1132D02*
X11914D01*
Y899D01*
X11918D01*
X11921Y898D01*
X11932D01*
X11938Y898D01*
X11953D01*
X11955Y898D01*
X11960Y899D01*
X11964Y900D01*
X11969Y903D01*
X11973Y907D01*
X11976Y911D01*
X11977Y918D01*
Y919D01*
Y920D01*
Y922D01*
X11977Y926D01*
X11976Y929D01*
X11975Y933D01*
X11973Y938D01*
X11971Y944D01*
X11969Y951D01*
X11966Y958D01*
X11962Y965D01*
X11958Y973D01*
X11952Y981D01*
X11946Y990D01*
X11939Y999D01*
X11931Y1008D01*
Y1008D01*
X11931Y1010D01*
X11932Y1014D01*
X11934Y1018D01*
X11936Y1023D01*
X11938Y1029D01*
X11940Y1037D01*
X11943Y1045D01*
X11946Y1054D01*
X11949Y1064D01*
X11952Y1073D01*
X11956Y1084D01*
X11963Y1108D01*
X11971Y1132D01*
D02*
G37*
G36*
X11710Y1124D02*
X11586D01*
Y1052D01*
X11710D01*
Y1124D01*
D02*
G37*
G36*
Y990D02*
X11586D01*
Y917D01*
X11710D01*
Y990D01*
D02*
G37*
G36*
Y855D02*
X11586D01*
Y780D01*
X11710D01*
Y855D01*
D02*
G37*
G36*
X11182Y879D02*
X11033D01*
Y794D01*
X11182D01*
Y879D01*
D02*
G37*
G36*
X10090Y867D02*
X9839D01*
Y795D01*
X10090D01*
Y867D01*
D02*
G37*
G36*
X12210Y435D02*
X12208D01*
X12205Y434D01*
X12202Y434D01*
X12198Y432D01*
X12194Y430D01*
X12190Y427D01*
X12186Y424D01*
X12186Y423D01*
X12185Y421D01*
X12183Y419D01*
X12182Y415D01*
X12180Y411D01*
X12178Y405D01*
X12177Y398D01*
X12177Y391D01*
Y390D01*
Y390D01*
Y388D01*
Y387D01*
X12178Y383D01*
X12178Y377D01*
X12179Y371D01*
X12181Y365D01*
X12184Y359D01*
X12188Y354D01*
X12188Y353D01*
X12189Y352D01*
X12192Y350D01*
X12195Y347D01*
X12199Y345D01*
X12203Y343D01*
X12208Y341D01*
X12213Y341D01*
X12215D01*
X12218Y341D01*
X12221Y342D01*
X12224Y343D01*
X12228Y345D01*
X12232Y348D01*
X12236Y351D01*
X12236Y351D01*
X12237Y353D01*
X12239Y356D01*
X12240Y360D01*
X12242Y364D01*
X12243Y370D01*
X12245Y378D01*
X12245Y386D01*
Y387D01*
Y387D01*
Y389D01*
Y390D01*
X12245Y395D01*
X12244Y400D01*
X12242Y406D01*
X12241Y412D01*
X12238Y418D01*
X12235Y423D01*
X12235Y424D01*
X12233Y425D01*
X12231Y427D01*
X12228Y429D01*
X12225Y431D01*
X12220Y433D01*
X12216Y435D01*
X12210Y435D01*
D02*
G37*
G36*
X11488Y522D02*
X11487D01*
X11485Y521D01*
X11483Y521D01*
X11480Y520D01*
X11478Y519D01*
X11475Y518D01*
X11472Y516D01*
X11472Y515D01*
X11471Y515D01*
X11470Y513D01*
X11469Y511D01*
X11467Y508D01*
X11465Y505D01*
X11463Y501D01*
X11462Y495D01*
Y495D01*
X11462Y495D01*
Y493D01*
X11461Y492D01*
X11461Y489D01*
X11460Y487D01*
X11460Y484D01*
X11460Y480D01*
X11459Y476D01*
X11459Y471D01*
X11458Y466D01*
X11458Y460D01*
X11458Y454D01*
Y447D01*
X11457Y439D01*
Y431D01*
Y431D01*
Y429D01*
Y427D01*
Y424D01*
Y420D01*
X11458Y416D01*
Y411D01*
X11458Y406D01*
X11458Y396D01*
X11459Y385D01*
X11459Y381D01*
X11460Y376D01*
X11461Y372D01*
X11462Y368D01*
X11462Y368D01*
X11462Y366D01*
X11463Y363D01*
X11465Y360D01*
X11466Y356D01*
X11468Y352D01*
X11470Y349D01*
X11473Y346D01*
X11473Y346D01*
X11474Y346D01*
X11475Y344D01*
X11477Y344D01*
X11479Y343D01*
X11482Y341D01*
X11485Y341D01*
X11488Y341D01*
X11490D01*
X11492Y341D01*
X11493Y341D01*
X11496Y342D01*
X11499Y343D01*
X11501Y344D01*
X11504Y346D01*
X11504Y347D01*
X11505Y347D01*
X11506Y349D01*
X11508Y351D01*
X11509Y354D01*
X11511Y357D01*
X11513Y361D01*
X11515Y367D01*
Y367D01*
X11515Y367D01*
Y369D01*
X11515Y370D01*
X11516Y373D01*
X11516Y375D01*
X11517Y378D01*
X11517Y382D01*
X11517Y386D01*
X11518Y391D01*
X11519Y396D01*
X11519Y402D01*
X11519Y408D01*
Y415D01*
X11520Y423D01*
Y431D01*
Y431D01*
Y433D01*
Y435D01*
Y438D01*
Y442D01*
X11519Y446D01*
Y451D01*
X11519Y456D01*
X11519Y466D01*
X11518Y476D01*
X11517Y481D01*
X11516Y486D01*
X11516Y490D01*
X11515Y493D01*
Y494D01*
X11515Y494D01*
X11514Y496D01*
X11513Y499D01*
X11512Y502D01*
X11510Y506D01*
X11508Y510D01*
X11506Y513D01*
X11504Y516D01*
X11503Y516D01*
X11503Y517D01*
X11501Y518D01*
X11499Y519D01*
X11497Y520D01*
X11495Y521D01*
X11492Y521D01*
X11488Y522D01*
D02*
G37*
%LPD*%
D17*
X16000Y24850D02*
X18200Y22650D01*
X15975Y24875D02*
X16000Y24850D01*
X7600Y23930D02*
X8910Y25240D01*
X17500Y13140D02*
X17700Y12940D01*
X17500Y13140D02*
Y14200D01*
X8750Y5800D02*
X8900Y5950D01*
X9100D01*
X8750Y3700D02*
X9500Y2950D01*
X8750Y3700D02*
Y5800D01*
X7040Y11797D02*
Y12330D01*
X27600Y6770D02*
Y8550D01*
X27300Y8850D02*
X27600Y8550D01*
X9700Y9060D02*
X10220Y8540D01*
X9700Y22150D02*
X10200Y22650D01*
X9700Y9060D02*
Y22150D01*
X9500Y8650D02*
X10040Y8110D01*
X9500Y22750D02*
X9920Y23170D01*
X9500Y8650D02*
Y22750D01*
X10040Y6597D02*
Y8110D01*
X9350Y7405D02*
X9505Y7250D01*
X8970Y10840D02*
X9350Y10460D01*
Y7405D02*
Y10460D01*
X8932Y8450D02*
X9050D01*
X8582Y8100D02*
X8932Y8450D01*
X7675Y8100D02*
X8582D01*
X27600Y6770D02*
X27820Y6550D01*
X25900Y8300D02*
X26850D01*
X27050Y8500D01*
X7087Y11750D02*
X7090D01*
X7040Y11797D02*
X7087Y11750D01*
X7090D02*
X8000Y10840D01*
X12500Y6600D02*
Y10910D01*
X12350Y6450D02*
X12500Y6600D01*
X11260Y12150D02*
X12500Y10910D01*
X12970Y11250D02*
X13350Y10870D01*
Y10300D02*
Y10870D01*
X12750Y7537D02*
X12797Y7490D01*
X11200Y12650D02*
X12703D01*
X12750Y7537D02*
Y12603D01*
X12703Y12650D02*
X12750Y12603D01*
X12797Y7490D02*
X14047D01*
X13850Y8350D02*
Y9800D01*
X13350Y10300D02*
X13850Y9800D01*
Y8350D02*
X14300Y7900D01*
X15390D02*
X15960Y7330D01*
X14300Y7900D02*
X15390D01*
X15150Y22700D02*
X16890D01*
X17340Y23150D01*
X17350Y15941D02*
Y20450D01*
Y15941D02*
X18061Y15230D01*
X18270D01*
X17750Y20350D02*
Y20800D01*
X17700Y20850D02*
X17750Y20800D01*
X16650D02*
X16700Y20850D01*
X17700D01*
X16650Y20651D02*
X17110Y20191D01*
X16650Y20651D02*
Y20800D01*
X17110Y15750D02*
Y20191D01*
Y15750D02*
X17760Y15100D01*
X22650Y12084D02*
X23400Y11334D01*
X22650Y12084D02*
Y14888D01*
X22700Y16530D02*
X24470Y18300D01*
X22650Y14888D02*
X22700Y14939D01*
Y16530D01*
X13300Y2500D02*
Y6350D01*
Y2500D02*
X13825Y1975D01*
Y1733D02*
Y1975D01*
X13540Y12970D02*
X14120Y12390D01*
Y10170D02*
Y12390D01*
Y10170D02*
X14600Y9690D01*
X25650Y23940D02*
X26640Y22950D01*
X28753D01*
X28800Y22903D01*
Y21397D02*
Y22903D01*
X27080Y19677D02*
X28800Y21397D01*
X27080Y16336D02*
Y19677D01*
X25510Y23740D02*
X26500Y22750D01*
Y20900D02*
X26810Y20590D01*
X26500Y20900D02*
Y22750D01*
X27080Y16336D02*
X27776Y15640D01*
X27690Y10830D02*
X27870Y10650D01*
X29403D01*
X29450Y10697D01*
Y13103D01*
X29497Y13150D02*
X30375D01*
X29450Y13103D02*
X29497Y13150D01*
X30807Y10257D02*
Y10393D01*
X30800Y10250D02*
X30807Y10257D01*
X30649Y10551D02*
Y10989D01*
Y10551D02*
X30807Y10393D01*
X30375Y11150D02*
X30488D01*
X30649Y10989D01*
X25920Y4710D02*
X26190D01*
X26750Y4150D01*
X26810Y15960D02*
Y20590D01*
X27840Y13150D02*
Y14930D01*
X23003Y7903D02*
X23400Y8300D01*
Y11334D01*
X22150Y7903D02*
X23003D01*
X22150Y7899D02*
Y7903D01*
X21741Y7489D02*
X22150Y7899D01*
X21741Y5600D02*
Y7489D01*
X19595Y15045D02*
Y16095D01*
X21550Y18050D02*
Y24150D01*
X19595Y16095D02*
X21550Y18050D01*
X17700Y6710D02*
X18690Y5720D01*
X17700Y6710D02*
Y12940D01*
X16970Y13470D02*
X17400Y13040D01*
X16970Y13470D02*
Y18340D01*
X17400Y6350D02*
X18137Y5613D01*
X17400Y6350D02*
Y13040D01*
X16240Y5180D02*
X17200Y6140D01*
X14720Y15330D02*
X17200Y12850D01*
Y6140D02*
Y12850D01*
X14720Y15330D02*
Y15670D01*
X8580Y7100D02*
X9130Y6550D01*
X9993D01*
X10040Y6597D01*
X10700Y12550D02*
X11100Y12150D01*
X10700Y13750D02*
X11200Y14250D01*
X10700Y12550D02*
Y13750D01*
X11100Y12150D02*
X11260D01*
X11200Y6450D02*
X12350D01*
X14600Y8150D02*
Y9690D01*
X13883Y6933D02*
X14233D01*
X14350Y7050D01*
X13300Y6350D02*
X13883Y6933D01*
X13825Y1733D02*
X15400D01*
X3920Y12680D02*
X4720Y11880D01*
X3920Y12680D02*
Y17850D01*
X4050Y10100D02*
X4400Y9750D01*
X1420Y4150D02*
Y5630D01*
X980Y9660D02*
Y10100D01*
X1420Y4150D02*
X1425D01*
X960D02*
X1420D01*
X28900Y17850D02*
Y18350D01*
X5730Y13250D02*
X6120D01*
X5730D02*
Y15050D01*
X17888Y3983D02*
X18187D01*
X16613D02*
X17888D01*
X15040Y6083D02*
X15400D01*
X13825D02*
X15040D01*
X29710Y6550D02*
X30375D01*
X29360Y6900D02*
X29710Y6550D01*
X29360Y6900D02*
Y9140D01*
X29040Y9460D02*
X29360Y9140D01*
X25790Y9460D02*
X29040D01*
X25470Y9780D02*
X25790Y9460D01*
X25470Y9780D02*
Y22510D01*
X23550Y24430D02*
X25470Y22510D01*
X23550Y24430D02*
Y24820D01*
X23220Y25150D02*
X23550Y24820D01*
X20080Y25150D02*
X23220D01*
X19750Y24820D02*
X20080Y25150D01*
X19750Y22580D02*
Y24820D01*
X19285Y22115D02*
X19750Y22580D01*
X18665Y22115D02*
X19285D01*
X18200Y21650D02*
X18665Y22115D01*
X4930Y8100D02*
X5825D01*
X4720Y8310D02*
X4930Y8100D01*
X4720Y8310D02*
Y11880D01*
X11200Y14250D02*
X11740D01*
X12190Y14700D01*
Y21610D01*
X13390Y22810D01*
X1550Y16150D02*
X1945Y15755D01*
Y14935D02*
Y15755D01*
X1560Y14550D02*
X1945Y14935D01*
X1280Y14550D02*
X1560D01*
X1150Y14420D02*
X1280Y14550D01*
X1150Y11440D02*
Y14420D01*
Y11440D02*
X2180Y10410D01*
Y9200D02*
Y10410D01*
X2080Y9100D02*
X2180Y9200D01*
X1425Y9100D02*
X2080D01*
X18200Y13650D02*
X18700Y14150D01*
X19330D01*
X19918Y14738D01*
Y15462D01*
X22590Y18133D01*
Y24190D01*
X23050Y24650D01*
X21550Y24150D02*
X22050Y24650D01*
X19200Y14650D02*
X19595Y15045D01*
X980Y10100D02*
X1425D01*
X670Y9350D02*
X980Y9660D01*
X670Y4440D02*
Y9350D01*
Y4440D02*
X960Y4150D01*
X28525Y18350D02*
X28900D01*
X29450D02*
X30375D01*
X3600Y21900D02*
X4000Y22300D01*
X3600Y19460D02*
Y21900D01*
Y19460D02*
X4370Y18690D01*
Y14634D02*
Y18690D01*
X6120Y13250D02*
X7040Y12330D01*
X17360Y1800D02*
X18240D01*
X18690Y2250D01*
Y5720D01*
X12490Y17850D02*
X13540Y16800D01*
Y12970D02*
Y16800D01*
X24570Y23870D02*
Y24820D01*
X24800Y25050D01*
X25280D01*
X25510Y24820D01*
Y23740D02*
Y24820D01*
X26810Y15960D02*
X27840Y14930D01*
Y13150D02*
X28525D01*
X1550Y14150D02*
X2090Y14690D01*
Y22180D01*
X3840Y23930D01*
X7600D01*
X18137Y5200D02*
Y5613D01*
X15000Y20310D02*
X16970Y18340D01*
X15000Y20310D02*
Y21550D01*
X13520Y23030D02*
X15000Y21550D01*
X12110Y23030D02*
X13520D01*
X11660Y22580D02*
X12110Y23030D01*
X11660Y17110D02*
Y22580D01*
X11200Y16650D02*
X11660Y17110D01*
X24050Y18260D02*
Y22300D01*
X22350Y16560D02*
X24050Y18260D01*
X22350Y12580D02*
Y16560D01*
X19650Y9880D02*
X22350Y12580D01*
X19650Y9030D02*
Y9880D01*
X16240Y4340D02*
Y5180D01*
X15883Y3983D02*
X16240Y4340D01*
X15400Y3983D02*
X15883D01*
X4400Y4870D02*
Y9750D01*
X3680Y4150D02*
X4400Y4870D01*
X3275Y4150D02*
X3680D01*
X17360Y650D02*
Y1410D01*
X25900Y11150D02*
X28525D01*
X25650Y11400D02*
X25900Y11150D01*
X25650Y11400D02*
Y23330D01*
X24815Y24165D02*
X25650Y23330D01*
X19650Y2250D02*
Y4030D01*
X18900Y4780D02*
X19650Y4030D01*
X18900Y4780D02*
Y6700D01*
X18595Y7005D02*
X18900Y6700D01*
X18595Y7005D02*
Y12925D01*
X18460Y13060D02*
X18595Y12925D01*
X17930Y13060D02*
X18460D01*
X17665Y13325D02*
X17930Y13060D01*
X17665Y13325D02*
Y13905D01*
X17760Y14001D01*
Y15100D01*
X23050Y18290D02*
Y22300D01*
X21898Y17138D02*
X23050Y18290D01*
X21898Y12348D02*
Y17138D01*
X19200Y9650D02*
X21898Y12348D01*
X25650Y23940D02*
Y25170D01*
X25480Y25340D02*
X25650Y25170D01*
X19900Y25340D02*
X25480D01*
X19600Y25040D02*
X19900Y25340D01*
X19600Y23490D02*
Y25040D01*
X19360Y23250D02*
X19600Y23490D01*
X19150Y23250D02*
X19360D01*
X18800Y22900D02*
X19150Y23250D01*
X18800Y22455D02*
Y22900D01*
X18600Y22255D02*
X18800Y22455D01*
X17055Y22255D02*
X18600D01*
X16247Y21447D02*
X17055Y22255D01*
X19650Y1250D02*
X20390Y1990D01*
Y6390D01*
X18735Y8045D02*
X20390Y6390D01*
X18735Y8045D02*
Y13238D01*
X18723Y13250D02*
X18735Y13238D01*
X17950Y13250D02*
X18723D01*
X17805Y13395D02*
X17950Y13250D01*
X17805Y13395D02*
Y13847D01*
X18108Y14150D01*
X18380D01*
X18600Y14370D01*
Y14900D01*
X18270Y15230D02*
X18600Y14900D01*
X27820Y6550D02*
X28525D01*
X3275Y10100D02*
X4050D01*
X18670Y21120D02*
X19200Y21650D01*
X15800Y21120D02*
X18670D01*
X13750Y23170D02*
X15800Y21120D01*
X9920Y23170D02*
X13750D01*
X7675Y7100D02*
X8580D01*
X6310Y17270D02*
Y19170D01*
X6080Y17040D02*
X6310Y17270D01*
X6080Y15400D02*
Y17040D01*
X5730Y15050D02*
X6080Y15400D01*
X5519Y13250D02*
X5730D01*
X10200Y12650D02*
X10665Y12185D01*
Y6594D02*
Y12185D01*
Y6594D02*
X11733Y5526D01*
Y5300D02*
Y5526D01*
X9500Y1950D02*
X10220Y2670D01*
Y8540D01*
X20130Y23730D02*
X21050Y24650D01*
X20130Y17760D02*
Y23730D01*
X19520Y17150D02*
X20130Y17760D01*
X18700Y17150D02*
X19520D01*
X18200Y16650D02*
X18700Y17150D01*
X17531Y4340D02*
Y5200D01*
Y4340D02*
X17888Y3983D01*
X14653Y6470D02*
Y7490D01*
Y6470D02*
X15040Y6083D01*
X8000Y10840D02*
X8970D01*
X530Y14130D02*
X1550Y15150D01*
X530Y3380D02*
Y14130D01*
Y3380D02*
X760Y3150D01*
X1425D01*
X13825Y3983D02*
X15400D01*
X11063Y3983D02*
X12637D01*
X11127Y4664D02*
Y5300D01*
X11063Y4600D02*
X11127Y4664D01*
X11063Y3983D02*
Y4600D01*
D22*
X17531Y5200D02*
D03*
X18137D02*
D03*
X14653Y7490D02*
D03*
X14047D02*
D03*
X11127Y5300D02*
D03*
X11733D02*
D03*
D23*
X16613Y3117D02*
D03*
X18187D02*
D03*
Y3983D02*
D03*
X16613D02*
D03*
X13825Y5217D02*
D03*
X15400D02*
D03*
Y6083D02*
D03*
X13825D02*
D03*
X11063Y3117D02*
D03*
X12637D02*
D03*
Y3983D02*
D03*
X11063D02*
D03*
X13825Y3983D02*
D03*
X15400D02*
D03*
Y3117D02*
D03*
X13825D02*
D03*
Y1733D02*
D03*
X15400D02*
D03*
Y867D02*
D03*
X13825D02*
D03*
D24*
X7675Y7100D02*
D03*
X5825D02*
D03*
X7675Y8100D02*
D03*
X5825D02*
D03*
X7675Y9100D02*
D03*
X5825D02*
D03*
X7675Y10100D02*
D03*
X5825D02*
D03*
X1425Y4150D02*
D03*
X3275D02*
D03*
X1425Y3150D02*
D03*
X3275D02*
D03*
X1425Y2150D02*
D03*
X3275D02*
D03*
X1425Y1150D02*
D03*
X3275D02*
D03*
X1425Y10100D02*
D03*
X3275D02*
D03*
X1425Y9100D02*
D03*
X3275D02*
D03*
X1425Y8100D02*
D03*
X3275D02*
D03*
X1425Y7100D02*
D03*
X3275D02*
D03*
X30375Y11150D02*
D03*
X28525D02*
D03*
X30375Y12150D02*
D03*
X28525D02*
D03*
X30375Y13150D02*
D03*
X28525D02*
D03*
Y19350D02*
D03*
X30375D02*
D03*
X28525Y18350D02*
D03*
X30375D02*
D03*
X28525Y17350D02*
D03*
X30375D02*
D03*
X28525Y7550D02*
D03*
X30375D02*
D03*
X28525Y6550D02*
D03*
X30375D02*
D03*
X28525Y5550D02*
D03*
X30375D02*
D03*
D25*
X23281Y14650D02*
D03*
X20919D02*
D03*
X26781Y10000D02*
D03*
X24419D02*
D03*
X5519Y13250D02*
D03*
X7881D02*
D03*
X5669Y17500D02*
D03*
X8031D02*
D03*
D26*
X11395Y7250D02*
D03*
X9505D02*
D03*
D27*
X17360Y1800D02*
D03*
X16770D02*
D03*
X17360Y650D02*
D03*
X16770D02*
D03*
D46*
X30400Y11800D02*
Y12125D01*
X30375Y12150D02*
X30400Y12125D01*
X7675Y10100D02*
X8550D01*
X7675Y10100D02*
X7675Y10100D01*
X16770Y650D02*
Y1225D01*
X24960Y10000D02*
Y10350D01*
X15163Y4980D02*
X15400Y5217D01*
X13825D02*
X14062Y4980D01*
X11087Y3117D02*
X11100D01*
X4970Y8980D02*
X5090Y9100D01*
X4970Y8980D02*
Y9000D01*
X5090Y9100D02*
X5825D01*
X1425Y7100D02*
X3275D01*
X14062Y4980D02*
X14720D01*
X8800Y13250D02*
X9200Y12850D01*
X7881Y13250D02*
X8800D01*
X14720Y4980D02*
X15163D01*
X24419Y10000D02*
X24960D01*
X30080Y17350D02*
X30375D01*
X26884Y12150D02*
X28525D01*
X9800Y25350D02*
X10450Y26000D01*
X11300D01*
X25800Y10000D02*
X26781D01*
X27400Y5550D02*
X28525D01*
X2350Y1150D02*
X3275D01*
X1425D02*
X2350D01*
X3275Y7100D02*
X3275Y7100D01*
X4150D01*
X4650Y17500D02*
X5669D01*
D47*
X12637Y3117D02*
X12650Y3104D01*
Y2800D02*
Y3104D01*
X6850Y17600D02*
X7831D01*
X7981Y17450D01*
X8031Y17500D01*
X13800Y3104D02*
X13813Y3117D01*
X15400Y2800D02*
Y3117D01*
X2826Y9100D02*
X3275D01*
X1949Y8223D02*
X2826Y9100D01*
X2312Y2589D02*
X2751Y3027D01*
X16770Y1225D02*
Y1800D01*
X6750Y9100D02*
X7675D01*
X5825D02*
X6750D01*
X1874Y2150D02*
X2312Y2589D01*
X13813Y5217D02*
X13825D01*
X13800Y5204D02*
X13813Y5217D01*
X13800Y4900D02*
Y5204D01*
X15400Y4900D02*
Y5217D01*
X18187Y3117D02*
X18200Y3104D01*
Y2750D02*
Y3104D01*
X16650Y2750D02*
Y3104D01*
X16613Y3117D02*
X16637D01*
X16650Y3104D01*
X13813Y3117D02*
X13825D01*
X13800Y2850D02*
Y3104D01*
X11063Y3117D02*
X11087D01*
X11100Y3104D01*
Y2850D02*
Y3104D01*
X15400Y867D02*
X15498D01*
X13825D02*
X15400D01*
X30375Y5550D02*
X30824D01*
X31200Y5926D01*
Y6050D01*
X1949Y8176D02*
Y8223D01*
X1874Y8100D02*
X1949Y8176D01*
X1425Y8100D02*
X1874D01*
X1425Y2150D02*
X1874D01*
X2751Y3027D02*
Y3074D01*
X2826Y3150D01*
X3275D01*
X1425Y8100D02*
X1450Y8075D01*
Y7650D02*
Y8075D01*
X24419Y10000D02*
X24450Y9969D01*
Y9550D02*
Y9969D01*
X23281Y13969D02*
Y14650D01*
Y13969D02*
X23300Y13950D01*
X30375Y17350D02*
X30400Y17325D01*
Y16900D02*
Y17325D01*
X27550Y17350D02*
X28525D01*
D48*
X11395Y7250D02*
Y7272D01*
X11428Y7306D01*
X11956D01*
X12000Y7350D01*
D49*
X2550Y13150D02*
D03*
X26300Y12650D02*
D03*
X7100Y20700D02*
D03*
X9500Y4950D02*
D03*
X1550Y20350D02*
D03*
X4000Y20300D02*
D03*
D50*
X1550Y13150D02*
D03*
X2550Y14150D02*
D03*
X1550D02*
D03*
X2550Y15150D02*
D03*
X1550D02*
D03*
X2550Y16150D02*
D03*
X1550D02*
D03*
X2550Y17150D02*
D03*
X1550D02*
D03*
X22050Y22300D02*
D03*
X23050D02*
D03*
X24050D02*
D03*
X25050D02*
D03*
X26050D02*
D03*
X27050D02*
D03*
X28050D02*
D03*
X21050Y24650D02*
D03*
X22050D02*
D03*
X23050D02*
D03*
X24050D02*
D03*
X25050D02*
D03*
X26050D02*
D03*
X27050D02*
D03*
X14600Y18981D02*
D03*
Y20950D02*
D03*
X26300Y13650D02*
D03*
Y14650D02*
D03*
Y15650D02*
D03*
Y16650D02*
D03*
Y17650D02*
D03*
X7100Y21700D02*
D03*
Y22700D02*
D03*
X9500Y1950D02*
D03*
Y2950D02*
D03*
Y3950D02*
D03*
X19200Y20650D02*
D03*
X18200D02*
D03*
X19200Y19650D02*
D03*
X18200D02*
D03*
X19200Y18650D02*
D03*
X18200D02*
D03*
X19200Y17650D02*
D03*
X18200D02*
D03*
X19200Y24650D02*
D03*
X18200D02*
D03*
X19200Y23650D02*
D03*
X18200D02*
D03*
X19200Y22650D02*
D03*
X18200D02*
D03*
X19200Y21650D02*
D03*
X18200D02*
D03*
X10200Y24650D02*
D03*
X11200D02*
D03*
X10200Y23650D02*
D03*
X11200D02*
D03*
X10200Y22650D02*
D03*
X11200D02*
D03*
X10200Y21650D02*
D03*
X11200D02*
D03*
X10200Y20650D02*
D03*
X11200D02*
D03*
X10200Y19650D02*
D03*
X11200D02*
D03*
X10200Y18650D02*
D03*
X11200D02*
D03*
X10200Y17650D02*
D03*
X11200D02*
D03*
X10200Y16650D02*
D03*
X11200D02*
D03*
X10200Y15650D02*
D03*
X11200D02*
D03*
X10200Y14650D02*
D03*
X11200D02*
D03*
X10200Y13650D02*
D03*
X11200D02*
D03*
X10200Y12650D02*
D03*
X11200D02*
D03*
X10200Y11650D02*
D03*
X11200D02*
D03*
X10200Y10650D02*
D03*
X11200D02*
D03*
X10200Y9650D02*
D03*
X11200D02*
D03*
X18200Y13650D02*
D03*
X19200D02*
D03*
X18200Y14650D02*
D03*
X19200D02*
D03*
X18200Y15650D02*
D03*
X19200D02*
D03*
X18200Y16650D02*
D03*
X19200D02*
D03*
X18200Y9650D02*
D03*
X19200D02*
D03*
X18200Y10650D02*
D03*
X19200D02*
D03*
X18200Y11650D02*
D03*
X19200D02*
D03*
X18200Y12650D02*
D03*
X19200D02*
D03*
X2550Y25150D02*
D03*
X1550D02*
D03*
Y23350D02*
D03*
Y22350D02*
D03*
Y21350D02*
D03*
X4000Y23300D02*
D03*
Y22300D02*
D03*
Y21300D02*
D03*
D51*
X21050Y22300D02*
D03*
X28050Y24650D02*
D03*
X3550Y25150D02*
D03*
D52*
X7058Y25761D02*
D03*
X7272Y25297D02*
D03*
X7172Y24795D02*
D03*
X6796Y24448D02*
D03*
X6288Y24388D02*
D03*
X5842Y24639D02*
D03*
X5628Y25103D02*
D03*
X5728Y25605D02*
D03*
X6104Y25952D02*
D03*
X6612Y26012D02*
D03*
X30658Y25761D02*
D03*
X30872Y25297D02*
D03*
X30772Y24795D02*
D03*
X30396Y24448D02*
D03*
X29888Y24388D02*
D03*
X29442Y24639D02*
D03*
X29228Y25103D02*
D03*
X29328Y25605D02*
D03*
X29704Y25952D02*
D03*
X30212Y26012D02*
D03*
X7008Y2109D02*
D03*
X7222Y1645D02*
D03*
X7122Y1143D02*
D03*
X6746Y796D02*
D03*
X6238Y736D02*
D03*
X5792Y987D02*
D03*
X5578Y1451D02*
D03*
X5678Y1953D02*
D03*
X6054Y2300D02*
D03*
X6562Y2360D02*
D03*
X30608Y2109D02*
D03*
X30822Y1645D02*
D03*
X30722Y1143D02*
D03*
X30346Y796D02*
D03*
X29838Y736D02*
D03*
X29392Y987D02*
D03*
X29178Y1451D02*
D03*
X29278Y1953D02*
D03*
X29654Y2300D02*
D03*
X30162Y2360D02*
D03*
D53*
X6450Y25200D02*
D03*
X30050D02*
D03*
X6400Y1548D02*
D03*
X30000D02*
D03*
D54*
X7600Y4300D02*
D03*
X5513D02*
D03*
D55*
X27200Y1700D02*
D03*
X25200D02*
D03*
D56*
X19851Y5600D02*
D03*
X21741D02*
D03*
X23630D02*
D03*
D57*
X22150Y10750D02*
D03*
Y9750D02*
D03*
D58*
Y8750D02*
D03*
D59*
X22650Y1250D02*
D03*
Y2250D02*
D03*
X19650Y1250D02*
D03*
D60*
Y2250D02*
D03*
D61*
X8900Y25250D02*
D03*
X16000Y24850D02*
D03*
X17500Y14200D02*
D03*
X9100Y5950D02*
D03*
X15450Y12750D02*
D03*
X7040Y12330D02*
D03*
X27300Y8850D02*
D03*
X9050Y8450D02*
D03*
X27050Y8500D02*
D03*
X25900Y8300D02*
D03*
X25200Y6750D02*
D03*
Y7050D02*
D03*
X12350Y12870D02*
D03*
X12970Y11250D02*
D03*
X16247Y17035D02*
D03*
X17340Y23150D02*
D03*
X15150Y22700D02*
D03*
X17350Y20450D02*
D03*
X17750Y20350D02*
D03*
X16180Y10200D02*
D03*
X30400Y11800D02*
D03*
X30804Y10254D02*
D03*
X27400Y5550D02*
D03*
X26750Y4150D02*
D03*
X23300Y12850D02*
D03*
X23030Y10810D02*
D03*
X16950Y10250D02*
D03*
X8550Y10100D02*
D03*
X11200Y6450D02*
D03*
X10750Y6050D02*
D03*
X14600Y8150D02*
D03*
X14350Y7050D02*
D03*
X12650Y2800D02*
D03*
X6850Y17600D02*
D03*
X5550Y21200D02*
D03*
X3920Y17850D02*
D03*
X4415Y8085D02*
D03*
X13800Y2850D02*
D03*
X14613Y867D02*
D03*
X13390Y22810D02*
D03*
X28900Y17850D02*
D03*
X29450Y18350D02*
D03*
X19200Y10150D02*
D03*
X4370Y14634D02*
D03*
X13820Y18310D02*
D03*
X8130Y20730D02*
D03*
X15700Y18580D02*
D03*
X15960Y7330D02*
D03*
X24420Y6450D02*
D03*
X12490Y17850D02*
D03*
X24570Y23870D02*
D03*
X10700Y14710D02*
D03*
X25920Y4710D02*
D03*
X9280Y23990D02*
D03*
X10800Y25050D02*
D03*
X19650Y9030D02*
D03*
X14720Y15670D02*
D03*
X24470Y18300D02*
D03*
X17360Y1410D02*
D03*
X24815Y24165D02*
D03*
X12953Y12934D02*
D03*
X27690Y10830D02*
D03*
X27776Y15640D02*
D03*
X16247Y21447D02*
D03*
X12790Y16460D02*
D03*
X6320Y20690D02*
D03*
X20880Y21550D02*
D03*
X1420Y5630D02*
D03*
X6310Y19170D02*
D03*
X4970Y9000D02*
D03*
X14720Y4980D02*
D03*
X9200Y12850D02*
D03*
X24960Y10350D02*
D03*
X15290Y23760D02*
D03*
X14720Y25460D02*
D03*
X29280Y9750D02*
D03*
X26884Y12150D02*
D03*
X11300Y26000D02*
D03*
X9800Y25350D02*
D03*
X16770Y1225D02*
D03*
X23244Y16294D02*
D03*
X22100Y11800D02*
D03*
X25800Y10000D02*
D03*
X27450Y4350D02*
D03*
X18700Y950D02*
D03*
X12347Y25047D02*
D03*
X12150Y23500D02*
D03*
X8950Y22950D02*
D03*
Y21050D02*
D03*
X2312Y2589D02*
D03*
X2350Y1150D02*
D03*
X4150Y7100D02*
D03*
X7850Y19550D02*
D03*
X4650Y17500D02*
D03*
X18200Y2750D02*
D03*
X16650D02*
D03*
X15400Y2800D02*
D03*
X11100Y2850D02*
D03*
X15400Y4900D02*
D03*
X13800D02*
D03*
X31200Y6050D02*
D03*
X15450Y13550D02*
D03*
X14800Y16650D02*
D03*
X12950Y16750D02*
D03*
X13400Y24550D02*
D03*
X15850Y22050D02*
D03*
X7800Y15500D02*
D03*
X7100D02*
D03*
X6400D02*
D03*
X5700Y15550D02*
D03*
X8200Y15050D02*
D03*
X7400D02*
D03*
X6800D02*
D03*
X6050D02*
D03*
X5400D02*
D03*
X2300Y8600D02*
D03*
X6750Y9100D02*
D03*
X1450Y7650D02*
D03*
X31150Y7000D02*
D03*
X25550Y5625D02*
D03*
X24450Y9550D02*
D03*
X23300Y13950D02*
D03*
X28527Y15623D02*
D03*
X30400Y16900D02*
D03*
X14400Y14750D02*
D03*
X13900D02*
D03*
X14900Y9050D02*
D03*
X12000Y7350D02*
D03*
X20450Y14600D02*
D03*
X20650Y15300D02*
D03*
X20300Y15100D02*
D03*
X27550Y17350D02*
D03*
M02*
