G04*
G04 #@! TF.GenerationSoftware,Altium Limited,Altium Designer,20.0.13 (296)*
G04*
G04 Layer_Physical_Order=2*
G04 Layer_Color=32768*
%FSLAX24Y24*%
%MOIN*%
G70*
G01*
G75*
%ADD62C,0.0400*%
%ADD63C,0.0400*%
%ADD64C,0.0514*%
%ADD65C,0.0380*%
%ADD66C,0.1360*%
%ADD67C,0.1184*%
%ADD68C,0.0632*%
%ADD69O,0.0632X0.1144*%
%ADD70C,0.0514*%
%ADD71C,0.0280*%
D62*
X-50Y0D02*
X5650D01*
X26200D01*
X31650D01*
Y26550D01*
Y26650D01*
X-50D02*
X31650D01*
X-50Y3150D02*
Y26650D01*
Y0D02*
Y3150D01*
D63*
X5650Y0D02*
D03*
D64*
X2550Y13150D02*
D03*
X1550D02*
D03*
X2550Y14150D02*
D03*
X1550D02*
D03*
Y15150D02*
D03*
Y16150D02*
D03*
X2550Y17150D02*
D03*
X1550D02*
D03*
X21050Y22300D02*
D03*
X23050D02*
D03*
X24050D02*
D03*
X25050D02*
D03*
X26050D02*
D03*
X27050D02*
D03*
X28050D02*
D03*
X21050Y24650D02*
D03*
X22050D02*
D03*
X23050D02*
D03*
X24050D02*
D03*
X25050D02*
D03*
X26050D02*
D03*
X27050D02*
D03*
X14600Y18981D02*
D03*
Y20950D02*
D03*
X26300Y12650D02*
D03*
Y14650D02*
D03*
Y15650D02*
D03*
Y16650D02*
D03*
Y17650D02*
D03*
X22150Y10750D02*
D03*
Y9750D02*
D03*
Y8750D02*
D03*
X7100Y20700D02*
D03*
Y21700D02*
D03*
X9500Y1950D02*
D03*
Y2950D02*
D03*
Y4950D02*
D03*
X19200Y20650D02*
D03*
X18200D02*
D03*
X19200Y19650D02*
D03*
X18200D02*
D03*
X19200Y18650D02*
D03*
X18200D02*
D03*
X19200Y17650D02*
D03*
X18200D02*
D03*
X19200Y24650D02*
D03*
X18200D02*
D03*
X19200Y23650D02*
D03*
X18200D02*
D03*
X19200Y22650D02*
D03*
X18200D02*
D03*
X19200Y21650D02*
D03*
X18200D02*
D03*
X11200Y24650D02*
D03*
Y23650D02*
D03*
X10200Y22650D02*
D03*
X11200D02*
D03*
X10200Y21650D02*
D03*
X11200D02*
D03*
X10200Y20650D02*
D03*
X11200D02*
D03*
X10200Y19650D02*
D03*
X11200D02*
D03*
X10200Y18650D02*
D03*
X11200D02*
D03*
X10200Y17650D02*
D03*
X11200D02*
D03*
X10200Y16650D02*
D03*
X11200D02*
D03*
X10200Y15650D02*
D03*
X11200D02*
D03*
X10200Y14650D02*
D03*
X11200D02*
D03*
X10200Y13650D02*
D03*
X11200D02*
D03*
X10200Y12650D02*
D03*
X11200D02*
D03*
X10200Y11650D02*
D03*
X11200D02*
D03*
X10200Y10650D02*
D03*
X11200D02*
D03*
X10200Y9650D02*
D03*
X11200D02*
D03*
X18200Y13650D02*
D03*
X19200D02*
D03*
X18200Y14650D02*
D03*
X19200D02*
D03*
X18200Y15650D02*
D03*
X19200D02*
D03*
X18200Y16650D02*
D03*
X19200D02*
D03*
X18200Y9650D02*
D03*
X19200D02*
D03*
X18200Y10650D02*
D03*
X19200D02*
D03*
X18200Y11650D02*
D03*
X19200D02*
D03*
X18200Y12650D02*
D03*
X19200D02*
D03*
X2550Y25150D02*
D03*
X1550D02*
D03*
Y23350D02*
D03*
Y22350D02*
D03*
Y20350D02*
D03*
X4000Y23300D02*
D03*
Y22300D02*
D03*
Y20300D02*
D03*
D65*
X7058Y25761D02*
D03*
X7272Y25297D02*
D03*
X7172Y24795D02*
D03*
X6796Y24448D02*
D03*
X6288Y24388D02*
D03*
X5842Y24639D02*
D03*
X5628Y25103D02*
D03*
X5728Y25605D02*
D03*
X6104Y25952D02*
D03*
X6612Y26012D02*
D03*
X30658Y25761D02*
D03*
X30872Y25297D02*
D03*
X30772Y24795D02*
D03*
X30396Y24448D02*
D03*
X29888Y24388D02*
D03*
X29442Y24639D02*
D03*
X29228Y25103D02*
D03*
X29328Y25605D02*
D03*
X29704Y25952D02*
D03*
X30212Y26012D02*
D03*
X7008Y2109D02*
D03*
X7222Y1645D02*
D03*
X7122Y1143D02*
D03*
X6746Y796D02*
D03*
X6238Y736D02*
D03*
X5792Y987D02*
D03*
X5578Y1451D02*
D03*
X5678Y1953D02*
D03*
X6054Y2300D02*
D03*
X6562Y2360D02*
D03*
X30608Y2109D02*
D03*
X30822Y1645D02*
D03*
X30722Y1143D02*
D03*
X30346Y796D02*
D03*
X29838Y736D02*
D03*
X29392Y987D02*
D03*
X29178Y1451D02*
D03*
X29278Y1953D02*
D03*
X29654Y2300D02*
D03*
X30162Y2360D02*
D03*
D66*
X6450Y25200D02*
D03*
X30050D02*
D03*
X6400Y1548D02*
D03*
X30000D02*
D03*
D67*
X7600Y4300D02*
D03*
D68*
X27200Y1700D02*
D03*
D69*
X19851Y5600D02*
D03*
X21741D02*
D03*
X23630D02*
D03*
D70*
X19650Y1250D02*
D03*
Y2250D02*
D03*
D71*
X8900Y25250D02*
D03*
X16000Y24850D02*
D03*
X17500Y14200D02*
D03*
X9100Y5950D02*
D03*
X7040Y12330D02*
D03*
X27300Y8850D02*
D03*
X9050Y8450D02*
D03*
X27050Y8500D02*
D03*
X25900Y8300D02*
D03*
X25200Y6750D02*
D03*
Y7050D02*
D03*
X12970Y11250D02*
D03*
X16247Y17035D02*
D03*
X17340Y23150D02*
D03*
X15150Y22700D02*
D03*
X17350Y20450D02*
D03*
X17750Y20350D02*
D03*
X16180Y10200D02*
D03*
X30804Y10254D02*
D03*
X27400Y5550D02*
D03*
X26750Y4150D02*
D03*
X23030Y10810D02*
D03*
X8550Y10100D02*
D03*
X11200Y6450D02*
D03*
X10750Y6050D02*
D03*
X14600Y8150D02*
D03*
X14350Y7050D02*
D03*
X5550Y21200D02*
D03*
X3920Y17850D02*
D03*
X4415Y8085D02*
D03*
X13390Y22810D02*
D03*
X28900Y17850D02*
D03*
X29450Y18350D02*
D03*
X19200Y10150D02*
D03*
X4370Y14634D02*
D03*
X13820Y18310D02*
D03*
X8130Y20730D02*
D03*
X15700Y18580D02*
D03*
X15960Y7330D02*
D03*
X24420Y6450D02*
D03*
X12490Y17850D02*
D03*
X24570Y23870D02*
D03*
X10700Y14710D02*
D03*
X25920Y4710D02*
D03*
X9280Y23990D02*
D03*
X10800Y25050D02*
D03*
X19650Y9030D02*
D03*
X14720Y15670D02*
D03*
X24470Y18300D02*
D03*
X17360Y1410D02*
D03*
X24815Y24165D02*
D03*
X12953Y12934D02*
D03*
X27690Y10830D02*
D03*
X27776Y15640D02*
D03*
X16247Y21447D02*
D03*
X12790Y16460D02*
D03*
X6320Y20690D02*
D03*
X20880Y21550D02*
D03*
X1420Y5630D02*
D03*
X6310Y19170D02*
D03*
X11300Y26000D02*
D03*
X9800Y25350D02*
D03*
X23244Y16294D02*
D03*
X22100Y11800D02*
D03*
X25800Y10000D02*
D03*
X18700Y950D02*
D03*
X12347Y25047D02*
D03*
X12150Y23500D02*
D03*
X8950Y22950D02*
D03*
Y21050D02*
D03*
X2350Y1150D02*
D03*
X4150Y7100D02*
D03*
X7850Y19550D02*
D03*
X4650Y17500D02*
D03*
X14400Y14750D02*
D03*
X13900D02*
D03*
X14900Y9050D02*
D03*
X12000Y7350D02*
D03*
X20450Y14600D02*
D03*
X20650Y15300D02*
D03*
X20300Y15100D02*
D03*
X27550Y17350D02*
D03*
M02*
