M48
;Layer_Color=9474304
;FILE_FORMAT=2:4
INCH,LZ
;TYPE=PLATED
T1F00S00C0.0120
T2F00S00C0.0354
T3F00S00C0.0472
%
T01
X00515Y00045
X00545
X00575
X00605
X007Y0011
Y0016
Y002
Y0024
X0068Y0032
X0072Y00375
X0055Y0035
X00505Y00385
X00315Y00345
X0034Y0029
X00825Y0022
Y00155
X01025Y00115
X01075Y00145
Y00317
X01145Y00255
X01235Y00325
Y0037
X013035Y001865
X01485Y0035
X0157Y00265
X01685Y00225
X01748Y00235
X0174Y0031
X01705Y0038
X0196Y0036
X02105Y0037
X02385Y0036
X02455
X0252
X02585
X0265Y00365
X02265Y0011
X0223
X02195
X02135Y00105
X0188Y0021
Y00265
X01982Y00398
X01995Y0054
X02115Y00552
Y004932
X02175Y00485
X02103Y006415
X02055Y0064
X02005Y0067
X019597Y006747
X019282Y00645
X0203Y0071
X02035Y0077
X02075Y0086
X0223Y00915
X02305Y0086
X02365Y0071
X02435Y0095
X01845Y0081
Y0076
Y005568
X01825Y005
X01775Y00525
X01674Y00526
X0167Y00445
X0164Y0041
X01815Y00435
X01785Y00635
X0184Y00655
X01674Y00635
X01623Y00662
X01575Y006
X01505Y0066
X01395Y00615
X01365Y0055
X0126Y00475
X01175Y00525
X0111Y0052
X01115Y0057
X01035Y0059
X009544Y005894
X00925Y00535
X00915Y0047
X008695Y004882
X0077Y00495
X00725Y0054
X006255Y005495
X006Y00495
Y0045
X00485Y0053
X00525Y0077
X00575Y0086
X00625Y00885
X00673Y00808
X00765Y00775
X0082
Y0082
X0076Y0088
X0096Y0089
X01075Y00865
X01165Y0086
X01196Y009112
X01245Y00945
X01325Y0081
X0126Y0074
X0123
X012324Y006674
X0113Y00715
X01075Y0067
X00985Y00675
X00897Y0062
X008486Y006264
X008Y00665
X00755Y00655
X007155Y00659
X00665Y0064
X0041Y0082
Y00845
X00415Y01085
X01196Y01193
X014169Y010393
X0152Y00939
Y0089
X01525Y00815
X016641Y007941
X0171Y00735
X01705Y00865
X01735Y0097
X0178Y00975
X01625Y01015
X01505Y00475
X01125Y0041
X010392Y004418
X0097Y00425
T02
X01255Y010931
Y011931
X01355
Y010931
X01455
Y011931
T03
X02595Y0054
Y0074
X0093Y01135
X0073
X00165Y0072
Y0052
M30
