G04*
G04 #@! TF.GenerationSoftware,Altium Limited,Altium Designer,20.0.13 (296)*
G04*
G04 Layer_Physical_Order=3*
G04 Layer_Color=36540*
%FSLAX24Y24*%
%MOIN*%
G70*
G01*
G75*
%ADD13C,0.0080*%
%ADD25C,0.0200*%
%ADD26C,0.0039*%
%ADD55C,0.0800*%
%ADD56C,0.0400*%
%ADD58O,0.0787X0.1181*%
%ADD59R,0.0866X0.1378*%
%ADD60C,0.0591*%
%ADD61R,0.0591X0.0591*%
%ADD63C,0.0240*%
%ADD69C,0.0450*%
%ADD70C,0.0500*%
G36*
X27550Y0D02*
X0D01*
Y13000D01*
X27550D01*
Y0D01*
D02*
G37*
%LPC*%
G36*
X14061Y12502D02*
X14061Y12502D01*
X12450D01*
X12450Y12502D01*
X12419Y12495D01*
X12392Y12478D01*
X12392Y12478D01*
X12000Y12085D01*
X11960Y12093D01*
X11898Y12081D01*
X11845Y12045D01*
X11809Y11992D01*
X11797Y11930D01*
X11809Y11868D01*
X11845Y11815D01*
X11898Y11779D01*
X11960Y11767D01*
X12022Y11779D01*
X12075Y11815D01*
X12111Y11868D01*
X12123Y11930D01*
X12115Y11970D01*
X12177Y12032D01*
X12185Y12029D01*
X12222Y12006D01*
X12212Y11931D01*
X12223Y11843D01*
X12257Y11762D01*
X12311Y11692D01*
X12381Y11638D01*
X12462Y11604D01*
X12550Y11592D01*
X12638Y11604D01*
X12719Y11638D01*
X12789Y11692D01*
X12843Y11762D01*
X12877Y11843D01*
X12888Y11931D01*
X12877Y12018D01*
X12843Y12100D01*
X12789Y12170D01*
X12719Y12224D01*
X12638Y12257D01*
X12550Y12269D01*
X12475Y12259D01*
X12451Y12295D01*
X12449Y12303D01*
X12484Y12338D01*
X14027D01*
X14215Y12151D01*
Y11595D01*
X14885D01*
Y12266D01*
X14330D01*
X14118Y12478D01*
X14092Y12495D01*
X14061Y12502D01*
D02*
G37*
G36*
X14550Y11269D02*
X14462Y11257D01*
X14381Y11223D01*
X14311Y11170D01*
X14257Y11100D01*
X14223Y11018D01*
X14212Y10931D01*
X14223Y10843D01*
X14257Y10762D01*
X14311Y10692D01*
X14381Y10638D01*
X14462Y10604D01*
X14550Y10592D01*
X14638Y10604D01*
X14719Y10638D01*
X14789Y10692D01*
X14843Y10762D01*
X14877Y10843D01*
X14888Y10931D01*
X14877Y11018D01*
X14843Y11100D01*
X14789Y11170D01*
X14719Y11223D01*
X14638Y11257D01*
X14550Y11269D01*
D02*
G37*
G36*
X22113Y11760D02*
X21167D01*
Y10302D01*
X22113D01*
Y11760D01*
D02*
G37*
G36*
X12550Y11269D02*
X12462Y11257D01*
X12381Y11223D01*
X12311Y11170D01*
X12257Y11100D01*
X12223Y11018D01*
X12212Y10931D01*
X12223Y10843D01*
X12257Y10762D01*
X12311Y10692D01*
X12381Y10638D01*
X12462Y10604D01*
X12550Y10592D01*
X12638Y10604D01*
X12719Y10638D01*
X12724Y10641D01*
X12868Y10498D01*
X12868Y10498D01*
X12894Y10480D01*
X12925Y10474D01*
X13972D01*
X14013Y10433D01*
X14005Y10393D01*
X14018Y10330D01*
X14053Y10277D01*
X14106Y10242D01*
X14169Y10230D01*
X14231Y10242D01*
X14284Y10277D01*
X14319Y10330D01*
X14332Y10393D01*
X14319Y10455D01*
X14284Y10508D01*
X14231Y10544D01*
X14169Y10556D01*
X14129Y10548D01*
X14064Y10613D01*
X14037Y10631D01*
X14006Y10637D01*
X14006Y10637D01*
X12959D01*
X12839Y10757D01*
X12843Y10762D01*
X12877Y10843D01*
X12888Y10931D01*
X12877Y11018D01*
X12843Y11100D01*
X12789Y11170D01*
X12719Y11223D01*
X12638Y11257D01*
X12550Y11269D01*
D02*
G37*
G36*
X1372Y12645D02*
X1171Y12625D01*
X978Y12566D01*
X800Y12471D01*
X644Y12343D01*
X516Y12187D01*
X421Y12009D01*
X363Y11816D01*
X343Y11615D01*
Y10828D01*
X363Y10627D01*
X421Y10434D01*
X516Y10256D01*
X644Y10100D01*
X800Y9972D01*
X978Y9877D01*
X1171Y9819D01*
X1372Y9799D01*
X1573Y9819D01*
X1766Y9877D01*
X1944Y9972D01*
X2100Y10100D01*
X2228Y10256D01*
X2323Y10434D01*
X2381Y10627D01*
X2401Y10828D01*
Y11615D01*
X2381Y11816D01*
X2323Y12009D01*
X2228Y12187D01*
X2100Y12343D01*
X1944Y12471D01*
X1766Y12566D01*
X1573Y12625D01*
X1372Y12645D01*
D02*
G37*
G36*
X26178Y12601D02*
X25977Y12581D01*
X25784Y12523D01*
X25606Y12428D01*
X25450Y12300D01*
X25322Y12144D01*
X25227Y11966D01*
X25169Y11773D01*
X25149Y11572D01*
Y10785D01*
X25169Y10584D01*
X25227Y10391D01*
X25322Y10213D01*
X25450Y10057D01*
X25606Y9929D01*
X25784Y9834D01*
X25977Y9775D01*
X26178Y9755D01*
X26379Y9775D01*
X26572Y9834D01*
X26750Y9929D01*
X26906Y10057D01*
X27034Y10213D01*
X27129Y10391D01*
X27187Y10584D01*
X27207Y10785D01*
Y11572D01*
X27187Y11773D01*
X27129Y11966D01*
X27034Y12144D01*
X26906Y12300D01*
X26750Y12428D01*
X26572Y12523D01*
X26379Y12581D01*
X26178Y12601D01*
D02*
G37*
G36*
X22300Y9313D02*
X22238Y9301D01*
X22185Y9265D01*
X22149Y9212D01*
X22137Y9150D01*
X22149Y9088D01*
X22185Y9035D01*
X22238Y8999D01*
X22300Y8987D01*
X22362Y8999D01*
X22415Y9035D01*
X22451Y9088D01*
X22463Y9150D01*
X22451Y9212D01*
X22415Y9265D01*
X22362Y9301D01*
X22300Y9313D01*
D02*
G37*
G36*
X11960Y9275D02*
X11898Y9263D01*
X11845Y9227D01*
X11809Y9174D01*
X11797Y9112D01*
X11809Y9049D01*
X11845Y8996D01*
X11898Y8961D01*
X11960Y8949D01*
X12022Y8961D01*
X12075Y8996D01*
X12111Y9049D01*
X12123Y9112D01*
X12111Y9174D01*
X12075Y9227D01*
X12022Y9263D01*
X11960Y9275D01*
D02*
G37*
G36*
X6250Y9013D02*
X6188Y9001D01*
X6135Y8965D01*
X6099Y8912D01*
X6087Y8850D01*
X6099Y8788D01*
X6135Y8735D01*
X6188Y8699D01*
X6250Y8687D01*
X6312Y8699D01*
X6365Y8735D01*
X6401Y8788D01*
X6413Y8850D01*
X6401Y8912D01*
X6365Y8965D01*
X6312Y9001D01*
X6250Y9013D01*
D02*
G37*
G36*
X7600Y8963D02*
X7538Y8951D01*
X7485Y8915D01*
X7449Y8862D01*
X7437Y8800D01*
X7449Y8738D01*
X7485Y8685D01*
X7538Y8649D01*
X7600Y8637D01*
X7662Y8649D01*
X7715Y8685D01*
X7751Y8738D01*
X7763Y8800D01*
X7751Y8862D01*
X7715Y8915D01*
X7662Y8951D01*
X7600Y8963D01*
D02*
G37*
G36*
X10750Y8813D02*
X10688Y8801D01*
X10635Y8765D01*
X10599Y8712D01*
X10587Y8650D01*
X10599Y8588D01*
X10635Y8535D01*
X10688Y8499D01*
X10750Y8487D01*
X10812Y8499D01*
X10865Y8535D01*
X10901Y8588D01*
X10913Y8650D01*
X10901Y8712D01*
X10865Y8765D01*
X10812Y8801D01*
X10750Y8813D01*
D02*
G37*
G36*
X23050Y8763D02*
X22988Y8751D01*
X22935Y8715D01*
X22899Y8662D01*
X22887Y8600D01*
X22899Y8538D01*
X22935Y8485D01*
X22988Y8449D01*
X23050Y8437D01*
X23112Y8449D01*
X23165Y8485D01*
X23201Y8538D01*
X23213Y8600D01*
X23201Y8662D01*
X23165Y8715D01*
X23112Y8751D01*
X23050Y8763D01*
D02*
G37*
G36*
X18476Y12604D02*
X17060D01*
X16945Y12589D01*
X16838Y12544D01*
X16746Y12474D01*
X13766Y9494D01*
X13050D01*
X12935Y9479D01*
X12828Y9434D01*
X12736Y9364D01*
X11766Y8394D01*
X10252D01*
X10044Y8602D01*
Y8900D01*
X10029Y9015D01*
X9984Y9122D01*
X9914Y9214D01*
X8964Y10164D01*
X8872Y10234D01*
X8765Y10279D01*
X8650Y10294D01*
X7952D01*
X7834Y10413D01*
X7849Y10460D01*
X8008Y10489D01*
X8019Y10496D01*
X8031Y10501D01*
X8032Y10505D01*
X8036Y10507D01*
X8038Y10520D01*
X8043Y10532D01*
Y11933D01*
X8038Y11946D01*
X8034Y11960D01*
X8032Y11961D01*
X8031Y11964D01*
X8018Y11969D01*
X8006Y11976D01*
X5535Y12306D01*
X5532Y12305D01*
X5528Y12306D01*
X2748Y12193D01*
X2734Y12187D01*
X2720Y12181D01*
X2720Y12180D01*
X2718Y12179D01*
X2713Y12165D01*
X2707Y12151D01*
X2457Y3401D01*
X2457Y3401D01*
X2457Y3400D01*
X2463Y3385D01*
X2469Y3370D01*
X2469Y3370D01*
X2469Y3369D01*
X4419Y1419D01*
X4450Y1407D01*
X6132D01*
X6869Y669D01*
X6900Y657D01*
X7800D01*
X7831Y669D01*
X7931Y769D01*
X7943Y800D01*
Y2300D01*
X7931Y2331D01*
X7431Y2831D01*
X7400Y2843D01*
X5068Y2843D01*
X3743Y4168D01*
X3743Y8832D01*
X4821Y9910D01*
X6826Y10274D01*
X6866Y10245D01*
X6871Y10204D01*
X6916Y10097D01*
X6986Y10005D01*
X7455Y9536D01*
X7547Y9466D01*
X7654Y9421D01*
X7769Y9406D01*
X8466D01*
X9156Y8716D01*
Y8419D01*
X9171Y8304D01*
X9216Y8197D01*
X9286Y8105D01*
X9755Y7636D01*
X9847Y7566D01*
X9954Y7521D01*
X10069Y7506D01*
X11950D01*
X12065Y7521D01*
X12172Y7566D01*
X12264Y7636D01*
X13234Y8606D01*
X13950D01*
X14065Y8621D01*
X14172Y8666D01*
X14264Y8736D01*
X15008Y9480D01*
X15049Y9452D01*
X15037Y9390D01*
X15049Y9327D01*
X15085Y9274D01*
X15138Y9239D01*
X15200Y9227D01*
X15262Y9239D01*
X15315Y9274D01*
X15351Y9327D01*
X15363Y9390D01*
X15351Y9452D01*
X15315Y9505D01*
X15262Y9540D01*
X15200Y9553D01*
X15138Y9540D01*
X15109Y9582D01*
X17244Y11716D01*
X17387D01*
Y10930D01*
X17036Y10579D01*
X16966Y10487D01*
X16921Y10380D01*
X16906Y10265D01*
Y9700D01*
X16919Y9603D01*
X16674Y8893D01*
X15898D01*
X15890Y8890D01*
X15880Y8890D01*
X15875Y8884D01*
X15867Y8881D01*
X15864Y8872D01*
X15858Y8866D01*
X15311Y7451D01*
X15311Y7444D01*
X15308Y7438D01*
X15207Y5652D01*
X15207Y5651D01*
X15207Y5650D01*
X15213Y5636D01*
X15218Y5621D01*
X15219Y5621D01*
X15219Y5619D01*
X15369Y5469D01*
X15400Y5457D01*
X15850D01*
X15881Y5469D01*
X15981Y5569D01*
X15993Y5600D01*
Y6250D01*
X15981Y6281D01*
X15896Y6365D01*
X16092Y7638D01*
X16329Y8207D01*
X17500D01*
X17531Y8219D01*
X18181Y8869D01*
X18193Y8900D01*
Y10000D01*
X18181Y10031D01*
X18031Y10181D01*
X18000Y10193D01*
X17971D01*
X17952Y10239D01*
X18015Y10302D01*
X18333D01*
X18356Y10262D01*
Y8634D01*
X18136Y8414D01*
X18066Y8322D01*
X18021Y8215D01*
X18006Y8100D01*
X18010Y8071D01*
X17832Y7893D01*
X17350D01*
X17319Y7881D01*
X17017Y7578D01*
X17006Y7576D01*
X16927Y7523D01*
X16874Y7444D01*
X16855Y7350D01*
X16874Y7256D01*
X16908Y7206D01*
Y5387D01*
X16858Y5372D01*
X16855Y5375D01*
X16802Y5411D01*
X16740Y5423D01*
X16700Y5415D01*
X16312Y5804D01*
Y6482D01*
X16345Y6505D01*
X16381Y6558D01*
X16393Y6620D01*
X16381Y6682D01*
X16345Y6735D01*
X16292Y6771D01*
X16230Y6783D01*
X16168Y6771D01*
X16115Y6735D01*
X16079Y6682D01*
X16067Y6620D01*
X16079Y6558D01*
X16115Y6505D01*
X16148Y6482D01*
Y5770D01*
X16148Y5770D01*
X16155Y5739D01*
X16172Y5712D01*
X16585Y5300D01*
X16577Y5260D01*
X16589Y5198D01*
X16625Y5145D01*
X16678Y5109D01*
X16740Y5097D01*
X16802Y5109D01*
X16855Y5145D01*
X16858Y5148D01*
X16908Y5133D01*
Y4550D01*
X16917Y4474D01*
X16947Y4404D01*
X16993Y4343D01*
X18507Y2829D01*
Y2650D01*
X18517Y2574D01*
X18547Y2504D01*
X18593Y2443D01*
X18654Y2397D01*
X18724Y2367D01*
X18800Y2358D01*
X18876Y2367D01*
X18946Y2397D01*
X19007Y2443D01*
X19053Y2504D01*
X19083Y2574D01*
X19093Y2650D01*
Y2950D01*
X19083Y3026D01*
X19053Y3096D01*
X19007Y3157D01*
X17493Y4671D01*
Y6827D01*
X18910Y7158D01*
X18920Y7165D01*
X18931Y7169D01*
X18933Y7174D01*
X18937Y7177D01*
X18939Y7189D01*
X18943Y7200D01*
Y7966D01*
X19114Y8136D01*
X19184Y8228D01*
X19229Y8335D01*
X19244Y8450D01*
Y10266D01*
X19277Y10302D01*
X19294Y10302D01*
X20223D01*
Y11760D01*
X19294D01*
X19277Y11760D01*
X19244Y11796D01*
Y11836D01*
X19229Y11951D01*
X19184Y12058D01*
X19114Y12149D01*
X18789Y12474D01*
X18697Y12544D01*
X18590Y12589D01*
X18476Y12604D01*
D02*
G37*
G36*
X8200Y8363D02*
X8138Y8351D01*
X8085Y8315D01*
X8049Y8262D01*
X8037Y8200D01*
X8049Y8138D01*
X8085Y8085D01*
X8138Y8049D01*
X8200Y8037D01*
X8262Y8049D01*
X8315Y8085D01*
X8351Y8138D01*
X8363Y8200D01*
X8351Y8262D01*
X8315Y8315D01*
X8262Y8351D01*
X8200Y8363D01*
D02*
G37*
G36*
X13250Y8263D02*
X13188Y8251D01*
X13135Y8215D01*
X13099Y8162D01*
X13087Y8100D01*
X13099Y8038D01*
X13135Y7985D01*
X13188Y7949D01*
X13250Y7937D01*
X13312Y7949D01*
X13365Y7985D01*
X13401Y8038D01*
X13413Y8100D01*
X13401Y8162D01*
X13365Y8215D01*
X13312Y8251D01*
X13250Y8263D01*
D02*
G37*
G36*
X6730Y8243D02*
X6668Y8231D01*
X6615Y8195D01*
X6579Y8142D01*
X6567Y8080D01*
X6579Y8018D01*
X6615Y7965D01*
X6668Y7929D01*
X6730Y7917D01*
X6792Y7929D01*
X6845Y7965D01*
X6868Y7998D01*
X7636D01*
X7676Y7959D01*
X7651Y7913D01*
X7650Y7913D01*
X7588Y7901D01*
X7535Y7865D01*
X7499Y7812D01*
X7487Y7750D01*
X7499Y7688D01*
X7535Y7635D01*
X7588Y7599D01*
X7650Y7587D01*
X7712Y7599D01*
X7765Y7635D01*
X7801Y7688D01*
X7813Y7750D01*
X7813Y7751D01*
X7859Y7776D01*
X7898Y7736D01*
Y7659D01*
X7898Y7659D01*
X7905Y7628D01*
X7922Y7601D01*
X8051Y7472D01*
X8051Y7472D01*
X8078Y7455D01*
X8109Y7448D01*
X8186D01*
X9529Y6106D01*
X9513Y6051D01*
X9482Y6045D01*
X9429Y6010D01*
X9394Y5957D01*
X9381Y5894D01*
X9394Y5832D01*
X9429Y5779D01*
X9463Y5757D01*
Y4954D01*
X9463Y4954D01*
X9469Y4923D01*
X9487Y4897D01*
X10243Y4140D01*
X10243Y4140D01*
X10270Y4123D01*
X10301Y4116D01*
X10301Y4116D01*
X10483D01*
X10483Y4116D01*
X10514Y4123D01*
X10541Y4140D01*
X10670Y4269D01*
X10670Y4269D01*
X10687Y4296D01*
X10694Y4327D01*
Y5638D01*
X10687Y5669D01*
X10670Y5696D01*
X10670Y5696D01*
X10505Y5860D01*
X10513Y5900D01*
X10501Y5962D01*
X10465Y6015D01*
X10412Y6051D01*
X10350Y6063D01*
X10288Y6051D01*
X10235Y6015D01*
X10199Y5962D01*
X10187Y5900D01*
X10199Y5838D01*
X10235Y5785D01*
X10288Y5749D01*
X10350Y5737D01*
X10390Y5745D01*
X10530Y5604D01*
Y4629D01*
X10480Y4600D01*
X10474Y4604D01*
Y5358D01*
X10467Y5389D01*
X10450Y5416D01*
X10450Y5416D01*
X8301Y7565D01*
X8304Y7625D01*
X8306Y7628D01*
X8315Y7635D01*
X8351Y7688D01*
X8363Y7750D01*
X8351Y7812D01*
X8315Y7865D01*
X8262Y7901D01*
X8200Y7913D01*
X8138Y7901D01*
X8085Y7865D01*
X8078Y7856D01*
X8075Y7854D01*
X8015Y7851D01*
X7728Y8138D01*
X7701Y8155D01*
X7670Y8162D01*
X7670Y8162D01*
X6868D01*
X6845Y8195D01*
X6792Y8231D01*
X6730Y8243D01*
D02*
G37*
G36*
X20350Y7863D02*
X20288Y7851D01*
X20235Y7815D01*
X20199Y7762D01*
X20187Y7700D01*
X20199Y7638D01*
X20235Y7585D01*
X20288Y7549D01*
X20350Y7537D01*
X20412Y7549D01*
X20465Y7585D01*
X20501Y7638D01*
X20513Y7700D01*
X20501Y7762D01*
X20465Y7815D01*
X20412Y7851D01*
X20350Y7863D01*
D02*
G37*
G36*
X11300Y7313D02*
X11238Y7301D01*
X11185Y7265D01*
X11149Y7212D01*
X11137Y7150D01*
X11149Y7088D01*
X11185Y7035D01*
X11238Y6999D01*
X11300Y6987D01*
X11362Y6999D01*
X11415Y7035D01*
X11451Y7088D01*
X11463Y7150D01*
X11451Y7212D01*
X11415Y7265D01*
X11362Y7301D01*
X11300Y7313D01*
D02*
G37*
G36*
X26147Y7837D02*
X25753D01*
X25640Y7823D01*
X25534Y7779D01*
X25444Y7709D01*
X25374Y7619D01*
X25331Y7513D01*
X25316Y7400D01*
X25331Y7287D01*
X25374Y7181D01*
X25444Y7091D01*
X25534Y7021D01*
X25640Y6977D01*
X25753Y6963D01*
X26147D01*
X26260Y6977D01*
X26366Y7021D01*
X26456Y7091D01*
X26526Y7181D01*
X26569Y7287D01*
X26584Y7400D01*
X26569Y7513D01*
X26526Y7619D01*
X26456Y7709D01*
X26366Y7779D01*
X26260Y7823D01*
X26147Y7837D01*
D02*
G37*
G36*
X23650Y7263D02*
X23588Y7251D01*
X23535Y7215D01*
X23499Y7162D01*
X23487Y7100D01*
X23499Y7038D01*
X23535Y6985D01*
X23588Y6949D01*
X23650Y6937D01*
X23712Y6949D01*
X23765Y6985D01*
X23801Y7038D01*
X23813Y7100D01*
X23801Y7162D01*
X23765Y7215D01*
X23712Y7251D01*
X23650Y7263D01*
D02*
G37*
G36*
X20300D02*
X20238Y7251D01*
X20185Y7215D01*
X20149Y7162D01*
X20137Y7100D01*
X20149Y7038D01*
X20185Y6985D01*
X20238Y6949D01*
X20300Y6937D01*
X20362Y6949D01*
X20415Y6985D01*
X20451Y7038D01*
X20463Y7100D01*
X20451Y7162D01*
X20415Y7215D01*
X20362Y7251D01*
X20300Y7263D01*
D02*
G37*
G36*
X1847Y7637D02*
X1453D01*
X1340Y7623D01*
X1234Y7579D01*
X1144Y7509D01*
X1074Y7419D01*
X1031Y7313D01*
X1016Y7200D01*
X1031Y7087D01*
X1074Y6981D01*
X1144Y6891D01*
X1234Y6821D01*
X1340Y6777D01*
X1453Y6763D01*
X1847D01*
X1960Y6777D01*
X2066Y6821D01*
X2156Y6891D01*
X2226Y6981D01*
X2269Y7087D01*
X2284Y7200D01*
X2269Y7313D01*
X2226Y7419D01*
X2156Y7509D01*
X2066Y7579D01*
X1960Y7623D01*
X1847Y7637D01*
D02*
G37*
G36*
X9850Y6913D02*
X9788Y6901D01*
X9735Y6865D01*
X9699Y6812D01*
X9687Y6750D01*
X9699Y6688D01*
X9735Y6635D01*
X9788Y6599D01*
X9850Y6587D01*
X9912Y6599D01*
X9965Y6635D01*
X10001Y6688D01*
X10013Y6750D01*
X10001Y6812D01*
X9965Y6865D01*
X9912Y6901D01*
X9850Y6913D01*
D02*
G37*
G36*
X19597Y6911D02*
X19535Y6898D01*
X19482Y6863D01*
X19447Y6810D01*
X19434Y6747D01*
X19447Y6685D01*
X19482Y6632D01*
X19535Y6597D01*
X19597Y6584D01*
X19660Y6597D01*
X19713Y6632D01*
X19748Y6685D01*
X19761Y6747D01*
X19748Y6810D01*
X19713Y6863D01*
X19660Y6898D01*
X19597Y6911D01*
D02*
G37*
G36*
X20050Y6863D02*
X19988Y6851D01*
X19935Y6815D01*
X19899Y6762D01*
X19887Y6700D01*
X19899Y6638D01*
X19935Y6585D01*
X19988Y6549D01*
X20050Y6537D01*
X20112Y6549D01*
X20165Y6585D01*
X20201Y6638D01*
X20213Y6700D01*
X20201Y6762D01*
X20165Y6815D01*
X20112Y6851D01*
X20050Y6863D01*
D02*
G37*
G36*
X10750D02*
X10688Y6851D01*
X10635Y6815D01*
X10599Y6762D01*
X10587Y6700D01*
X10599Y6638D01*
X10635Y6585D01*
X10688Y6549D01*
X10750Y6537D01*
X10812Y6549D01*
X10865Y6585D01*
X10901Y6638D01*
X10913Y6700D01*
X10901Y6762D01*
X10865Y6815D01*
X10812Y6851D01*
X10750Y6863D01*
D02*
G37*
G36*
X5250Y7863D02*
X5188Y7851D01*
X5135Y7815D01*
X5099Y7762D01*
X5087Y7700D01*
X5099Y7638D01*
X5135Y7585D01*
X5168Y7562D01*
Y7047D01*
X5168Y7047D01*
X5175Y7016D01*
X5192Y6989D01*
X5239Y6942D01*
X5239Y6942D01*
X5266Y6925D01*
X5297Y6918D01*
X6711D01*
X7000Y6630D01*
X6992Y6590D01*
X7004Y6528D01*
X7039Y6475D01*
X7092Y6439D01*
X7155Y6427D01*
X7217Y6439D01*
X7270Y6475D01*
X7305Y6528D01*
X7318Y6590D01*
X7305Y6652D01*
X7270Y6705D01*
X7217Y6741D01*
X7155Y6753D01*
X7115Y6745D01*
X6802Y7058D01*
X6776Y7075D01*
X6745Y7082D01*
X6745Y7082D01*
X5332D01*
Y7562D01*
X5365Y7585D01*
X5401Y7638D01*
X5413Y7700D01*
X5401Y7762D01*
X5365Y7815D01*
X5312Y7851D01*
X5250Y7863D01*
D02*
G37*
G36*
X18400Y6713D02*
X18338Y6701D01*
X18285Y6665D01*
X18249Y6612D01*
X18237Y6550D01*
X18249Y6488D01*
X18285Y6435D01*
X18338Y6399D01*
X18400Y6387D01*
X18462Y6399D01*
X18515Y6435D01*
X18551Y6488D01*
X18563Y6550D01*
X18551Y6612D01*
X18515Y6665D01*
X18462Y6701D01*
X18400Y6713D01*
D02*
G37*
G36*
X5750Y8763D02*
X5688Y8751D01*
X5635Y8715D01*
X5599Y8662D01*
X5587Y8600D01*
X5599Y8538D01*
X5635Y8485D01*
X5668Y8462D01*
Y8300D01*
X5668Y8300D01*
X5675Y8269D01*
X5692Y8242D01*
X6442Y7492D01*
X6442Y7492D01*
X6469Y7475D01*
X6500Y7468D01*
X6966D01*
X7468Y6966D01*
Y6688D01*
X7435Y6665D01*
X7399Y6612D01*
X7387Y6550D01*
X7399Y6488D01*
X7435Y6435D01*
X7488Y6399D01*
X7550Y6387D01*
X7612Y6399D01*
X7665Y6435D01*
X7701Y6488D01*
X7713Y6550D01*
X7701Y6612D01*
X7665Y6665D01*
X7632Y6688D01*
Y7000D01*
X7625Y7031D01*
X7608Y7058D01*
X7608Y7058D01*
X7058Y7608D01*
X7031Y7625D01*
X7000Y7632D01*
X7000Y7632D01*
X6534D01*
X5832Y8334D01*
Y8462D01*
X5865Y8485D01*
X5901Y8538D01*
X5913Y8600D01*
X5901Y8662D01*
X5865Y8715D01*
X5812Y8751D01*
X5750Y8763D01*
D02*
G37*
G36*
X19282Y6613D02*
X19219Y6601D01*
X19166Y6565D01*
X19131Y6512D01*
X19118Y6450D01*
X19131Y6388D01*
X19166Y6335D01*
X19219Y6299D01*
X19282Y6287D01*
X19344Y6299D01*
X19397Y6335D01*
X19432Y6388D01*
X19445Y6450D01*
X19432Y6512D01*
X19397Y6565D01*
X19344Y6601D01*
X19282Y6613D01*
D02*
G37*
G36*
X21030Y6578D02*
X20968Y6566D01*
X20915Y6530D01*
X20879Y6477D01*
X20867Y6415D01*
X20879Y6353D01*
X20915Y6300D01*
X20968Y6264D01*
X21030Y6252D01*
X21092Y6264D01*
X21145Y6300D01*
X21181Y6353D01*
X21193Y6415D01*
X21181Y6477D01*
X21145Y6530D01*
X21092Y6566D01*
X21030Y6578D01*
D02*
G37*
G36*
X20550Y6563D02*
X20488Y6551D01*
X20435Y6515D01*
X20399Y6462D01*
X20387Y6400D01*
X20399Y6338D01*
X20404Y6330D01*
X20342Y6268D01*
X20325Y6242D01*
X20318Y6211D01*
X20318Y6211D01*
Y2450D01*
X20318Y2450D01*
X20325Y2419D01*
X20342Y2392D01*
X21268Y1466D01*
Y1188D01*
X21235Y1165D01*
X21199Y1112D01*
X21187Y1050D01*
X21199Y988D01*
X21235Y935D01*
X21288Y899D01*
X21350Y887D01*
X21412Y899D01*
X21465Y935D01*
X21501Y988D01*
X21513Y1050D01*
X21501Y1112D01*
X21465Y1165D01*
X21432Y1188D01*
Y1500D01*
X21432Y1500D01*
X21425Y1531D01*
X21408Y1558D01*
X21408Y1558D01*
X20482Y2484D01*
Y6177D01*
X20543Y6238D01*
X20550Y6237D01*
X20612Y6249D01*
X20665Y6285D01*
X20701Y6338D01*
X20713Y6400D01*
X20701Y6462D01*
X20665Y6515D01*
X20612Y6551D01*
X20550Y6563D01*
D02*
G37*
G36*
X8486Y6427D02*
X8424Y6414D01*
X8371Y6379D01*
X8336Y6326D01*
X8323Y6264D01*
X8336Y6201D01*
X8371Y6148D01*
X8424Y6113D01*
X8486Y6100D01*
X8549Y6113D01*
X8602Y6148D01*
X8637Y6201D01*
X8650Y6264D01*
X8637Y6326D01*
X8602Y6379D01*
X8549Y6414D01*
X8486Y6427D01*
D02*
G37*
G36*
X8970Y6363D02*
X8908Y6351D01*
X8855Y6315D01*
X8819Y6262D01*
X8807Y6200D01*
X8819Y6138D01*
X8855Y6085D01*
X8908Y6049D01*
X8970Y6037D01*
X9032Y6049D01*
X9085Y6085D01*
X9121Y6138D01*
X9133Y6200D01*
X9121Y6262D01*
X9085Y6315D01*
X9032Y6351D01*
X8970Y6363D01*
D02*
G37*
G36*
X13950Y6313D02*
X13888Y6301D01*
X13835Y6265D01*
X13799Y6212D01*
X13787Y6150D01*
X13799Y6088D01*
X13835Y6035D01*
X13888Y5999D01*
X13950Y5987D01*
X14012Y5999D01*
X14065Y6035D01*
X14101Y6088D01*
X14113Y6150D01*
X14101Y6212D01*
X14065Y6265D01*
X14012Y6301D01*
X13950Y6313D01*
D02*
G37*
G36*
X18450Y5732D02*
X18388Y5719D01*
X18335Y5684D01*
X18299Y5631D01*
X18287Y5568D01*
X18299Y5506D01*
X18335Y5453D01*
X18388Y5418D01*
X18450Y5405D01*
X18512Y5418D01*
X18565Y5453D01*
X18601Y5506D01*
X18613Y5568D01*
X18601Y5631D01*
X18565Y5684D01*
X18512Y5719D01*
X18450Y5732D01*
D02*
G37*
G36*
X21150Y5683D02*
X21088Y5670D01*
X21035Y5635D01*
X20999Y5582D01*
X20987Y5520D01*
X20999Y5457D01*
X21035Y5404D01*
X21088Y5369D01*
X21150Y5357D01*
X21212Y5369D01*
X21265Y5404D01*
X21301Y5457D01*
X21313Y5520D01*
X21301Y5582D01*
X21265Y5635D01*
X21212Y5670D01*
X21150Y5683D01*
D02*
G37*
G36*
X13650Y5663D02*
X13588Y5651D01*
X13535Y5615D01*
X13499Y5562D01*
X13487Y5500D01*
X13499Y5438D01*
X13535Y5385D01*
X13588Y5349D01*
X13650Y5337D01*
X13712Y5349D01*
X13765Y5385D01*
X13801Y5438D01*
X13813Y5500D01*
X13801Y5562D01*
X13765Y5615D01*
X13712Y5651D01*
X13650Y5663D01*
D02*
G37*
G36*
X6255Y5658D02*
X6192Y5646D01*
X6139Y5611D01*
X6104Y5558D01*
X6092Y5495D01*
X6104Y5433D01*
X6139Y5380D01*
X6192Y5345D01*
X6255Y5332D01*
X6317Y5345D01*
X6370Y5380D01*
X6405Y5433D01*
X6418Y5495D01*
X6405Y5558D01*
X6370Y5611D01*
X6317Y5646D01*
X6255Y5658D01*
D02*
G37*
G36*
X9250Y5513D02*
X9188Y5501D01*
X9135Y5465D01*
X9099Y5412D01*
X9087Y5350D01*
X9099Y5288D01*
X9135Y5235D01*
X9188Y5199D01*
X9250Y5187D01*
X9312Y5199D01*
X9365Y5235D01*
X9401Y5288D01*
X9413Y5350D01*
X9401Y5412D01*
X9365Y5465D01*
X9312Y5501D01*
X9250Y5513D01*
D02*
G37*
G36*
X17750Y5413D02*
X17688Y5401D01*
X17635Y5365D01*
X17599Y5312D01*
X17587Y5250D01*
X17599Y5188D01*
X17635Y5135D01*
X17688Y5099D01*
X17750Y5087D01*
X17812Y5099D01*
X17865Y5135D01*
X17901Y5188D01*
X17913Y5250D01*
X17901Y5312D01*
X17865Y5365D01*
X17812Y5401D01*
X17750Y5413D01*
D02*
G37*
G36*
X11750D02*
X11688Y5401D01*
X11635Y5365D01*
X11599Y5312D01*
X11587Y5250D01*
X11599Y5188D01*
X11635Y5135D01*
X11688Y5099D01*
X11750Y5087D01*
X11812Y5099D01*
X11865Y5135D01*
X11901Y5188D01*
X11913Y5250D01*
X11901Y5312D01*
X11865Y5365D01*
X11812Y5401D01*
X11750Y5413D01*
D02*
G37*
G36*
X11100Y5363D02*
X11038Y5351D01*
X10985Y5315D01*
X10949Y5262D01*
X10937Y5200D01*
X10949Y5138D01*
X10985Y5085D01*
X11038Y5049D01*
X11100Y5037D01*
X11162Y5049D01*
X11215Y5085D01*
X11251Y5138D01*
X11263Y5200D01*
X11251Y5262D01*
X11215Y5315D01*
X11162Y5351D01*
X11100Y5363D01*
D02*
G37*
G36*
X26147Y5837D02*
X25753D01*
X25640Y5823D01*
X25534Y5779D01*
X25444Y5709D01*
X25374Y5619D01*
X25331Y5513D01*
X25316Y5400D01*
X25331Y5287D01*
X25374Y5181D01*
X25444Y5091D01*
X25534Y5021D01*
X25640Y4977D01*
X25753Y4963D01*
X26147D01*
X26260Y4977D01*
X26366Y5021D01*
X26456Y5091D01*
X26526Y5181D01*
X26569Y5287D01*
X26584Y5400D01*
X26569Y5513D01*
X26526Y5619D01*
X26456Y5709D01*
X26366Y5779D01*
X26260Y5823D01*
X26147Y5837D01*
D02*
G37*
G36*
X18250Y5163D02*
X18188Y5151D01*
X18135Y5115D01*
X18099Y5062D01*
X18087Y5000D01*
X18099Y4938D01*
X18135Y4885D01*
X18188Y4849D01*
X18250Y4837D01*
X18312Y4849D01*
X18365Y4885D01*
X18401Y4938D01*
X18413Y5000D01*
X18401Y5062D01*
X18365Y5115D01*
X18312Y5151D01*
X18250Y5163D01*
D02*
G37*
G36*
X6000Y5113D02*
X5938Y5101D01*
X5885Y5065D01*
X5849Y5012D01*
X5837Y4950D01*
X5849Y4888D01*
X5885Y4835D01*
X5938Y4799D01*
X6000Y4787D01*
X6062Y4799D01*
X6115Y4835D01*
X6151Y4888D01*
X6163Y4950D01*
X6151Y5012D01*
X6115Y5065D01*
X6062Y5101D01*
X6000Y5113D01*
D02*
G37*
G36*
X21150Y5095D02*
X21088Y5082D01*
X21035Y5047D01*
X20999Y4994D01*
X20987Y4932D01*
X20999Y4869D01*
X21035Y4816D01*
X21088Y4781D01*
X21150Y4768D01*
X21212Y4781D01*
X21265Y4816D01*
X21301Y4869D01*
X21313Y4932D01*
X21301Y4994D01*
X21265Y5047D01*
X21212Y5082D01*
X21150Y5095D01*
D02*
G37*
G36*
X1847Y5637D02*
X1453D01*
X1340Y5623D01*
X1234Y5579D01*
X1144Y5509D01*
X1074Y5419D01*
X1031Y5313D01*
X1016Y5200D01*
X1031Y5087D01*
X1074Y4981D01*
X1144Y4891D01*
X1234Y4821D01*
X1340Y4777D01*
X1453Y4763D01*
X1847D01*
X1960Y4777D01*
X2066Y4821D01*
X2156Y4891D01*
X2226Y4981D01*
X2269Y5087D01*
X2284Y5200D01*
X2269Y5313D01*
X2226Y5419D01*
X2156Y5509D01*
X2066Y5579D01*
X1960Y5623D01*
X1847Y5637D01*
D02*
G37*
G36*
X8695Y5045D02*
X8633Y5032D01*
X8580Y4997D01*
X8545Y4944D01*
X8532Y4882D01*
X8545Y4819D01*
X8580Y4766D01*
X8633Y4731D01*
X8695Y4718D01*
X8758Y4731D01*
X8811Y4766D01*
X8846Y4819D01*
X8858Y4882D01*
X8846Y4944D01*
X8811Y4997D01*
X8758Y5032D01*
X8695Y5045D01*
D02*
G37*
G36*
X21750Y5013D02*
X21688Y5001D01*
X21635Y4965D01*
X21599Y4912D01*
X21587Y4850D01*
X21599Y4788D01*
X21635Y4735D01*
X21688Y4699D01*
X21750Y4687D01*
X21812Y4699D01*
X21865Y4735D01*
X21901Y4788D01*
X21913Y4850D01*
X21901Y4912D01*
X21865Y4965D01*
X21812Y5001D01*
X21750Y5013D01*
D02*
G37*
G36*
X12600Y4913D02*
X12538Y4901D01*
X12485Y4865D01*
X12449Y4812D01*
X12437Y4750D01*
X12449Y4688D01*
X12485Y4635D01*
X12538Y4599D01*
X12600Y4587D01*
X12662Y4599D01*
X12715Y4635D01*
X12751Y4688D01*
X12763Y4750D01*
X12751Y4812D01*
X12715Y4865D01*
X12662Y4901D01*
X12600Y4913D01*
D02*
G37*
G36*
X9150Y4863D02*
X9088Y4851D01*
X9035Y4815D01*
X8999Y4762D01*
X8987Y4700D01*
X8999Y4638D01*
X9035Y4585D01*
X9088Y4549D01*
X9150Y4537D01*
X9212Y4549D01*
X9265Y4585D01*
X9301Y4638D01*
X9313Y4700D01*
X9301Y4762D01*
X9265Y4815D01*
X9212Y4851D01*
X9150Y4863D01*
D02*
G37*
G36*
X4850Y5567D02*
X4781Y5558D01*
X4716Y5531D01*
X4661Y5489D01*
X4619Y5434D01*
X4592Y5369D01*
X4583Y5300D01*
Y5000D01*
X4592Y4931D01*
X4619Y4866D01*
X4661Y4811D01*
X5911Y3561D01*
X5966Y3519D01*
X6031Y3492D01*
X6100Y3483D01*
X7200D01*
X7269Y3492D01*
X7334Y3519D01*
X7389Y3561D01*
X7431Y3616D01*
X7458Y3681D01*
X7467Y3750D01*
X7458Y3819D01*
X7431Y3884D01*
X7389Y3939D01*
X7334Y3981D01*
X7269Y4008D01*
X7200Y4017D01*
X6211D01*
X5928Y4300D01*
X5952Y4346D01*
X6000Y4337D01*
X6062Y4349D01*
X6115Y4385D01*
X6151Y4438D01*
X6163Y4500D01*
X6151Y4562D01*
X6115Y4615D01*
X6062Y4651D01*
X6000Y4663D01*
X5938Y4651D01*
X5885Y4615D01*
X5849Y4562D01*
X5837Y4500D01*
X5846Y4452D01*
X5800Y4428D01*
X5117Y5111D01*
Y5300D01*
X5108Y5369D01*
X5081Y5434D01*
X5039Y5489D01*
X4984Y5531D01*
X4919Y5558D01*
X4850Y5567D01*
D02*
G37*
G36*
X18150Y4513D02*
X18088Y4501D01*
X18035Y4465D01*
X17999Y4412D01*
X17987Y4350D01*
X17999Y4288D01*
X18035Y4235D01*
X18088Y4199D01*
X18150Y4187D01*
X18212Y4199D01*
X18265Y4235D01*
X18301Y4288D01*
X18313Y4350D01*
X18301Y4412D01*
X18265Y4465D01*
X18212Y4501D01*
X18150Y4513D01*
D02*
G37*
G36*
X9700Y4413D02*
X9638Y4401D01*
X9585Y4365D01*
X9549Y4312D01*
X9537Y4250D01*
X9549Y4188D01*
X9585Y4135D01*
X9638Y4099D01*
X9700Y4087D01*
X9762Y4099D01*
X9815Y4135D01*
X9851Y4188D01*
X9863Y4250D01*
X9851Y4312D01*
X9815Y4365D01*
X9762Y4401D01*
X9700Y4413D01*
D02*
G37*
G36*
X11250Y4263D02*
X11188Y4251D01*
X11135Y4215D01*
X11099Y4162D01*
X11087Y4100D01*
X11099Y4038D01*
X11135Y3985D01*
X11188Y3949D01*
X11250Y3937D01*
X11312Y3949D01*
X11365Y3985D01*
X11401Y4038D01*
X11413Y4100D01*
X11401Y4162D01*
X11365Y4215D01*
X11312Y4251D01*
X11250Y4263D01*
D02*
G37*
G36*
X17850Y6513D02*
X17788Y6501D01*
X17735Y6465D01*
X17699Y6412D01*
X17687Y6350D01*
X17699Y6288D01*
X17735Y6235D01*
X17788Y6199D01*
X17850Y6187D01*
X17890Y6195D01*
X18092Y5992D01*
X18119Y5975D01*
X18150Y5968D01*
X18150Y5968D01*
X18966D01*
X19518Y5416D01*
Y3738D01*
X19485Y3715D01*
X19449Y3662D01*
X19437Y3600D01*
X19449Y3538D01*
X19485Y3485D01*
X19538Y3449D01*
X19600Y3437D01*
X19662Y3449D01*
X19715Y3485D01*
X19751Y3538D01*
X19763Y3600D01*
X19751Y3662D01*
X19715Y3715D01*
X19682Y3738D01*
Y3820D01*
X19732Y3847D01*
X19758Y3829D01*
X19820Y3817D01*
X19882Y3829D01*
X19935Y3865D01*
X19971Y3918D01*
X19983Y3980D01*
X19971Y4042D01*
X19935Y4095D01*
X19882Y4131D01*
X19820Y4143D01*
X19758Y4131D01*
X19732Y4113D01*
X19682Y4140D01*
Y5450D01*
X19675Y5481D01*
X19658Y5508D01*
X19658Y5508D01*
X19058Y6108D01*
X19031Y6125D01*
X19000Y6132D01*
X19000Y6132D01*
X18184D01*
X18005Y6310D01*
X18013Y6350D01*
X18001Y6412D01*
X17965Y6465D01*
X17912Y6501D01*
X17850Y6513D01*
D02*
G37*
G36*
X17050Y3963D02*
X16988Y3951D01*
X16935Y3915D01*
X16899Y3862D01*
X16887Y3800D01*
X16899Y3738D01*
X16935Y3685D01*
X16988Y3649D01*
X17050Y3637D01*
X17112Y3649D01*
X17165Y3685D01*
X17201Y3738D01*
X17213Y3800D01*
X17201Y3862D01*
X17165Y3915D01*
X17112Y3951D01*
X17050Y3963D01*
D02*
G37*
G36*
X21050Y3863D02*
X20988Y3851D01*
X20935Y3815D01*
X20899Y3762D01*
X20887Y3700D01*
X20899Y3638D01*
X20935Y3585D01*
X20988Y3549D01*
X21050Y3537D01*
X21112Y3549D01*
X21165Y3585D01*
X21201Y3638D01*
X21213Y3700D01*
X21201Y3762D01*
X21165Y3815D01*
X21112Y3851D01*
X21050Y3863D01*
D02*
G37*
G36*
X26500Y3813D02*
X26438Y3801D01*
X26385Y3765D01*
X26349Y3712D01*
X26337Y3650D01*
X26349Y3588D01*
X26385Y3535D01*
X26438Y3499D01*
X26500Y3487D01*
X26562Y3499D01*
X26615Y3535D01*
X26651Y3588D01*
X26663Y3650D01*
X26651Y3712D01*
X26615Y3765D01*
X26562Y3801D01*
X26500Y3813D01*
D02*
G37*
G36*
X25850Y3763D02*
X25788Y3751D01*
X25735Y3715D01*
X25699Y3662D01*
X25687Y3600D01*
X25699Y3538D01*
X25735Y3485D01*
X25788Y3449D01*
X25850Y3437D01*
X25912Y3449D01*
X25965Y3485D01*
X26001Y3538D01*
X26013Y3600D01*
X26001Y3662D01*
X25965Y3715D01*
X25912Y3751D01*
X25850Y3763D01*
D02*
G37*
G36*
X25200D02*
X25138Y3751D01*
X25085Y3715D01*
X25049Y3662D01*
X25037Y3600D01*
X25049Y3538D01*
X25085Y3485D01*
X25138Y3449D01*
X25200Y3437D01*
X25262Y3449D01*
X25315Y3485D01*
X25351Y3538D01*
X25363Y3600D01*
X25351Y3662D01*
X25315Y3715D01*
X25262Y3751D01*
X25200Y3763D01*
D02*
G37*
G36*
X24550D02*
X24488Y3751D01*
X24435Y3715D01*
X24399Y3662D01*
X24387Y3600D01*
X24399Y3538D01*
X24435Y3485D01*
X24488Y3449D01*
X24550Y3437D01*
X24612Y3449D01*
X24665Y3485D01*
X24701Y3538D01*
X24713Y3600D01*
X24701Y3662D01*
X24665Y3715D01*
X24612Y3751D01*
X24550Y3763D01*
D02*
G37*
G36*
X23850D02*
X23788Y3751D01*
X23735Y3715D01*
X23699Y3662D01*
X23687Y3600D01*
X23699Y3538D01*
X23735Y3485D01*
X23788Y3449D01*
X23850Y3437D01*
X23912Y3449D01*
X23965Y3485D01*
X24001Y3538D01*
X24013Y3600D01*
X24001Y3662D01*
X23965Y3715D01*
X23912Y3751D01*
X23850Y3763D01*
D02*
G37*
G36*
X14850Y3663D02*
X14788Y3651D01*
X14735Y3615D01*
X14699Y3562D01*
X14687Y3500D01*
X14699Y3438D01*
X14735Y3385D01*
X14788Y3349D01*
X14850Y3337D01*
X14912Y3349D01*
X14965Y3385D01*
X15001Y3438D01*
X15013Y3500D01*
X15001Y3562D01*
X14965Y3615D01*
X14912Y3651D01*
X14850Y3663D01*
D02*
G37*
G36*
X5500D02*
X5438Y3651D01*
X5385Y3615D01*
X5349Y3562D01*
X5337Y3500D01*
X5349Y3438D01*
X5385Y3385D01*
X5438Y3349D01*
X5500Y3337D01*
X5562Y3349D01*
X5615Y3385D01*
X5651Y3438D01*
X5663Y3500D01*
X5651Y3562D01*
X5615Y3615D01*
X5562Y3651D01*
X5500Y3663D01*
D02*
G37*
G36*
X6800Y3363D02*
X6738Y3351D01*
X6685Y3315D01*
X6649Y3262D01*
X6637Y3200D01*
X6649Y3138D01*
X6685Y3085D01*
X6738Y3049D01*
X6800Y3037D01*
X6862Y3049D01*
X6915Y3085D01*
X6951Y3138D01*
X6963Y3200D01*
X6951Y3262D01*
X6915Y3315D01*
X6862Y3351D01*
X6800Y3363D01*
D02*
G37*
G36*
X10750Y3333D02*
X10688Y3321D01*
X10635Y3285D01*
X10599Y3232D01*
X10587Y3170D01*
X10599Y3108D01*
X10635Y3055D01*
X10688Y3019D01*
X10750Y3007D01*
X10812Y3019D01*
X10865Y3055D01*
X10901Y3108D01*
X10913Y3170D01*
X10901Y3232D01*
X10865Y3285D01*
X10812Y3321D01*
X10750Y3333D01*
D02*
G37*
G36*
X17400Y3263D02*
X17338Y3251D01*
X17285Y3215D01*
X17249Y3162D01*
X17237Y3100D01*
X17249Y3038D01*
X17285Y2985D01*
X17338Y2949D01*
X17400Y2937D01*
X17462Y2949D01*
X17515Y2985D01*
X17551Y3038D01*
X17563Y3100D01*
X17551Y3162D01*
X17515Y3215D01*
X17462Y3251D01*
X17400Y3263D01*
D02*
G37*
G36*
X15700Y2813D02*
X15638Y2801D01*
X15585Y2765D01*
X15549Y2712D01*
X15537Y2650D01*
X15549Y2588D01*
X15585Y2535D01*
X15638Y2499D01*
X15700Y2487D01*
X15762Y2499D01*
X15815Y2535D01*
X15851Y2588D01*
X15863Y2650D01*
X15851Y2712D01*
X15815Y2765D01*
X15762Y2801D01*
X15700Y2813D01*
D02*
G37*
G36*
X17480Y2513D02*
X17418Y2501D01*
X17365Y2465D01*
X17329Y2412D01*
X17317Y2350D01*
X17329Y2288D01*
X17365Y2235D01*
X17418Y2199D01*
X17480Y2187D01*
X17542Y2199D01*
X17595Y2235D01*
X17631Y2288D01*
X17643Y2350D01*
X17631Y2412D01*
X17595Y2465D01*
X17542Y2501D01*
X17480Y2513D01*
D02*
G37*
G36*
X16850Y2413D02*
X16788Y2401D01*
X16735Y2365D01*
X16699Y2312D01*
X16687Y2250D01*
X16699Y2188D01*
X16735Y2135D01*
X16788Y2099D01*
X16850Y2087D01*
X16912Y2099D01*
X16965Y2135D01*
X17001Y2188D01*
X17013Y2250D01*
X17001Y2312D01*
X16965Y2365D01*
X16912Y2401D01*
X16850Y2413D01*
D02*
G37*
G36*
X8250Y2363D02*
X8188Y2351D01*
X8135Y2315D01*
X8099Y2262D01*
X8087Y2200D01*
X8099Y2138D01*
X8135Y2085D01*
X8188Y2049D01*
X8250Y2037D01*
X8312Y2049D01*
X8365Y2085D01*
X8401Y2138D01*
X8413Y2200D01*
X8401Y2262D01*
X8365Y2315D01*
X8312Y2351D01*
X8250Y2363D01*
D02*
G37*
G36*
X18800Y2263D02*
X18738Y2251D01*
X18685Y2215D01*
X18649Y2162D01*
X18637Y2100D01*
X18649Y2038D01*
X18685Y1985D01*
X18738Y1949D01*
X18800Y1937D01*
X18862Y1949D01*
X18915Y1985D01*
X18951Y2038D01*
X18963Y2100D01*
X18951Y2162D01*
X18915Y2215D01*
X18862Y2251D01*
X18800Y2263D01*
D02*
G37*
G36*
X13035Y2028D02*
X12972Y2016D01*
X12919Y1981D01*
X12884Y1928D01*
X12872Y1865D01*
X12884Y1803D01*
X12919Y1750D01*
X12972Y1715D01*
X13035Y1702D01*
X13097Y1715D01*
X13150Y1750D01*
X13185Y1803D01*
X13198Y1865D01*
X13185Y1928D01*
X13150Y1981D01*
X13097Y2016D01*
X13035Y2028D01*
D02*
G37*
G36*
X8250Y1713D02*
X8188Y1701D01*
X8135Y1665D01*
X8099Y1612D01*
X8087Y1550D01*
X8099Y1488D01*
X8135Y1435D01*
X8188Y1399D01*
X8250Y1387D01*
X8312Y1399D01*
X8365Y1435D01*
X8401Y1488D01*
X8413Y1550D01*
X8401Y1612D01*
X8365Y1665D01*
X8312Y1701D01*
X8250Y1713D01*
D02*
G37*
G36*
X10750Y1613D02*
X10688Y1601D01*
X10635Y1565D01*
X10599Y1512D01*
X10587Y1450D01*
X10599Y1388D01*
X10635Y1335D01*
X10688Y1299D01*
X10750Y1287D01*
X10812Y1299D01*
X10865Y1335D01*
X10901Y1388D01*
X10913Y1450D01*
X10901Y1512D01*
X10865Y1565D01*
X10812Y1601D01*
X10750Y1613D01*
D02*
G37*
G36*
X6650Y6563D02*
X6588Y6551D01*
X6535Y6515D01*
X6499Y6462D01*
X6487Y6400D01*
X6499Y6338D01*
X6535Y6285D01*
X6588Y6249D01*
X6650Y6237D01*
X6690Y6245D01*
X10168Y2766D01*
Y1288D01*
X10135Y1265D01*
X10099Y1212D01*
X10087Y1150D01*
X10099Y1088D01*
X10135Y1035D01*
X10188Y999D01*
X10250Y987D01*
X10312Y999D01*
X10365Y1035D01*
X10401Y1088D01*
X10413Y1150D01*
X10401Y1212D01*
X10365Y1265D01*
X10332Y1288D01*
Y2800D01*
X10332Y2800D01*
X10325Y2831D01*
X10308Y2858D01*
X10308Y2858D01*
X6805Y6360D01*
X6813Y6400D01*
X6801Y6462D01*
X6765Y6515D01*
X6712Y6551D01*
X6650Y6563D01*
D02*
G37*
G36*
X26200Y3173D02*
X25999Y3153D01*
X25806Y3095D01*
X25628Y2999D01*
X25472Y2871D01*
X25344Y2715D01*
X25249Y2538D01*
X25191Y2344D01*
X25171Y2144D01*
Y1356D01*
X25191Y1156D01*
X25249Y962D01*
X25344Y785D01*
X25472Y629D01*
X25628Y501D01*
X25806Y405D01*
X25999Y347D01*
X26200Y327D01*
X26401Y347D01*
X26594Y405D01*
X26772Y501D01*
X26928Y629D01*
X27056Y785D01*
X27151Y962D01*
X27209Y1156D01*
X27229Y1356D01*
Y2144D01*
X27209Y2344D01*
X27151Y2538D01*
X27056Y2715D01*
X26928Y2871D01*
X26772Y2999D01*
X26594Y3095D01*
X26401Y3153D01*
X26200Y3173D01*
D02*
G37*
G36*
X1400Y3123D02*
X1199Y3103D01*
X1006Y3045D01*
X828Y2949D01*
X672Y2821D01*
X544Y2666D01*
X449Y2488D01*
X391Y2294D01*
X371Y2094D01*
Y1306D01*
X391Y1106D01*
X449Y912D01*
X544Y734D01*
X672Y579D01*
X828Y451D01*
X1006Y355D01*
X1199Y297D01*
X1400Y277D01*
X1601Y297D01*
X1794Y355D01*
X1972Y451D01*
X2128Y579D01*
X2256Y734D01*
X2351Y912D01*
X2409Y1106D01*
X2429Y1306D01*
Y2094D01*
X2409Y2294D01*
X2351Y2488D01*
X2256Y2666D01*
X2128Y2821D01*
X1972Y2949D01*
X1794Y3045D01*
X1601Y3103D01*
X1400Y3123D01*
D02*
G37*
%LPD*%
G36*
X18900Y8150D02*
Y7200D01*
X17339Y6836D01*
X17300Y6867D01*
Y7100D01*
X16950Y7450D01*
X17350Y7850D01*
X17850D01*
X18300Y8300D01*
X18750D01*
X18900Y8150D01*
D02*
G37*
G36*
X18150Y10000D02*
Y8900D01*
X17500Y8250D01*
X16300D01*
X16050Y7650D01*
X15850Y6350D01*
X15950Y6250D01*
Y5600D01*
X15850Y5500D01*
X15400D01*
X15250Y5650D01*
X15351Y7436D01*
X15898Y8850D01*
X16705D01*
X17050Y9850D01*
Y9950D01*
X17250Y10150D01*
X18000D01*
X18150Y10000D01*
D02*
G37*
G36*
X8000Y11933D02*
Y10532D01*
X4800Y9950D01*
X3700Y8850D01*
X3700Y4150D01*
X5050Y2800D01*
X7400Y2800D01*
X7900Y2300D01*
Y800D01*
X7800Y700D01*
X6900D01*
X6150Y1450D01*
X4450D01*
X2500Y3400D01*
X2750Y12150D01*
X5530Y12263D01*
X8000Y11933D01*
D02*
G37*
D13*
X14006Y10555D02*
X14169Y10393D01*
X12925Y10555D02*
X14006D01*
X20550Y6361D02*
Y6400D01*
X20400Y6211D02*
X20550Y6361D01*
X20400Y2450D02*
Y6211D01*
X21350Y1050D02*
Y1500D01*
X20400Y2450D02*
X21350Y1500D01*
X12550Y10931D02*
X12925Y10555D01*
X16230Y5770D02*
X16740Y5260D01*
X16230Y5770D02*
Y6620D01*
X7980Y7659D02*
X8109Y7530D01*
X10392Y4418D02*
Y5358D01*
X10301Y4198D02*
X10483D01*
X10612Y4327D02*
Y5638D01*
X7980Y7659D02*
Y7770D01*
X10483Y4198D02*
X10612Y4327D01*
X9544Y4954D02*
X10301Y4198D01*
X8109Y7530D02*
X8220D01*
X7670Y8080D02*
X7980Y7770D01*
X6730Y8080D02*
X7670D01*
X9544Y4954D02*
Y5894D01*
X8220Y7530D02*
X10392Y5358D01*
X10350Y5900D02*
X10612Y5638D01*
X18150Y6050D02*
X19000D01*
X19600Y3600D02*
Y5450D01*
X19000Y6050D02*
X19600Y5450D01*
X17850Y6350D02*
X18150Y6050D01*
X10250Y1150D02*
Y2800D01*
X6650Y6400D02*
X10250Y2800D01*
X5250Y7047D02*
Y7700D01*
X5297Y7000D02*
X6745D01*
X5250Y7047D02*
X5297Y7000D01*
X6745D02*
X7155Y6590D01*
X5750Y8300D02*
X6500Y7550D01*
X5750Y8300D02*
Y8600D01*
X7000Y7550D02*
X7550Y7000D01*
X6500Y7550D02*
X7000D01*
X7550Y6550D02*
Y7000D01*
X11960Y11930D02*
X12450Y12420D01*
X14061D01*
X14550Y11931D01*
D25*
X27550Y0D02*
Y13000D01*
X0D02*
X27550D01*
X0Y0D02*
Y13000D01*
Y0D02*
X100D01*
X0D02*
X200D01*
X0D02*
X27550D01*
D26*
X10910Y1935D02*
Y2575D01*
X10590Y1935D02*
Y2575D01*
X10910D01*
X10590Y1935D02*
X10910D01*
Y7435D02*
Y8075D01*
X10590Y7435D02*
Y8075D01*
X10910D01*
X10590Y7435D02*
X10910D01*
Y3768D02*
Y4408D01*
X10590Y3768D02*
Y4408D01*
X10910D01*
X10590Y3768D02*
X10910D01*
X6735Y7090D02*
X7375D01*
X6735Y7410D02*
X7375D01*
Y7090D02*
Y7410D01*
X6735Y7090D02*
Y7410D01*
X10910Y5602D02*
Y6241D01*
X10590Y5602D02*
Y6241D01*
X10910D01*
X10590Y5602D02*
X10910D01*
X14365Y5963D02*
X15035D01*
X14365Y6337D02*
X15035D01*
Y5963D02*
Y6337D01*
X14365Y5963D02*
Y6337D01*
X12324Y5958D02*
X12994D01*
X12324Y6332D02*
X12994D01*
Y5958D02*
Y6332D01*
X12324Y5958D02*
Y6332D01*
Y4061D02*
X12994D01*
X12324Y4435D02*
X12994D01*
Y4061D02*
Y4435D01*
X12324Y4061D02*
Y4435D01*
X14365Y4066D02*
X15035D01*
X14365Y4440D02*
X15035D01*
Y4066D02*
Y4440D01*
X14365Y4066D02*
Y4440D01*
X5260Y4300D02*
Y4940D01*
X4940Y4300D02*
Y4940D01*
X5260D01*
X4940Y4300D02*
X5260D01*
X17765Y8837D02*
X18435D01*
X17765Y8463D02*
X18435D01*
X17765D02*
Y8837D01*
X18435Y8463D02*
Y8837D01*
X16437Y5215D02*
Y5885D01*
X16063Y5215D02*
Y5885D01*
X16437D01*
X16063Y5215D02*
X16437D01*
X23015Y11213D02*
X23685D01*
X23015Y11587D02*
X23685D01*
Y11213D02*
Y11587D01*
X23015Y11213D02*
Y11587D01*
X17860Y4085D02*
Y4725D01*
X17540Y4085D02*
Y4725D01*
X17860D01*
X17540Y4085D02*
X17860D01*
X16410Y1285D02*
Y1925D01*
X16090Y1285D02*
Y1925D01*
X16410D01*
X16090Y1285D02*
X16410D01*
X14325Y2460D02*
X14965D01*
X14325Y2140D02*
X14965D01*
X14325D02*
Y2460D01*
X14965Y2140D02*
Y2460D01*
X16406Y3014D02*
Y3654D01*
X16086Y3014D02*
Y3654D01*
X16406D01*
X16086Y3014D02*
X16406D01*
X17285Y5740D02*
X17925D01*
X17285Y6060D02*
X17925D01*
Y5740D02*
Y6060D01*
X17285Y5740D02*
Y6060D01*
X12385Y2140D02*
X13025D01*
X12385Y2460D02*
X13025D01*
Y2140D02*
Y2460D01*
X12385Y2140D02*
Y2460D01*
D55*
X17350Y9700D02*
Y10265D01*
X17860Y10775D02*
Y11031D01*
X17350Y10265D02*
X17860Y10775D01*
X7769Y9850D02*
X8650D01*
X7300Y10319D02*
Y11350D01*
Y10319D02*
X7769Y9850D01*
X8650D02*
X9600Y8900D01*
X13050Y9050D02*
X13950D01*
X9600Y8419D02*
X10069Y7950D01*
X11950D02*
X13050Y9050D01*
X9600Y8419D02*
Y8900D01*
X10069Y7950D02*
X11950D01*
X17060Y12160D02*
X18476D01*
X13950Y9050D02*
X17060Y12160D01*
X18800Y8450D02*
Y11836D01*
X18476Y12160D02*
X18800Y11836D01*
X18450Y8100D02*
X18800Y8450D01*
D56*
X17100Y7350D02*
X17200Y7250D01*
D58*
X9300Y11350D02*
D03*
X7300D02*
D03*
D59*
X17860Y11031D02*
D03*
D60*
X12550Y10931D02*
D03*
X13550D02*
D03*
Y11931D02*
D03*
D61*
X14550D02*
D03*
D63*
X14169Y10393D02*
D03*
X12450Y9450D02*
D03*
X5050Y3850D02*
D03*
X4150Y10850D02*
D03*
X7200Y3750D02*
D03*
X11150Y5700D02*
D03*
X11650Y8600D02*
D03*
X16250Y10150D02*
D03*
X3400Y2900D02*
D03*
X3150Y3450D02*
D03*
X15250Y8150D02*
D03*
X16740Y6350D02*
D03*
X16700Y4450D02*
D03*
X16740Y5260D02*
D03*
X17800Y9750D02*
D03*
X17350Y9700D02*
D03*
X12600Y7400D02*
D03*
X12300D02*
D03*
X6050Y450D02*
D03*
X5750D02*
D03*
X5450D02*
D03*
X5150D02*
D03*
X19950Y5400D02*
D03*
X16641Y7941D02*
D03*
X17100Y7350D02*
D03*
X24350Y9500D02*
D03*
X20750Y8600D02*
D03*
X22650Y1100D02*
D03*
X22300D02*
D03*
X21950D02*
D03*
X16400Y4100D02*
D03*
X15050Y4750D02*
D03*
Y6600D02*
D03*
X15750Y6000D02*
D03*
X17050Y8650D02*
D03*
X12324Y6674D02*
D03*
X15200Y8900D02*
D03*
X11450Y2550D02*
D03*
X12350Y3250D02*
D03*
Y3700D02*
D03*
X4850Y5300D02*
D03*
X7000Y1100D02*
D03*
Y1600D02*
D03*
Y2000D02*
D03*
Y2400D02*
D03*
X8000Y6650D02*
D03*
X9544Y5894D02*
D03*
X7700Y4950D02*
D03*
X7250Y5400D02*
D03*
X18800Y2650D02*
D03*
X18450Y7600D02*
D03*
Y8100D02*
D03*
X4100Y8200D02*
D03*
Y8450D02*
D03*
X9600Y8900D02*
D03*
X20550Y6400D02*
D03*
X21350Y1050D02*
D03*
X19600Y3600D02*
D03*
X17850Y6350D02*
D03*
X10392Y4418D02*
D03*
X6650Y6400D02*
D03*
X10250Y1150D02*
D03*
X5250Y7700D02*
D03*
X5750Y8600D02*
D03*
X7550Y6550D02*
D03*
X7155Y6590D02*
D03*
X16230Y6620D02*
D03*
X6730Y8080D02*
D03*
X11960Y11930D02*
D03*
X10350Y5900D02*
D03*
D69*
X6100Y3750D02*
X7200D01*
X4850Y5000D02*
X6100Y3750D01*
X4850Y5000D02*
Y5300D01*
D70*
X18800Y2650D02*
Y2950D01*
X17200Y4550D02*
X18800Y2950D01*
X17200Y4550D02*
Y7250D01*
M02*
