G04*
G04 #@! TF.GenerationSoftware,Altium Limited,Altium Designer,20.0.13 (296)*
G04*
G04 Layer_Color=2752767*
%FSLAX24Y24*%
%MOIN*%
G70*
G01*
G75*
%ADD25C,0.0200*%
%ADD26C,0.0039*%
%ADD89C,0.0020*%
%ADD90C,0.0027*%
D25*
X27550Y0D02*
Y13000D01*
X0D02*
X27550D01*
X0Y0D02*
Y13000D01*
Y0D02*
X100D01*
X0D02*
X200D01*
X0D02*
X27550D01*
D26*
X10910Y1935D02*
Y2575D01*
X10590Y1935D02*
Y2575D01*
X10910D01*
X10590Y1935D02*
X10910D01*
Y7435D02*
Y8075D01*
X10590Y7435D02*
Y8075D01*
X10910D01*
X10590Y7435D02*
X10910D01*
Y3768D02*
Y4408D01*
X10590Y3768D02*
Y4408D01*
X10910D01*
X10590Y3768D02*
X10910D01*
X6735Y7090D02*
X7375D01*
X6735Y7410D02*
X7375D01*
Y7090D02*
Y7410D01*
X6735Y7090D02*
Y7410D01*
X10910Y5602D02*
Y6241D01*
X10590Y5602D02*
Y6241D01*
X10910D01*
X10590Y5602D02*
X10910D01*
X14365Y5963D02*
X15035D01*
X14365Y6337D02*
X15035D01*
Y5963D02*
Y6337D01*
X14365Y5963D02*
Y6337D01*
X12324Y5958D02*
X12994D01*
X12324Y6332D02*
X12994D01*
Y5958D02*
Y6332D01*
X12324Y5958D02*
Y6332D01*
Y4061D02*
X12994D01*
X12324Y4435D02*
X12994D01*
Y4061D02*
Y4435D01*
X12324Y4061D02*
Y4435D01*
X14365Y4066D02*
X15035D01*
X14365Y4440D02*
X15035D01*
Y4066D02*
Y4440D01*
X14365Y4066D02*
Y4440D01*
X5260Y4300D02*
Y4940D01*
X4940Y4300D02*
Y4940D01*
X5260D01*
X4940Y4300D02*
X5260D01*
X17765Y8837D02*
X18435D01*
X17765Y8463D02*
X18435D01*
X17765D02*
Y8837D01*
X18435Y8463D02*
Y8837D01*
X16437Y5215D02*
Y5885D01*
X16063Y5215D02*
Y5885D01*
X16437D01*
X16063Y5215D02*
X16437D01*
X23015Y11213D02*
X23685D01*
X23015Y11587D02*
X23685D01*
Y11213D02*
Y11587D01*
X23015Y11213D02*
Y11587D01*
X17860Y4085D02*
Y4725D01*
X17540Y4085D02*
Y4725D01*
X17860D01*
X17540Y4085D02*
X17860D01*
X16410Y1285D02*
Y1925D01*
X16090Y1285D02*
Y1925D01*
X16410D01*
X16090Y1285D02*
X16410D01*
X14325Y2460D02*
X14965D01*
X14325Y2140D02*
X14965D01*
X14325D02*
Y2460D01*
X14965Y2140D02*
Y2460D01*
X16406Y3014D02*
Y3654D01*
X16086Y3014D02*
Y3654D01*
X16406D01*
X16086Y3014D02*
X16406D01*
X17285Y5740D02*
X17925D01*
X17285Y6060D02*
X17925D01*
Y5740D02*
Y6060D01*
X17285Y5740D02*
Y6060D01*
X12385Y2140D02*
X13025D01*
X12385Y2460D02*
X13025D01*
Y2140D02*
Y2460D01*
X12385Y2140D02*
Y2460D01*
D89*
X26120Y1670D02*
Y1830D01*
X26280D01*
Y1670D01*
X26120D01*
X26098Y11098D02*
Y11258D01*
X26258D01*
Y11098D01*
X26098D01*
X17860Y10951D02*
X17780Y11111D01*
X17940D01*
X17860Y10951D01*
X19750D02*
X19670Y11111D01*
X19830D01*
X19750Y10951D01*
X21640D02*
X21560Y11111D01*
X21720D01*
X21640Y10951D01*
X12550Y10851D02*
X12590Y10891D01*
X12630D01*
X12590Y10931D01*
X12630Y10971D01*
X12590D01*
X12550Y11011D01*
X12510Y10971D01*
X12470D01*
X12510Y10931D01*
X12470Y10891D01*
X12510D01*
X12550Y10851D01*
Y11851D02*
X12590Y11891D01*
X12630D01*
X12590Y11931D01*
X12630Y11971D01*
X12590D01*
X12550Y12011D01*
X12510Y11971D01*
X12470D01*
X12510Y11931D01*
X12470Y11891D01*
X12510D01*
X12550Y11851D01*
X13550Y10851D02*
X13590Y10891D01*
X13630D01*
X13590Y10931D01*
X13630Y10971D01*
X13590D01*
X13550Y11011D01*
X13510Y10971D01*
X13470D01*
X13510Y10931D01*
X13470Y10891D01*
X13510D01*
X13550Y10851D01*
Y11851D02*
X13590Y11891D01*
X13630D01*
X13590Y11931D01*
X13630Y11971D01*
X13590D01*
X13550Y12011D01*
X13510Y11971D01*
X13470D01*
X13510Y11931D01*
X13470Y11891D01*
X13510D01*
X13550Y11851D01*
X14550Y10851D02*
X14590Y10891D01*
X14630D01*
X14590Y10931D01*
X14630Y10971D01*
X14590D01*
X14550Y11011D01*
X14510Y10971D01*
X14470D01*
X14510Y10931D01*
X14470Y10891D01*
X14510D01*
X14550Y10851D01*
Y11851D02*
X14590Y11891D01*
X14630D01*
X14590Y11931D01*
X14630Y11971D01*
X14590D01*
X14550Y12011D01*
X14510Y11971D01*
X14470D01*
X14510Y11931D01*
X14470Y11891D01*
X14510D01*
X14550Y11851D01*
X1292Y11142D02*
Y11302D01*
X1452D01*
Y11142D01*
X1292D01*
X1320Y1620D02*
Y1780D01*
X1480D01*
Y1620D01*
X1320D01*
X14089Y10313D02*
X14129Y10393D01*
X14089Y10473D01*
X14169Y10433D01*
X14249Y10473D01*
X14209Y10393D01*
X14249Y10313D01*
X14169Y10353D01*
X14089Y10313D01*
X12370Y9370D02*
X12410Y9450D01*
X12370Y9530D01*
X12450Y9490D01*
X12530Y9530D01*
X12490Y9450D01*
X12530Y9370D01*
X12450Y9410D01*
X12370Y9370D01*
X4970Y3770D02*
X5010Y3850D01*
X4970Y3930D01*
X5050Y3890D01*
X5130Y3930D01*
X5090Y3850D01*
X5130Y3770D01*
X5050Y3810D01*
X4970Y3770D01*
X5420Y3420D02*
X5460Y3500D01*
X5420Y3580D01*
X5500Y3540D01*
X5580Y3580D01*
X5540Y3500D01*
X5580Y3420D01*
X5500Y3460D01*
X5420Y3420D01*
X14770D02*
X14810Y3500D01*
X14770Y3580D01*
X14850Y3540D01*
X14930Y3580D01*
X14890Y3500D01*
X14930Y3420D01*
X14850Y3460D01*
X14770Y3420D01*
X15620Y2570D02*
X15660Y2650D01*
X15620Y2730D01*
X15700Y2690D01*
X15780Y2730D01*
X15740Y2650D01*
X15780Y2570D01*
X15700Y2610D01*
X15620Y2570D01*
X4070Y10770D02*
X4110Y10850D01*
X4070Y10930D01*
X4150Y10890D01*
X4230Y10930D01*
X4190Y10850D01*
X4230Y10770D01*
X4150Y10810D01*
X4070Y10770D01*
X7120Y3670D02*
X7160Y3750D01*
X7120Y3830D01*
X7200Y3790D01*
X7280Y3830D01*
X7240Y3750D01*
X7280Y3670D01*
X7200Y3710D01*
X7120Y3670D01*
X6720Y3120D02*
X6760Y3200D01*
X6720Y3280D01*
X6800Y3240D01*
X6880Y3280D01*
X6840Y3200D01*
X6880Y3120D01*
X6800Y3160D01*
X6720Y3120D01*
X11070Y5620D02*
X11110Y5700D01*
X11070Y5780D01*
X11150Y5740D01*
X11230Y5780D01*
X11190Y5700D01*
X11230Y5620D01*
X11150Y5660D01*
X11070Y5620D01*
X17670Y5170D02*
X17710Y5250D01*
X17670Y5330D01*
X17750Y5290D01*
X17830Y5330D01*
X17790Y5250D01*
X17830Y5170D01*
X17750Y5210D01*
X17670Y5170D01*
X18170Y4920D02*
X18210Y5000D01*
X18170Y5080D01*
X18250Y5040D01*
X18330Y5080D01*
X18290Y5000D01*
X18330Y4920D01*
X18250Y4960D01*
X18170Y4920D01*
X18070Y4270D02*
X18110Y4350D01*
X18070Y4430D01*
X18150Y4390D01*
X18230Y4430D01*
X18190Y4350D01*
X18230Y4270D01*
X18150Y4310D01*
X18070Y4270D01*
X11570Y8520D02*
X11610Y8600D01*
X11570Y8680D01*
X11650Y8640D01*
X11730Y8680D01*
X11690Y8600D01*
X11730Y8520D01*
X11650Y8560D01*
X11570Y8520D01*
X11220Y7070D02*
X11260Y7150D01*
X11220Y7230D01*
X11300Y7190D01*
X11380Y7230D01*
X11340Y7150D01*
X11380Y7070D01*
X11300Y7110D01*
X11220Y7070D01*
X26420Y3570D02*
X26460Y3650D01*
X26420Y3730D01*
X26500Y3690D01*
X26580Y3730D01*
X26540Y3650D01*
X26580Y3570D01*
X26500Y3610D01*
X26420Y3570D01*
X25770Y3520D02*
X25810Y3600D01*
X25770Y3680D01*
X25850Y3640D01*
X25930Y3680D01*
X25890Y3600D01*
X25930Y3520D01*
X25850Y3560D01*
X25770Y3520D01*
X25120D02*
X25160Y3600D01*
X25120Y3680D01*
X25200Y3640D01*
X25280Y3680D01*
X25240Y3600D01*
X25280Y3520D01*
X25200Y3560D01*
X25120Y3520D01*
X24470D02*
X24510Y3600D01*
X24470Y3680D01*
X24550Y3640D01*
X24630Y3680D01*
X24590Y3600D01*
X24630Y3520D01*
X24550Y3560D01*
X24470Y3520D01*
X23770D02*
X23810Y3600D01*
X23770Y3680D01*
X23850Y3640D01*
X23930Y3680D01*
X23890Y3600D01*
X23930Y3520D01*
X23850Y3560D01*
X23770Y3520D01*
X21070Y4852D02*
X21110Y4932D01*
X21070Y5012D01*
X21150Y4972D01*
X21230Y5012D01*
X21190Y4932D01*
X21230Y4852D01*
X21150Y4892D01*
X21070Y4852D01*
Y5440D02*
X21110Y5520D01*
X21070Y5600D01*
X21150Y5560D01*
X21230Y5600D01*
X21190Y5520D01*
X21230Y5440D01*
X21150Y5480D01*
X21070Y5440D01*
X21670Y4770D02*
X21710Y4850D01*
X21670Y4930D01*
X21750Y4890D01*
X21830Y4930D01*
X21790Y4850D01*
X21830Y4770D01*
X21750Y4810D01*
X21670Y4770D01*
X5920Y4420D02*
X5960Y4500D01*
X5920Y4580D01*
X6000Y4540D01*
X6080Y4580D01*
X6040Y4500D01*
X6080Y4420D01*
X6000Y4460D01*
X5920Y4420D01*
X15120Y9310D02*
X15160Y9390D01*
X15120Y9470D01*
X15200Y9430D01*
X15280Y9470D01*
X15240Y9390D01*
X15280Y9310D01*
X15200Y9350D01*
X15120Y9310D01*
X16170Y10070D02*
X16210Y10150D01*
X16170Y10230D01*
X16250Y10190D01*
X16330Y10230D01*
X16290Y10150D01*
X16330Y10070D01*
X16250Y10110D01*
X16170Y10070D01*
X3320Y2820D02*
X3360Y2900D01*
X3320Y2980D01*
X3400Y2940D01*
X3480Y2980D01*
X3440Y2900D01*
X3480Y2820D01*
X3400Y2860D01*
X3320Y2820D01*
X3070Y3370D02*
X3110Y3450D01*
X3070Y3530D01*
X3150Y3490D01*
X3230Y3530D01*
X3190Y3450D01*
X3230Y3370D01*
X3150Y3410D01*
X3070Y3370D01*
X15170Y8070D02*
X15210Y8150D01*
X15170Y8230D01*
X15250Y8190D01*
X15330Y8230D01*
X15290Y8150D01*
X15330Y8070D01*
X15250Y8110D01*
X15170Y8070D01*
X16660Y6270D02*
X16700Y6350D01*
X16660Y6430D01*
X16740Y6390D01*
X16820Y6430D01*
X16780Y6350D01*
X16820Y6270D01*
X16740Y6310D01*
X16660Y6270D01*
X16620Y4370D02*
X16660Y4450D01*
X16620Y4530D01*
X16700Y4490D01*
X16780Y4530D01*
X16740Y4450D01*
X16780Y4370D01*
X16700Y4410D01*
X16620Y4370D01*
X16660Y5180D02*
X16700Y5260D01*
X16660Y5340D01*
X16740Y5300D01*
X16820Y5340D01*
X16780Y5260D01*
X16820Y5180D01*
X16740Y5220D01*
X16660Y5180D01*
X17720Y9670D02*
X17760Y9750D01*
X17720Y9830D01*
X17800Y9790D01*
X17880Y9830D01*
X17840Y9750D01*
X17880Y9670D01*
X17800Y9710D01*
X17720Y9670D01*
X17270Y9620D02*
X17310Y9700D01*
X17270Y9780D01*
X17350Y9740D01*
X17430Y9780D01*
X17390Y9700D01*
X17430Y9620D01*
X17350Y9660D01*
X17270Y9620D01*
X12520Y7320D02*
X12560Y7400D01*
X12520Y7480D01*
X12600Y7440D01*
X12680Y7480D01*
X12640Y7400D01*
X12680Y7320D01*
X12600Y7360D01*
X12520Y7320D01*
X12220D02*
X12260Y7400D01*
X12220Y7480D01*
X12300Y7440D01*
X12380Y7480D01*
X12340Y7400D01*
X12380Y7320D01*
X12300Y7360D01*
X12220Y7320D01*
X5970Y370D02*
X6010Y450D01*
X5970Y530D01*
X6050Y490D01*
X6130Y530D01*
X6090Y450D01*
X6130Y370D01*
X6050Y410D01*
X5970Y370D01*
X5670D02*
X5710Y450D01*
X5670Y530D01*
X5750Y490D01*
X5830Y530D01*
X5790Y450D01*
X5830Y370D01*
X5750Y410D01*
X5670Y370D01*
X5370D02*
X5410Y450D01*
X5370Y530D01*
X5450Y490D01*
X5530Y530D01*
X5490Y450D01*
X5530Y370D01*
X5450Y410D01*
X5370Y370D01*
X5070D02*
X5110Y450D01*
X5070Y530D01*
X5150Y490D01*
X5230Y530D01*
X5190Y450D01*
X5230Y370D01*
X5150Y410D01*
X5070Y370D01*
X19870Y5320D02*
X19910Y5400D01*
X19870Y5480D01*
X19950Y5440D01*
X20030Y5480D01*
X19990Y5400D01*
X20030Y5320D01*
X19950Y5360D01*
X19870Y5320D01*
X16561Y7861D02*
X16601Y7941D01*
X16561Y8021D01*
X16641Y7981D01*
X16721Y8021D01*
X16681Y7941D01*
X16721Y7861D01*
X16641Y7901D01*
X16561Y7861D01*
X17020Y7270D02*
X17060Y7350D01*
X17020Y7430D01*
X17100Y7390D01*
X17180Y7430D01*
X17140Y7350D01*
X17180Y7270D01*
X17100Y7310D01*
X17020Y7270D01*
X24270Y9420D02*
X24310Y9500D01*
X24270Y9580D01*
X24350Y9540D01*
X24430Y9580D01*
X24390Y9500D01*
X24430Y9420D01*
X24350Y9460D01*
X24270Y9420D01*
X20670Y8520D02*
X20710Y8600D01*
X20670Y8680D01*
X20750Y8640D01*
X20830Y8680D01*
X20790Y8600D01*
X20830Y8520D01*
X20750Y8560D01*
X20670Y8520D01*
X22570Y1020D02*
X22610Y1100D01*
X22570Y1180D01*
X22650Y1140D01*
X22730Y1180D01*
X22690Y1100D01*
X22730Y1020D01*
X22650Y1060D01*
X22570Y1020D01*
X22220D02*
X22260Y1100D01*
X22220Y1180D01*
X22300Y1140D01*
X22380Y1180D01*
X22340Y1100D01*
X22380Y1020D01*
X22300Y1060D01*
X22220Y1020D01*
X21870D02*
X21910Y1100D01*
X21870Y1180D01*
X21950Y1140D01*
X22030Y1180D01*
X21990Y1100D01*
X22030Y1020D01*
X21950Y1060D01*
X21870Y1020D01*
X16320Y4020D02*
X16360Y4100D01*
X16320Y4180D01*
X16400Y4140D01*
X16480Y4180D01*
X16440Y4100D01*
X16480Y4020D01*
X16400Y4060D01*
X16320Y4020D01*
X14970Y4670D02*
X15010Y4750D01*
X14970Y4830D01*
X15050Y4790D01*
X15130Y4830D01*
X15090Y4750D01*
X15130Y4670D01*
X15050Y4710D01*
X14970Y4670D01*
Y6520D02*
X15010Y6600D01*
X14970Y6680D01*
X15050Y6640D01*
X15130Y6680D01*
X15090Y6600D01*
X15130Y6520D01*
X15050Y6560D01*
X14970Y6520D01*
X15670Y5920D02*
X15710Y6000D01*
X15670Y6080D01*
X15750Y6040D01*
X15830Y6080D01*
X15790Y6000D01*
X15830Y5920D01*
X15750Y5960D01*
X15670Y5920D01*
X16970Y8570D02*
X17010Y8650D01*
X16970Y8730D01*
X17050Y8690D01*
X17130Y8730D01*
X17090Y8650D01*
X17130Y8570D01*
X17050Y8610D01*
X16970Y8570D01*
X12244Y6594D02*
X12284Y6674D01*
X12244Y6754D01*
X12324Y6714D01*
X12404Y6754D01*
X12364Y6674D01*
X12404Y6594D01*
X12324Y6634D01*
X12244Y6594D01*
X15120Y8820D02*
X15160Y8900D01*
X15120Y8980D01*
X15200Y8940D01*
X15280Y8980D01*
X15240Y8900D01*
X15280Y8820D01*
X15200Y8860D01*
X15120Y8820D01*
X11370Y2470D02*
X11410Y2550D01*
X11370Y2630D01*
X11450Y2590D01*
X11530Y2630D01*
X11490Y2550D01*
X11530Y2470D01*
X11450Y2510D01*
X11370Y2470D01*
X12270Y3170D02*
X12310Y3250D01*
X12270Y3330D01*
X12350Y3290D01*
X12430Y3330D01*
X12390Y3250D01*
X12430Y3170D01*
X12350Y3210D01*
X12270Y3170D01*
Y3620D02*
X12310Y3700D01*
X12270Y3780D01*
X12350Y3740D01*
X12430Y3780D01*
X12390Y3700D01*
X12430Y3620D01*
X12350Y3660D01*
X12270Y3620D01*
X4770Y5220D02*
X4810Y5300D01*
X4770Y5380D01*
X4850Y5340D01*
X4930Y5380D01*
X4890Y5300D01*
X4930Y5220D01*
X4850Y5260D01*
X4770Y5220D01*
X6920Y1020D02*
X6960Y1100D01*
X6920Y1180D01*
X7000Y1140D01*
X7080Y1180D01*
X7040Y1100D01*
X7080Y1020D01*
X7000Y1060D01*
X6920Y1020D01*
Y1520D02*
X6960Y1600D01*
X6920Y1680D01*
X7000Y1640D01*
X7080Y1680D01*
X7040Y1600D01*
X7080Y1520D01*
X7000Y1560D01*
X6920Y1520D01*
Y1920D02*
X6960Y2000D01*
X6920Y2080D01*
X7000Y2040D01*
X7080Y2080D01*
X7040Y2000D01*
X7080Y1920D01*
X7000Y1960D01*
X6920Y1920D01*
Y2320D02*
X6960Y2400D01*
X6920Y2480D01*
X7000Y2440D01*
X7080Y2480D01*
X7040Y2400D01*
X7080Y2320D01*
X7000Y2360D01*
X6920Y2320D01*
X8615Y4802D02*
X8655Y4882D01*
X8615Y4962D01*
X8695Y4922D01*
X8775Y4962D01*
X8735Y4882D01*
X8775Y4802D01*
X8695Y4842D01*
X8615Y4802D01*
X9170Y5270D02*
X9210Y5350D01*
X9170Y5430D01*
X9250Y5390D01*
X9330Y5430D01*
X9290Y5350D01*
X9330Y5270D01*
X9250Y5310D01*
X9170Y5270D01*
X7920Y6570D02*
X7960Y6650D01*
X7920Y6730D01*
X8000Y6690D01*
X8080Y6730D01*
X8040Y6650D01*
X8080Y6570D01*
X8000Y6610D01*
X7920Y6570D01*
X8406Y6184D02*
X8446Y6264D01*
X8406Y6344D01*
X8486Y6304D01*
X8566Y6344D01*
X8526Y6264D01*
X8566Y6184D01*
X8486Y6224D01*
X8406Y6184D01*
X8890Y6120D02*
X8930Y6200D01*
X8890Y6280D01*
X8970Y6240D01*
X9050Y6280D01*
X9010Y6200D01*
X9050Y6120D01*
X8970Y6160D01*
X8890Y6120D01*
X9464Y5814D02*
X9504Y5894D01*
X9464Y5974D01*
X9544Y5934D01*
X9624Y5974D01*
X9584Y5894D01*
X9624Y5814D01*
X9544Y5854D01*
X9464Y5814D01*
X7570Y7670D02*
X7610Y7750D01*
X7570Y7830D01*
X7650Y7790D01*
X7730Y7830D01*
X7690Y7750D01*
X7730Y7670D01*
X7650Y7710D01*
X7570Y7670D01*
X7620Y4870D02*
X7660Y4950D01*
X7620Y5030D01*
X7700Y4990D01*
X7780Y5030D01*
X7740Y4950D01*
X7780Y4870D01*
X7700Y4910D01*
X7620Y4870D01*
X7170Y5320D02*
X7210Y5400D01*
X7170Y5480D01*
X7250Y5440D01*
X7330Y5480D01*
X7290Y5400D01*
X7330Y5320D01*
X7250Y5360D01*
X7170Y5320D01*
X8170Y1470D02*
X8210Y1550D01*
X8170Y1630D01*
X8250Y1590D01*
X8330Y1630D01*
X8290Y1550D01*
X8330Y1470D01*
X8250Y1510D01*
X8170Y1470D01*
Y2120D02*
X8210Y2200D01*
X8170Y2280D01*
X8250Y2240D01*
X8330Y2280D01*
X8290Y2200D01*
X8330Y2120D01*
X8250Y2160D01*
X8170Y2120D01*
X18720Y2020D02*
X18760Y2100D01*
X18720Y2180D01*
X18800Y2140D01*
X18880Y2180D01*
X18840Y2100D01*
X18880Y2020D01*
X18800Y2060D01*
X18720Y2020D01*
Y2570D02*
X18760Y2650D01*
X18720Y2730D01*
X18800Y2690D01*
X18880Y2730D01*
X18840Y2650D01*
X18880Y2570D01*
X18800Y2610D01*
X18720Y2570D01*
X18370Y7520D02*
X18410Y7600D01*
X18370Y7680D01*
X18450Y7640D01*
X18530Y7680D01*
X18490Y7600D01*
X18530Y7520D01*
X18450Y7560D01*
X18370Y7520D01*
Y8020D02*
X18410Y8100D01*
X18370Y8180D01*
X18450Y8140D01*
X18530Y8180D01*
X18490Y8100D01*
X18530Y8020D01*
X18450Y8060D01*
X18370Y8020D01*
X4020Y8120D02*
X4060Y8200D01*
X4020Y8280D01*
X4100Y8240D01*
X4180Y8280D01*
X4140Y8200D01*
X4180Y8120D01*
X4100Y8160D01*
X4020Y8120D01*
Y8370D02*
X4060Y8450D01*
X4020Y8530D01*
X4100Y8490D01*
X4180Y8530D01*
X4140Y8450D01*
X4180Y8370D01*
X4100Y8410D01*
X4020Y8370D01*
X8120Y7670D02*
X8160Y7750D01*
X8120Y7830D01*
X8200Y7790D01*
X8280Y7830D01*
X8240Y7750D01*
X8280Y7670D01*
X8200Y7710D01*
X8120Y7670D01*
Y8120D02*
X8160Y8200D01*
X8120Y8280D01*
X8200Y8240D01*
X8280Y8280D01*
X8240Y8200D01*
X8280Y8120D01*
X8200Y8160D01*
X8120Y8120D01*
X9520Y8820D02*
X9560Y8900D01*
X9520Y8980D01*
X9600Y8940D01*
X9680Y8980D01*
X9640Y8900D01*
X9680Y8820D01*
X9600Y8860D01*
X9520Y8820D01*
X20470Y6320D02*
X20510Y6400D01*
X20470Y6480D01*
X20550Y6440D01*
X20630Y6480D01*
X20590Y6400D01*
X20630Y6320D01*
X20550Y6360D01*
X20470Y6320D01*
X20950Y6335D02*
X20990Y6415D01*
X20950Y6495D01*
X21030Y6455D01*
X21110Y6495D01*
X21070Y6415D01*
X21110Y6335D01*
X21030Y6375D01*
X20950Y6335D01*
X21270Y970D02*
X21310Y1050D01*
X21270Y1130D01*
X21350Y1090D01*
X21430Y1130D01*
X21390Y1050D01*
X21430Y970D01*
X21350Y1010D01*
X21270Y970D01*
X20970Y3620D02*
X21010Y3700D01*
X20970Y3780D01*
X21050Y3740D01*
X21130Y3780D01*
X21090Y3700D01*
X21130Y3620D01*
X21050Y3660D01*
X20970Y3620D01*
X22220Y9070D02*
X22260Y9150D01*
X22220Y9230D01*
X22300Y9190D01*
X22380Y9230D01*
X22340Y9150D01*
X22380Y9070D01*
X22300Y9110D01*
X22220Y9070D01*
X22970Y8520D02*
X23010Y8600D01*
X22970Y8680D01*
X23050Y8640D01*
X23130Y8680D01*
X23090Y8600D01*
X23130Y8520D01*
X23050Y8560D01*
X22970Y8520D01*
X23570Y7020D02*
X23610Y7100D01*
X23570Y7180D01*
X23650Y7140D01*
X23730Y7180D01*
X23690Y7100D01*
X23730Y7020D01*
X23650Y7060D01*
X23570Y7020D01*
X19740Y3900D02*
X19780Y3980D01*
X19740Y4060D01*
X19820Y4020D01*
X19900Y4060D01*
X19860Y3980D01*
X19900Y3900D01*
X19820Y3940D01*
X19740Y3900D01*
X19520Y3520D02*
X19560Y3600D01*
X19520Y3680D01*
X19600Y3640D01*
X19680Y3680D01*
X19640Y3600D01*
X19680Y3520D01*
X19600Y3560D01*
X19520Y3520D01*
X17770Y6270D02*
X17810Y6350D01*
X17770Y6430D01*
X17850Y6390D01*
X17930Y6430D01*
X17890Y6350D01*
X17930Y6270D01*
X17850Y6310D01*
X17770Y6270D01*
X18320Y6470D02*
X18360Y6550D01*
X18320Y6630D01*
X18400Y6590D01*
X18480Y6630D01*
X18440Y6550D01*
X18480Y6470D01*
X18400Y6510D01*
X18320Y6470D01*
X12955Y1785D02*
X12995Y1865D01*
X12955Y1945D01*
X13035Y1905D01*
X13115Y1945D01*
X13075Y1865D01*
X13115Y1785D01*
X13035Y1825D01*
X12955Y1785D01*
X19517Y6667D02*
X19557Y6747D01*
X19517Y6827D01*
X19597Y6787D01*
X19677Y6827D01*
X19637Y6747D01*
X19677Y6667D01*
X19597Y6707D01*
X19517Y6667D01*
X19970Y6620D02*
X20010Y6700D01*
X19970Y6780D01*
X20050Y6740D01*
X20130Y6780D01*
X20090Y6700D01*
X20130Y6620D01*
X20050Y6660D01*
X19970Y6620D01*
X19202Y6370D02*
X19242Y6450D01*
X19202Y6530D01*
X19282Y6490D01*
X19362Y6530D01*
X19322Y6450D01*
X19362Y6370D01*
X19282Y6410D01*
X19202Y6370D01*
X18370Y5488D02*
X18410Y5568D01*
X18370Y5648D01*
X18450Y5608D01*
X18530Y5648D01*
X18490Y5568D01*
X18530Y5488D01*
X18450Y5528D01*
X18370Y5488D01*
X17320Y3020D02*
X17360Y3100D01*
X17320Y3180D01*
X17400Y3140D01*
X17480Y3180D01*
X17440Y3100D01*
X17480Y3020D01*
X17400Y3060D01*
X17320Y3020D01*
X17400Y2270D02*
X17440Y2350D01*
X17400Y2430D01*
X17480Y2390D01*
X17560Y2430D01*
X17520Y2350D01*
X17560Y2270D01*
X17480Y2310D01*
X17400Y2270D01*
X20270Y7620D02*
X20310Y7700D01*
X20270Y7780D01*
X20350Y7740D01*
X20430Y7780D01*
X20390Y7700D01*
X20430Y7620D01*
X20350Y7660D01*
X20270Y7620D01*
X20220Y7020D02*
X20260Y7100D01*
X20220Y7180D01*
X20300Y7140D01*
X20380Y7180D01*
X20340Y7100D01*
X20380Y7020D01*
X20300Y7060D01*
X20220Y7020D01*
X16770Y2170D02*
X16810Y2250D01*
X16770Y2330D01*
X16850Y2290D01*
X16930Y2330D01*
X16890Y2250D01*
X16930Y2170D01*
X16850Y2210D01*
X16770Y2170D01*
X16970Y3720D02*
X17010Y3800D01*
X16970Y3880D01*
X17050Y3840D01*
X17130Y3880D01*
X17090Y3800D01*
X17130Y3720D01*
X17050Y3760D01*
X16970Y3720D01*
X13870Y6070D02*
X13910Y6150D01*
X13870Y6230D01*
X13950Y6190D01*
X14030Y6230D01*
X13990Y6150D01*
X14030Y6070D01*
X13950Y6110D01*
X13870Y6070D01*
X11880Y9032D02*
X11920Y9112D01*
X11880Y9192D01*
X11960Y9152D01*
X12040Y9192D01*
X12000Y9112D01*
X12040Y9032D01*
X11960Y9072D01*
X11880Y9032D01*
X11170Y4020D02*
X11210Y4100D01*
X11170Y4180D01*
X11250Y4140D01*
X11330Y4180D01*
X11290Y4100D01*
X11330Y4020D01*
X11250Y4060D01*
X11170Y4020D01*
X10312Y4338D02*
X10352Y4418D01*
X10312Y4498D01*
X10392Y4458D01*
X10472Y4498D01*
X10432Y4418D01*
X10472Y4338D01*
X10392Y4378D01*
X10312Y4338D01*
X9620Y4170D02*
X9660Y4250D01*
X9620Y4330D01*
X9700Y4290D01*
X9780Y4330D01*
X9740Y4250D01*
X9780Y4170D01*
X9700Y4210D01*
X9620Y4170D01*
X9070Y4620D02*
X9110Y4700D01*
X9070Y4780D01*
X9150Y4740D01*
X9230Y4780D01*
X9190Y4700D01*
X9230Y4620D01*
X9150Y4660D01*
X9070Y4620D01*
X6570Y6320D02*
X6610Y6400D01*
X6570Y6480D01*
X6650Y6440D01*
X6730Y6480D01*
X6690Y6400D01*
X6730Y6320D01*
X6650Y6360D01*
X6570Y6320D01*
X10170Y1070D02*
X10210Y1150D01*
X10170Y1230D01*
X10250Y1190D01*
X10330Y1230D01*
X10290Y1150D01*
X10330Y1070D01*
X10250Y1110D01*
X10170Y1070D01*
X7520Y8720D02*
X7560Y8800D01*
X7520Y8880D01*
X7600Y8840D01*
X7680Y8880D01*
X7640Y8800D01*
X7680Y8720D01*
X7600Y8760D01*
X7520Y8720D01*
X5170Y7620D02*
X5210Y7700D01*
X5170Y7780D01*
X5250Y7740D01*
X5330Y7780D01*
X5290Y7700D01*
X5330Y7620D01*
X5250Y7660D01*
X5170Y7620D01*
X5920Y4870D02*
X5960Y4950D01*
X5920Y5030D01*
X6000Y4990D01*
X6080Y5030D01*
X6040Y4950D01*
X6080Y4870D01*
X6000Y4910D01*
X5920Y4870D01*
X5670Y8520D02*
X5710Y8600D01*
X5670Y8680D01*
X5750Y8640D01*
X5830Y8680D01*
X5790Y8600D01*
X5830Y8520D01*
X5750Y8560D01*
X5670Y8520D01*
X7470Y6470D02*
X7510Y6550D01*
X7470Y6630D01*
X7550Y6590D01*
X7630Y6630D01*
X7590Y6550D01*
X7630Y6470D01*
X7550Y6510D01*
X7470Y6470D01*
X6175Y5415D02*
X6215Y5495D01*
X6175Y5575D01*
X6255Y5535D01*
X6335Y5575D01*
X6295Y5495D01*
X6335Y5415D01*
X6255Y5455D01*
X6175Y5415D01*
X7075Y6510D02*
X7115Y6590D01*
X7075Y6670D01*
X7155Y6630D01*
X7235Y6670D01*
X7195Y6590D01*
X7235Y6510D01*
X7155Y6550D01*
X7075Y6510D01*
X6170Y8770D02*
X6210Y8850D01*
X6170Y8930D01*
X6250Y8890D01*
X6330Y8930D01*
X6290Y8850D01*
X6330Y8770D01*
X6250Y8810D01*
X6170Y8770D01*
X12520Y4670D02*
X12560Y4750D01*
X12520Y4830D01*
X12600Y4790D01*
X12680Y4830D01*
X12640Y4750D01*
X12680Y4670D01*
X12600Y4710D01*
X12520Y4670D01*
X13570Y5420D02*
X13610Y5500D01*
X13570Y5580D01*
X13650Y5540D01*
X13730Y5580D01*
X13690Y5500D01*
X13730Y5420D01*
X13650Y5460D01*
X13570Y5420D01*
X16150Y6540D02*
X16190Y6620D01*
X16150Y6700D01*
X16230Y6660D01*
X16310Y6700D01*
X16270Y6620D01*
X16310Y6540D01*
X16230Y6580D01*
X16150Y6540D01*
X10670Y6620D02*
X10710Y6700D01*
X10670Y6780D01*
X10750Y6740D01*
X10830Y6780D01*
X10790Y6700D01*
X10830Y6620D01*
X10750Y6660D01*
X10670Y6620D01*
Y1370D02*
X10710Y1450D01*
X10670Y1530D01*
X10750Y1490D01*
X10830Y1530D01*
X10790Y1450D01*
X10830Y1370D01*
X10750Y1410D01*
X10670Y1370D01*
Y8570D02*
X10710Y8650D01*
X10670Y8730D01*
X10750Y8690D01*
X10830Y8730D01*
X10790Y8650D01*
X10830Y8570D01*
X10750Y8610D01*
X10670Y8570D01*
X9770Y6670D02*
X9810Y6750D01*
X9770Y6830D01*
X9850Y6790D01*
X9930Y6830D01*
X9890Y6750D01*
X9930Y6670D01*
X9850Y6710D01*
X9770Y6670D01*
X6650Y8000D02*
X6690Y8080D01*
X6650Y8160D01*
X6730Y8120D01*
X6810Y8160D01*
X6770Y8080D01*
X6810Y8000D01*
X6730Y8040D01*
X6650Y8000D01*
X10670Y3090D02*
X10710Y3170D01*
X10670Y3250D01*
X10750Y3210D01*
X10830Y3250D01*
X10790Y3170D01*
X10830Y3090D01*
X10750Y3130D01*
X10670Y3090D01*
X11020Y5120D02*
X11060Y5200D01*
X11020Y5280D01*
X11100Y5240D01*
X11180Y5280D01*
X11140Y5200D01*
X11180Y5120D01*
X11100Y5160D01*
X11020Y5120D01*
X11670Y5170D02*
X11710Y5250D01*
X11670Y5330D01*
X11750Y5290D01*
X11830Y5330D01*
X11790Y5250D01*
X11830Y5170D01*
X11750Y5210D01*
X11670Y5170D01*
X11880Y11850D02*
X11920Y11930D01*
X11880Y12010D01*
X11960Y11970D01*
X12040Y12010D01*
X12000Y11930D01*
X12040Y11850D01*
X11960Y11890D01*
X11880Y11850D01*
X10270Y5820D02*
X10310Y5900D01*
X10270Y5980D01*
X10350Y5940D01*
X10430Y5980D01*
X10390Y5900D01*
X10430Y5820D01*
X10350Y5860D01*
X10270Y5820D01*
X13170Y8020D02*
X13210Y8100D01*
X13170Y8180D01*
X13250Y8140D01*
X13330Y8180D01*
X13290Y8100D01*
X13330Y8020D01*
X13250Y8060D01*
X13170Y8020D01*
D90*
X9380Y11350D02*
G03*
X9380Y11350I-80J0D01*
G01*
X7380D02*
G03*
X7380Y11350I-80J0D01*
G01*
X26030Y7400D02*
G03*
X26030Y7400I-80J0D01*
G01*
Y5400D02*
G03*
X26030Y5400I-80J0D01*
G01*
X1730Y5200D02*
G03*
X1730Y5200I-80J0D01*
G01*
Y7200D02*
G03*
X1730Y7200I-80J0D01*
G01*
M02*
