G04*
G04 #@! TF.GenerationSoftware,Altium Limited,Altium Designer,20.0.13 (296)*
G04*
G04 Layer_Color=32896*
%FSLAX24Y24*%
%MOIN*%
G70*
G01*
G75*
%ADD11C,0.0079*%
%ADD25C,0.0200*%
%ADD26C,0.0039*%
G36*
X21017Y9351D02*
X21024Y9350D01*
X21030Y9349D01*
X21036Y9348D01*
X21040Y9346D01*
X21043Y9344D01*
X21046Y9343D01*
X21046Y9343D01*
X21052Y9340D01*
X21058Y9335D01*
X21062Y9331D01*
X21065Y9328D01*
X21069Y9324D01*
X21071Y9321D01*
X21072Y9320D01*
X21073Y9319D01*
X21076Y9313D01*
X21078Y9307D01*
X21080Y9302D01*
X21081Y9297D01*
X21082Y9292D01*
X21082Y9288D01*
Y9286D01*
Y9286D01*
Y9286D01*
X21082Y9279D01*
X21080Y9273D01*
X21079Y9268D01*
X21077Y9263D01*
X21075Y9259D01*
X21074Y9256D01*
X21073Y9254D01*
X21072Y9253D01*
X21068Y9248D01*
X21064Y9244D01*
X21059Y9239D01*
X21055Y9236D01*
X21051Y9233D01*
X21048Y9231D01*
X21046Y9230D01*
X21046Y9229D01*
X21053Y9226D01*
X21060Y9222D01*
X21065Y9217D01*
X21070Y9213D01*
X21074Y9209D01*
X21077Y9206D01*
X21079Y9204D01*
X21080Y9203D01*
Y9203D01*
X21084Y9196D01*
X21087Y9189D01*
X21090Y9182D01*
X21091Y9175D01*
X21092Y9169D01*
X21093Y9165D01*
X21093Y9164D01*
Y9162D01*
Y9162D01*
Y9162D01*
X21093Y9154D01*
X21091Y9146D01*
X21090Y9140D01*
X21088Y9134D01*
X21086Y9129D01*
X21084Y9125D01*
X21083Y9123D01*
X21083Y9122D01*
X21078Y9116D01*
X21073Y9111D01*
X21068Y9106D01*
X21063Y9102D01*
X21059Y9100D01*
X21056Y9097D01*
X21053Y9096D01*
X21053Y9095D01*
X21045Y9093D01*
X21038Y9090D01*
X21031Y9088D01*
X21024Y9087D01*
X21018Y9087D01*
X21014Y9086D01*
X21010D01*
X21001Y9087D01*
X20993Y9087D01*
X20986Y9089D01*
X20979Y9091D01*
X20974Y9093D01*
X20970Y9094D01*
X20967Y9095D01*
X20966Y9095D01*
X20959Y9099D01*
X20954Y9104D01*
X20949Y9108D01*
X20944Y9112D01*
X20941Y9116D01*
X20939Y9119D01*
X20937Y9121D01*
X20937Y9122D01*
X20933Y9129D01*
X20931Y9136D01*
X20929Y9142D01*
X20927Y9148D01*
X20927Y9154D01*
X20926Y9158D01*
Y9159D01*
Y9161D01*
Y9161D01*
Y9162D01*
X20927Y9169D01*
X20928Y9177D01*
X20930Y9184D01*
X20933Y9190D01*
X20935Y9195D01*
X20937Y9199D01*
X20939Y9201D01*
X20939Y9202D01*
X20944Y9209D01*
X20950Y9214D01*
X20956Y9219D01*
X20961Y9223D01*
X20966Y9226D01*
X20970Y9228D01*
X20972Y9229D01*
X20973Y9229D01*
X20973D01*
X20967Y9233D01*
X20962Y9237D01*
X20957Y9241D01*
X20954Y9245D01*
X20951Y9248D01*
X20949Y9251D01*
X20947Y9253D01*
X20947Y9254D01*
X20944Y9260D01*
X20942Y9265D01*
X20940Y9271D01*
X20939Y9276D01*
X20938Y9279D01*
X20937Y9283D01*
Y9285D01*
Y9286D01*
X20938Y9292D01*
X20939Y9299D01*
X20940Y9304D01*
X20942Y9309D01*
X20944Y9313D01*
X20945Y9317D01*
X20946Y9318D01*
X20947Y9319D01*
X20950Y9325D01*
X20954Y9329D01*
X20959Y9333D01*
X20963Y9337D01*
X20967Y9339D01*
X20970Y9341D01*
X20972Y9343D01*
X20973Y9343D01*
X20979Y9346D01*
X20986Y9348D01*
X20992Y9350D01*
X20997Y9350D01*
X21002Y9351D01*
X21006Y9352D01*
X21010D01*
X21017Y9351D01*
D02*
G37*
G36*
X21256D02*
X21266Y9350D01*
X21275Y9348D01*
X21284Y9346D01*
X21292Y9343D01*
X21299Y9340D01*
X21306Y9337D01*
X21313Y9333D01*
X21318Y9330D01*
X21323Y9326D01*
X21327Y9323D01*
X21330Y9320D01*
X21333Y9318D01*
X21335Y9316D01*
X21336Y9315D01*
X21337Y9315D01*
X21343Y9308D01*
X21348Y9300D01*
X21353Y9292D01*
X21356Y9283D01*
X21360Y9275D01*
X21362Y9267D01*
X21365Y9259D01*
X21366Y9251D01*
X21367Y9244D01*
X21369Y9237D01*
X21369Y9231D01*
X21370Y9226D01*
Y9221D01*
X21370Y9218D01*
Y9216D01*
Y9215D01*
X21370Y9205D01*
X21369Y9194D01*
X21367Y9185D01*
X21365Y9176D01*
X21363Y9168D01*
X21360Y9160D01*
X21357Y9153D01*
X21354Y9147D01*
X21351Y9141D01*
X21348Y9136D01*
X21345Y9132D01*
X21343Y9128D01*
X21340Y9125D01*
X21339Y9123D01*
X21338Y9122D01*
X21338Y9122D01*
X21331Y9115D01*
X21324Y9110D01*
X21317Y9105D01*
X21310Y9101D01*
X21302Y9097D01*
X21295Y9095D01*
X21288Y9092D01*
X21281Y9090D01*
X21274Y9089D01*
X21268Y9088D01*
X21263Y9087D01*
X21259Y9086D01*
X21255D01*
X21252Y9086D01*
X21249D01*
X21241Y9086D01*
X21234Y9087D01*
X21226Y9087D01*
X21220Y9089D01*
X21215Y9090D01*
X21211Y9090D01*
X21209Y9091D01*
X21208Y9091D01*
X21159Y9055D01*
X21104D01*
X21177Y9107D01*
X21170Y9112D01*
X21167Y9115D01*
X21165Y9117D01*
X21162Y9119D01*
X21161Y9121D01*
X21160Y9122D01*
X21160Y9122D01*
X21154Y9129D01*
X21148Y9137D01*
X21144Y9145D01*
X21140Y9153D01*
X21137Y9162D01*
X21134Y9170D01*
X21132Y9178D01*
X21130Y9186D01*
X21129Y9193D01*
X21127Y9200D01*
X21127Y9206D01*
X21126Y9211D01*
Y9216D01*
X21126Y9219D01*
Y9221D01*
Y9221D01*
X21126Y9232D01*
X21127Y9242D01*
X21129Y9252D01*
X21131Y9261D01*
X21133Y9269D01*
X21136Y9277D01*
X21139Y9284D01*
X21142Y9290D01*
X21145Y9296D01*
X21148Y9301D01*
X21151Y9305D01*
X21154Y9309D01*
X21156Y9312D01*
X21157Y9314D01*
X21158Y9315D01*
X21159Y9315D01*
X21165Y9322D01*
X21172Y9328D01*
X21179Y9332D01*
X21186Y9336D01*
X21193Y9340D01*
X21200Y9343D01*
X21207Y9345D01*
X21214Y9347D01*
X21221Y9349D01*
X21226Y9350D01*
X21232Y9350D01*
X21236Y9351D01*
X21240D01*
X21243Y9352D01*
X21245D01*
X21256Y9351D01*
D02*
G37*
G36*
X21141Y4498D02*
X21013D01*
X21027Y4474D01*
X21033Y4462D01*
X21039Y4451D01*
X21045Y4440D01*
X21050Y4429D01*
X21054Y4420D01*
X21058Y4411D01*
X21062Y4402D01*
X21066Y4395D01*
X21068Y4389D01*
X21071Y4383D01*
X21072Y4379D01*
X21073Y4376D01*
X21074Y4374D01*
X21075Y4373D01*
X21083Y4352D01*
X21086Y4342D01*
X21089Y4333D01*
X21092Y4324D01*
X21094Y4315D01*
X21096Y4307D01*
X21098Y4300D01*
X21099Y4293D01*
X21101Y4287D01*
X21102Y4282D01*
X21103Y4278D01*
X21103Y4275D01*
X21103Y4272D01*
X21104Y4270D01*
Y4270D01*
X21070D01*
X21067Y4288D01*
X21063Y4306D01*
X21058Y4324D01*
X21056Y4332D01*
X21054Y4340D01*
X21051Y4348D01*
X21049Y4354D01*
X21047Y4361D01*
X21045Y4366D01*
X21044Y4370D01*
X21042Y4374D01*
X21042Y4375D01*
X21041Y4376D01*
X21032Y4399D01*
X21021Y4422D01*
X21016Y4433D01*
X21011Y4444D01*
X21006Y4454D01*
X21001Y4464D01*
X20996Y4473D01*
X20992Y4482D01*
X20987Y4489D01*
X20984Y4495D01*
X20981Y4500D01*
X20979Y4504D01*
X20978Y4506D01*
X20977Y4507D01*
Y4527D01*
X21141D01*
Y4498D01*
D02*
G37*
G36*
X21306Y4531D02*
X21316Y4530D01*
X21325Y4528D01*
X21334Y4526D01*
X21342Y4523D01*
X21349Y4520D01*
X21356Y4517D01*
X21363Y4513D01*
X21368Y4510D01*
X21373Y4506D01*
X21377Y4503D01*
X21380Y4500D01*
X21383Y4498D01*
X21385Y4496D01*
X21386Y4495D01*
X21387Y4495D01*
X21393Y4488D01*
X21398Y4480D01*
X21403Y4472D01*
X21406Y4463D01*
X21410Y4455D01*
X21412Y4447D01*
X21415Y4439D01*
X21416Y4431D01*
X21418Y4424D01*
X21419Y4417D01*
X21419Y4411D01*
X21420Y4406D01*
Y4401D01*
X21420Y4398D01*
Y4396D01*
Y4395D01*
X21420Y4385D01*
X21419Y4374D01*
X21418Y4365D01*
X21415Y4356D01*
X21413Y4348D01*
X21410Y4340D01*
X21407Y4333D01*
X21404Y4327D01*
X21401Y4321D01*
X21398Y4316D01*
X21395Y4312D01*
X21393Y4308D01*
X21390Y4305D01*
X21389Y4303D01*
X21388Y4302D01*
X21388Y4302D01*
X21381Y4295D01*
X21374Y4290D01*
X21367Y4285D01*
X21360Y4281D01*
X21352Y4277D01*
X21345Y4275D01*
X21338Y4272D01*
X21331Y4270D01*
X21324Y4269D01*
X21319Y4268D01*
X21313Y4267D01*
X21309Y4266D01*
X21305D01*
X21302Y4266D01*
X21299D01*
X21291Y4266D01*
X21284Y4267D01*
X21276Y4268D01*
X21270Y4269D01*
X21265Y4270D01*
X21261Y4270D01*
X21259Y4271D01*
X21258Y4271D01*
X21209Y4235D01*
X21154D01*
X21227Y4287D01*
X21220Y4292D01*
X21217Y4295D01*
X21214Y4297D01*
X21212Y4299D01*
X21211Y4301D01*
X21210Y4302D01*
X21209Y4302D01*
X21204Y4309D01*
X21198Y4317D01*
X21194Y4325D01*
X21190Y4333D01*
X21187Y4342D01*
X21184Y4350D01*
X21182Y4358D01*
X21180Y4366D01*
X21179Y4373D01*
X21177Y4380D01*
X21177Y4386D01*
X21176Y4391D01*
Y4396D01*
X21176Y4399D01*
Y4401D01*
Y4401D01*
X21176Y4412D01*
X21177Y4422D01*
X21179Y4432D01*
X21181Y4441D01*
X21183Y4449D01*
X21186Y4457D01*
X21189Y4464D01*
X21192Y4470D01*
X21195Y4476D01*
X21198Y4481D01*
X21201Y4485D01*
X21204Y4489D01*
X21206Y4492D01*
X21207Y4494D01*
X21208Y4495D01*
X21209Y4495D01*
X21215Y4502D01*
X21222Y4508D01*
X21229Y4512D01*
X21236Y4516D01*
X21243Y4520D01*
X21250Y4523D01*
X21257Y4525D01*
X21264Y4527D01*
X21271Y4529D01*
X21276Y4530D01*
X21282Y4530D01*
X21286Y4531D01*
X21290D01*
X21293Y4532D01*
X21295D01*
X21306Y4531D01*
D02*
G37*
G36*
X17612Y3971D02*
X17620Y3970D01*
X17628Y3968D01*
X17636Y3965D01*
X17642Y3963D01*
X17648Y3959D01*
X17654Y3955D01*
X17660Y3952D01*
X17664Y3948D01*
X17668Y3944D01*
X17672Y3941D01*
X17675Y3938D01*
X17678Y3935D01*
X17679Y3933D01*
X17680Y3932D01*
X17680Y3931D01*
X17685Y3923D01*
X17690Y3915D01*
X17694Y3906D01*
X17697Y3898D01*
X17700Y3888D01*
X17703Y3880D01*
X17705Y3871D01*
X17706Y3862D01*
X17707Y3854D01*
X17708Y3847D01*
X17709Y3840D01*
X17709Y3834D01*
X17710Y3830D01*
Y3826D01*
Y3824D01*
Y3823D01*
X17709Y3813D01*
X17709Y3803D01*
X17708Y3794D01*
X17706Y3786D01*
X17705Y3778D01*
X17703Y3771D01*
X17700Y3765D01*
X17698Y3759D01*
X17697Y3753D01*
X17695Y3749D01*
X17693Y3745D01*
X17691Y3742D01*
X17690Y3740D01*
X17688Y3737D01*
X17688Y3737D01*
X17688Y3736D01*
X17683Y3731D01*
X17678Y3726D01*
X17673Y3722D01*
X17668Y3719D01*
X17663Y3716D01*
X17658Y3713D01*
X17653Y3711D01*
X17648Y3710D01*
X17644Y3708D01*
X17640Y3708D01*
X17636Y3707D01*
X17632Y3706D01*
X17630D01*
X17628Y3706D01*
X17626D01*
X17619Y3706D01*
X17613Y3707D01*
X17607Y3708D01*
X17602Y3710D01*
X17592Y3713D01*
X17587Y3716D01*
X17583Y3718D01*
X17580Y3720D01*
X17577Y3722D01*
X17574Y3725D01*
X17572Y3726D01*
X17570Y3728D01*
X17568Y3729D01*
X17568Y3730D01*
X17567Y3730D01*
X17563Y3735D01*
X17559Y3740D01*
X17557Y3745D01*
X17554Y3750D01*
X17550Y3760D01*
X17547Y3770D01*
X17546Y3774D01*
X17545Y3778D01*
X17545Y3782D01*
X17544Y3785D01*
X17544Y3788D01*
Y3790D01*
Y3791D01*
Y3792D01*
X17544Y3798D01*
X17545Y3804D01*
X17547Y3816D01*
X17550Y3826D01*
X17552Y3830D01*
X17554Y3834D01*
X17556Y3838D01*
X17558Y3841D01*
X17559Y3843D01*
X17561Y3846D01*
X17562Y3847D01*
X17563Y3849D01*
X17564Y3849D01*
X17564Y3849D01*
X17568Y3853D01*
X17572Y3857D01*
X17577Y3860D01*
X17581Y3862D01*
X17590Y3866D01*
X17598Y3868D01*
X17606Y3870D01*
X17609Y3871D01*
X17612Y3871D01*
X17614Y3871D01*
X17617D01*
X17625Y3871D01*
X17631Y3870D01*
X17638Y3868D01*
X17643Y3866D01*
X17648Y3863D01*
X17653Y3860D01*
X17658Y3857D01*
X17661Y3854D01*
X17665Y3851D01*
X17668Y3847D01*
X17670Y3844D01*
X17672Y3841D01*
X17673Y3839D01*
X17675Y3838D01*
X17675Y3836D01*
X17675Y3836D01*
X17676D01*
X17676Y3845D01*
X17675Y3854D01*
X17674Y3862D01*
X17673Y3870D01*
X17672Y3877D01*
X17670Y3883D01*
X17668Y3889D01*
X17666Y3894D01*
X17664Y3899D01*
X17662Y3903D01*
X17661Y3907D01*
X17659Y3910D01*
X17658Y3912D01*
X17657Y3914D01*
X17656Y3915D01*
X17656Y3915D01*
X17652Y3920D01*
X17648Y3925D01*
X17643Y3928D01*
X17639Y3932D01*
X17634Y3935D01*
X17630Y3937D01*
X17626Y3939D01*
X17621Y3940D01*
X17614Y3943D01*
X17611Y3943D01*
X17608Y3944D01*
X17606Y3944D01*
X17602D01*
X17594Y3944D01*
X17586Y3943D01*
X17579Y3941D01*
X17573Y3939D01*
X17568Y3938D01*
X17564Y3936D01*
X17561Y3935D01*
X17561Y3934D01*
X17560D01*
Y3964D01*
X17567Y3967D01*
X17574Y3968D01*
X17581Y3970D01*
X17587Y3971D01*
X17594Y3971D01*
X17599Y3972D01*
X17603D01*
X17612Y3971D01*
D02*
G37*
G36*
X17876D02*
X17886Y3970D01*
X17895Y3968D01*
X17904Y3966D01*
X17912Y3963D01*
X17919Y3960D01*
X17926Y3957D01*
X17933Y3953D01*
X17938Y3950D01*
X17943Y3946D01*
X17947Y3943D01*
X17950Y3940D01*
X17953Y3938D01*
X17955Y3936D01*
X17956Y3935D01*
X17957Y3935D01*
X17963Y3928D01*
X17968Y3920D01*
X17973Y3912D01*
X17976Y3903D01*
X17980Y3895D01*
X17982Y3887D01*
X17985Y3879D01*
X17986Y3871D01*
X17988Y3864D01*
X17989Y3857D01*
X17989Y3851D01*
X17990Y3846D01*
Y3841D01*
X17990Y3838D01*
Y3836D01*
Y3835D01*
X17990Y3825D01*
X17989Y3814D01*
X17988Y3805D01*
X17985Y3796D01*
X17983Y3788D01*
X17980Y3780D01*
X17977Y3773D01*
X17974Y3767D01*
X17971Y3761D01*
X17968Y3756D01*
X17965Y3752D01*
X17963Y3748D01*
X17960Y3745D01*
X17959Y3743D01*
X17958Y3742D01*
X17958Y3742D01*
X17951Y3735D01*
X17944Y3730D01*
X17937Y3725D01*
X17930Y3721D01*
X17922Y3717D01*
X17915Y3715D01*
X17908Y3712D01*
X17901Y3710D01*
X17894Y3709D01*
X17888Y3708D01*
X17883Y3707D01*
X17879Y3706D01*
X17875D01*
X17872Y3706D01*
X17869D01*
X17861Y3706D01*
X17854Y3707D01*
X17846Y3708D01*
X17840Y3709D01*
X17835Y3710D01*
X17831Y3710D01*
X17829Y3711D01*
X17828Y3711D01*
X17779Y3675D01*
X17724D01*
X17797Y3727D01*
X17790Y3732D01*
X17787Y3735D01*
X17785Y3737D01*
X17782Y3739D01*
X17781Y3741D01*
X17780Y3742D01*
X17780Y3742D01*
X17774Y3749D01*
X17768Y3757D01*
X17764Y3765D01*
X17760Y3773D01*
X17757Y3782D01*
X17754Y3790D01*
X17752Y3798D01*
X17750Y3806D01*
X17749Y3813D01*
X17747Y3820D01*
X17747Y3826D01*
X17746Y3831D01*
Y3836D01*
X17746Y3839D01*
Y3841D01*
Y3841D01*
X17746Y3852D01*
X17747Y3862D01*
X17749Y3872D01*
X17751Y3881D01*
X17753Y3889D01*
X17756Y3897D01*
X17759Y3904D01*
X17762Y3910D01*
X17765Y3916D01*
X17768Y3921D01*
X17771Y3925D01*
X17774Y3929D01*
X17776Y3932D01*
X17777Y3934D01*
X17778Y3935D01*
X17779Y3935D01*
X17785Y3942D01*
X17792Y3948D01*
X17799Y3952D01*
X17806Y3956D01*
X17813Y3960D01*
X17820Y3963D01*
X17827Y3965D01*
X17834Y3967D01*
X17841Y3969D01*
X17846Y3970D01*
X17852Y3970D01*
X17856Y3971D01*
X17860D01*
X17863Y3972D01*
X17865D01*
X17876Y3971D01*
D02*
G37*
G36*
X17507Y9336D02*
X17499Y9337D01*
X17492Y9338D01*
X17484Y9338D01*
X17478D01*
X17472Y9339D01*
X17463D01*
X17452Y9338D01*
X17442Y9336D01*
X17434Y9334D01*
X17427Y9332D01*
X17422Y9329D01*
X17418Y9327D01*
X17416Y9325D01*
X17415Y9325D01*
X17409Y9319D01*
X17405Y9313D01*
X17401Y9307D01*
X17399Y9301D01*
X17398Y9295D01*
X17398Y9291D01*
X17397Y9289D01*
Y9288D01*
Y9287D01*
Y9287D01*
X17398Y9278D01*
X17400Y9270D01*
X17403Y9263D01*
X17406Y9257D01*
X17409Y9253D01*
X17411Y9250D01*
X17413Y9248D01*
X17414Y9247D01*
X17421Y9242D01*
X17428Y9239D01*
X17435Y9236D01*
X17442Y9234D01*
X17448Y9233D01*
X17453Y9233D01*
X17455Y9232D01*
X17457D01*
X17467Y9233D01*
X17477Y9235D01*
X17486Y9238D01*
X17494Y9241D01*
X17501Y9244D01*
X17503Y9246D01*
X17506Y9247D01*
X17508Y9248D01*
X17509Y9249D01*
X17510Y9250D01*
X17510D01*
Y9216D01*
X17507Y9215D01*
X17503Y9213D01*
X17495Y9210D01*
X17486Y9208D01*
X17477Y9207D01*
X17469Y9206D01*
X17465D01*
X17462Y9206D01*
X17456D01*
X17449Y9206D01*
X17441Y9207D01*
X17435Y9208D01*
X17428Y9210D01*
X17422Y9211D01*
X17417Y9213D01*
X17412Y9215D01*
X17407Y9217D01*
X17403Y9220D01*
X17399Y9222D01*
X17396Y9223D01*
X17394Y9225D01*
X17392Y9227D01*
X17391Y9228D01*
X17390Y9228D01*
X17389Y9229D01*
X17385Y9233D01*
X17381Y9238D01*
X17378Y9243D01*
X17375Y9248D01*
X17372Y9253D01*
X17371Y9258D01*
X17367Y9267D01*
X17367Y9272D01*
X17366Y9276D01*
X17365Y9279D01*
X17365Y9283D01*
X17364Y9285D01*
Y9287D01*
Y9289D01*
Y9289D01*
X17365Y9296D01*
X17365Y9302D01*
X17368Y9314D01*
X17370Y9319D01*
X17372Y9324D01*
X17374Y9328D01*
X17376Y9331D01*
X17378Y9335D01*
X17380Y9338D01*
X17382Y9341D01*
X17384Y9343D01*
X17386Y9344D01*
X17387Y9346D01*
X17387Y9346D01*
X17388Y9346D01*
X17392Y9350D01*
X17397Y9353D01*
X17402Y9356D01*
X17408Y9358D01*
X17418Y9362D01*
X17429Y9364D01*
X17433Y9365D01*
X17438Y9366D01*
X17442Y9366D01*
X17445D01*
X17448Y9367D01*
X17452D01*
X17475Y9366D01*
X17470Y9439D01*
X17377D01*
Y9467D01*
X17497D01*
X17507Y9336D01*
D02*
G37*
G36*
X17686Y9471D02*
X17696Y9470D01*
X17705Y9468D01*
X17714Y9466D01*
X17722Y9463D01*
X17729Y9460D01*
X17736Y9457D01*
X17743Y9453D01*
X17748Y9450D01*
X17753Y9446D01*
X17757Y9443D01*
X17760Y9440D01*
X17763Y9438D01*
X17765Y9436D01*
X17766Y9435D01*
X17767Y9435D01*
X17773Y9428D01*
X17778Y9420D01*
X17783Y9412D01*
X17786Y9403D01*
X17790Y9395D01*
X17792Y9387D01*
X17795Y9379D01*
X17796Y9371D01*
X17797Y9363D01*
X17799Y9357D01*
X17799Y9351D01*
X17800Y9346D01*
Y9341D01*
X17800Y9338D01*
Y9336D01*
Y9335D01*
X17800Y9325D01*
X17799Y9314D01*
X17797Y9305D01*
X17795Y9296D01*
X17793Y9288D01*
X17790Y9280D01*
X17787Y9273D01*
X17784Y9267D01*
X17781Y9261D01*
X17778Y9256D01*
X17775Y9252D01*
X17773Y9248D01*
X17770Y9245D01*
X17769Y9243D01*
X17768Y9242D01*
X17768Y9242D01*
X17761Y9235D01*
X17754Y9230D01*
X17747Y9225D01*
X17740Y9221D01*
X17732Y9217D01*
X17725Y9215D01*
X17718Y9212D01*
X17711Y9210D01*
X17704Y9209D01*
X17699Y9208D01*
X17693Y9207D01*
X17689Y9206D01*
X17685D01*
X17682Y9206D01*
X17679D01*
X17671Y9206D01*
X17664Y9207D01*
X17656Y9208D01*
X17650Y9209D01*
X17645Y9210D01*
X17641Y9210D01*
X17639Y9211D01*
X17638Y9211D01*
X17589Y9175D01*
X17534D01*
X17607Y9227D01*
X17600Y9232D01*
X17597Y9235D01*
X17594Y9237D01*
X17592Y9239D01*
X17591Y9241D01*
X17590Y9242D01*
X17589Y9242D01*
X17584Y9249D01*
X17578Y9257D01*
X17574Y9265D01*
X17570Y9273D01*
X17567Y9282D01*
X17564Y9290D01*
X17562Y9298D01*
X17560Y9306D01*
X17559Y9313D01*
X17557Y9320D01*
X17557Y9326D01*
X17556Y9331D01*
Y9336D01*
X17556Y9339D01*
Y9341D01*
Y9341D01*
X17556Y9352D01*
X17557Y9362D01*
X17559Y9372D01*
X17561Y9381D01*
X17563Y9389D01*
X17566Y9397D01*
X17569Y9404D01*
X17572Y9410D01*
X17575Y9416D01*
X17578Y9421D01*
X17581Y9425D01*
X17584Y9429D01*
X17586Y9432D01*
X17587Y9434D01*
X17588Y9435D01*
X17589Y9435D01*
X17595Y9442D01*
X17602Y9448D01*
X17609Y9452D01*
X17616Y9456D01*
X17623Y9460D01*
X17630Y9463D01*
X17637Y9465D01*
X17644Y9467D01*
X17651Y9469D01*
X17656Y9470D01*
X17662Y9470D01*
X17666Y9471D01*
X17670D01*
X17673Y9472D01*
X17675D01*
X17686Y9471D01*
D02*
G37*
G36*
X4207Y8931D02*
X4216Y8916D01*
X4225Y8901D01*
X4229Y8894D01*
X4233Y8888D01*
X4237Y8881D01*
X4241Y8876D01*
X4244Y8871D01*
X4247Y8867D01*
X4249Y8863D01*
X4251Y8861D01*
X4252Y8859D01*
X4252Y8859D01*
X4264Y8842D01*
X4276Y8826D01*
X4281Y8819D01*
X4287Y8812D01*
X4292Y8806D01*
X4297Y8800D01*
X4301Y8794D01*
X4305Y8790D01*
X4308Y8786D01*
X4311Y8782D01*
X4313Y8779D01*
X4315Y8777D01*
X4316Y8776D01*
X4317Y8776D01*
Y8750D01*
X4196D01*
Y8690D01*
X4165D01*
Y8750D01*
X4126D01*
Y8777D01*
X4165D01*
Y8947D01*
X4199D01*
X4207Y8931D01*
D02*
G37*
G36*
X4466Y8951D02*
X4476Y8950D01*
X4485Y8948D01*
X4494Y8946D01*
X4502Y8943D01*
X4509Y8940D01*
X4516Y8937D01*
X4523Y8933D01*
X4528Y8930D01*
X4533Y8926D01*
X4537Y8923D01*
X4540Y8920D01*
X4543Y8918D01*
X4545Y8916D01*
X4546Y8915D01*
X4547Y8915D01*
X4553Y8908D01*
X4558Y8900D01*
X4563Y8892D01*
X4566Y8883D01*
X4570Y8875D01*
X4572Y8867D01*
X4575Y8859D01*
X4576Y8851D01*
X4577Y8844D01*
X4579Y8837D01*
X4579Y8831D01*
X4580Y8826D01*
Y8821D01*
X4580Y8818D01*
Y8816D01*
Y8815D01*
X4580Y8805D01*
X4579Y8794D01*
X4577Y8785D01*
X4575Y8776D01*
X4573Y8768D01*
X4570Y8760D01*
X4567Y8753D01*
X4564Y8747D01*
X4561Y8741D01*
X4558Y8736D01*
X4555Y8732D01*
X4553Y8728D01*
X4550Y8725D01*
X4549Y8723D01*
X4548Y8722D01*
X4548Y8722D01*
X4541Y8715D01*
X4534Y8710D01*
X4527Y8705D01*
X4520Y8701D01*
X4512Y8697D01*
X4505Y8695D01*
X4498Y8692D01*
X4491Y8690D01*
X4484Y8689D01*
X4478Y8688D01*
X4473Y8687D01*
X4469Y8686D01*
X4465D01*
X4462Y8686D01*
X4459D01*
X4451Y8686D01*
X4444Y8687D01*
X4436Y8687D01*
X4430Y8689D01*
X4425Y8690D01*
X4421Y8690D01*
X4419Y8691D01*
X4418Y8691D01*
X4369Y8655D01*
X4314D01*
X4387Y8707D01*
X4380Y8712D01*
X4377Y8715D01*
X4374Y8717D01*
X4372Y8719D01*
X4371Y8721D01*
X4370Y8722D01*
X4369Y8722D01*
X4364Y8729D01*
X4358Y8737D01*
X4354Y8745D01*
X4350Y8753D01*
X4347Y8762D01*
X4344Y8770D01*
X4342Y8778D01*
X4340Y8786D01*
X4339Y8793D01*
X4337Y8800D01*
X4337Y8806D01*
X4336Y8811D01*
Y8816D01*
X4336Y8819D01*
Y8821D01*
Y8821D01*
X4336Y8832D01*
X4337Y8842D01*
X4339Y8852D01*
X4341Y8861D01*
X4343Y8869D01*
X4346Y8877D01*
X4349Y8884D01*
X4352Y8890D01*
X4355Y8896D01*
X4358Y8901D01*
X4361Y8905D01*
X4364Y8909D01*
X4366Y8912D01*
X4367Y8914D01*
X4368Y8915D01*
X4369Y8915D01*
X4375Y8922D01*
X4382Y8928D01*
X4389Y8932D01*
X4396Y8936D01*
X4403Y8940D01*
X4410Y8943D01*
X4417Y8945D01*
X4424Y8947D01*
X4431Y8949D01*
X4436Y8950D01*
X4442Y8950D01*
X4446Y8951D01*
X4450D01*
X4453Y8952D01*
X4455D01*
X4466Y8951D01*
D02*
G37*
G36*
X4269Y3901D02*
X4280Y3899D01*
X4290Y3897D01*
X4299Y3894D01*
X4303Y3893D01*
X4306Y3891D01*
X4309Y3890D01*
X4311Y3889D01*
X4313Y3888D01*
X4314Y3888D01*
X4315Y3887D01*
X4315D01*
Y3856D01*
X4311Y3860D01*
X4306Y3862D01*
X4298Y3867D01*
X4289Y3870D01*
X4281Y3872D01*
X4275Y3873D01*
X4272Y3874D01*
X4269D01*
X4267Y3874D01*
X4265D01*
X4256Y3874D01*
X4249Y3873D01*
X4243Y3870D01*
X4237Y3868D01*
X4233Y3865D01*
X4229Y3861D01*
X4226Y3857D01*
X4223Y3853D01*
X4221Y3849D01*
X4220Y3846D01*
X4219Y3842D01*
X4218Y3839D01*
X4218Y3836D01*
X4217Y3834D01*
Y3833D01*
Y3832D01*
X4218Y3824D01*
X4220Y3817D01*
X4223Y3811D01*
X4227Y3806D01*
X4232Y3801D01*
X4237Y3797D01*
X4243Y3794D01*
X4248Y3792D01*
X4254Y3790D01*
X4260Y3789D01*
X4265Y3787D01*
X4270Y3787D01*
X4273Y3786D01*
X4277Y3786D01*
X4300D01*
Y3759D01*
X4278D01*
X4266Y3759D01*
X4255Y3757D01*
X4246Y3755D01*
X4238Y3752D01*
X4231Y3748D01*
X4225Y3744D01*
X4221Y3739D01*
X4217Y3735D01*
X4214Y3730D01*
X4212Y3726D01*
X4210Y3722D01*
X4209Y3718D01*
X4209Y3715D01*
X4208Y3712D01*
Y3711D01*
Y3710D01*
X4209Y3702D01*
X4211Y3696D01*
X4213Y3690D01*
X4216Y3685D01*
X4219Y3681D01*
X4221Y3678D01*
X4223Y3676D01*
X4224Y3675D01*
X4230Y3671D01*
X4237Y3668D01*
X4244Y3666D01*
X4251Y3664D01*
X4257Y3663D01*
X4261Y3663D01*
X4263Y3662D01*
X4266D01*
X4272Y3663D01*
X4278Y3663D01*
X4289Y3666D01*
X4299Y3669D01*
X4308Y3673D01*
X4312Y3675D01*
X4315Y3677D01*
X4318Y3678D01*
X4321Y3680D01*
X4323Y3681D01*
X4324Y3682D01*
X4325Y3682D01*
X4325Y3683D01*
Y3649D01*
X4316Y3645D01*
X4307Y3642D01*
X4297Y3639D01*
X4288Y3638D01*
X4279Y3637D01*
X4276Y3636D01*
X4273D01*
X4270Y3636D01*
X4267D01*
X4259Y3636D01*
X4252Y3637D01*
X4245Y3638D01*
X4239Y3639D01*
X4233Y3641D01*
X4227Y3643D01*
X4222Y3644D01*
X4218Y3646D01*
X4214Y3648D01*
X4210Y3650D01*
X4207Y3652D01*
X4205Y3653D01*
X4203Y3655D01*
X4201Y3656D01*
X4201Y3656D01*
X4200Y3657D01*
X4196Y3661D01*
X4192Y3665D01*
X4189Y3670D01*
X4186Y3675D01*
X4183Y3679D01*
X4182Y3684D01*
X4178Y3693D01*
X4177Y3701D01*
X4176Y3704D01*
X4176Y3707D01*
X4175Y3709D01*
Y3711D01*
Y3712D01*
Y3713D01*
X4176Y3722D01*
X4178Y3730D01*
X4180Y3737D01*
X4183Y3743D01*
X4187Y3748D01*
X4189Y3751D01*
X4191Y3754D01*
X4191Y3754D01*
X4198Y3760D01*
X4205Y3764D01*
X4212Y3768D01*
X4219Y3771D01*
X4226Y3772D01*
X4228Y3773D01*
X4231Y3773D01*
X4233Y3774D01*
X4234Y3774D01*
X4235D01*
Y3775D01*
X4226Y3778D01*
X4218Y3782D01*
X4211Y3786D01*
X4206Y3791D01*
X4201Y3796D01*
X4196Y3802D01*
X4193Y3807D01*
X4190Y3813D01*
X4188Y3818D01*
X4187Y3823D01*
X4186Y3828D01*
X4185Y3832D01*
X4184Y3835D01*
X4184Y3838D01*
Y3839D01*
Y3840D01*
X4184Y3845D01*
X4185Y3850D01*
X4187Y3858D01*
X4190Y3866D01*
X4194Y3872D01*
X4198Y3878D01*
X4201Y3881D01*
X4203Y3883D01*
X4204Y3884D01*
X4204D01*
X4212Y3890D01*
X4221Y3894D01*
X4229Y3898D01*
X4238Y3900D01*
X4245Y3901D01*
X4248Y3901D01*
X4251D01*
X4253Y3902D01*
X4257D01*
X4269Y3901D01*
D02*
G37*
G36*
X4496Y3901D02*
X4506Y3900D01*
X4515Y3898D01*
X4524Y3896D01*
X4532Y3893D01*
X4539Y3890D01*
X4546Y3887D01*
X4553Y3883D01*
X4558Y3880D01*
X4563Y3876D01*
X4567Y3873D01*
X4570Y3870D01*
X4573Y3868D01*
X4575Y3866D01*
X4576Y3865D01*
X4577Y3865D01*
X4583Y3858D01*
X4588Y3850D01*
X4593Y3842D01*
X4596Y3833D01*
X4600Y3825D01*
X4602Y3817D01*
X4605Y3809D01*
X4606Y3801D01*
X4608Y3794D01*
X4609Y3787D01*
X4609Y3781D01*
X4610Y3776D01*
Y3771D01*
X4610Y3768D01*
Y3766D01*
Y3765D01*
X4610Y3755D01*
X4609Y3744D01*
X4608Y3735D01*
X4605Y3726D01*
X4603Y3718D01*
X4600Y3710D01*
X4597Y3703D01*
X4594Y3697D01*
X4591Y3691D01*
X4588Y3686D01*
X4585Y3682D01*
X4583Y3678D01*
X4580Y3675D01*
X4579Y3673D01*
X4578Y3672D01*
X4578Y3672D01*
X4571Y3665D01*
X4564Y3660D01*
X4557Y3655D01*
X4550Y3651D01*
X4542Y3647D01*
X4535Y3645D01*
X4528Y3642D01*
X4521Y3640D01*
X4514Y3639D01*
X4509Y3638D01*
X4503Y3637D01*
X4499Y3636D01*
X4495D01*
X4492Y3636D01*
X4489D01*
X4481Y3636D01*
X4474Y3637D01*
X4466Y3638D01*
X4460Y3639D01*
X4455Y3640D01*
X4451Y3640D01*
X4449Y3641D01*
X4448Y3641D01*
X4399Y3605D01*
X4344D01*
X4417Y3657D01*
X4410Y3662D01*
X4407Y3665D01*
X4405Y3667D01*
X4402Y3669D01*
X4401Y3671D01*
X4400Y3672D01*
X4399Y3672D01*
X4394Y3679D01*
X4388Y3687D01*
X4384Y3695D01*
X4380Y3703D01*
X4377Y3712D01*
X4374Y3720D01*
X4372Y3728D01*
X4370Y3736D01*
X4369Y3743D01*
X4367Y3750D01*
X4367Y3756D01*
X4366Y3761D01*
Y3766D01*
X4366Y3769D01*
Y3771D01*
Y3771D01*
X4366Y3782D01*
X4367Y3792D01*
X4369Y3802D01*
X4371Y3811D01*
X4373Y3819D01*
X4376Y3827D01*
X4379Y3834D01*
X4382Y3840D01*
X4385Y3846D01*
X4388Y3851D01*
X4391Y3855D01*
X4394Y3859D01*
X4396Y3862D01*
X4397Y3864D01*
X4398Y3865D01*
X4399Y3865D01*
X4405Y3872D01*
X4412Y3878D01*
X4419Y3882D01*
X4426Y3886D01*
X4433Y3890D01*
X4440Y3893D01*
X4447Y3895D01*
X4454Y3897D01*
X4461Y3899D01*
X4466Y3900D01*
X4472Y3900D01*
X4476Y3901D01*
X4480D01*
X4483Y3902D01*
X4485D01*
X4496Y3901D01*
D02*
G37*
G36*
X7391Y3521D02*
X7398Y3520D01*
X7404Y3520D01*
X7410Y3518D01*
X7414Y3517D01*
X7418Y3516D01*
X7420Y3515D01*
X7421Y3515D01*
X7426Y3512D01*
X7432Y3508D01*
X7436Y3505D01*
X7441Y3502D01*
X7444Y3499D01*
X7447Y3496D01*
X7449Y3495D01*
X7449Y3494D01*
Y3463D01*
X7444Y3468D01*
X7438Y3473D01*
X7433Y3477D01*
X7429Y3480D01*
X7425Y3483D01*
X7422Y3485D01*
X7420Y3485D01*
X7419Y3486D01*
X7413Y3489D01*
X7407Y3491D01*
X7401Y3492D01*
X7396Y3493D01*
X7392Y3494D01*
X7389Y3494D01*
X7386D01*
X7379Y3494D01*
X7371Y3493D01*
X7365Y3490D01*
X7360Y3488D01*
X7356Y3486D01*
X7354Y3484D01*
X7351Y3483D01*
X7351Y3482D01*
X7346Y3478D01*
X7343Y3472D01*
X7341Y3467D01*
X7339Y3462D01*
X7339Y3457D01*
X7338Y3453D01*
Y3451D01*
Y3450D01*
Y3450D01*
X7338Y3442D01*
X7339Y3436D01*
X7341Y3429D01*
X7343Y3424D01*
X7345Y3419D01*
X7347Y3416D01*
X7349Y3414D01*
X7349Y3413D01*
X7351Y3410D01*
X7354Y3407D01*
X7360Y3401D01*
X7367Y3394D01*
X7373Y3389D01*
X7380Y3384D01*
X7383Y3381D01*
X7385Y3380D01*
X7387Y3378D01*
X7389Y3377D01*
X7390Y3376D01*
X7390Y3376D01*
X7401Y3369D01*
X7409Y3362D01*
X7417Y3356D01*
X7423Y3350D01*
X7428Y3346D01*
X7431Y3343D01*
X7433Y3341D01*
X7434Y3340D01*
X7439Y3335D01*
X7443Y3329D01*
X7446Y3324D01*
X7449Y3320D01*
X7451Y3316D01*
X7453Y3313D01*
X7453Y3311D01*
X7454Y3310D01*
X7456Y3304D01*
X7457Y3298D01*
X7458Y3292D01*
X7459Y3286D01*
X7459Y3280D01*
X7460Y3276D01*
Y3275D01*
Y3273D01*
Y3273D01*
Y3272D01*
Y3260D01*
X7298D01*
Y3289D01*
X7426D01*
Y3293D01*
X7425Y3297D01*
X7424Y3301D01*
X7423Y3304D01*
X7423Y3307D01*
X7422Y3308D01*
X7421Y3309D01*
Y3310D01*
X7420Y3313D01*
X7417Y3317D01*
X7415Y3320D01*
X7412Y3323D01*
X7410Y3325D01*
X7408Y3327D01*
X7407Y3328D01*
X7406Y3329D01*
X7404Y3331D01*
X7401Y3333D01*
X7395Y3338D01*
X7388Y3343D01*
X7381Y3348D01*
X7374Y3353D01*
X7371Y3355D01*
X7368Y3357D01*
X7366Y3359D01*
X7364Y3360D01*
X7364Y3360D01*
X7363Y3361D01*
X7357Y3365D01*
X7352Y3369D01*
X7347Y3373D01*
X7343Y3376D01*
X7335Y3384D01*
X7329Y3390D01*
X7324Y3395D01*
X7321Y3399D01*
X7320Y3401D01*
X7319Y3402D01*
X7319Y3403D01*
Y3403D01*
X7314Y3411D01*
X7311Y3420D01*
X7309Y3428D01*
X7307Y3436D01*
X7306Y3442D01*
X7306Y3445D01*
X7305Y3448D01*
Y3449D01*
Y3451D01*
Y3452D01*
Y3452D01*
X7306Y3458D01*
X7306Y3463D01*
X7309Y3474D01*
X7312Y3482D01*
X7316Y3490D01*
X7320Y3495D01*
X7324Y3500D01*
X7325Y3501D01*
X7326Y3502D01*
X7326Y3503D01*
X7327D01*
X7331Y3506D01*
X7335Y3509D01*
X7344Y3514D01*
X7354Y3517D01*
X7363Y3519D01*
X7371Y3521D01*
X7374Y3521D01*
X7377D01*
X7379Y3522D01*
X7383D01*
X7391Y3521D01*
D02*
G37*
G36*
X7626D02*
X7636Y3520D01*
X7645Y3518D01*
X7654Y3516D01*
X7662Y3513D01*
X7669Y3510D01*
X7676Y3507D01*
X7683Y3503D01*
X7688Y3500D01*
X7693Y3496D01*
X7697Y3493D01*
X7700Y3490D01*
X7703Y3488D01*
X7705Y3486D01*
X7706Y3485D01*
X7707Y3485D01*
X7713Y3478D01*
X7718Y3470D01*
X7723Y3462D01*
X7726Y3453D01*
X7730Y3445D01*
X7732Y3437D01*
X7735Y3429D01*
X7736Y3421D01*
X7738Y3413D01*
X7739Y3407D01*
X7739Y3401D01*
X7740Y3396D01*
Y3391D01*
X7740Y3388D01*
Y3386D01*
Y3385D01*
X7740Y3375D01*
X7739Y3364D01*
X7738Y3355D01*
X7735Y3346D01*
X7733Y3338D01*
X7730Y3330D01*
X7727Y3323D01*
X7724Y3317D01*
X7721Y3311D01*
X7718Y3306D01*
X7715Y3302D01*
X7713Y3298D01*
X7710Y3295D01*
X7709Y3293D01*
X7708Y3292D01*
X7708Y3292D01*
X7701Y3285D01*
X7694Y3280D01*
X7687Y3275D01*
X7680Y3271D01*
X7672Y3267D01*
X7665Y3265D01*
X7658Y3262D01*
X7651Y3260D01*
X7644Y3259D01*
X7638Y3258D01*
X7633Y3257D01*
X7629Y3256D01*
X7625D01*
X7622Y3256D01*
X7619D01*
X7611Y3256D01*
X7604Y3257D01*
X7596Y3257D01*
X7590Y3259D01*
X7585Y3260D01*
X7581Y3260D01*
X7579Y3261D01*
X7578Y3261D01*
X7529Y3225D01*
X7474D01*
X7547Y3277D01*
X7540Y3282D01*
X7537Y3285D01*
X7534Y3287D01*
X7532Y3289D01*
X7531Y3291D01*
X7530Y3292D01*
X7530Y3292D01*
X7524Y3299D01*
X7518Y3307D01*
X7514Y3315D01*
X7510Y3323D01*
X7507Y3332D01*
X7504Y3340D01*
X7502Y3348D01*
X7500Y3356D01*
X7499Y3363D01*
X7497Y3370D01*
X7497Y3376D01*
X7496Y3381D01*
Y3386D01*
X7496Y3389D01*
Y3391D01*
Y3391D01*
X7496Y3402D01*
X7497Y3412D01*
X7499Y3422D01*
X7501Y3431D01*
X7503Y3439D01*
X7506Y3447D01*
X7509Y3454D01*
X7512Y3460D01*
X7515Y3466D01*
X7518Y3471D01*
X7521Y3475D01*
X7524Y3479D01*
X7526Y3482D01*
X7527Y3484D01*
X7528Y3485D01*
X7529Y3485D01*
X7535Y3492D01*
X7542Y3498D01*
X7549Y3502D01*
X7556Y3506D01*
X7563Y3510D01*
X7570Y3513D01*
X7577Y3515D01*
X7584Y3517D01*
X7591Y3519D01*
X7596Y3520D01*
X7602Y3520D01*
X7606Y3521D01*
X7610D01*
X7613Y3522D01*
X7615D01*
X7626Y3521D01*
D02*
G37*
G36*
X6960Y9669D02*
X6966Y9665D01*
X6971Y9660D01*
X6977Y9657D01*
X6983Y9654D01*
X6987Y9651D01*
X6988Y9650D01*
X6990Y9650D01*
X6990Y9649D01*
X6991D01*
X6999Y9645D01*
X7007Y9641D01*
X7015Y9638D01*
X7021Y9636D01*
X7027Y9634D01*
X7030Y9633D01*
X7032Y9632D01*
X7033Y9632D01*
X7034Y9631D01*
X7034D01*
Y9600D01*
X7028Y9601D01*
X7023Y9603D01*
X7017Y9606D01*
X7012Y9608D01*
X7007Y9610D01*
X7003Y9611D01*
X7001Y9612D01*
X7001Y9613D01*
X6994Y9616D01*
X6989Y9619D01*
X6984Y9622D01*
X6981Y9625D01*
X6978Y9627D01*
X6976Y9629D01*
X6975Y9630D01*
X6975Y9630D01*
Y9410D01*
X6942D01*
Y9673D01*
X6955D01*
X6960Y9669D01*
D02*
G37*
G36*
X7216Y9671D02*
X7226Y9670D01*
X7235Y9668D01*
X7244Y9666D01*
X7252Y9663D01*
X7259Y9660D01*
X7266Y9657D01*
X7273Y9653D01*
X7278Y9650D01*
X7283Y9646D01*
X7287Y9643D01*
X7290Y9640D01*
X7293Y9638D01*
X7295Y9636D01*
X7296Y9635D01*
X7297Y9635D01*
X7303Y9628D01*
X7308Y9620D01*
X7313Y9612D01*
X7316Y9603D01*
X7320Y9595D01*
X7322Y9587D01*
X7325Y9579D01*
X7326Y9571D01*
X7327Y9564D01*
X7329Y9557D01*
X7329Y9551D01*
X7330Y9546D01*
Y9541D01*
X7330Y9538D01*
Y9536D01*
Y9535D01*
X7330Y9525D01*
X7329Y9514D01*
X7327Y9505D01*
X7325Y9496D01*
X7323Y9488D01*
X7320Y9480D01*
X7317Y9473D01*
X7314Y9467D01*
X7311Y9461D01*
X7308Y9456D01*
X7305Y9452D01*
X7303Y9448D01*
X7300Y9445D01*
X7299Y9443D01*
X7298Y9442D01*
X7298Y9442D01*
X7291Y9435D01*
X7284Y9430D01*
X7277Y9425D01*
X7270Y9421D01*
X7262Y9417D01*
X7255Y9415D01*
X7248Y9412D01*
X7241Y9410D01*
X7234Y9409D01*
X7229Y9408D01*
X7223Y9407D01*
X7219Y9406D01*
X7215D01*
X7212Y9406D01*
X7209D01*
X7201Y9406D01*
X7194Y9407D01*
X7186Y9408D01*
X7180Y9409D01*
X7175Y9410D01*
X7171Y9410D01*
X7169Y9411D01*
X7168Y9411D01*
X7119Y9375D01*
X7064D01*
X7137Y9427D01*
X7130Y9432D01*
X7127Y9435D01*
X7125Y9437D01*
X7122Y9439D01*
X7121Y9441D01*
X7120Y9442D01*
X7120Y9442D01*
X7114Y9449D01*
X7108Y9457D01*
X7104Y9465D01*
X7100Y9473D01*
X7097Y9482D01*
X7094Y9490D01*
X7092Y9498D01*
X7090Y9506D01*
X7089Y9513D01*
X7087Y9520D01*
X7087Y9526D01*
X7086Y9531D01*
Y9536D01*
X7086Y9539D01*
Y9541D01*
Y9541D01*
X7086Y9552D01*
X7087Y9562D01*
X7089Y9572D01*
X7091Y9581D01*
X7093Y9589D01*
X7096Y9597D01*
X7099Y9604D01*
X7102Y9610D01*
X7105Y9616D01*
X7108Y9621D01*
X7111Y9625D01*
X7114Y9629D01*
X7116Y9632D01*
X7117Y9634D01*
X7118Y9635D01*
X7119Y9635D01*
X7125Y9642D01*
X7132Y9648D01*
X7139Y9652D01*
X7146Y9656D01*
X7153Y9660D01*
X7160Y9663D01*
X7167Y9665D01*
X7174Y9667D01*
X7181Y9669D01*
X7186Y9670D01*
X7192Y9670D01*
X7196Y9671D01*
X7200D01*
X7203Y9672D01*
X7205D01*
X7216Y9671D01*
D02*
G37*
%LPC*%
G36*
X21012Y9325D02*
X21009D01*
X21003Y9324D01*
X20997Y9323D01*
X20992Y9321D01*
X20987Y9319D01*
X20984Y9316D01*
X20981Y9315D01*
X20979Y9313D01*
X20979Y9313D01*
X20975Y9308D01*
X20972Y9303D01*
X20969Y9298D01*
X20968Y9293D01*
X20967Y9289D01*
X20966Y9286D01*
Y9284D01*
Y9283D01*
X20967Y9277D01*
X20969Y9271D01*
X20971Y9266D01*
X20973Y9262D01*
X20975Y9258D01*
X20977Y9256D01*
X20979Y9254D01*
X20979Y9253D01*
X20984Y9249D01*
X20989Y9246D01*
X20994Y9244D01*
X20999Y9243D01*
X21003Y9242D01*
X21006Y9241D01*
X21009Y9241D01*
X21009D01*
X21016Y9241D01*
X21022Y9243D01*
X21027Y9245D01*
X21031Y9247D01*
X21035Y9249D01*
X21038Y9251D01*
X21039Y9253D01*
X21040Y9253D01*
X21044Y9258D01*
X21047Y9263D01*
X21049Y9268D01*
X21050Y9273D01*
X21051Y9277D01*
X21052Y9280D01*
Y9282D01*
Y9283D01*
X21051Y9289D01*
X21050Y9295D01*
X21048Y9300D01*
X21046Y9305D01*
X21043Y9308D01*
X21041Y9310D01*
X21040Y9312D01*
X21040Y9313D01*
X21035Y9317D01*
X21030Y9320D01*
X21025Y9322D01*
X21020Y9323D01*
X21016Y9324D01*
X21012Y9325D01*
D02*
G37*
G36*
X21011Y9214D02*
X21009D01*
X21001Y9213D01*
X20994Y9211D01*
X20988Y9209D01*
X20982Y9206D01*
X20978Y9204D01*
X20975Y9201D01*
X20973Y9200D01*
X20972Y9199D01*
X20967Y9193D01*
X20964Y9187D01*
X20961Y9181D01*
X20959Y9176D01*
X20958Y9171D01*
X20958Y9167D01*
X20957Y9164D01*
Y9164D01*
Y9163D01*
X20958Y9155D01*
X20959Y9148D01*
X20962Y9142D01*
X20964Y9137D01*
X20967Y9132D01*
X20969Y9129D01*
X20971Y9127D01*
X20972Y9127D01*
X20978Y9122D01*
X20984Y9118D01*
X20990Y9116D01*
X20996Y9114D01*
X21001Y9113D01*
X21006Y9113D01*
X21007Y9112D01*
X21009D01*
X21018Y9113D01*
X21025Y9115D01*
X21032Y9117D01*
X21037Y9120D01*
X21041Y9122D01*
X21045Y9124D01*
X21046Y9126D01*
X21047Y9126D01*
X21052Y9132D01*
X21056Y9138D01*
X21058Y9144D01*
X21060Y9150D01*
X21061Y9155D01*
X21061Y9159D01*
X21061Y9161D01*
Y9162D01*
Y9163D01*
Y9163D01*
X21061Y9171D01*
X21059Y9178D01*
X21057Y9184D01*
X21054Y9189D01*
X21051Y9194D01*
X21049Y9197D01*
X21047Y9198D01*
X21047Y9199D01*
X21041Y9204D01*
X21035Y9207D01*
X21028Y9210D01*
X21022Y9212D01*
X21017Y9213D01*
X21013Y9213D01*
X21011Y9214D01*
D02*
G37*
G36*
X21251Y9322D02*
X21247D01*
X21240Y9321D01*
X21233Y9320D01*
X21226Y9319D01*
X21220Y9318D01*
X21215Y9315D01*
X21209Y9313D01*
X21205Y9310D01*
X21201Y9308D01*
X21197Y9305D01*
X21193Y9303D01*
X21191Y9301D01*
X21188Y9298D01*
X21187Y9297D01*
X21185Y9295D01*
X21184Y9295D01*
X21184Y9294D01*
X21180Y9289D01*
X21177Y9283D01*
X21173Y9277D01*
X21171Y9271D01*
X21167Y9258D01*
X21164Y9246D01*
X21163Y9240D01*
X21162Y9235D01*
X21162Y9230D01*
X21162Y9226D01*
X21161Y9222D01*
Y9220D01*
Y9218D01*
Y9218D01*
X21162Y9209D01*
X21162Y9201D01*
X21163Y9193D01*
X21165Y9185D01*
X21167Y9179D01*
X21169Y9172D01*
X21171Y9167D01*
X21173Y9162D01*
X21175Y9157D01*
X21177Y9153D01*
X21179Y9150D01*
X21181Y9147D01*
X21183Y9145D01*
X21184Y9143D01*
X21184Y9142D01*
X21185Y9142D01*
X21189Y9137D01*
X21194Y9133D01*
X21199Y9130D01*
X21205Y9126D01*
X21210Y9124D01*
X21216Y9122D01*
X21226Y9118D01*
X21231Y9117D01*
X21235Y9116D01*
X21239Y9116D01*
X21243Y9115D01*
X21245Y9115D01*
X21249D01*
X21256Y9115D01*
X21263Y9116D01*
X21269Y9117D01*
X21275Y9120D01*
X21281Y9122D01*
X21286Y9124D01*
X21291Y9127D01*
X21295Y9129D01*
X21299Y9132D01*
X21302Y9135D01*
X21305Y9137D01*
X21307Y9139D01*
X21309Y9141D01*
X21311Y9142D01*
X21311Y9143D01*
X21312Y9143D01*
X21316Y9149D01*
X21320Y9154D01*
X21323Y9161D01*
X21325Y9167D01*
X21328Y9173D01*
X21330Y9179D01*
X21333Y9191D01*
X21333Y9197D01*
X21334Y9202D01*
X21335Y9206D01*
X21335Y9210D01*
X21335Y9214D01*
Y9216D01*
Y9218D01*
Y9218D01*
X21335Y9226D01*
X21334Y9235D01*
X21333Y9242D01*
X21332Y9249D01*
X21330Y9256D01*
X21328Y9262D01*
X21325Y9268D01*
X21323Y9273D01*
X21321Y9278D01*
X21319Y9281D01*
X21317Y9285D01*
X21315Y9288D01*
X21313Y9290D01*
X21312Y9292D01*
X21311Y9293D01*
X21311Y9293D01*
X21306Y9298D01*
X21301Y9303D01*
X21296Y9306D01*
X21291Y9310D01*
X21285Y9313D01*
X21280Y9315D01*
X21275Y9317D01*
X21270Y9318D01*
X21265Y9319D01*
X21261Y9320D01*
X21257Y9321D01*
X21254Y9321D01*
X21251Y9322D01*
D02*
G37*
G36*
X21301Y4502D02*
X21297D01*
X21290Y4501D01*
X21283Y4500D01*
X21276Y4499D01*
X21270Y4498D01*
X21265Y4495D01*
X21259Y4493D01*
X21255Y4490D01*
X21251Y4488D01*
X21247Y4485D01*
X21243Y4483D01*
X21241Y4480D01*
X21238Y4478D01*
X21237Y4477D01*
X21235Y4475D01*
X21234Y4475D01*
X21234Y4474D01*
X21230Y4469D01*
X21227Y4463D01*
X21223Y4457D01*
X21221Y4451D01*
X21217Y4438D01*
X21214Y4426D01*
X21213Y4420D01*
X21212Y4415D01*
X21212Y4410D01*
X21212Y4406D01*
X21211Y4402D01*
Y4400D01*
Y4398D01*
Y4398D01*
X21212Y4389D01*
X21212Y4381D01*
X21213Y4373D01*
X21215Y4365D01*
X21217Y4359D01*
X21219Y4352D01*
X21221Y4347D01*
X21223Y4342D01*
X21225Y4337D01*
X21227Y4333D01*
X21229Y4330D01*
X21231Y4327D01*
X21233Y4325D01*
X21234Y4323D01*
X21234Y4322D01*
X21235Y4322D01*
X21239Y4317D01*
X21244Y4313D01*
X21249Y4310D01*
X21255Y4306D01*
X21260Y4304D01*
X21266Y4302D01*
X21276Y4298D01*
X21281Y4297D01*
X21285Y4296D01*
X21289Y4296D01*
X21293Y4295D01*
X21295Y4295D01*
X21299D01*
X21306Y4295D01*
X21313Y4296D01*
X21319Y4297D01*
X21325Y4300D01*
X21331Y4302D01*
X21336Y4304D01*
X21341Y4307D01*
X21345Y4309D01*
X21349Y4312D01*
X21352Y4315D01*
X21355Y4317D01*
X21357Y4319D01*
X21359Y4321D01*
X21361Y4322D01*
X21361Y4323D01*
X21362Y4323D01*
X21366Y4329D01*
X21370Y4334D01*
X21373Y4341D01*
X21375Y4347D01*
X21378Y4353D01*
X21380Y4359D01*
X21383Y4372D01*
X21383Y4377D01*
X21384Y4382D01*
X21385Y4386D01*
X21385Y4390D01*
X21385Y4394D01*
Y4396D01*
Y4398D01*
Y4398D01*
X21385Y4406D01*
X21384Y4415D01*
X21383Y4422D01*
X21382Y4429D01*
X21380Y4436D01*
X21378Y4442D01*
X21375Y4448D01*
X21373Y4453D01*
X21371Y4458D01*
X21369Y4461D01*
X21367Y4465D01*
X21365Y4468D01*
X21363Y4470D01*
X21362Y4472D01*
X21361Y4473D01*
X21361Y4473D01*
X21356Y4478D01*
X21351Y4483D01*
X21346Y4486D01*
X21341Y4490D01*
X21335Y4493D01*
X21330Y4495D01*
X21325Y4497D01*
X21320Y4498D01*
X21315Y4499D01*
X21311Y4500D01*
X21307Y4501D01*
X21304Y4501D01*
X21301Y4502D01*
D02*
G37*
G36*
X17627Y3844D02*
X17625D01*
X17617Y3844D01*
X17610Y3842D01*
X17604Y3840D01*
X17599Y3837D01*
X17595Y3834D01*
X17592Y3832D01*
X17590Y3830D01*
X17590Y3829D01*
X17586Y3824D01*
X17583Y3817D01*
X17580Y3810D01*
X17579Y3803D01*
X17578Y3797D01*
X17577Y3793D01*
Y3791D01*
Y3789D01*
Y3789D01*
Y3788D01*
X17578Y3779D01*
X17579Y3772D01*
X17581Y3765D01*
X17584Y3759D01*
X17586Y3754D01*
X17589Y3751D01*
X17590Y3749D01*
X17591Y3748D01*
X17596Y3743D01*
X17601Y3739D01*
X17607Y3736D01*
X17613Y3735D01*
X17618Y3733D01*
X17621Y3733D01*
X17624Y3732D01*
X17625D01*
X17629Y3733D01*
X17633Y3733D01*
X17640Y3735D01*
X17646Y3738D01*
X17652Y3742D01*
X17656Y3745D01*
X17659Y3747D01*
X17661Y3750D01*
X17661Y3750D01*
X17666Y3757D01*
X17669Y3765D01*
X17671Y3772D01*
X17673Y3779D01*
X17674Y3785D01*
X17674Y3790D01*
X17675Y3792D01*
Y3793D01*
Y3794D01*
Y3794D01*
X17674Y3802D01*
X17673Y3808D01*
X17671Y3814D01*
X17668Y3819D01*
X17665Y3824D01*
X17663Y3827D01*
X17661Y3829D01*
X17661Y3829D01*
X17656Y3834D01*
X17650Y3838D01*
X17643Y3841D01*
X17638Y3843D01*
X17633Y3844D01*
X17629Y3844D01*
X17627Y3844D01*
D02*
G37*
G36*
X17871Y3942D02*
X17867D01*
X17860Y3941D01*
X17853Y3940D01*
X17846Y3939D01*
X17840Y3938D01*
X17835Y3935D01*
X17829Y3933D01*
X17825Y3930D01*
X17821Y3928D01*
X17817Y3925D01*
X17813Y3923D01*
X17811Y3920D01*
X17808Y3918D01*
X17807Y3917D01*
X17805Y3916D01*
X17804Y3915D01*
X17804Y3914D01*
X17800Y3909D01*
X17797Y3903D01*
X17793Y3897D01*
X17791Y3891D01*
X17787Y3878D01*
X17784Y3866D01*
X17783Y3860D01*
X17782Y3855D01*
X17782Y3850D01*
X17782Y3846D01*
X17781Y3842D01*
Y3840D01*
Y3838D01*
Y3838D01*
X17782Y3829D01*
X17782Y3821D01*
X17783Y3813D01*
X17785Y3805D01*
X17787Y3799D01*
X17789Y3792D01*
X17791Y3787D01*
X17793Y3782D01*
X17795Y3777D01*
X17797Y3773D01*
X17799Y3770D01*
X17801Y3767D01*
X17803Y3765D01*
X17804Y3763D01*
X17804Y3762D01*
X17805Y3762D01*
X17809Y3757D01*
X17814Y3753D01*
X17819Y3750D01*
X17825Y3746D01*
X17830Y3744D01*
X17836Y3742D01*
X17846Y3738D01*
X17851Y3737D01*
X17855Y3736D01*
X17859Y3736D01*
X17863Y3735D01*
X17865Y3735D01*
X17869D01*
X17876Y3735D01*
X17883Y3736D01*
X17889Y3737D01*
X17895Y3740D01*
X17901Y3742D01*
X17906Y3744D01*
X17911Y3747D01*
X17915Y3749D01*
X17919Y3752D01*
X17922Y3755D01*
X17925Y3757D01*
X17927Y3759D01*
X17929Y3761D01*
X17931Y3762D01*
X17931Y3763D01*
X17932Y3763D01*
X17936Y3769D01*
X17940Y3774D01*
X17943Y3781D01*
X17945Y3787D01*
X17948Y3793D01*
X17950Y3799D01*
X17953Y3812D01*
X17953Y3817D01*
X17954Y3822D01*
X17955Y3826D01*
X17955Y3830D01*
X17955Y3834D01*
Y3836D01*
Y3838D01*
Y3838D01*
X17955Y3846D01*
X17954Y3855D01*
X17953Y3862D01*
X17952Y3869D01*
X17950Y3876D01*
X17948Y3882D01*
X17945Y3888D01*
X17943Y3893D01*
X17941Y3898D01*
X17939Y3901D01*
X17937Y3905D01*
X17935Y3908D01*
X17933Y3910D01*
X17932Y3912D01*
X17931Y3913D01*
X17931Y3913D01*
X17926Y3918D01*
X17921Y3923D01*
X17916Y3926D01*
X17911Y3930D01*
X17905Y3933D01*
X17900Y3935D01*
X17895Y3937D01*
X17890Y3938D01*
X17885Y3939D01*
X17881Y3940D01*
X17877Y3941D01*
X17874Y3941D01*
X17871Y3942D01*
D02*
G37*
G36*
X17681Y9442D02*
X17677D01*
X17670Y9441D01*
X17663Y9440D01*
X17656Y9439D01*
X17650Y9438D01*
X17645Y9435D01*
X17639Y9433D01*
X17635Y9430D01*
X17631Y9428D01*
X17627Y9425D01*
X17623Y9423D01*
X17621Y9420D01*
X17618Y9418D01*
X17617Y9417D01*
X17615Y9416D01*
X17614Y9415D01*
X17614Y9414D01*
X17610Y9409D01*
X17607Y9403D01*
X17603Y9397D01*
X17601Y9391D01*
X17597Y9378D01*
X17594Y9366D01*
X17593Y9360D01*
X17592Y9355D01*
X17592Y9350D01*
X17592Y9346D01*
X17591Y9342D01*
Y9340D01*
Y9338D01*
Y9338D01*
X17592Y9329D01*
X17592Y9321D01*
X17593Y9313D01*
X17595Y9305D01*
X17597Y9299D01*
X17599Y9292D01*
X17601Y9287D01*
X17603Y9282D01*
X17605Y9277D01*
X17607Y9273D01*
X17609Y9270D01*
X17611Y9267D01*
X17613Y9265D01*
X17614Y9263D01*
X17614Y9262D01*
X17615Y9262D01*
X17619Y9257D01*
X17624Y9253D01*
X17629Y9250D01*
X17635Y9246D01*
X17640Y9244D01*
X17646Y9242D01*
X17656Y9238D01*
X17661Y9237D01*
X17665Y9236D01*
X17669Y9236D01*
X17673Y9235D01*
X17675Y9235D01*
X17679D01*
X17686Y9235D01*
X17693Y9236D01*
X17699Y9237D01*
X17705Y9240D01*
X17711Y9242D01*
X17716Y9244D01*
X17721Y9247D01*
X17725Y9249D01*
X17729Y9252D01*
X17732Y9255D01*
X17735Y9257D01*
X17737Y9259D01*
X17739Y9261D01*
X17741Y9262D01*
X17741Y9263D01*
X17742Y9263D01*
X17746Y9269D01*
X17750Y9274D01*
X17753Y9281D01*
X17755Y9287D01*
X17758Y9293D01*
X17760Y9299D01*
X17763Y9312D01*
X17763Y9317D01*
X17764Y9322D01*
X17765Y9326D01*
X17765Y9330D01*
X17765Y9334D01*
Y9336D01*
Y9338D01*
Y9338D01*
X17765Y9346D01*
X17764Y9355D01*
X17763Y9362D01*
X17762Y9369D01*
X17760Y9376D01*
X17758Y9382D01*
X17755Y9388D01*
X17753Y9393D01*
X17751Y9398D01*
X17749Y9401D01*
X17747Y9405D01*
X17745Y9408D01*
X17743Y9410D01*
X17742Y9412D01*
X17741Y9413D01*
X17741Y9413D01*
X17736Y9418D01*
X17731Y9423D01*
X17726Y9426D01*
X17721Y9430D01*
X17715Y9433D01*
X17710Y9435D01*
X17705Y9437D01*
X17700Y9438D01*
X17695Y9439D01*
X17691Y9440D01*
X17687Y9441D01*
X17684Y9441D01*
X17681Y9442D01*
D02*
G37*
G36*
X4196Y8899D02*
Y8777D01*
X4280D01*
X4270Y8789D01*
X4261Y8801D01*
X4253Y8811D01*
X4247Y8821D01*
X4244Y8825D01*
X4241Y8829D01*
X4239Y8831D01*
X4237Y8834D01*
X4236Y8836D01*
X4234Y8838D01*
X4234Y8839D01*
X4233Y8839D01*
X4226Y8851D01*
X4219Y8861D01*
X4213Y8871D01*
X4207Y8881D01*
X4205Y8885D01*
X4203Y8888D01*
X4201Y8892D01*
X4199Y8894D01*
X4198Y8897D01*
X4197Y8898D01*
X4196Y8899D01*
D02*
G37*
G36*
X4461Y8922D02*
X4457D01*
X4450Y8921D01*
X4443Y8920D01*
X4436Y8919D01*
X4430Y8918D01*
X4425Y8915D01*
X4419Y8913D01*
X4415Y8910D01*
X4411Y8908D01*
X4407Y8905D01*
X4403Y8903D01*
X4401Y8900D01*
X4398Y8898D01*
X4397Y8897D01*
X4395Y8895D01*
X4394Y8895D01*
X4394Y8894D01*
X4390Y8889D01*
X4387Y8883D01*
X4383Y8877D01*
X4381Y8871D01*
X4377Y8858D01*
X4374Y8846D01*
X4373Y8840D01*
X4372Y8835D01*
X4372Y8830D01*
X4372Y8826D01*
X4371Y8822D01*
Y8820D01*
Y8818D01*
Y8818D01*
X4372Y8809D01*
X4372Y8801D01*
X4373Y8793D01*
X4375Y8785D01*
X4377Y8779D01*
X4379Y8772D01*
X4381Y8767D01*
X4383Y8762D01*
X4385Y8757D01*
X4387Y8753D01*
X4389Y8750D01*
X4391Y8747D01*
X4393Y8745D01*
X4394Y8743D01*
X4394Y8742D01*
X4395Y8742D01*
X4399Y8737D01*
X4404Y8733D01*
X4409Y8730D01*
X4415Y8726D01*
X4420Y8724D01*
X4426Y8722D01*
X4436Y8718D01*
X4441Y8717D01*
X4445Y8716D01*
X4449Y8716D01*
X4453Y8715D01*
X4455Y8715D01*
X4459D01*
X4466Y8715D01*
X4473Y8716D01*
X4479Y8717D01*
X4485Y8720D01*
X4491Y8722D01*
X4496Y8724D01*
X4501Y8727D01*
X4505Y8729D01*
X4509Y8732D01*
X4512Y8735D01*
X4515Y8737D01*
X4517Y8739D01*
X4519Y8741D01*
X4521Y8742D01*
X4521Y8743D01*
X4522Y8743D01*
X4526Y8749D01*
X4530Y8754D01*
X4533Y8761D01*
X4535Y8767D01*
X4538Y8773D01*
X4540Y8779D01*
X4543Y8791D01*
X4543Y8797D01*
X4544Y8802D01*
X4545Y8806D01*
X4545Y8810D01*
X4545Y8814D01*
Y8816D01*
Y8818D01*
Y8818D01*
X4545Y8826D01*
X4544Y8835D01*
X4543Y8842D01*
X4542Y8849D01*
X4540Y8856D01*
X4538Y8862D01*
X4535Y8868D01*
X4533Y8873D01*
X4531Y8878D01*
X4529Y8881D01*
X4527Y8885D01*
X4525Y8888D01*
X4523Y8890D01*
X4522Y8892D01*
X4521Y8893D01*
X4521Y8893D01*
X4516Y8898D01*
X4511Y8903D01*
X4506Y8906D01*
X4501Y8910D01*
X4495Y8913D01*
X4490Y8915D01*
X4485Y8917D01*
X4480Y8918D01*
X4475Y8919D01*
X4471Y8920D01*
X4467Y8921D01*
X4464Y8921D01*
X4461Y8922D01*
D02*
G37*
G36*
X4491Y3872D02*
X4487D01*
X4480Y3871D01*
X4473Y3870D01*
X4466Y3869D01*
X4460Y3868D01*
X4455Y3865D01*
X4449Y3863D01*
X4445Y3860D01*
X4441Y3858D01*
X4437Y3855D01*
X4433Y3853D01*
X4431Y3850D01*
X4428Y3848D01*
X4427Y3847D01*
X4425Y3846D01*
X4424Y3845D01*
X4424Y3844D01*
X4420Y3839D01*
X4417Y3833D01*
X4413Y3827D01*
X4411Y3821D01*
X4407Y3808D01*
X4404Y3796D01*
X4403Y3790D01*
X4402Y3785D01*
X4402Y3780D01*
X4402Y3776D01*
X4401Y3772D01*
Y3770D01*
Y3768D01*
Y3768D01*
X4402Y3759D01*
X4402Y3751D01*
X4403Y3743D01*
X4405Y3735D01*
X4407Y3729D01*
X4409Y3722D01*
X4411Y3717D01*
X4413Y3712D01*
X4415Y3707D01*
X4417Y3703D01*
X4419Y3700D01*
X4421Y3697D01*
X4423Y3695D01*
X4424Y3693D01*
X4424Y3692D01*
X4425Y3692D01*
X4429Y3687D01*
X4434Y3683D01*
X4439Y3680D01*
X4445Y3676D01*
X4450Y3674D01*
X4456Y3672D01*
X4466Y3668D01*
X4471Y3667D01*
X4475Y3666D01*
X4479Y3666D01*
X4483Y3665D01*
X4485Y3665D01*
X4489D01*
X4496Y3665D01*
X4503Y3666D01*
X4509Y3667D01*
X4515Y3670D01*
X4521Y3672D01*
X4526Y3674D01*
X4531Y3677D01*
X4535Y3679D01*
X4539Y3682D01*
X4542Y3685D01*
X4545Y3687D01*
X4547Y3689D01*
X4549Y3691D01*
X4551Y3692D01*
X4551Y3693D01*
X4552Y3693D01*
X4556Y3699D01*
X4560Y3704D01*
X4563Y3711D01*
X4565Y3717D01*
X4568Y3723D01*
X4570Y3729D01*
X4573Y3742D01*
X4573Y3747D01*
X4574Y3752D01*
X4575Y3756D01*
X4575Y3760D01*
X4575Y3764D01*
Y3766D01*
Y3768D01*
Y3768D01*
X4575Y3776D01*
X4574Y3785D01*
X4573Y3792D01*
X4572Y3799D01*
X4570Y3806D01*
X4568Y3812D01*
X4565Y3818D01*
X4563Y3823D01*
X4561Y3828D01*
X4559Y3831D01*
X4557Y3835D01*
X4555Y3838D01*
X4553Y3840D01*
X4552Y3842D01*
X4551Y3843D01*
X4551Y3843D01*
X4546Y3848D01*
X4541Y3853D01*
X4536Y3856D01*
X4531Y3860D01*
X4525Y3863D01*
X4520Y3865D01*
X4515Y3867D01*
X4510Y3868D01*
X4505Y3869D01*
X4501Y3870D01*
X4497Y3871D01*
X4494Y3871D01*
X4491Y3872D01*
D02*
G37*
G36*
X7621Y3492D02*
X7617D01*
X7610Y3491D01*
X7603Y3490D01*
X7596Y3489D01*
X7590Y3488D01*
X7585Y3485D01*
X7579Y3483D01*
X7575Y3480D01*
X7571Y3478D01*
X7567Y3475D01*
X7563Y3473D01*
X7561Y3471D01*
X7558Y3468D01*
X7557Y3467D01*
X7555Y3465D01*
X7554Y3465D01*
X7554Y3464D01*
X7550Y3459D01*
X7547Y3453D01*
X7543Y3447D01*
X7541Y3441D01*
X7537Y3428D01*
X7534Y3416D01*
X7533Y3410D01*
X7532Y3405D01*
X7532Y3400D01*
X7532Y3396D01*
X7531Y3392D01*
Y3390D01*
Y3388D01*
Y3388D01*
X7532Y3379D01*
X7532Y3371D01*
X7533Y3363D01*
X7535Y3355D01*
X7537Y3349D01*
X7539Y3342D01*
X7541Y3337D01*
X7543Y3332D01*
X7545Y3327D01*
X7547Y3323D01*
X7549Y3320D01*
X7551Y3317D01*
X7553Y3315D01*
X7554Y3313D01*
X7554Y3312D01*
X7555Y3312D01*
X7559Y3307D01*
X7564Y3303D01*
X7569Y3300D01*
X7575Y3296D01*
X7580Y3294D01*
X7586Y3292D01*
X7596Y3288D01*
X7601Y3287D01*
X7605Y3286D01*
X7609Y3286D01*
X7613Y3285D01*
X7615Y3285D01*
X7619D01*
X7626Y3285D01*
X7633Y3286D01*
X7639Y3287D01*
X7645Y3290D01*
X7651Y3292D01*
X7656Y3294D01*
X7661Y3297D01*
X7665Y3299D01*
X7669Y3302D01*
X7672Y3305D01*
X7675Y3307D01*
X7677Y3309D01*
X7679Y3311D01*
X7681Y3312D01*
X7681Y3313D01*
X7682Y3313D01*
X7686Y3319D01*
X7690Y3324D01*
X7693Y3331D01*
X7695Y3337D01*
X7698Y3343D01*
X7700Y3349D01*
X7703Y3361D01*
X7703Y3367D01*
X7704Y3372D01*
X7705Y3376D01*
X7705Y3380D01*
X7705Y3384D01*
Y3386D01*
Y3388D01*
Y3388D01*
X7705Y3396D01*
X7704Y3405D01*
X7703Y3412D01*
X7702Y3419D01*
X7700Y3426D01*
X7698Y3432D01*
X7695Y3438D01*
X7693Y3443D01*
X7691Y3448D01*
X7689Y3451D01*
X7687Y3455D01*
X7685Y3458D01*
X7683Y3460D01*
X7682Y3462D01*
X7681Y3463D01*
X7681Y3463D01*
X7676Y3468D01*
X7671Y3473D01*
X7666Y3476D01*
X7661Y3480D01*
X7655Y3483D01*
X7650Y3485D01*
X7645Y3487D01*
X7640Y3488D01*
X7635Y3489D01*
X7631Y3490D01*
X7627Y3491D01*
X7624Y3491D01*
X7621Y3492D01*
D02*
G37*
G36*
X7211Y9642D02*
X7207D01*
X7200Y9641D01*
X7193Y9640D01*
X7186Y9639D01*
X7180Y9638D01*
X7175Y9635D01*
X7169Y9633D01*
X7165Y9630D01*
X7161Y9628D01*
X7157Y9625D01*
X7153Y9623D01*
X7151Y9621D01*
X7148Y9618D01*
X7147Y9617D01*
X7145Y9615D01*
X7144Y9615D01*
X7144Y9614D01*
X7140Y9609D01*
X7137Y9603D01*
X7133Y9597D01*
X7131Y9591D01*
X7127Y9578D01*
X7124Y9566D01*
X7123Y9560D01*
X7122Y9555D01*
X7122Y9550D01*
X7122Y9546D01*
X7121Y9542D01*
Y9540D01*
Y9538D01*
Y9538D01*
X7122Y9529D01*
X7122Y9521D01*
X7123Y9513D01*
X7125Y9505D01*
X7127Y9499D01*
X7129Y9492D01*
X7131Y9487D01*
X7133Y9482D01*
X7135Y9477D01*
X7137Y9473D01*
X7139Y9470D01*
X7141Y9467D01*
X7143Y9465D01*
X7144Y9463D01*
X7144Y9462D01*
X7145Y9462D01*
X7149Y9457D01*
X7154Y9453D01*
X7159Y9450D01*
X7165Y9446D01*
X7170Y9444D01*
X7176Y9442D01*
X7186Y9438D01*
X7191Y9437D01*
X7195Y9436D01*
X7199Y9436D01*
X7203Y9435D01*
X7205Y9435D01*
X7209D01*
X7216Y9435D01*
X7223Y9436D01*
X7229Y9437D01*
X7235Y9440D01*
X7241Y9442D01*
X7246Y9444D01*
X7251Y9447D01*
X7255Y9449D01*
X7259Y9452D01*
X7262Y9455D01*
X7265Y9457D01*
X7267Y9459D01*
X7269Y9461D01*
X7271Y9462D01*
X7271Y9463D01*
X7272Y9463D01*
X7276Y9469D01*
X7280Y9474D01*
X7283Y9481D01*
X7285Y9487D01*
X7288Y9493D01*
X7290Y9499D01*
X7293Y9512D01*
X7293Y9517D01*
X7294Y9522D01*
X7295Y9526D01*
X7295Y9530D01*
X7295Y9534D01*
Y9536D01*
Y9538D01*
Y9538D01*
X7295Y9546D01*
X7294Y9555D01*
X7293Y9562D01*
X7292Y9569D01*
X7290Y9576D01*
X7288Y9582D01*
X7285Y9588D01*
X7283Y9593D01*
X7281Y9598D01*
X7279Y9601D01*
X7277Y9605D01*
X7275Y9608D01*
X7273Y9610D01*
X7272Y9612D01*
X7271Y9613D01*
X7271Y9613D01*
X7266Y9618D01*
X7261Y9623D01*
X7256Y9626D01*
X7251Y9630D01*
X7245Y9633D01*
X7240Y9635D01*
X7235Y9637D01*
X7230Y9638D01*
X7225Y9639D01*
X7221Y9640D01*
X7217Y9641D01*
X7214Y9641D01*
X7211Y9642D01*
D02*
G37*
%LPD*%
D11*
X17957Y3334D02*
X19926D01*
X17957Y1366D02*
X19926D01*
X17774Y6866D02*
X19743D01*
X17774Y8834D02*
X19743D01*
X23034Y6474D02*
Y8443D01*
X21066Y6474D02*
Y8443D01*
X21116Y1657D02*
Y3626D01*
X23084Y1657D02*
Y3626D01*
X6234Y6074D02*
Y8043D01*
X4266Y6074D02*
Y8043D01*
X4316Y1019D02*
Y2987D01*
X6284Y1019D02*
Y2987D01*
X7357Y9034D02*
X9326D01*
X7357Y7066D02*
X9326D01*
X7716Y916D02*
X9684D01*
X7716Y2884D02*
X9684D01*
D25*
X27550Y0D02*
Y13000D01*
X0D02*
X27550D01*
X0Y0D02*
Y13000D01*
Y0D02*
X100D01*
X0D02*
X200D01*
X0D02*
X27550D01*
D26*
X10910Y1935D02*
Y2575D01*
X10590Y1935D02*
Y2575D01*
X10910D01*
X10590Y1935D02*
X10910D01*
Y7435D02*
Y8075D01*
X10590Y7435D02*
Y8075D01*
X10910D01*
X10590Y7435D02*
X10910D01*
Y3768D02*
Y4408D01*
X10590Y3768D02*
Y4408D01*
X10910D01*
X10590Y3768D02*
X10910D01*
X6735Y7090D02*
X7375D01*
X6735Y7410D02*
X7375D01*
Y7090D02*
Y7410D01*
X6735Y7090D02*
Y7410D01*
X10910Y5602D02*
Y6241D01*
X10590Y5602D02*
Y6241D01*
X10910D01*
X10590Y5602D02*
X10910D01*
X14365Y5963D02*
X15035D01*
X14365Y6337D02*
X15035D01*
Y5963D02*
Y6337D01*
X14365Y5963D02*
Y6337D01*
X12324Y5958D02*
X12994D01*
X12324Y6332D02*
X12994D01*
Y5958D02*
Y6332D01*
X12324Y5958D02*
Y6332D01*
Y4061D02*
X12994D01*
X12324Y4435D02*
X12994D01*
Y4061D02*
Y4435D01*
X12324Y4061D02*
Y4435D01*
X14365Y4066D02*
X15035D01*
X14365Y4440D02*
X15035D01*
Y4066D02*
Y4440D01*
X14365Y4066D02*
Y4440D01*
X5260Y4300D02*
Y4940D01*
X4940Y4300D02*
Y4940D01*
X5260D01*
X4940Y4300D02*
X5260D01*
X17765Y8837D02*
X18435D01*
X17765Y8463D02*
X18435D01*
X17765D02*
Y8837D01*
X18435Y8463D02*
Y8837D01*
X16437Y5215D02*
Y5885D01*
X16063Y5215D02*
Y5885D01*
X16437D01*
X16063Y5215D02*
X16437D01*
X23015Y11213D02*
X23685D01*
X23015Y11587D02*
X23685D01*
Y11213D02*
Y11587D01*
X23015Y11213D02*
Y11587D01*
X17860Y4085D02*
Y4725D01*
X17540Y4085D02*
Y4725D01*
X17860D01*
X17540Y4085D02*
X17860D01*
X16410Y1285D02*
Y1925D01*
X16090Y1285D02*
Y1925D01*
X16410D01*
X16090Y1285D02*
X16410D01*
X14325Y2460D02*
X14965D01*
X14325Y2140D02*
X14965D01*
X14325D02*
Y2460D01*
X14965Y2140D02*
Y2460D01*
X16406Y3014D02*
Y3654D01*
X16086Y3014D02*
Y3654D01*
X16406D01*
X16086Y3014D02*
X16406D01*
X17285Y5740D02*
X17925D01*
X17285Y6060D02*
X17925D01*
Y5740D02*
Y6060D01*
X17285Y5740D02*
Y6060D01*
X12385Y2140D02*
X13025D01*
X12385Y2460D02*
X13025D01*
Y2140D02*
Y2460D01*
X12385Y2140D02*
Y2460D01*
M02*
