G04*
G04 #@! TF.GenerationSoftware,Altium Limited,Altium Designer,20.0.13 (296)*
G04*
G04 Layer_Color=32768*
%FSLAX24Y24*%
%MOIN*%
G70*
G01*
G75*
%ADD25C,0.0200*%
%ADD26C,0.0039*%
%ADD87C,0.0020*%
%ADD88C,0.0000*%
D25*
X27550Y0D02*
Y13000D01*
X0D02*
X27550D01*
X0Y0D02*
Y13000D01*
Y0D02*
X100D01*
X0D02*
X200D01*
X0D02*
X27550D01*
D26*
X20070Y11031D02*
G03*
X20070Y11031I-320J0D01*
G01*
X22526Y9437D02*
Y12626D01*
X16974D02*
X22526D01*
X16974Y9437D02*
Y12626D01*
Y9437D02*
X22526D01*
X19159Y11031D02*
X20341D01*
X19750Y10441D02*
Y11622D01*
X10750Y2063D02*
Y2437D01*
X10563Y2250D02*
X10937D01*
X10750Y7563D02*
Y7937D01*
X10563Y7750D02*
X10937D01*
X10750Y3896D02*
Y4270D01*
X10563Y4083D02*
X10937D01*
X6863Y7250D02*
X7237D01*
X7050Y7063D02*
Y7437D01*
X10750Y5730D02*
Y6104D01*
X10563Y5917D02*
X10937D01*
X14700Y5963D02*
Y6337D01*
X14513Y6150D02*
X14887D01*
X12659Y5958D02*
Y6332D01*
X12472Y6145D02*
X12846D01*
X12659Y4061D02*
Y4435D01*
X12472Y4248D02*
X12846D01*
X14700Y4066D02*
Y4440D01*
X14513Y4253D02*
X14887D01*
X5100Y4428D02*
Y4802D01*
X4913Y4615D02*
X5287D01*
X18100Y8463D02*
Y8837D01*
X17913Y8650D02*
X18287D01*
X16063Y5550D02*
X16437D01*
X16250Y5363D02*
Y5737D01*
X23350Y11213D02*
Y11587D01*
X23163Y11400D02*
X23537D01*
X17700Y4213D02*
Y4587D01*
X17513Y4400D02*
X17887D01*
X16250Y1413D02*
Y1787D01*
X16063Y1600D02*
X16437D01*
X14463Y2300D02*
X14837D01*
X14650Y2113D02*
Y2487D01*
X16246Y3142D02*
Y3516D01*
X16059Y3329D02*
X16433D01*
X17413Y5900D02*
X17787D01*
X17600Y5713D02*
Y6087D01*
X12513Y2300D02*
X12887D01*
X12700Y2113D02*
Y2487D01*
X10910Y1935D02*
Y2575D01*
X10590Y1935D02*
Y2575D01*
X10910D01*
X10590Y1935D02*
X10910D01*
Y7435D02*
Y8075D01*
X10590Y7435D02*
Y8075D01*
X10910D01*
X10590Y7435D02*
X10910D01*
Y3768D02*
Y4408D01*
X10590Y3768D02*
Y4408D01*
X10910D01*
X10590Y3768D02*
X10910D01*
X6735Y7090D02*
X7375D01*
X6735Y7410D02*
X7375D01*
Y7090D02*
Y7410D01*
X6735Y7090D02*
Y7410D01*
X10910Y5602D02*
Y6241D01*
X10590Y5602D02*
Y6241D01*
X10910D01*
X10590Y5602D02*
X10910D01*
X14365Y5963D02*
X15035D01*
X14365Y6337D02*
X15035D01*
Y5963D02*
Y6337D01*
X14365Y5963D02*
Y6337D01*
X12324Y5958D02*
X12994D01*
X12324Y6332D02*
X12994D01*
Y5958D02*
Y6332D01*
X12324Y5958D02*
Y6332D01*
Y4061D02*
X12994D01*
X12324Y4435D02*
X12994D01*
Y4061D02*
Y4435D01*
X12324Y4061D02*
Y4435D01*
X14365Y4066D02*
X15035D01*
X14365Y4440D02*
X15035D01*
Y4066D02*
Y4440D01*
X14365Y4066D02*
Y4440D01*
X5260Y4300D02*
Y4940D01*
X4940Y4300D02*
Y4940D01*
X5260D01*
X4940Y4300D02*
X5260D01*
X17765Y8837D02*
X18435D01*
X17765Y8463D02*
X18435D01*
X17765D02*
Y8837D01*
X18435Y8463D02*
Y8837D01*
X16437Y5215D02*
Y5885D01*
X16063Y5215D02*
Y5885D01*
X16437D01*
X16063Y5215D02*
X16437D01*
X23015Y11213D02*
X23685D01*
X23015Y11587D02*
X23685D01*
Y11213D02*
Y11587D01*
X23015Y11213D02*
Y11587D01*
X17860Y4085D02*
Y4725D01*
X17540Y4085D02*
Y4725D01*
X17860D01*
X17540Y4085D02*
X17860D01*
X16410Y1285D02*
Y1925D01*
X16090Y1285D02*
Y1925D01*
X16410D01*
X16090Y1285D02*
X16410D01*
X14325Y2460D02*
X14965D01*
X14325Y2140D02*
X14965D01*
X14325D02*
Y2460D01*
X14965Y2140D02*
Y2460D01*
X16406Y3014D02*
Y3654D01*
X16086Y3014D02*
Y3654D01*
X16406D01*
X16086Y3014D02*
X16406D01*
X17285Y5740D02*
X17925D01*
X17285Y6060D02*
X17925D01*
Y5740D02*
Y6060D01*
X17285Y5740D02*
Y6060D01*
X12385Y2140D02*
X13025D01*
X12385Y2460D02*
X13025D01*
Y2140D02*
Y2460D01*
X12385Y2140D02*
Y2460D01*
D87*
X16388Y11400D02*
G03*
X16388Y11400I-138J0D01*
G01*
X7538Y8550D02*
G03*
X7538Y8550I-138J0D01*
G01*
X23870Y9750D02*
G03*
X23870Y9750I-98J0D01*
G01*
X16298Y7645D02*
G03*
X16298Y7645I-98J0D01*
G01*
X18538Y7350D02*
G03*
X18538Y7350I-138J0D01*
G01*
X5685Y8818D02*
Y12282D01*
X2615Y8818D02*
X5685D01*
X2615D02*
Y12282D01*
X5685D01*
X16250Y11203D02*
Y11597D01*
X16053Y11400D02*
X16447D01*
X15896Y12365D02*
X16604D01*
Y10435D02*
Y12365D01*
X15896Y10435D02*
X16604D01*
X15896D02*
Y12365D01*
X7203Y8550D02*
X7597D01*
X7400Y8353D02*
Y8747D01*
X6435Y8196D02*
Y8904D01*
X8365D01*
Y8196D02*
Y8904D01*
X6435Y8196D02*
X8365D01*
X10484Y1659D02*
X11016D01*
X10484Y2841D02*
X11016D01*
X10484Y1659D02*
Y2841D01*
X11016Y1659D02*
Y2841D01*
X10484Y7159D02*
X11016D01*
X10484Y8341D02*
X11016D01*
X10484Y7159D02*
Y8341D01*
X11016Y7159D02*
Y8341D01*
X10484Y3493D02*
X11016D01*
X10484Y4674D02*
X11016D01*
X10484Y3493D02*
Y4674D01*
X11016Y3493D02*
Y4674D01*
X6459Y6984D02*
Y7516D01*
X7641Y6984D02*
Y7516D01*
X6459D02*
X7641D01*
X6459Y6984D02*
X7641D01*
X10484Y5326D02*
X11016D01*
X10484Y6507D02*
X11016D01*
X10484Y5326D02*
Y6507D01*
X11016Y5326D02*
Y6507D01*
X14109Y5884D02*
X15291D01*
X14109Y6416D02*
X15291D01*
Y5884D02*
Y6416D01*
X14109Y5884D02*
Y6416D01*
X12069Y5879D02*
X13250D01*
X12069Y6411D02*
X13250D01*
Y5879D02*
Y6411D01*
X12069Y5879D02*
Y6411D01*
Y3983D02*
X13250D01*
X12069Y4514D02*
X13250D01*
Y3983D02*
Y4514D01*
X12069Y3983D02*
Y4514D01*
X14109Y3987D02*
X15291D01*
X14109Y4519D02*
X15291D01*
Y3987D02*
Y4519D01*
X14109Y3987D02*
Y4519D01*
X4834Y4025D02*
X5366D01*
X4834Y5206D02*
X5366D01*
X4834Y4025D02*
Y5206D01*
X5366Y4025D02*
Y5206D01*
X17509Y8916D02*
X18691D01*
X17509Y8384D02*
X18691D01*
X17509D02*
Y8916D01*
X18691Y8384D02*
Y8916D01*
X16516Y4959D02*
Y6141D01*
X15984Y4959D02*
Y6141D01*
X16516D01*
X15984Y4959D02*
X16516D01*
X22759Y11134D02*
X23941D01*
X22759Y11666D02*
X23941D01*
Y11134D02*
Y11666D01*
X22759Y11134D02*
Y11666D01*
X24022Y9190D02*
Y10310D01*
X23522D02*
X24022D01*
X23522Y9190D02*
Y10310D01*
Y9190D02*
X24022D01*
X23633Y9750D02*
X23909D01*
X23772Y9613D02*
Y9889D01*
X15950Y7085D02*
Y8205D01*
Y7085D02*
X16450D01*
Y8205D01*
X15950D02*
X16450D01*
X16063Y7645D02*
X16339D01*
X16200Y7507D02*
Y7782D01*
X18203Y7350D02*
X18597D01*
X18400Y7153D02*
Y7547D01*
X19365Y6996D02*
Y7704D01*
X17435Y6996D02*
X19365D01*
X17435D02*
Y7704D01*
X19365D01*
X17434Y3809D02*
X17966D01*
X17434Y4991D02*
X17966D01*
X17434Y3809D02*
Y4991D01*
X17966Y3809D02*
Y4991D01*
X15984Y1009D02*
X16516D01*
X15984Y2191D02*
X16516D01*
X15984Y1009D02*
Y2191D01*
X16516Y1009D02*
Y2191D01*
X15241Y2034D02*
Y2566D01*
X14059Y2034D02*
Y2566D01*
Y2034D02*
X15241D01*
X14059Y2566D02*
X15241D01*
X15980Y2738D02*
X16512D01*
X15980Y3920D02*
X16512D01*
X15980Y2738D02*
Y3920D01*
X16512Y2738D02*
Y3920D01*
X17009Y5634D02*
Y6166D01*
X18191Y5634D02*
Y6166D01*
X17009D02*
X18191D01*
X17009Y5634D02*
X18191D01*
X12109Y2034D02*
Y2566D01*
X13291Y2034D02*
Y2566D01*
X12109D02*
X13291D01*
X12109Y2034D02*
X13291D01*
D88*
X15896Y11961D02*
X16604D01*
Y10839D02*
Y11961D01*
X15896Y10839D02*
X16604D01*
X15896D02*
Y11961D01*
X6839Y8196D02*
Y8904D01*
X7961D01*
Y8196D02*
Y8904D01*
X6839Y8196D02*
X7961D01*
X23949Y9396D02*
Y10104D01*
X23595D02*
X23949D01*
X23595Y9396D02*
Y10104D01*
Y9396D02*
X23949D01*
X16023Y7291D02*
Y8000D01*
Y7291D02*
X16377D01*
Y8000D01*
X16023D02*
X16377D01*
X18961Y6996D02*
Y7704D01*
X17839Y6996D02*
X18961D01*
X17839D02*
Y7704D01*
X18961D01*
M02*
