G04*
G04 #@! TF.GenerationSoftware,Altium Limited,Altium Designer,20.0.13 (296)*
G04*
G04 Layer_Color=8388736*
%FSLAX24Y24*%
%MOIN*%
G70*
G01*
G75*
%ADD25C,0.0200*%
%ADD26C,0.0039*%
%ADD37R,0.0474X0.1143*%
%ADD38R,0.0415X0.0474*%
%ADD39O,0.0198X0.0474*%
%ADD40O,0.0474X0.0198*%
G04:AMPARAMS|DCode=41|XSize=108.4mil|YSize=108.4mil|CornerRadius=9mil|HoleSize=0mil|Usage=FLASHONLY|Rotation=90.000|XOffset=0mil|YOffset=0mil|HoleType=Round|Shape=RoundedRectangle|*
%AMROUNDEDRECTD41*
21,1,0.1084,0.0904,0,0,90.0*
21,1,0.0904,0.1084,0,0,90.0*
1,1,0.0180,0.0452,0.0452*
1,1,0.0180,0.0452,-0.0452*
1,1,0.0180,-0.0452,-0.0452*
1,1,0.0180,-0.0452,0.0452*
%
%ADD41ROUNDEDRECTD41*%
%ADD42R,0.0474X0.0415*%
%ADD43R,0.0454X0.0434*%
%ADD44R,0.0646X0.0173*%
%ADD45R,0.0434X0.0454*%
%ADD46R,0.0415X0.0395*%
%ADD47O,0.2049X0.2836*%
%ADD48O,0.0867X0.1261*%
%ADD49R,0.0921X0.1433*%
%ADD50C,0.0671*%
%ADD51R,0.0671X0.0671*%
%ADD52O,0.1261X0.0867*%
G36*
X26001Y9396D02*
X26006Y9395D01*
X26011Y9392D01*
X26012Y9391D01*
X26014Y9388D01*
X26016Y9384D01*
X26017Y9378D01*
Y9377D01*
Y9376D01*
X26015Y9372D01*
X26015Y9367D01*
X26013Y9362D01*
Y9361D01*
X26013Y9361D01*
X26012Y9355D01*
X26010Y9349D01*
X26007Y9343D01*
Y9341D01*
X26006Y9338D01*
X26005Y9335D01*
X26004Y9332D01*
X26003Y9331D01*
X26001Y9327D01*
X25998Y9323D01*
X25995Y9318D01*
X25994Y9317D01*
X25991Y9314D01*
X25987Y9311D01*
X25981Y9307D01*
X25980Y9307D01*
X25977Y9304D01*
X25973Y9302D01*
X25968Y9300D01*
X25967D01*
X25964Y9299D01*
X25961Y9298D01*
X25958Y9298D01*
X25957D01*
X25955Y9298D01*
X25947D01*
X25945Y9299D01*
X25938D01*
X25936Y9300D01*
X25934Y9302D01*
X25930Y9307D01*
X25927Y9312D01*
Y9312D01*
X25927Y9313D01*
X25926Y9318D01*
X25925Y9324D01*
X25924Y9332D01*
Y9332D01*
Y9334D01*
X25925Y9336D01*
X25926Y9339D01*
X25927Y9344D01*
X25930Y9348D01*
X25933Y9353D01*
X25937Y9359D01*
X25938Y9360D01*
X25939Y9361D01*
X25941Y9364D01*
X25944Y9367D01*
X25951Y9373D01*
X25955Y9375D01*
X25958Y9376D01*
X25959Y9377D01*
X25961Y9379D01*
X25965Y9384D01*
X25970Y9389D01*
X25971Y9390D01*
X25973Y9392D01*
X25976Y9393D01*
X25981Y9395D01*
X25982Y9395D01*
X25985Y9396D01*
X25990Y9397D01*
X25996D01*
X26001Y9396D01*
D02*
G37*
G36*
X25453Y9499D02*
X25458Y9497D01*
X25462Y9493D01*
X25463Y9492D01*
X25465Y9489D01*
X25466Y9483D01*
X25467Y9476D01*
Y9475D01*
Y9473D01*
Y9470D01*
Y9466D01*
X25466Y9457D01*
X25465Y9446D01*
Y9445D01*
Y9443D01*
X25464Y9441D01*
X25463Y9437D01*
X25462Y9428D01*
X25460Y9418D01*
Y9418D01*
X25459Y9416D01*
X25458Y9413D01*
X25457Y9410D01*
X25454Y9402D01*
X25451Y9392D01*
Y9392D01*
X25450Y9390D01*
X25449Y9388D01*
X25449Y9384D01*
X25446Y9375D01*
X25442Y9365D01*
X25441Y9364D01*
X25440Y9362D01*
X25438Y9360D01*
X25437Y9358D01*
Y9358D01*
X25436Y9355D01*
Y9351D01*
X25435Y9347D01*
Y9346D01*
X25435Y9344D01*
X25433Y9341D01*
X25431Y9338D01*
X25430Y9338D01*
X25429Y9337D01*
X25426Y9334D01*
Y9333D01*
Y9332D01*
X25426Y9330D01*
X25425Y9327D01*
Y9327D01*
X25424Y9325D01*
X25423Y9321D01*
X25421Y9318D01*
Y9317D01*
X25419Y9315D01*
X25418Y9311D01*
X25415Y9307D01*
X25412Y9301D01*
X25408Y9294D01*
X25403Y9287D01*
X25398Y9278D01*
X25398Y9278D01*
X25396Y9275D01*
X25393Y9270D01*
X25389Y9264D01*
X25384Y9256D01*
X25379Y9248D01*
X25373Y9239D01*
X25366Y9229D01*
Y9227D01*
Y9225D01*
Y9221D01*
X25347Y9179D01*
Y9179D01*
X25346Y9176D01*
X25344Y9173D01*
X25342Y9168D01*
X25340Y9163D01*
X25338Y9156D01*
X25332Y9143D01*
Y9142D01*
X25332Y9140D01*
X25330Y9136D01*
X25329Y9132D01*
X25327Y9127D01*
X25326Y9121D01*
X25323Y9108D01*
Y9108D01*
X25321Y9105D01*
X25321Y9100D01*
X25319Y9094D01*
Y9093D01*
Y9090D01*
X25318Y9088D01*
Y9085D01*
X25319Y9084D01*
X25320Y9082D01*
X25322Y9077D01*
X25323Y9076D01*
X25324Y9073D01*
X25326Y9071D01*
X25327Y9068D01*
Y9067D01*
Y9066D01*
X25326Y9064D01*
X25324Y9061D01*
X25321Y9057D01*
X25318Y9054D01*
X25312Y9049D01*
X25305Y9045D01*
X25304Y9044D01*
X25302Y9043D01*
X25298Y9041D01*
X25294Y9039D01*
X25285Y9035D01*
X25281Y9034D01*
X25277D01*
X25275Y9034D01*
X25272D01*
X25268Y9035D01*
X25267D01*
X25265Y9036D01*
X25261D01*
X25258Y9036D01*
X25256Y9037D01*
X25253Y9038D01*
X25249Y9040D01*
X25244Y9042D01*
X25244Y9043D01*
X25242Y9045D01*
X25240Y9048D01*
X25239Y9054D01*
Y9054D01*
Y9057D01*
X25240Y9062D01*
X25241Y9069D01*
Y9070D01*
X25242Y9071D01*
X25243Y9073D01*
X25244Y9076D01*
X25246Y9085D01*
X25248Y9093D01*
Y9093D01*
X25249Y9095D01*
X25250Y9097D01*
X25251Y9100D01*
X25255Y9108D01*
X25259Y9114D01*
X25258Y9114D01*
Y9115D01*
X25258Y9116D01*
X25257Y9120D01*
Y9121D01*
Y9122D01*
X25258Y9125D01*
X25259Y9130D01*
X25261Y9136D01*
Y9137D01*
X25262Y9138D01*
X25264Y9142D01*
X25266Y9148D01*
X25270Y9156D01*
X25270Y9156D01*
X25271Y9159D01*
X25273Y9163D01*
X25275Y9168D01*
Y9169D01*
X25275Y9170D01*
X25277Y9173D01*
X25278Y9178D01*
X25281Y9183D01*
X25280D01*
X25279Y9184D01*
X25275Y9188D01*
X25269Y9193D01*
X25263Y9201D01*
Y9201D01*
X25261Y9203D01*
X25261Y9205D01*
X25259Y9208D01*
X25255Y9215D01*
X25253Y9224D01*
Y9224D01*
X25252Y9226D01*
X25250Y9230D01*
X25247Y9236D01*
Y9236D01*
X25246Y9237D01*
X25244Y9242D01*
X25241Y9249D01*
X25237Y9257D01*
X25213Y9338D01*
Y9339D01*
Y9340D01*
X25213Y9344D01*
X25212Y9352D01*
X25210Y9361D01*
Y9361D01*
Y9363D01*
X25210Y9366D01*
X25209Y9369D01*
X25208Y9374D01*
X25207Y9379D01*
X25205Y9392D01*
X25208Y9398D01*
X25203Y9404D01*
Y9404D01*
Y9406D01*
X25202Y9411D01*
Y9412D01*
Y9414D01*
X25201Y9418D01*
X25201Y9423D01*
Y9423D01*
Y9426D01*
X25200Y9430D01*
Y9434D01*
Y9435D01*
Y9437D01*
Y9443D01*
Y9443D01*
Y9445D01*
Y9447D01*
X25201Y9450D01*
X25201Y9457D01*
X25204Y9463D01*
Y9464D01*
X25204Y9465D01*
X25207Y9468D01*
X25212Y9472D01*
X25219Y9475D01*
X25232D01*
X25233Y9475D01*
X25234Y9476D01*
X25237Y9477D01*
X25241Y9479D01*
X25245Y9481D01*
X25252Y9485D01*
X25256D01*
X25259Y9484D01*
X25266Y9482D01*
X25272Y9478D01*
X25273Y9478D01*
X25275Y9474D01*
X25279Y9469D01*
X25281Y9462D01*
Y9461D01*
X25282Y9458D01*
X25283Y9454D01*
Y9448D01*
Y9447D01*
Y9446D01*
X25284Y9442D01*
Y9436D01*
Y9429D01*
Y9429D01*
Y9426D01*
X25283Y9420D01*
X25282Y9412D01*
Y9412D01*
Y9411D01*
Y9406D01*
X25281Y9401D01*
Y9396D01*
Y9395D01*
Y9391D01*
X25282Y9389D01*
X25283Y9386D01*
Y9385D01*
Y9384D01*
Y9382D01*
Y9379D01*
X25284Y9371D01*
X25284Y9361D01*
Y9360D01*
X25285Y9358D01*
Y9355D01*
X25286Y9351D01*
X25287Y9346D01*
X25288Y9341D01*
X25289Y9334D01*
X25290Y9327D01*
Y9326D01*
X25291Y9324D01*
Y9322D01*
X25292Y9318D01*
X25292Y9315D01*
X25294Y9310D01*
X25296Y9298D01*
Y9298D01*
X25297Y9295D01*
X25298Y9293D01*
X25298Y9287D01*
X25300Y9282D01*
X25301Y9276D01*
X25303Y9269D01*
X25304Y9261D01*
X25305Y9260D01*
X25306Y9259D01*
X25307Y9257D01*
X25310Y9254D01*
X25310Y9253D01*
X25311Y9251D01*
X25312Y9250D01*
Y9252D01*
X25313Y9255D01*
X25315Y9258D01*
Y9259D01*
X25316Y9261D01*
X25318Y9264D01*
X25319Y9268D01*
X25322Y9274D01*
X25325Y9281D01*
X25329Y9290D01*
X25334Y9300D01*
X25335Y9301D01*
X25335Y9303D01*
X25337Y9306D01*
X25338Y9310D01*
X25339Y9310D01*
X25341Y9314D01*
X25343Y9318D01*
X25345Y9324D01*
Y9325D01*
X25346Y9327D01*
X25348Y9330D01*
X25349Y9331D01*
X25349Y9332D01*
X25352Y9336D01*
Y9337D01*
X25353Y9340D01*
X25355Y9344D01*
X25357Y9350D01*
Y9351D01*
X25358Y9352D01*
X25359Y9357D01*
X25361Y9363D01*
X25364Y9369D01*
X25365Y9371D01*
X25367Y9375D01*
X25370Y9381D01*
X25374Y9388D01*
Y9389D01*
X25375Y9390D01*
X25376Y9392D01*
X25378Y9395D01*
X25381Y9403D01*
X25385Y9412D01*
Y9412D01*
X25386Y9413D01*
X25387Y9415D01*
X25389Y9418D01*
X25391Y9422D01*
X25394Y9426D01*
X25398Y9433D01*
X25398Y9434D01*
X25400Y9437D01*
X25403Y9441D01*
X25406Y9447D01*
X25411Y9455D01*
X25417Y9465D01*
X25423Y9475D01*
X25431Y9488D01*
X25432Y9489D01*
X25433Y9491D01*
X25438Y9496D01*
X25438Y9497D01*
X25440Y9498D01*
X25443Y9499D01*
X25447Y9500D01*
X25449D01*
X25453Y9499D01*
D02*
G37*
G36*
X25691Y9509D02*
X25693D01*
X25696Y9509D01*
X25700Y9508D01*
X25705Y9507D01*
X25708Y9505D01*
X25709D01*
X25711Y9506D01*
X25713Y9506D01*
X25716Y9507D01*
X25717D01*
X25719Y9508D01*
X25724Y9509D01*
X25725D01*
X25728Y9508D01*
X25731Y9507D01*
X25736Y9506D01*
X25742Y9505D01*
X25748Y9504D01*
X25762Y9501D01*
X25766D01*
X25770Y9500D01*
X25775Y9500D01*
X25776D01*
X25780Y9499D01*
X25787Y9498D01*
X25795Y9497D01*
X25796Y9496D01*
X25798Y9495D01*
X25802Y9493D01*
X25806Y9490D01*
X25808Y9489D01*
X25810Y9488D01*
X25816Y9486D01*
X25822Y9483D01*
X25822D01*
X25824Y9483D01*
X25826Y9482D01*
X25830Y9480D01*
X25837Y9476D01*
X25845Y9470D01*
X25845D01*
X25846Y9469D01*
X25850Y9465D01*
X25856Y9459D01*
X25860Y9452D01*
Y9451D01*
X25861Y9450D01*
X25863Y9446D01*
X25866Y9441D01*
X25868Y9435D01*
X25869Y9433D01*
X25870Y9429D01*
X25870Y9425D01*
X25871Y9419D01*
Y9418D01*
Y9417D01*
Y9415D01*
Y9412D01*
X25870Y9406D01*
X25868Y9398D01*
Y9398D01*
X25867Y9397D01*
X25866Y9392D01*
X25864Y9387D01*
X25860Y9381D01*
X25856Y9371D01*
Y9370D01*
X25856Y9369D01*
X25855Y9366D01*
X25853Y9362D01*
X25852Y9361D01*
X25851Y9359D01*
X25849Y9356D01*
X25847Y9352D01*
X25846Y9351D01*
X25844Y9348D01*
X25840Y9344D01*
X25836Y9338D01*
X25835Y9338D01*
X25834Y9335D01*
X25832Y9332D01*
X25829Y9329D01*
X25828Y9328D01*
X25826Y9325D01*
X25822Y9321D01*
X25817Y9317D01*
X25816D01*
X25815Y9315D01*
X25814Y9315D01*
X25813Y9312D01*
X25813Y9310D01*
X25810Y9307D01*
X25807Y9301D01*
X25802Y9294D01*
Y9293D01*
X25800Y9293D01*
X25799Y9290D01*
X25797Y9287D01*
X25792Y9280D01*
X25785Y9271D01*
X25784Y9270D01*
X25782Y9268D01*
X25779Y9265D01*
X25776Y9261D01*
X25769Y9253D01*
X25762Y9244D01*
Y9244D01*
X25760Y9243D01*
X25757Y9239D01*
X25754Y9235D01*
X25751Y9230D01*
X25750Y9230D01*
X25748Y9228D01*
X25745Y9226D01*
X25742Y9223D01*
X25742Y9222D01*
X25740Y9221D01*
X25735Y9216D01*
X25732Y9208D01*
X25731Y9207D01*
X25730Y9204D01*
X25726Y9199D01*
X25720Y9190D01*
X25719Y9190D01*
X25719Y9188D01*
X25717Y9185D01*
X25714Y9182D01*
X25710Y9177D01*
X25705Y9172D01*
X25700Y9165D01*
X25694Y9158D01*
X25693Y9157D01*
X25691Y9155D01*
X25688Y9151D01*
X25685Y9147D01*
X25677Y9138D01*
X25673Y9133D01*
X25670Y9128D01*
Y9128D01*
X25668Y9127D01*
X25666Y9122D01*
X25665Y9120D01*
X25671Y9121D01*
X25671D01*
X25674Y9120D01*
X25677Y9119D01*
X25689D01*
X25696Y9120D01*
X25705Y9117D01*
X25707Y9118D01*
X25710Y9119D01*
X25715Y9119D01*
X25720Y9120D01*
X25722D01*
X25725Y9121D01*
X25728Y9122D01*
X25742D01*
X25751Y9122D01*
X25761Y9124D01*
X25762D01*
X25763Y9125D01*
X25766D01*
X25769Y9125D01*
X25777Y9128D01*
X25786Y9130D01*
X25788D01*
X25791Y9131D01*
X25795Y9132D01*
X25801Y9133D01*
X25802D01*
X25802Y9133D01*
X25807Y9134D01*
X25814Y9136D01*
X25823Y9139D01*
X25824D01*
X25825Y9139D01*
X25830Y9141D01*
X25830D01*
X25832Y9142D01*
X25835Y9143D01*
X25838Y9144D01*
X25839D01*
X25842Y9145D01*
X25845Y9145D01*
X25847Y9146D01*
X25848D01*
X25851Y9147D01*
X25855Y9148D01*
X25861Y9150D01*
X25861Y9150D01*
X25862Y9151D01*
X25862Y9153D01*
X25865Y9156D01*
X25868Y9159D01*
X25872Y9164D01*
X25877Y9170D01*
X25883Y9176D01*
X25890Y9182D01*
X25891Y9183D01*
X25894Y9185D01*
X25898Y9189D01*
X25902Y9193D01*
X25912Y9202D01*
X25916Y9207D01*
X25920Y9212D01*
X25921Y9213D01*
X25922Y9216D01*
X25925Y9218D01*
X25929Y9221D01*
X25930Y9221D01*
X25933Y9223D01*
X25936Y9224D01*
X25941Y9224D01*
X25945D01*
X25949Y9224D01*
X25956Y9221D01*
X25964Y9217D01*
X25964D01*
X25965Y9216D01*
X25969Y9212D01*
X25973Y9206D01*
X25976Y9198D01*
Y9197D01*
Y9196D01*
X25977Y9192D01*
X25978Y9186D01*
X25980Y9178D01*
Y9177D01*
X25981Y9176D01*
X25981Y9171D01*
X25982Y9165D01*
X25983Y9158D01*
X25984Y9156D01*
X25984Y9153D01*
X25986Y9147D01*
X25988Y9139D01*
Y9138D01*
X25989Y9137D01*
X25990Y9133D01*
X25991Y9128D01*
X25992Y9127D01*
X25993Y9126D01*
X25993Y9125D01*
X25995Y9123D01*
X26002D01*
X26005Y9124D01*
X26008Y9125D01*
X26009D01*
X26011Y9126D01*
X26014Y9128D01*
X26018Y9130D01*
X26018Y9130D01*
X26021Y9133D01*
X26025Y9136D01*
X26029Y9139D01*
X26030Y9139D01*
X26033Y9142D01*
X26038Y9145D01*
X26044Y9149D01*
X26044Y9149D01*
X26046Y9151D01*
Y9152D01*
X26047Y9153D01*
X26049Y9156D01*
X26051Y9159D01*
Y9159D01*
X26052Y9160D01*
X26054Y9164D01*
X26058Y9169D01*
X26061Y9175D01*
Y9176D01*
X26062Y9176D01*
X26064Y9180D01*
X26067Y9184D01*
X26069Y9188D01*
X26070Y9190D01*
X26071Y9193D01*
X26073Y9198D01*
X26075Y9204D01*
Y9204D01*
X26076Y9205D01*
X26077Y9210D01*
X26078Y9216D01*
X26080Y9223D01*
Y9224D01*
Y9225D01*
X26081Y9227D01*
X26081Y9230D01*
X26082Y9235D01*
X26083Y9239D01*
X26085Y9251D01*
X26088Y9265D01*
X26092Y9281D01*
X26096Y9299D01*
X26101Y9318D01*
Y9319D01*
X26102Y9321D01*
X26103Y9324D01*
X26104Y9327D01*
X26106Y9332D01*
X26108Y9338D01*
X26110Y9344D01*
X26112Y9352D01*
X26118Y9367D01*
X26125Y9386D01*
X26133Y9406D01*
X26141Y9426D01*
X26142Y9428D01*
X26143Y9431D01*
X26145Y9435D01*
X26147Y9441D01*
X26154Y9452D01*
X26158Y9458D01*
X26162Y9463D01*
X26163Y9464D01*
X26164Y9466D01*
X26166Y9467D01*
X26169Y9470D01*
X26178Y9474D01*
X26182Y9475D01*
X26187Y9476D01*
X26189D01*
X26193Y9475D01*
X26199Y9474D01*
X26204Y9471D01*
X26206Y9470D01*
X26208Y9468D01*
X26212Y9463D01*
X26214Y9458D01*
Y9457D01*
X26215Y9455D01*
Y9451D01*
Y9446D01*
Y9444D01*
X26215Y9441D01*
Y9435D01*
Y9429D01*
Y9427D01*
Y9426D01*
X26215Y9422D01*
X26214Y9416D01*
X26213Y9408D01*
X26212Y9403D01*
X26212Y9397D01*
X26211Y9389D01*
X26210Y9382D01*
Y9381D01*
X26209Y9378D01*
X26208Y9374D01*
X26206Y9368D01*
X26205Y9361D01*
X26202Y9352D01*
X26200Y9341D01*
X26196Y9330D01*
X26195Y9329D01*
X26195Y9325D01*
X26192Y9318D01*
X26190Y9310D01*
X26186Y9298D01*
X26183Y9286D01*
X26178Y9272D01*
X26173Y9256D01*
X26172Y9256D01*
X26171Y9253D01*
X26169Y9247D01*
X26166Y9241D01*
X26165Y9240D01*
X26163Y9236D01*
X26160Y9230D01*
X26156Y9221D01*
X26155Y9219D01*
X26155Y9218D01*
X26154Y9216D01*
Y9215D01*
X26153Y9213D01*
X26152Y9210D01*
X26150Y9206D01*
Y9205D01*
X26149Y9204D01*
X26147Y9201D01*
X26146Y9199D01*
X26145Y9198D01*
X26144Y9196D01*
X26142Y9192D01*
X26140Y9187D01*
Y9186D01*
X26139Y9184D01*
X26138Y9180D01*
X26137Y9176D01*
X26135Y9169D01*
X26133Y9162D01*
X26132Y9153D01*
X26129Y9144D01*
Y9142D01*
X26129Y9139D01*
X26128Y9133D01*
X26126Y9126D01*
X26125Y9117D01*
X26124Y9106D01*
X26121Y9093D01*
X26120Y9080D01*
Y9079D01*
X26119Y9074D01*
X26118Y9068D01*
X26118Y9060D01*
X26116Y9051D01*
X26115Y9042D01*
X26114Y9031D01*
X26113Y9022D01*
Y9020D01*
Y9017D01*
X26112Y9012D01*
Y9006D01*
X26112Y8999D01*
Y8990D01*
X26111Y8973D01*
Y8972D01*
X26112Y8970D01*
Y8966D01*
X26112Y8960D01*
Y8960D01*
Y8959D01*
X26113Y8955D01*
Y8951D01*
X26113Y8950D01*
X26115Y8953D01*
X26116Y8957D01*
X26119Y8963D01*
X26120Y8964D01*
X26121Y8966D01*
X26123Y8971D01*
X26125Y8977D01*
X26128Y8984D01*
X26132Y8994D01*
X26137Y9005D01*
X26142Y9017D01*
X26141Y9024D01*
X26141Y9025D01*
X26142Y9027D01*
X26144Y9030D01*
X26145Y9033D01*
X26146Y9034D01*
X26146Y9036D01*
X26147Y9039D01*
X26149Y9043D01*
X26149Y9045D01*
X26150Y9048D01*
X26152Y9052D01*
X26153Y9058D01*
X26157Y9071D01*
X26159Y9077D01*
X26161Y9082D01*
Y9083D01*
X26161Y9085D01*
X26163Y9089D01*
X26164Y9094D01*
Y9096D01*
X26165Y9098D01*
Y9099D01*
X26166Y9100D01*
X26166Y9102D01*
X26168Y9106D01*
X26172Y9113D01*
X26177Y9122D01*
X26178Y9123D01*
X26178Y9125D01*
X26180Y9127D01*
X26183Y9130D01*
X26186Y9135D01*
X26189Y9139D01*
X26195Y9145D01*
X26200Y9150D01*
X26200Y9149D01*
X26203Y9153D01*
X26207Y9159D01*
X26209Y9161D01*
X26212Y9164D01*
X26216Y9168D01*
X26221Y9173D01*
Y9174D01*
X26222Y9176D01*
Y9179D01*
X26223Y9183D01*
Y9184D01*
X26223Y9187D01*
Y9191D01*
X26224Y9196D01*
Y9196D01*
X26225Y9199D01*
X26226Y9202D01*
X26227Y9207D01*
X26228Y9208D01*
X26229Y9211D01*
X26230Y9216D01*
X26232Y9221D01*
X26233Y9221D01*
X26234Y9224D01*
X26237Y9230D01*
X26240Y9237D01*
Y9238D01*
X26240Y9239D01*
X26242Y9241D01*
X26243Y9244D01*
X26248Y9253D01*
X26253Y9262D01*
X26254Y9264D01*
X26257Y9267D01*
X26262Y9273D01*
X26267Y9278D01*
Y9279D01*
X26269Y9280D01*
X26272Y9284D01*
X26277Y9290D01*
X26282Y9296D01*
X26283Y9297D01*
X26285Y9298D01*
X26290Y9301D01*
X26291Y9302D01*
X26293Y9304D01*
X26296Y9306D01*
X26299Y9308D01*
X26300Y9309D01*
X26302Y9310D01*
X26306Y9310D01*
X26309Y9311D01*
X26310D01*
X26313Y9312D01*
X26317Y9312D01*
X26326D01*
X26331Y9312D01*
X26337Y9310D01*
X26338Y9310D01*
X26340Y9309D01*
X26344Y9307D01*
X26347Y9303D01*
X26348Y9302D01*
X26348Y9301D01*
X26351Y9298D01*
X26352Y9294D01*
X26353Y9293D01*
X26354Y9290D01*
X26355Y9286D01*
X26357Y9280D01*
Y9279D01*
X26356Y9277D01*
X26354Y9276D01*
X26353Y9274D01*
X26350Y9273D01*
X26346Y9273D01*
Y9272D01*
Y9271D01*
X26347Y9267D01*
X26348Y9262D01*
X26350Y9261D01*
X26351Y9260D01*
X26352D01*
X26354Y9259D01*
X26355Y9256D01*
Y9254D01*
X26354Y9251D01*
X26351Y9241D01*
Y9241D01*
X26351Y9238D01*
X26349Y9235D01*
X26347Y9230D01*
X26345Y9225D01*
X26341Y9219D01*
X26337Y9212D01*
X26331Y9204D01*
X26330Y9204D01*
X26328Y9201D01*
X26324Y9197D01*
X26320Y9191D01*
X26314Y9184D01*
X26306Y9176D01*
X26298Y9167D01*
X26289Y9158D01*
X26288Y9157D01*
X26286Y9154D01*
Y9153D01*
X26286Y9150D01*
Y9150D01*
Y9147D01*
X26286Y9144D01*
X26287Y9141D01*
Y9140D01*
X26288Y9139D01*
X26291Y9136D01*
X26291D01*
X26293Y9135D01*
X26295Y9134D01*
X26298Y9133D01*
X26299D01*
X26301Y9132D01*
X26305Y9131D01*
X26309Y9130D01*
X26311D01*
X26315Y9130D01*
X26321Y9132D01*
X26328Y9133D01*
X26328D01*
X26329Y9134D01*
X26334Y9136D01*
X26339Y9138D01*
X26345Y9141D01*
X26346D01*
X26346Y9142D01*
X26350Y9143D01*
X26351D01*
X26353Y9145D01*
X26357Y9147D01*
X26362Y9149D01*
X26363Y9150D01*
X26363Y9151D01*
X26364Y9153D01*
X26365Y9155D01*
X26368Y9158D01*
X26368Y9159D01*
X26370Y9160D01*
X26375Y9165D01*
X26376Y9165D01*
X26378Y9167D01*
X26383Y9171D01*
X26388Y9177D01*
X26388D01*
X26391Y9179D01*
X26392Y9180D01*
X26394Y9182D01*
X26397Y9185D01*
X26400Y9189D01*
X26400Y9190D01*
X26401Y9191D01*
X26403Y9193D01*
X26405Y9196D01*
X26411Y9204D01*
X26419Y9213D01*
X26420Y9214D01*
X26422Y9217D01*
X26427Y9221D01*
X26433Y9227D01*
X26434Y9228D01*
X26434Y9229D01*
X26438Y9233D01*
X26444Y9239D01*
X26451Y9247D01*
X26451Y9248D01*
X26452Y9250D01*
X26457Y9254D01*
X26463Y9260D01*
X26471Y9265D01*
X26472D01*
X26474Y9266D01*
X26476Y9267D01*
X26479Y9268D01*
X26487Y9270D01*
X26496Y9271D01*
X26499D01*
X26502Y9270D01*
X26505Y9270D01*
X26512Y9267D01*
X26515Y9264D01*
X26518Y9261D01*
Y9261D01*
X26519Y9260D01*
X26520Y9258D01*
X26522Y9255D01*
X26524Y9247D01*
X26525Y9237D01*
Y9236D01*
Y9233D01*
X26524Y9230D01*
X26523Y9227D01*
X26522Y9221D01*
X26521Y9216D01*
X26519Y9208D01*
Y9207D01*
X26518Y9204D01*
X26516Y9199D01*
X26515Y9193D01*
X26513Y9185D01*
X26510Y9176D01*
X26506Y9165D01*
X26502Y9153D01*
X26502Y9152D01*
X26501Y9149D01*
X26499Y9147D01*
X26498Y9146D01*
X26495Y9142D01*
X26492Y9139D01*
X26491Y9136D01*
X26491Y9136D01*
X26488Y9134D01*
X26488Y9133D01*
X26488Y9133D01*
X26490D01*
X26491Y9133D01*
X26492D01*
X26494Y9132D01*
X26494Y9131D01*
Y9133D01*
Y9135D01*
X26496Y9139D01*
X26497Y9140D01*
Y9141D01*
X26499Y9145D01*
X26501Y9149D01*
X26502Y9150D01*
X26506Y9153D01*
X26511Y9158D01*
X26511Y9159D01*
X26513Y9161D01*
X26515Y9165D01*
X26518Y9168D01*
X26519Y9169D01*
X26522Y9172D01*
X26525Y9175D01*
X26529Y9179D01*
X26530Y9179D01*
X26532Y9182D01*
X26533Y9182D01*
X26533Y9184D01*
X26536Y9186D01*
X26538Y9189D01*
X26539Y9190D01*
X26541Y9191D01*
X26544Y9194D01*
X26548Y9197D01*
X26548Y9198D01*
X26551Y9200D01*
X26556Y9203D01*
X26561Y9207D01*
X26562D01*
X26562Y9207D01*
X26567Y9210D01*
X26572Y9213D01*
X26578Y9215D01*
X26579D01*
X26579Y9216D01*
X26583Y9216D01*
X26588Y9217D01*
X26592Y9218D01*
X26596D01*
X26599Y9217D01*
X26606Y9216D01*
X26613Y9212D01*
X26613D01*
X26614Y9211D01*
X26619Y9207D01*
X26623Y9202D01*
X26628Y9194D01*
Y9193D01*
X26629Y9191D01*
X26630Y9187D01*
X26632Y9183D01*
X26633Y9178D01*
X26636Y9171D01*
X26640Y9158D01*
X26641Y9156D01*
X26642Y9153D01*
X26644Y9149D01*
X26646Y9146D01*
X26647Y9145D01*
X26647Y9145D01*
X26650Y9144D01*
X26651Y9143D01*
X26653D01*
X26656Y9144D01*
X26656D01*
X26658Y9145D01*
X26662Y9147D01*
X26667Y9150D01*
X26668Y9147D01*
X26670Y9150D01*
X26673Y9153D01*
X26673Y9154D01*
X26675Y9156D01*
X26677Y9159D01*
X26679Y9164D01*
X26680Y9165D01*
X26682Y9167D01*
X26685Y9170D01*
X26689Y9173D01*
X26690Y9174D01*
X26693Y9177D01*
X26696Y9182D01*
X26700Y9187D01*
X26701Y9188D01*
X26701Y9190D01*
X26703Y9193D01*
X26705Y9197D01*
X26706Y9199D01*
X26707Y9201D01*
X26710Y9207D01*
X26714Y9213D01*
Y9214D01*
X26715Y9215D01*
X26716Y9219D01*
X26718Y9225D01*
X26723Y9233D01*
Y9233D01*
X26724Y9235D01*
X26726Y9237D01*
X26728Y9240D01*
X26735Y9249D01*
X26744Y9258D01*
X26744Y9259D01*
X26747Y9261D01*
X26750Y9265D01*
X26754Y9270D01*
X26759Y9276D01*
X26765Y9283D01*
X26778Y9298D01*
X26779Y9299D01*
X26780Y9301D01*
X26782Y9304D01*
X26785Y9307D01*
X26792Y9315D01*
X26801Y9322D01*
X26802Y9323D01*
X26804Y9324D01*
X26807Y9325D01*
X26810Y9327D01*
X26819Y9329D01*
X26824Y9330D01*
X26832D01*
X26838Y9329D01*
X26844Y9326D01*
X26846Y9324D01*
X26849Y9320D01*
Y9319D01*
X26849Y9318D01*
X26851Y9315D01*
X26852Y9312D01*
X26853Y9309D01*
X26854Y9304D01*
X26855Y9293D01*
Y9291D01*
X26854Y9287D01*
X26851Y9281D01*
X26849Y9276D01*
X26846Y9272D01*
Y9271D01*
X26844Y9270D01*
X26842Y9267D01*
X26840Y9263D01*
X26836Y9258D01*
X26832Y9253D01*
X26822Y9241D01*
X26821Y9240D01*
X26821Y9239D01*
X26818Y9237D01*
X26816Y9234D01*
X26810Y9227D01*
X26802Y9218D01*
X26801Y9217D01*
X26800Y9216D01*
X26798Y9213D01*
X26795Y9210D01*
X26788Y9203D01*
X26781Y9194D01*
X26780Y9193D01*
X26778Y9192D01*
X26775Y9188D01*
X26771Y9184D01*
X26770Y9184D01*
X26767Y9181D01*
X26764Y9178D01*
X26761Y9174D01*
Y9173D01*
X26760Y9170D01*
X26758Y9167D01*
X26757Y9162D01*
Y9162D01*
Y9160D01*
Y9158D01*
Y9156D01*
X26758Y9149D01*
X26758Y9142D01*
Y9141D01*
X26760Y9138D01*
X26761Y9133D01*
X26763Y9129D01*
X26764Y9128D01*
X26766Y9124D01*
X26770Y9119D01*
Y9118D01*
X26770Y9117D01*
X26773Y9113D01*
X26778Y9107D01*
X26783Y9099D01*
X26784Y9099D01*
X26784Y9098D01*
X26788Y9093D01*
X26789D01*
X26790Y9092D01*
X26790Y9091D01*
X26791Y9090D01*
X26792Y9092D01*
X26793Y9093D01*
X26795Y9096D01*
X26798Y9099D01*
X26803Y9104D01*
X26804Y9105D01*
X26805Y9107D01*
X26809Y9110D01*
X26813Y9115D01*
X26819Y9121D01*
X26827Y9129D01*
X26835Y9139D01*
X26846Y9150D01*
X26864Y9113D01*
X26863Y9111D01*
X26861Y9108D01*
X26858Y9104D01*
X26853Y9099D01*
X26852Y9097D01*
X26849Y9094D01*
X26845Y9088D01*
X26839Y9080D01*
X26838Y9079D01*
X26838Y9078D01*
X26835Y9075D01*
X26833Y9072D01*
X26827Y9063D01*
X26820Y9053D01*
X26821Y9052D01*
X26821Y9051D01*
X26822Y9050D01*
X26823Y9048D01*
X26825Y9046D01*
X26828Y9043D01*
X26829Y9042D01*
X26829Y9042D01*
X26832Y9039D01*
X26834Y9036D01*
X26838Y9028D01*
X26844Y9017D01*
Y9017D01*
X26844Y9014D01*
X26846Y9011D01*
X26847Y9006D01*
X26849Y9000D01*
X26850Y8994D01*
X26852Y8986D01*
X26853Y8978D01*
Y8977D01*
X26852Y8977D01*
X26852Y8972D01*
Y8971D01*
Y8970D01*
Y8967D01*
X26851Y8964D01*
Y8963D01*
Y8962D01*
X26850Y8960D01*
X26849Y8957D01*
X26847Y8950D01*
X26844Y8940D01*
X26838Y8929D01*
X26829Y8916D01*
X26824Y8909D01*
X26818Y8903D01*
X26812Y8896D01*
X26804Y8888D01*
X26804Y8888D01*
X26802Y8887D01*
X26800Y8885D01*
X26797Y8883D01*
X26789Y8877D01*
X26778Y8869D01*
X26766Y8862D01*
X26753Y8856D01*
X26738Y8851D01*
X26731Y8851D01*
X26724Y8850D01*
X26717D01*
X26713Y8851D01*
X26703Y8852D01*
X26693Y8855D01*
X26693D01*
X26692Y8856D01*
X26687Y8859D01*
X26681Y8864D01*
X26677Y8871D01*
Y8872D01*
X26676Y8876D01*
X26676Y8881D01*
X26675Y8889D01*
Y8890D01*
Y8891D01*
Y8894D01*
Y8898D01*
X26674Y8903D01*
Y8908D01*
Y8914D01*
Y8922D01*
Y8923D01*
Y8924D01*
X26675Y8927D01*
X26676Y8931D01*
Y8931D01*
X26676Y8934D01*
X26678Y8939D01*
X26681Y8945D01*
X26681Y8947D01*
X26682Y8950D01*
X26684Y8955D01*
X26687Y8960D01*
X26687Y8962D01*
X26690Y8965D01*
X26693Y8969D01*
X26696Y8975D01*
X26697Y8976D01*
X26699Y8979D01*
X26701Y8982D01*
X26704Y8987D01*
X26705Y8988D01*
X26707Y8991D01*
X26710Y8996D01*
X26714Y9001D01*
X26715Y9002D01*
X26716Y9003D01*
X26720Y9008D01*
X26726Y9014D01*
X26732Y9020D01*
X26733Y9021D01*
X26735Y9024D01*
X26738Y9027D01*
X26740Y9031D01*
X26741Y9031D01*
X26741Y9033D01*
X26742Y9034D01*
X26743Y9035D01*
X26742Y9036D01*
X26741Y9037D01*
X26739Y9039D01*
X26737Y9042D01*
X26731Y9051D01*
X26723Y9061D01*
X26722Y9062D01*
X26721Y9063D01*
X26718Y9066D01*
X26716Y9070D01*
X26710Y9079D01*
X26704Y9090D01*
Y9090D01*
X26702Y9093D01*
X26701Y9096D01*
X26700Y9099D01*
X26696Y9110D01*
X26695Y9118D01*
X26672Y9138D01*
X26684Y9112D01*
X26683Y9110D01*
X26680Y9108D01*
X26675Y9104D01*
X26670Y9099D01*
X26670Y9099D01*
X26667Y9096D01*
X26664Y9093D01*
X26659Y9090D01*
X26658Y9090D01*
X26655Y9087D01*
X26650Y9084D01*
X26644Y9081D01*
X26643Y9080D01*
X26640Y9079D01*
X26635Y9079D01*
X26630Y9078D01*
X26628D01*
X26625Y9079D01*
X26619Y9079D01*
X26613Y9082D01*
X26611Y9082D01*
X26608Y9085D01*
X26604Y9088D01*
X26599Y9092D01*
X26599Y9093D01*
X26597Y9094D01*
X26595Y9098D01*
X26592Y9102D01*
Y9103D01*
X26591Y9104D01*
X26590Y9108D01*
X26587Y9113D01*
X26584Y9119D01*
X26583Y9119D01*
X26582Y9122D01*
X26579Y9125D01*
X26575Y9129D01*
X26574Y9130D01*
X26572Y9133D01*
X26568Y9139D01*
X26564Y9143D01*
X26563Y9142D01*
X26560Y9141D01*
X26556Y9139D01*
X26556Y9138D01*
X26553Y9136D01*
X26550Y9133D01*
X26545Y9130D01*
X26545Y9129D01*
X26543Y9128D01*
X26540Y9125D01*
X26537Y9123D01*
X26531Y9117D01*
X26528Y9115D01*
X26525Y9113D01*
X26524D01*
X26522Y9112D01*
X26519Y9110D01*
X26517Y9108D01*
X26516Y9107D01*
X26514Y9103D01*
X26509Y9096D01*
X26502Y9088D01*
X26501Y9088D01*
X26500Y9086D01*
X26497Y9083D01*
X26494Y9080D01*
X26491Y9076D01*
X26486Y9071D01*
X26475Y9059D01*
X26474Y9059D01*
X26472Y9056D01*
X26469Y9054D01*
X26466Y9051D01*
X26465Y9050D01*
X26464Y9048D01*
X26459Y9045D01*
X26458Y9044D01*
X26455Y9042D01*
X26451Y9039D01*
X26446Y9038D01*
X26445D01*
X26442Y9037D01*
X26438Y9036D01*
X26433Y9036D01*
X26430D01*
X26427Y9036D01*
X26423Y9037D01*
X26420Y9039D01*
X26417Y9040D01*
X26414Y9043D01*
X26413Y9047D01*
Y9048D01*
Y9049D01*
X26412Y9051D01*
Y9054D01*
X26411Y9061D01*
X26411Y9069D01*
Y9070D01*
X26411Y9071D01*
X26412Y9074D01*
X26414Y9079D01*
X26415Y9083D01*
X26417Y9089D01*
X26421Y9102D01*
Y9103D01*
X26422Y9106D01*
X26423Y9110D01*
X26425Y9116D01*
X26428Y9122D01*
X26430Y9130D01*
X26432Y9139D01*
X26435Y9148D01*
Y9149D01*
X26436Y9152D01*
Y9153D01*
X26437Y9154D01*
X26438Y9156D01*
X26439Y9161D01*
Y9162D01*
X26440Y9162D01*
X26441Y9166D01*
Y9167D01*
X26442Y9167D01*
Y9169D01*
X26442D01*
X26442Y9170D01*
Y9169D01*
X26441D01*
X26439Y9167D01*
X26437Y9166D01*
X26436Y9165D01*
X26434Y9164D01*
X26431Y9160D01*
X26426Y9156D01*
X26425Y9155D01*
X26425Y9153D01*
X26420Y9149D01*
X26415Y9144D01*
X26411Y9139D01*
X26410Y9138D01*
X26408Y9136D01*
X26405Y9134D01*
X26403Y9133D01*
X26402D01*
X26402Y9131D01*
X26400Y9130D01*
X26397Y9127D01*
X26396Y9126D01*
X26394Y9125D01*
X26391Y9122D01*
X26388Y9119D01*
Y9119D01*
X26388Y9118D01*
X26387Y9116D01*
X26386Y9115D01*
X26385Y9114D01*
X26383Y9113D01*
X26381Y9111D01*
X26377Y9110D01*
X26376Y9108D01*
X26372Y9105D01*
X26367Y9100D01*
X26356Y9090D01*
X26349Y9085D01*
X26343Y9081D01*
X26343D01*
X26340Y9079D01*
X26337Y9078D01*
X26334Y9076D01*
X26325Y9073D01*
X26320Y9073D01*
X26315Y9072D01*
X26314Y9071D01*
X26312Y9071D01*
X26309Y9069D01*
X26303Y9068D01*
X26302D01*
X26299Y9067D01*
X26294Y9066D01*
X26282D01*
X26279Y9067D01*
X26272Y9068D01*
X26263Y9070D01*
X26263D01*
X26262Y9071D01*
X26257Y9073D01*
X26252Y9076D01*
X26247Y9080D01*
X26246Y9081D01*
X26244Y9083D01*
X26242Y9087D01*
X26239Y9092D01*
X26238Y9093D01*
X26237Y9096D01*
X26235Y9102D01*
X26232Y9107D01*
X26232Y9108D01*
X26231Y9110D01*
X26229Y9113D01*
X26228Y9115D01*
Y9116D01*
X26227Y9116D01*
X26226Y9116D01*
X26225Y9115D01*
X26224D01*
X26223Y9113D01*
X26221Y9113D01*
X26219Y9111D01*
X26217Y9110D01*
X26215Y9108D01*
X26212Y9102D01*
X26209Y9096D01*
X26208Y9095D01*
X26206Y9092D01*
X26205Y9087D01*
X26203Y9080D01*
Y9079D01*
X26202Y9079D01*
X26201Y9074D01*
X26199Y9068D01*
X26198Y9062D01*
Y9061D01*
Y9060D01*
X26197Y9056D01*
X26195Y9050D01*
X26193Y9043D01*
Y9042D01*
X26192Y9040D01*
X26192Y9037D01*
X26190Y9034D01*
X26189Y9028D01*
X26187Y9022D01*
X26183Y9008D01*
X26179Y8993D01*
X26173Y8977D01*
X26168Y8960D01*
X26162Y8944D01*
Y8943D01*
X26161Y8942D01*
X26161Y8940D01*
X26160Y8937D01*
X26157Y8930D01*
X26153Y8921D01*
X26149Y8911D01*
X26144Y8902D01*
X26139Y8892D01*
X26134Y8884D01*
Y8883D01*
X26132Y8881D01*
X26129Y8876D01*
X26128Y8875D01*
X26126Y8874D01*
X26125Y8871D01*
X26122Y8867D01*
X26121Y8866D01*
X26119Y8864D01*
X26116Y8861D01*
X26112Y8859D01*
X26112Y8858D01*
X26109Y8857D01*
X26105Y8856D01*
X26101Y8855D01*
X26098D01*
X26095Y8856D01*
X26092D01*
X26084Y8858D01*
X26075Y8863D01*
X26075Y8863D01*
X26074Y8864D01*
X26070Y8868D01*
X26066Y8875D01*
X26061Y8885D01*
Y8886D01*
Y8886D01*
X26061Y8891D01*
X26060Y8897D01*
X26058Y8905D01*
Y8906D01*
Y8906D01*
X26058Y8911D01*
Y8917D01*
X26057Y8924D01*
Y8925D01*
X26055Y8928D01*
X26055Y8932D01*
X26054Y8937D01*
Y8939D01*
Y8942D01*
X26053Y8948D01*
Y8954D01*
Y9001D01*
Y9002D01*
Y9004D01*
Y9008D01*
X26054Y9013D01*
Y9014D01*
X26055Y9017D01*
X26055Y9019D01*
Y9022D01*
Y9022D01*
Y9023D01*
X26055Y9028D01*
X26053Y9034D01*
X26052Y9042D01*
Y9042D01*
Y9044D01*
X26052Y9046D01*
Y9050D01*
X26053Y9054D01*
X26054Y9059D01*
X26055Y9071D01*
Y9071D01*
X26056Y9073D01*
Y9076D01*
X26057Y9081D01*
X26058Y9086D01*
X26059Y9092D01*
X26061Y9104D01*
X26058Y9107D01*
X26053Y9102D01*
X26047Y9097D01*
X26046D01*
X26045Y9096D01*
X26041Y9093D01*
X26035Y9088D01*
X26027Y9082D01*
X26026Y9082D01*
X26024Y9081D01*
X26021Y9079D01*
X26018Y9077D01*
X26011Y9072D01*
X26003Y9068D01*
X26002D01*
X26001Y9067D01*
X25997Y9065D01*
X25992Y9064D01*
X25987Y9063D01*
X25981D01*
X25976Y9064D01*
X25970D01*
X25956Y9066D01*
X25950Y9068D01*
X25945Y9071D01*
X25944Y9071D01*
X25944Y9072D01*
X25941Y9075D01*
X25939Y9079D01*
X25936Y9084D01*
X25933Y9090D01*
X25929Y9099D01*
X25925Y9110D01*
X25924Y9111D01*
X25923Y9113D01*
X25921Y9115D01*
Y9116D01*
X25919Y9117D01*
X25916Y9122D01*
X25916Y9124D01*
X25914Y9126D01*
X25912Y9130D01*
X25910Y9132D01*
Y9133D01*
X25910Y9133D01*
Y9134D01*
X25908Y9133D01*
X25904Y9132D01*
X25900Y9128D01*
X25899Y9127D01*
X25896Y9125D01*
X25894Y9124D01*
X25890Y9121D01*
X25886Y9117D01*
X25880Y9113D01*
X25877Y9110D01*
Y9110D01*
X25876Y9109D01*
X25875Y9109D01*
X25873Y9108D01*
X25873Y9108D01*
X25869Y9106D01*
X25863Y9103D01*
X25856Y9100D01*
X25849Y9097D01*
X25833Y9091D01*
X25833D01*
X25830Y9090D01*
X25825Y9089D01*
X25820Y9087D01*
X25813Y9085D01*
X25805Y9083D01*
X25797Y9080D01*
X25788Y9078D01*
X25788D01*
X25785Y9077D01*
X25779Y9076D01*
X25773Y9074D01*
X25772D01*
X25768Y9073D01*
X25763Y9072D01*
X25756Y9071D01*
X25755Y9070D01*
X25751Y9069D01*
X25745Y9067D01*
X25736Y9063D01*
X25735D01*
X25734Y9062D01*
X25731Y9062D01*
X25727Y9060D01*
X25722Y9059D01*
X25717Y9057D01*
X25705Y9054D01*
X25705D01*
X25703Y9054D01*
X25701D01*
X25698Y9053D01*
X25691Y9051D01*
X25684Y9048D01*
X25682D01*
X25678Y9047D01*
X25672Y9046D01*
X25665Y9045D01*
X25665D01*
X25663Y9044D01*
X25660D01*
X25657Y9043D01*
X25648Y9042D01*
X25640Y9040D01*
X25638D01*
X25633Y9039D01*
X25627Y9039D01*
X25620Y9038D01*
X25617D01*
X25613Y9039D01*
X25608Y9039D01*
X25597Y9042D01*
X25591Y9044D01*
X25586Y9047D01*
X25586Y9048D01*
X25585Y9048D01*
X25583Y9051D01*
X25580Y9054D01*
X25578Y9057D01*
X25577Y9062D01*
X25575Y9068D01*
X25574Y9074D01*
Y9075D01*
Y9077D01*
Y9080D01*
X25575Y9085D01*
X25576Y9088D01*
X25571Y9085D01*
X25566Y9081D01*
X25565D01*
X25563Y9079D01*
X25560Y9078D01*
X25556Y9076D01*
X25547Y9073D01*
X25543Y9073D01*
X25537Y9072D01*
X25537Y9071D01*
X25534Y9071D01*
X25531Y9069D01*
X25526Y9068D01*
X25524D01*
X25521Y9067D01*
X25516Y9066D01*
X25504D01*
X25501Y9067D01*
X25494Y9068D01*
X25486Y9070D01*
X25485D01*
X25484Y9071D01*
X25480Y9073D01*
X25475Y9076D01*
X25469Y9080D01*
X25469Y9081D01*
X25466Y9083D01*
X25464Y9087D01*
X25461Y9092D01*
X25460Y9093D01*
X25459Y9096D01*
X25457Y9102D01*
X25455Y9107D01*
X25454Y9108D01*
X25453Y9110D01*
X25452Y9113D01*
X25450Y9115D01*
Y9116D01*
X25449Y9116D01*
X25449Y9116D01*
X25447Y9115D01*
X25446D01*
X25445Y9113D01*
X25443Y9113D01*
X25441Y9111D01*
X25438Y9110D01*
X25434Y9108D01*
Y9108D01*
X25433Y9109D01*
X25432Y9113D01*
X25429Y9118D01*
X25426Y9123D01*
Y9124D01*
X25426Y9125D01*
X25424Y9129D01*
X25422Y9135D01*
X25418Y9143D01*
Y9144D01*
X25419Y9145D01*
X25422Y9148D01*
X25425Y9153D01*
X25429Y9159D01*
X25431Y9161D01*
X25434Y9164D01*
X25438Y9168D01*
X25443Y9173D01*
Y9174D01*
X25444Y9176D01*
Y9179D01*
X25445Y9183D01*
Y9184D01*
X25446Y9187D01*
Y9191D01*
X25446Y9196D01*
Y9196D01*
X25447Y9199D01*
X25448Y9202D01*
X25449Y9207D01*
X25450Y9208D01*
X25451Y9211D01*
X25452Y9216D01*
X25455Y9221D01*
X25455Y9221D01*
X25456Y9224D01*
X25459Y9230D01*
X25462Y9237D01*
Y9238D01*
X25463Y9239D01*
X25464Y9241D01*
X25466Y9244D01*
X25470Y9253D01*
X25475Y9262D01*
X25477Y9264D01*
X25480Y9267D01*
X25484Y9273D01*
X25489Y9278D01*
Y9279D01*
X25491Y9280D01*
X25494Y9284D01*
X25499Y9290D01*
X25504Y9296D01*
X25505Y9297D01*
X25507Y9298D01*
X25512Y9301D01*
X25513Y9302D01*
X25515Y9304D01*
X25518Y9306D01*
X25521Y9308D01*
X25522Y9309D01*
X25524Y9310D01*
X25528Y9310D01*
X25532Y9311D01*
X25532D01*
X25535Y9312D01*
X25539Y9312D01*
X25549D01*
X25554Y9312D01*
X25559Y9310D01*
X25560Y9310D01*
X25563Y9309D01*
X25566Y9307D01*
X25569Y9303D01*
X25570Y9302D01*
X25571Y9301D01*
X25573Y9298D01*
X25574Y9294D01*
X25575Y9293D01*
X25576Y9290D01*
X25577Y9286D01*
X25579Y9280D01*
Y9279D01*
X25578Y9277D01*
X25577Y9276D01*
X25575Y9274D01*
X25572Y9273D01*
X25569Y9273D01*
Y9272D01*
Y9271D01*
X25569Y9267D01*
X25571Y9262D01*
X25572Y9261D01*
X25574Y9260D01*
X25574D01*
X25577Y9259D01*
X25577Y9256D01*
Y9254D01*
X25577Y9251D01*
X25574Y9241D01*
Y9241D01*
X25573Y9238D01*
X25571Y9235D01*
X25569Y9230D01*
X25567Y9225D01*
X25563Y9219D01*
X25559Y9212D01*
X25553Y9204D01*
X25552Y9204D01*
X25550Y9201D01*
X25546Y9197D01*
X25542Y9191D01*
X25536Y9184D01*
X25529Y9176D01*
X25520Y9167D01*
X25511Y9158D01*
X25510Y9157D01*
X25509Y9154D01*
Y9153D01*
X25508Y9150D01*
Y9150D01*
Y9147D01*
X25509Y9144D01*
X25509Y9141D01*
Y9140D01*
X25510Y9139D01*
X25513Y9136D01*
X25514D01*
X25515Y9135D01*
X25517Y9134D01*
X25520Y9133D01*
X25521D01*
X25523Y9132D01*
X25527Y9131D01*
X25532Y9130D01*
X25533D01*
X25537Y9130D01*
X25543Y9132D01*
X25550Y9133D01*
X25551D01*
X25552Y9134D01*
X25556Y9136D01*
X25561Y9138D01*
X25567Y9141D01*
X25568D01*
X25569Y9142D01*
X25572Y9143D01*
X25573D01*
X25575Y9145D01*
X25579Y9147D01*
X25585Y9150D01*
Y9149D01*
X25586Y9147D01*
X25587Y9145D01*
X25589Y9142D01*
X25592Y9135D01*
X25595Y9130D01*
X25597Y9133D01*
X25598Y9134D01*
X25600Y9137D01*
X25603Y9141D01*
X25606Y9145D01*
X25607Y9147D01*
X25610Y9150D01*
X25614Y9154D01*
X25618Y9159D01*
X25619Y9160D01*
X25622Y9162D01*
X25626Y9166D01*
X25630Y9171D01*
X25631Y9173D01*
X25635Y9176D01*
X25640Y9183D01*
X25648Y9192D01*
Y9193D01*
X25649Y9193D01*
X25653Y9198D01*
X25658Y9204D01*
X25664Y9213D01*
X25665Y9213D01*
X25665Y9215D01*
X25669Y9219D01*
X25674Y9225D01*
X25679Y9231D01*
X25680Y9232D01*
X25681Y9234D01*
X25684Y9238D01*
X25687Y9242D01*
X25688Y9244D01*
X25691Y9247D01*
X25694Y9253D01*
X25699Y9259D01*
X25700Y9260D01*
X25702Y9262D01*
X25705Y9265D01*
X25708Y9269D01*
X25709Y9270D01*
X25712Y9273D01*
X25715Y9275D01*
X25718Y9277D01*
X25719Y9278D01*
X25720Y9280D01*
X25722Y9283D01*
X25725Y9287D01*
X25731Y9297D01*
X25738Y9307D01*
X25739Y9308D01*
X25739Y9310D01*
X25742Y9312D01*
X25744Y9316D01*
X25747Y9321D01*
X25750Y9326D01*
X25758Y9338D01*
X25759Y9339D01*
X25761Y9342D01*
X25764Y9347D01*
X25768Y9354D01*
X25772Y9361D01*
X25776Y9368D01*
X25780Y9375D01*
X25784Y9382D01*
X25785Y9383D01*
X25785Y9385D01*
X25787Y9388D01*
X25788Y9392D01*
X25791Y9399D01*
X25793Y9402D01*
Y9405D01*
X25792Y9406D01*
X25791Y9407D01*
X25789Y9409D01*
X25788Y9409D01*
X25786Y9411D01*
X25782Y9413D01*
X25776Y9415D01*
X25775Y9416D01*
X25771Y9418D01*
X25767Y9419D01*
X25762Y9421D01*
X25761Y9421D01*
X25758Y9422D01*
X25754Y9423D01*
X25751Y9423D01*
X25727Y9424D01*
X25726D01*
X25724Y9425D01*
X25718Y9427D01*
X25717D01*
X25716Y9428D01*
X25713Y9429D01*
X25710Y9429D01*
X25694Y9424D01*
X25693Y9425D01*
X25690Y9426D01*
X25685Y9426D01*
X25682Y9427D01*
X25681D01*
X25680Y9428D01*
X25674Y9429D01*
X25671D01*
X25668Y9428D01*
X25663D01*
X25658Y9427D01*
X25651Y9426D01*
X25638Y9425D01*
X25627Y9429D01*
X25626Y9429D01*
X25625Y9431D01*
X25623Y9434D01*
X25622Y9438D01*
Y9438D01*
X25621Y9441D01*
X25620Y9445D01*
X25620Y9450D01*
X25620Y9451D01*
X25621Y9454D01*
X25623Y9458D01*
X25626Y9463D01*
X25626Y9464D01*
X25628Y9467D01*
X25630Y9472D01*
X25633Y9477D01*
Y9478D01*
X25634Y9478D01*
X25634Y9482D01*
Y9483D01*
X25635Y9484D01*
X25637Y9487D01*
X25638Y9490D01*
X25643Y9497D01*
X25649Y9503D01*
X25650D01*
X25651Y9504D01*
X25654Y9505D01*
X25657Y9506D01*
X25661Y9508D01*
X25666Y9509D01*
X25678Y9510D01*
X25686D01*
X25691Y9509D01*
D02*
G37*
G36*
X12557Y735D02*
X12710D01*
Y681D01*
X12557D01*
Y632D01*
X12735D01*
Y579D01*
X12301D01*
Y632D01*
X12352D01*
X12351Y633D01*
X12349Y635D01*
X12345Y637D01*
X12339Y641D01*
X12332Y645D01*
X12325Y649D01*
X12317Y654D01*
X12308Y658D01*
X12309Y659D01*
X12311Y661D01*
X12313Y664D01*
X12316Y668D01*
X12320Y674D01*
X12324Y680D01*
X12328Y687D01*
X12334Y695D01*
X12339Y704D01*
X12345Y714D01*
X12350Y725D01*
X12356Y736D01*
X12361Y747D01*
X12366Y760D01*
X12376Y785D01*
X12435Y770D01*
X12434Y769D01*
X12434Y766D01*
X12432Y763D01*
X12431Y758D01*
X12428Y753D01*
X12426Y747D01*
X12421Y735D01*
X12493D01*
Y791D01*
X12557D01*
Y735D01*
D02*
G37*
G36*
X10896Y761D02*
X10901D01*
X10907Y761D01*
X10913Y760D01*
X10926Y758D01*
X10940Y756D01*
X10954Y753D01*
X10968Y748D01*
Y680D01*
X10967Y680D01*
X10966Y681D01*
X10964Y682D01*
X10961Y684D01*
X10958Y685D01*
X10954Y687D01*
X10950Y690D01*
X10945Y692D01*
X10933Y696D01*
X10919Y700D01*
X10903Y702D01*
X10895Y704D01*
X10882D01*
X10877Y703D01*
X10871Y702D01*
X10864Y701D01*
X10857Y699D01*
X10850Y697D01*
X10843Y694D01*
X10843Y693D01*
X10841Y692D01*
X10838Y690D01*
X10835Y686D01*
X10832Y682D01*
X10830Y678D01*
X10828Y673D01*
X10827Y667D01*
Y666D01*
Y665D01*
X10828Y662D01*
X10829Y659D01*
X10830Y655D01*
X10832Y651D01*
X10834Y647D01*
X10838Y642D01*
X10839Y642D01*
X10840Y640D01*
X10844Y638D01*
X10849Y635D01*
X10853Y632D01*
X10857Y630D01*
X10861Y627D01*
X10866Y625D01*
X10872Y622D01*
X10878Y619D01*
X10885Y615D01*
X10893Y612D01*
X10894D01*
X10895Y611D01*
X10898Y610D01*
X10902Y608D01*
X10905Y606D01*
X10910Y604D01*
X10921Y598D01*
X10933Y591D01*
X10944Y584D01*
X10955Y575D01*
X10959Y570D01*
X10963Y566D01*
X10964Y565D01*
X10966Y561D01*
X10969Y556D01*
X10973Y549D01*
X10976Y541D01*
X10980Y531D01*
X10982Y520D01*
X10983Y508D01*
Y507D01*
Y505D01*
Y503D01*
X10982Y499D01*
X10981Y495D01*
X10981Y490D01*
X10978Y480D01*
X10974Y468D01*
X10971Y462D01*
X10968Y455D01*
X10964Y449D01*
X10959Y443D01*
X10954Y438D01*
X10948Y433D01*
X10947D01*
X10946Y432D01*
X10944Y430D01*
X10941Y429D01*
X10938Y427D01*
X10933Y424D01*
X10928Y422D01*
X10922Y420D01*
X10915Y418D01*
X10908Y415D01*
X10900Y413D01*
X10891Y411D01*
X10882Y409D01*
X10871Y408D01*
X10860Y408D01*
X10848Y407D01*
X10843D01*
X10838Y408D01*
X10833D01*
X10828Y408D01*
X10821Y409D01*
X10814Y409D01*
X10799Y412D01*
X10783Y415D01*
X10767Y419D01*
X10752Y425D01*
Y499D01*
X10752Y498D01*
X10753Y497D01*
X10756Y495D01*
X10759Y493D01*
X10763Y491D01*
X10767Y488D01*
X10773Y485D01*
X10779Y482D01*
X10786Y478D01*
X10793Y475D01*
X10809Y470D01*
X10817Y468D01*
X10826Y466D01*
X10835Y465D01*
X10845Y464D01*
X10850D01*
X10856Y465D01*
X10862Y465D01*
X10870Y467D01*
X10877Y469D01*
X10884Y472D01*
X10890Y475D01*
X10891Y475D01*
X10893Y477D01*
X10895Y479D01*
X10898Y482D01*
X10901Y486D01*
X10904Y490D01*
X10905Y496D01*
X10906Y502D01*
Y502D01*
Y504D01*
X10905Y507D01*
X10904Y510D01*
X10903Y514D01*
X10901Y518D01*
X10898Y523D01*
X10894Y528D01*
X10893Y528D01*
X10891Y530D01*
X10887Y533D01*
X10885Y535D01*
X10882Y536D01*
X10878Y539D01*
X10873Y541D01*
X10868Y544D01*
X10862Y547D01*
X10855Y550D01*
X10848Y554D01*
X10840Y558D01*
X10830Y561D01*
X10829Y562D01*
X10827Y563D01*
X10823Y565D01*
X10818Y568D01*
X10812Y571D01*
X10805Y576D01*
X10798Y581D01*
X10791Y586D01*
X10783Y593D01*
X10776Y601D01*
X10769Y609D01*
X10763Y618D01*
X10757Y627D01*
X10753Y637D01*
X10751Y649D01*
X10750Y661D01*
Y661D01*
Y663D01*
Y665D01*
X10751Y669D01*
X10751Y672D01*
X10752Y677D01*
X10754Y688D01*
X10759Y700D01*
X10762Y706D01*
X10766Y712D01*
X10769Y719D01*
X10774Y724D01*
X10780Y730D01*
X10787Y735D01*
X10787Y736D01*
X10788Y736D01*
X10791Y737D01*
X10793Y740D01*
X10797Y741D01*
X10802Y743D01*
X10807Y746D01*
X10813Y748D01*
X10819Y751D01*
X10827Y753D01*
X10834Y756D01*
X10843Y758D01*
X10852Y760D01*
X10862Y761D01*
X10872Y761D01*
X10883Y762D01*
X10892D01*
X10896Y761D01*
D02*
G37*
G36*
X13047Y791D02*
X13048Y790D01*
X13049Y788D01*
X13050Y786D01*
X13052Y783D01*
X13053Y780D01*
X13057Y771D01*
X13062Y761D01*
X13067Y750D01*
X13072Y738D01*
X13077Y726D01*
X13042Y717D01*
X13176D01*
Y660D01*
X12891D01*
Y717D01*
X13008D01*
Y718D01*
X13007Y719D01*
X13006Y722D01*
X13004Y727D01*
X13001Y734D01*
X12997Y742D01*
X12993Y752D01*
X12988Y763D01*
X12983Y775D01*
X13047Y792D01*
Y791D01*
D02*
G37*
G36*
X13310Y715D02*
X13356D01*
Y659D01*
X13310D01*
Y584D01*
X13311D01*
X13314Y585D01*
X13317Y586D01*
X13323Y588D01*
X13329Y589D01*
X13336Y591D01*
X13350Y595D01*
X13340Y608D01*
X13341Y608D01*
X13343Y609D01*
X13347Y611D01*
X13352Y614D01*
X13358Y618D01*
X13365Y623D01*
X13372Y629D01*
X13380Y635D01*
X13387Y642D01*
X13394Y650D01*
X13401Y659D01*
X13407Y669D01*
X13412Y680D01*
X13416Y691D01*
X13418Y704D01*
X13419Y717D01*
X13363D01*
Y773D01*
X13627Y773D01*
Y772D01*
Y771D01*
Y768D01*
Y766D01*
X13627Y762D01*
Y757D01*
Y752D01*
X13626Y746D01*
Y739D01*
X13625Y732D01*
X13625Y716D01*
X13624Y698D01*
X13623Y679D01*
Y679D01*
Y677D01*
X13622Y674D01*
Y671D01*
Y666D01*
X13622Y662D01*
X13620Y651D01*
X13619Y640D01*
X13618Y629D01*
X13617Y624D01*
X13616Y620D01*
X13615Y616D01*
X13614Y613D01*
Y613D01*
X13613Y611D01*
X13612Y608D01*
X13609Y605D01*
X13607Y601D01*
X13604Y598D01*
X13600Y594D01*
X13597Y591D01*
X13596Y590D01*
X13594Y590D01*
X13592Y588D01*
X13589Y586D01*
X13584Y585D01*
X13579Y583D01*
X13574Y581D01*
X13567Y580D01*
X13565D01*
X13563Y579D01*
X13558D01*
X13554Y579D01*
X13550D01*
X13545Y578D01*
X13539D01*
X13533Y578D01*
X13526D01*
X13517Y577D01*
X13508D01*
X13497Y576D01*
X13486D01*
Y578D01*
X13485Y581D01*
X13484Y586D01*
X13482Y593D01*
X13480Y601D01*
X13477Y611D01*
X13474Y623D01*
X13470Y635D01*
X13476D01*
X13482Y635D01*
X13498D01*
X13508Y634D01*
X13530D01*
X13533Y635D01*
X13536Y635D01*
X13544Y637D01*
X13548Y639D01*
X13551Y642D01*
X13552Y642D01*
X13553Y644D01*
X13554Y646D01*
X13556Y649D01*
X13557Y652D01*
X13559Y658D01*
X13561Y664D01*
X13561Y672D01*
Y673D01*
Y676D01*
X13562Y680D01*
Y686D01*
Y692D01*
X13562Y700D01*
Y709D01*
Y717D01*
X13481D01*
Y716D01*
Y716D01*
Y714D01*
Y712D01*
X13480Y707D01*
X13479Y700D01*
X13477Y691D01*
X13474Y681D01*
X13471Y670D01*
X13467Y658D01*
X13462Y645D01*
X13455Y632D01*
X13446Y619D01*
X13436Y606D01*
X13425Y593D01*
X13411Y581D01*
X13395Y569D01*
X13386Y564D01*
X13377Y559D01*
X13376Y559D01*
X13375Y561D01*
X13373Y564D01*
X13370Y568D01*
X13366Y573D01*
X13362Y579D01*
X13357Y585D01*
X13352Y592D01*
Y591D01*
Y590D01*
Y589D01*
Y586D01*
Y580D01*
Y573D01*
Y564D01*
Y555D01*
X13352Y545D01*
Y536D01*
X13310Y524D01*
Y408D01*
Y407D01*
Y404D01*
X13309Y400D01*
X13309Y395D01*
X13307Y389D01*
X13306Y383D01*
X13304Y378D01*
X13300Y373D01*
X13300Y372D01*
X13299Y371D01*
X13296Y369D01*
X13294Y366D01*
X13290Y363D01*
X13285Y361D01*
X13280Y359D01*
X13274Y358D01*
X13273D01*
X13270Y357D01*
X13266D01*
X13260Y357D01*
X13252Y356D01*
X13243Y356D01*
X13231Y355D01*
X13218Y354D01*
Y355D01*
Y356D01*
X13217Y357D01*
Y359D01*
X13216Y364D01*
X13215Y372D01*
X13214Y380D01*
X13212Y390D01*
X13210Y400D01*
X13207Y412D01*
X13214D01*
X13219Y412D01*
X13243D01*
X13245Y413D01*
X13247Y414D01*
X13249Y417D01*
X13251Y420D01*
X13253Y424D01*
X13254Y430D01*
Y508D01*
X13208Y494D01*
X13203Y559D01*
X13254Y570D01*
Y659D01*
X13206D01*
Y715D01*
X13254D01*
Y790D01*
X13310D01*
Y715D01*
D02*
G37*
G36*
X11802Y519D02*
X11671D01*
Y569D01*
X11802D01*
Y519D01*
D02*
G37*
G36*
X11601Y560D02*
Y560D01*
Y559D01*
Y556D01*
Y554D01*
X11601Y550D01*
X11600Y546D01*
X11600Y541D01*
X11599Y536D01*
X11597Y525D01*
X11594Y512D01*
X11590Y498D01*
X11584Y484D01*
X11576Y469D01*
X11566Y455D01*
X11561Y449D01*
X11555Y443D01*
X11549Y437D01*
X11541Y431D01*
X11533Y426D01*
X11525Y422D01*
X11516Y417D01*
X11506Y414D01*
X11495Y411D01*
X11484Y409D01*
X11472Y408D01*
X11459Y407D01*
X11455D01*
X11453Y408D01*
X11450D01*
X11446Y408D01*
X11437Y409D01*
X11427Y412D01*
X11415Y415D01*
X11403Y419D01*
X11390Y426D01*
X11377Y434D01*
X11365Y443D01*
X11359Y449D01*
X11353Y455D01*
X11348Y463D01*
X11343Y470D01*
X11338Y478D01*
X11334Y487D01*
X11330Y497D01*
X11327Y507D01*
X11324Y518D01*
X11323Y530D01*
X11322Y543D01*
X11321Y556D01*
Y756D01*
X11394D01*
Y556D01*
Y555D01*
Y552D01*
X11395Y548D01*
X11395Y543D01*
X11397Y536D01*
X11398Y529D01*
X11400Y521D01*
X11403Y513D01*
X11407Y505D01*
X11411Y497D01*
X11417Y490D01*
X11423Y483D01*
X11430Y478D01*
X11440Y474D01*
X11450Y471D01*
X11462Y470D01*
X11465D01*
X11468Y470D01*
X11473Y471D01*
X11478Y473D01*
X11483Y474D01*
X11489Y477D01*
X11495Y480D01*
X11501Y485D01*
X11507Y490D01*
X11513Y497D01*
X11518Y505D01*
X11522Y514D01*
X11525Y525D01*
X11528Y538D01*
X11528Y553D01*
Y756D01*
X11601D01*
Y560D01*
D02*
G37*
G36*
X14299Y729D02*
X14260Y620D01*
X14261Y619D01*
X14262Y618D01*
X14264Y615D01*
X14266Y612D01*
X14270Y608D01*
X14273Y604D01*
X14276Y598D01*
X14280Y592D01*
X14288Y578D01*
X14294Y563D01*
X14296Y555D01*
X14299Y546D01*
X14300Y538D01*
X14300Y529D01*
Y528D01*
Y527D01*
Y525D01*
X14300Y523D01*
X14299Y516D01*
X14297Y508D01*
X14294Y499D01*
X14289Y491D01*
X14283Y483D01*
X14278Y479D01*
X14274Y476D01*
X14273D01*
X14273Y475D01*
X14271Y475D01*
X14269Y474D01*
X14263Y471D01*
X14255Y468D01*
X14246Y465D01*
X14234Y463D01*
X14221Y461D01*
X14206Y460D01*
Y461D01*
X14205Y464D01*
X14203Y468D01*
X14202Y474D01*
X14199Y482D01*
X14196Y491D01*
X14192Y502D01*
X14188Y513D01*
Y351D01*
X14130D01*
Y772D01*
X14299D01*
Y729D01*
D02*
G37*
G36*
X12962Y641D02*
X12962Y639D01*
X12963Y636D01*
X12965Y632D01*
X12967Y627D01*
X12969Y621D01*
X12972Y613D01*
X12976Y603D01*
X12979Y593D01*
X12983Y580D01*
X12988Y566D01*
X12994Y551D01*
X13000Y534D01*
X13006Y515D01*
X13013Y494D01*
X13021Y472D01*
X12960Y452D01*
Y453D01*
X12959Y453D01*
Y455D01*
X12959Y457D01*
X12957Y463D01*
X12955Y470D01*
X12952Y479D01*
X12949Y489D01*
X12946Y501D01*
X12942Y514D01*
X12937Y527D01*
X12933Y541D01*
X12924Y569D01*
X12919Y584D01*
X12915Y598D01*
X12910Y611D01*
X12906Y623D01*
X12962Y641D01*
Y641D01*
D02*
G37*
G36*
X11277Y696D02*
X11179D01*
Y413D01*
X11106D01*
Y696D01*
X11008D01*
Y756D01*
X11277D01*
Y696D01*
D02*
G37*
G36*
X13162Y625D02*
Y624D01*
X13161Y623D01*
X13161Y621D01*
X13159Y618D01*
X13158Y613D01*
X13156Y607D01*
X13153Y599D01*
X13150Y589D01*
X13145Y578D01*
X13143Y571D01*
X13141Y564D01*
X13138Y556D01*
X13135Y548D01*
X13132Y539D01*
X13129Y530D01*
X13125Y520D01*
X13122Y509D01*
X13118Y498D01*
X13113Y485D01*
X13109Y472D01*
X13104Y459D01*
X13099Y444D01*
X13094Y429D01*
X13191D01*
Y372D01*
X12881D01*
Y429D01*
X13031D01*
Y429D01*
X13031Y430D01*
X13032Y432D01*
X13032Y433D01*
X13034Y439D01*
X13037Y447D01*
X13040Y456D01*
X13043Y467D01*
X13048Y480D01*
X13052Y494D01*
X13057Y509D01*
X13062Y526D01*
X13067Y544D01*
X13072Y563D01*
X13078Y582D01*
X13083Y603D01*
X13093Y644D01*
X13162Y625D01*
D02*
G37*
G36*
X13834Y724D02*
X13832D01*
X13831Y724D01*
X13829Y723D01*
X13823Y722D01*
X13816Y721D01*
X13807Y719D01*
X13798Y718D01*
X13788Y716D01*
X13777Y715D01*
Y660D01*
X13835D01*
Y607D01*
X13777D01*
Y555D01*
X13793Y570D01*
X13794Y570D01*
X13796Y567D01*
X13801Y563D01*
X13807Y558D01*
X13816Y550D01*
X13825Y542D01*
X13836Y532D01*
X13848Y520D01*
Y769D01*
X14072D01*
Y419D01*
X14099D01*
Y363D01*
X13809D01*
Y419D01*
X13848D01*
Y516D01*
X13811Y480D01*
X13810Y481D01*
X13808Y484D01*
X13805Y488D01*
X13800Y493D01*
X13795Y499D01*
X13789Y506D01*
X13777Y520D01*
Y352D01*
X13721D01*
Y521D01*
X13721Y520D01*
X13720Y517D01*
X13718Y514D01*
X13716Y509D01*
X13714Y504D01*
X13712Y498D01*
X13709Y492D01*
X13703Y477D01*
X13696Y461D01*
X13688Y444D01*
X13679Y427D01*
Y427D01*
X13678Y428D01*
Y430D01*
X13677Y433D01*
X13677Y436D01*
X13675Y440D01*
X13673Y449D01*
X13670Y461D01*
X13667Y473D01*
X13663Y487D01*
X13658Y502D01*
X13658Y502D01*
X13659Y504D01*
X13660Y506D01*
X13663Y509D01*
X13665Y514D01*
X13668Y519D01*
X13672Y525D01*
X13675Y531D01*
X13679Y539D01*
X13684Y547D01*
X13688Y555D01*
X13692Y565D01*
X13701Y585D01*
X13710Y607D01*
X13660D01*
Y660D01*
X13721D01*
Y708D01*
X13720D01*
X13717Y707D01*
X13711D01*
X13705Y707D01*
X13697Y706D01*
X13688Y705D01*
X13678Y705D01*
X13668Y704D01*
Y705D01*
Y706D01*
Y707D01*
X13668Y710D01*
X13667Y716D01*
X13666Y724D01*
X13665Y732D01*
X13664Y742D01*
X13662Y752D01*
X13660Y761D01*
X13663D01*
X13667Y761D01*
X13673D01*
X13679Y762D01*
X13687Y762D01*
X13696Y763D01*
X13707Y765D01*
X13718Y766D01*
X13730Y767D01*
X13744Y768D01*
X13758Y770D01*
X13773Y772D01*
X13788Y775D01*
X13820Y780D01*
X13834Y724D01*
D02*
G37*
G36*
X14436Y786D02*
Y784D01*
Y780D01*
Y775D01*
Y770D01*
X14435Y763D01*
Y755D01*
Y747D01*
X14435Y729D01*
X14434Y709D01*
X14434Y690D01*
X14432Y671D01*
Y671D01*
Y670D01*
X14433Y669D01*
Y667D01*
X14434Y661D01*
X14435Y654D01*
X14437Y645D01*
X14439Y635D01*
X14441Y624D01*
X14444Y611D01*
X14447Y599D01*
X14451Y586D01*
X14458Y559D01*
X14462Y546D01*
X14467Y534D01*
X14471Y522D01*
X14476Y512D01*
X14477Y511D01*
X14477Y509D01*
X14479Y507D01*
X14481Y503D01*
X14484Y498D01*
X14488Y493D01*
X14492Y487D01*
X14497Y480D01*
X14502Y474D01*
X14508Y467D01*
X14514Y459D01*
X14521Y452D01*
X14529Y444D01*
X14537Y437D01*
X14546Y430D01*
X14555Y424D01*
X14555Y423D01*
X14552Y419D01*
X14548Y414D01*
X14543Y407D01*
X14536Y398D01*
X14529Y387D01*
X14520Y374D01*
X14511Y359D01*
X14510Y360D01*
X14507Y363D01*
X14503Y368D01*
X14497Y374D01*
X14491Y383D01*
X14483Y393D01*
X14475Y404D01*
X14466Y417D01*
X14457Y430D01*
X14449Y445D01*
X14440Y461D01*
X14431Y478D01*
X14424Y495D01*
X14417Y514D01*
X14411Y532D01*
X14406Y551D01*
Y550D01*
X14405Y547D01*
X14404Y541D01*
X14402Y534D01*
X14399Y525D01*
X14395Y515D01*
X14390Y503D01*
X14384Y489D01*
X14377Y475D01*
X14368Y460D01*
X14358Y443D01*
X14346Y427D01*
X14334Y409D01*
X14319Y392D01*
X14302Y374D01*
X14284Y356D01*
Y357D01*
X14283Y357D01*
X14282Y359D01*
X14281Y361D01*
X14277Y367D01*
X14272Y374D01*
X14266Y383D01*
X14259Y393D01*
X14251Y404D01*
X14242Y415D01*
X14243Y415D01*
X14246Y418D01*
X14250Y421D01*
X14255Y425D01*
X14262Y431D01*
X14270Y438D01*
X14278Y445D01*
X14287Y454D01*
X14296Y463D01*
X14305Y474D01*
X14314Y484D01*
X14322Y495D01*
X14330Y507D01*
X14337Y519D01*
X14343Y532D01*
X14348Y545D01*
Y545D01*
X14349Y548D01*
X14350Y552D01*
X14351Y558D01*
X14354Y565D01*
X14355Y574D01*
X14358Y585D01*
X14360Y598D01*
X14361Y611D01*
X14364Y627D01*
X14366Y645D01*
X14367Y664D01*
X14369Y685D01*
X14370Y707D01*
X14371Y732D01*
Y758D01*
Y787D01*
X14436D01*
Y786D01*
D02*
G37*
G36*
X13620Y354D02*
X13561Y354D01*
Y378D01*
X13433D01*
Y354D01*
X13374D01*
Y557D01*
X13620Y557D01*
Y354D01*
D02*
G37*
G36*
X12686Y353D02*
X12626D01*
Y377D01*
X12411D01*
Y353D01*
X12350D01*
Y548D01*
X12686D01*
Y353D01*
D02*
G37*
G36*
X12897Y771D02*
Y770D01*
X12896Y768D01*
X12895Y766D01*
X12894Y763D01*
X12892Y758D01*
X12891Y753D01*
X12888Y748D01*
X12886Y742D01*
X12881Y728D01*
X12875Y713D01*
X12868Y697D01*
X12862Y681D01*
Y352D01*
X12802D01*
Y558D01*
X12802Y557D01*
X12801Y555D01*
X12800Y553D01*
X12796Y547D01*
X12792Y540D01*
X12787Y531D01*
X12781Y521D01*
X12769Y502D01*
Y502D01*
X12768Y503D01*
Y505D01*
X12767Y507D01*
X12767Y510D01*
X12766Y514D01*
X12765Y518D01*
X12764Y523D01*
X12761Y534D01*
X12757Y547D01*
X12754Y561D01*
X12749Y578D01*
X12750Y579D01*
X12751Y581D01*
X12754Y585D01*
X12757Y591D01*
X12761Y599D01*
X12766Y609D01*
X12771Y619D01*
X12777Y632D01*
X12784Y646D01*
X12791Y662D01*
X12799Y679D01*
X12806Y698D01*
X12815Y719D01*
X12823Y740D01*
X12832Y763D01*
X12840Y788D01*
X12897Y771D01*
D02*
G37*
G36*
X12106Y792D02*
X12106Y791D01*
X12107Y790D01*
X12108Y788D01*
X12110Y782D01*
X12113Y775D01*
X12115Y767D01*
X12119Y758D01*
X12123Y748D01*
X12126Y737D01*
X12277D01*
Y679D01*
X11952D01*
Y589D01*
Y589D01*
Y588D01*
Y585D01*
Y582D01*
Y579D01*
X11952Y574D01*
Y569D01*
X11951Y563D01*
Y556D01*
X11950Y550D01*
X11949Y535D01*
X11947Y518D01*
X11945Y500D01*
X11942Y480D01*
X11938Y461D01*
X11933Y441D01*
X11927Y421D01*
X11920Y402D01*
X11913Y383D01*
X11904Y366D01*
X11893Y350D01*
X11892Y351D01*
X11891Y353D01*
X11889Y354D01*
X11887Y357D01*
X11884Y359D01*
X11881Y362D01*
X11877Y366D01*
X11872Y371D01*
X11866Y376D01*
X11859Y382D01*
X11851Y389D01*
X11842Y397D01*
X11843Y397D01*
X11844Y399D01*
X11847Y403D01*
X11850Y408D01*
X11854Y415D01*
X11858Y423D01*
X11862Y433D01*
X11867Y444D01*
X11871Y458D01*
X11876Y473D01*
X11879Y489D01*
X11883Y507D01*
X11886Y527D01*
X11888Y548D01*
X11889Y572D01*
Y597D01*
Y737D01*
X12051D01*
X12050Y738D01*
X12050Y741D01*
X12048Y745D01*
X12046Y750D01*
X12044Y756D01*
X12041Y763D01*
X12035Y777D01*
X12106Y792D01*
Y792D01*
D02*
G37*
G36*
X16335Y754D02*
X16344Y754D01*
X16354Y752D01*
X16364Y751D01*
X16374Y749D01*
X16383Y745D01*
Y685D01*
X16382D01*
X16382Y685D01*
X16378Y687D01*
X16373Y690D01*
X16366Y692D01*
X16357Y695D01*
X16348Y697D01*
X16337Y699D01*
X16326Y700D01*
X16322D01*
X16320Y699D01*
X16316Y699D01*
X16312Y698D01*
X16304Y696D01*
X16293Y692D01*
X16288Y690D01*
X16282Y686D01*
X16277Y682D01*
X16272Y679D01*
X16267Y674D01*
X16262Y668D01*
Y668D01*
X16261Y666D01*
X16260Y665D01*
X16259Y663D01*
X16257Y659D01*
X16255Y656D01*
X16253Y651D01*
X16251Y646D01*
X16249Y641D01*
X16246Y635D01*
X16242Y621D01*
X16240Y605D01*
X16239Y596D01*
X16239Y588D01*
X16240D01*
X16241Y588D01*
X16241Y589D01*
X16243Y591D01*
X16245Y594D01*
X16247Y596D01*
X16251Y600D01*
X16254Y603D01*
X16259Y606D01*
X16264Y610D01*
X16269Y614D01*
X16275Y616D01*
X16281Y619D01*
X16289Y622D01*
X16296Y624D01*
X16304Y625D01*
X16313Y625D01*
X16317D01*
X16320Y625D01*
X16324Y624D01*
X16328Y624D01*
X16338Y621D01*
X16349Y618D01*
X16360Y613D01*
X16366Y609D01*
X16371Y605D01*
X16376Y601D01*
X16381Y595D01*
X16382Y595D01*
X16382Y594D01*
X16383Y593D01*
X16385Y590D01*
X16387Y587D01*
X16390Y584D01*
X16392Y579D01*
X16394Y575D01*
X16398Y564D01*
X16403Y550D01*
X16406Y535D01*
X16407Y528D01*
Y519D01*
Y518D01*
Y517D01*
Y514D01*
X16406Y510D01*
X16406Y506D01*
X16405Y500D01*
X16404Y495D01*
X16403Y489D01*
X16398Y475D01*
X16396Y468D01*
X16393Y461D01*
X16389Y454D01*
X16385Y447D01*
X16380Y440D01*
X16373Y433D01*
X16373Y433D01*
X16372Y432D01*
X16370Y430D01*
X16367Y428D01*
X16365Y426D01*
X16361Y423D01*
X16356Y420D01*
X16351Y417D01*
X16345Y413D01*
X16339Y411D01*
X16332Y408D01*
X16324Y405D01*
X16316Y403D01*
X16308Y402D01*
X16299Y401D01*
X16290Y400D01*
X16287D01*
X16284Y401D01*
X16280D01*
X16275Y401D01*
X16269Y402D01*
X16263Y403D01*
X16256Y406D01*
X16249Y408D01*
X16241Y411D01*
X16234Y414D01*
X16226Y418D01*
X16219Y423D01*
X16211Y428D01*
X16205Y435D01*
X16199Y442D01*
X16198Y443D01*
X16198Y444D01*
X16196Y447D01*
X16194Y450D01*
X16191Y454D01*
X16189Y459D01*
X16186Y465D01*
X16183Y473D01*
X16180Y480D01*
X16178Y489D01*
X16175Y499D01*
X16173Y509D01*
X16170Y520D01*
X16169Y533D01*
X16168Y545D01*
X16168Y559D01*
Y560D01*
Y563D01*
X16168Y567D01*
Y573D01*
X16169Y580D01*
X16170Y589D01*
X16171Y599D01*
X16173Y609D01*
X16175Y620D01*
X16178Y631D01*
X16181Y643D01*
X16185Y655D01*
X16189Y666D01*
X16195Y678D01*
X16201Y689D01*
X16208Y700D01*
X16209Y700D01*
X16210Y702D01*
X16213Y705D01*
X16216Y709D01*
X16220Y712D01*
X16225Y717D01*
X16231Y722D01*
X16237Y727D01*
X16245Y732D01*
X16254Y737D01*
X16263Y742D01*
X16274Y746D01*
X16284Y750D01*
X16296Y752D01*
X16309Y754D01*
X16322Y755D01*
X16331D01*
X16335Y754D01*
D02*
G37*
G36*
X16110Y512D02*
X15979D01*
Y562D01*
X16110D01*
Y512D01*
D02*
G37*
G36*
X15814Y754D02*
X15818D01*
X15823Y754D01*
X15829Y752D01*
X15835Y751D01*
X15848Y748D01*
X15862Y744D01*
X15875Y737D01*
X15881Y732D01*
X15887Y728D01*
X15887Y727D01*
X15888Y727D01*
X15890Y725D01*
X15891Y723D01*
X15894Y721D01*
X15896Y717D01*
X15899Y714D01*
X15902Y709D01*
X15907Y699D01*
X15912Y686D01*
X15916Y672D01*
X15916Y664D01*
X15917Y656D01*
Y655D01*
Y651D01*
X15916Y646D01*
X15916Y640D01*
X15914Y633D01*
X15913Y625D01*
X15911Y618D01*
X15908Y609D01*
X15907Y608D01*
X15906Y606D01*
X15905Y602D01*
X15902Y596D01*
X15898Y591D01*
X15894Y584D01*
X15889Y578D01*
X15883Y570D01*
X15882Y570D01*
X15880Y567D01*
X15876Y563D01*
X15870Y558D01*
X15863Y552D01*
X15854Y544D01*
X15843Y536D01*
X15831Y527D01*
X15830D01*
X15829Y525D01*
X15827Y524D01*
X15825Y523D01*
X15819Y518D01*
X15812Y513D01*
X15804Y507D01*
X15796Y500D01*
X15789Y494D01*
X15784Y488D01*
X15783Y488D01*
X15782Y486D01*
X15780Y483D01*
X15778Y480D01*
X15774Y473D01*
X15772Y469D01*
X15772Y465D01*
X15918D01*
Y406D01*
X15689D01*
Y431D01*
Y431D01*
Y432D01*
Y435D01*
X15690Y441D01*
X15690Y447D01*
X15691Y454D01*
X15694Y463D01*
X15696Y472D01*
X15699Y480D01*
X15700Y481D01*
X15701Y484D01*
X15703Y488D01*
X15706Y493D01*
X15710Y500D01*
X15715Y507D01*
X15720Y514D01*
X15726Y521D01*
X15727Y522D01*
X15730Y524D01*
X15734Y529D01*
X15740Y534D01*
X15747Y540D01*
X15756Y548D01*
X15767Y557D01*
X15780Y566D01*
X15781Y567D01*
X15782Y567D01*
X15784Y568D01*
X15786Y570D01*
X15791Y575D01*
X15798Y581D01*
X15806Y588D01*
X15813Y595D01*
X15821Y603D01*
X15826Y610D01*
X15827Y611D01*
X15828Y613D01*
X15831Y617D01*
X15833Y622D01*
X15835Y628D01*
X15837Y635D01*
X15839Y643D01*
X15840Y651D01*
Y651D01*
Y653D01*
X15839Y655D01*
Y658D01*
X15837Y665D01*
X15835Y670D01*
X15833Y674D01*
X15831Y678D01*
X15827Y682D01*
X15823Y686D01*
X15818Y690D01*
X15812Y692D01*
X15806Y695D01*
X15798Y696D01*
X15789Y697D01*
X15785D01*
X15781Y696D01*
X15777Y696D01*
X15773Y695D01*
X15767Y694D01*
X15762Y692D01*
X15749Y688D01*
X15742Y685D01*
X15735Y682D01*
X15727Y678D01*
X15720Y673D01*
X15712Y668D01*
X15705Y661D01*
Y725D01*
X15705Y726D01*
X15707Y726D01*
X15709Y728D01*
X15712Y730D01*
X15717Y732D01*
X15722Y735D01*
X15727Y737D01*
X15734Y740D01*
X15741Y742D01*
X15749Y745D01*
X15757Y748D01*
X15766Y750D01*
X15785Y754D01*
X15795Y754D01*
X15806Y755D01*
X15811D01*
X15814Y754D01*
D02*
G37*
G36*
X15534D02*
X15539D01*
X15544Y754D01*
X15549Y752D01*
X15555Y751D01*
X15569Y748D01*
X15582Y744D01*
X15595Y737D01*
X15601Y732D01*
X15607Y728D01*
X15608Y727D01*
X15608Y727D01*
X15610Y725D01*
X15611Y723D01*
X15614Y721D01*
X15616Y717D01*
X15619Y714D01*
X15622Y709D01*
X15628Y699D01*
X15633Y686D01*
X15636Y672D01*
X15636Y664D01*
X15637Y656D01*
Y655D01*
Y651D01*
X15636Y646D01*
X15636Y640D01*
X15635Y633D01*
X15633Y625D01*
X15631Y618D01*
X15628Y609D01*
X15628Y608D01*
X15626Y606D01*
X15625Y602D01*
X15622Y596D01*
X15618Y591D01*
X15614Y584D01*
X15609Y578D01*
X15603Y570D01*
X15603Y570D01*
X15600Y567D01*
X15596Y563D01*
X15590Y558D01*
X15583Y552D01*
X15574Y544D01*
X15564Y536D01*
X15551Y527D01*
X15550D01*
X15549Y525D01*
X15548Y524D01*
X15545Y523D01*
X15539Y518D01*
X15532Y513D01*
X15524Y507D01*
X15517Y500D01*
X15509Y494D01*
X15504Y488D01*
X15503Y488D01*
X15502Y486D01*
X15500Y483D01*
X15498Y480D01*
X15494Y473D01*
X15493Y469D01*
X15492Y465D01*
X15638D01*
Y406D01*
X15409D01*
Y431D01*
Y431D01*
Y432D01*
Y435D01*
X15410Y441D01*
X15411Y447D01*
X15412Y454D01*
X15414Y463D01*
X15416Y472D01*
X15419Y480D01*
X15420Y481D01*
X15421Y484D01*
X15423Y488D01*
X15427Y493D01*
X15431Y500D01*
X15435Y507D01*
X15441Y514D01*
X15447Y521D01*
X15447Y522D01*
X15450Y524D01*
X15454Y529D01*
X15460Y534D01*
X15467Y540D01*
X15477Y548D01*
X15488Y557D01*
X15500Y566D01*
X15501Y567D01*
X15502Y567D01*
X15504Y568D01*
X15506Y570D01*
X15512Y575D01*
X15519Y581D01*
X15527Y588D01*
X15534Y595D01*
X15541Y603D01*
X15547Y610D01*
X15547Y611D01*
X15549Y613D01*
X15551Y617D01*
X15553Y622D01*
X15555Y628D01*
X15558Y635D01*
X15559Y643D01*
X15560Y651D01*
Y651D01*
Y653D01*
X15559Y655D01*
Y658D01*
X15557Y665D01*
X15555Y670D01*
X15554Y674D01*
X15551Y678D01*
X15548Y682D01*
X15543Y686D01*
X15539Y690D01*
X15533Y692D01*
X15526Y695D01*
X15518Y696D01*
X15509Y697D01*
X15505D01*
X15502Y696D01*
X15498Y696D01*
X15493Y695D01*
X15488Y694D01*
X15482Y692D01*
X15469Y688D01*
X15462Y685D01*
X15455Y682D01*
X15448Y678D01*
X15440Y673D01*
X15433Y668D01*
X15425Y661D01*
Y725D01*
X15426Y726D01*
X15427Y726D01*
X15429Y728D01*
X15433Y730D01*
X15437Y732D01*
X15442Y735D01*
X15448Y737D01*
X15454Y740D01*
X15462Y742D01*
X15469Y745D01*
X15478Y748D01*
X15487Y750D01*
X15505Y754D01*
X15515Y754D01*
X15526Y755D01*
X15531D01*
X15534Y754D01*
D02*
G37*
G36*
X14975D02*
X14979D01*
X14984Y754D01*
X14990Y752D01*
X14996Y751D01*
X15009Y748D01*
X15023Y744D01*
X15036Y737D01*
X15042Y732D01*
X15048Y728D01*
X15048Y727D01*
X15049Y727D01*
X15050Y725D01*
X15052Y723D01*
X15055Y721D01*
X15057Y717D01*
X15060Y714D01*
X15063Y709D01*
X15068Y699D01*
X15073Y686D01*
X15076Y672D01*
X15077Y664D01*
X15078Y656D01*
Y655D01*
Y651D01*
X15077Y646D01*
X15076Y640D01*
X15075Y633D01*
X15074Y625D01*
X15071Y618D01*
X15069Y609D01*
X15068Y608D01*
X15067Y606D01*
X15065Y602D01*
X15063Y596D01*
X15059Y591D01*
X15055Y584D01*
X15050Y578D01*
X15044Y570D01*
X15043Y570D01*
X15040Y567D01*
X15036Y563D01*
X15031Y558D01*
X15024Y552D01*
X15015Y544D01*
X15004Y536D01*
X14992Y527D01*
X14991D01*
X14990Y525D01*
X14988Y524D01*
X14986Y523D01*
X14980Y518D01*
X14973Y513D01*
X14965Y507D01*
X14957Y500D01*
X14950Y494D01*
X14944Y488D01*
X14944Y488D01*
X14943Y486D01*
X14940Y483D01*
X14939Y480D01*
X14934Y473D01*
X14933Y469D01*
X14933Y465D01*
X15079D01*
Y406D01*
X14850D01*
Y431D01*
Y431D01*
Y432D01*
Y435D01*
X14851Y441D01*
X14851Y447D01*
X14852Y454D01*
X14854Y463D01*
X14857Y472D01*
X14860Y480D01*
X14861Y481D01*
X14862Y484D01*
X14864Y488D01*
X14867Y493D01*
X14871Y500D01*
X14876Y507D01*
X14881Y514D01*
X14887Y521D01*
X14888Y522D01*
X14891Y524D01*
X14894Y529D01*
X14901Y534D01*
X14908Y540D01*
X14917Y548D01*
X14928Y557D01*
X14941Y566D01*
X14942Y567D01*
X14943Y567D01*
X14944Y568D01*
X14947Y570D01*
X14952Y575D01*
X14959Y581D01*
X14967Y588D01*
X14974Y595D01*
X14982Y603D01*
X14987Y610D01*
X14988Y611D01*
X14989Y613D01*
X14992Y617D01*
X14994Y622D01*
X14996Y628D01*
X14998Y635D01*
X15000Y643D01*
X15000Y651D01*
Y651D01*
Y653D01*
X15000Y655D01*
Y658D01*
X14998Y665D01*
X14996Y670D01*
X14994Y674D01*
X14992Y678D01*
X14988Y682D01*
X14984Y686D01*
X14979Y690D01*
X14973Y692D01*
X14967Y695D01*
X14959Y696D01*
X14950Y697D01*
X14945D01*
X14942Y696D01*
X14938Y696D01*
X14934Y695D01*
X14928Y694D01*
X14923Y692D01*
X14910Y688D01*
X14903Y685D01*
X14896Y682D01*
X14888Y678D01*
X14881Y673D01*
X14873Y668D01*
X14866Y661D01*
Y725D01*
X14866Y726D01*
X14868Y726D01*
X14870Y728D01*
X14873Y730D01*
X14878Y732D01*
X14883Y735D01*
X14888Y737D01*
X14895Y740D01*
X14902Y742D01*
X14910Y745D01*
X14918Y748D01*
X14927Y750D01*
X14946Y754D01*
X14956Y754D01*
X14967Y755D01*
X14972D01*
X14975Y754D01*
D02*
G37*
G36*
X15256D02*
X15262Y754D01*
X15270Y752D01*
X15278Y749D01*
X15288Y745D01*
X15300Y740D01*
X15311Y733D01*
X15316Y729D01*
X15321Y724D01*
X15327Y718D01*
X15332Y712D01*
X15337Y705D01*
X15342Y697D01*
X15347Y690D01*
X15351Y681D01*
X15355Y671D01*
X15358Y661D01*
X15362Y649D01*
X15364Y637D01*
X15367Y624D01*
X15368Y610D01*
X15369Y595D01*
X15369Y579D01*
Y578D01*
Y575D01*
Y571D01*
X15369Y565D01*
X15368Y558D01*
X15368Y550D01*
X15367Y540D01*
X15366Y530D01*
X15362Y509D01*
X15359Y498D01*
X15356Y487D01*
X15352Y476D01*
X15348Y465D01*
X15343Y456D01*
X15337Y447D01*
X15337Y446D01*
X15336Y444D01*
X15334Y442D01*
X15331Y439D01*
X15328Y436D01*
X15324Y432D01*
X15319Y428D01*
X15313Y423D01*
X15307Y419D01*
X15301Y415D01*
X15293Y411D01*
X15285Y407D01*
X15276Y404D01*
X15266Y402D01*
X15256Y401D01*
X15245Y400D01*
X15242D01*
X15240Y401D01*
X15234Y401D01*
X15226Y403D01*
X15216Y405D01*
X15206Y409D01*
X15195Y414D01*
X15184Y422D01*
X15179Y426D01*
X15173Y431D01*
X15167Y436D01*
X15162Y442D01*
X15157Y448D01*
X15152Y455D01*
X15147Y464D01*
X15142Y472D01*
X15139Y482D01*
X15135Y492D01*
X15131Y503D01*
X15129Y515D01*
X15126Y528D01*
X15125Y542D01*
X15124Y556D01*
X15124Y571D01*
Y573D01*
Y575D01*
Y580D01*
X15124Y586D01*
X15125Y594D01*
X15125Y602D01*
X15126Y611D01*
X15128Y622D01*
X15131Y644D01*
X15134Y655D01*
X15137Y666D01*
X15141Y677D01*
X15146Y688D01*
X15151Y698D01*
X15156Y707D01*
X15157Y708D01*
X15158Y710D01*
X15160Y712D01*
X15162Y715D01*
X15166Y719D01*
X15170Y722D01*
X15175Y727D01*
X15181Y731D01*
X15187Y735D01*
X15194Y740D01*
X15202Y744D01*
X15210Y747D01*
X15220Y750D01*
X15230Y752D01*
X15240Y754D01*
X15251Y755D01*
X15254D01*
X15256Y754D01*
D02*
G37*
%LPC*%
G36*
X26169Y9348D02*
X26168D01*
Y9347D01*
Y9345D01*
X26167Y9343D01*
X26166Y9341D01*
Y9341D01*
X26165Y9337D01*
X26163Y9334D01*
X26163Y9331D01*
X26162Y9330D01*
X26160Y9325D01*
X26158Y9321D01*
X26157Y9318D01*
X26156Y9316D01*
X26155Y9312D01*
X26154Y9310D01*
X26153Y9308D01*
Y9307D01*
X26155Y9307D01*
X26160Y9304D01*
Y9305D01*
X26161Y9307D01*
Y9308D01*
Y9309D01*
X26162Y9312D01*
X26163Y9316D01*
X26164Y9319D01*
Y9321D01*
X26166Y9327D01*
X26168Y9332D01*
X26169Y9335D01*
Y9335D01*
X26171Y9338D01*
X26172Y9341D01*
Y9342D01*
Y9343D01*
X26172Y9346D01*
X26173Y9347D01*
Y9347D01*
X26171D01*
X26169Y9348D01*
D02*
G37*
G36*
X26303Y9238D02*
X26301D01*
Y9237D01*
X26302Y9238D01*
X26303Y9238D01*
D02*
G37*
G36*
X25525D02*
X25523D01*
Y9237D01*
X25524Y9238D01*
X25525Y9238D01*
D02*
G37*
G36*
X26301Y9237D02*
X26300Y9236D01*
X26298Y9235D01*
X26296Y9232D01*
X26293Y9227D01*
X26289Y9222D01*
X26289Y9221D01*
X26288Y9220D01*
X26286Y9217D01*
X26285Y9215D01*
X26288Y9217D01*
X26289Y9218D01*
X26290Y9220D01*
X26293Y9223D01*
X26296Y9226D01*
Y9227D01*
X26297Y9227D01*
X26299Y9232D01*
X26300Y9233D01*
X26300Y9234D01*
X26301Y9236D01*
Y9237D01*
D02*
G37*
G36*
X25523D02*
X25523Y9236D01*
X25520Y9235D01*
X25518Y9232D01*
X25515Y9227D01*
X25512Y9222D01*
X25511Y9221D01*
X25510Y9220D01*
X25509Y9217D01*
X25508Y9215D01*
X25510Y9217D01*
X25511Y9218D01*
X25512Y9220D01*
X25515Y9223D01*
X25518Y9226D01*
Y9227D01*
X25519Y9227D01*
X25521Y9232D01*
X25522Y9233D01*
X25523Y9234D01*
X25523Y9236D01*
Y9237D01*
D02*
G37*
G36*
X26775Y9005D02*
X26774D01*
Y9004D01*
X26773Y9002D01*
X26770Y8998D01*
X26770Y8997D01*
X26768Y8995D01*
X26767Y8992D01*
X26764Y8989D01*
X26761Y8985D01*
X26758Y8979D01*
X26753Y8974D01*
X26753Y8973D01*
X26752Y8971D01*
X26750Y8968D01*
X26748Y8965D01*
X26743Y8958D01*
X26738Y8951D01*
Y8950D01*
X26738Y8949D01*
X26735Y8945D01*
X26731Y8938D01*
X26726Y8931D01*
X26725Y8930D01*
X26724Y8928D01*
X26722Y8923D01*
X26721Y8920D01*
X26719Y8916D01*
Y8915D01*
X26718Y8914D01*
X26717Y8910D01*
X26716Y8905D01*
X26715Y8903D01*
Y8902D01*
Y8901D01*
Y8900D01*
X26716Y8898D01*
X26716Y8897D01*
X26718Y8897D01*
X26719Y8896D01*
X26723D01*
X26726Y8897D01*
X26730Y8897D01*
X26735Y8899D01*
X26742Y8902D01*
X26750Y8906D01*
X26758Y8912D01*
X26767Y8920D01*
X26767Y8922D01*
X26770Y8925D01*
X26774Y8929D01*
X26778Y8935D01*
X26783Y8942D01*
X26787Y8951D01*
X26790Y8959D01*
X26790Y8967D01*
Y8968D01*
Y8970D01*
X26790Y8973D01*
X26788Y8977D01*
Y8978D01*
X26787Y8981D01*
X26786Y8985D01*
X26784Y8991D01*
Y8991D01*
X26783Y8992D01*
X26781Y8996D01*
X26780Y8999D01*
X26778Y9002D01*
Y9003D01*
X26776Y9004D01*
X26775Y9005D01*
D02*
G37*
G36*
X12493Y681D02*
X12396D01*
Y681D01*
X12395Y680D01*
X12393Y677D01*
X12390Y671D01*
X12386Y665D01*
X12382Y657D01*
X12376Y649D01*
X12365Y632D01*
X12493D01*
Y681D01*
D02*
G37*
G36*
X14237Y720D02*
X14188D01*
Y520D01*
X14191D01*
X14194Y520D01*
X14204D01*
X14209Y519D01*
X14221D01*
X14223Y520D01*
X14227Y520D01*
X14231Y521D01*
X14235Y524D01*
X14239Y527D01*
X14241Y531D01*
X14242Y537D01*
Y538D01*
Y539D01*
Y540D01*
X14241Y543D01*
X14241Y546D01*
X14240Y550D01*
X14239Y554D01*
X14237Y559D01*
X14235Y565D01*
X14232Y571D01*
X14229Y577D01*
X14225Y584D01*
X14220Y591D01*
X14215Y598D01*
X14209Y606D01*
X14202Y614D01*
Y614D01*
X14203Y616D01*
X14204Y619D01*
X14205Y622D01*
X14207Y627D01*
X14208Y632D01*
X14210Y639D01*
X14213Y645D01*
X14215Y653D01*
X14218Y661D01*
X14220Y670D01*
X14224Y679D01*
X14230Y699D01*
X14237Y720D01*
D02*
G37*
G36*
X14013Y714D02*
X13907D01*
Y651D01*
X14013D01*
Y714D01*
D02*
G37*
G36*
Y598D02*
X13907D01*
Y536D01*
X14013D01*
Y598D01*
D02*
G37*
G36*
Y483D02*
X13907D01*
Y419D01*
X14013D01*
Y483D01*
D02*
G37*
G36*
X13561Y504D02*
X13433D01*
Y430D01*
X13561D01*
Y504D01*
D02*
G37*
G36*
X12626Y493D02*
X12411D01*
Y431D01*
X12626D01*
Y493D01*
D02*
G37*
G36*
X16289Y572D02*
X16286D01*
X16281Y571D01*
X16277Y570D01*
X16271Y568D01*
X16265Y565D01*
X16260Y562D01*
X16254Y557D01*
X16254Y556D01*
X16252Y554D01*
X16250Y550D01*
X16248Y546D01*
X16245Y540D01*
X16244Y534D01*
X16242Y527D01*
X16241Y518D01*
Y518D01*
Y517D01*
Y514D01*
X16242Y509D01*
X16243Y503D01*
X16245Y495D01*
X16247Y488D01*
X16250Y480D01*
X16255Y473D01*
X16255Y472D01*
X16257Y470D01*
X16260Y467D01*
X16264Y464D01*
X16269Y460D01*
X16275Y457D01*
X16282Y455D01*
X16290Y454D01*
X16291D01*
X16293Y455D01*
X16297Y455D01*
X16302Y457D01*
X16307Y458D01*
X16314Y462D01*
X16319Y465D01*
X16324Y471D01*
X16325Y472D01*
X16326Y474D01*
X16328Y478D01*
X16331Y483D01*
X16333Y489D01*
X16335Y497D01*
X16336Y505D01*
X16337Y514D01*
Y515D01*
Y517D01*
X16336Y520D01*
Y523D01*
X16335Y528D01*
X16334Y533D01*
X16333Y538D01*
X16331Y543D01*
X16329Y549D01*
X16325Y554D01*
X16321Y559D01*
X16317Y563D01*
X16311Y567D01*
X16305Y570D01*
X16297Y571D01*
X16289Y572D01*
D02*
G37*
G36*
X15248Y700D02*
X15246D01*
X15243Y699D01*
X15240Y697D01*
X15236Y696D01*
X15231Y693D01*
X15227Y689D01*
X15222Y684D01*
X15217Y677D01*
X15212Y669D01*
X15208Y659D01*
X15206Y653D01*
X15204Y646D01*
X15202Y639D01*
X15201Y632D01*
X15199Y624D01*
X15198Y615D01*
X15197Y605D01*
X15196Y595D01*
X15196Y585D01*
Y573D01*
Y573D01*
Y572D01*
Y570D01*
Y568D01*
X15196Y562D01*
Y555D01*
X15197Y545D01*
X15199Y535D01*
X15200Y525D01*
X15202Y514D01*
X15205Y503D01*
X15208Y492D01*
X15212Y482D01*
X15217Y473D01*
X15223Y465D01*
X15230Y459D01*
X15234Y457D01*
X15238Y455D01*
X15242Y455D01*
X15247Y454D01*
X15249D01*
X15251Y455D01*
X15255Y456D01*
X15258Y458D01*
X15263Y461D01*
X15267Y464D01*
X15272Y470D01*
X15276Y476D01*
X15281Y484D01*
X15285Y494D01*
X15289Y506D01*
X15291Y513D01*
X15292Y520D01*
X15293Y528D01*
X15295Y536D01*
X15296Y545D01*
X15296Y555D01*
X15297Y565D01*
Y576D01*
Y577D01*
Y578D01*
Y580D01*
Y582D01*
X15296Y588D01*
Y596D01*
X15295Y605D01*
X15294Y615D01*
X15293Y626D01*
X15291Y638D01*
X15288Y650D01*
X15285Y661D01*
X15281Y671D01*
X15276Y680D01*
X15271Y689D01*
X15264Y694D01*
X15261Y697D01*
X15257Y699D01*
X15252Y699D01*
X15248Y700D01*
D02*
G37*
%LPD*%
D25*
X27550Y0D02*
Y13000D01*
X0D02*
X27550D01*
X0Y0D02*
Y13000D01*
Y0D02*
X100D01*
X0D02*
X200D01*
X0D02*
X27550D01*
D26*
X10910Y1935D02*
Y2575D01*
X10590Y1935D02*
Y2575D01*
X10910D01*
X10590Y1935D02*
X10910D01*
Y7435D02*
Y8075D01*
X10590Y7435D02*
Y8075D01*
X10910D01*
X10590Y7435D02*
X10910D01*
Y3768D02*
Y4408D01*
X10590Y3768D02*
Y4408D01*
X10910D01*
X10590Y3768D02*
X10910D01*
X6735Y7090D02*
X7375D01*
X6735Y7410D02*
X7375D01*
Y7090D02*
Y7410D01*
X6735Y7090D02*
Y7410D01*
X10910Y5602D02*
Y6241D01*
X10590Y5602D02*
Y6241D01*
X10910D01*
X10590Y5602D02*
X10910D01*
X14365Y5963D02*
X15035D01*
X14365Y6337D02*
X15035D01*
Y5963D02*
Y6337D01*
X14365Y5963D02*
Y6337D01*
X12324Y5958D02*
X12994D01*
X12324Y6332D02*
X12994D01*
Y5958D02*
Y6332D01*
X12324Y5958D02*
Y6332D01*
Y4061D02*
X12994D01*
X12324Y4435D02*
X12994D01*
Y4061D02*
Y4435D01*
X12324Y4061D02*
Y4435D01*
X14365Y4066D02*
X15035D01*
X14365Y4440D02*
X15035D01*
Y4066D02*
Y4440D01*
X14365Y4066D02*
Y4440D01*
X5260Y4300D02*
Y4940D01*
X4940Y4300D02*
Y4940D01*
X5260D01*
X4940Y4300D02*
X5260D01*
X17765Y8837D02*
X18435D01*
X17765Y8463D02*
X18435D01*
X17765D02*
Y8837D01*
X18435Y8463D02*
Y8837D01*
X16437Y5215D02*
Y5885D01*
X16063Y5215D02*
Y5885D01*
X16437D01*
X16063Y5215D02*
X16437D01*
X23015Y11213D02*
X23685D01*
X23015Y11587D02*
X23685D01*
Y11213D02*
Y11587D01*
X23015Y11213D02*
Y11587D01*
X17860Y4085D02*
Y4725D01*
X17540Y4085D02*
Y4725D01*
X17860D01*
X17540Y4085D02*
X17860D01*
X16410Y1285D02*
Y1925D01*
X16090Y1285D02*
Y1925D01*
X16410D01*
X16090Y1285D02*
X16410D01*
X14325Y2460D02*
X14965D01*
X14325Y2140D02*
X14965D01*
X14325D02*
Y2460D01*
X14965Y2140D02*
Y2460D01*
X16406Y3014D02*
Y3654D01*
X16086Y3014D02*
Y3654D01*
X16406D01*
X16086Y3014D02*
X16406D01*
X17285Y5740D02*
X17925D01*
X17285Y6060D02*
X17925D01*
Y5740D02*
Y6060D01*
X17285Y5740D02*
Y6060D01*
X12385Y2140D02*
X13025D01*
X12385Y2460D02*
X13025D01*
Y2140D02*
Y2460D01*
X12385Y2140D02*
Y2460D01*
D37*
X4150Y9369D02*
D03*
Y11731D02*
D03*
D38*
X16250Y12089D02*
D03*
Y10711D02*
D03*
D39*
X6958Y6027D02*
D03*
X7155D02*
D03*
X7352D02*
D03*
X7548D02*
D03*
X7745D02*
D03*
X7942D02*
D03*
Y4373D02*
D03*
X7745D02*
D03*
X7548D02*
D03*
X7352D02*
D03*
X7155D02*
D03*
X6958D02*
D03*
X19408Y6077D02*
D03*
X19605D02*
D03*
X19802D02*
D03*
X19998D02*
D03*
X20195D02*
D03*
X20392D02*
D03*
Y4423D02*
D03*
X20195D02*
D03*
X19998D02*
D03*
X19802D02*
D03*
X19605D02*
D03*
X19408D02*
D03*
D40*
X8277Y5692D02*
D03*
Y5495D02*
D03*
Y5298D02*
D03*
Y5102D02*
D03*
Y4905D02*
D03*
Y4708D02*
D03*
X6623D02*
D03*
Y4905D02*
D03*
Y5102D02*
D03*
Y5298D02*
D03*
Y5495D02*
D03*
Y5692D02*
D03*
X20727Y5742D02*
D03*
Y5545D02*
D03*
Y5348D02*
D03*
Y5152D02*
D03*
Y4955D02*
D03*
Y4758D02*
D03*
X19073D02*
D03*
Y4955D02*
D03*
Y5152D02*
D03*
Y5348D02*
D03*
Y5545D02*
D03*
Y5742D02*
D03*
D41*
X7450Y5200D02*
D03*
X19900Y5250D02*
D03*
D42*
X6711Y8550D02*
D03*
X8089D02*
D03*
X19089Y7350D02*
D03*
X17711D02*
D03*
D43*
X10750Y1915D02*
D03*
Y2585D02*
D03*
Y7415D02*
D03*
Y8085D02*
D03*
Y3749D02*
D03*
Y4418D02*
D03*
Y5582D02*
D03*
Y6251D02*
D03*
X5100Y4281D02*
D03*
Y4950D02*
D03*
X16250Y5885D02*
D03*
Y5215D02*
D03*
X17700Y4065D02*
D03*
Y4735D02*
D03*
X16250Y1265D02*
D03*
Y1935D02*
D03*
X16246Y2994D02*
D03*
Y3664D02*
D03*
D44*
X14742Y9168D02*
D03*
Y8912D02*
D03*
Y8656D02*
D03*
Y8400D02*
D03*
Y8144D02*
D03*
Y7888D02*
D03*
Y7632D02*
D03*
X12458D02*
D03*
Y7888D02*
D03*
Y8400D02*
D03*
Y8656D02*
D03*
Y8912D02*
D03*
Y9168D02*
D03*
Y8144D02*
D03*
D45*
X6715Y7250D02*
D03*
X7385D02*
D03*
X15035Y6150D02*
D03*
X14365D02*
D03*
X12994Y6145D02*
D03*
X12324D02*
D03*
X12994Y4248D02*
D03*
X12324D02*
D03*
X15035Y4253D02*
D03*
X14365D02*
D03*
X17765Y8650D02*
D03*
X18435D02*
D03*
X23685Y11400D02*
D03*
X23015D02*
D03*
X14985Y2300D02*
D03*
X14315D02*
D03*
X17265Y5900D02*
D03*
X17935D02*
D03*
X12365Y2300D02*
D03*
X13035D02*
D03*
D46*
X23772Y10045D02*
D03*
Y9455D02*
D03*
X16200Y7350D02*
D03*
Y7941D02*
D03*
D47*
X26200Y1750D02*
D03*
X26178Y11178D02*
D03*
X1372Y11222D02*
D03*
X1400Y1700D02*
D03*
D48*
X9300Y11350D02*
D03*
X7300D02*
D03*
D49*
X17860Y11031D02*
D03*
X19750D02*
D03*
X21640D02*
D03*
D50*
X12550Y10931D02*
D03*
Y11931D02*
D03*
X13550Y10931D02*
D03*
Y11931D02*
D03*
X14550Y10931D02*
D03*
D51*
Y11931D02*
D03*
D52*
X25950Y7400D02*
D03*
Y5400D02*
D03*
X1650Y5200D02*
D03*
Y7200D02*
D03*
M02*
