G04*
G04 #@! TF.GenerationSoftware,Altium Limited,Altium Designer,20.0.13 (296)*
G04*
G04 Layer_Color=128*
%FSLAX24Y24*%
%MOIN*%
G70*
G01*
G75*
%ADD25C,0.0200*%
%ADD26C,0.0039*%
%ADD89C,0.0020*%
D25*
X27550Y0D02*
Y13000D01*
X0D02*
X27550D01*
X0Y0D02*
Y13000D01*
Y0D02*
X100D01*
X0D02*
X200D01*
X0D02*
X27550D01*
D26*
X10910Y1935D02*
Y2575D01*
X10590Y1935D02*
Y2575D01*
X10910D01*
X10590Y1935D02*
X10910D01*
Y7435D02*
Y8075D01*
X10590Y7435D02*
Y8075D01*
X10910D01*
X10590Y7435D02*
X10910D01*
Y3768D02*
Y4408D01*
X10590Y3768D02*
Y4408D01*
X10910D01*
X10590Y3768D02*
X10910D01*
X6735Y7090D02*
X7375D01*
X6735Y7410D02*
X7375D01*
Y7090D02*
Y7410D01*
X6735Y7090D02*
Y7410D01*
X10910Y5602D02*
Y6241D01*
X10590Y5602D02*
Y6241D01*
X10910D01*
X10590Y5602D02*
X10910D01*
X14365Y5963D02*
X15035D01*
X14365Y6337D02*
X15035D01*
Y5963D02*
Y6337D01*
X14365Y5963D02*
Y6337D01*
X12324Y5958D02*
X12994D01*
X12324Y6332D02*
X12994D01*
Y5958D02*
Y6332D01*
X12324Y5958D02*
Y6332D01*
Y4061D02*
X12994D01*
X12324Y4435D02*
X12994D01*
Y4061D02*
Y4435D01*
X12324Y4061D02*
Y4435D01*
X14365Y4066D02*
X15035D01*
X14365Y4440D02*
X15035D01*
Y4066D02*
Y4440D01*
X14365Y4066D02*
Y4440D01*
X5260Y4300D02*
Y4940D01*
X4940Y4300D02*
Y4940D01*
X5260D01*
X4940Y4300D02*
X5260D01*
X17765Y8837D02*
X18435D01*
X17765Y8463D02*
X18435D01*
X17765D02*
Y8837D01*
X18435Y8463D02*
Y8837D01*
X16437Y5215D02*
Y5885D01*
X16063Y5215D02*
Y5885D01*
X16437D01*
X16063Y5215D02*
X16437D01*
X23015Y11213D02*
X23685D01*
X23015Y11587D02*
X23685D01*
Y11213D02*
Y11587D01*
X23015Y11213D02*
Y11587D01*
X17860Y4085D02*
Y4725D01*
X17540Y4085D02*
Y4725D01*
X17860D01*
X17540Y4085D02*
X17860D01*
X16410Y1285D02*
Y1925D01*
X16090Y1285D02*
Y1925D01*
X16410D01*
X16090Y1285D02*
X16410D01*
X14325Y2460D02*
X14965D01*
X14325Y2140D02*
X14965D01*
X14325D02*
Y2460D01*
X14965Y2140D02*
Y2460D01*
X16406Y3014D02*
Y3654D01*
X16086Y3014D02*
Y3654D01*
X16406D01*
X16086Y3014D02*
X16406D01*
X17285Y5740D02*
X17925D01*
X17285Y6060D02*
X17925D01*
Y5740D02*
Y6060D01*
X17285Y5740D02*
Y6060D01*
X12385Y2140D02*
X13025D01*
X12385Y2460D02*
X13025D01*
Y2140D02*
Y2460D01*
X12385Y2140D02*
Y2460D01*
D89*
X25609Y1750D02*
X26791D01*
X26200Y1159D02*
Y2341D01*
X9064Y11350D02*
X9536D01*
X9300Y11114D02*
Y11586D01*
X7064Y11350D02*
X7536D01*
X7300Y11114D02*
Y11586D01*
X25587Y11178D02*
X26769D01*
X26178Y10588D02*
Y11769D01*
X17624Y11031D02*
X18096D01*
X17860Y10795D02*
Y11267D01*
X19514Y11031D02*
X19986D01*
X19750Y10795D02*
Y11267D01*
X21404Y11031D02*
X21876D01*
X21640Y10795D02*
Y11267D01*
X12373Y10931D02*
X12727D01*
X12550Y10753D02*
Y11108D01*
X12373Y11931D02*
X12727D01*
X12550Y11753D02*
Y12108D01*
X13373Y10931D02*
X13727D01*
X13550Y10753D02*
Y11108D01*
X13373Y11931D02*
X13727D01*
X13550Y11753D02*
Y12108D01*
X14373Y10931D02*
X14727D01*
X14550Y10753D02*
Y11108D01*
X14373Y11931D02*
X14727D01*
X14550Y11753D02*
Y12108D01*
X781Y11222D02*
X1963D01*
X1372Y10631D02*
Y11812D01*
X25714Y7400D02*
X26186D01*
X25950Y7164D02*
Y7636D01*
X25714Y5400D02*
X26186D01*
X25950Y5164D02*
Y5636D01*
X1414Y5200D02*
X1886D01*
X1650Y4964D02*
Y5436D01*
X1414Y7200D02*
X1886D01*
X1650Y6964D02*
Y7436D01*
X809Y1700D02*
X1991D01*
X1400Y1109D02*
Y2291D01*
X14109Y10393D02*
X14229D01*
X14169Y10333D02*
Y10453D01*
X12390Y9450D02*
X12510D01*
X12450Y9390D02*
Y9510D01*
X4990Y3850D02*
X5110D01*
X5050Y3790D02*
Y3910D01*
X5440Y3500D02*
X5560D01*
X5500Y3440D02*
Y3560D01*
X14790Y3500D02*
X14910D01*
X14850Y3440D02*
Y3560D01*
X15640Y2650D02*
X15760D01*
X15700Y2590D02*
Y2710D01*
X4090Y10850D02*
X4210D01*
X4150Y10790D02*
Y10910D01*
X7140Y3750D02*
X7260D01*
X7200Y3690D02*
Y3810D01*
X6740Y3200D02*
X6860D01*
X6800Y3140D02*
Y3260D01*
X11090Y5700D02*
X11210D01*
X11150Y5640D02*
Y5760D01*
X17690Y5250D02*
X17810D01*
X17750Y5190D02*
Y5310D01*
X18190Y5000D02*
X18310D01*
X18250Y4940D02*
Y5060D01*
X18090Y4350D02*
X18210D01*
X18150Y4290D02*
Y4410D01*
X11590Y8600D02*
X11710D01*
X11650Y8540D02*
Y8660D01*
X11240Y7150D02*
X11360D01*
X11300Y7090D02*
Y7210D01*
X26440Y3650D02*
X26560D01*
X26500Y3590D02*
Y3710D01*
X25790Y3600D02*
X25910D01*
X25850Y3540D02*
Y3660D01*
X25140Y3600D02*
X25260D01*
X25200Y3540D02*
Y3660D01*
X24490Y3600D02*
X24610D01*
X24550Y3540D02*
Y3660D01*
X23790Y3600D02*
X23910D01*
X23850Y3540D02*
Y3660D01*
X21090Y4932D02*
X21210D01*
X21150Y4872D02*
Y4992D01*
X21090Y5520D02*
X21210D01*
X21150Y5460D02*
Y5580D01*
X21690Y4850D02*
X21810D01*
X21750Y4790D02*
Y4910D01*
X5940Y4500D02*
X6060D01*
X6000Y4440D02*
Y4560D01*
X15140Y9390D02*
X15260D01*
X15200Y9330D02*
Y9450D01*
X16190Y10150D02*
X16310D01*
X16250Y10090D02*
Y10210D01*
X3340Y2900D02*
X3460D01*
X3400Y2840D02*
Y2960D01*
X3090Y3450D02*
X3210D01*
X3150Y3390D02*
Y3510D01*
X15190Y8150D02*
X15310D01*
X15250Y8090D02*
Y8210D01*
X16680Y6350D02*
X16800D01*
X16740Y6290D02*
Y6410D01*
X16640Y4450D02*
X16760D01*
X16700Y4390D02*
Y4510D01*
X16680Y5260D02*
X16800D01*
X16740Y5200D02*
Y5320D01*
X17740Y9750D02*
X17860D01*
X17800Y9690D02*
Y9810D01*
X17290Y9700D02*
X17410D01*
X17350Y9640D02*
Y9760D01*
X12540Y7400D02*
X12660D01*
X12600Y7340D02*
Y7460D01*
X12240Y7400D02*
X12360D01*
X12300Y7340D02*
Y7460D01*
X5990Y450D02*
X6110D01*
X6050Y390D02*
Y510D01*
X5690Y450D02*
X5810D01*
X5750Y390D02*
Y510D01*
X5390Y450D02*
X5510D01*
X5450Y390D02*
Y510D01*
X5090Y450D02*
X5210D01*
X5150Y390D02*
Y510D01*
X19890Y5400D02*
X20010D01*
X19950Y5340D02*
Y5460D01*
X16581Y7941D02*
X16701D01*
X16641Y7881D02*
Y8001D01*
X17040Y7350D02*
X17160D01*
X17100Y7290D02*
Y7410D01*
X24290Y9500D02*
X24410D01*
X24350Y9440D02*
Y9560D01*
X20690Y8600D02*
X20810D01*
X20750Y8540D02*
Y8660D01*
X22590Y1100D02*
X22710D01*
X22650Y1040D02*
Y1160D01*
X22240Y1100D02*
X22360D01*
X22300Y1040D02*
Y1160D01*
X21890Y1100D02*
X22010D01*
X21950Y1040D02*
Y1160D01*
X16340Y4100D02*
X16460D01*
X16400Y4040D02*
Y4160D01*
X14990Y4750D02*
X15110D01*
X15050Y4690D02*
Y4810D01*
X14990Y6600D02*
X15110D01*
X15050Y6540D02*
Y6660D01*
X15690Y6000D02*
X15810D01*
X15750Y5940D02*
Y6060D01*
X16990Y8650D02*
X17110D01*
X17050Y8590D02*
Y8710D01*
X12264Y6674D02*
X12384D01*
X12324Y6614D02*
Y6734D01*
X15140Y8900D02*
X15260D01*
X15200Y8840D02*
Y8960D01*
X11390Y2550D02*
X11510D01*
X11450Y2490D02*
Y2610D01*
X12290Y3250D02*
X12410D01*
X12350Y3190D02*
Y3310D01*
X12290Y3700D02*
X12410D01*
X12350Y3640D02*
Y3760D01*
X4790Y5300D02*
X4910D01*
X4850Y5240D02*
Y5360D01*
X6940Y1100D02*
X7060D01*
X7000Y1040D02*
Y1160D01*
X6940Y1600D02*
X7060D01*
X7000Y1540D02*
Y1660D01*
X6940Y2000D02*
X7060D01*
X7000Y1940D02*
Y2060D01*
X6940Y2400D02*
X7060D01*
X7000Y2340D02*
Y2460D01*
X8635Y4882D02*
X8755D01*
X8695Y4822D02*
Y4942D01*
X9190Y5350D02*
X9310D01*
X9250Y5290D02*
Y5410D01*
X7940Y6650D02*
X8060D01*
X8000Y6590D02*
Y6710D01*
X8426Y6264D02*
X8546D01*
X8486Y6204D02*
Y6324D01*
X8910Y6200D02*
X9030D01*
X8970Y6140D02*
Y6260D01*
X9484Y5894D02*
X9604D01*
X9544Y5834D02*
Y5954D01*
X7590Y7750D02*
X7710D01*
X7650Y7690D02*
Y7810D01*
X7640Y4950D02*
X7760D01*
X7700Y4890D02*
Y5010D01*
X7190Y5400D02*
X7310D01*
X7250Y5340D02*
Y5460D01*
X8190Y1550D02*
X8310D01*
X8250Y1490D02*
Y1610D01*
X8190Y2200D02*
X8310D01*
X8250Y2140D02*
Y2260D01*
X18740Y2100D02*
X18860D01*
X18800Y2040D02*
Y2160D01*
X18740Y2650D02*
X18860D01*
X18800Y2590D02*
Y2710D01*
X18390Y7600D02*
X18510D01*
X18450Y7540D02*
Y7660D01*
X18390Y8100D02*
X18510D01*
X18450Y8040D02*
Y8160D01*
X4040Y8200D02*
X4160D01*
X4100Y8140D02*
Y8260D01*
X4040Y8450D02*
X4160D01*
X4100Y8390D02*
Y8510D01*
X8140Y7750D02*
X8260D01*
X8200Y7690D02*
Y7810D01*
X8140Y8200D02*
X8260D01*
X8200Y8140D02*
Y8260D01*
X9540Y8900D02*
X9660D01*
X9600Y8840D02*
Y8960D01*
X20490Y6400D02*
X20610D01*
X20550Y6340D02*
Y6460D01*
X20970Y6415D02*
X21090D01*
X21030Y6355D02*
Y6475D01*
X21290Y1050D02*
X21410D01*
X21350Y990D02*
Y1110D01*
X20990Y3700D02*
X21110D01*
X21050Y3640D02*
Y3760D01*
X22240Y9150D02*
X22360D01*
X22300Y9090D02*
Y9210D01*
X22990Y8600D02*
X23110D01*
X23050Y8540D02*
Y8660D01*
X23590Y7100D02*
X23710D01*
X23650Y7040D02*
Y7160D01*
X19760Y3980D02*
X19880D01*
X19820Y3920D02*
Y4040D01*
X19540Y3600D02*
X19660D01*
X19600Y3540D02*
Y3660D01*
X17790Y6350D02*
X17910D01*
X17850Y6290D02*
Y6410D01*
X18340Y6550D02*
X18460D01*
X18400Y6490D02*
Y6610D01*
X12975Y1865D02*
X13095D01*
X13035Y1805D02*
Y1925D01*
X19537Y6747D02*
X19657D01*
X19597Y6687D02*
Y6807D01*
X19990Y6700D02*
X20110D01*
X20050Y6640D02*
Y6760D01*
X19222Y6450D02*
X19342D01*
X19282Y6390D02*
Y6510D01*
X18390Y5568D02*
X18510D01*
X18450Y5508D02*
Y5628D01*
X17340Y3100D02*
X17460D01*
X17400Y3040D02*
Y3160D01*
X17420Y2350D02*
X17540D01*
X17480Y2290D02*
Y2410D01*
X20290Y7700D02*
X20410D01*
X20350Y7640D02*
Y7760D01*
X20240Y7100D02*
X20360D01*
X20300Y7040D02*
Y7160D01*
X16790Y2250D02*
X16910D01*
X16850Y2190D02*
Y2310D01*
X16990Y3800D02*
X17110D01*
X17050Y3740D02*
Y3860D01*
X13890Y6150D02*
X14010D01*
X13950Y6090D02*
Y6210D01*
X11900Y9112D02*
X12020D01*
X11960Y9052D02*
Y9172D01*
X11190Y4100D02*
X11310D01*
X11250Y4040D02*
Y4160D01*
X10332Y4418D02*
X10452D01*
X10392Y4358D02*
Y4478D01*
X9640Y4250D02*
X9760D01*
X9700Y4190D02*
Y4310D01*
X9090Y4700D02*
X9210D01*
X9150Y4640D02*
Y4760D01*
X6590Y6400D02*
X6710D01*
X6650Y6340D02*
Y6460D01*
X10190Y1150D02*
X10310D01*
X10250Y1090D02*
Y1210D01*
X7540Y8800D02*
X7660D01*
X7600Y8740D02*
Y8860D01*
X5190Y7700D02*
X5310D01*
X5250Y7640D02*
Y7760D01*
X5940Y4950D02*
X6060D01*
X6000Y4890D02*
Y5010D01*
X5690Y8600D02*
X5810D01*
X5750Y8540D02*
Y8660D01*
X7490Y6550D02*
X7610D01*
X7550Y6490D02*
Y6610D01*
X6195Y5495D02*
X6315D01*
X6255Y5435D02*
Y5555D01*
X7095Y6590D02*
X7215D01*
X7155Y6530D02*
Y6650D01*
X6190Y8850D02*
X6310D01*
X6250Y8790D02*
Y8910D01*
X12540Y4750D02*
X12660D01*
X12600Y4690D02*
Y4810D01*
X13590Y5500D02*
X13710D01*
X13650Y5440D02*
Y5560D01*
X16170Y6620D02*
X16290D01*
X16230Y6560D02*
Y6680D01*
X10690Y6700D02*
X10810D01*
X10750Y6640D02*
Y6760D01*
X10690Y1450D02*
X10810D01*
X10750Y1390D02*
Y1510D01*
X10690Y8650D02*
X10810D01*
X10750Y8590D02*
Y8710D01*
X9790Y6750D02*
X9910D01*
X9850Y6690D02*
Y6810D01*
X6670Y8080D02*
X6790D01*
X6730Y8020D02*
Y8140D01*
X10690Y3170D02*
X10810D01*
X10750Y3110D02*
Y3230D01*
X11040Y5200D02*
X11160D01*
X11100Y5140D02*
Y5260D01*
X11690Y5250D02*
X11810D01*
X11750Y5190D02*
Y5310D01*
X11900Y11930D02*
X12020D01*
X11960Y11870D02*
Y11990D01*
X10290Y5900D02*
X10410D01*
X10350Y5840D02*
Y5960D01*
X13190Y8100D02*
X13310D01*
X13250Y8040D02*
Y8160D01*
M02*
